<?xml version="1.0" encoding="utf-8"?>
<!-- Generator: Adobe Illustrator 18.0.0, SVG Export Plug-In . SVG Version: 6.00 Build 0)  -->
<!DOCTYPE svg PUBLIC "-//W3C//DTD SVG 1.1//EN" "http://www.w3.org/Graphics/SVG/1.1/DTD/svg11.dtd">
<svg version="1.1" id="Calque_1" xmlns="http://www.w3.org/2000/svg" xmlns:xlink="http://www.w3.org/1999/xlink" x="0px" y="0px"
	 viewBox="0 0 1440 95" enable-background="new 0 0 1440 95" xml:space="preserve">
<rect x="0" y="0" fill="#E86C45" width="1440" height="95.5"/>
<g>
	<g>
		<path fill="#FFFFFF" d="M292.1,38.4v2.4c1.4-2.6,5.1-5.2,10.1-5.2c9.6,0,15.6,5.6,15.6,17.8s-5.8,17.9-15.6,17.9
			c-5,0-8.6-2.7-10.1-5.2v16.8c0,1.2-1.1,2.4-2.4,2.4s-2.4-1.1-2.4-2.4V38.4c0-1.3,1.1-2.4,2.4-2.4S292.1,37.1,292.1,38.4z
			 M302.3,67.1c6.9,0,10.7-4.3,10.7-13.6S309,40,302.2,40c-5.5,0-10.1,3.9-10.1,13.5S296.4,67.1,302.3,67.1z"/>
		<path fill="#FFFFFF" d="M330,38.4v2.4c1.4-2.6,5.1-5.2,10.1-5.2c9.6,0,15.6,5.6,15.6,17.8s-5.8,17.9-15.6,17.9
			c-5,0-8.6-2.7-10.1-5.2v16.8c0,1.2-1.1,2.4-2.4,2.4c-1.2,0-2.4-1.1-2.4-2.4V38.4c0-1.3,1.1-2.4,2.4-2.4
			C328.9,36.1,330,37.1,330,38.4z M340.1,67.1c6.9,0,10.7-4.3,10.7-13.6S346.9,40,340,40c-5.5,0-10.1,3.9-10.1,13.5
			S334.3,67.1,340.1,67.1z"/>
		<path fill="#FFFFFF" d="M362.5,26.3c0-2.1,1-3,2.9-3c1.7,0,2.9,0.8,2.9,3c0,1.7-1,2.9-2.9,2.9C363.6,29.1,362.5,28.1,362.5,26.3z
			 M367.8,68.6c0,1.3-1,2.4-2.4,2.4c-1.3,0-2.4-1-2.4-2.4V38.4c0-1.3,1-2.4,2.4-2.4c1.3,0,2.4,1,2.4,2.4V68.6z"/>
		<path fill="#FFFFFF" d="M381.3,43.9c-0.7,0.8-1.2,1-1.9,1c-1.2,0-2.1-0.9-2.1-2.1c0-0.5,0.1-0.9,0.4-1.2c2-3.3,6.1-5.8,12.4-5.8
			c8.6,0,13.4,5,13.4,12.6v20.5c0,1.2-1,2.4-2.4,2.4c-1.3,0-2.4-1-2.4-2.4v-2.7c-1.8,3.5-6.1,5.3-10.6,5.3
			c-7.9,0-12.9-3.8-12.9-10.6c0-6.5,5-10.4,13-10.4h10.4v-2c0-5-3.4-8.2-8.8-8.2C385.9,40.1,383.5,41.3,381.3,43.9z M398.7,57.6
			v-3.2h-10.4c-4.8,0-8.2,2-8.2,6.3c0,3.9,2.7,6.3,8.5,6.3C393.7,67.1,398.7,63.9,398.7,57.6z"/>
	</g>
	<path fill="#FFFFFF" d="M246,68.6L246,68.6c-0.4,0.9-1.2,1.7-2.5,1.7c-1.4,0-2.6-1.2-2.6-2.6c0-0.3,0.1-0.8,0.2-1.1l18.1-45.8
		c0.4-0.9,1-1.7,2.4-1.7c1.2,0,2,0.8,2.5,1.7l18.1,45.8c0.1,0.4,0.2,0.9,0.2,1.1c0,1.3-1,2.6-2.6,2.6c-1.2,0-2-0.8-2.5-1.7v0.1
		L246,68.6z M261.7,27.7l-14.2,36.4h28.6L261.7,27.7z"/>
</g>
</svg>
