<?xml version="1.0" encoding="utf-8"?>
<!-- Generator: Adobe Illustrator 18.1.0, SVG Export Plug-In . SVG Version: 6.00 Build 0)  -->
<svg version="1.1" id="Calque_1" xmlns="http://www.w3.org/2000/svg" xmlns:xlink="http://www.w3.org/1999/xlink" x="0px" y="0px"
	 viewBox="0 0 1440 95.5" enable-background="new 0 0 1440 95.5" xml:space="preserve">
<rect x="0" y="0" fill="#4DAD50" width="1440" height="95.5"/>
<g>
	<g>
		<path fill="#FFFFFF" d="M181.7,70h5.5v6.8h-18.7V70h5.5V39.9h-5.5V33h18.7v6.8h-5.5V70L181.7,70z"/>
		<path fill="#FFFFFF" d="M232.1,76.9h-17.2V70h4.8v-9.5c0-5.3-2.8-8.3-7.5-8.3c-2.7,0-5.5,1.5-7.9,4.4V70h5v6.8h-17.2V70h4.8V53.2
			h-4.8v-6.8h12.3v2.6c2.6-2.2,5.8-3.5,9.4-3.5c8.1,0,13.4,5.8,13.4,14.6v10h4.9L232.1,76.9L232.1,76.9z"/>
		<path fill="#FFFFFF" d="M271.6,76.9h-12.3v-2.2c-2.5,1.9-5.7,2.9-9.3,2.9c-8.5,0-15.4-7.1-15.4-16s6.8-15.9,15.4-15.9
			c3.6,0,6.8,1.1,9.3,2.8V38h-4.9v-6.8h12.3v39h4.9L271.6,76.9L271.6,76.9z M259.3,67.6V55.9c-2.7-2.8-5.3-3.8-8.3-3.8
			c-5.2,0-9.1,4.4-9.1,9.5s3.8,9.6,9.1,9.6C253.9,71.2,256.6,70.2,259.3,67.6z"/>
		<path fill="#FFFFFF" d="M306.7,70h4.9v6.8h-12.3v-2.1c-2.5,1.8-5.7,2.8-9.3,2.8c-8.5,0-15.4-7.1-15.4-15.9c0-8.9,6.8-16,15.4-16
			c3.6,0,6.8,1.1,9.3,2.8v-2.1h12.3v6.8h-4.9V70z M299.2,67.6v-12c-2.7-2.6-5.3-3.6-8.3-3.6c-5.2,0-9.1,4.4-9.1,9.6
			c0,5.1,3.8,9.5,9.1,9.5C293.9,71.2,296.6,70.2,299.2,67.6z"/>
		<path fill="#FFFFFF" d="M362.4,53.3L353,77h-6.5l-6.3-18.6L333.9,77h-6.4l-9.3-23.7h-3.4v-6.8h15.1v6.8h-4.2l4.9,13.2l6.9-20.1
			h5.2l7,20.2l5-13.3h-4.2v-6.8h15.1v6.8H362.4L362.4,53.3z"/>
		<path fill="#FFFFFF" d="M400.7,61.7c0,9.3-7.3,16.2-16.5,16.2c-9.3,0-16.5-6.9-16.5-16.2s7.2-16,16.5-16
			C393.4,45.7,400.7,52.5,400.7,61.7z M393.3,61.7c0-5.1-3.9-9.2-9.1-9.2c-5.3,0-9.1,4.1-9.1,9.2c0,5.2,3.8,9.4,9.1,9.4
			C389.4,71.1,393.3,66.9,393.3,61.7z"/>
	</g>
	<g>
		<path fill="#FFFFFF" d="M292.1,33.9c0,4.9-3.8,8.5-8.7,8.5s-8.7-3.6-8.7-8.5s3.8-8.4,8.7-8.4S292.1,29.1,292.1,33.9z M288.2,33.9
			c0-2.8-2-4.9-4.7-4.9c-2.8,0-4.8,2.1-4.8,4.9s2,5,4.8,5C286.2,38.9,288.2,36.7,288.2,33.9z"/>
	</g>
	<g>
		<path fill="#FFFFFF" d="M307.4,31.2c0,3.3-2.6,5.8-5.9,5.8s-5.9-2.5-5.9-5.8s2.6-5.7,5.9-5.7S307.4,27.9,307.4,31.2z M304.8,31.2
			c0-1.9-1.3-3.3-3.2-3.3c-1.9,0-3.2,1.4-3.2,3.3c0,1.9,1.3,3.4,3.2,3.4C303.4,34.5,304.8,33,304.8,31.2z"/>
	</g>
	<g>
		<path fill="#FFFFFF" d="M295.1,21.6c0,2.2-1.8,3.9-4,3.9c-2.3,0-4-1.7-4-3.9s1.8-3.9,4-3.9C293.3,17.7,295.1,19.4,295.1,21.6z
			 M293.3,21.6c0-1.2-1-2.2-2.2-2.2c-1.3,0-2.2,1-2.2,2.2c0,1.2,0.9,2.3,2.2,2.3C292.3,23.9,293.3,22.8,293.3,21.6z"/>
	</g>
</g>
</svg>
