<?xml version="1.0" encoding="utf-8"?>
<!-- Generator: Adobe Illustrator 18.1.0, SVG Export Plug-In . SVG Version: 6.00 Build 0)  -->
<svg version="1.1" id="Calque_1" xmlns="http://www.w3.org/2000/svg" xmlns:xlink="http://www.w3.org/1999/xlink" x="0px" y="0px"
	 viewBox="0 0 300 83.8" enable-background="new 0 0 300 83.8" xml:space="preserve">
<g>
	<path fill="#FFFFFF" d="M118.7,32.2v2.3c1.4-2.5,5-5.1,9.9-5.1c9.4,0,15.2,5.5,15.2,17.4s-5.7,17.5-15.2,17.5
		c-4.9,0-8.4-2.6-9.9-5.1v16.4c0,1.2-1.1,2.3-2.3,2.3s-2.3-1.1-2.3-2.3V32.2c0-1.3,1.1-2.3,2.3-2.3S118.7,30.9,118.7,32.2z
		 M128.6,60.2c6.7,0,10.5-4.2,10.5-13.3s-3.9-13.2-10.6-13.2c-5.4,0-9.9,3.8-9.9,13.2C118.6,56.3,122.9,60.2,128.6,60.2z"/>
	<path fill="#FFFFFF" d="M155.7,32.2v2.3c1.4-2.5,5-5.1,9.9-5.1c9.4,0,15.2,5.5,15.2,17.4s-5.7,17.5-15.2,17.5
		c-4.9,0-8.4-2.6-9.9-5.1v16.4c0,1.2-1.1,2.3-2.3,2.3c-1.2,0-2.3-1.1-2.3-2.3V32.2c0-1.3,1.1-2.3,2.3-2.3
		C154.6,29.9,155.7,30.9,155.7,32.2z M165.6,60.2c6.7,0,10.5-4.2,10.5-13.3s-3.9-13.2-10.6-13.2c-5.4,0-9.9,3.8-9.9,13.2
		C155.6,56.3,159.9,60.2,165.6,60.2z"/>
	<path fill="#FFFFFF" d="M187.5,20.3c0-2.1,1-2.9,2.8-2.9c1.7,0,2.8,0.8,2.8,2.9c0,1.7-1,2.8-2.8,2.8
		C188.5,23.1,187.5,22.1,187.5,20.3z M192.6,61.7c0,1.3-1,2.3-2.3,2.3s-2.3-1-2.3-2.3V32.2c0-1.3,1-2.3,2.3-2.3s2.3,1,2.3,2.3V61.7z
		"/>
	<path fill="#FFFFFF" d="M205.8,37.5c-0.7,0.8-1.2,1-1.9,1c-1.2,0-2.1-0.9-2.1-2.1c0-0.5,0.1-0.9,0.4-1.2c2-3.2,6-5.7,12.1-5.7
		c8.4,0,13.1,4.9,13.1,12.3v20c0,1.2-1,2.3-2.3,2.3s-2.3-1-2.3-2.3v-2.6c-1.8,3.4-6,5.2-10.4,5.2c-7.7,0-12.6-3.7-12.6-10.4
		c0-6.4,4.9-10.2,12.7-10.2h10.2v-2c0-4.9-3.3-8-8.6-8C210.3,33.8,208,35,205.8,37.5z M222.8,50.9v-3.1h-10.2c-4.7,0-8,2-8,6.2
		c0,3.8,2.6,6.2,8.3,6.2C217.9,60.2,222.8,57.1,222.8,50.9z"/>
</g>
<path fill="#FFFFFF" d="M73.6,61.7L73.6,61.7c-0.4,0.9-1.2,1.7-2.4,1.7c-1.4,0-2.5-1.2-2.5-2.5c0-0.3,0.1-0.8,0.2-1.1l17.7-44.8
	c0.4-0.9,1-1.7,2.3-1.7c1.2,0,2,0.8,2.4,1.7l17.7,44.8c0.1,0.4,0.2,0.9,0.2,1.1c0,1.3-1,2.5-2.5,2.5c-1.2,0-2-0.8-2.4-1.7v0.1
	L73.6,61.7z M89,21.7L75.1,57.3H103L89,21.7z"/>
</svg>
