<?xml version="1.0" encoding="utf-8"?>
<!-- Generator: Adobe Illustrator 18.0.0, SVG Export Plug-In . SVG Version: 6.00 Build 0)  -->
<!DOCTYPE svg PUBLIC "-//W3C//DTD SVG 1.1//EN" "http://www.w3.org/Graphics/SVG/1.1/DTD/svg11.dtd">
<svg version="1.1" id="Calque_1" xmlns="http://www.w3.org/2000/svg" xmlns:xlink="http://www.w3.org/1999/xlink" x="0px" y="0px"
	 viewBox="0 0 850.4 1417.3" enable-background="new 0 0 850.4 1417.3" xml:space="preserve">
<g>
	<path fill="#8A4134" d="M405.2,9.4c2.5-3.6,9.3-2.7,9.3-8.8c4.7,0,9,0,14,0c4.7,11.2,17.2,2.2,23,9c12.6,2.7,24.4,7.7,35.8,13.1
		c9,4.7,23,9,13.1,25.2c-52.3,16.7-107.3,12.3-160.6,19.2c-9,1.1-17.8,4.7-25.7,9.3c-7.1,4.1-13.1,11.2-22.7,8.5
		c-5.2-5.5,1.1-7.9,3-11.5c1.6-2.7,3.6-5.5,5.2-8.5c10.1-6,17.5-16.1,29.6-18.6c28.2-5.2,57.2-6.6,86.2-6.3c8.8,0,21.6,3.6,24.1-7.1
		c2.5-11.5-11.2-11.5-18.9-15.3C415.6,15.1,408.7,15.1,405.2,9.4z"/>
	<path fill="#E8E7E7" d="M132.9,658.7l-1.6,0.3l-1.6-0.3c0-12.3,0-24.4,0-36.7c2.2-1.6,4.1-1.4,6.3,0.3c5.5,10.1,4.7,20.5,2.2,31.2
		C136.7,655.7,135.4,657.1,132.9,658.7z"/>
	<path fill="#DADADA" d="M132.9,622.1h-1.6l-1.6-0.3c0-10.9,0-21.6,0-32c1.4,0,3,0,4.7,0c2.2,1.6,3.6,3.8,4.7,6.6
		C140.3,605.6,141.9,614.9,132.9,622.1z"/>
	<path fill="#D0C5B0" d="M442.4,1413.4c-29.3,10.9-58.3-0.8-87.3-1.1c-34.2-0.8-69.2-3.8-102.1-17.2
		c-15.3-35.6-19.4-74.4-23.3-111.6c-4.7-46-12.9-92.2-10.1-139.3c2.5-39.1,6.3-77.7,15-116c4.9-21.1,9.9-41.6,14.2-62.4
		c6.6-31.7,27.4-49.3,58.6-50.9c9,0,17.8-0.3,26.5,3.6c2.2,1.1,3.6,3,4.1,5.5c-9.9,41.9-22.7,83.5-26.3,127
		c-1.1,12.6-9.3,22.4-11.2,35c-9.3,69.8-15,139.3,4.7,208c1.6,6.6,3.6,13.7,3,20.2c-1.4,26.5,18.9,40.2,34.5,56.1
		c4.1,4.7,10.1,2.7,15,0.3c8.8-3.8,17.5-8.8,21.3-16.7c22.4-46.8,50.3-91.4,52-145.6c0.3-24.4,6.3-49,11.5-72.2
		c10.1-45.1,6-89.8,6.6-134.6c0.3-17.2-11.8-32.8-8.8-50.9c1.4-7.9-0.8-16.7,4.7-24.4c3-2.7,6.6-3,10.4-1.6
		c9.9,8.5,9.3,20.5,11.2,31.7c10.9,71.7,17.2,143.1,7.9,216.2c-4.9,40.2-7.9,80.7-12.3,120.7c-3.6,32.8-8.5,65.4-19.4,96.3
		C439.6,1397.3,439.4,1404.9,442.4,1413.4z"/>
	<path fill="#CDC3AD" d="M309.1,920.9c-29.6,0.3-50.6,18.6-55.3,49c-7.4,47.9-24.4,94.1-26.5,143.1c-1.6,43-1.1,86.2,3.8,129.4
		c6,51.4,18.1,101.2,21.6,153c-14.2-2.7-29.6-3.8-41.6-14c-9-44.1-16.7-88.4-23-133c-8.8-63.8-7.9-127.5-3.8-191.5
		c2.5-40.5,12.9-79.6,17.5-119.9c1.6-14,4.7-30.1,24.1-31.5c17.2-2.5,33.4,6.3,50.6,3.8C288.6,911.6,302.8,904.7,309.1,920.9z"/>
	<path fill="#CBBFA9" d="M456.1,925.2c-3,0-6.3,0-9,0c-1.6,1.6-3.8,2.7-6.3,3.8c-6.3,1.6-12.6,1.4-18.6-1.1c-2.5-1.1-3.8-3-4.1-6
		c1.1-2.5,2.7-4.7,5.5-5.5c26.5-4.7,53.4-4.7,79.9,0c12.9,7.1,16.4,21.1,19.2,32.8c4.9,22.4,12.3,44.3,12.9,67
		c1.1,38.9,8.5,77.2,9.9,116c1.4,32.8,0.3,65.7,0.8,98.5c0.8,51.4-2.5,102.3-2.2,153.5c0,5.2-1.1,10.9,4.9,14c1.6,1.4,3,3,4.1,5.5
		c-11.5,7.4-24.4,3.6-36.9,4.7c-24.9,3.6-22.7,3.6-21.6-19.2c3-73.1,14.2-145.6,5.5-219.5c-4.1-35.3-3.6-72.5-3.8-108.9
		c-0.8-36.7-14-72-10.4-108.9c1.4-15.3-11.5-20-24.1-22.4C459.6,928.5,458,927.2,456.1,925.2z"/>
	<path fill="#D0C5B0" d="M263.2,837.7c2.5-17.8-10.1-20.5-23-23c-7.1-5.5-9.9-12.9-10.9-21.6c-6-63.8,13.7-122.9,33.4-182
		c0.8-2.2,2.7-3.6,4.7-5.2c18.1-7.1,36.4-4.7,54.7-2.5c7.9,2.7,7.1,8.5,4.7,14.8c-15.6,43.2-17.8,89.5-27.9,133.8
		c-4.9,21.3-3.6,45.1-6.6,67.6c-2.2,2.5-5.2,3.8-8.5,4.9C273.3,822.9,273.6,839,263.2,837.7z"/>
	<path fill="#CBC1AB" d="M225.9,911.3c-18.9,2.2-17.2,17.8-18.1,29.6c-2.7,28.2-12.6,55.5-14.8,83.2c-1.4,19.2-2.7,38.9-4.7,58.3
		c-5.5,69.2,1.6,137.9,10.9,206c3,23,4.9,47.3,14.2,70c2.5,5.5,12.3,16.4-2.2,22.4c-9.3-1.6-17.8-5.2-23.3-13.1
		c-7.4-29.6-15.3-59.4-18.9-89.8c6.6-30.1-7.1-58.3-7.7-87.8c-1.6-79.4-4.7-158.2,10.9-236.4c3-17.2-3.6-35.3,6.6-51.7
		C195.8,900.9,213.6,893.2,225.9,911.3z"/>
	<path fill="#C2B8A3" d="M584.9,1398.6c-3,0.3-6.3,0.3-9,0.8c-5.5-5.2-6.3-12.3-6.3-18.9c0-43.5,1.6-87,1.4-130.2
		c-0.3-63.8,3.8-127.8-7.4-191.3c-5.2-29-3-59.4-11.2-88.4c-2.5-9.3-1.6-19.4-5.5-29c-3-7.9-4.9-16.4,2.7-23
		c18.1-7.7,28.7-0.3,35.6,16.7c11.2,27.6,11.8,57.2,14.2,85.1c6.3,70.6,18.9,141.5,10.4,212.3c-6.3,50.6-3.8,102.3-18.1,151.9
		C590.1,1389.6,588.8,1394.8,584.9,1398.6z"/>
	<path fill="#CEC3AD" d="M460.7,925.2c27.6,0.8,34.2,5.5,31.7,32c-3.8,39.7,14.8,77.2,10.1,116.8c-2.7,25.7,9.9,49.8,2.7,78.3
		c-6.6,26.5,6,55.8,4.7,84.8c-1.4,27.4,1.6,53.6-6,81c-5.2,18.1-1.6,39.1-1.4,58.6c0,10.1-0.3,20-6.3,28.2
		c6.6,4.9,13.7,1.6,20.2,2.7c-15,7.9-30.6,3.6-46.5,4.1c-9.9-17.2-1.6-35-0.3-52c5.2-62.4,8.5-125.3,9.9-188.3
		c1.1-52.8,0.8-105.3-2.7-157.9C474.4,984.9,469.5,954.5,460.7,925.2z"/>
	<path fill="#CEC3AD" d="M460.7,925.2c20.2,27.9,18.6,61.8,22.4,93.3c4.9,42.1,3,85.1,3.8,127.8c0.8,49.8-1.6,101-6,151
		c-3.6,38.3-6.6,76.9-10.4,115.2c-9,0-18.1,0.3-27.4,0.3c-8.8,0-15.3-0.8-10.4-12.9c26.3-64.9,26.3-134.6,35.3-202.8
		c7.1-52.8,9.9-106.4,5.2-158.7c-3.6-37.5-7.1-76.1-16.4-113C457.4,925.2,459.4,925.2,460.7,925.2z"/>
	<path fill="#BEB5A1" d="M584.9,1398.6c6.6-39.4,3.6-80.7,11.5-118.8c11.8-58,7.7-115.5,4.7-172.1c-1.4-28.7,0.3-59.7-8.5-86.5
		c-8.8-27.6-4.1-55.8-14.2-83.5c-7.4-19.4-17.2-16.7-30.4-17.2c-3.6,2.7-7.1,2.5-10.1-0.8c-0.3-2.7,0.3-4.9,2.7-6.6
		c11.2-5.2,23-3,34.5-3.8c6.6,0.3,13.7,0,20.2,2.5c2.7,1.1,4.9,2.5,7.1,4.7c3,3.6,6,7.7,6,12.3c-1.6,37.8,9.3,73.9,11.5,111.4
		c3.6,59.4,11.8,118.2,7.9,178.1c-3,47.9-7.1,95.8-16.7,142.3c-2.2,9.9-1.4,20,1.1,29.6C604.1,1396.2,594.3,1397.3,584.9,1398.6z"/>
	<path fill="#C6BCA5" d="M538.4,920.9c3,0,6.3,0,9.3,0.3c12.6,21.9,4.7,48.4,16.4,70.9c1.4,2.5,1.6,6,1.6,8.8
		c0,52.8,9.9,104.8,10.4,157.9c1.1,80.2-4.7,160.6-1.4,240.8c-6.3,6.6-15,3.8-22.7,4.9c-1.6,0-3.6-0.3-4.9-0.3
		c-7.7-7.7-6.3-18.1-3.8-26.3c10.1-32,6.6-65.4,7.4-98c0.8-63.5,2.5-127-1.1-190.7c-2.2-38.9-8.5-77.4-15-116.3
		c-2.7-16.7-5.5-33.1-3-49.8C533.5,920,535.7,919.5,538.4,920.9z"/>
	<path fill="#B2A996" d="M608.2,313.4c10.9-2.7,21.3-0.3,31.7,0.3c12.6,18.6,15.6,40.2,19.2,61c1.6,9.3,2.7,19.2,6,28.2
		c0.8,2.5,0.8,4.9,0.8,7.4c-2.5,10.4-0.3,21.6-4.1,32c-22.7,15.3-16.7,37.5-13.1,58.6c1.4,7.7,7.4,15.3,0.3,23.3l-1.6,0.8h-2.2
		c-3.6,2.5-7.4,2.2-11.2,0.3c-8.5-4.9-7.9-14-10.1-21.9c-15.3-58-25.7-116.6-43-174.3C578.9,305.7,594,310.7,608.2,313.4z"/>
	<path fill="#CEC3AD" d="M267.5,607.6c-10.1,38.9-21.9,77.2-29.6,116.3c-5.5,29.6-5.5,60.5,2.2,90.3c-10.9,0.8-21.9,1.1-32-4.1
		c-2.7-46.8-9.9-93.6,1.6-140.1c2.7-11.2,4.9-22.4,5.5-33.9c1.6-30.4,6-34.2,37.8-35c2.7,0,5.5,0.8,7.9,1.4
		C263.4,604.3,265.6,605.6,267.5,607.6z"/>
	<path fill="#BBB19E" d="M612.6,1389.9c-16.7-11.2-9-26.3-5.2-39.7c1.1-3.8,5.2-7.4,5.2-12.3c3.6-75.8,17.8-151.6,7.7-226.8
		c-4.7-33.1,0-67.6-9-98.5c-9.9-32.6-0.8-65.4-12.3-96.3c8.5-5.5,14.2-2.2,18.6,5.5c4.7,8.8,10.4,17.8,10.1,27.6
		c-1.4,37.5,14,73.3,10.1,111.1c-1.1,77.2,2.2,154.6-1.6,231.8c-12.6,29-7.7,59.7-10.1,89.8c0.3,1.1,0.3,2.5,0.8,3.6
		C622.7,1390.4,617.5,1389.9,612.6,1389.9z"/>
	<path fill="#CBC0A9" d="M184.1,805.9c-6.3-0.3-13.1,1.1-18.1-4.7c-14.2-23.3-10.9-50.3-13.1-75.5c-4.1-41.6-6-83.5,1.1-125.3
		c12.3-12.3,24.9-8.5,37.8-1.6c7.1,6,9,14.2,7.7,22.7c-8.5,52.8-5.2,105.9-4.9,158.7C195,789.5,200.2,802.7,184.1,805.9z"/>
	<path fill="#CDC2AC" d="M184.1,805.9c11.8-24.9,4.9-50.9,3.6-75.8c-1.6-33.9,2.2-66.8,4.9-99.9c0.8-8.8-3.8-18.6,1.4-26.8
		c20.2-11.5,41.3-7.7,62.1-3c2.7,1.6,3.8,3.8,3,7.1c-7.1,0-13.7,0.3-20.5,0.3c-11.2,0-18.1,4.9-16.7,16.4c3,25.4-5.5,49.8-10.9,73.6
		c-5.2,25.7,3.8,49.5,1.6,74.4c-1.1,12.9-1.1,25.7-4.9,38C199.7,810,191.2,812,184.1,805.9z"/>
	<path fill="#BBB19E" d="M608.2,313.4c-12.9,0-26.5-1.4-23.3,18.6c6.6,35.6,14.2,70.9,22.4,106.2c3.6,14.8,8.8,29,10.4,44.3
		c1.6,14.8,3,29-6.6,41.6c-1.6,1.6-4.1,2.7-6.6,2.7c-11.8-8.5-7.4-22.4-11.5-33.1c-16.7-44.1-16.1-92.8-39.7-134.6
		c-4.7-7.7-4.9-17.5-4.9-26.8c0-10.9-6.3-12.6-15-11.8c-10.1-0.3-20.2,1.1-29.3-4.7c-2.2-1.6-2.7-4.1-2.5-7.1
		c3.8-3.8,9-4.9,14.2-5.5c6.3-0.8,12.6-0.3,19.2-0.3c28.7-0.8,28.7-0.8,29.6-28.7c0.8-12.6-0.3-26.3,15-32c4.1-0.8,7.7,0,10.4,3.6
		c-9.3,17.8-4.1,36.7-4.1,55.3C585.5,315.6,602.5,305.7,608.2,313.4z"/>
	<path fill="#C1B7A2" d="M502.3,313.4c10.9,0,21.3,0,32,0c16.7,18.6,12.9,43,18.6,64.6c10.4,39.7,23.8,78.5,32,119
		c2.5,11.5,8.8,21.1,18.9,27.9c1.4,0,3,0,4.7,0c9-7.7,18.1-5.2,27.6-0.3c3,0.3,6.6,0.8,9.9,1.1c-12.3,6.6-25.4,4.1-38,3.6
		c-18.6-1.1-25.2,6-22.7,23.3c1.1,7.4,0.3,15,0.8,22.7c-2.2,1.6-4.1,2.2-6.6,1.1c-7.9-5.2-8.8-14-9-21.9c-0.3-8.5-0.3-16.7-6-23.8
		c-12.6-50.9-32-100.1-41.6-151.9c-3.8-21.6-20-39.4-22.4-62.1C500.7,315.6,501.5,314.5,502.3,313.4z"/>
	<path fill="#A8A08F" d="M594,916.2c-6.3,0-12.3,0-18.6,0c0.3-13.1,5.2-25.7,3.6-39.1c0-4.7,0.3-8.8,0.8-13.1
		c0.3-3.6,1.1-6.6,2.7-9.9c0.8-0.8,1.6-1.4,2.5-2.5c31.5,4.9,62.9,7.4,93.3,18.1c13.7,4.9,21.9,12.9,21.1,28.2
		c-1.1,1.4-2.7,2.2-4.7,2.5c-1.6,0-3.6,0-5.2-0.3c-3.6-0.3-7.1,0.3-10.1,1.4c-4.7,1.4-9,3-14,4.7c-6.3,1.6-12.6,3.6-18.9,5.2
		C629.5,921.1,611.2,910.7,594,916.2z"/>
	<path fill="#C1B9A4" d="M603.6,814.7l-2.2,0.3h-2.2c-11.2,5.5-16.4-0.3-20.5-10.1c-7.1-16.4-5.5-34.5-7.4-51.4
		c-4.9-44.3,2.5-89.5-9.3-133.3c-1.1-3.6,0.8-7.7,2.5-11.2c1.4-2.5,3.6-3.8,6.3-4.9c3.8-1.4,7.9-1.6,12.3-1.6
		c6,0.8,11.5,1.6,14.8,7.4c10.9,62.1,16.7,125,12.6,188.3C609.3,804.3,607.7,810,603.6,814.7z"/>
	<path fill="#B8B7A8" d="M175.6,1279.6c4.9,23.3,9.3,46.8,15,70c1.4,6.6,6,12.6-1.6,17.8c-7.7-3.8-9.3-12.3-13.7-18.6
		c-2.7-25.4-9.9-49.8-17.2-73.9c-1.4-6.3-3-12.3-4.7-18.6c2.2-23-4.1-45.4-7.4-68.1c-1.6-45.4-8.8-90.3-6.6-135.7
		c4.1-23.3,2.5-47.3,4.7-70.9c0-2.7,0.3-5.2,1.1-7.7c1.6-19.4,5.5-38.9,7.1-58.3c0.8-8.5-0.8-19.4,13.1-19.2c2.5,1.4,4.7,3,5.5,6
		c3.8,10.4,3.6,21.3,1.4,31.7c-14,73.3-8.8,147.2-10.1,221.1C160.8,1197,172,1237.7,175.6,1279.6z"/>
	<path fill="#C6BCA5" d="M566.3,608.4c11.5,48.2,7.1,97.4,10.9,145.8c1.4,16.1,1.6,33.9,7.4,50.6c2.7,9,7.7,10.1,14.8,10.4
		c-20.5,6-13.7,22.7-14.2,36.7v1.1c-3.6,0.3-7.1-1.1-7.1-4.1c-1.1-18.9-13.7-24.4-29-27.4c-1.6-1.6-2.5-3.8-2.5-6.6
		c13.7-50.6,5.5-101-0.3-151.6c-2.5-19.4-8.8-38.9,2.5-57.2C554.8,602.6,560.9,602.6,566.3,608.4z"/>
	<path fill="#A79E8F" d="M225.9,911.3c-14-10.4-32,1.1-46-9c-5.2,1.1-10.1-0.3-14-4.7l0,0c-3-3.6-8.5-1.4-11.8-4.1
		c-3.6-4.7-5.5-9.3-2.5-15c16.4-12.9,35-18.1,55.5-17.8c16.7,1.6,34.5-4.1,50.3,6.6c4.9,3.8,6.3,9.3,8.5,15
		c-0.3,12.3,4.1,23,10.9,33.1C259.9,914.6,242.9,913.2,225.9,911.3z"/>
	<path fill="#BEB4A1" d="M603.6,814.7c0-12.3-1.1-24.9,0.3-36.7c6.3-57.2-11.2-113-9.3-169.9c6.6-5.5,13.1-5.2,20.2,0
		c6,25.4,13.1,51.4,13.7,77.7c0.8,32.6,0.3,65.4,0,97.7c0,11.5-0.3,23-10.9,30.6C612.6,814.7,607.9,814.7,603.6,814.7z"/>
	<path fill="#8A8379" d="M658.6,313.9c13.7-3,20,1.4,23.8,16.1c15,58,23.3,116.6,28.2,175.9c0.8,8.5,2.2,15.6-9.9,15.3
		c-2.7,1.4-4.9,1.1-7.4-1.1c-8.8-14.2-7.7-30.4-9.9-46c-6.3-45.1-14-89.8-24.9-134.1C656.9,332,652.3,322.7,658.6,313.9z"/>
	<path fill="#817C73" d="M713,594.4c3,63.2-5.2,125.3-13.7,187.4c-1.4,10.9-5.5,19.2-18.1,20.2c-6.3-6.3-4.9-13.7-3.8-21.3
		c8.8-54.2,13.7-108.6,15.6-163.4c0.3-8.5,0.8-16.7,7.7-23C705.3,591.1,709.2,591.1,713,594.4z"/>
	<path fill="#A9A091" d="M713,594.4c-2.7,0-5.5,0-8.5-0.3c-15.3,3.8-3,23.3-16.4,28.7c-7.7-2.2-7.7-15-18.6-13.1c-4.7,0-9,0-13.1,0
		c-7.4,0.3-14.8,0-21.9,0c-15.3,0-30.1-6.3-45.7-4.1c-6-1.1-7.4-5.5-8.5-10.4c-0.8-4.7-1.4-9-1.6-13.1c0-2.2,0.8-4.1,2.5-6
		c1.6,0,3.6-0.3,4.9-0.3c36.4,3,72.5,6.3,109.2,9.9C701.8,585.7,710.5,584.3,713,594.4z"/>
	<path fill="#9B9A90" d="M686.2,621.5c10.9-6-4.7-29.6,18.6-27.6c-11.5,23.8-4.9,49.5-7.4,74.4c-4.1,44.6-10.9,88.9-15.6,133.3
		c-3.8,4.9-9,3.6-14,3.6c-7.4-18.1-1.6-35.8,1.4-53.4c5.5-34.5,6-69.8,10.1-104.3C680.2,638.5,678.8,628.9,686.2,621.5z"/>
	<path fill="#BDBAA8" d="M157,598.8c-2.2,67.6,1.4,135.4,9,202.8c-7.1-1.1-14-2.2-17.5-10.1c-0.3-33.1-6.6-65.9-9-99.1
		c-0.8-7.1-0.8-13.7-1.1-20.5c0-23-0.3-46,0.3-68.7c0-2.7,0.8-5.2,2.2-7.7C148,589.2,153.2,591.7,157,598.8z"/>
	<path fill="#A6A494" d="M686.2,621.5c-0.3,61.8-9.3,122.6-18.6,183.6l-2.2,0.8h-2.2c-2.7,1.6-5.2,1.1-7.1-1.6
		c0.3-33.4-3-67,5.2-99.9c6-23.3,3-47.1,3.8-70.6c0.3-10.4-1.1-21.6,6.6-30.4C686.7,602.1,686.5,611.9,686.2,621.5z"/>
	<path fill="#BBB19E" d="M617,814.4c5.2-55.3,11.5-110.3-3.6-165c-3.6-12.9-1.1-27.6-1.4-41.3c13.1-5.2,23.8-2.5,24.1,13.1
		c1.6,59.4,1.4,118.8,0,178.1c0,4.7-2.7,8.8-5.2,12.6C627.1,816.3,622.2,815,617,814.4z"/>
	<path fill="#B3AA97" d="M658.6,805.7c1.6,0.3,3.6,0.3,5.2,0.8c-5.5,5.2-12.3,4.7-18.9,3.8c-7.4-7.9-4.1-17.2-3.6-26.3
		c3.6-38,1.1-76.1,1.6-114.1c0-7.1-1.6-13.7-5.5-19.4c-3-15.6-1.6-31.5-1.6-47.1c7.7,0,15.3,0,23,0c13.7,29,7.1,59.7,5.2,89.5
		C662.1,730.1,656.4,767.6,658.6,805.7z"/>
	<path fill="#B9B09D" d="M635.6,603.4c7.9,14.8,3,30.6,4.7,46c1.6,2.5,3.8,5.2,3.8,7.9c0,50.9,4.1,102.1-3.8,152.4
		c-2.7,0.3-6,1.1-8.8,1.4c0-61-0.8-122.3-0.3-183.6c0-14-2.5-22.7-18.6-20.2c-6.3,0-12.3,0-18.6,0c-4.7,0-9.3,0-14,0
		c-0.8-4.1,0.8-5.5,4.9-4.7C601.6,603.4,618.3,603.4,635.6,603.4z"/>
	<path fill="#B0A796" d="M649.3,524.9c-6.6-19.2-9.3-38.9-10.1-59.4c-0.3-16.1,5.2-21.6,19.2-23.3c13.1,11.2,8.8,28.2,14.8,41.9
		c-2.2,13.1,7.7,28.2-5.2,40.2C661.8,524.9,655.5,524.9,649.3,524.9z"/>
	<path fill="#847F77" d="M705.1,1147.7c-0.3,15.3,1.6,31.2-4.7,45.7c-11.5-10.4-4.1-25.7-9.9-38c-2.2-10.4-1.4-21.3-1.6-32
		c0.3-11.8-0.8-24.1,1.4-35.8c5.2-24.4,4.1-48.4,0.8-73.1c-0.8-2.5-1.4-5.2-1.4-7.7c-1.1-14.2-0.8-29-0.8-43.2
		c0.8-7.7,0-16.1,8.5-20.5c9.9,3.6,1.1,14.2,7.1,19.2c0,3,0,6.6,0,9.9c4.9,16.7,1.1,34.2,2.2,51.4c1.1,8.8-2.2,17.8,2.2,26.5
		c-3,21.6-1.1,43-0.3,64.6C704,1125,709.2,1136.8,705.1,1147.7z"/>
	<path fill="#9F9A8D" d="M658.6,313.9c18.6,67.6,28.2,136.8,36.9,206c-14.2,6.3-14.8-6.3-16.4-14c-5.5-21.9-5.5-45.1-7.9-67.3
		c-2.2-19.4-7.1-38.3-11.2-57.5c0-23.3-14-43.5-15-67C649.5,313.9,654.2,313.9,658.6,313.9z"/>
	<path fill="#ABA695" d="M663.2,378c12.6,32.6,14.8,67,18.6,101.2c1.6,14.2-2.5,31.5,14,41.3c1.6,0.3,3.6,1.1,4.9,1.4
		c-10.4,5.5-21.9,3.6-33.1,3c0-13.7,0-27.4,0-40.8c1.4-16.7,0-33.4-3.6-49.8c-1.6-7.7-6.3-15.3-1.1-23.8c0-1.4,0-3,0-4.7
		C659.6,396.6,655.5,387,663.2,378z"/>
	<path fill="#ABAAA9" d="M143.3,1049.5c-2.2,47.3,7.7,94.9,4.7,142.3c2.2,4.9-0.3,5.2-4.1,4.7c-3.6-13.7-7.4-27.4-4.7-41.6
		c2.5-9,3.6-18.6-0.8-27.4c-6.3-43.2-7.4-86.5-0.3-129.4c9.3,9.3,2.2,22.4,6.6,33.1C145.2,1037.4,147.1,1043.7,143.3,1049.5z"/>
	<path fill="#B7AD9B" d="M639.9,810c0-53.6,0-107.3,0-160.9c12.9,2.2,9,12.3,9,20c-0.3,46.8,2.5,93.9-4.7,140.6
		C643.2,810,641.6,810,639.9,810z"/>
	<path fill="#77746F" d="M695.2,1155.4c9.9,11.5,1.4,25.4,5.2,38c-3,24.4-6,49-10.1,73.1c-1.4,7.7-0.3,17.2-8.5,22.7
		c-3.6,2.5-7.1,2.7-10.4,0.8c-7.1-16.4,1.1-31.5,4.9-46.5c4.7-8.8,3.6-18.1,5.5-27.4c3-8.8,2.5-18.1,4.7-27.4
		c3.6-8.8,1.6-18.6,4.7-27.4C692.2,1158.9,693.6,1157,695.2,1155.4z"/>
	<path fill="#A6A497" d="M646,1377.3c-5.5,4.9-11.8,7.9-19.4,8.5l-0.3-0.8c-11.2-20,4.9-37.5,4.9-56.6c1.6-5.5,4.9-10.9,8.5-15.3
		c5.5-4.1,3.6-17.2,15.6-13.7c9,15,0.8,29.3-2.2,43.5c-1.4,7.9-5.2,15.6-6.6,24.1C646.2,1370.4,646,1374,646,1377.3z"/>
	<path fill="#B4492E" d="M626,161.5c3,0,6.3,0.3,9.3,0.3c10.9,12.3,15.3,54.2,7.4,65.9c-4.9,7.1-10.9,7.4-17.8,3.8
		C617.5,208.1,615.9,184.5,626,161.5z"/>
	<path fill="#AE6A58" d="M590.1,245.3c-2.7,0-6-0.3-8.8-0.3c-4.1,2.2-7.9,2.7-10.9-1.4c1.4-9.3,12.6-7.7,16.1-14.8
		c3.6-2.2,7.7-2.7,11.8-3c3-0.3,6.3-0.3,9.9,0c3,0,6.6,0.3,9.9,1.4c2.2,0.8,3.8,1.6,5.5,3c8.5,7.1,16.4,1.4,24.9,0
		c4.7-0.3,8.8-0.3,13.1-0.3c2.2,0,4.7,0.3,6.6,0.8c3.6,0.8,6.3,2.5,8.8,4.9C649.3,247.7,619.2,242.3,590.1,245.3z"/>
	<path fill="#ADA795" d="M663.2,378c0,9,0,18.6,0,27.6c-16.1-18.9-6.3-45.1-17.8-65.7c-4.1-7.4-3.6-17.5-5.2-26.3c1.6,0,3,0,4.9,0
		C654.4,334.2,664.3,354.4,663.2,378z"/>
	<path fill="#AE4931" d="M649.3,235.1c-9.3-1.1-19.4,3.6-27.6-4.1c1.4-1.6,3-1.6,4.9-0.3c6-0.3,13.7,0,13.1-8.5
		c-0.8-20.2,4.9-40.8-4.1-60.5c3,0,6.3,0.3,9.3,0.3c10.4,4.9,10.4,14.2,10.4,23.3c0.3,13.7,0,27.6,1.1,41.3
		C656.1,231.3,652.5,233,649.3,235.1z"/>
	<path fill="#A8A7A6" d="M143.3,672.1c0,31.2,3.8,62.1,8.5,92.8c1.4,8.8,3.8,18.1-2.7,26.5c-7.1-31.5-11.8-62.9-10.4-95.2
		C137.3,688,130.7,678.1,143.3,672.1z"/>
	<path fill="#9E4E43" d="M501.8,46.6c-2.5-16.4-15.3-21.1-28.2-25.7c-7.7-2.7-14.8-7.4-21.9-10.9c20.5,1.6,39.1,9,55.5,22.4
		c9.9,9.9,22.4,18.1,16.4,35.3c-2.2,3.6-4.9,3.8-8.5,2.2c-5.5-4.9-10.4-10.4-14.2-17.2C500.1,50.2,500.4,48.5,501.8,46.6z"/>
	<path fill="#B1655C" d="M588.8,111.2c9,15.3,22.4,28.2,29,45.4c-1.1,1.6-2.5,3-4.7,3.8c-2.2,0.8-3.8,1.1-6,1.1
		c-3,0.3-6.3,0-9.3-0.8c-2.2-0.8-4.1-1.4-6-2.7c-3.6-2.7-5.5-6.6-6.6-11.2c-0.8-2.2-1.1-4.1-1.1-6.6
		C587.1,131.2,574.5,119.4,588.8,111.2z"/>
	<path fill="#BC492E" d="M612.6,157.4c1.6-0.3,3.6-0.3,5.2-0.8c2.7,1.6,5.5,3,8.5,4.9c0,23,0,46,0,69.2c-1.6,0-3,0-4.9,0.3
		c-1.4,0-2.7,0-4.7,0C605.5,207,611.2,182.1,612.6,157.4z"/>
	<path fill="#AC4A32" d="M654.2,230.8c-7.7-13.1-3.8-27.9-4.7-42.1c-0.3-9,0.8-18.1-4.7-26.3c4.7,0,9,0,13.7,0.3
		c11.2,20.2,6.6,41.6,3.8,62.4C661.8,228.8,658.6,231.3,654.2,230.8z"/>
	<path fill="#B6726D" d="M588.8,111.2c-4.7,10.9,3.6,21.3,0.8,31.7c-6.6,3.6-12.9,0.8-19.2-1.4c-2.7-1.6-4.9-3.8-4.9-7.7
		c3.6-5.2,11.2-9.3,3.8-17.2c-2.7-4.1-5.2-8.8-6.3-14c-0.8-3-0.3-6.3,0.8-9.3c1.4-3,3.8-4.9,7.1-5.2
		C577.3,95.9,585.5,101.6,588.8,111.2z"/>
	<path fill="#62605C" d="M672.5,1289.2c3,0,6.3,0,9.9,0c-2.7,26.3-5.2,52.3-23,73.9c-1.6,1.4-3.8,1.6-5.5,0.3
		c-1.1-1.6-1.4-3.8-1.4-6c1.6-7.1,5.5-13.1,7.7-20.5c2.7-7.4,1.6-15,2.2-22.4C663.5,1305,664.3,1295.5,672.5,1289.2z"/>
	<path fill="#ABA293" d="M258.2,870.2c-16.4-6-35-0.3-50.6-9.3c16.4-6.6,33.4-7.7,50.6-7.9c1.6,1.4,2.7,3.6,3.6,5.5
		C262.6,862.8,262.1,867,258.2,870.2z"/>
	<path fill="#90473E" d="M676.6,235.4c-3,0-6.3,0-9,0c-7.9-21.9-4.9-44.3-2.5-66.8c1.6-2.7,3.8-3.8,7.1-2.5
		c13.7,13.1,2.7,29.6,5.5,44.3C679.1,218.4,677.4,227.2,676.6,235.4z"/>
	<path fill="#B4726B" d="M571,89c-1.4,1.4-3,2.5-4.7,3.8c-8.8-0.8-15.6,2.2-20,10.1c-9-3.6-9.9-11.8-11.8-19.4
		c-1.1-9.9,2.7-16.4,13.1-17.8C559.2,69.6,565.2,79.2,571,89z"/>
	<path fill="#AFAFAB" d="M157.5,1275.2c15.6,4.1,7.9,18.1,10.1,26.8c3.8,15.3,14.2,30.1,7.4,47.1
		C166,1325,159.2,1300.7,157.5,1275.2z"/>
	<path fill="#AEADAD" d="M143.3,672.1c-7.7,6.6-3,16.1-4.9,23.8c-7.7-11.8-2.2-25.4-5.2-37.8h1.6c3.8-15.3,0.3-31.2,1.6-46.5
		c0.3-4.9-3.8-12.9,6.6-13.1C143.3,623.4,143.3,647.8,143.3,672.1z"/>
	<path fill="#A3A1A1" d="M139.2,962.2c2.2-20.2,1.4-40.5,8.5-59.9c2.7-1.6,4.9-1.1,6.6,2.2c-0.3,24.1-4.7,47.9-6.3,71.7l0,0
		c-1.4,1.6-3,2.2-5.2,0.8C139.5,972.3,142.8,966.8,139.2,962.2z"/>
	<path fill="#AA6057" d="M548,65.5c-5.2,4.9-10.9,9.3-9,17.8c-6.3,2.7-10.1-1.6-14-5.2c-1.4-1.6-2.2-3.6-2.5-5.5
		c6-10.9-1.6-20.5-1.6-31.2C533.5,45,540.6,55.4,548,65.5z"/>
	<path fill="#A9A9A7" d="M143.6,1197c1.4-1.4,2.7-3,4.1-4.7c3.6,21.3,15,41.9,4.9,64.3C145.8,1236.9,147.1,1216.4,143.6,1197z"/>
	<path fill="#A5503D" d="M672.2,166.2c-1.4,0.3-3,0.8-4.7,1.1c-6.6,22.4,1.6,45.7-4.7,68.1c-4.7,0-9-0.3-14-0.3
		c1.4-1.4,3-2.7,4.7-4.1c10.1-22.4,2.2-45.7,4.7-68.4C663.5,161.8,668.4,162.4,672.2,166.2z"/>
	<path fill="#A0A5A0" d="M258.2,856.6c0-1.4,0-2.7,0-3.8c5.2-3.8,3.8-9.9,4.7-15c6.6-5.2,2.7-21.6,18.1-17.8c1.6,1.6,2.7,3.8,3.8,6
		c1.6,6,1.1,11.8-2.2,17.5C274.4,846.7,271.9,862,258.2,856.6z"/>
	<path fill="#A0524A" d="M520.6,41.4c8.5,10.1,9.9,21.1,4.1,32.8c-4.1,1.1-6-0.3-4.7-4.7c2.5-15-7.1-25.4-13.7-37.5
		C512.4,34,517.6,35.9,520.6,41.4z"/>
	<path fill="#8D887C" d="M704.8,1026.5c0-18.1,0-36.4,0-54.5c7.4,17.8,4.1,36.4,4.1,54.5C707.5,1028.7,706.2,1028.7,704.8,1026.5z"
		/>
	<path fill="#8F8E8D" d="M654.4,1362.2c1.6,0.3,3,0.3,4.9,0.8c-4.7,4.7-5.5,12.6-13.1,14.2c-2.2-1.6-3.8-3.8-6-5.5
		C644.1,1367.2,643,1355.4,654.4,1362.2z"/>
	<path fill="#A3A1A1" d="M143.3,1031.1c-9-9.9-2.2-22.4-5.2-33.1c-0.3-1.4,0-2.5,0.8-3.6c2.7-1.4,4.9-1.1,6.3,1.6
		C144.7,1008.1,148,1019.6,143.3,1031.1z"/>
	<path fill="#8D887C" d="M704.3,962.2c-6.6-4.9-3.8-11.8-4.7-18.1c-4.7-3.8-4.7-9-3.6-14.2c0.8-2.2,2.2-3.6,3.8-4.7
		C706.2,936.7,705.3,949.3,704.3,962.2z"/>
	<path fill="#8A857B" d="M705.1,1147.7c0.8-11.2-4.1-23,3.6-33.4C708.6,1125.3,710.3,1136.8,705.1,1147.7z"/>
	<path fill="#9D9D9C" d="M143.3,994.5c-1.4,0-3,0-4.7,0c0.3-10.9,0.3-21.3,0.8-32c4.9,3.6,3.8,8.8,3.8,13.7
		C146.6,982.2,146.6,988.2,143.3,994.5z"/>
	<path fill="#8D887C" d="M695.2,898.4c1.1,0,2.5-0.3,3.6-0.3c0.8,9,1.1,17.8,1.6,26.8l-1.1,0.8C685.1,918.7,688.9,908.5,695.2,898.4
		z"/>
	<path fill="#A5A29E" d="M152.3,902.3c-1.4,0-3,0-4.7,0c0-8.5-2.2-16.7,4.1-23.8c1.6,4.9,3.6,9.9,5.2,14.8
		C155.9,896.2,155.3,899.8,152.3,902.3z"/>
	<path fill="#A09F9E" d="M138.4,1127.7c7.4,9,7.1,18.1,0.8,27.4C139.2,1146.1,138.9,1136.8,138.4,1127.7z"/>
	<path fill="#8A857B" d="M704.8,1026.5c1.4,0,2.7,0,4.1,0c0,7.7,0,15.3,0,23C701.5,1042.9,705.6,1034.1,704.8,1026.5z"/>
	<path fill="#CBC0A9" d="M212,525.2c-21.6-1.4-43.2,3-64.6-4.7c1.1-1.6,2.7-3,4.7-4.1c2.7-1.4,6-2.5,8.8-3.6
		c18.6-29.6,24.1-63.5,33.1-96.3c10.1-35.8,21.9-71.1,41.3-103.4c18.9-1.4,26.8-10.4,23.8-30.1c-1.6-12.6-1.1-25.2-1.4-38
		c2.2-2.2,4.1-2.2,6.6-0.3c1.6,2.2,2.7,4.1,3.6,6.6c2.2,10.4,1.6,21.3,1.1,32c-1.4,17.5,4.1,25.2,23,24.1
		c25.2-1.4,50.6,1.4,75.5-0.8c41.3-3.6,65.7,21.1,82.4,50.9c24.4,43.2,41.3,90,53.6,138.2c2.7,10.1,6,20.5,1.1,31.5
		c-1.4,2.2-3,3.8-5.5,4.9c-6,2.5-11.8,2.5-17.8,0.3c-21.6-15-21.9-40.8-29.6-62.9c-11.2-32.8-27.6-61.8-54.7-82.1
		c-24.1-17.8-52-15.3-77.7-0.8c-8.8,4.9-16.4,10.9-27.4,10.4c-5.2,0-12.3,2.2-14,6.6c-11.8,31.5-46.5,50.6-47.3,88.4
		C230,506.3,228.1,520.3,212,525.2z"/>
	<path fill="#CEC3AD" d="M212,525.2c7.9-11.8,15.3-23.8,13.1-39.1c-4.1-28.7,24.4-39.1,34.5-59.9c3.8-7.9,1.4-21.3,12.3-24.9
		c31.2-9.9,58-33.1,92.5-30.1c36.9,3.6,57.2,28.7,75,58.6c18.6,31.5,22.4,68.1,39.4,99.6c-6,6.3-12.9,6-20.2,3.6
		c-10.1-6.6-10.4-18.6-13.7-28.2c-5.5-19.4-15.3-36.7-26.5-53.1c-21.9-32-50.9-35.6-81.3-10.1c-14,11.8-28.2,22.4-40.5,36.9
		c-13.7,16.7-21.3,32-11.2,52.8c-6.6,6.3-7.9,14-8.5,22.7c-0.8,7.4,0,15.6-9,19.2c-2.5,0.3-4.7-0.8-6.3-2.5
		c-5.5-12.9,6.3-31.2-4.9-38.3c-9.9-6.6-26.3-2.5-39.7-3.6C215.8,528.5,213.9,526.3,212,525.2z"/>
	<path fill="#C6BCA7" d="M235.2,313.4c-3,25.2-18.1,46-25.2,70c-10.1,34.5-18.6,69.8-30.6,103.4c-4.1,11.2-2.7,27.4-17.8,33.4
		c-9-25.4-2.7-51.4,1.1-75.8c6.6-40.2,16.7-79.9,29-119c1.4-4.7,3.8-8.5,6.6-11.8C210.6,309.8,222.9,312.3,235.2,313.4z"/>
	<path fill="#C1BAA6" d="M198.6,313.7c-1.1,38.9-18.1,74.4-25.4,112.2c-6.3,31.7-4.7,63.5-11.2,94.7c-3,0-6.3-0.3-9.9-0.3
		c-7.7-4.1-10.1-11.2-8.5-18.9c3-13.1,1.6-26.5,4.1-39.7c6.3-24.4,13.1-48.4,12.3-74.4c3-25.4,9-49.8,20-73.3
		C186.3,313.7,192.3,313.7,198.6,313.7z"/>
	<path fill="#ABA294" d="M262.3,570.6c1.6,0.3,3,0.3,4.9,0.8c2.7,4.1,0.3,7.9-1.1,12.3c-3,6.6-1.6,15-7.9,20.2c-21.6,0-43,0-64.6,0
		c-11.8-3.8-24.1-5.5-36.7-4.7c-4.7-1.4-9-3-13.7-4.7c-3,2.5-6,2.5-8.8-0.3c-0.3-1.4-0.3-3-0.8-4.7c31.7-11.2,65.4-9,98-12.9
		C242.4,575.5,253.6,578.5,262.3,570.6z"/>
	<path fill="#A54F36" d="M502.3,51.3c6.3,3,10.9,7.7,13.7,13.7c-7.7,7.9-18.9,5.2-27.9,9c-29.6,3.8-59.7,3.6-88.9,1.1
		C345.8,71,306.4,91.8,276,133.6c-5.2,7.4-10.9,15-18.9,20c-3.6,1.6-7.1,2.2-10.4,1.1c-10.1-16.4,11.2-22.4,11.8-35.3
		c2.5-7.7,9-12.3,13.1-18.1c1.4-2.5,2.7-4.9,3.8-7.1c3-6,8.5-9,14.8-10.4c7.9,0.8,11.8-6.6,18.1-9.3c18.9-9,39.4-11.2,59.9-12.3
		C413.7,59.5,458.3,62.5,502.3,51.3z"/>
	<path fill="#6C3A32" d="M405.2,9.4c12.3,0,23.8,3.8,35,8.8c7.7,3.6,12.6,8.8,10.9,17.5c-1.6,9.3-9,10.9-17.2,10.9
		c-35.6,0-71.1-1.1-106.4,4.7c-1.4-2.2-1.4-3.8,0.3-6c24.9-20,55.5-11.2,84.6-15.3c-7.9-12.6-24.4-5.5-31.5-16.7
		C387.9,7.5,396.4,8.3,405.2,9.4z"/>
	<path fill="#563936" d="M380.8,13.5c11.5,0.8,23,1.4,33.4,6c5.5,2.5,12.6,5.2,10.4,12.6c-1.6,6-8.8,5.5-14,5.2
		c-28.2-0.8-56.6-0.3-83.5,9.3c-2.2-1.6-2.5-4.1-0.8-6.3C342,26.4,360.8,18.7,380.8,13.5z"/>
	<path fill="#C65234" d="M180.2,165.6c6-1.6,11.5-5.5,18.1-3.6c9.9,11.8,4.7,25.7,6.6,38.9c1.1,7.9-4.7,18.9,8.5,22.7
		c4.9,0,9.9,0.8,14.8,1.1c6.6,1.1,13.7,1.1,16.7,8.8c-18.1,12.6-38,4.9-57.2,5.2c-5.2-1.4-10.9-3.6-10.9-9.9
		C176.4,207.5,170.9,186.4,180.2,165.6z"/>
	<path fill="#E6502D" d="M244.6,231.3c-6.3-0.3-12.3-0.3-18.6-0.8c-12.3-22.4-5.5-46-5.2-69.5c3-1.4,6.6-2.7,9.9-4.1
		c4.1-3,8.5-4.1,13.1-1.6c2.2,1.1,4.1,2.5,6,4.7c4.9,23,1.1,46-2.7,68.7C246.2,229.7,245.4,230.2,244.6,231.3z"/>
	<path fill="#DD4F2E" d="M220.7,161.3c11.5,22.4,2.2,46.5,5.2,69.5c-4.7,0-9,0-14,0c-10.4-23-10.4-46,0-69.2
		C215.3,161.5,218,161.3,220.7,161.3z"/>
	<path fill="#D55130" d="M212,161.5c0,23,0,46,0,69.2c-11.5,1.1-14.2-5.5-14-15.3c0.3-17.5,0-35.3,0-52.8
		C203,162.4,207.6,161.8,212,161.5z"/>
	<path fill="#B47260" d="M189.6,235.4c18.6-2.2,37.5,4.1,55.3-4.1V231c7.1-6,12.9-3.8,18.6,1.6c1.4,2.2,2.2,4.1,2.5,6.6
		c-0.3,2.5-1.4,4.7-3.6,6c-1.4,0-3,0-4.7,0.3c-24.4-2.2-49.3,0.8-73.3-5.2C184.9,237.3,187.6,237.1,189.6,235.4z"/>
	<path fill="#A85B43" d="M189.6,235.4c-1.6,1.4-3,3-4.9,4.7c-1.4,0-3,0.3-4.7,0c-13.1-0.8-11.2-11.8-9.3-18.6
		c4.7-18.6-13.1-40.8,9.9-55.8c0,17.5-0.3,34.5,0,52C180,225,178.3,233.8,189.6,235.4z"/>
	<path fill="#AAA9A4" d="M152.3,460.6c4.7,20-8.8,39.4-0.8,59.4c-1.4,0.3-3,0.8-4.7,0.8c-15.3,1.1-14-8.8-12.3-18.9
		c6.6-8.8,4.7-19.4,7.1-29.3c1.6-10.1,1.1-20.5,4.9-30.6c2.5-1.4,4.7-1.1,6.6,0.8C154.5,448.8,156.2,455.1,152.3,460.6z"/>
	<path fill="#AAA9A4" d="M180,313.7c-4.7,24.4-9,49-14,73.3c-1.1,0.3-2.5,1.1-3.6,1.4c-2.2-1.1-3.8-3-4.9-5.2
		c-1.4-13.7,3.8-26.3,7.7-38.9c0.3-4.1,0.3-8.5,0.8-12.6c3.6-5.5,2.5-13.1,8.8-17.5C177,313.9,178.6,313.9,180,313.7z"/>
	<path fill="#9B553F" d="M244.3,156.6c-4.7,0.3-9,0.3-13.7,0.8c4.1-10.1,7.9-20.2,16.4-27.9c6-1.6,7.1-12.3,15.6-9
		c-1.4,13.7-15.6,19.4-18.1,32.6c1.1,1.1,1.4,1.6,1.1,2.7C245.4,156.3,244.6,156.6,244.3,156.6z"/>
	<path fill="#A2A0A0" d="M152.3,442.3c-1.4,0-3,0-4.7,0c-1.6-1.1-3-2.5-4.1-4.7c-1.4-14.8,2.5-28.2,7.9-41.9
		c12.9,1.1,7.9,10.4,8.8,17.5C154.8,422.3,160,434.1,152.3,442.3z"/>
	<path fill="#9A9A9A" d="M166,344.3c-1.4,14.2-2.7,28.7-4.1,42.7c-2.7,2.5-6,2.7-8.8,0C153.7,371.7,152.1,355.5,166,344.3z"/>
	<path fill="#5F4E4A" d="M326.6,40.3c0.3,2.2,0.8,4.1,0.8,6.3c0,1.4,0,3,0,4.7c-8.8,4.9-16.1,12.9-27.4,14
		C305,52.6,316.5,47.4,326.6,40.3z"/>
	<path fill="#7B5143" d="M262.6,120.2c-5.2,3-10.4,6-15.6,9c6.3-11.2,10.1-24.4,24.9-28.2C273.3,109.5,265.6,113.6,262.6,120.2z"/>
	<path fill="#9E9C9B" d="M144.1,437.9c1.4,1.4,2.7,3,4.1,4.7c-1.6,10.9,4.1,22.4-4.7,32c-1.4,2.2-2.7,2.2-3.8,0
		C136.7,461.7,141.7,449.9,144.1,437.9z"/>
	<path fill="#9B9A99" d="M139.2,474.6c1.4,0,2.7,0,3.8,0c-4.1,8.8,8.5,22.4-7.9,27.6C132.1,492.4,138.9,484.1,139.2,474.6z"/>
	<path fill="#744F43" d="M290.5,83.5c-2.7,6.3-8.5,9-14.8,10.4c-1.1-13.7,8.5-17.5,19.2-20.2C293.5,77,292.2,80.3,290.5,83.5z"/>
	<path fill="#AAA9A4" d="M152.9,387c2.7,0,6,0,8.8,0l0,0c0.3,9.3,9,20.5-4.7,27.6c-0.8-6.6,2.2-14-4.9-18.6
		C152.3,393,152.9,390.3,152.9,387z"/>
	<path fill="#919190" d="M175,313.9c-0.8,7.1-2.7,12.9-8.8,17.5C167.4,324.9,161.1,314.5,175,313.9z"/>
	<path fill="#9D4230" d="M502.3,51.3c-20,16.4-44.1,14.2-67.3,13.7c-42.1-1.1-84.6-0.3-126.1,9c23.8-19.4,53.4-14.2,80.2-17.8
		c29.6-3.8,60.7,4.9,88.7-12.9c7.1-4.7,16.4-1.1,24.1,3C502.3,48,502.3,49.9,502.3,51.3z"/>
	<path fill="#A8A7A6" d="M134.6,594.1c2.7,0,6,0.3,8.8,0.3c0,1.4,0,3,0,4.7c-9,11.2-2.7,24.4-4.7,36.4c-1.1,7.7,2.5,16.4-3.8,23.3
		c-0.8-12.3-1.1-24.4-1.6-36.7C133.5,612.5,134,603.4,134.6,594.1z"/>
	<path fill="#D2C8B1" d="M437.7,1210.6c-3.6,32.8-7.7,65.4-31.5,91.4c-4.1,4.7-5.2,10.9-5.5,17.2c-1.4,30.4-21.1,47.1-46.5,59.1
		c-3.8,1.6-11.8,2.7-12.9,1.4c-12.9-21.1-41.9-32.6-39.4-62.1c0.8-9-0.8-16.7-3-24.4c-14.8-47.1-7.9-95.2-10.9-143.1
		c-2.7-45.7,15.6-85.9,20.5-129.2c3-28.2,10.1-59.1,20-87.6c1.1-3,5.2-5.2,7.7-7.9c10.1,14.8,8.5,31.7,3.6,46
		c-10.9,32.6-9.9,65.9-14.8,99.1c-6.6,47.3-0.8,95.2,6,142.8c2.7,21.9,18.6,38,27.4,57.2c4.1,9.3,22.4,10.9,32-0.3
		c9.3-10.9,20.2-20.5,24.4-35.6C418,1223.8,421.9,1210.9,437.7,1210.6z"/>
	<path fill="#D3C9B2" d="M437.7,1210.6c-10.4,8.5-16.4,18.6-18.9,32c-4.9,27.4-34.5,45.1-57.5,36.9c-3.6-1.1-6.3-1.4-8.5-5.5
		c-18.9-33.9-33.9-68.4-34.2-108.6c0-35-5.5-69.8,2.2-104c6.6-30.1,0.3-61.6,14.2-91.1c6-12.6,1.4-30.1,1.6-45.4c0-1.4,0-2.7,0-4.7
		c27.6-11.5,55.3-11.8,82.6,0.3c0,1.4,0,2.7,0,4.1c-11.5,10.1-25.7,5.5-38.9,6.6c-20.2-2.7-26.8,11.8-27.4,26.5
		c-1.4,60.5-4.9,121.2,2.2,181.1c1.4,14,7.1,26.5,13.1,39.1c4.7,9,9.3,18.6,21.6,17.8c11.2-0.3,18.6-8.5,22.4-17.8
		c10.9-26.8,20.5-54.2,19.2-84c0-6.6,0.8-12.9,3.6-19.2c10.9-25.7,6.6-52.8,3.6-78.5c-2.5-20-0.8-39.4-3.8-59.1
		c-1.1-6,2.7-10.1,7.7-12.9c1.4,0,3,0,4.7,0c-2.2,48.4,13.7,95.8,10.1,144.8c-2.7,38.3-8.8,75.8-16.7,113
		C438.3,1192.3,438.3,1201.3,437.7,1210.6z"/>
	<path fill="#9F9784" d="M419.1,921.1c-27.6,0-55.3,0-82.6-0.3c-9,0-18.1-0.3-27.4-0.3c-9.9-7.9-21.6-2.7-32.6-4.9
		c-21.9-3-13.1-19.4-14-31.7c1.1-0.8,2.2-1.1,3.6-1.6c19.4,0.8,38.9,7.1,58.3,4.7c12.6,0,24.9,0.3,37.5,0
		c10.9,0.3,21.6-0.3,31.5,4.7c7.7,4.1,15,10.9,25.2,6.3c2.7-1.4,5.5-3,8.8-4.1c2.2-0.8,4.7-1.1,6.6-1.4c10.9-0.8,21.6-0.3,32.6-0.8
		c10.1,0,20,0,30.1,0c4.9,0,10.1-0.3,15,0c1.4,0,3,0,4.7,0c8.5,1.4,21.6-2.5,21.9,9c0.3,9.3-12.3,10.1-19.4,12.3
		c5.5,1.1,14.8-4.7,21.1,3.6c0,1.4-0.3,2.7-0.3,4.1c-1.4,0-2.7,0-4.1,0.3c-9,7.1-18.6,7.1-27.6,0.3
		C477.4,921.1,448.4,921.1,419.1,921.1z"/>
	<path fill="#C8BDA7" d="M506.7,921.1c9,0,18.6,0,27.6-0.3c11.2,76.1,25.7,151.9,23.3,229.6c-1.6,51.4-2.5,102.6,0.3,153.5
		c2.2,34.2-10.9,65.9-9.9,99.6c-7.7-0.8-12.6-2.7-12.3-12.6c2.5-66.8,7.1-133,4.1-199.2c-1.1-25.4,1.1-51.7-4.1-78.5
		c-3.8-19.4-6.3-44.1-5.5-66.8C531.9,1003.2,520.1,961.9,506.7,921.1z"/>
	<path fill="#DED4BF" d="M377.8,925.2c14,0,27.6,0,41.6,0c1.4,0,3,0,4.7,0c14,9.3,12.3,24.9,13.7,38.3c1.4,12.6-0.3,25.4,2.2,38
		c1.4,33.1-1.4,65.7-9.3,97.7c-1.1,3.8-1.1,7.7-2.7,11.2c-6.3,14.8-12.3,31.5-30.1,34.5c-19.4,3.6-21.1-16.7-29.3-27.6
		c-3-4.1-6-9-7.7-14c-18.9-50.3-8.5-100.4-0.3-150.8C361.4,941.7,367.1,931.5,377.8,925.2z"/>
	<path fill="#D6CBB4" d="M433.1,1003.5c0.3-26.5,1.1-53.1-9.3-78.3c6.3,0,12.3,0,18.6,0c0.3,21.9-1.6,44.1,1.6,65.4
		c4.7,25.4,1.4,50.3,2.7,75.5c0.3,6.3-2.7,10.1-9,10.9c-5.2-16.1-0.8-32.8-2.2-49.3C434.5,1019.9,437.7,1011.4,433.1,1003.5z"/>
	<path fill="#D2C8B1" d="M290.2,819.1c-2.7-27.9-0.8-55.5,6.3-83.2c5.2-21.3,5.2-43.5,10.4-64.9c5.2-21.3,4.7-44.6,20-62.9
		c7.7-7.7,16.4-6.6,25.4-3c2.5,1.4,3.6,3.6,3,6.3c-2.2,3.6-5.2,4.9-8.8,6.3c-7.7,1.1-12.9,5.2-13.1,13.1
		c-1.4,30.6-15.6,60.7-6.3,92.2c5.5,18.6-3,36.9-1.4,56.6c1.6,17.8,5.5,31.7,20.2,42.1c-0.3,2.5-1.4,4.1-3.8,5.5
		c-3,1.4-6.6,2.2-10.1,2.5c-3.6,0.3-7.1,0.3-10.4,0.3c-4.7,0-9.3,0-14-0.8C301.2,827.8,294.1,826.2,290.2,819.1z"/>
	<path fill="#A29B89" d="M354.8,608.4c-9,0-18.6,0-27.6,0c-20,0-39.7-0.3-59.7-0.3c-1.4-0.3-2.7-0.8-3.8-1.1
		c4.7-12.6,16.1-9,25.2-9.3c34.2-2.2,68.4,1.4,102.3-1.4c2.5-1.1,4.9-1.4,7.7-2.2c6.3-0.8,12.9-1.1,19.2,0.3
		c2.5,0.8,4.7,2.2,6.6,3.8c1.4,8.5-5.2,10.4-10.9,13.1c-8.5,2.7-17.2,2.2-25.7,2.5c-2.5,0-4.9,0-7.7,0
		C371.2,613.8,362.2,614.7,354.8,608.4z"/>
	<path fill="#979A8E" d="M290.2,819.1c6.3,1.6,12.3,3.6,18.6,4.9c10.9,15.6,4.1,33.4,7.1,50.3c-0.3,2.5-1.4,4.9-3,6.3
		c-10.4,2.7-16.1-3.8-20.5-11.5c-6.6-14.2,3-32.6-10.4-45.1c0-1.4,0-2.7,0-4.7C284.5,819.6,287.5,819.1,290.2,819.1z"/>
	<path fill="#C6BDA8" d="M166.3,897.6c4.9,0,10.4-0.8,14,4.7c1.6,51.7-11.5,102.1-12.9,153c-1.1,34.2,2.7,68.4,0,102.6
		c-3,41.3,14.8,80.7,8.5,121.8c-11.5-38-15.3-77.2-18.1-116.3c-2.2-29.6,1.1-59.7-0.8-89.8C153.4,1014.7,161.9,956.4,166.3,897.6z"
		/>
	<path fill="#B7AD9B" d="M594,916.2c17.8-6.6,36.9-6,55.3-9c11.5-5.2,18.6-0.8,17.5,11.2c-1.1,12.6,0.8,25.7-5.2,37.8
		c-12.6,6-14.8,16.4-15.3,29.3c-1.4,24.4,5.2,49.5-4.9,73.6c-3.6,2.5-7.1,2.5-10.4-0.3c4.9-36.9-13.1-72-11.2-109.7
		c0.3-7.9,0.3-31.7-21.3-33.1C597.3,916.2,595.3,916.2,594,916.2z"/>
	<path fill="#9A937F" d="M539.3,916.2c-7.7,0-15,0-23.8,0c3.8-9.9,11.8-11.5,23.3-18.6c-12.3,0-20,0-27.6,0
		c7.7-18.6,25.7-6.3,37.8-12.9c12.3-2.2,22.4-11.8,35.6-10.4c-1.4,14.2,6,30.4-9,41.6C563.3,916.2,551.3,916.2,539.3,916.2z"/>
	<path fill="#B8AF9C" d="M635.6,524.6c-9,0-18.6,0.3-27.6,0.3c14.2-31.2-0.8-61.6-7.1-90c-7.4-34.2-18.1-67.3-16.1-102.9
		c4.9,0.8,8.5,3,9,8.8c5.2,45.7,20.5,89.5,30.1,134.4C627.1,491,626.5,509.6,635.6,524.6z"/>
	<path fill="#ADA795" d="M663.2,410c3.8,19.4,12.9,38.3,9.3,59.4c-0.8,5.2,0.3,10.4-4.9,14.2c-3-14-6.3-27.6-9-41.6
		C660.2,431.6,654.4,419.8,663.2,410z"/>
	<path fill="#9E9785" d="M396.4,598.5c-9,8.8-20.2,3.8-30.6,4.7c-33.9,2.2-68.4-3.8-102.3,3.6c-1.4,0.3-2.7,0.8-4.7,1.1
		c-0.3-1.4-0.8-2.7-0.8-4.1c1.1-7.7-3-16.4,4.1-23c1.1,0.3,1.6,0.8,2.7,1.1c11.5,9.9,23.8,9,36.7,3.6c7.4-3,15-0.8,22.7-1.4
		c5.5,0,11.5,0,17.2,0c15.6,1.1,30.6,5.2,46.5,5.5c2.5,0.8,4.7,1.6,6.6,3C397.5,594.1,397.8,596.1,396.4,598.5z"/>
	<path fill="#B8AF9C" d="M630.9,1058.8c3,0,6.3,0,9,0c7.9,7.9,6.3,18.6,6.3,28.2c0,50.6,0.3,101.2,0,151.6
		c-2.2,20.2,5.5,42.1-11.5,59.4c-1.4,0-2.7,0-4.1,0C630.9,1218.3,630.9,1138.7,630.9,1058.8z"/>
	<path fill="#B8AF9C" d="M635.6,1325.8c3,21.1-14,38.3-9.3,59.4c-8.8-0.3-10.4-6.6-8.8-12.6c6-20.2,3.8-40.8,4.1-61
		c0-6.6,1.1-12.3,9-13.1l0,0C644.3,1305.6,639.1,1315.7,635.6,1325.8z"/>
	<path fill="#BEB4A1" d="M603.6,524.9c-9.9,0.8-15.6-0.3-19.4-12.6c-10.9-32-16.1-65.7-26.8-97.7c-11.2-33.1-15.6-67.3-22.4-101.2
		c13.1-0.3,26.5-2.7,20.2,20c-2.5,8.8,2.2,21.3,7.9,31.7c13.1,24.4,22.7,50.6,21.9,78.8c-0.3,13.1,7.9,22.4,11.2,33.9
		C600,493.4,600.3,509.3,603.6,524.9z"/>
	<path fill="#8C8E86" d="M571.3,241.2c3.6,1.4,6.6,2.5,10.1,3.8c-11.8,6.3-10.1,17.2-10.1,27.9c0,36.9,0,36.9-36.7,35.8
		c-11.5-23-9.9-46-1.4-69.5C546.1,232.1,559.2,229.9,571.3,241.2z"/>
	<path fill="#9B9C90" d="M534.3,240.9c0,22.7,0,45.4,0,68.1c-6.3,0-12.3,0-18.6,0c-16.4-11.2-8.8-29.6-12.3-44.3
		c-2.2-7.9,0.8-17.5-11.8-18.1c-5.5-0.3-11.5-0.3-17.2-2.2c-2.5-0.8-4.1-2.5-6-4.1c-0.8-2.7,0.3-4.9,2.5-6.6
		c6-3.6,12.3-3.8,18.9-3.8C505.3,231,522.8,223.9,534.3,240.9z"/>
	<path fill="#A0A092" d="M492.7,240.1c12.9-0.8,16.1,5.5,16.7,17.8c1.1,17.2-1.4,34.5,6.3,50.9c-4.7,0-9,0-14,0.3
		c-2.2,1.4-4.1,1.6-6.3,0.3C481,286.9,490.5,263.3,492.7,240.1z"/>
	<path fill="#C1B7A2" d="M497.4,308.7c1.4,0,3,0,4.7,0.3c0,1.4,0,3,0,4.7l0,0c-5.2,4.7-11.2,6-18.1,6c-9,0-18.1,0.8-26.5-3.8
		c-2.2-1.6-3-3.8-2.5-6.6c3.6-4.1,8.5-5.2,13.7-6c4.9-0.3,10.1-0.3,15,0C488.9,303.8,493,306,497.4,308.7z"/>
	<path fill="#C3B8A3" d="M483.7,313.4c6.3,0,12.3,0,18.6,0c26.3,44.1,29.6,95.8,46.8,142.3c8.8,24.1,13.7,48.4,17.5,73.6
		c-7.7,7.4-16.1,6.6-24.9,2.5c-14-68.1-37.8-133-57.5-199.2C482.1,326.5,478.2,320,483.7,313.4z"/>
	<path fill="#9B9C90" d="M539,529.8c9,0,18.6,0,27.6,0c11.2,1.6,9,10.1,9,17.5c0.3,9.9-1.1,20,4.9,28.7c0,1.4,0,2.7,0,4.1
		c-1.6,1.4-3.6,1.6-6,1.4c-9.9-5.2-17.2-13.1-16.1-24.9c1.1-13.1-7.1-16.7-17.2-19.2c-1.6-1.1-3-2.7-3.8-4.9
		C538.2,531.5,538.4,530.4,539,529.8z"/>
	<path fill="#99978F" d="M695.2,1086.1c0,12.3,0,24.4,0,36.7c-6,5.2,2.7,15.6-7.4,19.2c-2.5-1.1-4.7-2.7-5.5-5.2
		c-4.7-15-4.1-30.6-1.4-45.7c8.8-46.8-2.7-92.8-4.1-139.3c-1.1-18.6-6.3-36.9,4.7-54.5c3-4.7,6.3-4.9,9.3,0c0,4.7,0,9,0,13.1
		c0,12.6,1.4,25.4,1.6,38c0.8,4.9,0.3,9.9,0.3,14.8c1.4,14.8-2.7,30.1,2.5,44.3c0,1.4,0,3,0,4.7
		C699.1,1037.4,698.8,1061.8,695.2,1086.1z"/>
	<path fill="#B0AB99" d="M658.6,957.5c1.1-12.6-2.2-25.4,2.7-38c4.1-11.5-3.6-12.6-11.8-12.6c4.9-6.6,12.3-3.8,18.6-4.7
		c1.4,0.8,2.5,1.4,3.8,1.6c6.6,26.3,13.1,52.3-2.2,77.7C654.4,979.1,651.2,970.7,658.6,957.5z"/>
	<path fill="#A1A7A2" d="M548,819.6c30.1-8.5,32.6,13.7,36.9,33.1c0,2.7,0,5.5,0,8.5c-2.7,2.5-5.5,2.7-9,1.4
		c-12.9-7.4-9-27.4-24.9-32.6c-4.1-0.8-8.8-1.6-12.3-4.7c-1.4-2.2-1.4-4.1-0.3-6.6C542,817.2,545,816.9,548,819.6z"/>
	<path fill="#78796A" d="M575.4,861.5c3,0,6.3,0,9-0.3c0,4.7,0,9,0,13.1c-9.3,7.7-20.2,11.8-32,14c-2.5,2.5-5.5,2.2-8.8,1.4
		c-4.9-9.3,7.1-10.9,8.5-16.7c1.1-1.6,2.5-3,3.8-4.7C562.2,864.5,568.3,860.7,575.4,861.5z"/>
	<path fill="#8A857B" d="M690.6,962.2c0-4.7,0-9,0-13.7c-6-13.1,1.6-28.2-4.7-41.6c0-3.8,0.8-7.4,4.7-9c1.4,0.3,3,0.3,4.7,0.8
		c1.4,9-3.6,19.2,4.1,27.4c0,6,0.3,12.3,0.3,18.1c-6.6,4.9-3.8,11.8-4.7,18.6C693.9,964.4,692.2,964.4,690.6,962.2z"/>
	<path fill="#A49F94" d="M681.3,897.6c0,18.6,0,36.7,0,55.3c-1.1,0-2.5,0.3-3.6,0.3c-6.6-9.9-2.2-20.5-3-31.2
		c-0.8-7.4,1.6-15.6-7.1-20l0,0C671.1,897.1,676.3,898.1,681.3,897.6z"/>
	<path fill="#97917F" d="M584.9,603.4c-1.6,1.4-3,3-4.9,4.7c-3,0-6,0-9-0.3c-22.4-5.5-44.1,4.7-65.9,3.6c-3.6,0.8-7.4,0.8-10.9,0.3
		c-7.9-2.2-16.4-2.2-24.1-6c-4.1-2.7-6.6-6.6-5.5-11.8c6.3-6.3,14.8-4.9,21.9-7.7c3-1.1,6.6-1.4,10.1-1.6c2.2-0.3,4.7-0.3,6.6,0
		c3.6,0.3,6.6,0.8,10.1,1.6c8.8,2.7,17.8,2.2,26.5,1.6c11.8,1.1,23-6,35-3c3.8,0.3,7.1,2.2,9.9,4.7
		C584.9,594.1,584.9,598.5,584.9,603.4z"/>
	<path fill="#A29B89" d="M501.8,607.6c23-7.1,46-7.1,69.2,0c-1.4,0-3,0.3-4.7,0.8c-6.3,0-12.3,0-18.6,0c-6.6,6-15,6-23,6.3
		C516.5,614.4,508.1,614.7,501.8,607.6z"/>
	<path fill="#B0AFA7" d="M152.3,902.3c0-3.8,1.1-7.4,4.7-9.3c3.8,0,7.1,1.1,9,4.7c-12.6,2.2-8.5,11.8-9,19.4
		c-2.2,20-2.2,39.7-9,58.6C145.8,951.2,150.7,927.2,152.3,902.3z"/>
	<path fill="#B0AFA7" d="M143.3,994.5c0-6.3,0-12.3,0-18.6c1.4,0,3,0,4.7,0c-2.5,24.4,5.2,49.5-4.7,73.6c0-6.3,0-12.3,0-18.6
		C143.3,1018.8,143.3,1006.5,143.3,994.5z"/>
	<path fill="#CBBFA9" d="M501.8,607.6c7.7,0.3,15.3,0.3,23,0.8c8.5,3.8,9,11.2,9.3,19.2c2.7,59.7,14.8,118.8,12.6,178.7
		c0,2.7,2.2,5.5,1.1,8.8c0,1.4,0,3,0,4.7c-3,0-6,0-9,0c-8.8,7.4-18.6,6.6-28.2,3.8c-11.8-8.5-11.8-20-9.9-32.6
		c5.2-31.7-5.5-62.9-4.9-94.1c0.3-21.6-5.2-42.1-7.9-63.2c-1.6-11.5-7.1-16.1-18.1-15c-5.5,0-11.2,0-16.4,0c-3.6,0-7.1,0-10.1,0
		c-4.7,0-9.3,0-14-0.8c-3.8-0.8-7.1-1.6-10.1-4.7c-1.1-2.7-0.3-4.9,1.6-6.6c14.8-7.1,30.1-6,45.4-2.7c8.5,4.1,18.1-0.8,26.8,3.8
		C496,607.6,499,607.6,501.8,607.6z"/>
	<path fill="#C8BEA7" d="M548,815c-1.6-4.1-9.9-1.1-9-7.9c6.6-60.5-9.3-119.3-9.9-179c0-7.1-0.3-13.7-3.8-19.4c7.7,0,15.3,0,23,0
		c0.8,49,12.3,96.6,12.6,144.8C560.9,773.1,567.7,798,548,815z"/>
	<path fill="#9F9784" d="M258.2,856.6c10.9,0.8,9.3-18.6,22.7-14c2.5,9-5.5,13.7-8.5,20.5c-2.2,3-3.8,6.6-4.1,10.4
		c-0.8,3.8-1.6,7.7-5.2,10.4l0,0c-5.2-3.6-4.7-8.8-4.7-14C258.2,865.6,258.2,861.2,258.2,856.6z"/>
	<path fill="#AEA694" d="M658.6,805.7c-10.1-16.4-6.3-35-3.8-50.9c7.4-50.3,1.6-100.4,3.8-151c4.7,0,9,0,14,0
		C675.8,671.3,663.2,738.1,658.6,805.7z"/>
	<path fill="#7C7E72" d="M584.7,589.5c-3,0-6,0-9,0c-3.8-4.9-12.3,1.1-14.8-6.6c3.8-7.4,9-6,14.8-2.7c1.4,0,3,0,4.7,0
		C583.9,582.1,584.9,585.7,584.7,589.5z"/>
	<path fill="#8A857B" d="M695.2,1086.1c0-24.4,0-49.3,0-73.6C702.9,1037.4,702.9,1061.8,695.2,1086.1z"/>
	<path fill="#8D887C" d="M690.6,962.2c1.4,0,3,0,4.7,0c0,15.3,0,30.6,0,46C686.2,993.6,692.8,977.8,690.6,962.2z"/>
	<path fill="#8A857B" d="M690.6,1141.7c0.8-6.3-2.2-13.7,4.7-18.6c0,10.9,0,21.6,0,32.6c0,1.4,0,3,0,4.7c-2.5,1.4-4.7,1.1-6.6-1.1
		C685.4,1152.6,685.9,1146.9,690.6,1141.7z"/>
	<path fill="#8E8D89" d="M672.5,1289.2c-1.6,9-3,18.1-4.9,27.4c-3,2.7-0.8,9.3-6.6,10.9c-2.5-0.3-4.1-1.6-4.7-4.7
		c-0.8-17.8,4.7-34.5,5.2-52.3c2.5-19.2,3.8-38.9,15.6-55.5c2.7-1.1,4.9-0.3,6,2.5c-0.3,8.5,2.5,17.2-1.6,25.4
		C678.5,1258.2,675.2,1273.6,672.5,1289.2z"/>
	<path fill="#847F77" d="M681.5,1242.9c0-9,0-18.6,0-27.6c0.8-0.3,1.4-0.8,2.5-1.4c0.8,0.3,1.4,0.8,2.5,1.4
		C684.8,1224.6,689.7,1235,681.5,1242.9z"/>
	<path fill="#847F77" d="M690.6,1187.9c-1.4,9,3.6,19.4-4.7,27.6l0,0c-6.6-9.3-7.9-18.9,1.1-27.9
		C688.4,1187.4,689.7,1187.4,690.6,1187.9z"/>
	<path fill="#847F77" d="M690.6,1160c1.4,0,3,0,4.7,0c-1.4,9,3.6,19.4-4.7,27.6l0,0C683.5,1178.3,682.9,1169.3,690.6,1160z"/>
	<path fill="#B2AA98" d="M635.6,1325.8c0-9.3,1.1-19.2-4.7-27.6c13.1-16.7,7.9-36.4,9-55.3c6.3-4.9-1.1-22.4,16.1-16.7
		c3.6,6,3.6,12.3,3,18.6c-3.8,24.1-9.3,47.9-14.8,72C641.6,1319.5,638.6,1322.5,635.6,1325.8z"/>
	<path fill="#95948E" d="M667.6,1270.6c-3,18.6-6,36.9-9,55.3c7.4,11.8-2.7,21.6-4.7,32.6c0,1.4,0,2.7,0.3,4.1
		c-7.4-0.8-9.3,6.3-14.2,9.3c2.7-24.9,16.7-47.3,14-73.6c0-1.1-0.3-2.2-0.3-3c0-9.3,1.6-18.6,8.8-25.4
		C664.3,1268.4,665.9,1268.9,667.6,1270.6z"/>
	<path fill="#A7A594" d="M644.6,1316.3c-1.4-25.2,3.8-49.3,9-73.6c2.7-1.4,4.9-1.1,7.1,1.6c7.1,19.2-7.4,35.3-7.1,53.6l0,0
		C646.2,1302,652.3,1312.4,644.6,1316.3z"/>
	<path fill="#D14C2E" d="M594,156.6c1.4,0.3,3,0.3,4.7,0.8c10.1,24.4,10.1,49,0,73.3c-4.7,0.3-9,0.8-13.7,1.1
		c-1.1-1.1-1.6-1.6-2.7-2.7c-6-24.1,1.6-47.9,1.1-71.7C586.6,154.1,590.4,154.4,594,156.6z"/>
	<path fill="#9D4F35" d="M534.3,240.9c-14.8-6.3-30.6-4.1-46-5.5c-0.3-3,0.8-5.2,3-7.1c27.4-6.6,54.7-3.6,82.4-2.7
		c4.1,0.8,7.7,2.7,11.2,5.5v1.1c3.6,15.3-10.1,5.2-14,9.3C558.7,240.9,546.6,240.9,534.3,240.9z"/>
	<path fill="#CA4A2D" d="M598.6,230.8c0-24.4,0-49,0-73.3c3,0,6.3,0,9,0c7.4,24.4,7.4,49,0,73.3
		C604.9,230.8,601.6,230.8,598.6,230.8z"/>
	<path fill="#C3492E" d="M607.9,230.8c0-24.4,0-49,0-73.3c1.6,0,3,0,4.9,0c9.3,24.1,2.5,49,4.7,73.3
		C614,230.8,611.2,230.8,607.9,230.8z"/>
	<path fill="#994839" d="M663.2,235.1c2.7-22.7-5.5-46,4.7-68.1c0,22.7,0,45.4,0,68.1C666.2,235.1,664.6,235.1,663.2,235.1z"/>
	<path fill="#BA4A31" d="M488.4,69.6c7.9-8.5,18.6-3,27.6-4.7c1.4,1.4,3,2.7,4.7,4.7c1.4,1.4,3,3,4.7,4.7v0.3c2.2,2.7,3,6,4.1,9.3
		c-0.3,12.6-0.8,24.9,6,36.7c3.6,6.3,5.5,14.2-3,19.4c-16.7,0-17.5-16.1-21.6-25.7C504,98.6,495.2,84.6,488.4,69.6z"/>
	<path fill="#BF6152" d="M525.3,83.5c0-3,0-6.3,0-9.3c4.7,3,9,6,13.7,9c4.1,5.5,3,14,9.3,18.1c1.6-1.4,3.6-1.4,5.5-0.3
		c6,6,8.5,14,12.3,21.3c1.4,3.8,3,7.7,0.8,11.8c1.4,1.6,2.7,3,4.7,4.9c5.2,4.9,13.1,4.1,18.1,9c1.4,2.7,3,5.5,4.7,8.8
		c-3,0-6.3,0.3-9,0.3c-3.6,3.6-7.7,4.7-12.3,4.1c-2.2-0.3-4.1-1.1-6.3-2.2c-1.6-1.4-3.6-2.7-4.9-4.7
		C545.5,132.8,530.2,110.9,525.3,83.5z"/>
	<path fill="#B86A61" d="M589.6,147.9c-7.7,0.3-15-1.1-18.1-9c6.6-0.8,12.6,1.4,18.6,4.7C589.6,144.8,589.6,146.5,589.6,147.9z"/>
	<path fill="#DEB0AB" d="M562.2,124.6c-3-7.4-6.6-15-9.9-22.4c-2.5-3.6-2.7-7.9,1.1-9.3c7.1-2.5,9.9,4.7,13.1,8.8
		c1.6,4.7,3.6,9,5.2,13.7C574,124,572.6,129,562.2,124.6z"/>
	<path fill="#CA8C85" d="M562.2,124.6c6.3,0.3,8.5-3.8,9.3-9c6,1.1,8.8,4.7,8.5,10.9c-1.1,8.5-7.4,7.7-13.1,7.9
		C565.2,130.9,563.6,127.6,562.2,124.6z"/>
	<path fill="#D19791" d="M566.3,101.9c-4.7,1.6-10.1-15.6-14.2,0.8c-1.4-0.3-2.7-0.3-4.1-0.8c-2.7-20.5,7.4-15.3,17.8-8.8
		C566.3,95.9,566.3,98.6,566.3,101.9z"/>
	<path fill="#878684" d="M654.2,1357.8c1.4-10.9,3-21.6,4.7-32.6c1.4,0,3,0,4.7,0c3,4.7,3,9,0,14
		C662.1,1346.6,659.9,1353.2,654.2,1357.8z"/>
	<path fill="#797774" d="M663.2,1339.2c0-4.7,0-9,0-14c0.3-3.8,1.1-7.4,4.7-9.3C667,1324.2,670.3,1332.9,663.2,1339.2z"/>
	<path fill="#7C7E7B" d="M267.3,861.5c4.7-6.3,9-12.6,13.7-18.9c0-6,0.3-12.3,0.3-18.1c9-0.8,14.2,2.5,14,12.6
		c-0.3,11.2,0,22.4,0,33.4c3.6,4.7,2.5,7.7-2.5,10.1c-6.6-0.8-11.2-5.5-17.2-7.4C271.4,870.2,265.9,868.3,267.3,861.5z"/>
	<path fill="#C8BDA7" d="M502.3,529.6c-1.4-39.1-18.9-73.6-30.4-110c-6.6-21.1-15.6-41.9-26.8-59.1c-15.6-23.8-33.4-50.6-71.1-47.9
		c-31.2,2.5-62.4,0-93.9,0.8c-12.9,0.3-17.8-4.7-17.2-17.5c0.8-16.1,0.3-32,0.8-48.2c20.5,1.1,12.9,17.2,14.8,27.9
		c1.6,11.5-1.4,25.2,16.4,26.3c4.9,0.3,9.9,0.3,14.8,0.3c9-0.3,17.8-0.3,26.8,0c6.3,0,12.9-0.3,19.2-0.3c11.5,0.8,22.7-0.3,34.2,0
		c12.3,0.8,24.4-0.3,36.7,1.4c2.5,0.3,4.7,0.8,7.1,1.6c5.5,2.2,11.2,3.8,15.6,7.7c26.8,22.4,32,56.6,45.7,85.9
		c17.5,38,25.4,79.6,37.8,119.9c1.4,4.7,0.8,9-2.7,12.9c-7.9,4.9-16.4,4.9-25.2,0.8C504,531.5,502.9,530.4,502.3,529.6z"/>
	<path fill="#868885" d="M295.2,308.7c-17.5,3-23.8-3.6-23.8-21.9c0-12.6,9-29-7.9-38.9c-0.3-1.1-0.8-2.5-1.4-3.6
		c0.3-1.1,0.8-2.2,0.8-3c9.9-10.9,21.9-6,33.4-5.5c2.5,1.1,4.1,2.5,6,4.7c3.8,17.8-1.4,35.6,2.2,53.4
		C305.6,300.8,300.6,305.7,295.2,308.7z"/>
	<path fill="#B6B7A7" d="M456.1,529.8c7.7,0,15.3,0,23,0c6.3,0,12.3,0,18.6,0c1.4,2.5,1.1,4.1-0.8,6.3c-3.8,2.7-8.8,3.6-13.1,3.8
		c-5.5,0.3-11.2,0.3-17.2,0.3c-3,0-6.6,0-9.9,0c-11.5-1.6-17.5,2.2-15.6,15c1.1,7.7,1.6,15.6-1.4,22.7c-3.8,8.8-9,20-20.2,6
		c0.8-20-10.9-41.9,10.1-58.3c5.2-1.6,10.4-2.2,16.1-1.4C449.5,524.9,453.1,527.1,456.1,529.8z"/>
	<path fill="#A0A194" d="M497.4,534.2c0-1.4,0-2.7,0.3-4.1c1.4,0,3-0.3,4.7-0.3v0.3c3.6,3,9.3,1.1,11.8,6
		c-0.3,18.6,11.2,39.7-11.8,53.4c-1.4,0-3,0-4.7,0C487.3,570.9,487.5,552.6,497.4,534.2z"/>
	<path fill="#CEC4AD" d="M456.1,529.8c-3,0-6.3,0-9,0c-7.4-6-12.3-13.1-15-22.4c-3.8-11.8-10.9-21.9-18.9-31.5
		c-15-18.1-31.7-19.2-49.5-4.1c-14.8,12.9-31.5,24.4-32.8,47.1c-0.3,5.2-3.8,9.9-8.5,13.1c-5.2,2.7-10.9,3-16.7,3
		c-4.9,0-9.3-0.3-14-1.6c-2.5-1.1-4.1-2.5-5.5-4.7c-17.8-10.4-15.3-22.7-5.2-38c16.7-25.7,40.8-44.1,63.8-63.2
		c14.8-12.3,52.8-11.2,65.4,3C434.5,459.2,452.5,491,456.1,529.8z"/>
	<path fill="#888C89" d="M285.9,529.6c1.4,0.3,2.7,0.8,4.7,1.1c1.4,2.2,1.6,4.7,2.2,7.1c-1.6,15.6,2.7,32.8-11.2,45.4
		c-6.3,3-12.6,2.5-17.8-2.2l-0.3-0.3c1.4-3,3-6,4.7-9c7.7-6.3,4.7-15,4.7-23C271.9,537.8,274.9,530.9,285.9,529.6z"/>
	<path fill="#ABAAA3" d="M157,414.6c8.5-7.9,3-18.6,4.7-27.6c1.4,0,3,0,4.7,0c0.3,25.4-3.6,50.3-13.7,73.6c0-6.3,0-12.3,0-18.6
		C153.7,433,148.5,422.6,157,414.6z"/>
	<path fill="#BB472E" d="M488.4,69.6c17.2,5.5,19.2,22.7,25.2,35.6c5.2,11.2,9,23,16.1,33.4c0.8,7.4-4.1,7.1-9,6.6
		c-18.6-12.3-31.7-30.4-49.8-43.2c-45.7-32-128.9-19.2-162.3,20c-6,7.1-12.9,12.9-17.8,20.5c-3,4.7-6.6,8.8-10.4,12.9
		c-3.6,3.6-7.4,4.9-12.3,4.1c-5.2-1.1-10.9-2.5-14.2-7.4c11.8-17.8,27.9-32.6,41.3-49c21.9-27.6,51.4-33.4,83.5-33.9
		C415,69.3,451.7,69.6,488.4,69.6z"/>
	<path fill="#CA4A2E" d="M253.6,152.5c4.9,0.3,10.4-0.8,14,4.1c-7.4,7.7-15,4.9-23,1.1l-0.3-1.1c0-1.4,0-2.5,0.3-3.8
		C247.8,152.8,250.6,152.5,253.6,152.5z"/>
	<path fill="#E9512F" d="M244.6,157.7c7.7-0.3,15.3-0.8,23-1.1c3.8,0.3,7.1-0.3,9-3.8c3.8-3.6,9-4.7,14-5.5
		c8.8-1.1,17.5-1.1,26.3-0.3c3.6,0.3,7.1,1.6,9.9,3.8c1.1,1.4,2.2,3,1.4,3.8c-27.4,21.6-17.2,50.3-14.2,77.4c-9,7.1-19.4,1.1-29,4.1
		c-7.7,2.5-14.8-2.2-21.9-1.1c-5.2-3.8-11.5-4.1-17.5-4.1C241.5,206.7,249.5,182.1,244.6,157.7z"/>
	<path fill="#7F402A" d="M262.1,235.1c6.3-5.5,12.6-2.2,18.9-0.3c5.2-1.1,11.8-5.5,14,4.1c-10.9,1.1-21.3,2.2-32,3
		C262.3,239.8,262.3,237.3,262.1,235.1z"/>
	<path fill="#D6CBB4" d="M377.8,925.2c-18.6,43.5-24.1,89.5-23,136.3c0.3,15,14.2,26.8,9,43.2c7.1,12.9,4.9,28.2,14.2,40.5
		c4.1,5.5,6,12.9,14.2,13.1c8.8,0,14.8-6,17.2-13.1c4.7-12.9,15-23,16.4-37.5c0.8-6.6,1.4-14.2,11.8-12.6
		c2.2,30.1-8.5,57.5-17.8,84.8c-4.7,13.1-14.2,26.3-31.7,25.4c-15.3-0.8-20-13.1-25.7-25.2c-13.1-26.3-16.7-53.1-16.4-81.8
		c0.3-45.1,0-90,0.3-135.2C345.8,936.7,355.4,926.3,377.8,925.2z"/>
	<path fill="#D9CEB7" d="M437.7,1095.7c-13.7,12.6-10.4,31.5-18.6,46.5c-6.3,11.5-12.9,23.8-26.8,25.2c-7.9,0.8-15.6-5.5-18.9-14.2
		c-5.5-15.6-13.1-30.6-9.9-48.2c10.4,6,14.8,17.8,19.2,27.4c9,18.9,16.1,10.9,24.1,1.1c20.2-24.1,21.1-54.5,25.2-83.5
		c2.2-15,0.3-30.4,0.3-45.7c9.9,24.1,2.2,49.3,4.7,73.6C437.7,1083.4,437.7,1089.4,437.7,1095.7z"/>
	<path fill="#FCFBFA" d="M419.4,902.5c-8.8,4.1-16.7,3.8-22.7-4.9c-2.7-3-4.1-7.1-5.5-10.9c-2.5-15-1.4-30.1-1.4-45.1
		c5.5-24.4,11.8-27.6,34.5-16.1C435.3,851.9,430.6,877.4,419.4,902.5z"/>
	<path fill="#ACAE9D" d="M396.1,888.6c0.3,3,0.3,6.3,0.8,9c-10.1-6-21.3-4.7-32.6-4.7c-4.9-4.1-12.3-3.8-16.7-9
		c-1.4-1.6-2.7-3.6-3.6-5.5c-7.1-18.1-8.8-35.8,6-51.7c9.3-3,21.9-3.8,19.2,9C363.3,862.6,377,876,396.1,888.6z"/>
	<path fill="#B5B6A6" d="M419.4,902.5c1.4-24.4,2.7-49.3,4.1-73.6c1.1-3.8,3-6.3,6.6-7.7c5.5-2.2,11.5-2.5,17.5-2.2
		c4.9,0.3,9.3,1.1,13.1,4.7c1.1,2.2,1.1,4.1,0,6.6c-25.7,8.5-14.8,31.5-18.6,48.2c-0.3,2.2-1.4,4.1-2.5,6c-4.1,6-11.5,8.5-16.1,14.2
		C422.7,899.5,420.8,900.9,419.4,902.5z"/>
	<path fill="#888876" d="M290.5,879.5c3.6-2.2,4.1-5.5,4.7-9.3c6.3,2.7,10.4,9.9,18.1,9.3c5.2,3,11.5,5.5,9.3,13.7
		c-20.5,1.1-40.8-0.8-59.7-9.3c0-4.7,0-9,0-13.7c8.8-1.6,13.1,10.4,22.7,6.6C287.5,877.1,289.2,877.9,290.5,879.5z"/>
	<path fill="#868674" d="M543.4,888.3c3,0,6.3,0,9.3,0.3c-11.8,11.5-29.3-2.2-41.6,9c-4.7,0-9,0-13.7,0c-4.9-6.6-1.1-11.2,3.8-15.6
		c9.9-4.7,19.4-7.9,30.6-6C537.9,878.4,540.3,883.6,543.4,888.3z"/>
	<path fill="#9A9C87" d="M465.1,897.6c-12.3,0-24.4,0-36.9,0c-1.4-7.9,4.7-10.1,10.4-11.8c11.5-4.1,23.8-4.1,35.3-7.1
		c5.2,0,9.9,0.8,14,3.8C490.3,903.1,471.4,890.8,465.1,897.6z"/>
	<path fill="#989885" d="M322.8,893.2c-2.7-4.9-10.1-6.6-9.3-13.7v-0.3c3.8-3.8,8.5-4.7,13.7-4.1c8.5,1.6,16.7,3,23.3,9
		c6.6,0,11.2,3,14,9C350.4,893.2,336.8,893.2,322.8,893.2z"/>
	<path fill="#93917E" d="M465.1,897.6c6-7.7,19.4-1.6,23-13.7c1.4-1.6,3-2.7,5.2-3c2.2,0,4.1,0.3,6.3,1.1c0.8,0.8,1.4,1.4,2.2,2.5
		c-1.4,4.7-3,9-4.7,13.7C486.7,897.6,476,897.6,465.1,897.6z"/>
	<path fill="#AEAF9E" d="M437.7,888.6c-3,3-6.3,6-9.3,9c-1.4,0-2.7,0-4.1,0.3c0.3-9,4.9-13.7,13.7-14c1.1,1.1,1.4,2.2,1.1,3
		C438.3,888,438,888.6,437.7,888.6z"/>
	<path fill="#E6DDCA" d="M423.8,1024c5.5,21.1-7.7,40.8-10.4,62.9c-1.1,7.7-7.9,15.6-17.2,16.1c-7.7,0.3-12.3-7.1-14-13.7
		c-11.8-45.1-14-90,4.1-134.1c2.7-7.1,6.6-15,15.6-14.2c7.9,0.8,9.9,9.3,11.8,15.6C420.2,978,425.4,999.4,423.8,1024z"/>
	<path fill="#D3C8B2" d="M345.8,824c-21.6-6.6-26.3-20-24.1-42.7c2.7-33.1-1.6-66.8-1.4-100.1c0.3-18.9,9-36.7,7.7-56.1
		c-1.1-11.2,8.8-12.9,17.8-12.6c7.1,7.7,6.3,17.2,6.3,26.3c0,25.2,0.3,50.6,0,75.8c-0.3,39.1,3.6,76.9,25.7,110.5
		C366.9,827.8,356.2,827.6,345.8,824z"/>
	<path fill="#D6CBB5" d="M377.8,824c-19.2-3.8-22.7-20.2-25.7-35.3c-9.3-41.6-6-83.7-6.3-126.1c0-16.7,0-33.4,0-50.3c3,0,6.3,0,9,0
		c2.7-1.6,4.9-1.4,6.6,1.4c3.6,11.2,0.8,22.7,0,33.9c-1.6,31.5,2.5,61.8,9,92.2c-3.6,16.7,3.6,31.5,9.9,46
		c3.6,7.9,9.9,14.2,19.2,13.7c8.8-0.3,12.3-7.1,16.4-14c9-14.8,5.2-31.5,9-46.8c1.1-2.5,2.2-4.1,4.1-6c5.2-3.6,9.3-3,12.6,2.7
		c5.2,21.9,2.5,44.1,1.4,65.9c-0.3,9.9-6,17.2-14.8,21.9c-1.6,1.4-3,3-4.9,4.7c-15-7.1-27.9-9.9-27.6,13.7
		C384.9,841.2,384.6,829.7,377.8,824z"/>
	<path fill="#B1B2A1" d="M377.8,824c15.3-3,11.8,12.6,18.1,18.6c0,15.3,0,30.6,0,46c-34.5-11.8-35.6-12.3-31.5-50.3
		c1.6-15.3-9-7.4-14.2-9.3c-5.2,3-9,3-9-4.7c1.4,0,3-0.3,4.7-0.3C356.2,824,367.1,824,377.8,824z"/>
	<path fill="#A3A497" d="M327.2,879.3c-4.7,0-9,0-13.7,0c-8.8-17.8-2.7-36.7-4.7-55.3c4.7,0,9,0,13.7,0
		C342,841.2,331.6,860.4,327.2,879.3z"/>
	<path fill="#A6A899" d="M327.2,879.3c-6.3-18.1,7.1-37.8-4.7-55.3c3,0,6.3,0,9,0.3c9.9,5.2,9,14,8.8,23c-0.8,11.5-3,24.1,9.3,31.7
		c0,1.4,0,3,0,4.7C342.2,884.5,334.3,883.6,327.2,879.3z"/>
	<path fill="#A9AB9B" d="M350.4,879.3c-12.3-1.1-13.7-9.3-14-19.4c-0.3-11.8,2.5-24.4-4.7-35.6c3,0,6.3,0,9,0c2.2,3.6,5.5,4.7,9,4.7
		C344.4,845.6,340.6,862.6,350.4,879.3z"/>
	<path fill="#D3C8B2" d="M359.5,612.5c-1.4,0-3,0-4.7,0c0-1.4,0-2.7,0-4.1c9.3,0,18.6,0,27.9,0.3c1.1,2.7,0.3,4.9-2.2,6.3
		C373.2,618.8,366,618.2,359.5,612.5z"/>
	<path fill="#E5DCC8" d="M382.5,612.5c0-1.4,0-2.7,0.3-3.8c1.4-0.3,3-0.3,4.7,0.3c3.6,1.4,6.3,3,6.6,7.4
		c-2.5,20.5-7.4,40.5-5.2,61.6c1.1,9,0.8,18.6,10.1,26.3c12.6-11.2,8.5-26.5,10.1-39.7c1.4-10.1-5.2-23.3,10.1-28.7
		c13.1,20,3.8,42.1,6.6,63.5c0.3,12.3-2.2,24.4-7.4,35.6c-8.5,18.6-24.9,20.2-37.5,4.1c-7.4-9-10.9-20.2-12.6-31.5
		c-3.6-23.3-2.5-47.1-1.1-70.6C368.2,626.2,373.2,617.7,382.5,612.5z"/>
	<path fill="#D1C7B2" d="M433.1,529.8c-11.2,1.4-9,10.1-9,17.2c0,14.2,0.3,28.2,0.3,42.7c1.4,1.1,2.2,2.7,2.2,4.7
		c-0.3,1.6-1.1,3-2.7,4.1c-1.4,0-3,0-4.7,0c-5.2-6-6-13.1-6-20.5c0-11.8,1.1-23.3-0.8-35c-1.4-2.2-2.7-3-4.9-0.8
		c-1.6,7.1-0.3,13.7-0.3,20.2c-0.3,12.3,2.7,25.2-6,35.8c-1.6,0-3,0-4.9,0c-0.3-1.4-0.3-2.5-0.8-3.8c-7.7-9.9-4.7-21.6-6-32.6
		c-1.1-7.4,3.6-17.2-7.4-21.3c-3.6-0.8-7.1-1.6-10.1-3c-4.7-2.2-8.8-4.7-10.9-9.9c5.2-26.5,15.6-36.9,35.3-35.8
		C416.4,493.2,433.1,511,433.1,529.8z"/>
	<path fill="#FDFDFB" d="M419.1,575.5c0,7.7,0,15.3,0,22.7c-6,0-11.8,0-18.1,0c0-13.7,0-27.6,0-41.3c5.2-7.1-0.8-16.1,4.1-23.3
		c3-4.1,6.3-4.1,9.3,0.3C420.5,547.6,413.1,562.4,419.1,575.5z"/>
	<path fill="#E4DBC7" d="M391.8,612.5c-1.4-1.4-3-2.5-4.7-3.8c9,0,18.1,0,26.8-0.3c2.2,0.3,3.8,1.4,5.2,3.6l-0.3,1.1
		c18.9,26.3,11.2,54.7,7.4,83.2c-0.3,3-3.8,4.1-7.4,3.8c-2.5-21.3,5.2-43.5-4.7-64.6C401.9,633,401.9,617.7,391.8,612.5z"/>
	<path fill="#9E9785" d="M419.4,611.9c-1.6-1.1-3.6-2.5-5.2-3.6c3-3.6,6.3-7.1,9.3-10.1c0-1.4,0-2.7,0.3-3.8
		c6.6-5.2,14.2-6.6,22.7-6.6c6.6,0.8,13.7,0.8,18.6,6.3c1.4,3,3,6,4.7,9c-1.1,1.6-2.7,3-4.7,4.1C450.3,610,434.2,603.4,419.4,611.9z
		"/>
	<path fill="#B4AB99" d="M654.2,1224.6c-4.7,6.3-9,12.3-13.7,18.6c0-61.6,0-122.6,0-183.9c0.3-29,0.8-58,0.3-87
		c-0.3-13.7,5.2-17.8,17.8-14c-1.6,9.3,1.6,17.2,9,23c7.1,10.9,4.7,21.6-0.8,32c-3.8,5.2-10.9,7.9-10.9,16.4
		c1.1,55.5-3,111.1,2.2,166.6C657.5,1205.2,657.2,1215,654.2,1224.6z"/>
	<path fill="#B4B4A5" d="M382.5,534.2c11.2-1.1,14.2,4.9,14,15c-0.8,15-0.3,30.1-0.8,45.4c-1.4-0.3-2.7-0.8-4.1-0.8
		c-3.6-3.6-9.3-1.6-12.9-5.2C362.5,567.9,363.3,556.1,382.5,534.2z"/>
	<path fill="#AAAB9C" d="M382.5,589.5c3.8,0,7.4,1.1,9,4.7c-17.2,2.7-33.4-4.7-50.6-4.7c-17.8-16.4-7.1-36.4-6.3-55.3
		c3.8-3.8,7.9-4.7,13.1-3.6c8.5,3,11.5,9.9,9.9,17.8C352.9,570.6,363.3,582.4,382.5,589.5z"/>
	<path fill="#999C8F" d="M290.2,534.8c0-1.4,0-2.7,0-4.7c4.7,0,9-0.3,14-0.3c3,3,8.8,1.4,11.5,5.2c6.6,15.3-8.5,34.2,7.7,48.2
		c1.1,2.2,0.8,4.1-0.8,6c-6.3,2.5-12.3-4.7-18.6,0c-4.1,1.4-6.3-1.1-7.9-4.7c-4.9-15.3,0.3-31.7-4.9-47.1
		C291.1,536.7,290.5,535.9,290.2,534.8z"/>
	<path fill="#A6A898" d="M322.8,589.5c0-1.4,0-3,0-4.7c-3.6-17.2-3.8-33.9,2.7-50.3c3.6-3,7.4-3,10.9-0.3
		c6.3,18.1-4.9,37.5,4.7,55.3C335.1,589.5,328.8,589.5,322.8,589.5z"/>
	<path fill="#817F72" d="M299.3,584.8c1.6,1.4,3,2.7,4.9,4.7c-15.3,5.2-32,14.8-41.3-9c6,0,11.8,0,18.1-0.3
		c2.5,10.1,8.8,0.8,12.9,2.5C296.3,582.9,297.9,583.5,299.3,584.8z"/>
	<path fill="#A6A597" d="M497.4,308.7c-4.7,0-9,0-14,0c-2.7-2.5-10.1-3-9.3-4.9c5.5-21.3-17.2-42.7,0.3-63.8c6.3,0,12.3,0,18.6,0
		c9.3,17.2-1.6,34.5,1.1,52C494.6,297.8,494.9,303.5,497.4,308.7z"/>
	<path fill="#AAAA9A" d="M474.4,240.1c0.8,20.2,0.8,40.5,2.2,60.5c0,2.7,4.9,5.5,7.4,8.5c-4.7,0-9,0-14,0c-15-3.6-20.5-13.7-20-27.9
		c0.8-14-0.8-28.7,5.2-41.9c4.9-3,9.9-2.7,14.2,1.1C471.4,240.1,472.8,240.1,474.4,240.1z"/>
	<path fill="#A69F8E" d="M469.7,240.1c-4.7,0-9,0-14,0c-7.7,6.6-16.7,6.3-26.3,6c-9,0-18.1,0.3-26.8-0.8c-3.8-0.3-7.7-1.6-10.9-4.1
		c-1.6-2.5-1.6-4.9,0-7.4c2.2-1.6,4.7-2.7,7.1-3.6c13.1-2.2,26.5-1.1,39.7-1.4c10.4,1.1,22.4-2.7,31.2,7.4
		C469.7,237.6,469.7,238.7,469.7,240.1z"/>
	<path fill="#A4593E" d="M469.7,236.2c-10.9-0.8-21.3-1.1-32-1.6c-0.3-2.7,0.8-4.9,3-6.6c15-4.9,30.1-5.5,45.1,0.3
		c0.8,1.1,1.6,2.2,2.5,3c0,1.1,0.3,2.5,0.3,3.6C482.3,235.4,476,236,469.7,236.2z"/>
	<path fill="#C6BCA6" d="M529.7,529.8c-21.6-74.4-40.5-149.7-82.6-216.2c3-2.5,6.3-2.7,9,0c9,0,18.6,0,27.6,0
		c9.3,36.4,24.1,70.6,35.8,106.2c10.9,32.8,17.2,66.8,24.9,100.4c0.8,2.7-3.6,6.3-5.5,9.9v0.3C535.7,532.6,532.7,532.3,529.7,529.8z
		"/>
	<path fill="#AFB0A0" d="M428.4,240.1c9,0,18.6,0,27.6,0c6.3,12.6,0,25.4-0.3,38c-0.3,13.1,2.5,23.8,14.2,30.6c-4.7,0-9,0-14,0
		c-7.7,3.6-15.3,3.6-23,0l0,0C426,286,421.3,263.3,428.4,240.1z"/>
	<path fill="#C3B8A3" d="M433.1,308.7c7.7,0,15.3,0,23,0c0,1.4,0,3,0,4.7c-3,0-6.3,0-9,0C441.8,313.4,436.1,314.5,433.1,308.7z"/>
	<path fill="#8D9088" d="M575.9,580.2c-5.2,0.3-10.4-0.8-14,4.9c-7.1,6.3-16.4,3.6-24.1,6.6c-6,0-12.3,1.4-17.8-1.4
		c9.9-17.2,6-37.5,12.6-55.3c2.2-2.2,4.1-2.5,6.3-0.8c16.7-1.1,31.2-0.8,24.1,23.3C559.8,567.9,572.4,572,575.9,580.2z"/>
	<path fill="#A4A697" d="M539,534.2c-1.4,0-3,0-4.7,0c-7.7,6-15.3,6-23,0c-3.8,0-7.1-0.8-9-4.1c9,0,18.6-0.3,27.6-0.3
		c3,0,6.3,0.3,9.3,0.3C539,531.5,539,532.9,539,534.2z"/>
	<path fill="#A49F94" d="M681.5,952.9c0.8,0.8,1.4,1.1,1.4,1.6c2.5,42.7,11.8,85.6,6,128.1c-2.7,20-1.4,39.1-2.7,58.6
		c0,1.4,0,2.5,0,3.8c0,11.8,0.8,23.8-4.7,35c-2.2,4.9-4.7,11.8-12.3,4.9c-7.4-14.8-0.3-29,2.2-42.7c3-19.2,4.1-38,3.6-57.2
		c-0.8-18.1,1.1-36.7-0.3-54.7C675.2,1004.6,672,978,681.5,952.9L681.5,952.9z"/>
	<path fill="#8E8D89" d="M690.6,1160c0,9,0,18.6,0,27.6c-7.9,7.9-3,18.6-4.7,27.6c-1.4,0-3,0-4.7,0l0,0c-6-6-7.4-13.7-4.9-21.1
		c5.5-17.2,6.3-35.3,9.3-52.8l0,0c1.4,0,3,0,4.7,0C690.6,1147.7,690.6,1154,690.6,1160z"/>
	<path fill="#8D887C" d="M686.2,906.9c9.3,12.9,2.5,27.6,4.7,41.6C681.5,935.4,687.8,920.9,686.2,906.9z"/>
	<path fill="#ADA998" d="M681.5,952.9c0,26.3,0,52,0,78.3c-4.9,5.5-3.8,12.9-5.2,19.4c-1.1,5.2-2.5,11.2-10.1,7.4
		c-9.9-17.2-10.9-33.4,1.6-49.5c-7.4-9,1.6-18.6,0-27.6c7.9-26.3,7.1-52,0-78.3c11.5,1.4,8.5,10.4,9.3,17.8
		C678.5,931,672.5,943,681.5,952.9z"/>
	<path fill="#888A82" d="M557.3,870.2c0,1.4,0,2.7,0,4.1c-6.3,4.7-11.8,10.4-20.5,4.1c-14-16.7-9.9-35-4.9-53.1
		c1.6-2.5,4.1-3,7.1-2.2c4.7,0.3,9.3,0.3,14,0.8C562.5,838.8,559.5,854.4,557.3,870.2z"/>
	<path fill="#8A8D85" d="M557.3,870.2c-9.3-14.8-2.5-30.6-4.7-46c21.3,3.8,15.3,24.9,23,36.9C571,867,564.4,869.4,557.3,870.2z"/>
	<path fill="#C6BCA5" d="M539,823.7c-1.4,0.3-2.7,0.3-4.1,0.8c-3.6,3-7.7,4.9-12.6,5.2c-4.7,0.3-9.3,0-14-1.1
		c-2.2-0.8-4.1-1.6-6-3.6c-1.4-4.1,0-6.3,4.7-5.5c10.9,0,21.6,0,32.6,0C539,821,539,822.4,539,823.7z"/>
	<path fill="#6D6D5E" d="M538.4,879c6.3-1.4,12.6-2.7,18.6-4.7c1.1,10.1-10.4,7.9-14,14c-6,0-9-2.7-9-8.8
		C535.7,877.4,537.1,877.4,538.4,879z"/>
	<path fill="#9B9C90" d="M511.3,534.2c7.7,0,15.3,0,23,0c0,10.4-1.4,21.1,0.3,31.2c1.6,12.6-4.7,18.9-14,24.1c-3,2.7-6,2.7-9,0
		c-3,0-6.3,0-9.3-0.3C517.1,573.1,505.6,552.3,511.3,534.2z"/>
	<path fill="#A4A697" d="M497.4,534.2c0,18.6,0,36.7,0,55.3c-3,0-6,0-9,0.3c-3.8,2.5-7.4,2.7-10.4-1.1c-0.3-18.6-4.7-36.9,6-54.2
		C488.4,534.2,492.7,534.2,497.4,534.2z"/>
	<path fill="#777768" d="M538.4,589.2c6.6-7.4,15.3-3,23-4.7c4.9,0.3,10.4-0.8,14,4.7c-12.3,1.4-24.4,3-36.7,4.7
		c-1.6-1.1-2.2-2.2-1.6-3C537.9,589.8,538.2,589.2,538.4,589.2z"/>
	<path fill="#A29B89" d="M479.1,589.5c3,0,6.3,0,9,0c-6.6,7.7-15.3,3.6-23,4.7c-6.3,0-12.6,0-18.6-0.3c-1.1-6.6,4.1-7.7,8.8-9
		c3.6-0.8,7.1-1.1,10.9-0.8C471.1,584.3,475.8,585.7,479.1,589.5z"/>
	<path fill="#A29B89" d="M465.1,607.6c1.4-1.4,3-2.7,4.7-4.1c7.7,1.1,16.4-2.7,23,4.1C483.7,607.6,474.7,607.6,465.1,607.6z"/>
	<path fill="#81816F" d="M538.4,589.2c0,1.6,0.3,3,0.3,4.9c-9-1.4-19.4,3.8-27.6-4.7c3,0,6,0,9,0
		C526.7,589.5,532.7,589.5,538.4,589.2z"/>
	<path fill="#CDC3AD" d="M506.7,819.6c-1.4,1.4-3,2.7-4.7,4.7c-2.7,3.6-6.3,4.9-10.4,5.5c-9.3,0.8-18.6,2.2-26.8-4.7
		c6-54.2,5.2-108.6,2.2-163.1c-1.1-16.7-1.4-33.1,2.7-49.5c15-1.6,19.4,2.7,24.4,19.4c11.2,37.5,0.8,76.3,14.8,113.6
		c5.5,14.2-0.8,34.2-4.9,50.9C501.8,805.7,514.9,811.1,506.7,819.6z"/>
	<path fill="#DDD3BE" d="M419.1,700c9.3-29,4.7-58,0-87c3,0,6.3-0.3,9.3-0.8c13.7,7.9,10.4,21.6,11.2,33.9
		c-1.1,30.4,4.1,61.8-11.2,90.3l0,0c-4.9,13.1-4.7,28.2-13.7,40.5c-10.9,14.8-26.8,14.2-36.9-0.8c-6.3-9.9-8.8-21.1-14-30.6
		c-6.3-32-11.8-64.6-9.3-97.7c0.8-12.3,1.4-24.1,4.9-35.6c7.7,0,15.3,0,23,0c-15,40.8-15,81.3,2.7,121.2c2.7,6.3,6.3,13.1,15,11.5
		c7.9-1.6,12.9-7.7,14.2-16.1C416.4,719.5,417.8,709.6,419.1,700z"/>
	<path fill="#CFC5AF" d="M469.7,612.5c10.9,18.6,1.1,38.3,3.8,57.5c6.6,44.6-2.7,90,2.7,135.4c1.1,9-6.6,12.9-11.2,18.6
		c-1.4,1.6-2.7,1.6-4.7,0.3c-4.7,0-9.3-0.3-14-0.3c-12.3-21.6-0.8-43.5,0.3-65.4c2.5-43,6.3-86.2-1.6-128.9
		c-1.4-7.7-1.4-13.1,6-17.5C457.4,612.5,463.7,612.5,469.7,612.5z"/>
	<path fill="#D3C8B2" d="M451.7,612.5c-7.9,9.9,3.8,16.7,3.8,24.9c0.8,39.4,3.6,79.6-1.1,118.2c-2.7,22.7-7.7,45.4-7.7,68.4
		c-6.3,0-12.3,0-18.6,0c17.2-29.3,6-61.6,9-92.2c-1.4-2.2-1.6-4.7-0.8-7.1c7.4-30.6,3.8-61.6,2.2-92.2c-0.3-7.1-5.5-14.8,3-20.2
		C445.4,612.5,448.4,612.5,451.7,612.5z"/>
	<path fill="#D5CBB5" d="M442.1,612.5c6.3,31.5,4.7,63.2,4.7,94.9c0,7.7,3.8,17.8-9,20.2c-9-14.2,0.3-29.6-2.2-44.3
		c-2.2-12.6,2.5-25.7-2.5-38.3c-0.3-10.9,1.6-21.9-4.7-32C433.1,612.5,437.7,612.5,442.1,612.5z"/>
	<path fill="#767667" d="M286.1,879.8c-14,11.2-16.1-5.2-23.3-9.9c0-3.6,0.3-7.1,4.1-8.8c3,2.7,6.3,6,9.3,8.8
		C279.8,873.2,285.3,874.3,286.1,879.8z"/>
	<path fill="#99978F" d="M686.2,1141.7c-1.4,24.4-3,49.3-4.7,73.6c-7.9,17.5-12.6,35.8-13.7,55.3c-1.4,0-3,0-4.7,0
		c-2.7-28.2-4.1-56.1,9-82.6C683.5,1174.2,677.2,1155.6,686.2,1141.7z"/>
	<path fill="#A9A695" d="M667.6,1058.8c9-7.1-0.3-23,14-27.6c0,18.6,0,36.7,0,55.3c-5.5,41.9-14,83.5-15,126.1
		c-4.1,7.7-2.7,16.4-4.1,24.4c-0.8,2.5-2.2,4.1-3.8,6c-1.4,0-3,0-4.7,0c0-6.3,0-12.3,0-18.6c-5.2-7.7-5.2-15.3,0-23
		c1.6-40.5,0.3-81.3,6.6-121.5C661.8,1072.2,661.3,1064.5,667.6,1058.8z"/>
	<path fill="#A4A494" d="M658.6,1242.9c0-1.4,0-3,0-4.7c5.5-7.1-0.8-16.1,4.7-23c0-44.1,6-87,18.6-128.9c3.8,34.2-9.3,67-9,101.2
		c-3,27.6-6.3,55.3-9,82.6c-3,9-2.5,19.4-9,27.6C650.9,1279.3,659.6,1261.5,658.6,1242.9z"/>
	<path fill="#D54D2F" d="M571,156.9c4.7,0,9,0,14,0c9.3,24.4-1.6,49.3,0,73.6c-3,0-6.3,0-9,0C563.9,207,568.5,181.8,571,156.9z"/>
	<path fill="#DD4C2D" d="M571,156.9c9.3,24.1,2.5,49,4.7,73.6c-29.3,0.3-58.3,0.8-87.6,1.1l0.3-1.4c-1.4-2.5-1.1-4.7,1.1-6.3
		c2.2-1.4,4.1-2.2,6.6-2.7c8.5-1.4,16.4-1.1,24.9-1.4c14.2-0.3,11.5-10.9,12.3-20c1.4-16.1-5.5-34.2,11.8-46c7.9-3,15.3-2.2,21.9,3
		C568.3,156.9,569.6,156.9,571,156.9z"/>
	<path fill="#C14C33" d="M520.4,143.5c3.8,0,7.4-1.1,9-4.7c6.6-4.9,4.7-10.9,1.1-16.1c-8.5-12.3-9-25.2-5.5-38.9
		c13.1,23,24.4,47.9,41.3,68.7c-11.2,3.8-22.7,1.6-33.9,3.8C526.4,153.9,519.5,152.2,520.4,143.5z"/>
	<path fill="#D54D2F" d="M529.7,152.5c12.3,0,24.4,0,36.7,0.3c0,1.4,0.3,2.7,0.3,4.7c-7.7,0-15.3,0-23.3,0c-7.1,4.7-14,6.6-22.4,3.8
		c-3.8-1.6-6.6-3.8-6-8.8C520.4,148.9,525,149.8,529.7,152.5z"/>
	<path fill="#646159" d="M286.1,879.8c-4.7-2.2-7.7-5.2-9.3-9.9c7.1-0.3,13.1,0,14,9C289.2,879.5,287.8,879.8,286.1,879.8z"/>
	<path fill="#AEAF9F" d="M354.8,308.7c-6.3,0-12.3,0-18.6,0c-11.2-23-9.3-46-1.4-69.5c12.6-7.9,25.4-7.4,38.9-1.1
		c10.9,17.5,6.3,36.7,5.2,55.3C377.8,309.6,363.3,304.6,354.8,308.7z"/>
	<path fill="#B4B4A5" d="M428.4,240.1c1.4,23,9.9,45.4,4.7,68.7c-14,0-27.6,0-41.6,0c-4.9-24.1-3.8-47.1,9-68.7
		C410.1,240.1,419.1,240.1,428.4,240.1z"/>
	<path fill="#A3A496" d="M336.8,240.3c0,22.7-0.3,45.7-0.3,68.4c-9,0-18.6,0-27.6,0c-7.4-23-10.4-46,1.1-68.7
		c2.2-2.2,4.7-3.6,7.4-4.1C324.2,234,331,234,336.8,240.3z"/>
	<path fill="#B2B2A2" d="M401.1,240.1c-3,23-6.3,45.7-9,68.7c-12.3,0-24.4,0-36.7,0c15-4.7,20.5-14,18.9-30.1
		c-1.4-12.9-0.3-25.7-0.3-38.9c6-5.5,12.3-4.9,18.1-0.3C394.8,239.8,397.8,240.1,401.1,240.1z"/>
	<path fill="#97988C" d="M313.8,239.8c-9.3,22.4-2.5,46-4.9,68.7c-4.7,0-9,0-13.7,0c9.9-22.4-4.1-46.5,4.9-68.7
		C304.2,236,308.9,236,313.8,239.8z"/>
	<path fill="#A45A3E" d="M313.8,239.8c-4.7,0-9,0-13.7,0.3c-1.6-0.3-3.6-0.8-5.2-1.1c-3.8-4.7-9-3-14-4.1
		c10.1-7.4,21.6-2.2,32.6-4.1c7.4-7.4,17.2-5.2,25.7-6c4.9,0,10.1,0,15,0c7.4,0,14.8,0,22.4,0c6.3,0,12.6,0.3,18.1,3.6
		c2.5,1.6,2.7,3.8,1.6,6.3c-1.4,0.3-3,0.8-4.7,1.1c-24.4,5.2-49.5-1.6-74.4,3.8h-2.2L313.8,239.8z"/>
	<path fill="#D0C5B0" d="M433.1,529.8c-8.5-17.2-18.1-32.6-40.5-32c-21.1,0.3-21.6,19.2-28.7,32c-14,5.5-27.6,2.5-41.6,0
		c2.5-25.4,14.8-44.6,35.3-61c24.4-19.4,44.1-18.1,62.1,7.1c12.3,16.7,20,35.3,26.8,54.2C442.1,529.8,437.7,529.8,433.1,529.8z"/>
	<path fill="#AFB0A0" d="M456.1,589.5c-3.8,0-7.4,1.1-9.3,4.7c-7.7,0-15,0.3-22.7,0.3c0-1.6,0-3,0-4.9c17.2-7.4,12.9-23.3,11.2-35
		c-3.6-20.2,6-21.6,21.1-20.2C463.5,552.8,466.2,570.9,456.1,589.5z"/>
	<path fill="#A7A899" d="M479.1,589.5c-4.7,0-9,0-14,0c-7.1-18.6-7.4-36.7,0-55.3c6.3,0,12.3,0,18.6,0
		C482.1,552.8,487.8,571.7,479.1,589.5z"/>
	<path fill="#ABAC9C" d="M465.1,534.2c0,18.6,0,36.7,0,55.3c-3,0-6.3,0-9,0c0-18.6,0-36.7,0-55.3
		C459.4,534.2,462.1,534.2,465.1,534.2z"/>
	<path fill="#B7B3A1" d="M322.8,529.6c14,0,27.6,0,41.6,0c3.8,0,7.4,1.1,9,4.7c-7.7,7.1-15.3,4.7-23,0c-4.7,0-9,0-14,0
		c-3,0-6.3,0-9,0c-4.7,3.8-9,3.8-14,0c-3-1.4-6.3-3-9.3-4.7C310.2,529.8,316.5,529.8,322.8,529.6z"/>
	<path fill="#6C6A62" d="M294.9,585.4c-4.9,6.3-12.3,6-17.8,3c-3.6-1.6,3.6-4.7,3.8-7.9c8.5-14,0-31.7,9-45.7l0,0
		C299.8,550.6,293,568.1,294.9,585.4z"/>
	<path fill="#C7482E" d="M529.7,152.5c-4.7,0-9.3,0-14,0.3c-3.8,3.6-8.5,4.1-12.9,2.7c-6-2.5-10.1-7.1-12.6-12.6
		c-15-30.6-42.7-40.8-73.6-45.4c-2.2-0.3-4.1-0.8-6.3-1.4c-15.3-3.6-31.2-5.2-46,2.2c-1.6,1.1-3.8,1.6-6,2.5
		c-21.1,4.1-33.9,21.3-50.9,32c-6.6,4.1-10.9,13.1-21.1,10.1c21.3-40.5,57.5-58.3,101-64.3c58.6-7.9,101,18.9,134.1,64.3
		C523.4,146.5,526.7,149.2,529.7,152.5z"/>
	<path fill="#CA4A2E" d="M285.9,143.5c16.4-12.6,33.1-24.4,48.4-37.8c7.7-6.6,15.3-9,25.2-8.5c1.1,3,1.1,6.6-1.4,8.5
		c-22.4,15.6-38.9,40.5-67.6,46.8c-4.7,0-9,0.3-13.7,0.3C278.2,148.1,281.5,145.1,285.9,143.5z"/>
	<path fill="#EA5132" d="M340.9,230.2c-9,0-18.1,0.3-27.6,0.3c-4.9-4.7-11.8-6-10.1-16.7c2.2-12.3,3.8-25.4,1.1-38.3
		c-4.1-18.9,14.8-15.3,22.7-22.4c1.6-1.6,3.8-3,6.6-3c3.8,0,7.4,1.1,9,5.2C344.2,179.6,340.9,204.8,340.9,230.2z"/>
	<path fill="#D34C2E" d="M331.8,152.5c-1.4,0-3,0-4.7,0c-3,0-6.3,0-9,0c7.1-29.3,27.9-42.1,55.3-47.3c13.1,0,26.8-1.6,40.2,0
		c7.9,1.1,17.2,1.4,16.7,13.1c-7.4,10.4-18.6,7.4-28.2,8.5c-13.1,1.4-26.8-3-39.4,4.1C354.3,141,343.1,146.5,331.8,152.5z"/>
	<path fill="#D14D2E" d="M368.5,111.2c-25.4,3-36.9,23.8-50.6,41.6c-9,0-18.6,0-27.6,0c23-18.6,46-36.7,69.2-55.3l0,0
		c6-4.7,10.4-1.6,14.2,2.7C376.2,106,372.3,108.5,368.5,111.2z"/>
	<path fill="#AAAB9C" d="M460.7,824.5c1.4,0,3-0.3,4.7-0.3c9,0,18.6,0,27.6,0.3c-17.2,16.4-6.6,41.6-18.6,59.7
		c-11.8,3.8-24.1,5.5-36.7,4.7c0-1.4,0-3,0-4.7l0,0c12.9-7.9,16.1-21.3,16.1-35c0-7.9,0.3-15,7.1-20.2
		C460.7,827.3,460.7,825.9,460.7,824.5z"/>
	<path fill="#AEAF9E" d="M460.7,828.6c-3.8,12.9-1.1,26.3-3.6,39.7c-2.7,13.7-7.9,16.4-19.4,15.3c0-11.2,1.1-22.7-0.3-33.4
		C435.3,831.4,444.3,826.5,460.7,828.6z"/>
	<path fill="#999B8F" d="M538.4,879c-1.4,0.3-2.7,0.3-4.1,0.8c-10.9,1.4-21.6,3-32.6,4.7v-0.3c0-14.2,3.8-28.2,3.6-42.1
		c-0.3-10.1,6.3-14.2,14.8-17.2c4.7,0,9.3,0,14,0C535.7,842.6,530.5,861.5,538.4,879z"/>
	<path fill="#A6A798" d="M474.7,884.2c0-9.9,1.1-20-0.3-29.6c-2.2-15.6,3.6-25.4,18.6-30.1c3,0,6.3-0.3,9-0.3c1.4,0,3,0.3,4.7,0.3
		c-7.9,18.9-3.8,40.8-14,59.4c-1.4,0-3,0-4.7,0.3C483.7,884.2,479.1,884.2,474.7,884.2z"/>
	<path fill="#A0A194" d="M492.7,883.6c2.5-20.2-7.4-43.5,14-59.4c4.7,0,9,0,13.7,0c-11.2,7.1-9,18.1-9,28.7c0,11.2,2.7,23-9,30.6
		C499,883.6,496,883.6,492.7,883.6z"/>
	<path fill="#FDF5E4" d="M410.1,1019.9c0,12.9,1.1,23.8-3.8,33.9c-2.2,4.7-1.4,11.8-9,10.9c-5.5-1.1-9-6.3-9.9-11.5
		c-1.6-19.4-4.9-39.1-0.8-58.6c1.4-6.6,3-12.3,10.9-12.6c7.4-0.3,7.1,6.6,9,11.2C411.7,1002.1,409.3,1012.3,410.1,1019.9z"/>
	<path fill="#D9CEB9" d="M363.9,746c10.1,6.3,13.7,17.8,18.1,27.6c3,7.1,6.6,9,13.7,9c7.4,0,12.3-1.4,15-10.1
		c4.7-12.6,11.8-24.1,17.8-35.8c-1.1,17.2,0.3,33.4-6.3,50.6c-5.2,13.1-13.7,18.1-23.8,20.5c-10.9,2.7-20.5-8.8-22.7-15.3
		C371.5,777.2,359.5,763.8,363.9,746z"/>
	<path fill="#D9CEB9" d="M433.1,644.8c10.1,27.4,2.2,55.3,4.7,82.6c0,1.4,0,3,0,4.7c-3,1.4-6.3,3-9,4.7
		C431.7,706.1,434.5,675.7,433.1,644.8z"/>
	<path fill="#F6EDDC" d="M391.8,612.5c19.2-3.8,15.3,15,22.7,23c-1.6,21.3,3.6,42.7-3.6,63.5c-2.5,7.4-4.1,16.4-13.1,16.1
		c-7.4-0.3-9.9-8.5-11.5-15.3C378.9,670.2,380.3,641.2,391.8,612.5z"/>
	<path fill="#AEAF9F" d="M350.4,534.2c7.7,0,15.3,0,23,0c3,0,6.3,0,9,0c-7.7,18.6-16.1,36.7,0,55.3c-31.2-1.6-37.5-10.4-29-40.2
		C355.4,543.5,352.1,539.1,350.4,534.2z"/>
	<path fill="#F3F2EE" d="M419.1,575.5c-8.8-12.9-2.5-27.6-4.1-41.6C423.2,547.4,417.8,561.9,419.1,575.5z"/>
	<path fill="#F3F2EE" d="M405.2,533.9c-0.8,7.9,3,16.7-4.1,23.3C401.6,549.3,398.1,540.5,405.2,533.9z"/>
	<path fill="#B1A996" d="M667.6,1058.8c-4.1,47.3-2.5,95.8-14,142.8c-8.8-29.6-3.6-60.5-4.7-90.3c-0.8-25.2,1.1-50.3-0.8-75
		c-1.1-15.3,3.8-24.4,18.9-27.9C661.8,1025.1,666.2,1041.8,667.6,1058.8z"/>
	<path fill="#A3A497" d="M313.2,534.2c4.7,0,9,0,14,0c-1.4,16.7,3.8,34.2-4.7,50.6c-15.6-1.6-14.2-13.1-13.1-23.8
		C309.9,552.3,311.9,543.5,313.2,534.2z"/>
	<path fill="#888C89" d="M294.9,585.4c-9.9-16.1-2.2-33.9-4.7-50.6c14.2,2.2,8.8,13.7,9,21.3c0.8,9.9,0,19.4,0,29.3
		C297.9,584.8,296.3,585.4,294.9,585.4z"/>
	<path fill="#A29989" d="M317.6,239.8c24.4-7.7,49.5-3,74.4-3.8c0,1.4,0,2.7,0,3.8c-6,0-12.3,0.3-18.1,0.3
		c-12.3,0-24.4,0.3-36.7,0.3C330.5,240.1,323.9,239.8,317.6,239.8z"/>
	<path fill="#A76046" d="M396.1,234.6c0-1.1,0-2.2,0-3c3-4.7,7.9-5.5,13.1-6.3c8.8-0.3,17.5-1.1,25.7,3c0.8,1.1,1.6,1.6,2.5,2.7
		c0,1.1,0,2.5,0,3.6C424.1,234.6,410.1,234.6,396.1,234.6z"/>
	<path fill="#E05234" d="M488.4,226.1c0,1.4,0,2.7,0,4.1c-17.2,0.3-33.9,0.8-50.9,0.8l0.3-1.4c-0.8-4.7,2.5-6.3,5.5-7.7
		c7.1-2.2,14-1.6,21.1-1.6c4.9,0,9.3,0,14.2,0.8C482.6,222,485.9,223.4,488.4,226.1z"/>
	<path fill="#A7A594" d="M663.2,1215c-1.1,7.7,3,16.4-4.7,23C659.6,1230.3,655.5,1221.6,663.2,1215z"/>
	<path fill="#E34E2E" d="M502.3,152.5c4.7,0,9,0,13.7,0.3c1.4,1.4,3,3,4.7,4.7c7.9,23,7.9,46,0,69.2c-9,0-18.6,0-27.6,0
		c-8.5-9.3-6-21.3-6.3-32c-0.3-12.9-0.8-25.4-12.3-34.5c-1.4-2.2-1.6-4.7-0.8-7.1c3.8-3.8,8.8-4.9,14-4.9
		C493,147.9,497.7,149.8,502.3,152.5z"/>
	<path fill="#E14D2D" d="M520.4,226.1c0-23,0-46,0-69.2c7.7,0,15.3,0,23,0c-8.5,16.4-5.5,34.2-3.8,50.6
		C541.2,225.3,535.1,228.6,520.4,226.1z"/>
	<path fill="#E65131" d="M474.7,156.9c15-0.8,17.8,9.3,18.1,21.1c0.3,16.1,0,32,0.3,48.2c-1.4,0-3,0-4.7,0c-3,0-6.3,0-9,0
		C464.3,204.2,464.5,180.7,474.7,156.9z"/>
	<path fill="#EA6049" d="M410.4,229.9c-4.9,0.3-9.3,1.1-14.2,1.4c-6.3-0.3-12.3-0.8-18.6-1.4c-3-1.4-6.3-2.7-6-7.1
		c0.8-4.9,3-8.8,6-12.6c7.7-9.3,7.1-21.3,8.8-32.6c1.1-7.1,3-13.7,11.5-14.8c7.9-0.8,12.9,3.8,15.6,10.4
		c4.7,10.4,8.8,21.1,12.6,31.7C431.7,220.6,426.5,228.8,410.4,229.9z"/>
	<path fill="#EA5438" d="M340.9,230.2c-8.8-25.7-6.3-51.7,0.3-77.4c7.7-7.4,16.4-6.3,25.2-2.7c6.3,4.7,1.6,7.9-1.4,11.5
		c-12.3,7.4-15,18.9-12.3,31.5c2.5,10.4,1.6,21.3,3.6,31.7c0.3,2.2,0,4.1-1.4,5.5C349.9,229.9,345.5,229.9,340.9,230.2z"/>
	<path fill="#E65940" d="M354.8,229.9c0-1.4,0-2.5,0-3.8c1.4-1.6,2.7-2.7,4.9-3.6c2.7-0.8,6-0.8,9,0c1.6,0.8,3.6,2.2,4.9,3.6
		c1.4,1.4,3,2.7,4.7,3.8C370.1,229.9,362.5,229.9,354.8,229.9z"/>
	<path fill="#D24B2E" d="M488.4,152.5c-4.7,0-9,0-14,0c-1.6,1.4-3.8,1.6-6,1.1c-10.1-14.8-31.2-17.2-40.2-33.4
		c-1.4-11.2-10.1-9-17.2-9c-14.2,0-28.2,0-42.7,0c1.4-3,3-6.3,4.7-9c10.1-12.3,22.7-14,36.7-9c1.4,0,3,0,4.7,0
		c18.9,7.4,37.5,15.6,55.3,25.2C484.5,125.7,491.6,135.8,488.4,152.5z"/>
	<path fill="#CA4A2E" d="M488.4,152.5c-6-35.8-40.2-35.8-63.2-49.8c-4.7-2.7-10.1-3-10.4-9.9c42.1,1.1,70.6,21.9,87.3,59.7
		C497.4,152.5,492.7,152.5,488.4,152.5z"/>
	<path fill="#CA4A2E" d="M410.1,92.9c-14.2-5.2-23.8,9.3-36.7,9c-4.7-1.4-9-3-14-4.7C375.1,80.8,392.6,87.7,410.1,92.9z"/>
	<path fill="#DA4C2D" d="M368.5,152.5c-9,0-18.6,0-27.6,0c-3,0-6.3,0-9,0c3.8-11.5,18.1-12.6,23-23c11.2-7.1,24.1-6,35.6-3
		c20,4.9,38.9,14.2,59.1,17.8c3.8,0.8,6.6,3.6,6,8.5c-6.3,7.1-14.8,6-22.7,6.6c-13.7,0.3-27.4,0.3-40.8,0
		C383.8,158.3,375.1,159.3,368.5,152.5z"/>
	<path fill="#D74A2D" d="M456.1,152.5c-34.5-3.8-64.9-27.4-101.2-23c5.5-11.8,16.4-9,25.7-9c16.1-0.3,31.7,0,47.9,0
		c14.8,9.9,34.2,12.6,41.6,32c-3,3.8-7.4,3.8-11.5,2.2C457.4,153.9,456.9,153.1,456.1,152.5z"/>
	<path fill="#FEF6E5" d="M405.7,665.8c-1.6,7.7,3,21.6-7.4,20.5c-11.2-1.1-6-15-6.3-23c-0.3-7.1-2.7-19.4,6-19.2
		C410.6,645,403,658.7,405.7,665.8z"/>
	<path fill="#EA5D46" d="M391.5,152.5c14,0,27.6,0,41.6,0c18.1,16.4,21.9,45.7,9.3,73.6c-1.4,1.4-2.7,2.5-4.1,3.8
		c-9,0-18.6,0-27.6,0c13.1-5.2,16.7-13.7,9-26.5c-4.9-8.5-9-17.5-10.4-27.6c-0.8-6-5.2-9.3-11.5-8.5c-6,1.1-6,6.3-6,10.9
		c0,14.8,1.4,29.3-14,38.3c-10.9-15-4.9-31.7-6-48.2C372.1,155.5,383.3,155.5,391.5,152.5z"/>
	<path fill="#E85437" d="M442.1,226.1c-2.2-24.9,6.3-50.6-9.3-73.6c7.7,0,15.3,0,23,0l0,0c4.9,3,12.9,3.6,12.9,11.2
		c-0.3,21.1,6,42.1-3.6,62.4C457.4,226.1,449.8,226.1,442.1,226.1z"/>
	<path fill="#E75134" d="M465.1,226.1c0-17.5-0.8-34.5,0.3-52c0.3-9.3-2.7-15.6-9.3-21.6c4.7,0,9,0,14,0c1.4,0,3,0,4.7,0
		c0,1.4,0,3,0,4.7c0.8,23-2.2,46.5,4.7,69.2C474.7,226.1,469.7,226.1,465.1,226.1z"/>
	<path fill="#EA5C45" d="M377.8,166.5c0,16.7,0,33.9,0,50.6c-1.4,3-3,6.3-4.7,9c-1.4,0-3,0-4.7,0c-10.4-15-6.3-31.7-4.7-48.2
		C364.7,170.8,369.3,165.4,377.8,166.5z"/>
	<path fill="#EA5940" d="M377.8,166.5c-15,8.5-7.7,23-9,35c-1.1,8.5-0.3,16.7-0.3,24.9c-3,0-6.3,0-9,0c-8.8-23-9.3-46,0-69.2
		c3.8,0,7.4-1.1,9-4.7c7.7,0,15.3,0,23,0C388.5,158.3,377,156.3,377.8,166.5z"/>
	<path fill="#EA563B" d="M359.5,156.9c0,23,0,46,0,69.2c-1.4,0-3,0-4.7,0C341.1,204.5,343.3,174.1,359.5,156.9z"/>
</g>
</svg>
