<?xml version="1.0" encoding="utf-8"?>
<!-- Generator: Adobe Illustrator 18.0.0, SVG Export Plug-In . SVG Version: 6.00 Build 0)  -->
<!DOCTYPE svg PUBLIC "-//W3C//DTD SVG 1.1//EN" "http://www.w3.org/Graphics/SVG/1.1/DTD/svg11.dtd">
<svg version="1.1" id="Layer_1" xmlns="http://www.w3.org/2000/svg" xmlns:xlink="http://www.w3.org/1999/xlink"
	 viewBox="0 0 841.9 595.3" enable-background="new 0 0 841.9 595.3" xml:space="preserve">
	<g>
		<defs>
			<polygon id="SVGID_1_" points="792.5,100.2 96.8,94.8 96.8,254.5 795.2,216.6"/>
		</defs>
		<polygon fill-rule="evenodd" clip-rule="evenodd" fill="#4C4C4E" points="703.2,215.2 654.5,218.1 658.4,522.3 683.5,525.3 "/>
		<polygon fill-rule="evenodd" clip-rule="evenodd" fill="#A6A7AA" points="725.8,212.5 680.2,213.9 683.5,525.3 734.3,518.2 "/>
		<path fill-rule="evenodd" clip-rule="evenodd" fill="#5EA45E" d="M150.6,483.9c-1-2.3-1.6-2.9,0.3-5c1.4,1.3-0.9,4.3-0.4,4.8
			c2.2-2.3,0.8-1.4,3.7-3.8c3.1-2.5,4.2,0.6-2,3c-0.4,0.1-1.3,0.6-1.7,0.8c3.3-0.5,5.2-0.8,7.6,2c0,0.1,0,0.1,0,0.2
			C156.5,487.6,151.1,485.2,150.6,483.9z"/>
		<polygon fill-rule="evenodd" clip-rule="evenodd" fill="#393738" points="178.9,241.5 127.9,231.5 130,567 155.4,574.6 "/>
		<polygon fill-rule="evenodd" clip-rule="evenodd" fill="#A6A7AA" points="203.7,236.9 151.6,232.1 155.4,574.6 209.1,568.5 "/>
		<path fill-rule="evenodd" clip-rule="evenodd" fill="#939596" d="M175.6,114.4c31.5,0,57.2-25.7,57.2-57.2
		c0-31.5-25.7-57.2-57.2-57.2c-31.5,0-57.2,25.7-57.2,57.2C118.4,88.7,144.1,114.4,175.6,114.4z"/>
		<path fill-rule="evenodd" clip-rule="evenodd" fill="#939596" d="M691.9,122.5c27,0,49.1-22,49.1-49.1c0-27-22-49.1-49.1-49.1
			s-49.1,22-49.1,49.1C642.8,100.5,664.8,122.5,691.9,122.5z"/>
		<path fill-rule="evenodd" clip-rule="evenodd" fill="#CFD0D2" d="M704.6,115.5c23.5,0,42.7-19.2,42.7-42.7
			c0-23.5-19.2-42.7-42.7-42.7S662,49.3,662,72.9C662,96.4,681.1,115.5,704.6,115.5z"/>
		<path fill-rule="evenodd" clip-rule="evenodd" fill="#DA833D" d="M707.5,104.5c17.8,0,32.2-14.5,32.2-32.2
			c0-17.8-14.5-32.2-32.2-32.2c-17.7,0-32.2,14.5-32.2,32.2C675.3,90,689.8,104.5,707.5,104.5z"/>
		<path fill-rule="evenodd" clip-rule="evenodd" fill="#FAF03C" d="M709,99.9c14.4,0,26.1-11.7,26.1-26.1c0-14.4-11.7-26.1-26.1-26.1
			s-26.1,11.7-26.1,26.1C682.9,88.1,694.6,99.9,709,99.9z"/>
		<path fill-rule="evenodd" clip-rule="evenodd" fill="#CFD0D2" d="M190.5,106.3c27.4,0,49.7-22.3,49.7-49.7
			c0-27.4-22.3-49.7-49.7-49.7c-27.4,0-49.7,22.3-49.7,49.7C140.8,83.9,163.1,106.3,190.5,106.3z"/>
		<path fill-rule="evenodd" clip-rule="evenodd" fill="#DA833D" d="M193.9,93.4c20.7,0,37.6-16.9,37.6-37.6
			c0-20.7-16.9-37.6-37.6-37.6c-20.7,0-37.6,16.9-37.6,37.6C156.3,76.5,173.2,93.4,193.9,93.4z"/>
		<path fill-rule="evenodd" clip-rule="evenodd" fill="#FAF03C" d="M195.6,88c16.8,0,30.5-13.7,30.5-30.5c0-16.8-13.7-30.5-30.5-30.5
			c-16.8,0-30.5,13.7-30.5,30.5C165.1,74.3,178.8,88,195.6,88z"/>
		<use xlink:href="#SVGID_1_"  overflow="visible" fill-rule="evenodd" clip-rule="evenodd" fill="#AC373B"/>
		<clipPath id="SVGID_2_">
			<use xlink:href="#SVGID_1_"  overflow="visible"/>
		</clipPath>
		<polygon clip-path="url(#SVGID_2_)" fill-rule="evenodd" clip-rule="evenodd" fill="#E4E4E5" points="301.2,90.7 222.7,82.6 86.6,209.1 88,277.5 128.6,272.8 
					"/>
		<polygon clip-path="url(#SVGID_2_)" fill-rule="evenodd" clip-rule="evenodd" fill="#E4E4E5" points="495.4,79.9 401.3,77.8 207.8,282.9 267.3,284.9 
			318.8,287.6 		"/>
		<polygon clip-path="url(#SVGID_2_)" fill-rule="evenodd" clip-rule="evenodd" fill="#E4E4E5" points="668.6,86.6 574.4,84.6 398.2,289.7 458,291.7 
			509.6,294.4 		"/>
		<polygon clip-path="url(#SVGID_2_)" fill-rule="evenodd" clip-rule="evenodd" fill="#E4E4E5" points="834.9,92 740.4,90 585.9,295.1 645.8,297.1 697.8,299.8 
					"/>
		<polygon fill-rule="evenodd" clip-rule="evenodd" fill="#723333" points="96.8,254.8 98.8,96.4 38.6,97.8 37.2,250.1 "/>
	</g>
</svg>
