<?xml version="1.0" encoding="utf-8"?>
<!-- Generator: Adobe Illustrator 18.1.0, SVG Export Plug-In . SVG Version: 6.00 Build 0)  -->
<svg version="1.1" id="Calque_1" xmlns="http://www.w3.org/2000/svg" xmlns:xlink="http://www.w3.org/1999/xlink" x="0px" y="0px"
	 viewBox="0 0 300 83.8" enable-background="new 0 0 300 83.8" xml:space="preserve">
<g>
	<path fill="#4EBDD0" d="M66.5,50.7C64.1,61,55.1,68.2,43.2,68.2c-14.2,0-25.9-11.3-25.9-25.7c0-14.4,11.6-25.7,25.7-25.7
		c9,0,16.3,4,20.1,10.4v-9.4h3.3v16.4h-3.3C60.9,25.8,53.2,20,43.2,20c-12.5,0-22.4,9.9-22.4,22.4c0,12.6,9.9,22.4,22.4,22.4
		c10,0,17.6-5.7,19.8-14.2H66.5z"/>
	<path fill="#4EBDD0" d="M109.8,50.6c0,9.9-7.8,17.7-17.7,17.7c-9.9,0-17.7-7.8-17.7-17.7c0-9.8,7.8-17.5,17.7-17.5
		C101.9,33.1,109.8,40.8,109.8,50.6z M106.4,50.6c0-8-6.3-14.5-14.3-14.5c-8.1,0-14.5,6.5-14.5,14.5c0,8.1,6.4,14.7,14.5,14.7
		C100.1,65.3,106.4,58.7,106.4,50.6z"/>
	<path fill="#4EBDD0" d="M210.1,51.8l-0.5-0.1v0.1h-29.9c0.5,7.4,6.2,13.4,14.5,13.4c5.1,0,9.5-2.4,11.3-6h3.6
		c-2,5.4-7.9,8.9-14.9,8.9c-10.4,0-17.7-7.8-17.7-17.6c0-9.7,7.6-17.5,17.4-17.5c9.6,0,16.3,7.5,16.3,17.6V51.8z M179.6,49.1h27.2
		c-0.6-7.6-5.7-13.3-13.1-13.3C186.2,35.9,180.3,41.8,179.6,49.1z"/>
	<path fill="#4EBDD0" d="M250.5,56.8c-1.5,7-7.6,11.3-15.4,11.3c-10.5,0-17.9-7.7-17.9-17.5c0-9.7,7.5-17.5,17.7-17.5
		c5.4,0,10,2.3,12.6,6v-5h3.1v10.5h-3.3c-1.3-5.1-6.2-8.4-12.2-8.4c-8.4,0-14.5,6.5-14.5,14.5s6.1,14.5,14.7,14.5
		c6,0,10.7-3.3,11.9-8.4H250.5z"/>
	<path fill="#4EBDD0" d="M282.6,67.2c-2.7,0.7-4.6,1-6.5,1c-7.5,0-10.8-3.9-10.8-12.6V37.1h-9.7V34h9.7V22.1h3.3V34H281v3.1h-12.5
		v18.5c0,6.9,2.3,9.6,7.9,9.6c1.7,0,3.7-0.3,5.6-0.7L282.6,67.2z"/>
	<g>
		<polygon fill="#4EBDD0" points="129.9,17.9 129.6,17.9 126.7,17.9 119,17.9 119,20.9 127,20.9 127,63.9 119,63.9 119,66.9 
			138,66.9 138,63.9 130,63.9 130,23.6 162,63.9 156,63.9 156,66.9 164.4,66.9 164.7,66.9 167.6,66.9 168,66.9 168,63.9 165.9,63.9 
					"/>
		<polygon fill="#4EBDD0" points="167.6,17.9 167.3,17.9 164.4,17.9 156,17.9 156,20.9 164,20.9 164,37.9 168,37.9 168,20.9 
			176,20.9 176,17.9 		"/>
	</g>
</g>
</svg>
