<?xml version="1.0" encoding="utf-8"?>
<!-- Generator: Adobe Illustrator 18.0.0, SVG Export Plug-In . SVG Version: 6.00 Build 0)  -->
<!DOCTYPE svg PUBLIC "-//W3C//DTD SVG 1.1//EN" "http://www.w3.org/Graphics/SVG/1.1/DTD/svg11.dtd">
<svg version="1.1" id="Calque_1" xmlns="http://www.w3.org/2000/svg" xmlns:xlink="http://www.w3.org/1999/xlink" x="0px" y="0px"
	 viewBox="0 0 1417.3 566.9" enable-background="new 0 0 1417.3 566.9" xml:space="preserve">
<g>
<path fill="#FAFAE5" d="M1432.1,381c-11.1-168.7-247.4-214.2-352.5-117.8c5.2-73.5-27.3-146.7-104-173.9
	c-55.8-19.8-118.1,8.3-157.9,46.8c-8.3,8.1-15.4,16.8-21.4,26c-15.4-79.8-76-146-171.5-150.4C508.4,6.4,448.1,122.6,458.4,225.9
	c-31.4-45.6-77.7-76.7-140.1-67.3c-37.1,5.6-72,25.8-97.7,53.6c-23.8,24.6-39.9,57.7-44.8,91.7c-68.3-21.5-156.9-2.1-160.9,82.8
	c-5.2,111,114.8,162.6,208.4,165.6c12.7,0.4,25.3-0.5,37.8-2.2c50.2,4.5,104-10.3,155.9-32.9c6.1,1.9,12.1,3.6,17.7,5
	c43.8,10.5,88.3,4.9,129.3-11.4c33.5,14.8,68.7,25.4,98.6,33.5c135.5,36.5,294.2,25.7,403.8-64
	C1176.5,579.3,1442.9,545.6,1432.1,381z"/>

</g>
</svg>
