<?xml version="1.0" encoding="utf-8"?>
<!-- Generator: Adobe Illustrator 18.0.0, SVG Export Plug-In . SVG Version: 6.00 Build 0)  -->
<!DOCTYPE svg PUBLIC "-//W3C//DTD SVG 1.1//EN" "http://www.w3.org/Graphics/SVG/1.1/DTD/svg11.dtd">
<svg version="1.1" id="Calque_1" xmlns="http://www.w3.org/2000/svg" xmlns:xlink="http://www.w3.org/1999/xlink" x="0px" y="0px"
	 viewBox="0 0 383.6 548.6" enable-background="new 0 0 383.6 548.6" xml:space="preserve">
<g id="h1Ya79_1_">
	
		<image overflow="visible" width="313" height="546" id="h1Ya79_3_" xlink:href="A023938A.png"  transform="matrix(0.6817 0 0 0.6817 51.2152 71.66)">
	</image>
</g>
<g>
	<g>
		<line fill="none" stroke="#010202" stroke-width="2" stroke-miterlimit="10" x1="284.5" y1="85.4" x2="284.5" y2="420.4"/>
		<g>
			<polygon fill="#010202" points="274.6,88.4 284.5,71.1 294.5,88.4 			"/>
		</g>
		<g>
			<polygon fill="#010202" points="274.6,417.4 284.5,434.7 294.5,417.4 			"/>
		</g>
	</g>
</g>
<g>
	<path fill="#010202" d="M306.5,257.8h-1.1v-11.8l-3.3,0.4v-0.7l4.3-0.8V257.8z"/>
	<path fill="#010202" d="M312.9,257.6L312,260h-0.7l0.6-2.5v-1.5h1V257.6z"/>
	<path fill="#010202" d="M323.3,252.8c0,1.7-0.4,2.9-1.1,3.8c-0.7,0.9-1.7,1.3-3,1.3c-1.3,0-2.3-0.4-3-1.3c-0.7-0.9-1.1-2.2-1.1-3.8
		v-2.9c0-1.6,0.4-2.9,1.1-3.8s1.7-1.3,3-1.3s2.3,0.4,3,1.3s1.1,2.2,1.1,3.8V252.8z M322.2,249.8c0-1.3-0.3-2.3-0.8-3
		c-0.5-0.7-1.3-1.1-2.2-1.1s-1.7,0.4-2.2,1.1c-0.5,0.7-0.8,1.7-0.8,3v3.2c0,1.3,0.3,2.3,0.8,3c0.5,0.7,1.3,1.1,2.2,1.1
		s1.7-0.4,2.2-1.1c0.5-0.7,0.8-1.7,0.8-3V249.8z"/>
	<path fill="#010202" d="M333.8,252.8c0,1.7-0.4,2.9-1.1,3.8c-0.7,0.9-1.7,1.3-3,1.3c-1.3,0-2.3-0.4-3-1.3c-0.7-0.9-1.1-2.2-1.1-3.8
		v-2.9c0-1.6,0.4-2.9,1.1-3.8s1.7-1.3,3-1.3s2.3,0.4,3,1.3s1.1,2.2,1.1,3.8V252.8z M332.7,249.8c0-1.3-0.3-2.3-0.8-3
		c-0.5-0.7-1.3-1.1-2.2-1.1s-1.7,0.4-2.2,1.1c-0.5,0.7-0.8,1.7-0.8,3v3.2c0,1.3,0.3,2.3,0.8,3c0.5,0.7,1.3,1.1,2.2,1.1
		s1.7-0.4,2.2-1.1c0.5-0.7,0.8-1.7,0.8-3V249.8z"/>
	<path fill="#010202" d="M341.6,248.2l0.1,1.6c0.3-0.6,0.7-1,1.2-1.3s1.1-0.5,1.8-0.5c0.7,0,1.3,0.2,1.8,0.5s0.8,0.9,1.1,1.6
		c0.3-0.7,0.7-1.2,1.2-1.6c0.5-0.4,1.2-0.6,1.9-0.6c1,0,1.8,0.3,2.3,1s0.8,1.7,0.8,3.1v5.5h-1.1v-5.6c0-1.2-0.2-2-0.6-2.5
		c-0.4-0.5-1-0.7-1.7-0.7c-0.8,0-1.4,0.3-1.9,0.8s-0.7,1.2-0.8,2c0,0,0,0.1,0,0.2c0,0.1,0,0.1,0,0.2v5.7h-1.1v-5.6
		c0-1.2-0.2-2-0.6-2.5c-0.4-0.5-1-0.7-1.7-0.7c-0.7,0-1.3,0.2-1.8,0.6c-0.4,0.4-0.7,0.9-0.9,1.5v6.7h-1.1v-9.5H341.6z"/>
</g>
<g>
	<path fill="#010202" d="M142.8,506.8c0,1.7-0.4,2.9-1.1,3.8s-1.7,1.3-3,1.3c-1.3,0-2.3-0.4-3-1.3c-0.7-0.9-1.1-2.2-1.1-3.8v-2.9
		c0-1.6,0.4-2.9,1.1-3.8s1.7-1.3,3-1.3s2.3,0.4,3,1.3s1.1,2.2,1.1,3.8V506.8z M141.8,503.8c0-1.3-0.3-2.3-0.8-3
		c-0.5-0.7-1.3-1.1-2.2-1.1s-1.7,0.4-2.2,1.1c-0.5,0.7-0.8,1.7-0.8,3v3.2c0,1.3,0.3,2.3,0.8,3c0.5,0.7,1.3,1.1,2.2,1.1
		s1.7-0.4,2.2-1.1c0.5-0.7,0.8-1.7,0.8-3V503.8z"/>
	<path fill="#010202" d="M146.4,511.6l-0.9,2.4h-0.7l0.6-2.5v-1.5h1V511.6z"/>
	<path fill="#010202" d="M155.1,507.6h2v0.9h-2v3.2h-1v-3.2h-6v-0.6l5.9-9h1.2V507.6z M149.3,507.6h4.8v-7.3l-0.1,0l-0.4,1
		L149.3,507.6z"/>
	<path fill="#010202" d="M159.1,506l0.7-7h6.2v1h-5.3l-0.5,4.6c0.3-0.3,0.7-0.5,1.1-0.7s0.9-0.2,1.6-0.3c1.1,0,2,0.3,2.6,1.1
		s1,1.8,1,3c0,1.3-0.3,2.3-1,3.1c-0.6,0.8-1.6,1.2-2.9,1.2c-1.1,0-1.9-0.3-2.6-0.9c-0.7-0.6-1-1.5-1-2.6l0-0.1h0.9
		c0,0.9,0.2,1.5,0.7,2c0.5,0.5,1.1,0.7,2,0.7c0.9,0,1.7-0.3,2.1-0.9c0.5-0.6,0.7-1.4,0.7-2.5c0-1-0.2-1.7-0.7-2.3
		c-0.5-0.6-1.1-0.9-2-0.9c-0.8,0-1.4,0.1-1.9,0.4c-0.4,0.3-0.7,0.7-0.9,1.2L159.1,506z"/>
	<path fill="#010202" d="M174.1,502.2l0.1,1.6c0.3-0.6,0.7-1,1.2-1.3s1.1-0.5,1.8-0.5c0.7,0,1.3,0.2,1.8,0.5s0.8,0.9,1.1,1.6
		c0.3-0.7,0.7-1.2,1.2-1.6c0.5-0.4,1.2-0.6,1.9-0.6c1,0,1.8,0.3,2.3,1s0.8,1.7,0.8,3.1v5.5h-1.1v-5.6c0-1.2-0.2-2-0.6-2.5
		c-0.4-0.5-1-0.7-1.7-0.7c-0.8,0-1.4,0.3-1.9,0.8s-0.7,1.2-0.8,2c0,0,0,0.1,0,0.2c0,0.1,0,0.1,0,0.2v5.7h-1.1v-5.6
		c0-1.2-0.2-2-0.6-2.5c-0.4-0.5-1-0.7-1.7-0.7c-0.7,0-1.3,0.2-1.8,0.6c-0.4,0.4-0.7,0.9-0.9,1.5v6.7h-1.1v-9.5H174.1z"/>
</g>
<g>
	<g>
		<line fill="none" stroke="#010202" stroke-width="2" stroke-miterlimit="10" x1="250.5" y1="470.4" x2="65.5" y2="470.4"/>
		<g>
			<polygon fill="#010202" points="247.5,459.9 264.8,469.9 247.5,479.9 			"/>
		</g>
		<g>
			<polygon fill="#010202" points="68.5,459.9 51.3,469.9 68.5,479.9 			"/>
		</g>
	</g>
</g>
<circle fill="none" stroke="#272727" stroke-width="4" stroke-miterlimit="10" cx="111.7" cy="109.6" r="46.2"/>
<g>
	<path fill="#010202" d="M26.7,50.2h7.8v0.9h-9.1v-0.8l7.5-11.1h-7.3v-0.9h8.6v0.8L26.7,50.2z"/>
	<path fill="#010202" d="M35.9,46.2c0-1.4,0.4-2.5,1.2-3.4s1.8-1.3,3-1.3c1.3,0,2.3,0.4,3.1,1.3s1.2,2,1.2,3.4v0.3
		c0,1.4-0.4,2.6-1.1,3.4c-0.8,0.9-1.8,1.3-3,1.3c-1.3,0-2.3-0.4-3.1-1.3c-0.8-0.9-1.2-2-1.2-3.4V46.2z M37,46.5c0,1.1,0.3,2,0.8,2.8
		c0.6,0.8,1.3,1.1,2.3,1.1c1,0,1.7-0.4,2.3-1.1c0.6-0.7,0.8-1.7,0.8-2.8v-0.3c0-1.1-0.3-2-0.8-2.8s-1.3-1.1-2.3-1.1
		s-1.8,0.4-2.3,1.1S37,45.1,37,46.2V46.5z"/>
	<path fill="#010202" d="M47.5,41.6l0.1,1.7c0.3-0.6,0.7-1,1.2-1.4c0.5-0.3,1.1-0.5,1.8-0.5c1,0,1.8,0.3,2.4,0.9s0.8,1.6,0.8,2.9
		v5.8h-1.1v-5.8c0-1.1-0.2-1.9-0.6-2.3c-0.4-0.5-1-0.7-1.7-0.7c-0.7,0-1.3,0.2-1.8,0.6c-0.5,0.4-0.8,0.9-1,1.6v6.6h-1.1v-9.5H47.5z"
		/>
	<path fill="#010202" d="M60.1,51.3c-1.2,0-2.2-0.4-3-1.3S56,48,56,46.6v-0.5c0-1.4,0.4-2.5,1.2-3.4c0.8-0.9,1.7-1.3,2.8-1.3
		c1.2,0,2.1,0.4,2.8,1.1s1,1.7,1,3v0.9H57v0.3c0,1.1,0.3,2,0.9,2.7c0.6,0.7,1.3,1.1,2.2,1.1c0.7,0,1.2-0.1,1.7-0.3s0.9-0.4,1.2-0.8
		l0.4,0.7c-0.4,0.4-0.8,0.7-1.4,0.9S60.9,51.3,60.1,51.3z M60,42.3c-0.8,0-1.4,0.3-2,0.9s-0.8,1.3-0.9,2.2l0,0h5.6v-0.3
		c0-0.8-0.2-1.5-0.7-2.1C61.5,42.6,60.8,42.3,60,42.3z"/>
	<path fill="#010202" d="M69.8,46.4c0-1.5,0.3-2.7,1-3.6c0.6-0.9,1.5-1.4,2.7-1.4c0.7,0,1.2,0.1,1.7,0.4s0.9,0.7,1.2,1.2v-5.6h1
		v13.7h-0.9l-0.1-1.4c-0.3,0.5-0.7,0.9-1.2,1.2s-1.1,0.4-1.8,0.4c-1.1,0-2-0.4-2.7-1.3c-0.6-0.8-1-2-1-3.4V46.4z M70.9,46.6
		c0,1.2,0.2,2.1,0.7,2.8c0.5,0.7,1.2,1,2.1,1c0.7,0,1.2-0.2,1.7-0.5c0.5-0.3,0.8-0.7,1.1-1.3v-4.5c-0.2-0.6-0.6-1-1-1.3
		c-0.4-0.3-1-0.5-1.7-0.5c-0.9,0-1.6,0.4-2.1,1.1c-0.5,0.8-0.7,1.8-0.7,3V46.6z"/>
	<path fill="#010202" d="M83.8,51.3c-1.2,0-2.2-0.4-3-1.3c-0.8-0.9-1.2-2-1.2-3.3v-0.5c0-1.4,0.4-2.5,1.2-3.4
		c0.8-0.9,1.7-1.3,2.8-1.3c1.2,0,2.1,0.4,2.8,1.1s1,1.7,1,3v0.9h-6.7v0.3c0,1.1,0.3,2,0.9,2.7c0.6,0.7,1.3,1.1,2.2,1.1
		c0.7,0,1.2-0.1,1.7-0.3s0.9-0.4,1.2-0.8l0.4,0.7c-0.4,0.4-0.8,0.7-1.4,0.9S84.6,51.3,83.8,51.3z M83.7,42.3c-0.8,0-1.4,0.3-2,0.9
		c-0.5,0.6-0.8,1.3-0.9,2.2l0,0h5.6v-0.3c0-0.8-0.2-1.5-0.7-2.1C85.2,42.6,84.5,42.3,83.7,42.3z"/>
	<path fill="#010202" d="M97.4,50.4c0.7,0,1.3-0.2,1.8-0.6c0.5-0.4,0.8-0.9,0.8-1.7h0.9l0,0.1c0,0.9-0.3,1.6-1.1,2.2
		s-1.6,0.9-2.5,0.9c-1.3,0-2.3-0.4-3-1.3c-0.7-0.9-1.1-2-1.1-3.4v-0.4c0-1.4,0.4-2.5,1.1-3.4s1.7-1.3,3-1.3c1,0,1.9,0.3,2.6,0.9
		c0.7,0.6,1,1.4,1,2.4l0,0.1h-0.9c0-0.8-0.3-1.4-0.8-1.8s-1.1-0.7-1.9-0.7c-1,0-1.8,0.4-2.3,1.1c-0.5,0.7-0.7,1.6-0.7,2.8v0.4
		c0,1.1,0.2,2,0.7,2.8S96.4,50.4,97.4,50.4z"/>
	<path fill="#010202" d="M102.6,46.2c0-1.4,0.4-2.5,1.2-3.4s1.8-1.3,3-1.3c1.3,0,2.3,0.4,3.1,1.3s1.2,2,1.2,3.4v0.3
		c0,1.4-0.4,2.6-1.1,3.4c-0.8,0.9-1.8,1.3-3,1.3c-1.3,0-2.3-0.4-3.1-1.3c-0.8-0.9-1.2-2-1.2-3.4V46.2z M103.7,46.5
		c0,1.1,0.3,2,0.8,2.8c0.6,0.8,1.3,1.1,2.3,1.1c1,0,1.7-0.4,2.3-1.1c0.6-0.7,0.8-1.7,0.8-2.8v-0.3c0-1.1-0.3-2-0.8-2.8
		s-1.3-1.1-2.3-1.1s-1.8,0.4-2.3,1.1s-0.8,1.7-0.8,2.8V46.5z"/>
	<path fill="#010202" d="M114.2,41.6l0.1,1.7c0.3-0.6,0.7-1,1.2-1.4c0.5-0.3,1.1-0.5,1.8-0.5c1,0,1.8,0.3,2.4,0.9s0.8,1.6,0.8,2.9
		v5.8h-1.1v-5.8c0-1.1-0.2-1.9-0.6-2.3c-0.4-0.5-1-0.7-1.7-0.7c-0.7,0-1.3,0.2-1.8,0.6c-0.5,0.4-0.8,0.9-1,1.6v6.6h-1.1v-9.5H114.2z
		"/>
	<path fill="#010202" d="M124.9,39.2v2.4h2.1v0.9h-2.1v6.2c0,0.6,0.1,1.1,0.3,1.3s0.5,0.4,0.9,0.4c0.2,0,0.3,0,0.5,0
		c0.2,0,0.3,0,0.6-0.1l0.2,0.8c-0.2,0.1-0.4,0.1-0.6,0.2c-0.3,0-0.5,0.1-0.8,0.1c-0.7,0-1.2-0.2-1.6-0.6s-0.6-1.1-0.6-2v-6.2h-1.6
		v-0.9h1.6v-2.4H124.9z"/>
	<path fill="#010202" d="M135.3,51.1c-0.1-0.3-0.1-0.6-0.1-0.8s0-0.5,0-0.7c-0.4,0.5-0.8,0.9-1.4,1.2s-1.2,0.5-2,0.5
		c-0.9,0-1.6-0.2-2.2-0.7s-0.8-1.2-0.8-2c0-0.9,0.4-1.6,1.1-2.1s1.8-0.8,3.1-0.8h2.1v-1.2c0-0.7-0.2-1.2-0.7-1.6s-1-0.6-1.8-0.6
		c-0.7,0-1.3,0.2-1.8,0.6c-0.5,0.4-0.7,0.8-0.7,1.4l-1,0l0-0.1c0-0.7,0.3-1.3,1-1.9s1.6-0.8,2.6-0.8c1,0,1.9,0.3,2.5,0.8
		s1,1.3,1,2.3v4.7c0,0.3,0,0.7,0.1,1s0.1,0.6,0.2,0.9H135.3z M131.8,50.4c0.8,0,1.4-0.2,2-0.5c0.6-0.4,1-0.8,1.3-1.4v-2h-2.1
		c-1,0-1.7,0.2-2.3,0.6c-0.6,0.4-0.9,0.9-0.9,1.5c0,0.5,0.2,0.9,0.5,1.3C130.7,50.2,131.2,50.4,131.8,50.4z"/>
	<path fill="#010202" d="M142.4,50.4c0.7,0,1.3-0.2,1.8-0.6c0.5-0.4,0.8-0.9,0.8-1.7h0.9l0,0.1c0,0.9-0.3,1.6-1.1,2.2
		s-1.6,0.9-2.5,0.9c-1.3,0-2.3-0.4-3-1.3c-0.7-0.9-1.1-2-1.1-3.4v-0.4c0-1.4,0.4-2.5,1.1-3.4s1.7-1.3,3-1.3c1,0,1.9,0.3,2.6,0.9
		c0.7,0.6,1,1.4,1,2.4l0,0.1h-0.9c0-0.8-0.3-1.4-0.8-1.8s-1.1-0.7-1.9-0.7c-1,0-1.8,0.4-2.3,1.1c-0.5,0.7-0.7,1.6-0.7,2.8v0.4
		c0,1.1,0.2,2,0.7,2.8S141.4,50.4,142.4,50.4z"/>
	<path fill="#010202" d="M149.9,39.2v2.4h2.1v0.9h-2.1v6.2c0,0.6,0.1,1.1,0.3,1.3s0.5,0.4,0.9,0.4c0.2,0,0.3,0,0.5,0
		c0.2,0,0.3,0,0.6-0.1l0.2,0.8c-0.2,0.1-0.4,0.1-0.6,0.2s-0.5,0.1-0.8,0.1c-0.7,0-1.2-0.2-1.6-0.6s-0.6-1.1-0.6-2v-6.2h-1.6v-0.9
		h1.6v-2.4H149.9z"/>
	<path fill="#010202" d="M168.3,51.1h-1l-7.3-11l-0.1,0v11h-1.1V38.3h1.1l7.3,11l0.1,0v-11h1V51.1z"/>
	<path fill="#010202" d="M178.9,45.1h-6.2v6h-1V38.3h8.2v0.9h-7.1v5h6.2V45.1z"/>
	<path fill="#010202" d="M190.9,47.1L190.9,47.1c-0.1,1.3-0.6,2.3-1.4,3.1s-1.9,1.1-3.2,1.1c-1.4,0-2.6-0.5-3.4-1.5
		c-0.9-1-1.3-2.4-1.3-4v-2.1c0-1.6,0.4-3,1.3-4s2-1.6,3.4-1.6c1.4,0,2.4,0.4,3.2,1.1s1.3,1.7,1.4,3l0,0.1h-1
		c-0.1-1.1-0.5-1.9-1.1-2.4c-0.6-0.6-1.4-0.8-2.5-0.8c-1.1,0-2,0.4-2.7,1.3c-0.7,0.9-1,2-1,3.3v2.1c0,1.4,0.3,2.5,1,3.4
		c0.7,0.9,1.6,1.3,2.7,1.3c1.1,0,1.9-0.3,2.5-0.8c0.6-0.5,1-1.4,1.1-2.5H190.9z"/>
</g>
</svg>
