<?xml version="1.0" encoding="utf-8"?>
<!-- Generator: Adobe Illustrator 18.0.0, SVG Export Plug-In . SVG Version: 6.00 Build 0)  -->
<!DOCTYPE svg PUBLIC "-//W3C//DTD SVG 1.1//EN" "http://www.w3.org/Graphics/SVG/1.1/DTD/svg11.dtd">
<svg version="1.1" id="Calque_1" xmlns="http://www.w3.org/2000/svg" xmlns:xlink="http://www.w3.org/1999/xlink" x="0px" y="0px"
	 viewBox="0 0 425.2 841.9" enable-background="new 0 0 425.2 841.9" xml:space="preserve">
<g>
	<path fill-rule="evenodd" clip-rule="evenodd" fill="#E5E2E2" d="M198.2,786.2c-1.3,0.1-2.8,4.9-0.6,9.7c7.8,9.8,23.5,5.9,38,10.3
		c0.3,0.1,0.6,0.2,0.9,0.3c6.9,3,13,6,19.8,9.1c12.6,5.5,32.1,0.5,39.8-5.3c2-2.5,1.8-7.1,1-8.9c-0.9-2.7-2.7-3.9-4-5.9
		c-3.9-1.8-7.7-3.6-11.6-5.4C253.5,789.5,226.4,786.9,198.2,786.2z"/>
	
		<path fill-rule="evenodd" clip-rule="evenodd" fill="#A42D55" stroke="#E62A3B" stroke-width="0.3311" stroke-miterlimit="22.9256" d="
		M200.2,750.7c0.6,1.4,1.2,2.8,1.9,4.2c0,0,0,0.7,0,0.7c-0.8,6-3.5,13.9-4.1,19.7c-0.6,5.5-0.7,9.1,0.3,14.5
		c0.4,1.1,2.2,3.5,6.2,4.6c6.4,1.8,12.9,1.5,19.5,2.6c17.5,2.9,31.4,12.6,52.6,9.2c-3.7-8.1,1.6-12.3,5-16.2
		c-12.5-3.2-24.2-8.2-34-16.5c-7.9-6.7-14.2-16.3-22-23c-1.9-1.4-3.7-2.8-5.5-4.2c-5.9-0.7-11.9-1.3-17.8-2
		C200,745.2,198.4,747,200.2,750.7z"/>
	<path fill-rule="evenodd" clip-rule="evenodd" fill="#C62A69" d="M276.1,806c-1-4.8-4-9.1-7.7-12c-16.1-9.4-33.4-12.9-40.5-38.3
		c-7.9-4-21.9,0.1-27.4-5.2c0.6,1.6,1.1,3.1,1.7,4.7c-2.5,11.6-5,20.2-4.2,32.3c0.1,0.9,0.3,1.8,0.4,2.8c0.5,0.5,0.9,1,1.4,1.5
		c1.2,0.8,2.4,1.6,3.6,2.4c1.8,0.4,3.6,0.7,5.4,1.1c4.7,0.5,9.4,1,14.2,1.4c4.1,0.9,8.2,1.9,12.3,2.8c4,1.3,8,2.6,12,3.9
		c3.9,0.9,7.7,1.8,11.6,2.8c3.6,0.2,7.3,0.5,10.9,0.7C271.8,806.6,273.9,806.3,276.1,806z"/>
	<path fill-rule="evenodd" clip-rule="evenodd" fill="#CD3155" d="M214.4,753.6c1.5-1.6,2.9-3.9,4.5-5c2.3-1.7,6.9,4.6,9,5.7
		c0.9,0.5,1.9,1.7,2.5,2.5c0.7,0.9-0.6,0.9-1.1,0.6c-2.8-1.9-3.8-2.9-7.3-3.6C220.6,753.5,214.7,754.3,214.4,753.6z"/>
	<path fill-rule="evenodd" clip-rule="evenodd" fill="#FDFDFE" d="M217.4,754.6l0.5-0.2l0,0l-0.1-0.2l-0.1-0.2l-0.1-0.2l-0.5,0.2
		l0.1,0.2l0.1,0.2L217.4,754.6L217.4,754.6L217.4,754.6z M274.3,806.1l0.3-0.5l0,0l0,0l0,0l0,0l0,0l0,0l0,0l0,0l0,0l0,0l0,0l0,0
		l0,0l0,0l0,0l0,0l0,0l0,0l0,0l0,0l0,0l0,0l0,0l0,0l0,0l0,0l-0.3,0.5l0,0l0,0l0,0l0,0l0,0l0,0l0,0l0,0l0,0l0,0l0,0l0,0l0,0l0,0l0,0
		l0,0l0,0l0,0l0,0l0,0L274.3,806.1L274.3,806.1L274.3,806.1L274.3,806.1L274.3,806.1L274.3,806.1L274.3,806.1z M273.3,805.5
		l0.3-0.5l0,0l0,0l0,0l0,0l0,0l0,0l0,0l0,0l0,0l0,0l0,0l0,0l0,0l0,0l0,0l0,0l0,0l0,0l0,0l0,0l0,0l0,0l0,0l-0.3,0.5l0,0l0,0l0,0l0,0
		l0,0l0,0l0,0l0,0l0,0l0,0l0,0l0,0l0,0l0,0l0,0l0,0l0,0L273.3,805.5L273.3,805.5L273.3,805.5L273.3,805.5L273.3,805.5L273.3,805.5
		L273.3,805.5z M272.3,804.9l0.3-0.5h0l0,0l0,0l0,0l0,0l0,0l0,0l0,0l0,0l0,0l0,0l0,0l0,0l0,0l0,0l0,0l0,0l0,0l0,0l0,0l0,0h0
		l-0.3,0.5l0,0l0,0l0,0l0,0l0,0l0,0l0,0l0,0l0,0l0,0l0,0l0,0l0,0l0,0l0,0l0,0l0,0L272.3,804.9L272.3,804.9L272.3,804.9L272.3,804.9
		L272.3,804.9L272.3,804.9z M271.3,804.2l0.3-0.5l0,0l0,0l0,0l0,0l0,0l0,0l0,0l0,0l0,0l0,0l0,0l0,0l0,0l0,0l0,0l0,0l0,0l0,0l0,0
		l0,0l-0.3,0.5l0,0l0,0l0,0l0,0l0,0l0,0l0,0l0,0l0,0l0,0l0,0l0,0l0,0l0,0l0,0L271.3,804.2L271.3,804.2L271.3,804.2L271.3,804.2
		L271.3,804.2L271.3,804.2z M270.3,803.7l0.3-0.5l0,0l0,0l0,0l0,0l0,0l0,0l0,0l0,0l0,0l0,0l0,0l0,0l0,0l0,0l0,0l0,0l0,0l0,0l0,0
		l-0.3,0.5l0,0l0,0l0,0l0,0l0,0l0,0l0,0l0,0l0,0l0,0l0,0l0,0l0,0l0,0L270.3,803.7L270.3,803.7L270.3,803.7L270.3,803.7L270.3,803.7
		L270.3,803.7z M269.3,803.1l0.3-0.5l0,0l0,0l0,0l0,0l0,0l0,0l0,0l0,0l0,0l0,0l0,0l0,0l0,0l0,0l0,0l0,0l0,0h0l-0.2,0.5l0,0l0,0l0,0
		l0,0l0,0l0,0l0,0l0,0l0,0l0,0l0,0l0,0l0,0l0,0L269.3,803.1L269.3,803.1L269.3,803.1L269.3,803.1L269.3,803.1z M268.2,802.7
		l0.2-0.5h0l0,0l0,0l0,0l0,0l0,0l0,0l0,0l0,0l0,0l-0.1,0l-0.1,0l-0.1,0l-0.2,0.6l0.1,0l0.1,0l0.1,0l0,0l0,0l0,0l0,0l0,0l0,0
		L268.2,802.7L268.2,802.7L268.2,802.7L268.2,802.7L268.2,802.7z M267.1,802.3l0.2-0.6l0,0l-0.1,0l-0.1,0l-0.1,0l-0.1,0l-0.1,0
		l-0.1,0l0,0l-0.2,0.6l0,0l0.1,0l0.1,0l0.1,0l0.1,0l0.1,0L267.1,802.3L267.1,802.3L267.1,802.3z M266,801.9l0.2-0.6l0,0l-0.1,0
		l-0.1,0l-0.1,0l-0.1,0l-0.1,0l-0.1,0l0,0l-0.2,0.6h0l0.1,0l0.1,0l0.1,0l0.1,0l0.1,0L266,801.9L266,801.9L266,801.9z M264.9,801.5
		l0.2-0.6l-0.1,0l-0.1,0l-0.1,0l-0.1,0l-0.1,0l-0.1,0l-0.1,0l-0.2,0.6l0,0l0.1,0l0.1,0l0.1,0l0.1,0L264.9,801.5L264.9,801.5
		L264.9,801.5z M263.8,801.1l0.2-0.6l0,0l-0.1,0l-0.1,0l-0.1,0l-0.1,0l-0.1,0l-0.1,0l-0.2,0.6l0.1,0l0.1,0l0.1,0l0.1,0l0.1,0
		L263.8,801.1L263.8,801.1L263.8,801.1z M262.7,800.7l0.2-0.6l0,0l-0.1,0l-0.1,0l-0.1,0l-0.1,0l-0.1,0l0,0l-0.2,0.6l0,0l0.1,0
		l0.1,0l0.1,0l0.1,0L262.7,800.7L262.7,800.7L262.7,800.7z M261.5,800.4l0.2-0.6l-0.1,0l-0.1,0l-0.1,0l-0.1,0l-0.1,0l-0.1,0
		l-0.2,0.6l0.1,0l0.1,0l0.1,0l0.1,0L261.5,800.4L261.5,800.4L261.5,800.4z M260.4,800l0.2-0.5l0,0l-0.1,0l-0.1,0l-0.1,0l-0.1,0
		l-0.1,0l0,0l-0.2,0.6l0,0l0.1,0l0.1,0l0.1,0l0.1,0L260.4,800L260.4,800L260.4,800z M259.3,799.6l0.2-0.5l0,0l-0.1,0l-0.1,0l-0.1,0
		l-0.1,0l-0.1,0l0,0l-0.2,0.5l0,0l0.1,0l0.1,0l0.1,0l0.1,0L259.3,799.6L259.3,799.6L259.3,799.6z M258.2,799.2l0.2-0.5l0,0l-0.1,0
		l-0.1,0l-0.1,0l-0.1,0l-0.1,0l0,0l-0.2,0.5l0,0l0.1,0l0.1,0l0.1,0l0.1,0L258.2,799.2L258.2,799.2L258.2,799.2z M257.1,798.7
		l0.2-0.5l0,0l-0.1,0l-0.1,0l-0.1,0l-0.1,0l-0.1,0l-0.2,0.5l0.1,0l0.1,0l0.1,0l0.1,0L257.1,798.7L257.1,798.7L257.1,798.7z
		 M256,798.3l0.2-0.6l-0.1,0l-0.1,0l-0.1,0l-0.1,0l-0.1,0l-0.1,0l-0.2,0.5l0.1,0l0.1,0l0.1,0l0.1,0L256,798.3L256,798.3L256,798.3z
		 M254.9,797.9l0.2-0.5l0,0l-0.1,0l-0.1,0l-0.1,0l-0.1,0l-0.1,0l0,0l-0.2,0.5l0,0l0.1,0l0.1,0l0.1,0l0.1,0L254.9,797.9L254.9,797.9
		L254.9,797.9z M253.8,797.4l0.2-0.5l-0.1,0l-0.1,0l-0.1,0l-0.1-0.1l-0.1,0l0,0l-0.2,0.5l0,0l0.1,0l0.1,0l0.1,0.1L253.8,797.4
		L253.8,797.4L253.8,797.4z M252.8,796.9l0.2-0.5l-0.1,0l-0.1-0.1l-0.1,0l-0.1-0.1l-0.1,0l-0.1,0l-0.2,0.5l0.1,0l0.1,0.1l0.1,0
		l0.1,0.1L252.8,796.9L252.8,796.9L252.8,796.9z M251.7,796.4l0.3-0.5l0,0l-0.1-0.1l-0.1,0l-0.1-0.1l-0.1-0.1l-0.1,0l-0.3,0.5
		l0.1,0l0.1,0l0.1,0.1l0.1,0.1L251.7,796.4L251.7,796.4L251.7,796.4z M250.6,795.9l0.3-0.5l0,0l-0.1,0l-0.1-0.1l-0.1-0.1l-0.1,0
		l-0.1,0l-0.3,0.5l0.1,0l0.1,0.1l0.1,0.1l0.1,0.1L250.6,795.9L250.6,795.9L250.6,795.9z M249.6,795.4l0.3-0.5l0,0l-0.1,0l-0.1-0.1
		l-0.1-0.1l-0.1-0.1l-0.1,0l-0.3,0.5l0.1,0l0.1,0.1l0.1,0.1l0.1,0.1L249.6,795.4L249.6,795.4L249.6,795.4z M248.5,794.8l0.3-0.5
		l0,0l-0.1-0.1l-0.1-0.1l-0.1-0.1l-0.1-0.1l-0.1,0l-0.3,0.5l0.1,0l0.1,0.1l0.1,0.1l0.1,0.1L248.5,794.8L248.5,794.8L248.5,794.8z
		 M247.5,794.3l0.3-0.5l-0.1,0l-0.1-0.1l-0.1-0.1l-0.1-0.1l-0.1-0.1l0,0L247,794l0,0l0.1,0.1l0.1,0.1l0.1,0.1L247.5,794.3
		L247.5,794.3L247.5,794.3z M246.5,793.7l0.3-0.5l-0.1-0.1l-0.1-0.1l-0.1-0.1l-0.1-0.1l-0.1-0.1l0,0l-0.3,0.5h0l0.1,0.1l0.1,0.1
		l0.1,0.1L246.5,793.7L246.5,793.7L246.5,793.7z M245.4,793.1l0.3-0.5h0l-0.1-0.1l-0.1-0.1l-0.1-0.1l-0.1-0.1l-0.1-0.1l-0.3,0.5
		l0.1,0.1l0.1,0.1l0.1,0.1l0.1,0.1L245.4,793.1L245.4,793.1L245.4,793.1z M244.4,792.4l0.3-0.5l-0.1,0l-0.1-0.1l-0.1-0.1l-0.1-0.1
		l-0.1-0.1l0,0l-0.3,0.5l0,0l0.1,0.1l0.1,0.1l0.1,0.1L244.4,792.4L244.4,792.4L244.4,792.4z M243.5,791.8l0.3-0.5l-0.1-0.1
		l-0.1-0.1l-0.1-0.1l-0.1-0.1l-0.1-0.1l-0.3,0.5l0.1,0.1l0.1,0.1l0.1,0.1L243.5,791.8L243.5,791.8L243.5,791.8z M242.5,791.1
		L242.5,791.1l-0.2-0.1l-0.1-0.1l-0.1-0.1l0,0l0.4-0.5l0,0l0.1,0.1l0.1,0.1l0.1,0.1l0,0L242.5,791.1L242.5,791.1z M241.6,790.4
		l0.4-0.5l0,0l-0.1-0.1l-0.1-0.1l-0.1-0.1l0,0l-0.4,0.5l0,0l0.1,0.1l0.1,0.1L241.6,790.4L241.6,790.4L241.6,790.4z M240.6,789.7
		l0.4-0.5l0,0l-0.1-0.1l-0.1-0.1l-0.1-0.1l-0.1-0.1l-0.4,0.5l0.1,0l0.1,0.1l0.1,0.1L240.6,789.7L240.6,789.7L240.6,789.7z
		 M239.7,788.9l0.4-0.4l-0.1-0.1l-0.1-0.1l-0.1-0.1l-0.1-0.1l-0.4,0.4l0.1,0.1l0.1,0.1l0.1,0.1L239.7,788.9L239.7,788.9z
		 M238.8,788.1l0.4-0.4l-0.1-0.1l-0.1-0.1l-0.1-0.1l-0.1-0.1l-0.4,0.4l0.1,0.1l0.1,0.1l0.1,0.1L238.8,788.1L238.8,788.1z
		 M238,787.3l0.4-0.4l-0.1-0.1l-0.1-0.1l-0.1-0.1l-0.1-0.1l-0.4,0.4l0.1,0.1l0.1,0.1L238,787.3L238,787.3L238,787.3z M237.1,786.5
		l0.4-0.4l-0.1-0.1l-0.1-0.1l-0.1-0.1l-0.1-0.1l-0.4,0.4l0.1,0.1l0.1,0.1L237.1,786.5L237.1,786.5L237.1,786.5z M236.3,785.7
		l0.4-0.4l-0.1-0.1l-0.1-0.1l-0.1-0.1l-0.1-0.1l-0.4,0.4l0.1,0.1l0.1,0.1L236.3,785.7L236.3,785.7L236.3,785.7z M235.5,784.8
		l0.4-0.4l-0.1-0.1l-0.1-0.1l-0.1-0.1l-0.1-0.1l-0.4,0.4l0.1,0.1l0.1,0.1L235.5,784.8L235.5,784.8L235.5,784.8z M234.6,783.9
		l0.4-0.4l-0.1-0.1l-0.1-0.1l-0.1-0.1l-0.1-0.1l-0.4,0.4l0.1,0.1l0.1,0.1l0.1,0.1L234.6,783.9L234.6,783.9z M233.9,783.1l0.4-0.4
		l-0.1-0.1l-0.1-0.1l-0.1-0.1l-0.1-0.1l-0.4,0.4l0.1,0.1l0.1,0.1l0.1,0.1L233.9,783.1L233.9,783.1z M233.1,782.1l0.5-0.4l0,0
		l-0.1-0.1l-0.1-0.1l-0.1-0.1l0-0.1l-0.5,0.4l0,0.1l0.1,0.1l0.1,0.1L233.1,782.1L233.1,782.1L233.1,782.1z M232.4,781.2l0.5-0.4
		l0,0l-0.1-0.1l-0.1-0.1l-0.1-0.1l0,0l-0.5,0.4l0,0l0.1,0.1l0.1,0.1L232.4,781.2L232.4,781.2L232.4,781.2z M231.6,780.3l0.5-0.4
		l0-0.1l-0.1-0.1l-0.1-0.1l-0.1-0.1h0l-0.5,0.4l0,0l0.1,0.1l0.1,0.1L231.6,780.3L231.6,780.3L231.6,780.3z M230.9,779.4l0.5-0.3
		l-0.1-0.1l-0.1-0.1l-0.1-0.1l-0.1-0.1l-0.5,0.3l0.1,0.1l0.1,0.1L230.9,779.4L230.9,779.4L230.9,779.4z M230.2,778.4l0.5-0.3
		l-0.1-0.1l-0.1-0.1l-0.1-0.1l-0.1-0.1l-0.5,0.3l0.1,0.1l0.1,0.1l0.1,0.1L230.2,778.4L230.2,778.4z M229.5,777.5l0.5-0.3l0,0
		l-0.1-0.1l-0.1-0.1l-0.1-0.1l0,0l-0.5,0.3l0,0l0.1,0.1l0.1,0.1L229.5,777.5L229.5,777.5L229.5,777.5z M228.9,776.5l0.5-0.3l0-0.1
		l-0.1-0.1l-0.1-0.1l-0.1-0.1l-0.5,0.3l0.1,0.1l0.1,0.1L228.9,776.5L228.9,776.5L228.9,776.5z M228.2,775.5l0.5-0.3l-0.1-0.1
		l-0.1-0.2l-0.1-0.1l-0.1-0.1l-0.5,0.3l0.1,0.1l0.1,0.2l0.1,0.1L228.2,775.5L228.2,775.5z M227.6,774.5l0.5-0.3l0,0l-0.1-0.2
		l-0.1-0.1l-0.1-0.2l0,0l-0.5,0.3l0,0l0.1,0.2l0.1,0.2L227.6,774.5L227.6,774.5L227.6,774.5z M226.9,773.5l0.5-0.3l-0.1-0.1
		l-0.1-0.2l-0.1-0.2l-0.1-0.1l-0.5,0.3l0.1,0.1l0.1,0.2L226.9,773.5L226.9,773.5L226.9,773.5z M226.3,772.5l0.5-0.3l-0.1-0.2
		l-0.1-0.2l-0.1-0.2l0,0L226,772l0,0l0.1,0.2l0.1,0.2L226.3,772.5L226.3,772.5z M225.7,771.5l0.5-0.3l0-0.1l-0.1-0.2l-0.1-0.2
		l-0.1-0.1l-0.5,0.3l0.1,0.1l0.1,0.2L225.7,771.5L225.7,771.5L225.7,771.5z M225.1,770.5l0.5-0.3l-0.1-0.1l-0.1-0.2l-0.1-0.2l0-0.1
		l-0.5,0.3l0,0.1l0.1,0.2l0.1,0.2L225.1,770.5L225.1,770.5z M224.5,769.5l0.5-0.3l0-0.1l-0.1-0.2l-0.1-0.2l-0.1-0.1l-0.5,0.3
		l0.1,0.1l0.1,0.2L224.5,769.5L224.5,769.5L224.5,769.5z M224,768.4l0.5-0.3l-0.1-0.2l-0.1-0.2l-0.1-0.2l0,0l-0.5,0.3l0,0l0.1,0.2
		l0.1,0.2L224,768.4L224,768.4z M223.4,767.4l0.5-0.3l0-0.1l-0.1-0.2l-0.1-0.2l-0.1-0.1l-0.5,0.3l0.1,0.1l0.1,0.2L223.4,767.4
		L223.4,767.4L223.4,767.4z M222.9,766.3l0.5-0.3l0,0l-0.1-0.2l-0.1-0.2l-0.1-0.2l0,0l-0.5,0.3l0,0l0.1,0.2l0.1,0.2L222.9,766.3
		L222.9,766.3L222.9,766.3z M222.3,765.3l0.5-0.3l-0.1-0.1l-0.1-0.2l-0.1-0.2l0-0.1l-0.5,0.3l0,0.1l0.1,0.2l0.1,0.2L222.3,765.3
		L222.3,765.3z M221.8,764.2l0.5-0.3l0,0l-0.1-0.2l-0.1-0.2l-0.1-0.2l-0.5,0.3l0.1,0.2l0.1,0.2L221.8,764.2L221.8,764.2
		L221.8,764.2z M221.3,763.2l0.5-0.3l-0.1-0.1l-0.1-0.2l-0.1-0.2l0,0l-0.5,0.3l0,0.1l0.1,0.2l0.1,0.2L221.3,763.2L221.3,763.2z
		 M220.8,762.1l0.5-0.3l0-0.1l-0.1-0.2l-0.1-0.2l-0.1-0.1l-0.5,0.3l0.1,0.1l0.1,0.2L220.8,762.1L220.8,762.1L220.8,762.1z
		 M220.3,761.1l0.5-0.2l0,0l-0.1-0.2l-0.1-0.2l-0.1-0.2v0l-0.5,0.2v0l0.1,0.2l0.1,0.2L220.3,761.1L220.3,761.1L220.3,761.1z
		 M219.8,760l0.5-0.2l-0.1-0.1l-0.1-0.2l-0.1-0.2l0-0.1l-0.5,0.2l0,0.1l0.1,0.2l0.1,0.2L219.8,760L219.8,760z M219.3,758.9l0.5-0.2
		l0-0.1l-0.1-0.2l-0.1-0.2l-0.1-0.1l-0.5,0.2l0.1,0.1l0.1,0.2L219.3,758.9L219.3,758.9L219.3,758.9z M218.8,757.8l0.5-0.2l0,0
		l-0.1-0.2l-0.1-0.2l-0.1-0.2l0,0l-0.5,0.2l0,0l0.1,0.2l0.1,0.2L218.8,757.8L218.8,757.8L218.8,757.8z M218.3,756.8l0.5-0.2
		l-0.1-0.1l-0.1-0.2l-0.1-0.2l0-0.1l-0.5,0.2l0,0.1l0.1,0.2l0.1,0.2L218.3,756.8L218.3,756.8z M218.4,755.4L218.4,755.4l-0.1-0.3
		l-0.1-0.2l-0.1-0.1l-0.5,0.2l0.1,0.1l0.1,0.2l0.1,0.2l0,0.1L218.4,755.4z"/>
	<path fill-rule="evenodd" clip-rule="evenodd" fill="#FDFDFE" d="M216.5,755.4l0.5-0.2l0,0l-0.1-0.2l-0.1-0.2l-0.1-0.2l-0.5,0.2
		l0.1,0.2l0.1,0.2L216.5,755.4L216.5,755.4L216.5,755.4z M273.4,806.9l0.3-0.5l0,0l0,0l0,0l0,0l0,0l0,0l0,0l0,0l0,0l0,0l0,0l0,0
		l0,0l0,0l0,0l0,0l0,0l0,0l0,0l0,0l0,0l0,0l0,0l0,0l0,0l0,0l-0.3,0.5l0,0l0,0l0,0l0,0l0,0l0,0l0,0l0,0l0,0l0,0l0,0l0,0l0,0l0,0l0,0
		l0,0l0,0l0,0l0,0l0,0l0,0L273.4,806.9L273.4,806.9L273.4,806.9L273.4,806.9L273.4,806.9L273.4,806.9z M272.4,806.3l0.3-0.5l0,0
		l0,0l0,0l0,0l0,0l0,0l0,0l0,0l0,0l0,0l0,0l0,0l0,0l0,0l0,0l0,0l0,0l0,0l0,0l0,0l0,0l0,0l0,0l-0.3,0.5l0,0l0,0l0,0l0,0l0,0l0,0l0,0
		l0,0l0,0l0,0l0,0l0,0l0,0l0,0l0,0l0,0l0,0L272.4,806.3L272.4,806.3L272.4,806.3L272.4,806.3L272.4,806.3L272.4,806.3L272.4,806.3z
		 M271.4,805.7l0.3-0.5l0,0l0,0l0,0l0,0l0,0l0,0l0,0l0,0l0,0l0,0l0,0l0,0l0,0l0,0l0,0l0,0l0,0l0,0l0,0l0,0l0,0h0l-0.3,0.5l0,0l0,0
		l0,0l0,0l0,0l0,0l0,0l0,0l0,0l0,0l0,0l0,0l0,0l0,0l0,0l0,0l0,0L271.4,805.7L271.4,805.7L271.4,805.7L271.4,805.7L271.4,805.7
		L271.4,805.7z M270.4,805l0.3-0.5l0,0l0,0l0,0l0,0l0,0l0,0l0,0l0,0l0,0l0,0l0,0l0,0l0,0l0,0l0,0l0,0l0,0l0,0l0,0l0,0l-0.3,0.5l0,0
		l0,0l0,0l0,0l0,0l0,0l0,0l0,0l0,0l0,0l0,0l0,0l0,0l0,0l0,0L270.4,805L270.4,805L270.4,805L270.4,805L270.4,805L270.4,805z
		 M269.4,804.5l0.3-0.5h0l0,0l0,0l0,0l0,0l0,0l0,0l0,0l0,0l0,0l0,0l0,0l0,0l0,0l0,0l0,0l0,0l0,0l0,0l-0.3,0.5l0,0l0,0l0,0l0,0l0,0
		l0,0l0,0l0,0l0,0l0,0l0,0l0,0l0,0l0,0L269.4,804.5L269.4,804.5L269.4,804.5L269.4,804.5L269.4,804.5L269.4,804.5z M268.4,803.9
		l0.3-0.5l0,0l0,0l0,0l0,0l0,0l0,0l0,0l0,0l0,0l0,0l0,0l0,0l0,0l0,0l0,0l0,0l0,0l0,0l-0.2,0.5l0,0l0,0l0,0l0,0l0,0l0,0l0,0l0,0l0,0
		l0,0l0,0l0,0l0,0l0,0L268.4,803.9L268.4,803.9L268.4,803.9L268.4,803.9L268.4,803.9z M267.3,803.5l0.2-0.5h0l0,0l0,0l0,0l0,0l0,0
		l0,0l0,0l0,0l0,0l-0.1,0l-0.1,0l-0.1,0l-0.2,0.6l0.1,0l0.1,0l0.1,0l0,0l0,0l0,0l0,0l0,0l0,0L267.3,803.5L267.3,803.5L267.3,803.5
		L267.3,803.5L267.3,803.5z M266.2,803.1l0.2-0.5l0,0l-0.1,0l-0.1,0l-0.1,0l-0.1,0l-0.1,0l-0.1,0l0,0l-0.2,0.6l0,0l0.1,0l0.1,0
		l0.1,0l0.1,0l0.1,0L266.2,803.1L266.2,803.1L266.2,803.1z M265.1,802.7l0.2-0.6l0,0l-0.1,0l-0.1,0l-0.1,0l-0.1,0l-0.1,0l-0.1,0
		l0,0l-0.2,0.6l0,0l0.1,0l0.1,0l0.1,0l0.1,0l0.1,0L265.1,802.7L265.1,802.7L265.1,802.7z M264,802.3l0.2-0.5l-0.1,0l-0.1,0l-0.1,0
		l-0.1,0l-0.1,0l-0.1,0l0,0l-0.2,0.6l0.1,0l0.1,0l0.1,0l0.1,0l0.1,0L264,802.3L264,802.3L264,802.3z M262.9,801.9l0.2-0.6l0,0
		l-0.1,0l-0.1,0l-0.1,0l-0.1,0l-0.1,0l-0.1,0l-0.2,0.6l0.1,0l0.1,0l0.1,0l0.1,0l0.1,0L262.9,801.9L262.9,801.9L262.9,801.9z
		 M261.8,801.5l0.2-0.6l0,0l-0.1,0l-0.1,0l-0.1,0l-0.1,0l-0.1,0l0,0l-0.2,0.6l0,0l0.1,0l0.1,0l0.1,0l0.1,0L261.8,801.5L261.8,801.5
		L261.8,801.5z M260.6,801.2l0.2-0.6l-0.1,0l-0.1,0l-0.1,0l-0.1,0l-0.1,0l-0.1,0l-0.2,0.6l0.1,0l0.1,0l0.1,0l0.1,0L260.6,801.2
		L260.6,801.2L260.6,801.2z M259.5,800.8l0.2-0.6l0,0l-0.1,0l-0.1,0l-0.1,0l-0.1,0l-0.1,0l0,0l-0.2,0.5l0,0l0.1,0l0.1,0l0.1,0
		l0.1,0L259.5,800.8L259.5,800.8L259.5,800.8z M258.4,800.4l0.2-0.6l0,0l-0.1,0l-0.1,0l-0.1,0l-0.1,0l-0.1,0l0,0l-0.2,0.5l0,0
		l0.1,0l0.1,0l0.1,0l0.1,0L258.4,800.4L258.4,800.4L258.4,800.4z M257.3,800l0.2-0.6l0,0l-0.1,0l-0.1,0l-0.1,0l-0.1,0l-0.1,0l0,0
		l-0.2,0.5l0,0l0.1,0l0.1,0l0.1,0l0.1,0L257.3,800L257.3,800L257.3,800z M256.2,799.5l0.2-0.5l0,0l-0.1,0l-0.1,0l-0.1,0l-0.1,0
		l-0.1,0l-0.2,0.5l0.1,0l0.1,0l0.1,0l0.1,0L256.2,799.5L256.2,799.5L256.2,799.5z M255.1,799.1l0.2-0.5l-0.1,0l-0.1,0l-0.1,0
		l-0.1,0l-0.1,0l-0.1,0l-0.2,0.5l0.1,0l0.1,0l0.1,0l0.1,0L255.1,799.1L255.1,799.1L255.1,799.1z M254,798.7l0.2-0.5l0,0l-0.1,0
		l-0.1,0l-0.1,0l-0.1,0l-0.1,0h0l-0.2,0.5l0,0l0.1,0l0.1,0l0.1,0l0.1,0L254,798.7L254,798.7L254,798.7z M252.9,798.2l0.2-0.5
		l-0.1,0l-0.1,0l-0.1,0l-0.1,0l-0.1,0l0,0l-0.2,0.5l0,0l0.1,0l0.1,0l0.1,0L252.9,798.2L252.9,798.2L252.9,798.2z M251.9,797.7
		l0.2-0.5l-0.1,0l-0.1,0l-0.1-0.1l-0.1,0l-0.1-0.1l-0.1,0l-0.2,0.5l0.1,0l0.1,0l0.1,0l0.1,0L251.9,797.7L251.9,797.7L251.9,797.7z
		 M250.8,797.2l0.3-0.5l0,0l-0.1-0.1l-0.1-0.1l-0.1,0l-0.1,0l-0.1,0l-0.3,0.5l0.1,0l0.1,0.1l0.1,0.1l0.1,0.1L250.8,797.2
		L250.8,797.2L250.8,797.2z M249.7,796.7l0.3-0.5l0,0l-0.1-0.1l-0.1-0.1l-0.1,0l-0.1-0.1l-0.1,0l-0.3,0.5l0.1,0l0.1,0.1l0.1,0.1
		l0.1,0L249.7,796.7L249.7,796.7L249.7,796.7z M248.7,796.2l0.3-0.5l0,0l-0.1-0.1l-0.1-0.1l-0.1-0.1l-0.1-0.1l-0.1,0l-0.3,0.5
		l0.1,0l0.1,0.1l0.1,0.1l0.1,0.1L248.7,796.2L248.7,796.2L248.7,796.2z M247.6,795.7l0.3-0.5l0,0l-0.1-0.1l-0.1-0.1l-0.1-0.1
		l-0.1-0.1l-0.1,0l-0.3,0.5l0.1,0l0.1,0.1l0.1,0.1l0.1,0.1L247.6,795.7L247.6,795.7L247.6,795.7z M246.6,795.1l0.3-0.5l-0.1,0
		l-0.1-0.1l-0.1-0.1l-0.1-0.1l-0.1-0.1l0,0l-0.3,0.5l0,0l0.1,0.1l0.1,0.1l0.1,0.1L246.6,795.1L246.6,795.1L246.6,795.1z
		 M245.6,794.5l0.3-0.5l-0.1,0l-0.1-0.1l-0.1-0.1l-0.1-0.1l-0.1-0.1l0,0l-0.3,0.5l0,0l0.1,0.1l0.1,0.1l0.1,0.1L245.6,794.5
		L245.6,794.5L245.6,794.5z M244.5,793.9l0.3-0.5l0,0l-0.1-0.1l-0.1-0.1l-0.1-0.1l-0.1-0.1l-0.1,0l-0.3,0.5l0.1,0l0.1,0.1l0.1,0.1
		l0.1,0.1L244.5,793.9L244.5,793.9L244.5,793.9z M243.6,793.2l0.3-0.5l-0.1,0l-0.1-0.1l-0.1-0.1l-0.1-0.1l-0.1-0.1l0,0l-0.3,0.5
		l0,0l0.1,0.1l0.1,0.1l0.1,0.1L243.6,793.2L243.6,793.2L243.6,793.2z M242.6,792.6l0.3-0.5l-0.1-0.1l-0.1-0.1l-0.1-0.1l-0.1-0.1
		l-0.1-0.1l-0.3,0.5l0.1,0.1l0.1,0.1l0.1,0.1L242.6,792.6L242.6,792.6L242.6,792.6z M241.6,791.9L241.6,791.9l-0.2-0.1l-0.1-0.1
		l-0.1-0.1l0,0l0.4-0.5l0,0l0.1,0.1l0.1,0.1l0.1,0.1l0,0L241.6,791.9L241.6,791.9z M240.7,791.2l0.4-0.5l0,0l-0.1-0.1l-0.1-0.1
		l-0.1-0.1l0,0l-0.4,0.5l0,0l0.1,0.1l0.1,0.1L240.7,791.2L240.7,791.2L240.7,791.2z M239.7,790.5l0.4-0.5l0,0l-0.1-0.1l-0.1-0.1
		l-0.1-0.1l-0.1,0l-0.4,0.4l0.1,0.1l0.1,0.1l0.1,0.1L239.7,790.5L239.7,790.5L239.7,790.5z M238.8,789.7l0.4-0.5l-0.1-0.1L239,789
		l-0.1-0.1l-0.1-0.1l-0.4,0.4l0.1,0.1l0.1,0.1l0.1,0.1L238.8,789.7L238.8,789.7z M237.9,788.9l0.4-0.4l-0.1-0.1l-0.1-0.1l-0.1-0.1
		l-0.1-0.1l-0.4,0.4l0.1,0.1l0.1,0.1l0.1,0.1L237.9,788.9L237.9,788.9z M237.1,788.1l0.4-0.4l-0.1-0.1l-0.1-0.1l-0.1-0.1l-0.1-0.1
		l-0.4,0.4l0.1,0.1l0.1,0.1L237.1,788.1L237.1,788.1L237.1,788.1z M236.2,787.3l0.4-0.4l-0.1-0.1l-0.1-0.1l-0.1-0.1l-0.1-0.1
		l-0.4,0.4l0.1,0.1l0.1,0.1L236.2,787.3L236.2,787.3L236.2,787.3z M235.4,786.5l0.4-0.4l-0.1-0.1l-0.1-0.1l-0.1-0.1l-0.1-0.1
		L235,786l0.1,0.1l0.1,0.1L235.4,786.5L235.4,786.5L235.4,786.5z M234.6,785.6l0.4-0.4l-0.1-0.1l-0.1-0.1l-0.1-0.1l-0.1-0.1
		l-0.4,0.4l0.1,0.1l0.1,0.1l0.1,0.1L234.6,785.6L234.6,785.6z M233.8,784.7l0.4-0.4l-0.1-0.1l-0.1-0.1l-0.1-0.1l-0.1-0.1l-0.4,0.4
		l0.1,0.1l0.1,0.1l0.1,0.1L233.8,784.7L233.8,784.7z M233,783.9l0.4-0.4l-0.1-0.1l-0.1-0.1l-0.1-0.1L233,783l-0.4,0.4l0.1,0.1
		l0.1,0.1l0.1,0.1L233,783.9L233,783.9z M232.2,783l0.5-0.4l0,0l-0.1-0.1l-0.1-0.1l-0.1-0.1l0,0l-0.5,0.4l0,0.1l0.1,0.1l0.1,0.1
		L232.2,783L232.2,783L232.2,783z M231.5,782l0.5-0.4l0,0l-0.1-0.1l-0.1-0.1l-0.1-0.1l0,0l-0.5,0.4l0,0l0.1,0.1l0.1,0.1L231.5,782
		L231.5,782L231.5,782z M230.7,781.1l0.5-0.4l0-0.1l-0.1-0.1l-0.1-0.1l-0.1-0.1l0,0l-0.5,0.4l0,0l0.1,0.1l0.1,0.1L230.7,781.1
		L230.7,781.1L230.7,781.1z M230,780.2l0.5-0.4l-0.1-0.1l-0.1-0.1l-0.1-0.1l-0.1-0.1l-0.5,0.4l0.1,0.1l0.1,0.1L230,780.2L230,780.2
		L230,780.2z M229.3,779.2l0.5-0.3l-0.1-0.1l-0.1-0.1l-0.1-0.1l-0.1-0.1l-0.5,0.3l0.1,0.1l0.1,0.1l0.1,0.1L229.3,779.2L229.3,779.2
		z M228.6,778.3l0.5-0.3l0,0l-0.1-0.1l-0.1-0.1l-0.1-0.1l0,0l-0.5,0.3l0,0l0.1,0.1l0.1,0.1L228.6,778.3L228.6,778.3L228.6,778.3z
		 M228,777.3l0.5-0.3l0-0.1l-0.1-0.1l-0.1-0.1l-0.1-0.1l-0.5,0.3l0.1,0.1l0.1,0.1L228,777.3L228,777.3L228,777.3z M227.3,776.3
		l0.5-0.3l-0.1-0.1l-0.1-0.1l-0.1-0.1l-0.1-0.1l-0.5,0.3l0.1,0.1l0.1,0.1l0.1,0.2L227.3,776.3L227.3,776.3z M226.7,775.3l0.5-0.3
		l0,0l-0.1-0.1l-0.1-0.2l-0.1-0.2l0,0l-0.5,0.3l0,0l0.1,0.2l0.1,0.2L226.7,775.3L226.7,775.3L226.7,775.3z M226,774.3l0.5-0.3
		l-0.1-0.1l-0.1-0.2l-0.1-0.2l-0.1-0.1l-0.5,0.3l0.1,0.1l0.1,0.2L226,774.3L226,774.3L226,774.3z M225.4,773.3l0.5-0.3l-0.1-0.2
		l-0.1-0.2l-0.1-0.2l0,0l-0.5,0.3l0,0l0.1,0.2l0.1,0.2L225.4,773.3L225.4,773.3z M224.8,772.3l0.5-0.3l0-0.1l-0.1-0.2l-0.1-0.2
		l-0.1-0.1l-0.5,0.3l0.1,0.1l0.1,0.2L224.8,772.3L224.8,772.3L224.8,772.3z M224.2,771.3l0.5-0.3l-0.1-0.1l-0.1-0.2l-0.1-0.2l0-0.1
		l-0.5,0.3l0,0.1l0.1,0.2l0.1,0.2L224.2,771.3L224.2,771.3z M223.6,770.3l0.5-0.3l0-0.1l-0.1-0.2l-0.1-0.2l-0.1-0.1l-0.5,0.3
		l0.1,0.1l0.1,0.2L223.6,770.3L223.6,770.3L223.6,770.3z M223.1,769.2l0.5-0.3l-0.1-0.2l-0.1-0.2l-0.1-0.2l0,0l-0.5,0.3l0,0
		l0.1,0.2l0.1,0.2L223.1,769.2L223.1,769.2z M222.5,768.2l0.5-0.3l0-0.1l-0.1-0.2l-0.1-0.2l-0.1-0.1l-0.5,0.3l0.1,0.1l0.1,0.2
		L222.5,768.2L222.5,768.2L222.5,768.2z M222,767.1l0.5-0.3l0,0l-0.1-0.2l-0.1-0.2l-0.1-0.2l0,0l-0.5,0.3l0,0l0.1,0.2l0.1,0.2
		L222,767.1L222,767.1L222,767.1z M221.4,766.1l0.5-0.3l-0.1-0.1l-0.1-0.2l-0.1-0.2l0-0.1l-0.5,0.3l0,0.1l0.1,0.2l0.1,0.2
		L221.4,766.1L221.4,766.1z M220.9,765l0.5-0.3l0,0l-0.1-0.2l-0.1-0.2l-0.1-0.2l-0.5,0.3l0.1,0.2l0.1,0.2L220.9,765L220.9,765
		L220.9,765z M220.4,764l0.5-0.3l-0.1-0.1l-0.1-0.2l-0.1-0.2l0-0.1l-0.5,0.3l0,0.1l0.1,0.2l0.1,0.2L220.4,764L220.4,764z
		 M219.9,762.9l0.5-0.3l0-0.1l-0.1-0.2l-0.1-0.2l-0.1-0.1l-0.5,0.3l0.1,0.1l0.1,0.2L219.9,762.9L219.9,762.9L219.9,762.9z
		 M219.4,761.9l0.5-0.2l0,0l-0.1-0.2l-0.1-0.2l-0.1-0.2l0,0l-0.5,0.2l0,0l0.1,0.2l0.1,0.2L219.4,761.9L219.4,761.9L219.4,761.9z
		 M218.9,760.8l0.5-0.2l-0.1-0.1l-0.1-0.2l-0.1-0.2l0-0.1l-0.5,0.2l0,0.1l0.1,0.2l0.1,0.2L218.9,760.8L218.9,760.8z M218.4,759.7
		l0.5-0.2l0-0.1l-0.1-0.2l-0.1-0.2l-0.1-0.1l-0.5,0.2l0.1,0.1l0.1,0.2L218.4,759.7L218.4,759.7L218.4,759.7z M217.9,758.6l0.5-0.2
		l0,0l-0.1-0.2l-0.1-0.2l-0.1-0.2l0,0l-0.5,0.2l0,0l0.1,0.2l0.1,0.2L217.9,758.6L217.9,758.6L217.9,758.6z M217.4,757.6l0.5-0.2
		l-0.1-0.1l-0.1-0.2l-0.1-0.2l0-0.1l-0.5,0.2l0,0.1l0.1,0.2l0.1,0.2L217.4,757.6L217.4,757.6z M217.5,756.2L217.5,756.2l-0.1-0.3
		l-0.1-0.2l-0.1-0.1l-0.5,0.2l0.1,0.1l0.1,0.2l0.1,0.2l0,0.1L217.5,756.2z"/>
	<path fill-rule="evenodd" clip-rule="evenodd" fill="#FDFDFE" d="M227.5,755.3c-1.4-0.8-2,0.5-2.9,1.3c-0.6,0.6-1.4,1.6-1,2.6
		c0.5,1,2.9-1.4,3.3-1.6c0.5-0.3,0.7-1,1-1.4C228.4,755.5,227.5,755.4,227.5,755.3z"/>
	<path fill-rule="evenodd" clip-rule="evenodd" fill="#E4E3E4" d="M230.5,754c2.5,1.6,0.6,3.9,0.4,5.9c-0.1,1.2,0.2,3.4,1.7,2.4
		c1.6-1.1,2.5-4.8,0.7-6C232.5,755.8,231.6,754.1,230.5,754z"/>
	<path fill-rule="evenodd" clip-rule="evenodd" fill="#FDFDFE" d="M236.2,763.6c-0.4,0.5-0.9,2.3-1.2,2.5c-0.5,0.2-1.4,0.1-2.1,0.3
		c-0.7,0.2-3.1,1.1-3.5,0.8c-0.6-0.5-1.2-0.9-1.7-1.2c-1.3-0.8,3.7-2.4,4.2-2.5C233.5,763.2,234.6,763,236.2,763.6z"/>
	<path fill-rule="evenodd" clip-rule="evenodd" fill="#E4E3E4" d="M236.4,761.5c0.3,2.3-0.9,2.9-1.5,4.7c-0.5,1.5-0.4,1.5,0.5,2.6
		c1.4,1.8,2.7-2.9,2.9-4c0.1-0.7-0.1-1.4-0.4-2.1C237.5,762.1,236.6,761.8,236.4,761.5z"/>
	<path fill-rule="evenodd" clip-rule="evenodd" fill="#FDFDFE" d="M239.7,771.3c0,0.7-0.4,1.6-1.1,1.8c-1.7,0.6-3.1,1.4-4.8,2
		c-0.9,0.3-1.4-0.7-1.6-1.5c-0.3-0.9-0.6-0.7,0.4-1.4C235,770.6,237.3,770,239.7,771.3z"/>
	<path fill-rule="evenodd" clip-rule="evenodd" fill="#E4E3E4" d="M241,767.5c-0.1,0.5-2.2,6.2-1.9,6.8c0.5,0.7,1.6,2.2,2.2,1.3
		C242.4,773.8,243.6,768.1,241,767.5z"/>
	<path fill-rule="evenodd" clip-rule="evenodd" fill="#FDFDFE" d="M249.9,778.4c-2.1-1.3-2.4-2.9-4.9-2.5c-2.7,0.4-5.4,1.4-7.6,2.6
		c-1,0.6,0.3,1,0.3,1.8c0.1,1.5,2.3-0.1,3.1-0.4C244,778.5,246.8,778.9,249.9,778.4z"/>
	<path fill-rule="evenodd" clip-rule="evenodd" fill="#FDFDFE" d="M250.6,779.3c-0.4,0.9-0.6,1.9-1.3,2.5c-0.7,0.6-4.3,4.6-5.3,4.1
		c-0.5-0.2-1.9-0.7-1.9-1.1c0-0.8,3.4-3.9,4.1-4.4C247.9,779.3,248.9,779.7,250.6,779.3z"/>
	<path fill-rule="evenodd" clip-rule="evenodd" fill="#E4E3E4" d="M250.4,776.3c0.3,1.8,0,3-0.2,4.7c-0.1,0.9-0.9,2.7,0.3,3.2
		c3.2,1.3,2.3-3.4,2.4-5.2C253,777.7,251.4,776.2,250.4,776.3z"/>
	<path fill-rule="evenodd" clip-rule="evenodd" fill="#FDFDFE" d="M248.4,788.6c1.5-2.4,3.8-4.3,6.3-5.3c0.4-0.2,1.4-0.4,1.9-0.3
		c0.9,0.2,0.2,2.6,0.1,2.6c-2.2,0.9-3.4,2.6-5.3,3.9C250.8,789.8,248.4,789.2,248.4,788.6z"/>
	<path fill-rule="evenodd" clip-rule="evenodd" fill="#FDFDFE" d="M255.6,792.7c-0.3-1.9,5.2-5.2,6.7-5.4c0.9-0.1,1.5-0.3,2.4,0
		c1.3,0.5,1.4,0.5,0.9,1.7c-0.2,0.5-0.6,1.4-1.2,1.5c-1.5,0.2-3.1-0.1-4.2,1c-0.5,0.5-1.9,2.6-2.7,1.6
		C257.1,792.7,256,793.2,255.6,792.7z"/>
	<path fill-rule="evenodd" clip-rule="evenodd" fill="#FDFDFE" d="M269.9,784.8c-2.1,3-4.9,5.6-6.5,9.1c-0.2,0.5-1.1,1.7-0.6,2.2
		c0.3,0.5,2.3,0.7,2.6,0.1c1.2-2.4,2.5-5.7,4.2-7.7c0.5-0.5,2.3-2,1.9-2.8C271.3,785.3,270.1,785,269.9,784.8z"/>
	<path fill-rule="evenodd" clip-rule="evenodd" fill="#C73161" d="M196.8,786.8c-0.4,1.4,0.6,3.3,2.8,5c1.8,1.3,4.3,2.6,7.7,3.4
		c3,0.8,6.6,1.1,10.4,1.5c4.1,0.4,8.3,0.8,12.1,1.8c4.8,1.2,9.2,2.8,13.2,4.2c5.4,1.9,10.2,3.7,14.7,4c6.1,0.5,14.8,0.6,22.1-0.4
		c4-0.5,7.6-1.4,10.2-2.8c2.8-1.5,4.5-3.4,4.3-6.1c0-0.6-0.2-1.3-0.4-2l-1.5,0.5c0.2,0.6,0.3,1.1,0.3,1.5c0.1,2-1.3,3.5-3.5,4.7
		c-2.4,1.3-5.9,2.1-9.7,2.6c-7.2,1-15.7,0.8-21.7,0.3c-4.2-0.3-9-2-14.3-3.9c-4.1-1.5-8.5-3-13.3-4.3c-3.9-1-8.3-1.4-12.4-1.8
		c-3.7-0.4-7.3-0.7-10.2-1.5c-3.1-0.8-5.5-2-7.1-3.2c-1.7-1.3-2.5-2.5-2.3-3.3L196.8,786.8z"/>
	<path fill-rule="evenodd" clip-rule="evenodd" fill="#E4E3E4" d="M154.8,798.2c-1.4,0-3.4,5.2-1.3,10.7c0.5,3.2,43.9,19,63.4,25.2
		c13.5,6.8,35.3,2.6,44.1-3.4c2.4-2.6,2.4-7.6,1.6-9.7c-0.9-3-2.7-4.5-4.1-6.7c-4.1-2.2-8.3-4.5-12.4-6.7
		C215.4,805.2,185.7,800.7,154.8,798.2z"/>
	
		<path fill-rule="evenodd" clip-rule="evenodd" fill="#E7227D" stroke="#E62A3B" stroke-width="0.3311" stroke-miterlimit="22.9256" d="
		M159.1,759.3c0.6,1.6,1.2,3.1,1.8,4.7c0,0,0,0.7-0.1,0.7c-1.3,6.6-4.7,15-5.7,21.4c-1,6-1.4,10-0.6,16c0.3,1.2,2.2,4,6.5,5.5
		c6.9,2.4,14.1,2.5,21.3,4.1c19,4.2,33.8,15.8,57.3,13.4c-3.5-9.1,2.5-13.4,6.5-17.5c-13.6-4.3-26.1-10.5-36.4-20.2
		c-8.3-7.8-14.6-18.8-22.8-26.7c-1.9-1.6-3.9-3.3-5.8-4.9c-6.5-1.1-13-2.2-19.4-3.3C159.2,753.2,157.3,755.2,159.1,759.3z"/>
	<path fill-rule="evenodd" clip-rule="evenodd" fill="#E7227D" d="M239.1,824.7c-0.8-5.3-3.9-10.3-7.7-13.7
		c-17.1-11.4-36-16.3-42.2-44.6c-8.4-4.8-24.1-1.2-29.8-7.4c0.5,1.8,1.1,3.5,1.6,5.3c-3.5,12.6-6.7,21.9-6.6,35.2
		c0.1,1,0.2,2,0.3,3.1c4.3,5.4,32.3,14.9,53.9,19.8c10.6,2.4,19.4,2.4,23.5,2.9C234.4,825.1,236.8,824.9,239.1,824.7z"/>
	<path fill-rule="evenodd" clip-rule="evenodd" fill="#CD3155" d="M174.5,763.3c1.8-1.7,3.4-4.1,5.2-5.3c2.7-1.7,7.3,5.5,9.5,6.8
		c0.9,0.6,2,2,2.6,2.9c0.7,1-0.8,0.9-1.2,0.5c-2.9-2.3-4.1-3.4-7.8-4.4C181.4,763.6,174.8,764.1,174.5,763.3z"/>
	<path fill-rule="evenodd" clip-rule="evenodd" fill="#FDFDFE" d="M177.8,764.6l0.6-0.2l0,0l-0.1-0.2l-0.1-0.2l-0.1-0.2l-0.6,0.2
		l0.1,0.2l0.1,0.2L177.8,764.6L177.8,764.6L177.8,764.6z M237.2,824.7l0.3-0.6l0,0l0,0l0,0l0,0l0,0l0,0l0,0l0,0l0,0l0,0l0,0l0,0
		l0,0l0,0l0,0l0,0l0,0l0,0l0,0l0,0l0,0l0,0l0,0l0,0l0,0l0,0l-0.3,0.5h0l0,0l0,0l0,0l0,0l0,0l0,0l0,0l0,0l0,0l0,0l0,0l0,0l0,0l0,0
		l0,0l0,0l0,0l0,0l0,0l0,0L237.2,824.7L237.2,824.7L237.2,824.7L237.2,824.7L237.2,824.7L237.2,824.7z M236.1,824l0.4-0.5l0,0l0,0
		l0,0l0,0l0,0l0,0l0,0l0,0l0,0l0,0l0,0l0,0l0,0l0,0l0,0l0,0l0,0l0,0l0,0l0,0l0,0l0,0l0,0l-0.4,0.5l0,0l0,0l0,0l0,0l0,0l0,0l0,0l0,0
		l0,0l0,0l0,0l0,0l0,0l0,0l0,0l0,0l0,0l0,0L236.1,824L236.1,824L236.1,824L236.1,824L236.1,824L236.1,824z M235.1,823.3l0.4-0.5
		l0,0l0,0l0,0l0,0l0,0l0,0l0,0l0,0l0,0l0,0l0,0l0,0l0,0l0,0l0,0l0,0l0,0l0,0l0,0l0,0l0,0h0l-0.4,0.5h0l0,0l0,0l0,0l0,0l0,0l0,0l0,0
		l0,0l0,0l0,0l0,0l0,0l0,0l0,0l0,0l0,0L235.1,823.3L235.1,823.3L235.1,823.3L235.1,823.3L235.1,823.3L235.1,823.3z M234,822.5
		l0.4-0.5l0,0l0,0l0,0l0,0l0,0l0,0l0,0l0,0l0,0l0,0l0,0l0,0l0,0l0,0l0,0l0,0l0,0l0,0l0,0l0,0l-0.4,0.5l0,0l0,0l0,0l0,0l0,0l0,0l0,0
		l0,0l0,0l0,0l0,0l0,0l0,0l0,0l0,0L234,822.5L234,822.5L234,822.5L234,822.5L234,822.5L234,822.5z M232.9,821.8l0.3-0.5h0l0,0l0,0
		l0,0l0,0l0,0l0,0l0,0l0,0l0,0l0,0l0,0l0,0l0,0l0,0l0,0l0,0l0,0l0,0l-0.3,0.6l0,0l0,0l0,0l0,0l0,0l0,0l0,0l0,0l0,0l0,0l0,0l0,0l0,0
		l0,0L232.9,821.8L232.9,821.8L232.9,821.8L232.9,821.8L232.9,821.8L232.9,821.8z M231.8,821.2l0.3-0.6l0,0l0,0l0,0l0,0l0,0l0,0
		l0,0l0,0l0,0l0,0l0,0l0,0l0,0l0,0l0,0l0,0l0,0l0,0l-0.3,0.6l0,0l0,0l0,0l0,0l0,0l0,0l0,0l0,0l0,0l0,0l0,0l0,0l0,0l0,0L231.8,821.2
		L231.8,821.2L231.8,821.2L231.8,821.2L231.8,821.2z M230.7,820.6l0.3-0.6l0,0l0,0l0,0l0,0l0,0l0,0l0,0l0,0l0,0l0,0l-0.1,0l-0.1,0
		l-0.1,0l-0.3,0.6l0.1,0l0.1,0l0.1,0l0,0l0,0l0,0l0,0l0,0l0,0L230.7,820.6L230.7,820.6L230.7,820.6L230.7,820.6L230.7,820.6z
		 M229.5,820.1l0.3-0.6l0,0l-0.1,0l-0.1,0l-0.1,0l-0.1,0l-0.1,0l-0.1,0l0,0l-0.2,0.6l0,0l0.1,0l0.1,0l0.1,0l0.1,0l0.1,0
		L229.5,820.1L229.5,820.1L229.5,820.1z M228.3,819.6l0.2-0.6l0,0l-0.1,0l-0.1,0l-0.1,0l-0.1,0l-0.1,0l-0.1,0l0,0l-0.2,0.6l0,0
		l0.1,0l0.1,0l0.1,0l0.1,0l0.1,0L228.3,819.6L228.3,819.6L228.3,819.6z M227.1,819.1l0.2-0.6l-0.1,0l-0.1,0l-0.1,0l-0.1,0l-0.1,0
		l-0.1,0l-0.1,0l-0.2,0.6l0.1,0l0.1,0l0.1,0l0.1,0l0.1,0L227.1,819.1L227.1,819.1L227.1,819.1z M225.9,818.6l0.2-0.6l0,0l-0.1,0
		l-0.1,0l-0.1,0l-0.1,0l-0.1,0l-0.1,0l-0.2,0.6l0.1,0l0.1,0l0.1,0l0.1,0l0.1,0L225.9,818.6L225.9,818.6L225.9,818.6z M224.7,818.1
		l0.2-0.6l0,0l-0.1,0l-0.1,0l-0.1,0l-0.1,0l-0.1,0l0,0l-0.2,0.6l0,0l0.1,0l0.1,0l0.1,0l0.1,0L224.7,818.1L224.7,818.1L224.7,818.1z
		 M223.5,817.6l0.2-0.6l-0.1,0l-0.1,0l-0.1,0l-0.1,0l-0.1,0l-0.1,0l-0.2,0.6l0.1,0l0.1,0l0.1,0l0.1,0L223.5,817.6L223.5,817.6
		L223.5,817.6z M222.3,817.1l0.3-0.6l0,0l-0.1,0l-0.1,0l-0.1,0l-0.1-0.1l-0.1,0l0,0l-0.3,0.6l0,0l0.1,0l0.1,0l0.1,0l0.1,0
		L222.3,817.1L222.3,817.1L222.3,817.1z M221.1,816.6l0.3-0.6l0,0l-0.1,0l-0.1,0l-0.1,0l-0.1-0.1l-0.1,0l0,0l-0.3,0.6l0,0l0.1,0
		l0.1,0l0.1,0.1l0.1,0L221.1,816.6L221.1,816.6L221.1,816.6z M220,816.1l0.3-0.6l0,0l-0.1,0l-0.1-0.1l-0.1,0l-0.1-0.1l-0.1,0l0,0
		l-0.3,0.6l0,0l0.1,0.1l0.1,0.1l0.1,0l0.1,0.1L220,816.1L220,816.1L220,816.1z M218.8,815.6l0.3-0.6l0,0l-0.1-0.1l-0.1-0.1
		l-0.1-0.1l-0.1,0l-0.1-0.1l-0.3,0.6l0.1,0.1l0.1,0l0.1,0.1l0.1,0.1L218.8,815.6L218.8,815.6L218.8,815.6z M217.6,815.1l0.3-0.6
		l-0.1,0l-0.1-0.1l-0.1-0.1l-0.1-0.1l-0.1-0.1l-0.1,0l-0.3,0.6l0.1,0l0.1,0.1l0.1,0.1l0.1,0.1L217.6,815.1L217.6,815.1L217.6,815.1
		z M216.4,814.5l0.3-0.6l0,0l-0.1-0.1l-0.1-0.1l-0.1-0.1l-0.1,0l-0.1-0.1h0l-0.3,0.6l0,0l0.1,0.1l0.1,0.1l0.1,0.1l0.1,0.1
		L216.4,814.5L216.4,814.5L216.4,814.5z M215.2,813.9l0.3-0.6l-0.1,0l-0.1-0.1l-0.1-0.1l-0.1-0.1l-0.1-0.1l0,0l-0.3,0.6l0,0
		l0.1,0.1l0.1,0.1l0.1,0.1L215.2,813.9L215.2,813.9L215.2,813.9z M214.1,813.4l0.3-0.6l-0.1,0l-0.1-0.1l-0.1-0.1l-0.1-0.1l-0.1-0.1
		l-0.1,0l-0.3,0.6l0.1,0l0.1,0.1l0.1,0.1l0.1,0.1L214.1,813.4L214.1,813.4L214.1,813.4z M212.9,812.7l0.3-0.6l0,0l-0.1-0.1L213,812
		l-0.1-0.1l-0.1-0.1l-0.1,0l-0.3,0.6l0.1,0l0.1,0.1l0.1,0.1l0.1,0.1L212.9,812.7L212.9,812.7L212.9,812.7z M211.8,812.1l0.3-0.6
		l0,0l-0.1-0.1l-0.1-0.1l-0.1-0.1l-0.1-0.1l-0.1-0.1l-0.3,0.6l0.1,0.1l0.1,0.1l0.1,0.1l0.1,0.1L211.8,812.1L211.8,812.1
		L211.8,812.1z M210.7,811.5l0.3-0.6l0,0l-0.1-0.1l-0.1-0.1l-0.1-0.1l-0.1-0.1l-0.1-0.1l-0.3,0.6l0.1,0l0.1,0.1l0.1,0.1l0.1,0.1
		L210.7,811.5L210.7,811.5L210.7,811.5z M209.5,810.8l0.3-0.6l0,0l-0.1-0.1l-0.1-0.1l-0.1-0.1l-0.1-0.1l-0.1,0l-0.3,0.6l0.1,0
		l0.1,0.1l0.1,0.1l0.1,0.1L209.5,810.8L209.5,810.8L209.5,810.8z M208.4,810.1l0.3-0.5l-0.1,0l-0.1-0.1l-0.1-0.1l-0.1-0.1l-0.1-0.1
		l0,0l-0.4,0.5l0,0l0.1,0.1l0.1,0.1l0.1,0.1L208.4,810.1L208.4,810.1L208.4,810.1z M207.3,809.4l0.4-0.5l-0.1-0.1l-0.1-0.1
		l-0.1-0.1l-0.1-0.1l-0.1-0.1l0,0l-0.4,0.5l0,0l0.1,0.1l0.1,0.1l0.1,0.1L207.3,809.4L207.3,809.4L207.3,809.4z M206.3,808.7
		l0.4-0.5l0,0l-0.1-0.1l-0.1-0.1l-0.1-0.1l-0.1-0.1l-0.1-0.1l-0.4,0.5l0.1,0.1l0.1,0.1l0.1,0.1l0.1,0.1L206.3,808.7L206.3,808.7
		L206.3,808.7z M205.2,807.9l0.4-0.5l-0.1,0l-0.1-0.1l-0.1-0.1l-0.1-0.1l-0.1-0.1l0,0l-0.4,0.5l0,0l0.1,0.1l0.1,0.1l0.1,0.1
		L205.2,807.9L205.2,807.9L205.2,807.9z M204.2,807.1l0.4-0.5l-0.1-0.1l-0.1-0.1l-0.1-0.1l-0.1-0.1l-0.1-0.1l-0.4,0.5l0.1,0.1
		l0.1,0.1l0.1,0.1L204.2,807.1L204.2,807.1L204.2,807.1z M203.2,806.3L203.2,806.3l-0.2-0.2l-0.1-0.1l-0.1-0.1l0,0l0.4-0.5l0,0
		l0.1,0.1l0.1,0.1l0.1,0.1l0.1,0L203.2,806.3L203.2,806.3z M202.2,805.5l0.4-0.5l0,0l-0.1-0.1l-0.1-0.1l-0.1-0.1l-0.1,0l-0.4,0.5
		l0.1,0l0.1,0.1l0.1,0.1L202.2,805.5L202.2,805.5L202.2,805.5z M201.2,804.6l0.4-0.5l0,0l-0.1-0.1l-0.1-0.1l-0.1-0.1l-0.1-0.1
		l-0.4,0.5l0.1,0.1l0.1,0.1l0.1,0.1L201.2,804.6L201.2,804.6L201.2,804.6z M200.2,803.7l0.4-0.5l-0.1-0.1l-0.1-0.1l-0.1-0.1
		l-0.1-0.1l-0.4,0.5l0.1,0.1l0.1,0.1l0.1,0.1L200.2,803.7L200.2,803.7z M199.3,802.8l0.5-0.5l-0.1-0.1l-0.1-0.1l-0.1-0.1l-0.1-0.1
		l-0.5,0.5l0.1,0.1l0.1,0.1l0.1,0.1L199.3,802.8L199.3,802.8z M198.4,801.9l0.5-0.4l-0.1-0.1l-0.1-0.1l-0.1-0.1l-0.1-0.1l-0.5,0.4
		l0.1,0.1l0.1,0.1l0.1,0.1L198.4,801.9L198.4,801.9z M197.5,800.9l0.5-0.4l-0.1-0.1l-0.1-0.1l-0.1-0.1l-0.1-0.1l-0.5,0.4l0.1,0.1
		l0.1,0.1l0.1,0.1L197.5,800.9L197.5,800.9z M196.6,800l0.5-0.4l-0.1-0.1l-0.1-0.1l-0.1-0.1l-0.1-0.1l-0.5,0.4l0.1,0.1l0.1,0.1
		l0.1,0.1L196.6,800L196.6,800z M195.8,799l0.5-0.4l-0.1-0.1l-0.1-0.1l-0.1-0.1l-0.1-0.1l-0.5,0.4l0.1,0.1l0.1,0.1l0.1,0.1
		L195.8,799L195.8,799z M195,798l0.5-0.4l-0.1-0.1l-0.1-0.1l-0.1-0.1l-0.1-0.1l-0.5,0.4l0.1,0.1l0.1,0.1l0.1,0.1L195,798L195,798z
		 M194.2,796.9l0.5-0.4l-0.1-0.1l-0.1-0.1l-0.1-0.2l-0.1-0.1l-0.5,0.4l0.1,0.1l0.1,0.2l0.1,0.1L194.2,796.9L194.2,796.9z
		 M193.4,795.9l0.5-0.4l0,0l-0.1-0.2l-0.1-0.1l-0.1-0.2l0-0.1l-0.5,0.4l0,0.1l0.1,0.2l0.1,0.2L193.4,795.9L193.4,795.9L193.4,795.9
		z M192.6,794.8l0.5-0.4l0,0l-0.1-0.2l-0.1-0.2l-0.1-0.2l0,0l-0.5,0.4l0,0l0.1,0.2l0.1,0.2L192.6,794.8L192.6,794.8L192.6,794.8z
		 M191.9,793.8l0.5-0.4l0-0.1l-0.1-0.2l-0.1-0.2l-0.1-0.2l0,0l-0.5,0.4l0,0l0.1,0.2l0.1,0.2L191.9,793.8L191.9,793.8L191.9,793.8z
		 M191.1,792.7l0.5-0.4l-0.1-0.1l-0.1-0.2l-0.1-0.2l-0.1-0.1l-0.5,0.4l0.1,0.1l0.1,0.2L191.1,792.7L191.1,792.7L191.1,792.7z
		 M190.4,791.6l0.5-0.3l-0.1-0.1l-0.1-0.2l-0.1-0.2l-0.1-0.1l-0.5,0.3l0.1,0.1l0.1,0.2l0.1,0.2L190.4,791.6L190.4,791.6z
		 M189.7,790.5l0.6-0.3l0,0l-0.1-0.2l-0.1-0.2l-0.1-0.2l0,0l-0.6,0.3l0,0l0.1,0.2l0.1,0.2L189.7,790.5L189.7,790.5L189.7,790.5z
		 M189,789.4l0.6-0.3l0-0.1l-0.1-0.2l-0.1-0.2l-0.1-0.1l-0.6,0.3l0.1,0.1l0.1,0.2L189,789.4L189,789.4L189,789.4z M188.4,788.3
		l0.6-0.3l-0.1-0.1l-0.1-0.2l-0.1-0.2l-0.1-0.1l-0.6,0.3l0.1,0.1l0.1,0.2l0.1,0.2L188.4,788.3L188.4,788.3z M187.7,787.2l0.6-0.3
		l0,0l-0.1-0.2l-0.1-0.2l-0.1-0.2l0,0l-0.6,0.3l0,0l0.1,0.2l0.1,0.2L187.7,787.2L187.7,787.2L187.7,787.2z M187.1,786l0.6-0.3
		l-0.1-0.1l-0.1-0.2l-0.1-0.2l-0.1-0.1l-0.6,0.3l0.1,0.1l0.1,0.2l0.1,0.2L187.1,786L187.1,786z M186.5,784.9l0.6-0.3l-0.1-0.2
		l-0.1-0.2l-0.1-0.2l0,0l-0.6,0.3l0,0.1l0.1,0.2l0.1,0.2L186.5,784.9L186.5,784.9z M185.9,783.7l0.6-0.3l0-0.1l-0.1-0.2l-0.1-0.2
		l-0.1-0.1l-0.6,0.3l0.1,0.1l0.1,0.2L185.9,783.7L185.9,783.7L185.9,783.7z M185.3,782.6l0.6-0.3l-0.1-0.2l-0.1-0.2l-0.1-0.2l0-0.1
		L185,782l0,0.1l0.1,0.2l0.1,0.2L185.3,782.6L185.3,782.6z M184.7,781.4l0.6-0.3l0-0.1l-0.1-0.2l-0.1-0.2l-0.1-0.1l-0.6,0.3
		l0.1,0.1l0.1,0.2L184.7,781.4L184.7,781.4L184.7,781.4z M184.2,780.2l0.6-0.3l-0.1-0.2l-0.1-0.2l-0.1-0.2l0-0.1l-0.6,0.3l0,0
		l0.1,0.2l0.1,0.2L184.2,780.2L184.2,780.2z M183.6,779.1l0.6-0.3l0-0.1l-0.1-0.2l-0.1-0.2l-0.1-0.1l-0.6,0.3l0.1,0.1l0.1,0.2
		L183.6,779.1L183.6,779.1L183.6,779.1z M183.1,777.9l0.6-0.3l0,0l-0.1-0.2l-0.1-0.2l-0.1-0.2l0,0l-0.6,0.3l0,0l0.1,0.2l0.1,0.2
		L183.1,777.9L183.1,777.9L183.1,777.9z M182.5,776.7l0.6-0.3l-0.1-0.1l-0.1-0.2l-0.1-0.2l0-0.1l-0.6,0.3l0,0.1l0.1,0.2l0.1,0.2
		L182.5,776.7L182.5,776.7z M182,775.5l0.6-0.3l0,0l-0.1-0.2l-0.1-0.2l-0.1-0.2l-0.6,0.2l0.1,0.2l0.1,0.2L182,775.5L182,775.5
		L182,775.5z M181.5,774.3l0.6-0.3l-0.1-0.2l-0.1-0.2l-0.1-0.2l0-0.1l-0.6,0.2l0,0.1l0.1,0.2l0.1,0.2L181.5,774.3L181.5,774.3z
		 M181,773.1l0.6-0.2l0-0.1l-0.1-0.2l-0.1-0.2l-0.1-0.1l-0.6,0.2l0.1,0.1l0.1,0.2L181,773.1L181,773.1L181,773.1z M180.5,771.9
		l0.6-0.2l0,0l-0.1-0.2l-0.1-0.2l-0.1-0.2l0,0l-0.6,0.2v0l0.1,0.2l0.1,0.2L180.5,771.9L180.5,771.9L180.5,771.9z M180,770.7
		l0.6-0.2l-0.1-0.2l-0.1-0.2l-0.1-0.2l0-0.1l-0.6,0.2l0,0.1l0.1,0.2l0.1,0.2L180,770.7L180,770.7z M179.6,769.5l0.6-0.2l0-0.1
		l-0.1-0.2l-0.1-0.2l-0.1-0.1l-0.6,0.2l0.1,0.1l0.1,0.2L179.6,769.5L179.6,769.5L179.6,769.5z M179.1,768.3l0.6-0.2l0,0l-0.1-0.2
		l-0.1-0.2l-0.1-0.2l0,0l-0.6,0.2l0,0l0.1,0.2l0.1,0.2L179.1,768.3L179.1,768.3L179.1,768.3z M178.7,767.1l0.6-0.2l-0.1-0.2
		l-0.1-0.2l-0.1-0.2l0-0.1l-0.6,0.2l0,0.1l0.1,0.2l0.1,0.2L178.7,767.1L178.7,767.1z M178.8,765.6L178.8,765.6l-0.1-0.3l-0.1-0.2
		l0-0.1l-0.6,0.2l0.1,0.1l0.1,0.2l0.1,0.2l0,0.1L178.8,765.6z"/>
	<path fill-rule="evenodd" clip-rule="evenodd" fill="#FDFDFE" d="M176.7,765.5l0.6-0.2l0,0l-0.1-0.2l-0.1-0.2l-0.1-0.2l-0.6,0.2
		l0.1,0.2l0.1,0.2L176.7,765.5L176.7,765.5L176.7,765.5z M236.2,825.6l0.3-0.6l0,0l0,0l0,0l0,0l0,0l0,0l0,0l0,0l0,0l0,0l0,0l0,0
		l0,0l0,0l0,0l0,0l0,0l0,0l0,0l0,0l0,0l0,0l0,0l0,0l0,0l0,0l-0.4,0.5l0,0l0,0l0,0l0,0l0,0l0,0l0,0l0,0l0,0l0,0l0,0l0,0l0,0l0,0l0,0
		l0,0l0,0l0,0l0,0l0,0l0,0L236.2,825.6L236.2,825.6L236.2,825.6L236.2,825.6L236.2,825.6L236.2,825.6z M235.1,824.8l0.4-0.5l0,0
		l0,0l0,0l0,0l0,0l0,0l0,0l0,0l0,0l0,0l0,0l0,0l0,0l0,0l0,0l0,0l0,0l0,0l0,0l0,0l0,0l0,0l0,0l-0.4,0.5l0,0l0,0l0,0l0,0l0,0l0,0l0,0
		l0,0l0,0l0,0l0,0l0,0l0,0l0,0l0,0l0,0l0,0l0,0L235.1,824.8L235.1,824.8L235.1,824.8L235.1,824.8L235.1,824.8L235.1,824.8z
		 M234,824.1l0.4-0.5l0,0l0,0l0,0l0,0l0,0l0,0l0,0l0,0l0,0l0,0l0,0l0,0l0,0l0,0l0,0l0,0l0,0l0,0l0,0l0,0l0,0h0l-0.4,0.5l0,0l0,0
		l0,0l0,0l0,0l0,0l0,0l0,0l0,0l0,0l0,0l0,0l0,0l0,0l0,0l0,0l0,0L234,824.1L234,824.1L234,824.1L234,824.1L234,824.1L234,824.1z
		 M233,823.3l0.4-0.5l0,0l0,0l0,0l0,0l0,0l0,0l0,0l0,0l0,0l0,0l0,0l0,0l0,0l0,0l0,0l0,0l0,0l0,0l0,0l0,0l-0.3,0.5l0,0l0,0l0,0l0,0
		l0,0l0,0l0,0l0,0l0,0l0,0l0,0l0,0l0,0l0,0l0,0L233,823.3L233,823.3L233,823.3L233,823.3L233,823.3L233,823.3z M231.9,822.6
		l0.3-0.5l0,0l0,0l0,0l0,0l0,0l0,0l0,0l0,0l0,0l0,0l0,0l0,0l0,0l0,0l0,0l0,0l0,0l0,0l0,0l-0.3,0.6l0,0l0,0l0,0l0,0l0,0l0,0l0,0l0,0
		l0,0l0,0l0,0l0,0l0,0l0,0L231.9,822.6L231.9,822.6L231.9,822.6L231.9,822.6L231.9,822.6L231.9,822.6z M230.8,822l0.3-0.6l0,0l0,0
		l0,0l0,0l0,0l0,0l0,0l0,0l0,0l0,0l0,0l0,0l0,0l0,0l0,0l0,0l0,0l0,0l-0.3,0.6l0,0l0,0l0,0l0,0l0,0l0,0l0,0l0,0l0,0l0,0l0,0l0,0l0,0
		l0,0L230.8,822L230.8,822L230.8,822L230.8,822L230.8,822z M229.7,821.4l0.3-0.6l0,0l0,0l0,0l0,0l0,0l0,0l0,0l0,0l0,0l0,0l-0.1,0
		l-0.1,0l-0.1,0l-0.3,0.6l0.1,0l0.1,0l0.1,0l0,0l0,0l0,0l0,0l0,0l0,0L229.7,821.4L229.7,821.4L229.7,821.4L229.7,821.4L229.7,821.4
		z M228.5,820.9l0.3-0.6l0,0l-0.1,0l-0.1,0l-0.1,0l-0.1,0l-0.1,0l-0.1,0l0,0l-0.2,0.6l0,0l0.1,0l0.1,0l0.1,0l0.1,0l0.1,0
		L228.5,820.9L228.5,820.9L228.5,820.9z M227.3,820.4l0.2-0.6l0,0l-0.1,0l-0.1,0l-0.1,0l-0.1,0l-0.1,0l-0.1,0l0,0l-0.2,0.6l0,0
		l0.1,0l0.1,0l0.1,0l0.1,0l0.1,0L227.3,820.4L227.3,820.4L227.3,820.4z M226.1,819.9l0.2-0.6l-0.1,0l-0.1,0l-0.1,0l-0.1,0l-0.1,0
		l-0.1,0l-0.1,0l-0.2,0.6l0.1,0l0.1,0l0.1,0l0.1,0l0.1,0L226.1,819.9L226.1,819.9L226.1,819.9z M224.9,819.5l0.2-0.6l0,0l-0.1,0
		l-0.1,0l-0.1,0l-0.1,0l-0.1,0l-0.1,0l-0.2,0.6l0.1,0l0.1,0l0.1,0l0.1,0l0.1,0L224.9,819.5L224.9,819.5L224.9,819.5z M223.7,819
		l0.2-0.6l0,0l-0.1,0l-0.1,0l-0.1,0l-0.1,0l-0.1,0l0,0l-0.3,0.6l0,0l0.1,0l0.1,0l0.1,0l0.1,0L223.7,819L223.7,819L223.7,819z
		 M222.5,818.5l0.3-0.6l-0.1,0l-0.1,0l-0.1,0l-0.1,0l-0.1,0l-0.1,0l-0.3,0.6l0.1,0l0.1,0l0.1,0l0.1,0L222.5,818.5L222.5,818.5
		L222.5,818.5z M221.3,818l0.3-0.6l0,0l-0.1,0l-0.1,0l-0.1-0.1l-0.1,0l-0.1,0l0,0l-0.3,0.6l0,0l0.1,0l0.1,0l0.1,0l0.1,0L221.3,818
		L221.3,818L221.3,818z M220.1,817.5l0.3-0.6l0,0l-0.1,0l-0.1-0.1l-0.1,0l-0.1,0l-0.1,0l0,0l-0.3,0.6l0,0l0.1,0l0.1,0l0.1,0.1
		l0.1,0L220.1,817.5L220.1,817.5L220.1,817.5z M218.9,817l0.3-0.6l0,0l-0.1,0l-0.1-0.1l-0.1,0l-0.1-0.1l-0.1,0l0,0l-0.3,0.6l0,0
		l0.1,0.1l0.1,0l0.1,0.1l0.1,0L218.9,817L218.9,817L218.9,817z M217.7,816.4l0.3-0.6l0,0l-0.1-0.1l-0.1,0l-0.1-0.1l-0.1-0.1
		l-0.1-0.1l-0.3,0.6l0.1,0.1l0.1,0.1l0.1,0l0.1,0.1L217.7,816.4L217.7,816.4L217.7,816.4z M216.5,815.9l0.3-0.6l-0.1,0l-0.1-0.1
		l-0.1-0.1l-0.1-0.1l-0.1,0l-0.1,0l-0.3,0.6l0.1,0l0.1,0.1l0.1,0.1l0.1,0.1L216.5,815.9L216.5,815.9L216.5,815.9z M215.4,815.3
		l0.3-0.6l0,0l-0.1-0.1l-0.1-0.1l-0.1-0.1l-0.1-0.1l-0.1-0.1h0l-0.3,0.6h0l0.1,0.1l0.1,0.1l0.1,0.1l0.1,0L215.4,815.3L215.4,815.3
		L215.4,815.3z M214.2,814.8l0.3-0.6l-0.1,0l-0.1-0.1l-0.1-0.1l-0.1-0.1l-0.1-0.1l0,0l-0.3,0.6l0,0l0.1,0.1l0.1,0.1l0.1,0.1
		L214.2,814.8L214.2,814.8L214.2,814.8z M213,814.2l0.3-0.6l-0.1,0l-0.1-0.1l-0.1-0.1l-0.1-0.1l-0.1-0.1l-0.1,0l-0.3,0.6l0.1,0
		l0.1,0.1l0.1,0.1l0.1,0.1L213,814.2L213,814.2L213,814.2z M211.9,813.6l0.3-0.6l0,0l-0.1-0.1l-0.1-0.1l-0.1-0.1l-0.1-0.1l-0.1,0
		l-0.3,0.6l0.1,0l0.1,0.1l0.1,0.1l0.1,0.1L211.9,813.6L211.9,813.6L211.9,813.6z M210.8,812.9l0.3-0.6l0,0l-0.1-0.1l-0.1-0.1
		l-0.1-0.1l-0.1-0.1l-0.1-0.1l-0.3,0.6l0.1,0.1l0.1,0.1l0.1,0.1l0.1,0.1L210.8,812.9L210.8,812.9L210.8,812.9z M209.6,812.3
		l0.3-0.6l0,0l-0.1-0.1l-0.1-0.1l-0.1-0.1l-0.1-0.1l-0.1,0l-0.3,0.6l0.1,0l0.1,0.1l0.1,0.1l0.1,0.1L209.6,812.3L209.6,812.3
		L209.6,812.3z M208.5,811.6l0.3-0.6l0,0l-0.1-0.1l-0.1-0.1l-0.1-0.1l-0.1-0.1l-0.1,0l-0.3,0.5l0.1,0l0.1,0.1l0.1,0.1l0.1,0.1
		L208.5,811.6L208.5,811.6L208.5,811.6z M207.4,810.9l0.4-0.5l-0.1,0l-0.1-0.1l-0.1-0.1l-0.1-0.1l-0.1-0.1l0,0l-0.4,0.5l0,0
		l0.1,0.1l0.1,0.1l0.1,0.1L207.4,810.9L207.4,810.9L207.4,810.9z M206.3,810.2l0.4-0.5l-0.1-0.1l-0.1-0.1l-0.1-0.1l-0.1-0.1
		l-0.1-0.1l0,0l-0.4,0.5l0,0l0.1,0.1l0.1,0.1l0.1,0.1L206.3,810.2L206.3,810.2L206.3,810.2z M205.2,809.5l0.4-0.5l0,0l-0.1-0.1
		l-0.1-0.1l-0.1-0.1l-0.1-0.1l-0.1-0.1l-0.4,0.5l0.1,0.1l0.1,0.1l0.1,0.1l0.1,0.1L205.2,809.5L205.2,809.5L205.2,809.5z
		 M204.2,808.7l0.4-0.5l-0.1,0l-0.1-0.1l-0.1-0.1l-0.1-0.1l-0.1-0.1l0,0l-0.4,0.5l0,0l0.1,0.1l0.1,0.1l0.1,0.1L204.2,808.7
		L204.2,808.7L204.2,808.7z M203.1,807.9l0.4-0.5l-0.1-0.1l-0.1-0.1l-0.1-0.1l-0.1-0.1L203,807l-0.4,0.5l0.1,0.1l0.1,0.1l0.1,0.1
		L203.1,807.9L203.1,807.9L203.1,807.9z M202.1,807.1L202.1,807.1l-0.2-0.2l-0.1-0.1l-0.1-0.1l0,0l0.4-0.5l0,0l0.1,0.1l0.1,0.1
		l0.1,0.1l0,0L202.1,807.1L202.1,807.1z M201.1,806.3l0.4-0.5l0,0l-0.1-0.1l-0.1-0.1l-0.1-0.1l0,0l-0.4,0.5l0.1,0l0.1,0.1l0.1,0.1
		L201.1,806.3L201.1,806.3L201.1,806.3z M200.1,805.4l0.4-0.5l0,0l-0.1-0.1l-0.1-0.1l-0.1-0.1l-0.1-0.1l-0.4,0.5l0.1,0.1l0.1,0.1
		l0.1,0.1L200.1,805.4L200.1,805.4L200.1,805.4z M199.2,804.5l0.4-0.5l-0.1-0.1l-0.1-0.1l-0.1-0.1l-0.1-0.1l-0.5,0.5l0.1,0.1
		l0.1,0.1l0.1,0.1L199.2,804.5L199.2,804.5z M198.3,803.6l0.5-0.5l-0.1-0.1l-0.1-0.1l-0.1-0.1l-0.1-0.1l-0.5,0.5l0.1,0.1l0.1,0.1
		l0.1,0.1L198.3,803.6L198.3,803.6z M197.4,802.7l0.5-0.4l-0.1-0.1l-0.1-0.1l-0.1-0.1l-0.1-0.1l-0.5,0.4l0.1,0.1l0.1,0.1l0.1,0.1
		L197.4,802.7L197.4,802.7z M196.5,801.8l0.5-0.4l-0.1-0.1l-0.1-0.1l-0.1-0.1l-0.1-0.1l-0.5,0.4l0.1,0.1l0.1,0.1l0.1,0.1
		L196.5,801.8L196.5,801.8z M195.6,800.8l0.5-0.4l-0.1-0.1l-0.1-0.1l-0.1-0.1l-0.1-0.1l-0.5,0.4l0.1,0.1l0.1,0.1l0.1,0.1
		L195.6,800.8L195.6,800.8z M194.8,799.8l0.5-0.4l-0.1-0.1l-0.1-0.1l-0.1-0.1l-0.1-0.1l-0.5,0.4l0.1,0.1l0.1,0.1l0.1,0.1
		L194.8,799.8L194.8,799.8z M193.9,798.8l0.5-0.4l-0.1-0.1l-0.1-0.1l-0.1-0.1l-0.1-0.1l-0.5,0.4l0.1,0.1l0.1,0.1l0.1,0.1
		L193.9,798.8L193.9,798.8z M193.1,797.8l0.5-0.4l-0.1-0.1l-0.1-0.1l-0.1-0.2l-0.1-0.1l-0.5,0.4l0.1,0.1l0.1,0.2l0.1,0.2
		L193.1,797.8L193.1,797.8z M192.3,796.7l0.5-0.4l0,0l-0.1-0.2l-0.1-0.2l-0.1-0.2l0-0.1l-0.5,0.4l0,0.1l0.1,0.2l0.1,0.2
		L192.3,796.7L192.3,796.7L192.3,796.7z M191.6,795.7l0.5-0.4l0,0l-0.1-0.2l-0.1-0.2l-0.1-0.2l0,0l-0.5,0.4l0,0l0.1,0.2l0.1,0.2
		L191.6,795.7L191.6,795.7L191.6,795.7z M190.8,794.6l0.5-0.4l0-0.1l-0.1-0.2l-0.1-0.2l-0.1-0.2h0l-0.5,0.4l0,0l0.1,0.2l0.1,0.2
		L190.8,794.6L190.8,794.6L190.8,794.6z M190.1,793.5l0.5-0.4l-0.1-0.1l-0.1-0.2l-0.1-0.2l-0.1-0.1l-0.5,0.4l0.1,0.1l0.1,0.2
		L190.1,793.5L190.1,793.5L190.1,793.5z M189.4,792.4l0.5-0.3l-0.1-0.1l-0.1-0.2l-0.1-0.2l-0.1-0.1l-0.5,0.3l0.1,0.1l0.1,0.2
		l0.1,0.2L189.4,792.4L189.4,792.4z M188.7,791.3l0.6-0.3l0,0l-0.1-0.2l-0.1-0.2l-0.1-0.2l0,0l-0.6,0.3l0,0l0.1,0.2l0.1,0.2
		L188.7,791.3L188.7,791.3L188.7,791.3z M188,790.2l0.6-0.3l0-0.1l-0.1-0.2l-0.1-0.2l-0.1-0.1l-0.6,0.3l0.1,0.1l0.1,0.2L188,790.2
		L188,790.2L188,790.2z M187.4,789.1l0.6-0.3l-0.1-0.1l-0.1-0.2l-0.1-0.2l-0.1-0.1l-0.6,0.3l0.1,0.1l0.1,0.2l0.1,0.2L187.4,789.1
		L187.4,789.1z M186.7,788l0.6-0.3l0,0l-0.1-0.2l-0.1-0.2l-0.1-0.2l0,0l-0.6,0.3l0,0l0.1,0.2l0.1,0.2L186.7,788L186.7,788
		L186.7,788z M186.1,786.9l0.6-0.3l-0.1-0.1l-0.1-0.2l-0.1-0.2l-0.1-0.1l-0.6,0.3l0.1,0.1l0.1,0.2L186.1,786.9L186.1,786.9
		L186.1,786.9z M185.5,785.7l0.6-0.3l-0.1-0.2l-0.1-0.2l-0.1-0.2l0,0l-0.6,0.3l0,0.1l0.1,0.2l0.1,0.2L185.5,785.7L185.5,785.7z
		 M184.9,784.6l0.6-0.3l0-0.1l-0.1-0.2l-0.1-0.2l-0.1-0.1l-0.6,0.3l0.1,0.1l0.1,0.2L184.9,784.6L184.9,784.6L184.9,784.6z
		 M184.3,783.4l0.6-0.3l-0.1-0.2l-0.1-0.2l-0.1-0.2l0-0.1l-0.6,0.3l0,0.1l0.1,0.2l0.1,0.2L184.3,783.4L184.3,783.4z M183.7,782.2
		l0.6-0.3l0-0.1l-0.1-0.2l-0.1-0.2l-0.1-0.1l-0.6,0.3l0.1,0.1l0.1,0.2L183.7,782.2L183.7,782.2L183.7,782.2z M183.1,781.1l0.6-0.3
		l-0.1-0.2l-0.1-0.2l-0.1-0.2l0,0l-0.6,0.3l0,0.1l0.1,0.2l0.1,0.2L183.1,781.1L183.1,781.1z M182.6,779.9l0.6-0.3l0-0.1l-0.1-0.2
		l-0.1-0.2l-0.1-0.1l-0.6,0.3l0.1,0.1l0.1,0.2L182.6,779.9L182.6,779.9L182.6,779.9z M182,778.7l0.6-0.3l0,0l-0.1-0.2l-0.1-0.2
		l-0.1-0.2l0,0l-0.6,0.3l0,0l0.1,0.2l0.1,0.2L182,778.7L182,778.7L182,778.7z M181.5,777.5l0.6-0.3l-0.1-0.1L182,777l-0.1-0.2
		l0-0.1l-0.6,0.3l0,0.1l0.1,0.2l0.1,0.2L181.5,777.5L181.5,777.5z M181,776.3l0.6-0.3l0,0l-0.1-0.2l-0.1-0.2l-0.1-0.2l-0.6,0.3
		l0.1,0.2l0.1,0.2L181,776.3L181,776.3L181,776.3z M180.5,775.1l0.6-0.3l-0.1-0.2l-0.1-0.2l-0.1-0.2l0-0.1l-0.6,0.3l0,0.1l0.1,0.2
		l0.1,0.2L180.5,775.1L180.5,775.1z M180,773.9l0.6-0.2l0-0.1l-0.1-0.2l-0.1-0.2l-0.1-0.1l-0.6,0.2l0.1,0.1l0.1,0.2L180,773.9
		L180,773.9L180,773.9z M179.5,772.7l0.6-0.2l0,0l-0.1-0.2l-0.1-0.2l-0.1-0.2l0,0l-0.6,0.2l0,0l0.1,0.2l0.1,0.2L179.5,772.7
		L179.5,772.7L179.5,772.7z M179,771.5l0.6-0.2l-0.1-0.2l-0.1-0.2l-0.1-0.2l0-0.1l-0.6,0.2l0,0.1l0.1,0.2l0.1,0.2L179,771.5
		L179,771.5z M178.5,770.3l0.6-0.2l0-0.1l-0.1-0.2l-0.1-0.2l-0.1-0.1l-0.6,0.2l0.1,0.1l0.1,0.2L178.5,770.3L178.5,770.3
		L178.5,770.3z M178.1,769.1l0.6-0.2l0,0l-0.1-0.2l-0.1-0.2l-0.1-0.2l0,0l-0.6,0.2v0l0.1,0.2l0.1,0.2L178.1,769.1L178.1,769.1
		L178.1,769.1z M177.6,767.9l0.6-0.2l-0.1-0.2l-0.1-0.2l-0.1-0.2l0-0.1l-0.6,0.2l0,0.1l0.1,0.2l0.1,0.2L177.6,767.9L177.6,767.9z
		 M177.8,766.5L177.8,766.5l-0.1-0.3l-0.1-0.2l0-0.1l-0.6,0.2l0.1,0.1l0.1,0.2l0.1,0.2l0,0.1L177.8,766.5z"/>
	<path fill-rule="evenodd" clip-rule="evenodd" fill="#FDFDFE" d="M188.9,766c-1.5-1-2.3,0.5-3.2,1.2c-0.7,0.6-1.7,1.7-1.2,2.8
		c0.5,1.2,3.3-1.3,3.7-1.6c0.5-0.3,0.8-1.1,1.1-1.4C189.8,766.3,188.8,766.2,188.9,766z"/>
	<path fill-rule="evenodd" clip-rule="evenodd" fill="#E4E3E4" d="M192.2,764.8c2.6,2,0.4,4.4,0.1,6.6c-0.2,1.3,0,3.7,1.8,2.7
		c1.8-1.1,3-5.1,1.2-6.5C194.3,766.9,193.4,764.9,192.2,764.8z"/>
	<path fill-rule="evenodd" clip-rule="evenodd" fill="#FDFDFE" d="M197.9,775.7c-0.4,0.5-1.1,2.5-1.5,2.6c-0.6,0.2-1.5,0.1-2.4,0.2
		c-0.7,0.1-3.5,1.1-3.9,0.6c-0.6-0.6-1.2-1-1.8-1.5c-1.3-1,4.2-2.4,4.8-2.5C195,775,196.2,774.9,197.9,775.7z"/>
	<path fill-rule="evenodd" clip-rule="evenodd" fill="#E4E3E4" d="M198.2,773.4c0.2,2.6-1.2,3.1-1.9,5.1c-0.6,1.6-0.5,1.6,0.4,2.9
		c1.5,2.1,3.1-3,3.4-4.2c0.2-0.8,0-1.6-0.3-2.3C199.4,774.1,198.4,773.7,198.2,773.4z"/>
	<path fill-rule="evenodd" clip-rule="evenodd" fill="#FDFDFE" d="M201.3,784.4c0,0.8-0.6,1.7-1.3,1.9c-1.9,0.5-3.5,1.4-5.4,1.9
		c-1,0.3-1.5-0.9-1.7-1.7c-0.3-1-0.6-0.8,0.5-1.5C196.1,783.3,198.8,782.8,201.3,784.4z"/>
	<path fill-rule="evenodd" clip-rule="evenodd" fill="#E4E3E4" d="M203,780.3c-0.1,0.6-2.8,6.7-2.5,7.3c0.5,0.8,1.7,2.5,2.3,1.5
		C204.1,787.3,205.8,781,203,780.3z"/>
	<path fill-rule="evenodd" clip-rule="evenodd" fill="#FDFDFE" d="M212.1,792.8c-2.2-1.5-2.4-3.3-5.2-3c-3,0.3-6,1.2-8.5,2.4
		c-1.1,0.6,0.2,1.2,0.2,2c0.1,1.7,2.6,0,3.4-0.3C205.6,792.5,208.6,793.2,212.1,792.8z"/>
	<path fill-rule="evenodd" clip-rule="evenodd" fill="#FDFDFE" d="M212.8,793.9c-0.5,0.9-0.7,2-1.5,2.6c-0.8,0.7-5,4.8-6.1,4.2
		c-0.5-0.3-2.1-0.8-2.1-1.4c0-0.9,4-4.1,4.8-4.6C209.8,793.7,210.9,794.1,212.8,793.9z"/>
	<path fill-rule="evenodd" clip-rule="evenodd" fill="#E4E3E4" d="M212.8,790.5c0.2,2-0.2,3.3-0.5,5.1c-0.2,1-1.2,2.9,0.1,3.5
		c3.4,1.6,2.7-3.6,3-5.6C215.5,792.2,213.9,790.4,212.8,790.5z"/>
	<path fill-rule="evenodd" clip-rule="evenodd" fill="#FDFDFE" d="M209.7,803.9c1.8-2.6,4.4-4.5,7.3-5.4c0.5-0.2,1.6-0.4,2.1-0.3
		c0.9,0.2,0,2.8-0.1,2.9c-2.5,0.8-3.9,2.6-6.1,4C212.4,805.4,209.7,804.6,209.7,803.9z"/>
	<path fill-rule="evenodd" clip-rule="evenodd" fill="#FDFDFE" d="M217.5,808.9c-0.2-2.2,6.1-5.4,7.7-5.5c1-0.1,1.7-0.2,2.6,0.2
		c1.4,0.6,1.5,0.7,0.9,2c-0.3,0.6-0.7,1.5-1.4,1.6c-1.7,0.2-3.4-0.3-4.7,0.9c-0.6,0.5-2.2,2.8-3.1,1.6
		C219.1,809,217.8,809.5,217.5,808.9z"/>
	<path fill-rule="evenodd" clip-rule="evenodd" fill="#FDFDFE" d="M233.7,801c-2.5,3.2-5.7,5.9-7.7,9.6c-0.3,0.5-1.3,1.8-0.8,2.4
		c0.3,0.5,2.5,0.9,2.8,0.3c1.5-2.5,3-6.1,5.1-8.2c0.6-0.6,2.7-2,2.2-3C235.1,801.7,233.9,801.3,233.7,801z"/>
	<path fill-rule="evenodd" clip-rule="evenodd" fill="#C73161" d="M153.2,798.8c-3.2,10,29.4,16.1,34.8,17.8
		c22.9,7.1,28.8,10.9,55.2,8.8c4.4-0.4,8.5-1.1,11.4-2.4c3.2-1.4,5.1-3.5,5.1-6.5c0-0.7-0.1-1.4-0.3-2.2l-1.6,0.5
		c0.2,0.6,0.3,1.2,0.3,1.7c0,2.2-1.6,3.8-4.1,4.9c-2.8,1.2-6.6,2-10.8,2.3c-26.1,2.1-32-1.6-54.6-8.7c-4.1-1.3-36.1-8.1-33.7-15.7
		L153.2,798.8z"/>
	<path fill-rule="evenodd" clip-rule="evenodd" fill="#BEBFC0" d="M166.7,772c-3.2,0-5.8,3.3-5.8,7.4c0,4.1,2.6,7.4,5.8,7.4
		c3.2,0,5.8-3.3,5.8-7.4C172.5,775.3,169.9,772,166.7,772z"/>
	<path fill-rule="evenodd" clip-rule="evenodd" fill="#E6B88E" d="M245,411.2c-2-5.8-1.6-14.8-8.3-13.7c-3.7,0.6-7,5.6-4.9,8.8
		c2.1,3.3-1.1,12.6,5.7,12.2C237.9,418.5,245.4,412.4,245,411.2z"/>
	<path fill-rule="evenodd" clip-rule="evenodd" fill="#E6B88E" d="M316.1,362.4c6.1-20.6-8.2-16-13.8-19.5
		c-17,25.6-45.1,69.3-57.3,68.7c-1.1,8.3-2,16.6-3,24.9C256.4,440.2,310.8,372.9,316.1,362.4z"/>
	<path fill-rule="evenodd" clip-rule="evenodd" fill="#E6B88E" d="M258.2,297.3c19.9,22.3,42.9,40.1,58.1,51.4
		c2.4,1.8-7.6,22.6-20.7,12.8c-12.3-9.3-40-28.4-49.8-45.9C240.3,306,239.9,276.8,258.2,297.3z"/>
	<path fill-rule="evenodd" clip-rule="evenodd" fill="#D8A776" d="M265,304.6c10.7,11.1,21.8,20.9,32,29.1
		c-9.5-1.5-25.9-1.2-36.1,0.1c-2.9-2.8-5.7-5.6-8.1-8.5c0.7-7.9,2.1-17.1,4-18C258.4,306.6,261.5,305.5,265,304.6z"/>
	<path fill-rule="evenodd" clip-rule="evenodd" fill="#00673F" d="M218.9,271.5l6.5-1.9c4.1,6.7,43.9,27.8,43.9,28
		c7.9,24.7-27.8,40.3-32.2,29.2c-1.7-4.3-26.9-28.6-26.9-37.5L218.9,271.5z"/>
	<path fill-rule="evenodd" clip-rule="evenodd" fill="#1A1414" d="M201.5,751.7c0-0.4,0.1-0.9,0.1-1.3
		c-7.5-90.1-10.3-228.4-11.5-288.6c12.5,5.1,29.2,12.1,41.7,17.2c-1.8,37.6-15.5,231.2-9.5,272.6H201.5z"/>
	<path fill-rule="evenodd" clip-rule="evenodd" fill="#472016" d="M236.1,242.3l53.2,6.2c-19.7,24.1-21.1,29.4-3.6,29.4
		c2.7,0-24.4,12.4-39.1-0.7c-3.1-2.8-1.1,9.3,21,11.6c6.4,0.7,2.6,4.4-3.5,5.2c-7.6,1-30.2,0.6-43.1-19.2c-1.1-1.7-2.7-17-4.4-22.2
		L236.1,242.3z"/>
	
		<path fill-rule="evenodd" clip-rule="evenodd" fill="#652818" stroke="#88361F" stroke-width="0.3311" stroke-miterlimit="22.9256" d="
		M299,53.2l-16.1-30.7C388.9,1.8,386.2,197.7,284.4,246c-2.2,1,3.3-2.8-9.5-7.3c0.8-17.8,45.1-60.2,44.9-88.6
		c-0.2-22.3,1.9-34.8-6-56C312.3,90.2,299,53.2,299,53.2z"/>
	<path fill-rule="evenodd" clip-rule="evenodd" fill="#652818" d="M357.7,138.9l-40.3,38.3c3.4,12.1,10.5,18.5,4.4,32.8
		c-0.5,1.1-2.9,8.9-2.9,8.9C339.8,209,357.6,159.6,357.7,138.9z"/>
	<path fill-rule="evenodd" clip-rule="evenodd" fill="#A57544" d="M311.5,146.7c1.6-4.6,33.8-16.9,25.1,21.7
		c-1,4.5-9.1,19.3-22.7,19.7C299.7,188.5,310.4,149.7,311.5,146.7z"/>
	<path fill-rule="evenodd" clip-rule="evenodd" fill="#652818" d="M162.1,55.6L161.7,43c-68.8,49.5-57,245.9,44.1,281.4
		c2.2,0.8-7-42.5-2.9-77.9c-5.6-16.2-25-50.3-32.5-76.7c-6-20.7-11.3-31.6-9.7-53.8C160.9,112,166.6,55.6,162.1,55.6z"/>
	<path fill-rule="evenodd" clip-rule="evenodd" fill="#472016" d="M272.2,179.9l6.1-14.8c49.4,47.2,21.9,119.9-79.9,105.4
		c-2.2-0.3,25.9-11.2,16.9-18.8c8-6.3,22.5-15.2,34.1-25.9c9.1-8.5,16-12.2,18.2-23.7C268.1,199.9,272.2,179.9,272.2,179.9z"/>
	<path fill-rule="evenodd" clip-rule="evenodd" fill="#652818" d="M283,42.5c14.2,15.7,30.1,15.1,51.4,56.9c1.4,0-9.7-26.2-8.5-24.7
		c-6.9-16.4-12.3-32.3-24.7-45.5c-1.1-1.2-0.7-0.8-1.3-2.2c-0.2,0-11.2-5.7-18.5,6.4C280.1,35.4,279.3,41.3,283,42.5z"/>
	<path fill-rule="evenodd" clip-rule="evenodd" fill="#F3CBA9" d="M160.9,145.3c-2.8-7.8-32.2-16.9-23.5,21.7
		c1,4.5,9.1,19.3,22.7,19.7C174.2,187.1,165.1,158.7,160.9,145.3z"/>
	<path fill-rule="evenodd" clip-rule="evenodd" fill="#50494E" d="M160.9,757.2c0-0.4,0.1-0.8,0.1-1.2
		c-7.5-86-10.3-218.1-11.5-275.5c12.5,4.9,29.2,11.5,41.6,16.4c-1.8,35.9-15.5,220.8-9.5,260.3H160.9z"/>
	<path fill-rule="evenodd" clip-rule="evenodd" fill="#393235" d="M156.2,683.5c-3.3-63.4-5.1-132.9-6.2-179l40.8-1.5
		c-0.4,7.6-1.1,18.4-1.9,31.3C154.1,546,153.3,662.5,169,684.7L156.2,683.5z"/>
	<polygon fill-rule="evenodd" clip-rule="evenodd" fill="#234A61" points="234.4,351.7 175.9,346.4 175.6,435 228.3,435.1 	"/>
	<path fill-rule="evenodd" clip-rule="evenodd" fill="#009A4D" d="M143,284.8c4.8-14.3,22.4-17.4,33.3-16.7
		c26.9,1.7,11.7,11.8,47.8,4.1c-2.9,8.5-2.7-14.5,5.6,5.8c5.1,21.3,33.2,35.4,34.3,55.9c1,19.8-24.8,31-25,41.2
		c-13.6,32.5,3.5,43.4,3.4,86c-2.4,36.4-88.6,75.4-93.1,63.7c-7.1-18.2-6-65,18.3-135.5C176.1,355.3,153.2,339.8,143,284.8z"/>
	<path fill-rule="evenodd" clip-rule="evenodd" fill="#00A366" d="M247.8,305.6c-25,10.6-59.4,7.9-98.8,4
		c3.1,10.2,6.5,18.7,9.6,26.3c33.4,0,86,5.5,103.4-10.4C259.2,318.5,253.6,312.1,247.8,305.6L247.8,305.6z M251.7,358.5
		c-24.1,5.8-52.3,5.6-85-1.4c2.8,9.3,3.8,18.3,1.7,29.1c20.9,1.1,46.1,1.8,67.2-0.8c0.8-3.2,2-6.6,3.5-10.3
		C239.2,370.1,245.4,364.9,251.7,358.5L251.7,358.5z M235.9,415.2c-21.9,4.6-47.2,4.2-75.9-1.8c-2.8,9.6-5.2,18.7-7.1,27.2
		c28.5,2.3,64.7,3.9,87.8-2.8C239.2,429.1,237.3,421.9,235.9,415.2L235.9,415.2z M147.1,473.5c-1.6,13.2-1.9,24.3-1.2,33.3
		c25.9-6.1,62.9-15.2,89.4-27.9c4.1-5.8,6.7-11.8,7.1-17.7c0-5.6-0.3-10.6-0.7-15.2C217.4,460.9,186.1,470.4,147.1,473.5z"/>
	<path fill-rule="evenodd" clip-rule="evenodd" fill="#008646" d="M214.3,356.8c-0.5,13.9-40.5,13.3-43.6-2.1
		C179.9,360.7,200.7,361.3,214.3,356.8z"/>
	<path fill-rule="evenodd" clip-rule="evenodd" fill="#F3CBA9" d="M156.9,106.3c-11.3,70.3,21.2,129.9,40,167
		c1.5,7.9-1,9.4,0.7,11.1c3.8,3.8,17.9,49.5,32.1,48c7.6-0.8-10.1-81.8-2.3-82.3c54.9,4.7,98.2-30.2,99.5-56.6
		c1.6-30.7,4.8-54.5,6.4-72.4c2.8-30.6-9.9-59-47.1-77.6C238.4,27.9,167.6,35.6,156.9,106.3z"/>
	<path fill-rule="evenodd" clip-rule="evenodd" fill="#E6B485" d="M157.2,167.7c7.1,43.4,26.6,79.9,39.6,105.6
		c1.5,7.9-1,9.4,0.7,11.1c1,1,2.8,5.1,5.1,10.4c12,0.2,23.7-4.5,25.2-4.1l0.5-0.1c-2.5-20.2-4.9-40.3-1-40.5
		c54.9,4.7,98.2-30.2,99.5-56.6c1.6-30.7,4.8-54.5,6.4-72.4c2.6-28.3-8.1-54.7-39.1-73.2L175.9,89.4l0.8,10.6
		c12-9,33.8,4.5,53.9-6.7c5.5-3.1,24.8-3.6,39.2-12.4c67.2-41.3,62,82.5,46.4,121.2c-12.1,30.2-52.8,40.9-81.9,35.7
		C223,235.9,191.7,232.6,157.2,167.7z"/>
	<path fill-rule="evenodd" clip-rule="evenodd" fill="#E6B485" d="M145.8,99.6l31.3-2.1c-7.2,19.2-15.8,39.6-3.3,59.2
		c1.7,2.6,11.2,14.7,11.2,16.9c0.5,18.7-15.8,7.8-17.3,22.1l-17.3-41.4L145.8,99.6z"/>
	<path fill-rule="evenodd" clip-rule="evenodd" fill="#FFFFFF" d="M299.1,115.2c-14.3-0.7-26.4,9.2-27.1,22.1
		c-0.7,12.9,10.4,24,24.7,24.7c14.3,0.7,26.4-9.2,27.1-22.1C324.5,127,313.5,115.9,299.1,115.2z"/>
	<path fill-rule="evenodd" clip-rule="evenodd" fill="#F3CBA9" d="M323.2,123.3c4.4-19.5-39.8-30.4-48.6-9.6
		C281.9,112.4,310,113.4,323.2,123.3z"/>
	
		<ellipse transform="matrix(0.1567 -0.9876 0.9876 0.1567 46.2146 329.6501)" fill-rule="evenodd" clip-rule="evenodd" fill="#FFFFFF" cx="216.1" cy="137.8" rx="23.8" ry="26.4"/>
	<path fill-rule="evenodd" clip-rule="evenodd" fill="#F3CBA9" d="M237.3,113.7c-1.9-17.8-47.6-14.1-49.6,6
		C194.3,116.6,221.6,108.8,237.3,113.7z"/>
	<circle fill-rule="evenodd" clip-rule="evenodd" fill="#1A1414" cx="214.8" cy="140.2" r="13.4"/>
	<circle fill-rule="evenodd" clip-rule="evenodd" fill="#FFFFFF" cx="210.5" cy="133.1" r="2.5"/>
	<path fill-rule="evenodd" clip-rule="evenodd" fill="#F3CBA9" d="M235,163c3.1-14.4-35.9-23.6-42.9-8.3c-0.4,6.3,14.1,6.6,24.3,8.5
		C223.3,164.5,226.8,167.8,235,163z"/>
	<path fill-rule="evenodd" clip-rule="evenodd" fill="#652818" d="M175.9,105.9c-0.3-0.3,19.7-10.5,14.7-11.2
		c-17.9-1.6-35.7,35.6-39.1,43.2c-0.4-10.2-7.3-31.3-8.6-48.3C140.4,55.2,163,22.2,195,10.7c15.4-5.5,50.8-17,75.9-0.6
		C353.9,54,203.1,111.6,175.9,105.9z"/>
	<path fill-rule="evenodd" clip-rule="evenodd" fill="#652818" d="M288.9,37.4c-10.1,13.8-11.8,23.5-27.2,43
		c-1.4,1.8-12.8,13.3-12.9,14.2c13.3-6.1,30.6-15.1,37.7-25.9c5-7.6,16.3-22.3,6.7-28.8C292,39.2,292.6,37.6,288.9,37.4z"/>
	<path fill-rule="evenodd" clip-rule="evenodd" fill="#652818" d="M313.9,48.9l-18.6-25.3c-1.7,12.9,3.2,42.8-18.7,65.1
		c-0.9,1,21.3,3.3,33.5-26.1C310.5,61.7,314,49.9,313.9,48.9z"/>
	<path fill-rule="evenodd" clip-rule="evenodd" fill="#652818" d="M141.6,209.7l19.5-24.5c12.5,27.7,32.9,65.4,52,80.6
		c6.1,4.8,13.8,19.6-4.6,8.1c-7.4-4.6-7.8-5-1.4,4c4.7,6.7,21.7,9,21.7,10.4c-1.8,2.8-9.6,3-19.4,2.6c-1.8-0.1,4.7,11,24.8,12.2
		c10.8,0.7-16,21.7-41.4,9.7c-20.9-9.9-47.4-65.9-48.5-88.8C144,220.4,142.3,213.8,141.6,209.7z"/>
	<path fill-rule="evenodd" clip-rule="evenodd" fill="#1A1414" d="M271.9,196.5c-1.9,3.3-4.6,15-5.3,20.1
		c-2.1,0.9-16.1,0.1-18.9-0.5c-2.2-0.5-8.5-0.4-9.7-2.2c-10-3.3-22.5-33.8-20.6-34.9c9,10.2,12.4,13.2,25.5,16.6l0.5,0.1
		c2.9,0.8,14.3,0.8,17.6,0.1c1.1-0.2,8.6-0.4,9.6,0.3c0,0,1,0.4,1.2,0.5L271.9,196.5z"/>
	<path fill-rule="evenodd" clip-rule="evenodd" fill="#EB5B46" d="M227.7,204.2c5.3,4.2,15,9.6,25.2,11.1c7.1,1,13.2-0.5,16.2-0.8
		c5.1-0.4,3.3,3.5,1.8,4.7c-6.2,4.8-21.3,7.9-33.8-2.7c-1.3-1.1-4.3-4-6.4-7.2C228.3,205.7,227.6,204.1,227.7,204.2z"/>
	<path fill-rule="evenodd" clip-rule="evenodd" fill="#FFFFFF" d="M271.2,198c-0.4,1-2.2,6.7-2.4,8c-4.2,0.1-11.9-0.3-19.1-2.2
		c-7.8-2-15.1-5.7-17.3-7.6c-11.6-7.2-11.7-9.9-13.2-13.4c-1.2-2.6,1.3-0.4,4.6,3.8C231.1,193.4,272.3,194.6,271.2,198z"/>
	<path fill-rule="evenodd" clip-rule="evenodd" fill="#EB5B46" d="M224.7,180.3c0.8,0.4,1.7,0.2,2.1-0.6c0.4-0.8,0.2-1.7-0.6-2.1
		c-0.9-0.5-1.9-0.7-3-0.7c-1.7,0-3.6,0.5-5.3,1.4c-1.7,0.9-3.3,2.2-4.2,3.8l-0.1,0.1c-0.5,0.9-0.8,2-0.8,3c0,0.9,0.7,1.6,1.6,1.5
		c0.9,0,1.6-0.7,1.5-1.6c0-0.5,0.1-1,0.4-1.5l0-0.1c0.6-1,1.7-1.9,2.9-2.6c1.3-0.7,2.7-1.1,3.9-1.1
		C223.8,180.1,224.3,180.1,224.7,180.3z"/>
	<path fill-rule="evenodd" clip-rule="evenodd" fill="#EB5B46" d="M219.2,178.7c1.9,1.5,2.5,7.2,22.2,11.8c11.1,2.6,29.4,1,33.2-0.4
		c4.3-1.5,6.3,6.1,4.1,7.5c-6.9,4-29.7,1.3-38.9-1.5c-12-3.6-20.4-11.2-22.2-15C217,179.8,218.4,178.7,219.2,178.7z"/>
	<circle fill-rule="evenodd" clip-rule="evenodd" fill="#1A1414" cx="294.1" cy="145.5" r="13.4"/>
	<path fill-rule="evenodd" clip-rule="evenodd" fill="#FFFFFF" d="M287.4,137.5c0.5-1.3,1.9-2,3.2-1.5c1.3,0.5,2,1.9,1.5,3.2
		c-0.5,1.3-1.9,2-3.2,1.5C287.7,140.3,287,138.9,287.4,137.5z"/>
	<path fill-rule="evenodd" clip-rule="evenodd" fill="#C59A70" d="M158.6,158.9c-1.3-3.4-14.4-7.3-10.3,9.8c0.5,2,4.2,8.5,10.2,8.6
		C164.8,177.4,160.6,164.8,158.6,158.9z"/>
	<path fill-rule="evenodd" clip-rule="evenodd" fill="#E6B485" d="M287.7,100.8c6.5,2.9,13.2,4.9,18.9,7.6c7.1,3.4,13.1,7.4,21.2,11
		c5-1.5-8.2-10.6-22.2-16.4C293.5,98.5,278.9,95.9,287.7,100.8z"/>
	<path fill-rule="evenodd" clip-rule="evenodd" fill="#571E1A" d="M287,99.8c6.8,2.1,13.7,3.4,19.6,5.4c7.4,2.5,13.9,5.9,22.4,8.5
		c4.8-2.1-9.3-9.6-24-13.8C292.5,96.8,277.7,95.9,287,99.8z"/>
	<path fill-rule="evenodd" clip-rule="evenodd" fill="#E6B485" d="M194.1,115.3c6.9-1.8,13.4-4.3,19.5-5.6
		c7.6-1.7,14.9-2.2,23.5-4.4c3-4.3-13-3.4-27.6,0.8C197.3,109.8,184.2,116.8,194.1,115.3z"/>
	<path fill-rule="evenodd" clip-rule="evenodd" fill="#571E1A" d="M194,110.1c7.1-1,13.8-2.8,20-3.5c7.8-0.9,15-0.6,23.9-1.9
		c3.5-4-12.5-4.7-27.6-2.2C197.8,105.1,184,110.6,194,110.1z"/>
	<path fill-rule="evenodd" clip-rule="evenodd" fill="#F3CBA9" d="M313.3,168.4c3.1-14.7-36.6-24-43.7-8.5
		c-0.4,6.5,14.4,6.7,24.8,8.7C301.3,169.9,304.9,173.4,313.3,168.4z"/>
	<path fill-rule="evenodd" clip-rule="evenodd" fill="#BC8E61" d="M267.8,105.7c0-1.1-0.9-2-2-2c-1.1,0-2,0.9-2,2
		c0,6.4,3.7,29.4,6.4,46.1c1.6,9.7,2.8,17.2,2.7,17.4v0l0,0c-0.6,2.6-2.5,4.7-4.9,6.1c-2.7,1.6-6,2.2-8.9,1.6
		c-1.1-0.2-2.2,0.5-2.4,1.6c-0.2,1.1,0.5,2.2,1.6,2.4c3.8,0.7,8.1,0,11.7-2.1c3.3-1.9,6-4.9,6.9-8.7l0,0c0.2-0.9-1-8.8-2.7-19
		C271.5,134.6,267.8,111.9,267.8,105.7z"/>
	<path fill-rule="evenodd" clip-rule="evenodd" fill="#652818" d="M133.6,84.8l47,10.4c-31.7,24.3-11.5,64.8-1.9,82.8
		C164.1,178.8,129.1,153.5,133.6,84.8z"/>
	<path fill-rule="evenodd" clip-rule="evenodd" fill="#F3CBA9" d="M159.6,416.9c0.4,1.1,0.3,0.5,0.6,1.1c1.6,0.2,4.1,2.8,10.4,3.1
		c3.8,0.2-1.7-1.2,1.9,0.2c2,0.3,4.7,4.3,1,7.8c-2.9,2.7-3.1,1.6-7.5,1.4c1.9,0.8,14.9,6.8,6.7,11c-3.8,2-5.6,2.7-9.7,1.3
		c-0.6,1.1,8.6,4.2,4.2,8.7c-4.3,4.4-13,1.8-19.8-1.2c-5.2-2.2-5.7-3-8.1-7c-3-3.7,1.3-16.8,1.7-22.2c0.1-0.4,5.4-5.7,12.4-12.4
		c2.1-2,3.9-6.1,8.5-4.1c4.2,1.9-0.3,9-1.9,11.7L159.6,416.9z"/>
	<path fill-rule="evenodd" clip-rule="evenodd" fill="#F3CBA9" d="M71.1,352.4c-3.7-21.5,12.2-14.2,19.3-16.4
		c15.4,28.6,40.8,77.3,55.1,79.1c-0.2,8.4-0.5,16.8-0.7,25.2C127.5,441,75.5,363.9,71.1,352.4z"/>
	<path fill-rule="evenodd" clip-rule="evenodd" fill="#F3CBA9" d="M140.6,287c-23.5,22.3-51.5,42-69.3,53.3
		c-2.8,1.8,15.6,25.3,27.7,11.4c11.9-13.6,44.9-28.9,56.4-46.4C161.6,295.8,162.1,266.6,140.6,287z"/>
	<path fill-rule="evenodd" clip-rule="evenodd" fill="#F3CBA9" d="M181.4,675.3c-6.3,13.2-25.6,1.4-25.5,2.8
		c0.3,17.5,2.2,43.5,3.8,60.8c2.2,23.3-1.8,21.1,20,21.1c4.8,0,1-5.5,1-17.5C180.7,736.3,181.4,675.4,181.4,675.3z"/>
	<path fill-rule="evenodd" clip-rule="evenodd" fill="#D19D67" d="M221.6,672c-6.3,12.6-25,1.1-25,2.5c0.5,16.8,1.5,41,3.1,57.5
		c2.2,22.3-2.5,21.7,19.3,21.7c4.8,0,1.9-8.2,1.9-19.7C221,728,221.6,672.1,221.6,672z"/>
	<path fill-rule="evenodd" clip-rule="evenodd" fill="#E6B88E" d="M242.9,406.7c2.9,6.4,6.6,19.5,6.4,29.4c-1.9,7.7,3.5,11-9,12.3
		c-0.5,0.1-14.6-5.6,0-10.9c-8.4,1.4-16.8-3.2-2.7-8.3c-2.8,1.2-21.2-5.3-0.9-11.8C238.3,417,239.9,403.1,242.9,406.7z"/>
	<path fill-rule="evenodd" clip-rule="evenodd" fill="#007E45" d="M159.5,338c-3-7.4-6.3-15.5-9.4-25.1l12.8-16
		C161,305.5,160.3,324.4,159.5,338z"/>
	<path fill-rule="evenodd" clip-rule="evenodd" fill="#009A4D" d="M159.2,274.6l-6.2-1.8c-6.2,4.5-39,30.2-39,30.5
		c-5.4,23.9,29.4,35.6,32.6,24.8c1.2-4.1,22.9-29.1,22.2-37.5L159.2,274.6z"/>
</g>
</svg>
