<?xml version="1.0" encoding="utf-8"?>
<!-- Generator: Adobe Illustrator 18.0.0, SVG Export Plug-In . SVG Version: 6.00 Build 0)  -->
<!DOCTYPE svg PUBLIC "-//W3C//DTD SVG 1.1//EN" "http://www.w3.org/Graphics/SVG/1.1/DTD/svg11.dtd">
<svg version="1.1" id="Calque_1" xmlns="http://www.w3.org/2000/svg" xmlns:xlink="http://www.w3.org/1999/xlink" x="0px" y="0px"
	 viewBox="0 0 425.2 841.9" enable-background="new 0 0 425.2 841.9" xml:space="preserve">
<g>
	<path fill="#252C48" d="M163.1,174.2c-0.4,3.2-0.7,7.2-1,12c-0.1,4.3-0.3,9.3-0.4,14.9c0.7,11.2-3.9,26.7-13.9,46.4
		c-2.1,4.3-2.7,10.7-1.9,19.3c0.3,3.2,2.2,6.3,5.8,9.5c0.7,0.6,2,2.4,3.9,5.6c-0.3,3.5-0.6,8-1,13.5c-0.1,1.6-0.3,3.4-0.4,5.2
		c-1.5,2.3-3.3,4.8-5.4,7.2c-7.5,9.2-13.5,12.9-18.2,11c-11.9-6.9-24.3-22.5-37.5-46.8c1,0.3,2.1,0.4,3.5,0.4c0.4,0,0.9,0,1.5,0
		c0.7-0.1,1.4-0.3,2-0.6c0.8-0.4,1.5-0.9,2.1-1.4c0.8-0.8,1.6-1.8,2.3-2.9c0.7-1,1.3-2,1.6-3.1c1.7-4.3,3.3-11.6,5-21.9
		c0.3-0.8,0.4-1.7,0.4-2.5c0.3-1.1,0.5-2.2,0.6-3.3c1.8,3.9,4.6,9,8.3,15.5c3.7,6.4,6.5,11.1,8.3,14.3c2.8-7.4,6.4-16.3,10.8-26.5
		C150.5,214.7,158.4,192.8,163.1,174.2L163.1,174.2z"/>
	<path fill="#28315A" d="M150.1,440.8c-0.3,0-0.7-0.1-1-0.3c-2.8-1.8-5-3.8-6.7-5.9c-0.3-0.5-0.5-0.8-0.8-1c0,0,0,0,0-0.1
		c-0.3-0.4-0.6-0.8-1-1.2c0,0-0.1-0.1-0.1-0.1c-0.1-0.4-0.3-0.7-0.4-1c-2.7-5-4.3-11.5-4.6-19.5v-2.3c0-0.2,0.6-4.4,1.5-10.2
		c0.9-6.9,2.4-17.3,4.8-32.7c1.1-7.6,3-16.2,5.6-25.7c2.7-9.7,4.5-18.4,5.1-26l0.5-5c0.4-3.5,0.7-6.7,1-9.5c0.1-1.8,0.3-3.5,0.4-5.2
		c0.4-5.5,0.8-9.9,1-13.4c-1.9-3.1-3.2-4.9-3.8-5.4c-3.6-3.2-5.6-6.5-5.9-9.7c-0.8-8.6-0.2-15.1,1.9-19.4
		c9.9-19.6,14.5-35.2,13.8-46.2c0.1-5.7,0.3-10.7,0.4-14.9c0.3-4.8,0.6-8.9,1-12c0.3-1.1,0.5-2.1,0.6-2.9c0.6-2.7,1.2-4.5,1.9-5.5
		c0.1-0.1,0.1-0.2,0.1-0.3c0-0.1,0.1-0.2,0.2-0.3c5.1-1,11.7-1.4,19.5-1.4c3.5,0.5,6.8,0.9,10.2,1.3c0.1,0,0.2,0.1,0.2,0.2
		c0,0.1,0,0.2,0,0.3c-5.2,6.9-9.6,14.2-13,21.9c-7,16-11.8,34.5-14.3,55c-0.9,13.4-0.6,29.8,1,48.8c0,0,0,0.1,0,0.1
		c-1.5,5.3-4.5,26.7-8.9,63.9l-0.3,2.7c-0.5,4.1-0.9,7.9-1.3,11.8c-0.1,1.7-0.3,3.5-0.6,5.4c-0.5,5.5-1,12-1.6,17.8
		c-1.2,12.8-2.1,24.2-2.7,32.9c-0.4,5.5-0.6,9.6-0.6,12.4c0,0,0,0.1,0,0.1C152.2,440,151.1,440.8,150.1,440.8L150.1,440.8z"/>
	<path fill="#252C48" d="M165.8,165.5c2.4-3,4.8-5.1,7.5-6.2c2.7-1.1,5.5-2.1,8.3-2.9c2.9-0.8,6.4-1.3,10.5-1.4
		c2.2-0.1,4.3-0.1,6.2,0c1.9,0.1,3.8,0.3,5.6,0.6c-3,3.2-5.9,6.4-8.5,9.7c-2.6-0.3-6-0.7-10.1-1.2
		C177.4,164.1,170.9,164.5,165.8,165.5L165.8,165.5z"/>
	<path fill="#FBE7B9" d="M74.9,194.5c0.7-2.1,1.8-3.5,3.3-4.1c1.8,1.3,4,4.4,6.6,9.5c3.6,6.9,5.6,10.6,6,11c1.4,2.2,3.7,4.1,7,5.6
		c1.8,0.7,3.1,1.9,3.9,3.7c0.1,0.3,0.3,0.6,0.4,0.8c0.4,0.8,1,2,1.6,3.5c1.1,2.2,2.4,5.2,3.9,8.9c0.1,0.4,0.3,0.7,0.4,1
		c-0.1,1.1-0.3,2.2-0.6,3.3c-0.7-1.5-1.8-2.7-3.3-3.5c0.1,0.6,0.2,1.1,0.2,1.7l-6.6,2.9c-6.8,0-12.6-0.6-17.4-1.9
		c-3.7-0.8-5.6-1.5-5.6-2c0-0.7,0.8-1.7,2.3-2.9c1.6-1.4,3.2-1.9,4.8-1.7l1.4-11.2c0-0.8-1.6-2.3-4.9-4.3c-1.4-1-2.6-1.7-3.7-2.3
		c-0.4,0.6-1,1.1-1.7,1.7c3.2,2.2,3.2,3.9,0.2,5.2c0.8,0.3,1.5,0.6,1.9,0.8c0,3-2.8,5.8-8.5,8.3c-5.7,2.5-9.2,4.3-10.6,5.4v-0.2
		c-0.3-0.6,0.4-1.5,2.1-2.9c-3-1.9-3.9-6.1-2.5-12.6c-2.1-0.4-2.4-2.6-1-6.4c1.5-3.9,3.3-6.4,5.4-7.7c2.2-1.3,4.6-1.8,7.2-1.7
		c2.6,0,4.2,0.1,4.6,0.2c0.4,0,0.9,1,1.4,2.9c0.3,0.7,0.1,1.4-0.6,2.3c1.1,1,2,2.1,2.7,3.3c0.1-0.1,0.5-0.9,1-2.3
		c0.3-0.7,0.4-1.5,0.4-2.5c0.6,0.6,1.3,1.2,2.3,1.9c1.6,1.2,2.9,1.9,3.9,2.1h0.2c-0.7-1-1.4-2.5-2-4.6c-0.6-1.9-0.8-3.2-0.6-3.9
		c-0.1-0.3-1.1-0.9-2.9-1.9c-1-0.7-1.7-1.2-2.3-1.7C74.9,195.8,74.8,194.6,74.9,194.5L74.9,194.5z"/>
	<path fill="#F2C95F" d="M80.5,201.7c-0.1,0.7,0.1,2,0.6,3.9c0.7,2,1.4,3.6,2,4.6H83c-1-0.1-2.3-0.8-3.9-2.1c-1-0.7-1.7-1.3-2.3-1.9
		c0-0.8-0.1-1.7-0.2-2.7c-0.4-2.2-0.9-4-1.3-5.4c0.6,0.4,1.3,1,2.3,1.7C79.4,200.8,80.4,201.4,80.5,201.7L80.5,201.7z"/>
	<path fill="#F2C95F" d="M75.1,220.1c-0.4-0.3-1-0.5-1.9-0.8c3-1.3,3-3-0.2-5.2c0.7-0.6,1.2-1.1,1.7-1.7c1.1,0.6,2.3,1.3,3.7,2.3
		c3.3,2.1,4.9,3.5,4.9,4.3L82,230.3c-1.5-0.3-3.1,0.3-4.8,1.7c-1.5,1.3-2.3,2.2-2.3,2.9c0,0.6,1.9,1.2,5.6,2
		c4.8,1.3,10.6,1.9,17.4,1.9l6.6-2.9c0-0.6-0.1-1.1-0.2-1.7c1.5,0.8,2.6,2,3.3,3.5c-0.1,0.4-0.3,0.9-0.4,1.2c0,0.3-0.1,0.6-0.2,1
		c-0.8,2.6-1.9,4.4-3.1,5.4c-0.7,0.6-1.4,0.8-2.3,0.8c-0.7,0.8-1.6,1.5-2.7,2.1c-1,0.4-2.3,0.9-3.9,1.2c-0.7,0.1-1.5,0.3-2.5,0.4
		c-0.7,0.1-1.6,0.3-2.7,0.4c-0.8,0-2.5-0.2-5.2-0.6c-2.6-0.4-5.4-1-8.5-1.9c-3-0.8-5.6-1.5-7.7-2.1c-2.1-0.6-3.7-1.1-4.8-1.7
		c-1.8-1-2.9-1.6-3.3-1.9c-1.3-2.4-2.7-5.2-4.4-8.5c1.4-1.1,4.9-2.9,10.6-5.4C72.3,225.9,75.1,223.2,75.1,220.1L75.1,220.1z"/>
	<path fill="#D9E3EB" d="M108.5,231.1c0-0.7,0.4-0.5,1.2,0.4c0.6,3.5,1.2,6.2,1.9,8.3c0,0.8-0.1,1.7-0.4,2.5
		c-1.7,10.3-3.3,17.6-5,21.9c-0.4,1.1-1,2.1-1.6,3.1c-0.7,1.1-1.5,2.1-2.3,2.9c-0.6,0.6-1.3,1-2.1,1.4c-0.7,0.3-1.4,0.5-2,0.6
		c-0.4-2.1-0.9-4.9-1.5-8.5c0.7-1.2,0.9-2.1,0.6-2.7c-0.8-1.9-1.4-3.5-1.9-4.8c0-0.1-0.1-0.3-0.2-0.4c-1-1.8-1.8-3.5-2.5-5.2
		c0-0.3-0.1-0.6-0.2-0.9c1-0.1,1.8-0.3,2.5-0.4c1.7-0.4,3-0.8,3.9-1.2c1.1-0.6,2-1.2,2.7-2.1c0.8,0,1.6-0.3,2.3-0.8
		c1.2-1,2.3-2.7,3.1-5.4c0.1-0.4,0.2-0.7,0.2-1c0.1-0.4,0.3-0.8,0.4-1.2c0.3-1.1,0.5-2.2,0.6-3.3
		C108.4,233.3,108.5,232.2,108.5,231.1L108.5,231.1z"/>
	<path fill="#35417D" d="M169.1,291.4c-0.1,0-0.3-0.1-0.3-0.2c-1.6-19-2-35.4-1-48.9c2.5-20.5,7.3-39.1,14.3-55.2
		c3.4-7.7,7.8-15.1,13.1-22c2.7-3.4,5.5-6.7,8.5-9.8c1.3-1.5,2.6-2.8,3.7-3.9c1.7-1.5,3.5-3.2,5.6-5c0,0,0.1-0.1,0.2-0.1
		c0,0,0.1,0,0.1,0c0.1,0,0.2,0.1,0.2,0.2c0,0.7-0.1,1.4-0.2,2.3c-0.4,3.5-0.9,6.7-1.2,9.1c-0.1,0.8-0.2,1.6-0.3,2.3l-0.1,0.8v0.2
		c0,0.2-0.1,0.4-0.3,0.5l-0.1,0.3c-2.4,5.8-4,9.6-4.8,11.6c-2.4,5.7-4.4,10.6-6.2,14.9l-1.1,2.5c-0.5,1.3-1,2.5-1.4,3.7
		c-11.9,28.5-18.3,44.7-19.7,49.4c-2.2,8.2-4.2,16.6-5.8,24.8c-1.2,7-2.2,14.4-2.9,21.9C169.3,291.3,169.2,291.4,169.1,291.4
		L169.1,291.4z"/>
	<path fill="#B5CBD6" d="M169.1,291.1c0.7-7.5,1.6-14.8,2.9-21.9c1.6-8.4,3.6-16.7,5.8-24.8c1.4-4.8,7.9-21.3,19.7-49.5
		c0.4-1.1,0.9-2.3,1.4-3.7c0.1,6.6,0.7,11.4,1.6,14.5c6.6-7,11-10.6,13.2-10.6c0.8,0.6,1.5,1.4,2.1,2.7c-1.9,1.5-4.1,3.7-6.4,6.4
		c-3.6,4.7-5.6,7.3-6.2,7.7c-0.7-0.3-1.7-0.9-2.9-1.9c-1.7-1.4-2.6-2.6-2.7-3.7c-4,10.5-7.4,19.8-10.3,27.9
		c-5.5,15.6-8.3,25.1-8.3,28.6c2.9,1.4,6,2.8,9.3,4.1c6.4,2.9,10.1,9.2,11.2,18.8h-0.6c-0.8-1-3.3-2.3-7.4-3.9
		c-3.7-1.5-6.1-2.3-7-2.3c-0.6,0-1.2,0.1-1.9,0.4c-0.3,0.1-0.6,0.4-1,0.6c1.1,8.7,0.5,22-1.9,39.9c-2.2,17.8-5.1,34-8.5,48.6
		c-0.3,0.3-0.6,0.5-1,0.6c-0.1,0.1-0.3,0.3-0.6,0.4c-5,2.6-8.4,4.2-10.3,4.8h-1.3c0.3-1.8,0.5-3.6,0.6-5.4c0.6-4.7,1.1-9.5,1.6-14.5
		C164.6,317.7,167.6,296.4,169.1,291.1L169.1,291.1z"/>
	<path fill="#1E1F2D" d="M97.3,261.1c0.3,0.6,0.1,1.4-0.6,2.7c0.6,3.6,1,6.4,1.5,8.5c-0.6,0-1.1,0-1.5,0c-1.4,0-2.6-0.1-3.5-0.4
		c0.8-7.8,1.6-13,2.3-15.5C95.8,257.6,96.4,259.2,97.3,261.1L97.3,261.1z"/>
	<path fill="#040404" d="M157.9,374.9h1.3c1.9-0.6,5.4-2.1,10.3-4.8c0.3-0.1,0.5-0.3,0.6-0.4c0.4-0.1,0.7-0.3,1-0.6
		c2.3-1.2,4.9-2.7,7.8-4.3c1.1-0.6,2.2-1.1,3.1-1.6c0.4,1.4,4.4,5.1,12,11.2c5.7,4.4,12.6,8.2,20.9,11.4c1.1,35.2,3.5,57.5,7.2,66.8
		c-3.7-0.8-6.3-2.5-7.9-5c-2.6-4.3-3.5-12.1-2.5-23.6c3-13.6,0.7-24.3-7-32.1c-4.3-4.3-11.4-10.3-21.5-18
		c-7,3.6-11.1,14.4-12.2,32.3c-1.1,16.4-3.3,24.6-6.6,24.6c-1.7,0-4.8-1.4-9.3-4.2c-0.6-0.4-1.1-0.7-1.6-1
		c0.6-8.1,1.4-19.1,2.7-32.9C156.8,387.4,157.3,381.4,157.9,374.9L157.9,374.9z"/>
	<path fill="#734C16" d="M195.8,50.4h-0.2c-2.6-0.7-4.9-0.5-6.8,0.6c-0.1,1-0.4,1.9-0.6,2.9c-2.9,0.1-4.4-1.1-4.5-3.7
		c2.2-0.4,5.2-1.1,8.9-2.1c2.3-0.8,5-1.7,7.9-2.7c9.4-3.2,15.7-4.8,19-4.8c2.4,0,5.2,0.7,8.5,2.1c1.7,0.7,3.1,1.4,4.2,2.1l0.2-0.2
		l3.1-0.4c5.4,1.1,8.4,1.6,9.1,1.4c0-0.1-0.8-2.6-2.5-7.4h0.4c3.7,2.5,6.9,4.4,9.5,5.8c-0.1,0.3-0.4,0.5-0.6,0.6
		c-5.5,5-9.4,9.2-11.6,12.6c-0.4,0.7-0.8,1.4-1,2.1c-6.2-7.9-12.3-11.8-18.2-11.8c-0.3,0-2.6,0.5-7,1.5c-5,1-8.5,1.6-10.6,1.9
		C200.9,51.1,198.5,51,195.8,50.4L195.8,50.4z"/>
	<path fill="#F6D585" d="M195.6,50.4h0.2c2.7,0.6,5.1,0.7,7,0.4c2.1-0.3,5.6-0.9,10.6-1.9c4.4-1,6.7-1.5,7-1.5
		c5.9,0,12,3.9,18.2,11.8c1.2,9.2,4.3,17.3,9.3,24.2c2.1,3,4.1,5.6,6,7.8c-0.1,2.1-0.3,6-0.4,11.8c0.6-0.6,2.4-0.6,5.6,0v-7.5
		c0.3,0.3,0.6,0.5,0.8,0.6c0.7-2.1,1.3-3.7,1.6-4.8c0.4-0.3,1.3-0.9,2.7-1.9c0.8-0.6,2-0.8,3.5-0.8c0.4,0,0.7,0.2,1,0.6
		c0.7,0.4,1.3,1.2,1.9,2.3c0.8,1.7,1.2,3.4,1.2,5.2c0,3.1-0.9,6-2.7,8.7c-0.8,1.2-1.8,2.5-3.1,3.7c-3.3,3-6,4.6-8.1,4.6
		c-0.3,0-0.6-0.1-1-0.4c-0.4-0.1-0.8-0.4-1.2-0.8c-0.8,1.1-1.7,2.2-2.7,3.3c-5,6.1-9.9,11-14.7,14.7c0.3-1.1,0.5-2.3,0.6-3.5
		c3.2-16,4.8-28.1,4.8-36.2c0-1.8-3.6-8.5-10.8-20.1c-7-11.3-10.9-17-11.6-17c-1.3,0-3.2,0.8-6,2.3c-2.8,1.4-4.5,2.1-5.2,2.1
		c-2.5,0-5.8-1.5-9.9-4.4C199,53,197.4,51.8,195.6,50.4L195.6,50.4z"/>
	<path fill="#9C6719" d="M192.5,48.2c-3.7,1-6.7,1.7-8.9,2.1c0-0.3,0-0.5,0-0.6c0-3.2,0.1-6.4,0.4-9.7c0.3-3.4,4.4-8.5,12.4-15.1
		c9-7.6,18.5-12.4,28.5-14.5c10.2-2.2,18-1.9,23.4,0.8c5.4,2.6,9.2,4.9,11.6,6.8c0.6,1.5,1.4,3.3,2.5,5.4c1.4,2.6,2,4.1,2,4.5v0.2
		c0,0-0.1,0.1-0.2,0.2c-1.7,1.3-2.8,2.2-3.3,2.9c-0.8-0.8-5.7-3.4-14.7-7.7c-2.4,3.9-3.8,6-4.4,6.4c1.8,1.4,4.6,4,8.5,7.8
		c1.7,1.5,3,2.8,3.9,3.9c5.1-4.4,8.8-7,11.2-7.7c3-0.8,5.1-1.7,6.2-2.7c2.3,0.7,5,4.4,8.1,11.2c3,6.8,3.9,16.4,2.7,29
		c-1.1,12.4-2.6,23.3-4.3,32.7c-1.7,8.5-1.4,33.1,0.8,73.7c-5-3.6-10.1-6.5-15.3-8.7c-2.6-1.2-4.7-2-6.2-2.3c0.6-3.9,1.2-9,1.9-15.5
		c1.4-12.8,2.3-19.8,2.7-20.9l6,37.7l-0.4-32.9c0-8.1,0.6-18,1.7-29.6c1.8-2.7,2.7-5.6,2.7-8.7c0-1.8-0.4-3.5-1.2-5.2
		c-0.6-1.1-1.2-1.9-1.9-2.3c-0.3-0.4-0.6-0.6-1-0.6c-1.5,0-2.7,0.3-3.5,0.8c-1.4,1-2.3,1.6-2.7,1.9c-0.4,1.1-1,2.7-1.6,4.8
		c-0.3-0.1-0.5-0.3-0.8-0.6c-1.6-1.1-3.4-2.6-5.2-4.4c-1.9-2.2-3.9-4.8-6-7.8c-5-6.9-8.1-15-9.3-24.2c0.3-0.7,0.6-1.4,1-2.1
		c2.2-3.5,6.1-7.7,11.6-12.6c0.3-0.1,0.5-0.3,0.6-0.6c-2.6-1.4-5.8-3.3-9.5-5.8h-0.4c1.7,4.8,2.5,7.3,2.5,7.4
		c-0.7,0.1-3.7-0.3-9.1-1.4l-3.1,0.4l-0.2,0.2c-1.1-0.7-2.5-1.4-4.2-2.1c-3.3-1.4-6.1-2.1-8.5-2.1c-3.3,0-9.6,1.6-19,4.8
		C197.4,46.5,194.8,47.3,192.5,48.2L192.5,48.2z M205.1,24c0-0.3,0.7-0.5,2-0.6c0.4,0,1,0,1.7,0c3,0,4.7-0.1,5-0.2
		c-0.6,0.8-2.4,2.4-5.6,4.8c-2.6,2.1-4.3,3.5-4.9,4.3c0.1,0,0.3,0.1,0.4,0.2c0.6-0.3,2.3-1.4,5.2-3.3c3.7-2.2,8.2-4.4,13.4-6.6
		c4.4-1.8,8.6-2.5,12.4-2.1c2.5,0.3,4.1-0.2,4.8-1.4c-0.4,0-2.7-0.3-6.8-0.9c-2.2-0.3-3.9-0.5-5.2-0.8c-1.2-0.3-1.9-0.5-2.1-0.8
		h-2.5c-1,0.3-1.9,0.6-2.9,1c-7.7,3.3-13,5.5-15.9,6.4H205.1L205.1,24z M251.9,64.7v-8.9c5.7,12.3,9,18.6,9.9,19
		c0-1.8-1-5.2-2.9-10.1c3.3-2.2,6.6-3.9,10-5c4.4,8.1,6.6,12.8,6.6,13.9c0.3-1.1,0.9-3,1.9-5.6c0.8-2.6,1.2-5.3,1.2-8.1
		c0-5.4-1.1-10.2-3.3-14.5c-0.1-0.4-0.4-0.8-0.6-1.2c-0.6,0.7-1.3,1.4-2.3,2.3c-1.9,1.8-3,2.7-3.1,2.7c-0.1,0-1.3-0.6-3.3-1.6
		c-1.9-1.3-3.6-1.9-5-1.9c1.3,1.2,2.7,4.1,4.3,8.5v3.1c-7.2-5-11.7-7.9-13.4-8.7c-2.5,3.2-3.9,5-4.2,5.6c-0.3,0.3-0.4,1.5-0.4,3.7
		c0.1,3.6,0.5,7.2,1.2,10.8c1.4,7.3,3.7,11.5,6.8,12.6v-0.4c-1.6-5.7-2.5-9.4-2.5-11.4L251.9,64.7L251.9,64.7z"/>
	<path fill="#734C16" d="M207.1,23.3c-1.4,0.1-2,0.3-2,0.6h-1c2.9-1,8.2-3.1,15.9-6.4c1-0.4,1.9-0.7,2.9-1h2.5
		c0.1,0.3,0.8,0.6,2.1,0.8c1.2,0.3,3,0.6,5.2,0.8c4.1,0.6,6.4,0.9,6.8,0.9c-0.7,1.2-2.3,1.7-4.8,1.4c-3.9-0.4-8,0.3-12.4,2.1
		c-5.2,2.2-9.7,4.4-13.4,6.6c-2.9,1.9-4.6,3-5.2,3.3c-0.1-0.1-0.3-0.2-0.4-0.2c0.7-0.8,2.3-2.3,4.9-4.3c3.2-2.3,5-3.9,5.6-4.8
		c-0.3,0.1-1.9,0.2-5,0.2C208.1,23.3,207.6,23.3,207.1,23.3L207.1,23.3z"/>
	<path fill="#D89312" d="M251.9,55.8v8.9l1,4.8c0,1.9,0.8,5.7,2.5,11.4v0.4c-3.2-1.1-5.4-5.3-6.8-12.6c-0.7-3.6-1.1-7.2-1.2-10.8
		c0-2.2,0.1-3.4,0.4-3.7c0.3-0.6,1.7-2.4,4.2-5.6c1.8,0.8,6.3,3.7,13.4,8.7v-3.1c-1.6-4.4-3.1-7.2-4.3-8.5c1.4,0,3,0.6,5,1.9
		c2,1.1,3.2,1.6,3.3,1.6c0.1,0,1.2-0.9,3.1-2.7c1-0.8,1.7-1.6,2.3-2.3c0.3,0.4,0.5,0.8,0.6,1.2c2.2,4.3,3.3,9.1,3.3,14.5
		c0,2.7-0.4,5.4-1.2,8.1c-1,2.6-1.6,4.5-1.9,5.6c0-1.1-2.2-5.7-6.6-13.9c-3.3,1.1-6.6,2.8-10,5c2,5,2.9,8.4,2.9,10.1
		C260.8,74.5,257.5,68.1,251.9,55.8L251.9,55.8z"/>
	<path fill="#FBE7B9" d="M188.7,51.1c1.9-1.1,4.2-1.3,6.8-0.6c1.8,1.4,3.4,2.6,4.8,3.5c4.1,2.9,7.4,4.4,9.9,4.4
		c0.7,0,2.4-0.7,5.2-2.1c2.7-1.5,4.7-2.3,6-2.3c0.7,0,4.6,5.7,11.6,17c7.2,11.6,10.8,18.3,10.8,20.1c0,8.1-1.6,20.2-4.8,36.2
		c-0.1,1.2-0.3,2.4-0.6,3.5c-2.1,1.5-4.2,2.8-6.2,3.9c-1.2,0.7-2.6,1.3-3.9,1.9c-3.3,1.1-6.5,1.7-9.5,1.7c-1.5,0-3-0.1-4.6-0.4
		c-4-1-7.6-3-10.8-6c-3.9-4-7-9.7-9.5-17c-1.1-3.6-2.4-7.7-3.8-12.2c-1.2-4.7-1.6-12.7-1-24.2c-1.8-3.3-2.6-6.4-2.3-9.3l1.2-15.1
		C188.4,53,188.6,52,188.7,51.1L188.7,51.1z"/>
	<path fill="#734C16" d="M254.3,41.8c-1-1.1-2.3-2.4-3.9-3.9c-3.9-3.9-6.7-6.5-8.5-7.8c0.6-0.4,2-2.6,4.4-6.4
		c9,4.3,13.9,6.8,14.7,7.7c0.6-0.7,1.7-1.7,3.3-2.9c0.1-0.1,0.2-0.2,0.2-0.2v-0.2c0-0.4-0.7-1.9-2-4.5c-1.1-2.1-1.9-3.9-2.5-5.4
		c5,2.9,8.9,7.4,11.8,13.4c-1.1,1-3.2,1.9-6.2,2.7C263.2,34.8,259.4,37.3,254.3,41.8L254.3,41.8z"/>
	<path fill="#7E581D" d="M253.5,103.2c0.1-5.8,0.3-9.7,0.4-11.8c1.8,1.8,3.5,3.2,5.2,4.4v7.5C255.9,102.7,254.1,102.7,253.5,103.2
		L253.5,103.2z"/>
	<path fill="#734C16" d="M266.1,109.4c1.2-1.2,2.3-2.5,3.1-3.7c-1.1,11.6-1.7,21.5-1.7,29.6l0.4,32.9l-6-37.7
		c-0.4,1.1-1.3,8.1-2.7,20.9c-0.7,6.5-1.3,11.7-1.9,15.5c-0.1-0.1-0.3-0.2-0.6-0.2c-0.1-0.4-0.3-0.8-0.4-1.2
		c-2.1-5.4-3.7-9.1-4.8-11.2c0.1-12.8,0.6-25.6,1.4-38.3c1-1.1,1.9-2.2,2.7-3.3c0.4,0.4,0.8,0.7,1.2,0.8c0.4,0.3,0.8,0.4,1,0.4
		C260.1,114,262.8,112.5,266.1,109.4L266.1,109.4z"/>
	<path fill="#252C48" d="M257.5,167c1.5,0.3,3.6,1,6.2,2.3c5.2,2.2,10.3,5.1,15.3,8.7c4.3,3,8.5,6.5,12.6,10.6
		c6.2,5.9,10.3,10.8,12.4,14.7c-6.4,1.7-10.8,3.8-13.2,6.2c-2.9-2.4-8.2-7-15.9-13.9c-6.8-5.7-10.8-8.5-12.2-8.5
		c-1.5,0-4.7,16.8-9.7,50.3c-0.3,4.8-3.7,11.4-10.2,19.7c-7.3,9.2-12.4,15.8-15.3,19.7c0.3-0.4,0.5-0.9,0.8-1.4
		c11.2-16,17.3-25.5,18.4-28.6c2.2-6.1,4-15.2,5.4-27.3c1.4-11.7,4.3-23.9,8.7-36.6c0-0.8-0.1-1.5-0.2-2.1c-0.1-1.2-0.2-2-0.2-2.3
		c-0.3-1.4-0.9-3.4-1.7-6c-0.4-1.3-0.9-2.6-1.4-3.9c-0.1-0.6-0.3-1.1-0.4-1.7C257.1,166.7,257.3,166.8,257.5,167L257.5,167z"/>
	<path fill="#35417D" d="M213.6,310.6c-0.1,0-0.2-0.1-0.3-0.2c-0.4-3.1-0.8-6.3-1-9.5c-2.2-21.9,0.2-42.4,7.3-61
		c3-7.8,6.7-17.1,11.2-28.4c0.7-1.4,1.3-2.9,1.9-4.3c0.6-1.2,1-2.4,1.4-3.5c0.1-0.2,0.2-0.3,0.2-0.5c0.1-0.1,0.1-0.3,0.2-0.4
		c0.3-0.7,0.6-1.5,0.8-2.2c3.5-8,7.1-16.6,10.8-25.5c1.9-4.2,3.7-8.1,5.4-12v-8.9c0-0.1,0.1-0.2,0.2-0.3c0,0,0,0,0.1,0
		c0.1,0,0.2,0.1,0.2,0.1c1.1,2.1,2.7,5.9,4.8,11.2c0.1,0.4,0.3,0.9,0.4,1.3c0.1,0.3,0.1,0.6,0.2,0.8c0.1,0.3,0.1,0.6,0.2,0.8
		c0.6,1.4,1,2.7,1.4,3.9c0.8,2.7,1.4,4.7,1.7,6c0,0,0,0,0,0.1c0,0.2,0,1,0.2,2.2c0.1,0.6,0.2,1.3,0.2,2.1c0,0,0,0.1,0,0.1
		c-4.4,12.6-7.3,25-8.7,36.6c-1.4,12.1-3.2,21.3-5.4,27.4c-1.1,3.1-7.1,12.4-18.4,28.6c-0.3,0.6-0.6,1.1-0.8,1.4
		c-0.3,0.6-0.7,1.2-1,1.9c-0.3,0.6-0.7,1.2-1,1.8c-5.8,10.3-9.7,20.4-11.8,29.9C213.8,310.5,213.7,310.6,213.6,310.6L213.6,310.6z"
		/>
	<path fill="#28315A" d="M243.3,460.2c-0.6,0-1.1,0-1.6-0.1c-1.5-0.1-2.8-0.2-4.1-0.2c-7.5-0.7-11.7-1.7-13-3
		c-0.9-0.9-1.7-2.3-2.6-4.2c-3.7-9.4-6.2-31.9-7.3-67v-2.3c1-30.1,0.5-54.6-1.4-73c0,0,0-0.1,0-0.1c2-9.6,6-19.7,11.8-30.1
		c0.3-0.6,0.7-1.2,1-1.8c0.4-0.6,0.7-1.3,1.1-1.9c2-2.6,6.6-8.6,15.3-19.7c6.4-8.2,9.8-14.7,10.1-19.5c7.5-50.6,9.2-50.6,10-50.6
		c1.5,0,5.5,2.8,12.4,8.5c7.9,7.1,13,11.4,15.7,13.7c2.5-2.4,7-4.5,13.2-6.1c0,0,0,0,0.1,0c0.1,0,0.2,0.1,0.2,0.1
		c1,1.8,1.5,3.3,1.7,4.6c0.3,2.3,0.4,4.3,0.4,6c0,0.1,0,0.2-0.1,0.2c-3.6,2.4-7.2,5.7-10.7,9.7c-4,4.5-6.5,8.2-7.5,11
		c7.2,2,11,11.9,11.3,29.3c-0.8,24.7-0.5,44.9,0.8,60.2c0,0.1-0.1,0.3-0.2,0.3l-8.6,1.2c1.7,2,4.4,4.5,7.9,7.3c2.7,2.3,4,4,4,5.4
		c0,3.5-2.2,13.2-6.6,29c-7.1,25.4-12.4,44.6-15.7,57.1c0,0.1-0.1,0.1-0.1,0.2c0,0-0.1,0-0.1,0c0,0-0.1,0-0.1,0
		c-1.9-1.1-4-2-6.1-2.9h-0.2c0,0-0.1,0-0.1,0c-0.3-0.1-0.7-0.3-1-0.4c-0.3-0.1-0.7-0.3-1-0.4c-3.7-1.3-7.3-2-10.8-2h-3.9
		c-0.1,0-0.2,0-0.2-0.1c0-0.1-0.1-0.2,0-0.2c3.5-9.8,6.2-20.5,8.3-31.8l0-0.6c0,0,0,0,0-0.1c0.3-1.6,0.6-2.6,0.8-3.3
		c0.3-0.8,3.4-11.7,6.4-22.1c4-14.1,5.7-23.8,5-29c-1.4-14.7-2.4-25.3-3.1-31.3c-0.4-3.2-0.7-6.6-1.2-10c-0.5-4.3-1-8.8-1.5-13.5
		l-0.2-1.6c-0.8-7.3-1.6-14.8-2.5-22.8c-1.6,1.2-3.6,2.2-6.1,3.3c-5.3,2.3-7.4,3.4-8.3,4c0.6,1.3,2,3.3,4.2,6.2
		c2.8,3.2,4.2,5.4,4.2,6.6c0,2-1.9,6.8-5.8,14.8c-4.7,9.6-7.6,15.1-8.9,17.2c-1.3,2.1-5.7,3.5-13.5,4c-0.9,0.1-1.8,0.1-2.6,0.1
		c-6,0-10.2-1.3-12.5-4l-0.3,0.5l8.1,8.3l20.4,4.5c0.1,0,0.1,0.1,0.2,0.1c0,0.1,0,0.1,0,0.2c-5,18.6-5.6,20.4-5.9,20.6
		c-0.1,0.1-0.1,0.1-0.2,0.1c0,0-0.1,0-0.1,0c-0.1,0-0.2-0.1-0.2-0.2v0c-0.9,0.7-2.4,1.5-4.6,2.4c0,0-3.8,1.7-4.2,1.9
		c8.2,1.8,12.8,5.7,13.9,11.7c2.9,14.2,6.2,26.4,9.9,36.2c0,0,0,0.1,0,0.1c-0.7,3.8-1.1,7.8-1.2,12c-0.4,11.9-1.5,18.2-3.2,19.2
		c-3.2,1.8-5.3,7-6.3,15.5c-0.4,4.2-0.6,11.7-0.6,22.3c0,0.1-0.1,0.2-0.2,0.3C244.6,460.1,243.9,460.2,243.3,460.2L243.3,460.2z"/>
	<path fill="#9C6719" d="M201.8,140.9c0.7-3.5,1.2-6.5,1.6-9.1c3.2,3,6.8,5,10.8,6c-0.1,1.8-0.4,3.8-0.8,6c0,1-0.1,1.9-0.2,2.9
		c-1.9,1.7-3.8,3.3-5.6,5c-1.2,1.3-2.5,2.6-3.7,3.9c-1.8-0.3-3.6-0.5-5.6-0.6C199.5,151.2,200.7,146.6,201.8,140.9L201.8,140.9z"/>
	<path fill="#F7DFA1" d="M213.2,146.7c0.1-1,0.2-1.9,0.2-2.9c2,2,3.7,3.4,4.9,4.1c2.1,1.3,4.9,1.9,8.5,1.9c1.8,0,3.5-0.3,5.2-0.8
		c0.4-0.1,0.8-0.3,1.3-0.4c-3.5,21.1-5.4,32.4-5.8,33.8c-1.1,3.3-4.2,4.9-9.1,4.9c-1.9,0-5.2-3.5-9.7-10.3c0.8-3.2,1.6-8.2,2.5-15.1
		c0.1-0.1,0.2-0.3,0.2-0.4v-0.2c0.1-1,0.3-2,0.4-3.1c0.4-2.7,0.8-5.8,1.2-9.1C213.1,148.1,213.2,147.4,213.2,146.7L213.2,146.7z"/>
	<path fill="#F2C553" d="M213.4,143.8c0.4-2.2,0.7-4.2,0.8-6c1.5,0.3,3,0.4,4.6,0.4c3,0,6.2-0.6,9.5-1.7c1.4-0.6,2.7-1.2,3.9-1.9
		c2-1.1,4.1-2.4,6.2-3.9c4.8-3.7,9.7-8.6,14.7-14.7c-0.8,12.7-1.3,25.5-1.4,38.3c0,1.3,0,2.6,0,3.9c0,1.8,0,3.5,0,5
		c-1.8,4.1-3.6,8.1-5.4,12c-2.2,2.1-4.4,3.9-6.6,5.6c-2.1,1.5-5.1,3.3-9.1,5.4c-3.7,1.9-8.5,3.9-14.5,5.8c-0.4,0.1-0.9,0.3-1.5,0.4
		c-0.1-0.3-0.3-0.5-0.4-0.6c-3-4.8-5.2-8.8-6.4-12c-0.8-1.9-1.4-3.6-1.7-5c0-0.4,0-0.7,0-1c0.8-2.1,2.5-6.1,5-12
		c-0.8,6.9-1.7,11.9-2.5,15.1c4.5,6.9,7.8,10.3,9.7,10.3c5,0,8-1.6,9.1-4.9c0.4-1.4,2.3-12.6,5.8-33.8c-0.4,0.1-0.8,0.3-1.3,0.4
		c-1.6,0.6-3.4,0.8-5.2,0.8c-3.6,0-6.4-0.6-8.5-1.9C217.1,147.2,215.4,145.8,213.4,143.8L213.4,143.8z"/>
	<path fill="#F1F6F9" d="M239.7,180.8c2.2-1.6,4.4-3.5,6.6-5.6c-3.7,9-7.3,17.5-10.8,25.5c-0.3,0.8-0.5,1.6-0.8,2.3
		c-0.1,0.3-0.3,0.6-0.4,0.9c-0.4,1.1-0.9,2.3-1.4,3.5c-2.5,1.3-6.1,2.8-10.7,4.8c-1,0.4-2,0.8-3.1,1.2c0-5.5-0.6-9.9-1.9-13
		c-0.4-1-0.8-1.8-1.3-2.5c-0.6-1.3-1.2-2.1-2.1-2.7c-2.2,0-6.6,3.5-13.2,10.6c-1-3.1-1.5-7.9-1.6-14.5c1.9-4.7,4.3-10.5,7.2-17.4
		c0,0.3,0,0.6,0,1c0.3,1.4,0.9,3,1.7,5c1.2,3.2,3.4,7.2,6.4,12c0.1,0.1,0.3,0.3,0.4,0.6c0.6-0.1,1.1-0.3,1.5-0.4
		c5.9-1.9,10.7-3.9,14.5-5.8C234.6,184.1,237.6,182.3,239.7,180.8L239.7,180.8z"/>
	<path fill="#D9E3EB" d="M215.8,197.8c0.4,0.7,0.8,1.5,1.3,2.5c1.2,3.2,1.9,7.5,1.9,13c1.1-0.4,2.1-0.8,3.1-1.2
		c0.1,1,0.2,2.1,0.2,3.3h2.7c1.9-1.6,3.9-2.9,6-3.7c-4.3,10.8-8,20.2-11.2,28.4c-7,18.6-9.4,38.9-7.2,60.8c0.3,3.2,0.6,6.4,1,9.5
		c1.9,18.5,2.4,42.8,1.4,73c0,0.7,0,1.5,0,2.3c-8.3-3.2-15.2-7-20.9-11.4c-7.6-6.1-11.6-9.8-12-11.2c-1,0.6-2,1.1-3.1,1.6
		c-2.9,1.7-5.5,3.1-7.8,4.3c3.4-14.6,6.3-30.8,8.5-48.6c2.3-17.9,3-31.2,1.9-39.9c0.4-0.3,0.7-0.5,1-0.6c0.7-0.3,1.3-0.4,1.9-0.4
		c1,0,3.3,0.7,7,2.3c4.1,1.7,6.6,3,7.4,3.9h0.6c-1.1-9.7-4.8-15.9-11.2-18.8c-3.3-1.4-6.4-2.7-9.3-4.1c0-3.5,2.8-13,8.3-28.6
		c2.9-8.1,6.3-17.4,10.3-27.9c0.1,1.1,1,2.3,2.7,3.7c1.2,1,2.2,1.6,2.9,1.9c0.6-0.4,2.6-3,6.2-7.7
		C211.8,201.5,213.9,199.3,215.8,197.8L215.8,197.8z"/>
	<path fill="#B5CBD6" d="M222.3,215.4c0-1.2-0.1-2.3-0.2-3.3c4.7-1.9,8.3-3.5,10.7-4.8c-0.6,1.4-1.2,2.8-1.9,4.3
		c-2.1,0.8-4.1,2.1-6,3.7H222.3L222.3,215.4z"/>
	<path fill="#252C48" d="M248.1,304.2c1.4-2.2,4.3-8,8.9-17.2c3.9-7.8,5.8-12.7,5.8-14.7c0-1.1-1.4-3.3-4.2-6.4
		c-2.3-3-3.8-5.2-4.3-6.4c1-0.7,3.8-2.1,8.5-4.1c2.6-1.1,4.8-2.3,6.4-3.5c1,8.8,1.9,17.1,2.7,24.8c-2.5,7.8-5.8,19-9.9,33.3
		c-0.4,1.8-0.9,3.6-1.5,5.4c-1.2,4.3-2.2,8.5-2.9,12.8c-0.4,2.8-0.8,5.5-1,8.3c-0.1,4,0,7.9,0.4,11.6c0.1,1.1,0.3,2.2,0.4,3.3
		c0.6,3.1,2.1,9.7,4.6,20.1c0.4,1.5,0.8,3.1,1.2,4.8c0.7,3,1.4,6.3,2.3,9.9c0,0.1,0,0.3,0,0.6c-2.1,11.4-4.8,22.1-8.3,31.9h3.5
		c-2.6,4.4-4.5,9.6-5.6,15.5c-0.6,3-0.9,5.7-1,8.1c0,0.8,0,1.6,0,2.5c0.1,1.4,0.3,2.6,0.4,3.7c0.8,3.6,1.8,5.8,2.9,6.6
		c0.7,1.4,1.3,2.1,1.9,2.1c0.7-0.1,1.3-1,1.9-2.7c1.2-3.3,1.9-7.1,2.1-11.4c0.4,0.7,0.8,1.4,1.2,2.3c0.1,0.1,0.2,0.3,0.2,0.4
		c0.3,0.6,0.6,1.2,0.8,1.9c1.5,3,2.3,4.8,2.3,5.2c0,1.2-0.1,2.7-0.4,4.4c-2.9,0.4-5.5,0.8-7.8,1.2c-6.2,0.8-11,1.3-14.3,1.5
		c0-10.8,0.2-18.2,0.6-22.3c1-8.7,3.1-13.9,6.4-15.7c1.7-1,2.7-7.3,3.1-19c0.1-4.3,0.6-8.3,1.3-12c-3.7-9.8-7.1-21.9-10-36.2
		c-1.1-6.1-5.9-9.9-14.5-11.6c0.3-0.1,1.9-0.9,5-2.3c2.6-1.1,4.3-2,5-2.7v0.6c0.3-0.3,2.2-7.1,5.8-20.5l-20.5-4.5l-8.3-8.5l0.6-1
		c2.5,3.2,7.5,4.6,15.1,4.1C242.5,307.5,246.9,306.2,248.1,304.2L248.1,304.2z"/>
	<path fill="#252C48" d="M287.7,234.8c1-2.9,3.5-6.7,7.6-11.4c3.6-4,7.2-7.3,10.8-9.7c0,1.1,0,2,0,2.7c0,1.6-0.6,4.7-1.6,9.1
		c3,15.9,5.2,30.9,6.4,44.9c1.8,19.4,2.8,34.3,2.9,44.7c0.3,10.2-0.4,21.8-2.1,34.8c-1.6,12.8-4.2,27.2-7.7,43
		c-3.2,15.2-6.4,28.9-9.7,41.2l-0.9-0.2c-1.9-1.8-3.8-3.4-5.8-4.9c0,0-0.1,0-0.2,0c-0.8-0.7-1.7-1.3-2.5-1.9c-1.4-1-2.8-1.9-4.3-2.7
		c3.3-12.6,8.6-31.6,15.7-57.1c4.4-15.9,6.6-25.5,6.6-29c0-1.2-1.3-3-3.9-5.2c-3.9-3-6.6-5.6-8.3-7.7l9.1-1.3
		c-1.4-15.3-1.7-35.4-0.9-60.2C298.8,246.4,295,236.6,287.7,234.8L287.7,234.8z"/>
	<path fill="#151515" d="M229.1,547c-3.5,0-7.2-0.1-11.2-0.2c-8.2-0.6-16.2-1.5-23.8-2.9l-2.5-0.4c-11.3-2.3-19.8-5.5-25.1-9.4
		c-0.8-0.6-1.4-1.2-1.9-1.7c-1.3-1.3-4.4-3.6-9.3-7c-2.6-2.1-4.4-3.7-5.2-4.8c-0.9-1.2-1.6-7.1-2.3-18.2c-0.6-11-1.5-23.7-2.9-37.8
		c-1.2-13.2-2-23.8-2.5-30c0-0.1,0.1-0.2,0.2-0.3c0,0,0.1,0,0.1,0c0.1,0,0.2,0,0.2,0.1c1.7,2,3.9,4,6.6,5.7c0.2,0.1,0.5,0.2,0.7,0.2
		c0.8,0,1.7-0.8,2.6-2.3c0-2.8,0.2-6.9,0.6-12.4c0-0.1,0.1-0.2,0.1-0.2c0,0,0.1,0,0.1,0c0,0,0.1,0,0.1,0c0.5,0.3,1,0.6,1.7,1.1
		c4.5,2.7,7.6,4.1,9.2,4.1c2.2,0,5-4.2,6.4-24.4c1.1-18,5.2-28.9,12.4-32.5c0,0,0.1,0,0.1,0c0.1,0,0.1,0,0.2,0.1
		c10,7.7,17.3,13.8,21.6,18c7.7,7.8,10.1,18.6,7.1,32.3c-0.9,11.3-0.1,19.2,2.5,23.4c1.5,2.4,4.1,4.1,7.7,4.9c0.1,0,0.1,0.1,0.2,0.1
		c0.8,1.8,1.6,3.2,2.4,4c1.2,1.2,5.5,2.1,12.7,2.8c0.1,0,0.2,0.1,0.2,0.1c1.5,2.9,2.3,7.3,2.3,12.9c0,7.9-0.1,13.3-0.4,16.4
		c-0.6,5.7-3.3,27.4-7.2,57.9c0,0.1-0.1,0.2-0.3,0.2H229.1z"/>
	<path fill="#040404" d="M241.7,459.8c1,0.1,2.1,0.1,3.5,0c3.3-0.1,8.1-0.6,14.3-1.5c2.3-0.4,4.9-0.8,7.8-1.2c-0.1,1-0.3,2-0.6,3.1
		c-0.3,0.6-0.5,1.2-0.6,1.9c0,0.3-0.1,0.6-0.2,0.8c-1.1,4.8-2.1,11.2-3.1,19c0.3,0.3,0.6,0.6,1,0.8c0.6,0.3,1.2,0.6,2.1,0.8
		c-0.8,9.5-3.5,29-8.1,58.6c-1.5,0.7-3.5,1.4-6,2.1l-2.9,0.6c-4.2,1-9.7,1.6-16.8,1.9c4.3-33.5,6.7-52.8,7.2-57.9
		c0.3-3.2,0.4-8.6,0.4-16.4c0-5.7-0.8-9.9-2.3-12.8C239,459.6,240.3,459.7,241.7,459.8L241.7,459.8z"/>
	<path fill="#F1C24B" d="M254.6,448.4c-0.1-1.1-0.3-2.3-0.4-3.7c0-0.8,0-1.7,0-2.5c0.1-2.4,0.5-5.1,1-8.1c1.1-5.9,3-11.1,5.6-15.5
		h0.4c3.6,0,7.2,0.7,11,2c0.7,0.3,1.4,0.6,2.1,0.9h0.2c2,0.8,4.1,1.8,6.2,2.9c1.5,0.8,3,1.7,4.3,2.7c-3-1-6.2-1.7-9.5-2.3
		c-1.8-0.3-3.4-0.4-4.8-0.4c-0.8,2.1-1.3,3.4-1.5,3.9c-1,2.6-1.4,4.9-1.4,6.8c1.5,11,3.4,17,5.8,18c3.7,1.6,11.4,3.1,23,4.3
		c-2.9,6.6-5.4,11.9-7.4,15.7c-3.2,6.2-6.3,10.5-9.3,12.8c-2.6-0.6-6.2-1.2-10.8-1.9c-1.1-0.1-2.1-0.3-3.1-0.6
		c-0.8-0.3-1.5-0.5-2.1-0.8c-0.4-0.3-0.7-0.5-1-0.8c1-7.8,2-14.2,3.1-19c0.1-0.4,0.3-0.8,0.4-1.2c0.1-0.6,0.3-1,0.4-1.5
		c0.3-1.1,0.5-2.1,0.6-3.1c0.3-1.7,0.4-3.1,0.4-4.4c0-0.4-0.8-2.1-2.3-5.2c-0.3-0.7-0.5-1.3-0.8-1.9c0-0.1-0.1-0.3-0.2-0.4
		c-0.4-0.8-0.8-1.6-1.2-2.3c-0.1,4.3-0.8,8.1-2.1,11.4c-0.6,1.6-1.2,2.6-1.9,2.7c-0.6,0-1.2-0.7-1.9-2.1
		C256.4,454.2,255.4,452,254.6,448.4L254.6,448.4z"/>
	<path fill="#FBE7B9" d="M267.8,435.2c0-1.9,0.5-4.2,1.4-6.8c0.1-0.6,0.6-1.9,1.5-3.9c1.4,0,3,0.1,4.8,0.4c3.3,0.6,6.5,1.3,9.5,2.3
		c0.8,0.6,1.7,1.2,2.5,1.9c0.1,0,0.2,0,0.2,0c1.9,1.5,3.9,3.2,5.8,4.9c0.1,0.7,0.3,1.4,0.4,2.1c1,4.8,1.6,9.1,2.1,12.8
		c0.1,0.4,0.2,0.9,0.2,1.3c0.3,2.5,0.5,4.8,0.6,6.8c-0.1,0.1-0.2,0.3-0.2,0.6c-11.6-1.3-19.2-2.7-23-4.3
		C271.2,452.2,269.3,446.2,267.8,435.2L267.8,435.2z"/>
	<path fill="#222449" d="M293.4,433.9l0.9,0.2c0,0,0,0.1,0,0.2L293.4,433.9L293.4,433.9z"/>
	<path fill="#F1C24B" d="M193.1,552.7c0.3,0.7,0.6,1.8,0.8,3.3c1,5,2.3,13.9,4.1,26.7c0.3,13.4,0.8,22.4,1.5,27.1
		c0.7,4.5,1,9.9,1,15.9c0.1,5.9,0.6,17.1,1.5,33.5c1,16.4,1.7,27.9,2.3,34.4l1.5,35.4c-0.6,3.2-1.2,7.2-2.1,12
		c-3.2,1.3-8.3,3.5-15.3,6.6c-19.4,8.8-29.6,13.6-30.6,14.3c-0.8,0.7-1.8-0.3-2.9-2.9c-0.3-0.6-0.5-1-0.8-1.5
		c16.7-9.1,28.1-21.2,34.3-36.4c5-12.6,7.5-31.9,7.5-58.1c0-6.6-1.7-21.2-5.2-43.9c-3.4-22.6-5.4-45-6-67.1c-4.8-2.9-10.8-9-18-18.2
		c5.4,3.9,13.7,7,25,9.3C191.8,546.2,192.2,549.4,193.1,552.7L193.1,552.7z"/>
	<path fill="#FBE7B9" d="M193.9,556c-0.3-1.5-0.6-2.6-0.8-3.3c-0.8-3.3-1.3-6.5-1.4-9.5c0.8,0.1,1.6,0.3,2.5,0.4
		c7.7,1.4,15.7,2.3,23.8,2.9c1.4,0.6,2.8,1.2,4.2,1.9c3,1.5,5.9,2.7,8.7,3.5c0.3,2.9,0.4,6.4,0.4,10.5c0,2.5-0.4,5.6-1.2,9.3
		c-0.8,3.6-1.2,5.5-1.2,5.6c1.2,3.9,2.4,8.4,3.5,13.7c2.5,10.2,3.7,19.5,3.7,27.9c0,3.5-0.4,11.7-1,24.6
		c-0.6,10.8-0.6,21.8-0.2,33.1c0.1,7.2-0.5,15.6-1.9,25.2c-1.5,9.9-2.3,17.2-2.3,21.7c1.2,7,1.9,11.6,1.9,13.9
		c0,6.2-1.4,13-4.3,20.5c-0.6,1.4-3.1,7-7.7,17c-0.4-0.6-0.8-1-1.2-1.5c-5.5-4.5-10.9-6.8-15.9-6.8c-2.2,0-4.7,0.4-7.4,1.2
		c0.8-1.8,1.8-4.8,3.1-8.9c2.9-10.1,4.4-15.2,4.4-15.5v-0.2c0-0.3,0-0.5,0-0.6c0.1-0.7,0.3-1.3,0.4-1.7c0.8-4.8,1.5-8.8,2.1-12
		l-1.5-35.4c-0.6-6.5-1.3-18-2.3-34.4c-0.8-16.4-1.3-27.6-1.5-33.5c0-6.1-0.4-11.4-1-15.9c-0.7-4.7-1.2-13.7-1.5-27.1
		C196.3,569.9,194.9,561,193.9,556L193.9,556z"/>
	<path fill="#F4CD67" d="M248.1,553.7c-0.3,2.3-0.6,5.2-1,8.7c1.8,13.5,2.3,31.5,1.4,54c-3.7,40.6-6.2,66.3-7.2,77.2
		c-1.8,19-2.6,31-2.5,35.8c0.1,4.7,0.5,8.9,1,12.6c0.4,1.5,0.7,3.1,1,4.8c0,0.1,0,0.3,0,0.4c-2.5,6.2-4.7,11.9-6.6,17
		c-4.4,10.8-7.1,16.1-8.3,16.1c-0.1,0-2-1.8-5.6-5.4c4.5-9.9,7.1-15.6,7.7-17c2.9-7.4,4.3-14.3,4.3-20.5c0-2.2-0.6-6.8-1.9-13.9
		c0-4.5,0.8-11.8,2.3-21.7c1.4-9.7,2-18.1,1.9-25.2c-0.4-11.3-0.4-22.3,0.2-33.1c0.7-13,1-21.2,1-24.6c0-8.4-1.2-17.7-3.7-27.9
		c-1.1-5.2-2.3-9.8-3.5-13.7c0-0.1,0.4-2,1.2-5.6c0.8-3.7,1.2-6.8,1.2-9.3c0-4.1-0.1-7.6-0.4-10.5c-2.7-0.8-5.6-2-8.7-3.5
		c-1.4-0.7-2.8-1.3-4.2-1.9c3.7,0.1,7.4,0.2,11.2,0.2c0.3,0,0.5,0,0.6,0c0.1,0,0.3,0,0.4,0c0.7,0,1.4,0,2.1,0
		c7-0.3,12.6-0.9,16.8-1.9C249,546.2,248.7,549.2,248.1,553.7L248.1,553.7z"/>
	<path fill="#F5D071" d="M190.6,619.1c3.5,22.6,5.2,37.2,5.2,43.9c0,26.2-2.5,45.6-7.5,58.1c-6.2,15.2-17.7,27.3-34.3,36.4
		c-0.6-1.5-1.3-2.8-2.3-3.9c2.8-1.8,10.2-11.9,22.2-30.2c1.1-14.1,1.3-33,0.6-56.7c-0.7-23.7-1.4-40.4-2.3-50.1
		c-0.7-9.9-1.5-19.7-2.5-29.2c-0.8-9.7-2.4-16.1-4.8-19.3c-2.6-8-4.1-13.7-4.5-17.2c-0.4-3.5-2-12.1-4.9-25.9c4.8,3.3,7.9,5.7,9.3,7
		c0.6,0.6,1.2,1.1,1.9,1.6c7.2,9.2,13.2,15.3,18,18.2C185.2,574.1,187.2,596.5,190.6,619.1L190.6,619.1z"/>
	<path fill="#040404" d="M203.2,743.3v0.2c0,0.3-1.5,5.5-4.4,15.5c-1.3,4.1-2.3,7.1-3.1,8.9l-1,0.4c-1.7,3.3-3.1,6.5-4.2,9.5
		c-0.1-1-0.4-2.6-0.8-4.8c-0.3-2.2-0.5-4.5-0.6-6.8c-11.5,9.5-18.7,15.2-21.7,17.2c-2.9,1.8-10.3,3.1-22.3,3.9
		c-11.9,0.8-19.3,0.5-22.4-0.8c-3.2-1.4-5.2-3-6-4.8c-0.6-2.1,0.6-4.3,3.5-6.6c9.5-4,17.7-9.3,24.4-15.9c1.9-1.9,4.1-4,6.4-6.2
		c0.1,0,0.3,0.2,0.6,0.6c1,1.1,1.7,2.4,2.3,3.9c0.3,0.4,0.6,0.9,0.8,1.5c1.1,2.6,2.1,3.6,2.9,2.9c1-0.7,11.2-5.5,30.6-14.3
		c7-3.2,12.2-5.4,15.3-6.6c-0.1,0.4-0.3,1-0.4,1.7C203.2,742.8,203.2,743,203.2,743.3L203.2,743.3z"/>
	<path fill="#151515" d="M195.8,767.9c2.7-0.8,5.2-1.2,7.4-1.2c5.1,0,10.4,2.3,15.9,6.8c0.4,0.4,0.8,0.9,1.2,1.5
		c3.6,3.6,5.4,5.4,5.6,5.4c1.1,0,3.9-5.4,8.3-16.1c1.9-5.1,4.2-10.7,6.6-17c0-0.1,0-0.3,0-0.4c-0.3-1.6-0.6-3.2-1-4.8
		c0.3,0.3,0.7,1.5,1.4,3.5c0.8,2.1,1.4,5.4,1.6,9.9c0.4,4.6,0,9.3-1.4,14.3c-0.3,5-0.5,12.7-0.6,23.2c-1,2.2-3.4,2.3-7.2,0.4
		c0.1-1.8-0.9-3-3.1-3.5c-1.9,7.8-4,13.5-6.4,17c-2.3,3.4-5.5,6.1-9.5,7.9c-2.2,1-5.6,1.7-10.3,2.3c-4.6,0.6-7.6,0.7-9.3,0.6
		c-1.6-0.1-3.2-0.4-4.8-0.8c-1.5-0.6-3.2-1.6-4.9-3.3c-3.3-3-4.8-7-4.4-11.8c0.4-5,3.7-12.9,9.7-23.8c1.1-3,2.5-6.2,4.2-9.5
		L195.8,767.9L195.8,767.9z"/>
</g>
</svg>
