<?xml version="1.0" encoding="utf-8"?>
<!-- Generator: Adobe Illustrator 18.0.0, SVG Export Plug-In . SVG Version: 6.00 Build 0)  -->
<!DOCTYPE svg PUBLIC "-//W3C//DTD SVG 1.1//EN" "http://www.w3.org/Graphics/SVG/1.1/DTD/svg11.dtd">
<svg version="1.1" id="Calque_1" xmlns="http://www.w3.org/2000/svg" xmlns:xlink="http://www.w3.org/1999/xlink" x="0px" y="0px"
	 viewBox="0 0 496.1 841.9" enable-background="new 0 0 496.1 841.9" xml:space="preserve">
<g>
	<polygon fill-rule="evenodd" clip-rule="evenodd" fill="#393738" points="151.6,684.3 54.4,683.8 61.8,706.1 136.2,718.3 	"/>
	<polygon fill-rule="evenodd" clip-rule="evenodd" fill="#D0D0D2" points="106.5,754.2 86.7,749.8 78.5,827.4 87.1,839.4 
		95.5,832.6 	"/>
	<polygon fill-rule="evenodd" clip-rule="evenodd" fill="#A6A7AA" points="96.6,753.1 86.7,749.8 78.2,827.4 87.6,839.7 	"/>
	<path fill-rule="evenodd" clip-rule="evenodd" fill="#616163" d="M72.5,729.5c3,19.8-12.3,21.4,35.3,26.8c10.9,1.2,8.8-8.8,10-19.2
		C99.6,735,89.1,736.3,72.5,729.5z"/>
	<path fill-rule="evenodd" clip-rule="evenodd" fill="#393738" d="M72.5,729.5c3.6,14.7-11.7,15.4,36,20.8
		c10.9,1.2,8.5-6.2,9.4-13.9C99.7,734.4,89.3,735,72.5,729.5z"/>
	<path fill-rule="evenodd" clip-rule="evenodd" fill="#A45A3D" d="M159.5,162.6c-11.5-34.3-40.4-31.2-62.8-1.4
		c-12.4,16.4-17.8,91.4,12.8,89.7c27.5-1.5,36.5-12.2,47.5-36.9C163.6,199.5,163.3,178.3,159.5,162.6z"/>
	<path fill-rule="evenodd" clip-rule="evenodd" fill="#36464F" d="M120.3,520.8c6.4,45.4,25.8,104.8,41.6,147.6c0.8,3.2,42.8-16.1,43.3-19.9c0.4-3.4-44.7-116.9-47.8-126.5
		C148.6,494.3,148,512.8,120.3,520.8z"/>
	<path fill-rule="evenodd" clip-rule="evenodd" fill="#36464F" d="M263.8,493.9c-44.1-1.8-103.5,6.6-146.6,14.4c-3.2,0.2,8.7,44.9,12.2,46c3.2,1.1,118-23,127.6-24.3
		C284.7,526.4,267.2,522.5,263.8,493.9z"/>
	<path fill-rule="evenodd" clip-rule="evenodd" fill="#36464F" d="M310.9,478c53.9,16.2,123.9,48.6,174.3,73.8c3.8,1.5-21,40.6-25.5,40.3c-4.1-0.3-137.6-70.6-148.9-75.8
		C278,501.4,300.1,504.7,310.9,478z"/>
	<path fill-rule="evenodd" clip-rule="evenodd" fill="#36464F" d="M483.7,559.7c-15.7,35.3-46.6,78.2-70.6,108.5c-1.4,2.4-37.1-26.3-36.8-29.5c0.3-3,67.1-82.3,72-89.3
		C462.6,529.3,459.2,544.7,483.7,559.7z"/>
	<path fill-rule="evenodd" clip-rule="evenodd" fill="#3F2E18" d="M406.5,678.9c29.1,26.2,34,48.9,21,54.2
		c-10.6-2.4-61.2-43.3-75.5-60.8C360.2,644,404.7,677.2,406.5,678.9z"/>
	<path fill-rule="evenodd" clip-rule="evenodd" fill="#6C8FA2" d="M428.8,645.5c8.2,7.1,4.8,10.4-6.4,15c-8.5,3.5,1.4,32.9-35.1,8.4
		c-13.8-9.3-45.2,0.9-26.8-18.2c6.1-6.3,11-7.6,13-20C375.7,618.3,414.8,633.3,428.8,645.5z"/>
	<path fill-rule="evenodd" clip-rule="evenodd" fill="#82A1AC" d="M218.5,348.6c-11,56.2-54.8,107.5-110.2,111.1
		c-22.3,1.5-74-7.6-55.3-33.7c11.1-15.6,17.5-25,33.1-13.3c16.2,12,81.9-8.9,95.8-61.5C184.6,324.6,198.1,323.6,218.5,348.6z"/>
	<path fill-rule="evenodd" clip-rule="evenodd" fill="#546C78" d="M312.4,443c-1.4,5.2,25.3,69.2-4.5,71.3
		c-7.4,0.5-13.5,5.9-20.4,9.3c-9.8,4.8-24.2-35.1-30.2-43.1c-5.3-7.1-13.5-17.9-16.4-26.4c-0.5-1.4,10.3-2.6,12.2-3
		C259.3,449.7,305.1,431.3,312.4,443z"/>
	<path fill-rule="evenodd" clip-rule="evenodd" fill="#96B8C4" d="M233.9,286.1c14.5,6.2,55.3,11.4,63.1,18.1
		c22.2,19,18.1,83.5,24.7,112.6c10,44.1,12,49.9-35.2,67.7c-21.1,8-37.1,27.6-38.2,20.3c-0.9-5.9-13.1-28.2-19.6-39.2
		c-17.6-30.1-41.4-60.9-52.7-92.1c-5.1-14.1,3.9-31.3,7-44C184,325.8,229.8,288.1,233.9,286.1z"/>
	<path fill-rule="evenodd" clip-rule="evenodd" fill="#A68F6A" d="M160.6,322c10,9.3,27.8,14.5,43.5,11.6
		c4.3-0.8,18.5,20.9,22.3,18.7c2.9-1.7-4.4-27-2-29.5c10-10.5,14.9-26.9,11-37.6C234.3,281.9,178.2,319.8,160.6,322z"/>
	<path fill-rule="evenodd" clip-rule="evenodd" fill="#65838D" d="M184.6,350.8l-3.3,2.2c-5.7,19.7-18.7,34.8-33.4,45.2
		c11.7,20-15,51.3-49.3,42.5c-21.3-5.4-29.6-46.9-46.8-8.7c-1.3,2.8-2,5.4-2.4,7.8c4.5,15.6,41.1,21.1,58.8,20
		c33.7-2.3,63.1-22.2,83.5-50.1L184.6,350.8z"/>
	<path fill-rule="evenodd" clip-rule="evenodd" fill="#82A1AC" d="M268.6,317.4l31.4,8.8c0,0,6.2,24.7,10.6,32.9
		c14.2,26-51.8,8-42.7-39.1C268.3,318.1,267.4,319.5,268.6,317.4z"/>
	<path fill-rule="evenodd" clip-rule="evenodd" fill="#61818D" d="M196.4,360.9l1.9-19.3c6.7,16.2,11,21.4,24.3,32.9
		c7.5,6.5,20.6,11,17.7-2.1c-3.6-16.2,8.6-26.7-12.6-49.5c-5.5-5.9,10.7-5.9,14.3-6.7l14,22.2l5,66.6l-20.4,15.6L196.4,360.9z"/>
	<path fill-rule="evenodd" clip-rule="evenodd" fill="#EAE553" d="M274.3,295.4c-11.5-1.5-29.2-8.7-32.4-5.5
		c2.5,11.4,5,85.3,9.7,108.9c0.2,1.1,0.2,2.5,0.4,3.4c5.4,20.5,10.2,28.8,22.7,46.3c6.9,9.6,14.2,19.8,19.4,30.3
		c16.4-8.1,24.5-12.4,39.6-21.2c2.6-1.5,2.3-0.8,5.2-3.1c-19-22.5-20.9-90.8-22.6-91.4C274.9,349.7,271.4,306.6,274.3,295.4z"/>
	<path fill-rule="evenodd" clip-rule="evenodd" fill="#EAE553" d="M168.1,365.8c-2.7-14.1,6.3-24.6,10.8-25.1
		c7.9,9.3,55.1,47.6,67.6,63.7c13,16.8,21.1,23.7,31.5,42.5c5.6,10.2,13.6,22.3,18.8,32.8c-11.8,5.8-37.4,22.3-49.6,25.5
		c-6.5-24.8-40.2-70.8-41.3-72.3C187.3,409.9,173.6,376.7,168.1,365.8z"/>
	<path fill-rule="evenodd" clip-rule="evenodd" fill="#D4D03D" d="M249.9,387.6l1.3,4.3c-5.5-11.2,7-63.9,47.4-21.9
		c3.4,3.6,13.4,12.8,21.4,22.8c-2.2-16.4-3-29.3-3.7-29.6c-41.3-13.5-44.9-56.7-41.9-67.9c-11.5-1.5-29.2-8.7-32.4-5.5
		C244,299.8,246.2,357.4,249.9,387.6L249.9,387.6z M325.5,423.3c3.1,12.6,7.4,24.2,13.4,31.3c-2.9,2.3-2.6,1.6-5.2,3.1
		c-15.1,8.7-23.1,13.1-39.6,21.2c-1.1-2.2-2.2-4.3-3.5-6.5c2.5-1.5,3.9-3,3.5-4.5c-0.2-0.6-30.6-40.1-35.8-50.1
		c-2.8-5.4-4.6-9.7-5.7-13.1c-0.2-0.8-0.4-1.7-0.7-2.5c-0.2-0.8-0.2-2.3-0.4-3.4l0-0.2c0.3-19.9,61,30.2,72.5,25.5
		C324.6,423.8,325,423.6,325.5,423.3z"/>
	<path fill-rule="evenodd" clip-rule="evenodd" fill="#D4D03D" d="M184.3,399.1c-1.3-18.8,7.2-30.7,35.2-4.2
		c18.8,17.8-26.8,48.2,23.9,60.9c25.6,6.4,20,33.3,8.9,8.2c-3.9-8.8-7.6,6.7-23.5,3.3c8,13.1,15.6,27.4,18.3,37.9
		c12.2-3.2,37.8-19.7,49.6-25.5c-1.4-2.9-3-5.8-4.7-8.9l-8.3,3.5l-26.4-52.2l-4.9-10.2c-1.9-2.3-3.9-4.8-6.1-7.6
		c-12.5-16.1-59.7-54.4-67.6-63.7c-4.5,0.6-13.5,11-10.8,25.1C171.2,371.8,176.8,384.8,184.3,399.1z"/>
	<path fill-rule="evenodd" clip-rule="evenodd" fill="#B1AEB7" d="M228.2,466.4c-2-3.3-4.6-7.8-6.6-11.1c14.8-4.5,28.2-15.4,42.2-25
		c16.8-5.5,39.4-15.6,57.4-28.9c1.1,4.4,1.4,10.1,2.4,14.5c-16.6,10-34.4,20-53.6,25.9C256.5,451.8,243.6,460.5,228.2,466.4z"/>
	<path fill-rule="evenodd" clip-rule="evenodd" fill="#B1AEB7" d="M240.5,485.8c-1.5-2.4-3.5-5.8-5.1-8.2
		c13.5-4.5,26.1-14,39.1-22.5c15.3-5.5,36-14.9,52.9-26.5c0.7,3.4,0.5,7.8,1.2,11.2c-15.5,9-31.9,18-49.3,23.9
		C266.5,472.5,254.5,480.2,240.5,485.8z"/>
	<path fill-rule="evenodd" clip-rule="evenodd" fill="#7F8080" d="M254.2,414c-10.5-42.6-10.9-84.2-12.1-125.1
		c1.9-0.7,2.1-0.8,5.3-0.1c-4.4,19.7,4.9,91.5,10.6,130.5c11,20.8,23.3,42.7,34.3,63.5c-1.5,0.7-3,1.5-4.5,2.2
		c-11.2-21.6-23.7-44.3-34.9-65.9c-24.5-36.3-51.8-58.8-81.1-73.2c0.9-1.2,0.4-3,1.2-4.2C199.5,359.8,223.8,372.9,254.2,414z"/>
	<path fill-rule="evenodd" clip-rule="evenodd" fill="#65838D" d="M224.9,323.2c1.9-7.5,18.6,7,23.5,12.8c2.3,2.8,7.2,5.5,6-1.3
		c-4.8-28.3-3.2-46.7-6.4-49.6c-7.4-4.4-30.8,30.7-23.2,38.7C224.9,323.6,224.7,323.8,224.9,323.2z"/>
	<path fill-rule="evenodd" clip-rule="evenodd" fill="#65838D" d="M204.1,334.6c-8.5-2.7-0.2,23.9,3.9,31.8c1.9,3.8,2.9,9.9-3.7,4.8
		c-27-21.3-41.4-28.8-43.1-33.6c-1.6-9.5,38.4-14.7,43.6-2.8C204.5,334.8,204.7,334.8,204.1,334.6z"/>
	<circle fill-rule="evenodd" clip-rule="evenodd" fill="#E3E3E2" cx="229.1" cy="357.5" r="4.2"/>
	<circle fill-rule="evenodd" clip-rule="evenodd" fill="#E3E3E2" cx="237" cy="373.7" r="4.2"/>
	<path fill-rule="evenodd" clip-rule="evenodd" fill="#84602F" d="M333,445.5c-18.8,21-45.7,36.4-72.6,44.9
		c-7.3,2.3-21.3,4-17.2,13.2c5.1,11.5,11.2,9.5,23.4,6.2c7.7-2.1,55.1-24.1,58.4-27.6c8-8.2,26.8-18.3,10.9-35.1
		C335.3,446.5,333,445.5,333,445.5z"/>
	<path fill-rule="evenodd" clip-rule="evenodd" fill="#202020" d="M279.2,480.7c5.5-2.7,11.1-5.3,16.6-8c1.9-0.9,4.2,0,5.1,2
		c0.7,1.6,1.3,2.8,2.1,4.3c3.3,6.8-21.1,16.5-22.9,12.2c-0.7-1.6-1.8-3.7-2.5-5.2C276.6,484,277.4,481.6,279.2,480.7z"/>
	<path fill-rule="evenodd" clip-rule="evenodd" fill="#202020" d="M262.7,490.1l3.5-1.4c0.7-0.3,1.4,0.1,1.7,0.7l2.2,5.3
		c0.3,0.7,0,1.4-0.7,1.7l-3.5,1.4c-0.7,0.3-1.4,0-1.7-0.7l-2.2-5.3C261.7,491.1,262,490.4,262.7,490.1z"/>
	<path fill-rule="evenodd" clip-rule="evenodd" fill="#202020" d="M248.5,495.1l3.6-1.2c0.7-0.2,1.4,0.1,1.7,0.8l1.9,5.4
		c0.2,0.7-0.1,1.4-0.8,1.7l-3.6,1.2c-0.7,0.2-1.4-0.1-1.7-0.8l-1.9-5.4C247.4,496.1,247.8,495.3,248.5,495.1z"/>
	<path fill-rule="evenodd" clip-rule="evenodd" fill="#202020" d="M310.9,465.2l-3.3,1.8c-0.6,0.4-0.9,1.2-0.5,1.8l2.8,5.1
		c0.3,0.6,1.1,0.9,1.8,0.5l3.3-1.8c0.6-0.4,0.9-1.2,0.5-1.8l-2.8-5.1C312.3,465.1,311.5,464.8,310.9,465.2z"/>
	<path fill-rule="evenodd" clip-rule="evenodd" fill="#5E4320" d="M270.2,492l-31.3,10.5c-10.4,1.8-37,10.1-29.1,25
		c14.4,27.2,27.5,83.5,67.9,63.6c43.1-21.2,18-52.8,1.5-88.3C277.4,499.2,272.7,491.1,270.2,492z"/>
	<path fill-rule="evenodd" clip-rule="evenodd" fill="#202020" d="M297.6,556.2L215.2,533c-6-12.3-4.9-14.3,8.8-21.1
		c4.8-2.4,45.5-16.3,48-13.7C274.7,500.9,301.9,552.6,297.6,556.2z"/>
	<g>
		<path fill-rule="evenodd" clip-rule="evenodd" fill="#676767" d="M227.4,482.5c-4,0.2-7.9,0.4-11.9,0.6
			c12.2,25,24.3,49.9,36.5,74.9c2.1,0.8,4.3,1.6,6.4,2.4c1.5-0.8,2.9-1.7,4.4-2.5C251.6,530.4,240.3,507.1,227.4,482.5z"/>
		<path fill-rule="evenodd" clip-rule="evenodd" fill="#676767" d="M211.3,461.5c5.1-2.5,12.1,1.3,15.7,8.6
			c3.5,7.2,2.2,15.1-2.9,17.6c-5.1,2.5-12.1-1.3-15.7-8.6C204.8,471.8,206.1,464,211.3,461.5L211.3,461.5z M213.3,465.7
			c-1.9,0.9-1.9,4.7,0,8.5c1.9,3.8,4.9,6.2,6.7,5.2c1.9-0.9,1.9-4.7,0-8.5C218.2,467.1,215.2,464.8,213.3,465.7z"/>
		<path fill-rule="evenodd" clip-rule="evenodd" fill="#676767" d="M275.9,579c4-2.2,3.3-12.6-1.3-18c-5.1-6-14.6-7-19.3-6
			c-16.1,15-4.9,37.9,8.7,28.9c0.5-3-14.9-8.2-1.7-13.9C274.1,564.4,269.4,582.4,275.9,579z"/>
	</g>
	<path fill-rule="evenodd" clip-rule="evenodd" fill="#4F4F4F" d="M224.6,482.6c-0.9,9.6,12.9,25.1,5.4,30.2l4.1,8.4
		c0.9-0.1,7.1-2,10.9-3.6c-5.6-11.8-11.4-23.3-17.6-35.1L224.6,482.6z"/>
	<path fill-rule="evenodd" clip-rule="evenodd" fill="#4F4F4F" d="M211.1,461.6c10.3,0.4,15.8,10.2,13.7,20.1
		c-0.3,1.6-0.2,3.4,0.3,5.4c4.3-3,5.2-10.3,1.9-17c-3.5-7.2-10.5-11.1-15.7-8.6L211.1,461.6z"/>
	<path fill-rule="evenodd" clip-rule="evenodd" fill="#B0AFAF" d="M247.3,562.9c3-0.7,6-1.5,9-2.2c-13-17.2-26-34.4-39.1-51.6
		c-1.8-0.3-3.5-0.6-5.3-0.9c-1,0.8-2,1.7-3,2.5C221.7,530.1,233.8,546.1,247.3,562.9z"/>
	<path fill-rule="evenodd" clip-rule="evenodd" fill="#B0AFAF" d="M262.8,576.5c-3.5,2.7-9.5,0.8-13.2-4.2c-3.8-5-4-11.2-0.4-13.9
		c3.5-2.7,9.5-0.8,13.2,4.2C266.2,567.7,266.4,573.9,262.8,576.5L262.8,576.5z M260.6,573.6c1.3-1,0.7-3.9-1.3-6.5
		c-2-2.6-4.6-4-5.9-3c-1.3,1-0.7,3.9,1.3,6.5C256.7,573.3,259.3,574.6,260.6,573.6z"/>
	<path fill-rule="evenodd" clip-rule="evenodd" fill="#B0AFAF" d="M195.9,496.6c-2.7,2.3-0.6,10.1,3.7,13.5
		c4.8,3.8,12.1,3.1,15.6,1.7c10-13.9-1.9-29.6-11-20.7c0.1,2.4,12.6,4,3.4,10.4C199.5,507.5,200.3,493.1,195.9,496.6z"/>
	<g>
		<path fill-rule="evenodd" clip-rule="evenodd" fill="#979797" d="M215.2,520c3.8-0.2,7.2-2.4,3.5-6.5c-2.1-2.2-3.3-3.5-3.9-4.7
			l2.5,0.4l9,11.9c-1.4,1-3.5,2.3-6.7,4.1c-0.2,0.1-0.4,0.2-0.5,0.4C217.8,523.7,216.5,521.8,215.2,520z"/>
		<path fill-rule="evenodd" clip-rule="evenodd" fill="#979797" d="M216,510.5c-2.5-3-2-4-0.1-10.5c1.2-4.1-1.8-8.6-4.8-11.1
			l-0.4-0.3C217.4,489.5,222.4,500.3,216,510.5z"/>
	</g>
	<polygon fill-rule="evenodd" clip-rule="evenodd" fill="#CA363B" points="251.7,498.2 243.4,468 248,465.3 257.1,495.7 
		262.1,497.1 267.6,511.5 250.9,518.7 246.7,503.9 	"/>
	<path fill-rule="evenodd" clip-rule="evenodd" fill="#9A383B" d="M245.2,466.9c2.3,6.9,7.4,25.5,9.5,30.7c2.2,5.3-2.1,9.2-7.5,7.7
		c-0.1,0-0.1,0-0.2,0l2.6,9c0.8,0.4,2.5-0.8,7-2.5c3-1.1,6.3-2.7,9.3-4.4l-3.9-10.3l-5-1.4l-9.1-30.3L245.2,466.9z"/>
	<path fill-rule="evenodd" clip-rule="evenodd" fill="#84602F" d="M271.3,502.9l-29.7,10.7c-9.8,1.5-34.8,9-26.9,24
		c14.4,27.2,23.3,73.1,61,54.5c23.5-11.5,26.9-23.9,22.1-39.1C296,547.4,275.5,503.1,271.3,502.9z"/>
	<path fill-rule="evenodd" clip-rule="evenodd" fill="#765527" d="M249.1,510.9c16.9,5.9,33.1,26.6,38.5,41.9
		c4.4,12.3-0.3,20.2-9.5,29c-3.6,3.4-10.1,6.9-13.7,2.7c-3.7-4.3-2.8-10.2-11.6-3c-2.1,1.8,1.9,10.6-5.9,9.2c-1.2-0.2-2.2-0.3-3-0.2
		c7.8,6.5,17.8,8.5,31.7,1.6c23.5-11.5,26.9-23.9,22.1-39.1c-1.7-5.6-22.3-49.9-26.5-50.1L249.1,510.9z"/>
	<path fill-rule="evenodd" clip-rule="evenodd" fill="#393738" d="M240.3,527.7c0.7-0.6,1.9-1.1,2.9-1c0.5,1.4,1.1,2.7,1.6,4.1
		c-0.9,0.5-1.2,1.8-0.6,3.1c0.5,1.1,1.5,1.7,2.4,1.6l1.8,4.7c-1.3,1-1.7,3.2-0.8,5.1c1,2.2,3.3,3.4,5,2.6c1.8-0.8,2.4-3.3,1.4-5.5
		c-0.9-2.1-2.9-3.2-4.6-2.8l-1.9-4.7c0.6-0.6,0.7-1.7,0.2-2.7c-0.4-0.9-1.2-1.5-2-1.6L244,526c0.7-0.8,1.9-0.9,3.1-0.9
		c4.7,4.1,8.5,8.8,12,13.5c2.3,3.5,6.1,13.7,9.2,20.5c-6.7,1.9-12.6,5.8-20.2,5.6c-3.3-9.2-8.3-19.8-9.9-27.5
		C238.3,533.6,238.9,530.4,240.3,527.7z"/>
	<path fill-rule="evenodd" clip-rule="evenodd" fill="#B0AFAF" d="M236.9,527.1c0.7-0.6,1.9-1.1,2.9-1c0.5,1.4,1.1,2.7,1.6,4.1
		c-0.9,0.5-1.2,1.8-0.6,3.1c0.5,1.1,1.5,1.7,2.4,1.6l1.8,4.7c-1.3,1-1.7,3.2-0.8,5.1c1,2.2,3.3,3.4,5,2.6c1.8-0.8,2.4-3.3,1.4-5.5
		c-0.9-2-2.9-3.2-4.6-2.8l-1.9-4.7c0.6-0.6,0.7-1.7,0.2-2.7c-0.4-0.9-1.2-1.5-2-1.6l-1.8-4.6c0.7-0.8,1.9-0.9,3.1-0.9
		c4.7,4.1,8.5,8.8,12,13.5c2.3,3.5,6.1,13.7,9.2,20.5c-6.7,1.9-12.6,5.8-20.2,5.6c-3.3-9.2-8.3-19.8-9.9-27.5
		C235,533,235.6,529.8,236.9,527.1z"/>
	<g>
		<defs>
			<path id="SVGID_9_" d="M255.8,565.2l-8.5,2.9c2,6.7-5.5,14,0.8,30.3c0.4,1,9.4,27.8,13.5,16.3c2.5-7-9-26.7-0.8-36
				c0.9-1.8,1.5-2.4,2-3.2c4.3,3.4,10.5,7.9,16.8,18.3c0.3,0.6,4.9,12.9,8.5,13.2c1,0.1,3-0.6,3.4-2.6c1.6-10.4-12.3-30.7-20.1-37.1
				c-0.8-0.6-3-4.1-3.6-5.2c-6.5-0.6-10.4,3-12.2,3C255.8,565,255.8,565.1,255.8,565.2z"/>
		</defs>
		<use xlink:href="#SVGID_9_"  overflow="visible" fill-rule="evenodd" clip-rule="evenodd" fill="#DB843D"/>
		<clipPath id="SVGID_10_">
			<use xlink:href="#SVGID_9_"  overflow="visible"/>
		</clipPath>
		<g clip-path="url(#SVGID_10_)">
			<path fill-rule="evenodd" clip-rule="evenodd" fill="#814538" d="M259.7,599.5l-0.4,0.3c-1.5,1.1-4.2,2.3-6.6,2.6
				c-1.7,0.2-3.3,0.1-4.2-0.9l-0.8,0.7c1.1,1.3,3.1,1.5,5.1,1.3c2.6-0.4,5.5-1.6,7.1-2.8l0.4-0.3L259.7,599.5z"/>
			<path fill-rule="evenodd" clip-rule="evenodd" fill="#814538" d="M260.4,601.7L260,602c-1.5,1.1-4.2,2.3-6.6,2.6
				c-1.7,0.2-3.3,0.1-4.2-0.9l-0.8,0.7c1.1,1.3,3.1,1.5,5.1,1.3c2.6-0.4,5.5-1.6,7.1-2.8l0.4-0.3L260.4,601.7z"/>
			<path fill-rule="evenodd" clip-rule="evenodd" fill="#814538" d="M261.6,604l-0.4,0.3c-1.7,1.2-4.6,2.5-7.3,2.9l0,0
				c-1.9,0.3-3.7,0.1-4.7-1l-0.8,0.7c1.2,1.4,3.4,1.7,5.6,1.4v0c2.9-0.4,6-1.8,7.8-3.1l0.4-0.3L261.6,604z"/>
			<path fill-rule="evenodd" clip-rule="evenodd" fill="#814538" d="M263.2,606.5l-0.4,0.3c-1.7,1.2-4.6,2.5-7.3,2.9h0
				c-1.9,0.3-3.7,0.1-4.7-1l-0.8,0.7c1.3,1.4,3.4,1.7,5.6,1.4l0,0c2.9-0.4,6-1.8,7.8-3.1l0.4-0.3L263.2,606.5z"/>
			<path fill-rule="evenodd" clip-rule="evenodd" fill="#814538" d="M265.1,609.5l-0.4,0.3c-1.7,1.2-4.6,2.5-7.3,2.9h0
				c-1.9,0.3-3.7,0.1-4.7-1l-0.8,0.7c1.2,1.4,3.4,1.7,5.6,1.4h0c2.9-0.4,6-1.8,7.8-3.1l0.4-0.3L265.1,609.5z"/>
			<path fill-rule="evenodd" clip-rule="evenodd" fill="#814538" d="M278.3,593.3l0.5-0.1c1.8-0.4,4.5-1.6,6.4-3.1
				c1.3-1.1,2.2-2.4,2.1-3.7l1-0.2c0.2,1.7-0.9,3.3-2.5,4.6c-2,1.7-4.9,3-6.8,3.4l-0.5,0.1L278.3,593.3z"/>
			<path fill-rule="evenodd" clip-rule="evenodd" fill="#814538" d="M279.5,595.2l0.5-0.1c1.8-0.4,4.5-1.6,6.4-3.1
				c1.3-1.1,2.3-2.4,2.1-3.7l1-0.2c0.2,1.7-0.9,3.3-2.5,4.6c-2,1.7-4.9,3-6.8,3.4l-0.5,0.1L279.5,595.2z"/>
			<path fill-rule="evenodd" clip-rule="evenodd" fill="#814538" d="M280.4,597.7l0.5-0.1c2-0.4,5-1.7,7-3.5h0
				c1.5-1.2,2.5-2.7,2.3-4.2l1-0.2c0.2,1.9-1,3.6-2.7,5.1h0c-2.2,1.9-5.4,3.3-7.5,3.7l-0.5,0.1L280.4,597.7z"/>
			<path fill-rule="evenodd" clip-rule="evenodd" fill="#814538" d="M281.2,600.5l0.5-0.1c2-0.4,5-1.7,7-3.5v0
				c1.5-1.2,2.5-2.7,2.3-4.2l1-0.2c0.2,1.9-1,3.6-2.7,5.1v0c-2.2,1.9-5.4,3.3-7.5,3.7l-0.5,0.1L281.2,600.5z"/>
			<path fill-rule="evenodd" clip-rule="evenodd" fill="#814538" d="M282.2,603.9l0.5-0.1c2-0.4,5-1.7,7-3.5h0
				c1.5-1.2,2.5-2.7,2.3-4.2l1-0.2c0.2,1.9-1,3.6-2.7,5.1l0,0c-2.2,1.9-5.4,3.3-7.5,3.7l-0.5,0.1L282.2,603.9z"/>
		</g>
	</g>
	<path fill-rule="evenodd" clip-rule="evenodd" fill="#393738" d="M244.9,571.5c-3.7-0.4-5.1-5.2-2.4-6.9c7.9-4.4,17.4-5.7,26.8-8.7
		c3.1,0.1,4.9,4.7,3.3,6.5C268.1,566.4,254.4,568.4,244.9,571.5z"/>
	<path fill-rule="evenodd" clip-rule="evenodd" fill="#202020" d="M330.9,448.4l-2.7,2.7c-0.5,0.5-0.5,1.4,0,1.9l4,4.1
		c0.5,0.5,1.3,0.5,1.9,0l2.7-2.7c0.5-0.5,0.5-1.4,0-1.9l-4-4.1C332.3,447.9,331.5,447.9,330.9,448.4z"/>
	<path fill-rule="evenodd" clip-rule="evenodd" fill="#202020" d="M322.4,456.9l-3.1,2.1c-0.6,0.4-0.8,1.2-0.4,1.8l3.1,4.8
		c0.4,0.6,1.2,0.8,1.8,0.4l3.1-2.1c0.6-0.4,0.8-1.2,0.4-1.8l-3.2-4.8C323.8,456.7,323,456.5,322.4,456.9z"/>
	<path fill-rule="evenodd" clip-rule="evenodd" fill="#5E4320" d="M288.9,553.3c-14.1,8.9-20.9,14.4-37.2,19.2
		c-5.1,1.5-15.3,4.5-19.4,2.6c-5.8,6.5,0.8,11.5,6.8,11.3c17.6-0.7,54.7-19,51.9-26C290.3,558.6,290,555.5,288.9,553.3z"/>
	<circle fill-rule="evenodd" clip-rule="evenodd" fill="#E3E3E2" cx="244.1" cy="389.8" r="3.7"/>
	<path fill-rule="evenodd" clip-rule="evenodd" fill="#483322" d="M286.4,174.3l12.5-39.6c15.9,20.7,14.6,43,0.9,65.7
		C301,190.5,294,181.1,286.4,174.3z"/>
	<path fill-rule="evenodd" clip-rule="evenodd" fill="#614833" d="M289.1,189.6l-8.8-34.6c14.9,6.4,28.3,27.8,23.8,53.9
		C302.2,199.3,297.4,193.1,289.1,189.6z"/>
	<path fill-rule="evenodd" clip-rule="evenodd" fill="#614833" d="M255.4,162.6l-18.6-58.1c19.1,6,28.8,9.7,32.8,10.6
		c53.8,12.1,44.3,143.1,2.3,161.8L255.4,162.6z"/>
	<path fill-rule="evenodd" clip-rule="evenodd" fill="#E3CEAA" d="M300.5,214.6c-1.9,17-18.6,21.7-22.1,15.8l-1.6-2.6
		c-0.9-6.9-0.9-8.3-0.4-15.4c0.7-10.5,12.3-15.2,19.4-11.6C301.1,203.6,301,209.3,300.5,214.6z"/>
	<path fill-rule="evenodd" clip-rule="evenodd" fill="#AE9164" d="M290.1,212.9c2.2,12-8.5,15.7-10.5,12.4l-0.8-1.3
		c-0.4-3.3-0.4-4-0.2-7.5C279.1,210.2,287.6,208.2,290.1,212.9z"/>
	<path fill-rule="evenodd" clip-rule="evenodd" fill="#614833" d="M171.6,130.3l24.8-36.2c-54-16.9-70.2,34.6-75.8,71.6
		c-2.1,14.1-4.9,56.7,2.4,78.3L171.6,130.3z"/>
	<path fill-rule="evenodd" clip-rule="evenodd" fill="#E3CEAA" d="M260.3,323.3c-21,6.1-39.2,11.6-64.7,9.4
		c-34.8-3-59.9-14.8-72.4-27.5c-13.1-17.3-6.3-45-1.4-75.6c8.3-52.4,25.2-110,30.2-115c13.5-25.2,90.7-13.2,122.9,11.3
		c6.4,4.9,5.4,17.9,5.7,34.1c0.4,19.1-2.6,50.5-1.2,79.1C281.2,278.2,285.1,313.9,260.3,323.3z"/>
	<path fill-rule="evenodd" clip-rule="evenodd" fill="#C5AB81" d="M177.6,236c0,0.5-0.2,17.3-6.4,13.5c-15-9.1-32.9,5.8-28.3,25.8
		c5.4,23.8,60.8,24.1,78.1,19.9c18.7-4.5,44.3-20.6,27.4-41.7c-1-1.3-10.4-3.1-18.4-3.8c-2.2-0.2-3.1-12.4,0.6-12.5
		c17-0.9,29.1,7,34.3,25.3c5.6,19.4,7.9,32.5-3.4,52c-10.8,18.6-46.7,20.4-66.6,21.7c-16.6,1.1-42.7-7.8-55.1-19.3
		c-20.7-19.2-18.4-46-4.4-67.2C148.7,229.9,168.3,232.8,177.6,236z"/>
	<path fill-rule="evenodd" clip-rule="evenodd" fill="#C5AB81" d="M180.1,298c3.3-3.2,7.4-3.5,5-9.2c-1.5-3.5-1.3-3.9,11.6-0.8
		c4.3,1,8.9-0.9,13.2-0.4c2,1.2-4.7,4.5-2.3,10.6C209.2,302.1,179.7,298.3,180.1,298z"/>
	<path fill-rule="evenodd" clip-rule="evenodd" fill="#D3B788" d="M128.4,194c8.3-25.9,23-53.9,45.7-50.5c7.8,1.2,50.6,8.3,62.9,4.5
		c18.5-4.5,27.1-22.7,43.5,11.2c-0.1-5.5-0.1-10.7-0.2-15.3l-3.5-15.8c-0.6-0.8-1.2-1.5-2-2.1c-6.9-5.3-15.9-9.9-25.9-13.8
		l-90.4-4.6c-2.9,1.9-5.2,4.2-6.7,7C148,118.6,137,153.9,128.4,194z"/>
	<path fill-rule="evenodd" clip-rule="evenodd" fill="#FFFFFF" d="M178.1,202.8c-1.4,13.8-12.2,17.6-26,16.1
		c-13.8-1.5-21.2-9.1-19.2-20.8C136,176.7,177.6,176.8,178.1,202.8z"/>
	<path fill-rule="evenodd" clip-rule="evenodd" fill="#614833" d="M139.8,160.3c-2.7,3.2-2.3,7.3-1.2,8.8
		c17.7-5.1,33.8-0.6,41.4,0.3c0.8,0,2.1-0.6,0.7-3.8C177.9,159.4,147.2,158.2,139.8,160.3z"/>
	<path fill-rule="evenodd" clip-rule="evenodd" fill="#614833" d="M261.6,97.3c-12.2-22.2-45.7-31.8-78.5-28.4
		c-19.5,2.1-50.8,41.7-42.4,64.5c21.9-14.7,65.3,5.8,85.3,5.5C239.1,138.7,275.4,122.3,261.6,97.3z"/>
	<path fill-rule="evenodd" clip-rule="evenodd" fill="#614833" d="M141.4,93.3l34,5.8c-10.9,23.6-47.8,57.2-87.1,42.9
		c-2.4-3.5,4.9-4.4,9.2-6.5C110.4,129.3,135.7,107.4,141.4,93.3z"/>
	<path fill-rule="evenodd" clip-rule="evenodd" fill="#3A2618" d="M154.8,116.5c15.2-27.2,54.6-22.7,72.6,1.1
		C229.7,120.9,193.5,100.2,154.8,116.5z"/>
	<path fill-rule="evenodd" clip-rule="evenodd" fill="#DACB45" d="M225,76.1c17,1.2,24,21.7,16.4,36.2
		C240.3,114.2,242.1,91.4,225,76.1z"/>
	
		<ellipse transform="matrix(0.1082 -0.9941 0.9941 0.1082 -73.4186 337.6337)" fill-rule="evenodd" clip-rule="evenodd" fill="#010202" cx="151.5" cy="209.7" rx="10.8" ry="11.4"/>
	<circle fill-rule="evenodd" clip-rule="evenodd" fill="#FFFFFF" cx="156.5" cy="204.2" r="2.4"/>
	<path fill-rule="evenodd" clip-rule="evenodd" fill="#FFFFFF" d="M229.5,203.1c-1.6,13.7,8.1,19.8,21.9,21.3
		c13.8,1.5,22.7-4.4,23.2-16.2C276.3,186.7,235.5,177.8,229.5,203.1z"/>
	<path fill-rule="evenodd" clip-rule="evenodd" fill="#614833" d="M273.1,163.9c2.7,4.2,1.6,8.8,0.1,10.4
		c-19.8-8.4-39.1-5.6-48.1-5.7c-0.9-0.1-2.4-1-0.2-4.5C228.9,157.2,264.8,160.3,273.1,163.9z"/>
	
		<ellipse transform="matrix(0.1082 -0.9941 0.9941 0.1082 9.0379 439.5389)" fill-rule="evenodd" clip-rule="evenodd" fill="#010202" cx="249.5" cy="214.7" rx="10.8" ry="11.3"/>
	<circle fill-rule="evenodd" clip-rule="evenodd" fill="#FFFFFF" cx="246" cy="208.5" r="2.6"/>
	<path fill-rule="evenodd" clip-rule="evenodd" fill="#614833" d="M257.7,105.7l1.3-0.5c12.7-4.9,34.4,2,46.7,14.7
		c6,6.2,9.7,23.9,4.7,33.8c-1.1,2.2-27.2,13.6-29.3,14.8c-1.5-40.3-16.2-51.9-24.7-43.5C252.9,128.3,244.9,110.6,257.7,105.7z"/>
	<path fill-rule="evenodd" clip-rule="evenodd" fill="#614833" d="M290,123l-21.1-13.2c14.2-4.5,35.4-4.6,44.6,11.5
		C308.1,117.3,297.8,120.5,290,123z"/>
	<path fill-rule="evenodd" clip-rule="evenodd" fill="#614833" d="M310.8,152.6L298.5,135c-3.4,12.4-0.8,31.5,13.2,37.1
		C308.1,167.5,308.9,159.5,310.8,152.6z"/>
	<path fill-rule="evenodd" clip-rule="evenodd" fill="#614833" d="M307,130.7l-2.8-11.5c6.3,3.1,13.2,11.1,10.4,18.9
		C314.1,135,310.5,132.5,307,130.7z"/>
	<path fill-rule="evenodd" clip-rule="evenodd" fill="#3A2618" d="M301,149.3c3.1-16.5-14.7-28.2-30.3-24.6
		C268.6,125.3,290.6,129.3,301,149.3z"/>
	<path fill-rule="evenodd" clip-rule="evenodd" fill="#3A2618" d="M286,108.5c-7.4-5.4-17.4,0.7-19.3,9.3
		C266.5,118.9,273.6,108.9,286,108.5z"/>
	<path fill-rule="evenodd" clip-rule="evenodd" fill="#3A2618" d="M302.6,122.8c-2.9-10.2-16.2-11.7-24-5.3
		C277.5,118.4,291.1,114.4,302.6,122.8z"/>
	<path fill-rule="evenodd" clip-rule="evenodd" fill="#A68F6A" d="M186.4,171.9c0.2-1.4,1.4-2.4,2.8-2.3c1.4,0.2,2.4,1.4,2.3,2.8
		c-0.8,7.3-3.2,29.7-4.4,47.7c-0.7,10.2-1,18.9-0.4,22.1c1.2,3,3.7,4.6,6.6,5.3c4.2,1,9.3,0.2,13.8-1.4c1.3-0.5,2.8,0.2,3.3,1.6
		c0.5,1.3-0.2,2.8-1.6,3.3c-5.3,1.9-11.5,2.8-16.7,1.6c-4.5-1.1-8.3-3.7-10.2-8.6c-0.1-0.2-0.1-0.3-0.2-0.5
		c-0.7-3.5-0.4-12.8,0.3-23.6C183.2,201.9,185.6,179.3,186.4,171.9z"/>
	<path fill-rule="evenodd" clip-rule="evenodd" fill="#A68F6A" d="M186.8,274.6c0.1-0.4,5.1,2,10.1,2.5c4.7,0.4,9.3-1.3,9.3-1
		c-1.5,4.1-5.9,6-9.8,5.6C189.6,281,186.7,276.8,186.8,274.6z"/>
	<path fill-rule="evenodd" clip-rule="evenodd" fill="#A68F6A" d="M238.6,259.9c-4.8-4.9-8.9-5.6-15-3.4
		C227.3,248.1,239.5,250.8,238.6,259.9z"/>
	<path fill-rule="evenodd" clip-rule="evenodd" fill="#A68F6A" d="M178.5,311.9c0.1,0.5,9.6-0.6,18.3,0.5c8.2,1.1,15.7,4.5,15.7,4.2
		c-1.2-5.1-8.3-8.7-15.1-9.5C185.3,305.6,179,309.4,178.5,311.9z"/>
	
		<ellipse transform="matrix(0.1114 -0.9938 0.9938 0.1114 -144.4031 475.1057)" fill-rule="evenodd" clip-rule="evenodd" fill="#A68F6A" cx="193.5" cy="318.3" rx="2.9" ry="3.4"/>
	<path fill-rule="evenodd" clip-rule="evenodd" fill="#614833" d="M172.2,95.9L191,70.4c-15.5,1-31.1,10.8-49.1,26.8
		c-2.8,2.5-15.7,9.9-15.9,10.9c-0.9,5.7,12,3.3,16.1,2C149.2,107.8,165.1,96.4,172.2,95.9z"/>
	<path fill-rule="evenodd" clip-rule="evenodd" fill="#E3CEAA" d="M127.3,226.9c-1.6-16.6,43.4-22,49.4-4
		c-0.4,7.2-16.7,5.6-28.4,6.5C140.3,230,136,233.3,127.3,226.9z"/>
	<path fill-rule="evenodd" clip-rule="evenodd" fill="#E3CEAA" d="M224.6,231.2c-1.6-16.6,43.4-22,49.4-4
		c-0.4,7.2-16.7,5.6-28.4,6.5C237.6,234.3,233.3,237.7,224.6,231.2z"/>
	<path fill-rule="evenodd" clip-rule="evenodd" fill="#614833" d="M290.5,191.2c0,0.3-3,6-5.9,20c-0.2,1.1-1.2,20.4-2.4,27.3
		c-0.4,2.5-2.2-0.2-2.2-0.1c-2.6,0.6-1.6-49.8,0.6-66c0.3-1.8,6.6,17,8.6,17.4L290.5,191.2z"/>
	<path fill-rule="evenodd" clip-rule="evenodd" fill="#614833" d="M142.3,89l-37.7,38.2c35.1,19.9,112.3,28.8,148.9-24.9
		c-0.2-6.5-10.2-1.2-17.5,0.2C214.1,106.5,162.3,101.7,142.3,89z"/>
	<path fill-rule="evenodd" clip-rule="evenodd" fill="#A8A53A" d="M301.2,116.8l-172.3-15.4c-9.2,2.7-25.6,5.6-32.1,12.5
		c-4.5,4.7-4.1,11.8,16,15.4c32.7,5.9,101.9,13.7,129.6,8.9c19.1-3.3,45.1-5.5,56.5-19.4C299.2,118.4,300.3,118.1,301.2,116.8z"/>
	<path fill-rule="evenodd" clip-rule="evenodd" fill="#EAE553" d="M124.8,98.3c-19.1,5.8-59.8,20-14.6,28.1
		c32.7,5.9,105.6,7.2,133.3,2.4c16.5-2.9,44.6,1,59.3-6.8c1.6-0.5,3-1.2,4.1-1.9c1.6-1,9.4,0.6,10.9-6.6c0.2-2.2-5.8-6.8-5.7-8.9
		c2.1-49.9-36.3-94.5-92.9-98.9C135.9-0.9,126.5,44.3,124.8,98.3z"/>
	<path fill-rule="evenodd" clip-rule="evenodd" fill="#DACB45" d="M168.2,19.3c7.7,5.2,3,48.1-0.4,60.7
		c-3.2,12.2-24.9,16.6-26.7,7.9c-1.9-9.5,12.3-36.8,14.6-42.6C160.1,34.5,166.3,18,168.2,19.3z"/>
	<path fill-rule="evenodd" clip-rule="evenodd" fill="#DACB45" d="M198.5,5.1c19.8,4.6,42.1-1.6,63.4,27.9
		c28.2,39.1,17.2,76.4-35.7,69.6c-10.2-1.3-69.3,0.1-16.3,3.8c59.8,4.2,78.9,18.7-5.4,19.4c-33,0.3-67.4-3.3-97.6-21.4
		c-16.8,6.8-29.8,16,3.3,22c32.7,5.9,105.6,7.2,133.3,2.4c16.5-2.9,44.6,1,59.3-6.8c1.6-0.5,3-1.2,4.1-1.9c1.6-1,9.4,0.6,10.9-6.6
		c0.2-2.2-5.8-6.8-5.7-8.9c2.1-49.9-36.3-94.5-92.9-98.9C211.7,5,204.9,4.8,198.5,5.1z"/>
	<path fill-rule="evenodd" clip-rule="evenodd" fill="#DACB45" d="M202.8,20.2c8.5,5.2,11.1,49,10,61.8c-1.1,12.4-21.6,17-24.8,8.1
		c-3.5-9.7,5.8-37.5,7.1-43.4C197.5,35.7,200.7,18.9,202.8,20.2z"/>
	<path fill-rule="evenodd" clip-rule="evenodd" fill="#DACB45" d="M235.5,22.8c-6.9,6.3,4.3,48,9.5,59.9c5,11.6,27.1,12.7,27.5,3.8
		c0.5-9.7-17.7-34.5-20.9-39.9C245.8,36.6,237.2,21.2,235.5,22.8z"/>
	<path fill-rule="evenodd" clip-rule="evenodd" fill="#DACB45" d="M300.8,103.8c0.5-3.8-66.2,0.1-117-1c-29.2-0.6-52.5-5.7-56.3-7.8
		c-5.3-0.6-8.8,3-5.4,6.1c12.1,5.2,51.3,7.7,63.3,7.6C202.6,108.6,299.9,106.8,300.8,103.8z"/>
	<path fill-rule="evenodd" clip-rule="evenodd" fill="#E3CEAA" d="M131.4,193.4c-2.2-19.8,42.7-25.7,49.2-4.1
		C173.5,187.1,145.6,185,131.4,193.4z"/>
	<path fill-rule="evenodd" clip-rule="evenodd" fill="#E3CEAA" d="M227.7,196.6c-2.2-19.8,42.7-25.7,49.2-4.1
		C269.8,190.4,241.9,188.3,227.7,196.6z"/>
	<path fill-rule="evenodd" clip-rule="evenodd" fill="#AE9164" d="M137.5,182.9c8.1-3.2,18.9-5.1,30.7-2.7c-2.1-3.4-8.4-7-14.3-6.8
		C142.3,174.1,139.6,178.9,137.5,182.9z"/>
	<path fill-rule="evenodd" clip-rule="evenodd" fill="#AE9164" d="M264.3,186.4c-7.7-2.5-17.5-3.4-28.3-0.4
		c1.7-3.3,8.1-6.2,12.5-6.2C259.3,179.8,262,182.8,264.3,186.4z"/>
	<path fill-rule="evenodd" clip-rule="evenodd" fill="#3F2E18" d="M163.9,679.7c-35.3,16.9-46.3,37.4-35.4,46.1
		c10.8,0.7,70.9-24.4,89.5-37.2C218.1,659.2,166.1,678.6,163.9,679.7z"/>
	<path fill-rule="evenodd" clip-rule="evenodd" fill="#6C8FA2" d="M151.8,641.4c-9.9,4.5-7.5,8.6,1.9,16.2
		c7.2,5.8-10.6,31.2,31.3,17.9c15.9-5,43.1,13.6,30.8-9.9c-4.1-7.8-8.5-10.4-6.9-22.8C210.4,630.2,168.7,633.7,151.8,641.4z"/>
	<path fill-rule="evenodd" clip-rule="evenodd" fill="#393738" d="M173,267.1c5,1.3,25.9,7.9,41.5,3.2c8.5-2.6,13.4-9.6,11.6-13.5
		c-1.1-2.2-15.9,4.9-29.4,6.9c-10.5,1.5-20.1-2.5-22.4-1.3C172.4,263.3,169.9,265.3,173,267.1z"/>
	
		<ellipse transform="matrix(0.1115 -0.9938 0.9938 0.1115 -310.6613 501.3665)" fill-rule="evenodd" clip-rule="evenodd" fill="#DB843D" cx="125.1" cy="424.4" rx="21.1" ry="36.8"/>
	<path fill-rule="evenodd" clip-rule="evenodd" fill="#96B8C4" d="M309.8,306c14.7,48,2.1,105.7-39.1,131.5
		c-16.6,10.4-60.3,24.8-56.7-3.2c2.1-16.6,3.2-26.5,20.1-24c17.5,2.6,64.2-30,53.2-76.4C278.4,312.3,283.7,295.1,309.8,306z"/>
	<path fill-rule="evenodd" clip-rule="evenodd" fill="#82A1AC" d="M290.1,313.9l-3,19.6l0.2,0.4c0.8,3.4,1.3,6.8,1.5,10.1
		c14.7-16.9,26.3,34.1-19.1,85.8c-16.2,18.5-45.7-1.1-47.6-18.1c-0.4,0.2-0.8,0.5-1.2,0.8l-5.3,16.9l5.1,19.7
		c12.4,5.4,38.1-4,50-11.5c40.8-25.5,53.6-82.3,39.6-129.9L290.1,313.9z"/>
	<path fill-rule="evenodd" clip-rule="evenodd" fill="#A68F6A" d="M180.9,258.7c-6.6,1.5-9.4,4.7-10.7,11
		C164.9,262.2,173.5,253.2,180.9,258.7z"/>
	<path fill-rule="evenodd" clip-rule="evenodd" fill="#975D3E" d="M132.7,408.1c17.1,1.9,30.1,11.5,29,21.3
		c-1.1,9.8-15.9,16.3-33,14.3s-30.1-11.5-29-21.3C100.8,412.6,115.6,406.2,132.7,408.1z"/>
	<path fill-rule="evenodd" clip-rule="evenodd" fill="#A45A3D" d="M349.2,187.4c-7-35.6-36-36.1-62.1-9.5
		c-14.4,14.7-29.5,88.4,1.1,90.6c27.5,2,37.7-7.4,51.9-30.4C348.4,224.5,350.9,203.5,349.2,187.4z"/>
	<path fill-rule="evenodd" clip-rule="evenodd" fill="#DB843D" d="M356.6,188.2c-5.6-35.4-30.9-35.6-54.1-8.6
		c-12.8,14.9-27,88.6-0.3,90.5c24,1.6,33.1-7.9,45.7-31.1C355.4,225.3,357.8,204.2,356.6,188.2z"/>
	<path fill-rule="evenodd" clip-rule="evenodd" fill="#4D4D4F" d="M11.2,407C34.1,425.6,118,432.7,148,424.7
		c13.2-3.5,65.6-16.5,76.9-15.9c22,1.1,41.8-10.4,40.4,25c-0.3,8.9-1.7,2.2-19.3,6.5c-7.9,1.9-39.6,4.1-52.6,7.5
		c-45.1,11.6-140.9,10-179.2-17.9C5.9,423.8,7.6,415.5,11.2,407z"/>
	<path fill-rule="evenodd" clip-rule="evenodd" fill="#393738" d="M225.7,2.7c50.4,19.3,88.2,83.6,90.1,216.1
		c3.1-0.6,23.4-2.7,23.3-6.3C355.7,106.4,284.2-5.9,225.7,2.7z"/>
	<path fill-rule="evenodd" clip-rule="evenodd" fill="#E3CEAA" d="M196.3,425.2c1.4,1,0.6,0.6,1.2,1.3c-0.4,2.3,2.1,6.8-0.1,15.7
		c-1.3,5.4-0.7-0.7-0.4,4.9c-0.4,2.9,4,8.4,10.4,4.7c4.9-2.8,3,1,4.6-5.3c0.3,3,5.1,12.5,12.5,8.7c5.5-2.9,6.1-4.1,5.9-7.7
		c1.7-0.4,2.7,9.1,10.8,5c7.9-4,6-19.8,4.8-30.4c-0.7-5.9-1.5-12-2.6-17.7c-1.4-7.4-26.7-18.4-38-3.6c-2.7,3.5-7.1,6.3-17.8,12.3
		c-3.7,2.1-10.1,2.8-9.3,10c0.8,6.6,12.7,3.5,17,2.3L196.3,425.2z"/>
	<path fill-rule="evenodd" clip-rule="evenodd" fill="#E3CEAA" d="M57.5,455.2c9.9-10,29.1-37.9,16-47c-0.3-8-11.6,3.7-11.7-4.2
		c0-4.9-5.2-6.4-10.3-0.1c-2.5-0.7-7.9-23.8-25.6,9.6c-5.1,9.7-7.3,33.6,4,27.5c-0.7,2.4-4,16,12.6,10.1c5.2-1.8-8.4-0.2,1.3,7.2
		C48.8,462.2,52.9,459.8,57.5,455.2z"/>
	<path fill-rule="evenodd" clip-rule="evenodd" fill="#A6A7AA" d="M58.3,692.2c5.6,5.6-12.9,41.8,23.7,46.6c8,1.1,42.5,8.3,47.8,0.4
		c3.3-4.9,11.6-33.3,4.4-34.2C128.1,704.5,57.5,699.7,58.3,692.2z"/>
	<path fill-rule="evenodd" clip-rule="evenodd" fill="#DB843D" d="M54.1,689.8c-9.4-74.6-15.1-210.4-1.2-236.2
		c17-9.5,147.1-27.9,143.2,6.8c-6,53.4-21.9,104-30.5,156.5C148.2,724.5,164.5,702.2,54.1,689.8z"/>
	<path fill-rule="evenodd" clip-rule="evenodd" fill="#E3A470" d="M52,671.8c-6.2-58.7-10-141.6-5.6-187.9
		c19.4-13.2,45.8-24.3,63.7-12.3c48.7,32.8,41.7,69.3,34.3,124.9C137.8,646.4,99.6,687.4,52,671.8z"/>
	<path fill-rule="evenodd" clip-rule="evenodd" fill="#D0D0D2" d="M68.2,693.9c-7.4-0.8-12.2,42.3-2.8,43.1c0.4,0,4.5-34.3,3.8-38.3
		C69.1,697.8,69.9,694.1,68.2,693.9z"/>
	<path fill-rule="evenodd" clip-rule="evenodd" fill="#D0D0D2" d="M83.9,695.7c-8.2-0.9-13.6,47.2-3.1,48c0.4,0,5-38.2,4.2-42.6
		C84.8,700,85.7,695.9,83.9,695.7z"/>
	<path fill-rule="evenodd" clip-rule="evenodd" fill="#D0D0D2" d="M100.7,699.7c-8.2-0.9-13.6,47.2-3.1,48c0.4,0,5-38.2,4.2-42.6
		C101.7,704.1,102.6,700,100.7,699.7z"/>
	<path fill-rule="evenodd" clip-rule="evenodd" fill="#D0D0D2" d="M117,699.9c8.2,0.9,2.8,49-7.7,47.5c-0.4-0.1,3.6-38.4,5.3-42.5
		C115.1,703.9,115.1,699.7,117,699.9z"/>
	<path fill-rule="evenodd" clip-rule="evenodd" fill="#D0D0D2" d="M136.2,700.9c7.6,1.1,1.1,45.7-8.6,44c-0.4-0.1,4.6-35.6,6.3-39.4
		C134.3,704.6,134.4,700.7,136.2,700.9z"/>
	<path fill-rule="evenodd" clip-rule="evenodd" fill="#BD723F" d="M132.2,566.9c-0.1-3,0.1-4.8,0-7.8c11.9,2.5,25.6,2.2,36.7-2.9
		c0.7-0.3,0.5,0.3,1-0.5c-0.3,2.3-0.4,5.5-0.7,7.8C161,569.4,144.5,569.4,132.2,566.9z"/>
	<path fill-rule="evenodd" clip-rule="evenodd" fill="#BD723F" d="M130.5,581.2c-0.1-3,0.1-4.8,0-7.8c11.9,2.5,25.6,2.2,36.7-2.9
		c0.7-0.3,0.6,0.3,1-0.5c-0.3,2.3-0.4,5.5-0.7,7.8C159.4,583.7,142.9,583.7,130.5,581.2z"/>
	<path fill-rule="evenodd" clip-rule="evenodd" fill="#BD723F" d="M129.5,594.7c-0.1-3,0.1-4.8,0-7.8c11.9,2.5,25.6,2.2,36.7-2.9
		c0.7-0.3,0.5,0.3,1-0.5c-0.3,2.3-0.4,5.5-0.7,7.8C158.4,597.2,141.8,597.2,129.5,594.7z"/>
	<path fill-rule="evenodd" clip-rule="evenodd" fill="#BD723F" d="M127.2,607.8c-0.1-3,0.1-4.8,0-7.8c11.9,2.5,25.6,2.2,36.7-2.9
		c0.7-0.3,0.6,0.3,1-0.5c-0.3,2.3-0.4,5.5-0.7,7.8C156,610.3,139.5,610.3,127.2,607.8z"/>
	<g>
		<path fill-rule="evenodd" clip-rule="evenodd" fill="#BD723F" d="M69.5,564.5c0.3-3,0.3-4.8,0.6-7.8c-8.2,1.1-17.1,0.8-25.3-1.4
			c0.1,2.8,0.2,5.5,0.3,8.3C52.8,565.4,61.9,565.5,69.5,564.5z"/>
		<path fill-rule="evenodd" clip-rule="evenodd" fill="#BD723F" d="M70,578.9c0.3-3,0.3-4.8,0.6-7.8c-8.1,1.1-17,0.8-25.2-1.3
			c0.1,2.8,0.3,5.6,0.4,8.3C53.4,579.8,62.4,579.9,70,578.9z"/>
		<path fill-rule="evenodd" clip-rule="evenodd" fill="#BD723F" d="M70,592.4c0.3-3,0.3-4.8,0.6-7.8c-7.9,1-16.5,0.8-24.5-1.2
			c0.2,2.8,0.3,5.6,0.5,8.3C54,593.3,62.7,593.3,70,592.4z"/>
		<path fill-rule="evenodd" clip-rule="evenodd" fill="#BD723F" d="M71.3,605.7c0.3-3,0.3-4.8,0.6-7.8c-8.1,1.1-17,0.8-25.2-1.3
			c0.2,2.8,0.3,5.6,0.5,8.4C54.9,606.5,63.8,606.6,71.3,605.7z"/>
	</g>
</g>
</svg>
