<?xml version="1.0" encoding="utf-8"?>
<!-- Generator: Adobe Illustrator 18.0.0, SVG Export Plug-In . SVG Version: 6.00 Build 0)  -->
<!DOCTYPE svg PUBLIC "-//W3C//DTD SVG 1.1//EN" "http://www.w3.org/Graphics/SVG/1.1/DTD/svg11.dtd">
<svg version="1.1" id="Calque_1" xmlns="http://www.w3.org/2000/svg" xmlns:xlink="http://www.w3.org/1999/xlink" x="0px" y="0px"
	 viewBox="0 0 425.2 841.9" enable-background="new 0 0 425.2 841.9" xml:space="preserve">
<g>
	<path fill="#4C4846" d="M221.6,176c10.3,9.6,16.5,15.7,18.4,18.1c8.1,10,12.1,29.5,12.1,58.5c0,1.9-0.2,4.4-0.4,7.3
		c0.1,0.4,0.3,0.9,0.4,1.5c0.3,1.3,0.6,2.6,0.8,4c0,0.2,0.1,0.3,0.2,0.4c20.3,35.1,26.8,70.9,19.4,107.7c2.3-2.9,4.4-7.1,6.3-12.5
		c2.7-8.5,3.5-19.9,2.5-34c-0.4-6.7-1.5-14.8-3.3-24.4c-7.3-20.9-13.6-39.9-19.2-57c-5.4-17.2-9-35.1-10.8-53.4
		c1.9-13.5,1.8-23.4-0.4-29.5c-1.8-1.1-3.3-1.7-4.4-1.7v-0.6c-4.2,0-11.1-0.8-20.7-2.5c-1.5,0-4.8,0.4-9.8,1
		c-3.2,0.4-5.6,0.7-7.3,0.8C210.5,165.3,215.9,170.8,221.6,176L221.6,176z"/>
	<path fill="#383431" d="M251.7,260.5c-0.2,0-0.4-0.2-0.5-0.4c-0.3-1-0.6-2.1-0.8-3.1c-0.3-1-0.6-2.1-0.8-3.1
		c-8.7-29.6-22.9-58.4-42.1-85.6c-2.2-3.2-3.8-5.5-5.4-7.5c-1.7-2.3-3.6-4.8-6-7.9c-0.1-0.1-0.1-0.2-0.1-0.3v-0.8
		c-0.1-0.3-0.1-0.7-0.2-1.2c-0.1-0.4-0.1-0.8-0.2-1.2c0-0.2,0.1-0.5,0.3-0.6c0.1,0,0.1,0,0.2,0c0.2,0,0.3,0.1,0.4,0.2
		c0.2,0.3,0.4,0.5,0.6,0.8c0.2,0.3,0.4,0.6,0.6,0.9c2.6,2.8,5.4,5.8,8.1,8.9c5.4,5.9,10.7,11.2,16.2,16.3
		c10.5,9.8,16.5,15.7,18.4,18.2c8.1,10.1,12.2,29.8,12.2,58.8c0,1.8-0.1,4.2-0.4,7.4C252.2,260.2,252,260.4,251.7,260.5
		C251.7,260.5,251.7,260.5,251.7,260.5L251.7,260.5z"/>
	<path fill="#33302D" d="M243.1,161c1.1,0,2.6,0.6,4.4,1.7c-0.3-0.8-0.6-1.6-1-2.3c-3.2-6-7.5-9.3-13-10c-5.6-0.7-11.5-1.3-17.7-1.7
		c-5.3-0.4-10.8-0.4-16.5,0.2c-1.1,0-2.2,0.1-3.3,0.2c0.4,0.6,0.8,1.1,1.3,1.7c2.7,2.9,5.4,5.9,8.1,8.9c1.7-0.2,4.1-0.4,7.3-0.8
		c5-0.7,8.3-1,9.8-1c9.6,1.7,16.5,2.5,20.7,2.5V161L243.1,161z"/>
	<path fill="#A22116" d="M225.6,211.1c8.4,9,13.6,18.2,15.9,27.3c2.1,9.2,1.7,15.3-1,18.4c-1.4,0-3.2,0.3-5.4,0.8
		c-1.9,0.6-3.9,0.7-5.8,0.4c0.8,1.8,3.8,3.5,9,5.2c-1.7,3.2-2.4,6.4-2.1,9.6c0.6,4,0.8,7.1,0.8,9c-0.4,10.7-0.6,19-0.6,24.9
		c0,2.2-0.5,5.3-1.5,9.4c-1.1,4.2-0.8,6.9,1,8.1c1.7,1.3,2.5,3,2.3,5.2c-0.2,0.2-0.2,0.3-0.2,0.4v0.2c-0.3,1.8-1.1,3.3-2.5,4.4
		c0.2-0.2,0.3-0.2,0.4-0.2c0.7-0.2,1.5-0.3,2.3-0.4c1.1-0.4,2.2-0.8,3.3-1c2.3-0.7,4-1.5,5.4-2.3c0.3-0.2,0.6-0.4,0.8-0.6
		c2.1-1.5,3.1-3.4,3.1-5.6c0-1.1-0.3-2.1-0.8-2.9c-0.2-0.2-0.2-0.2-0.2-0.2c0.2-0.4,0.2-0.8,0.2-1.2c0-1-1.2-4-3.6-9
		c1.9-2.2,2.3-9.6,1-22.3c-1.3-12.8-2.6-20.6-4-23.6c1.8,0.4,4.7-0.8,8.6-3.6c-0.2-0.6-0.3-1-0.4-1.5c-0.6-2.1-1.1-4.2-1.7-6.3
		c-8.8-29.8-22.8-58.4-42.2-85.8c-1.8-2.7-3.6-5.2-5.4-7.5c-1.9-2.7-4-5.3-6.1-7.9c0.6,4,1,7.4,1.5,10.2c-0.4,1.8-1.1,3.7-2.1,5.6
		c-1.1,1.8-1.9,3.2-2.5,4.2l5.4,22.7c2.3-3.3,4.4-7.6,6.5-12.9c0.2-0.7,0.4-1.3,0.6-1.9C212.7,193.5,219.4,203.7,225.6,211.1
		L225.6,211.1z"/>
	<path fill="#C92F17" d="M203.1,341.7l-3.8-0.2c-0.3,0-0.5-0.3-0.5-0.5c0.3-6.6,0.4-12.5,0.4-18.2c0-12.4-0.6-24.7-1.7-36.5
		c0-0.1,0-0.3,0.1-0.4l0.4-0.4c0.8-0.8,1.9-1.8,3.6-3.2c4.1-3.4,7.1-6,8.9-7.9c4.5-4,6.8-10,6.8-17.8c0-2.6,0-5.6-0.2-6.6
		c-0.4-2.2-1.3-4.1-3-5.8c-0.3,2.9-1.4,6.5-3.6,10.9c-3.4,7.2-8.3,11.9-14.5,14.1c-0.1,0-0.1,0-0.2,0h-0.4c-0.3,0-0.5-0.2-0.5-0.4
		c-1.4-8.9-3.4-18-5.8-27.1c-1.2-4.3-8.5-23.5-22.1-58.8c-0.1-0.2,0-0.5,0.2-0.6c0.1-0.1,0.2-0.1,0.3-0.1c0.1,0,0.3,0.1,0.4,0.2
		c3.9,4.6,14.1,8.8,30.3,12.5l0,0c2.1-3.1,4.2-7.3,6.4-12.7c0.1-0.6,0.3-1.3,0.6-1.9c0.1-0.2,0.3-0.3,0.5-0.3c0,0,0,0,0,0
		c0.2,0,0.4,0.1,0.5,0.3c6.9,12.9,13.5,23.2,19.7,30.6c8.3,9,13.7,18.3,16,27.5c2.1,9.4,1.8,15.6-1.2,18.9c-0.1,0.1-0.2,0.2-0.4,0.2
		c-1.4,0-3.1,0.3-5.3,0.8c-1.3,0.4-2.6,0.6-4,0.6l0,0c-0.3,0-0.6,0-0.9,0c1.2,1.4,4,2.8,8.1,4.1c0.1,0.1,0.3,0.2,0.3,0.3
		c0.1,0.1,0,0.3,0,0.4c-1.6,3-2.3,6.2-2,9.3c0.5,3.8,0.8,7,0.8,9c-0.4,10.7-0.6,19-0.6,24.9c0,2.3-0.5,5.5-1.5,9.5
		c-1,4-0.7,6.5,0.8,7.6c1.8,1.4,2.7,3.3,2.5,5.7c0,0.1-0.1,0.2-0.2,0.3l-0.1,0.3c-0.3,2-1.2,3.6-2.7,4.8c-0.1,0-0.1,0.1-0.2,0.1
		c-1,0.2-3,0.9-6.8,2.3c-1.5,0.3-2.9,0.7-4.4,1.3c-0.1,0-0.1,0-0.2,0c-0.1,0-0.2,0-0.3-0.1c-0.1-0.1-0.2-0.2-0.2-0.4l-1-8.6
		c0-0.8,0.4-4.1,1.2-9.9c-1.5,1.1-3.3,2.7-5.5,4.8c-2.7,2.6-5.2,4.6-7.4,5.9c-0.9,0.4-2.2,2.3-3.7,9.1c-0.1,0.3-0.1,0.5-0.2,0.8
		c-0.1,0.4-0.2,0.8-0.3,1.1c-0.1,0.2-0.3,0.4-0.5,0.4H203.1z"/>
	<path fill="#13110C" d="M253.2,265.8h-0.4l0.2-0.4c-0.3-1.4-0.6-2.7-0.8-4c-3.9,2.8-6.7,4-8.6,3.6c1.4,2.9,2.7,10.8,4,23.6
		c1.3,12.7,0.9,20.1-1,22.3c2.4,5,3.6,8,3.6,9c0,0.4-0.1,0.8-0.2,1.2c0,0,0.1,0.1,0.2,0.2c0.6,0.8,0.8,1.8,0.8,2.9
		c0,2.2-1,4.1-3.1,5.6c-0.3,0.3-0.6,0.5-0.8,0.6c-1.4,0.8-3.2,1.6-5.4,2.3l0.2,10.9c3.3-2.3,5.9-4.4,7.7-6.1
		c1.9,7.2,4.4,13.8,7.5,19.8c1.4,2.7,2.5,7.3,3.1,14c0.2,2.7,0.4,5.6,0.6,8.8c0.6,0.2,3.1-0.9,7.5-3.1c1.5-0.8,3-2,4.4-3.6
		C279.9,336.7,273.5,300.9,253.2,265.8L253.2,265.8z"/>
	<path fill="#A22116" d="M224.3,318.6c-1.5,1-3.6,2.8-6.4,5.4c-2.8,2.7-5.2,4.6-7.3,5.9c-1.4,0.7-2.7,3.8-4,9.4
		c-0.2,0.7-0.3,1.3-0.4,1.9c0.3,0,0.6,0,0.8,0c5.2-0.4,10.9-1.5,17.1-3.1l-1-8.6c0-0.7,0.4-4.1,1.3-10.2V318.6L224.3,318.6z"/>
	<path fill="#13110C" d="M235.8,334.2c-0.2,0-0.3,0-0.4,0.2c-1.1,0.3-3.4,1-6.9,2.3c0.3,3.1,0.4,6.4,0.4,10c0,1.8-0.1,3.4-0.2,5
		c2.5-1.1,5.6-2.9,9.4-5.4l0.4-5.2c0-0.6-0.2-2.5-0.4-5.6c0-0.7,0-1.3,0-1.7C237.3,334,236.5,334.1,235.8,334.2L235.8,334.2z"/>
	<path fill="#D6D4D4" d="M224.1,338c-6.2,1.7-11.9,2.7-17.1,3.1c0.3,1,0.6,2.2,0.8,3.8c0.6,3.2,0.8,6,0.8,8.5c2.8-0.2,5.8-0.2,9-0.2
		c1.9,0,3.9,0,6,0c1,0,2.3-0.3,4-0.8c0.3-0.3,0.6-0.5,1-0.6c0.1-1.5,0.2-3.2,0.2-5c0-3.6-0.2-7-0.4-10
		C227.1,337,225.6,337.4,224.1,338L224.1,338z"/>
	<path fill="#234877" d="M218.9,425.1c-0.1,0-0.2,0-0.3-0.1c-0.1-0.1-0.2-0.3-0.2-0.4c0-0.9,0.1-2,0.4-3.6c1-7.1,0.4-29.2-1.6-67.7
		c0-0.1,0-0.3,0.1-0.4c0.1-0.1,0.2-0.2,0.4-0.2h6c1,0,2.2-0.3,3.8-0.8c0.1,0,0.1,0,0.2,0c0.1,0,0.2,0,0.3,0.1
		c0.1,0.1,0.2,0.3,0.2,0.4c-0.3,25.4-0.6,45.3-1,57.6c0,0.1,0,0.1,0,0.1c-3,9.1-5.6,13.9-8,14.9C219,425.1,219,425.1,218.9,425.1
		L218.9,425.1z"/>
	<path fill="#274E84" d="M228.7,351.7c-0.4,0.2-0.8,0.4-1,0.6c-0.3,26.6-0.6,45.8-1,57.6c3.8-3.6,7.6-8.3,11.5-14
		c1.4-2.1,2.8-4.4,4.2-6.9c0.2-0.3,0.3-0.6,0.4-0.8c1.5-0.6,3.4-1.5,5.4-2.7c2.8-1.6,4.8-3.3,6.1-5c-0.2,1.9-1.6,5.4-4.4,10.4
		c-3.3,6.3-7.7,12.5-13,18.8c-1.5,14.9-3,26.2-4.4,34c-1.4,7.1-2.1,13.6-2.1,19.6c0,3.5,2.5,13.4,7.5,29.9c5,16.4,7.5,27.5,7.5,33.2
		c0,9.6,1,16.9,3.1,21.9c2.1,5.2,5.7,9.2,11,12.3c-1.4,0.4-2.8,1.4-4.1,2.9c-1.1,1.4-1.7,2.5-1.7,3.3c5.5,66.6,8.3,112,8.3,136
		l-1.7,25.1c0,1.9,0.4,6.1,1,12.3c4.8,1.3,9.8,1.9,15,1.9h0.6c11.4,0,20.7-2.1,27.9-6.3l0.8-0.4l4-2.9c-3.2-7.5-6.5-21.6-9.8-42.3
		L282.4,577l0.2-8.6c-0.2-7.3-1.8-18.2-5-33c-1.1-5.2-2.9-21-5.2-47.4c-2.5-29.1-4.4-48.3-5.8-57.6c-2.5-16.7-4.4-28.9-5.6-36.7
		c0-1,0-1.9,0-2.7c0-0.6,0-1,0-1.5c0-3.3-0.1-6.4-0.2-9.3c-0.3-3.2-0.5-6.1-0.6-8.8c-0.7-6.7-1.7-11.3-3.1-14
		c-3-6-5.5-12.6-7.5-19.8c-1.8,1.7-4.4,3.7-7.7,6.1l-0.2-10.9c-1.1,0.3-2.2,0.6-3.3,1c0,0.4,0,1,0,1.7c0.2,3.2,0.4,5.1,0.4,5.6
		l-0.4,5.2C234.3,348.8,231.2,350.6,228.7,351.7L228.7,351.7z"/>
	<path fill="#A22116" d="M217.9,256.6c0-3.6,0-5.9-0.2-6.7c-0.4-2.5-1.6-4.7-3.6-6.5l-0.4-0.4c0,3.1-1.2,7-3.5,11.9
		c-3.3,7.1-8.1,11.7-14.2,13.8h-0.4c0.8,4.9,1.5,9.8,2.1,14.8c0,0.4,0.1,0.8,0.2,1.3c0,0.6,0.1,1,0.2,1.5c0.2-0.2,0.3-0.3,0.4-0.4
		c0.8-0.8,2-1.9,3.6-3.1c4-3.3,7-6,9-7.9C215.6,270.6,217.9,264.5,217.9,256.6L217.9,256.6z"/>
	<path fill="#1D3A5D" d="M261.5,740.9c0,0-0.1,0-0.1,0c-1-0.2-2.1-0.6-3.2-1.1c-2.2-0.6-5.9-2.1-10.4-4.2l-2.9-1.2l-8.2-3.9
		c-0.2-0.1-0.3-0.3-0.3-0.5c2.7-39.6,3.3-94.6,1.9-163.6l-1.2-8.5l-2.9-8.1c-6.6-23.9-11.3-42.9-14-56.6c-2.6-13.5-5.3-23.9-8.1-31
		c0-0.1,0-0.2,0-0.3c0.2-1.3,0.4-2.5,0.6-3.6c2.1-11,3.8-21.2,5.2-30.3c0-0.4,0.2-1.6,0.6-3.6c0-0.2,0.1-0.3,0.3-0.4
		c2.1-0.9,4.6-5.7,7.4-14.3c0-0.1,0.1-0.2,0.1-0.2c3.6-3.5,7.4-8.1,11.4-13.9c1.2-1.8,2.5-4,4.2-6.9c0.1-0.1,0.1-0.3,0.2-0.4
		c0.1-0.2,0.1-0.3,0.2-0.5c0.1-0.1,0.2-0.2,0.3-0.2c1.6-0.6,3.4-1.5,5.4-2.7c2.7-1.6,4.7-3.2,5.9-4.8c0.1-0.1,0.3-0.2,0.4-0.2
		c0.1,0,0.1,0,0.2,0c0.2,0.1,0.4,0.3,0.3,0.5c-0.2,2-1.7,5.6-4.4,10.6c-3.3,6.2-7.6,12.5-12.9,18.8c-1.5,14.7-3,26.1-4.4,33.9
		c-1.4,7-2.1,13.5-2.1,19.5c0,3.4,2.5,13.4,7.5,29.7c5,16.4,7.5,27.6,7.5,33.3c0,9.5,1,16.8,3.1,21.7c2.1,5.1,5.6,9,10.8,12.1
		c0.2,0.1,0.3,0.3,0.2,0.5c0,0.2-0.2,0.4-0.4,0.4c-1.3,0.4-2.6,1.3-3.9,2.8c-1,1.3-1.5,2.3-1.5,3c5.5,66.3,8.3,112.1,8.3,136
		l-1.7,25.1c0,1.8,0.3,5.7,1,12.2c0,0.2,0,0.3-0.2,0.5C261.7,740.8,261.6,740.9,261.5,740.9L261.5,740.9z"/>
	<path fill="#274E84" d="M218.9,424.6c0-0.9,0.2-2.1,0.4-3.5c1-7.3,0.4-29.9-1.6-67.9c-3.2,0-6.2,0.1-9,0.2c-1.5,0-3,0-4.4,0.2
		c-1.4,16.9-2.5,28.5-3.3,34.8c-0.6,5.2-1.3,9.4-2.1,12.5c0.2,0,0.3,0.1,0.4,0.2c4.8,2.2,7.1,4,7.1,5.4c0,1-0.7,1.6-2.1,1.9
		c-0.6,0-1.1,0.1-1.7,0.2c-0.6,0-1,0.1-1.5,0.2c0,0.2,0.1,0.4,0.2,0.6c0.7,2.9,2.7,8.5,5.9,16.7c-0.7,2.5-1.5,5.5-2.5,9
		c-1,3.6-1.9,6.6-2.9,9c-1.1,2.3-3.6,3.8-7.3,4.4c-3.9,0.7-6,1.3-6.3,1.7c-2.7,0.7-4.8-0.5-6.3-3.6c-0.3-0.3-0.5-0.7-0.6-1.3
		c0-3.3-0.7-6.7-2.3-10.2c-1.4-0.6-3-1.3-4.8-2.1c-2.8,6.1-4.6,12.1-5.4,18c-0.4,2.4-1,12.4-1.9,30.2c-1.7,33.3-2.5,58.2-2.5,74.7
		c0,3.6,0.2,5.7,0.4,6.3c0.6,1.7,2.4,3.3,5.4,5v1.7c-1.7,0.6-4.4,0.8-8.4,0.8c-2.2,7.6-12.5,37.2-30.9,88.9
		c-10.7,30.3-17.9,53.2-21.5,68.5c5.2,0.8,9.6,1.4,13.4,1.7c2.1,0.2,4,0.2,5.6,0.2c4.2,0,9.6-0.6,16.2-1.7c2.7-0.4,5-0.9,7.1-1.5
		c3.1-0.7,5.2-1.5,6.5-2.3c-0.2-2.1,0.2-5.6,1-10.7c0.4-2.4,3.4-13,9-31.7c5.4-18.2,9.9-32.9,13.3-44c6.8-21.4,13-48.4,18.6-81
		l0.6-0.8c1.3-1.9,3.1-8.4,5.4-19.2c0.4-1.8,0.8-5.6,1-11.5c0.2-5.8,0.7-10.1,1.7-12.7c0.8-2.7,1.5-11.3,2.1-26.1
		c0.6-14.8,1-22.8,1.3-24c0.2-1.3,0.4-2.5,0.6-3.6c2.1-11,3.8-21.1,5.2-30.3C218.3,427.7,218.5,426.5,218.9,424.6L218.9,424.6z"/>
	<path fill="#342516" d="M258.3,739.3c-2-0.6-5.5-1.9-10.4-4.2l-2.9-1.3c0.4,5,1.5,17.3,3.3,36.8c1.7,0.7,3.2,1,4.6,1
		c3.5,0,5.6-0.2,6.6-0.6c0.4-0.5,0.6-2.9,0.6-7.3c0-3.5,0.3-6.4,0.8-8.8c2.1,1.8,5.8,5.9,11.3,12.3c5.7,6.9,10.9,11.7,15.7,14.4
		c5,2.8,9.8,5.1,14.6,6.9c4.9,1.7,14.8,2.1,29.7,1.3c14.9-0.8,21.9-3.9,21.1-9.2c-1-5.3-5.8-10.1-14.4-14.6
		c-4.5-2.3-9.3-5.7-14.1-10c-2.9,0.8-5.9,2.4-8.8,4.6c-3.5,2.4-6.1,4.4-7.7,6.3l-14.4-10.7c-7.3-5.6-13-10.2-17.4-14
		c-5.3,0-10.3-0.6-15-1.9C260.4,740.1,259.3,739.7,258.3,739.3L258.3,739.3z"/>
	<path fill="#FBE7B9" d="M276.5,742.2c4.3,3.8,10.1,8.4,17.4,14l14.4,10.7c1.7-1.8,4.2-3.9,7.7-6.3c2.9-2.2,5.9-3.8,8.8-4.6
		c-5-4.4-9.7-9.2-14-14.4l-4.8-6.1l-0.8,0.4c-7.2,4.2-16.5,6.3-27.9,6.3H276.5L276.5,742.2z"/>
	<path fill="#3B3835" d="M157.6,147.5c0-1,0.1-1.9,0.2-2.9c-3.6,1.8-5.6,3.4-5.8,4.8c-1.3,3.3-2.3,6.5-3.1,9.3
		c-0.8,2.9-1.5,5.8-2.1,8.6c-0.7,1.1-1.3,2.1-1.7,3.1c0.7,2.9,1.4,5.7,2.1,8.4c1-2.7,2.3-6.5,4-11.5c1-3.3,3.5-5.8,7.5-7.3
		c-0.2-0.4-0.3-0.8-0.4-1.3c-0.6-1.3-1-2.5-1.5-3.6C156.9,152.9,157.1,150.4,157.6,147.5L157.6,147.5z"/>
	<path fill="#EEBA2F" d="M157.8,144.5c-0.2,1-0.2,1.9-0.2,2.9c-0.4,2.9-0.7,5.5-0.8,7.7c0.4,1.1,0.9,2.3,1.5,3.6
		c0.6,0.3,1.1,0.5,1.7,0.6c4,3.2,7.5,5.3,10.2,6.3c0.1-5.4,0.1-11.1,0-17.1c5.8,4.3,12,6.4,18.5,6.4c2.4,0,4.9-1.1,7.5-3.3h0.2
		c-0.2-0.8-0.3-1.7-0.4-2.5c-0.4-2.8-0.8-5.9-1.3-9.2c-1.4-11.5-2.5-20.1-3.3-25.4c-4.3-2.9-9.5-6.5-15.6-10.7
		c-5.9-4-11.5-4.7-16.9-1.9c-0.2,9-0.5,23.1-1,42.2C157.8,144.3,157.8,144.4,157.8,144.5L157.8,144.5z"/>
	<path fill="#F5D071" d="M196.4,151.6h-0.2c-2.7,2.2-5.2,3.3-7.5,3.3c-6.5,0-12.7-2.1-18.5-6.4c0.1,6,0.1,11.6,0,17.1
		c11.7,4.8,19.4,7.1,23.1,6.9c0.6-1,1.4-2.3,2.5-4.2c1-1.9,1.7-3.8,2.1-5.6c-0.4-2.8-0.9-6.2-1.5-10.2
		C196.4,152.2,196.4,151.9,196.4,151.6L196.4,151.6z"/>
	<path fill="#E52B12" d="M198.7,195.2l-5.4-22.7c-3.8,0.2-11.5-2.1-23.1-6.9c-2.8-1-6.2-3.1-10.2-6.3c-0.6-0.2-1.1-0.4-1.7-0.6
		c0.2,0.4,0.3,0.8,0.4,1.3c3.2,8.2,6.2,15.8,9,22.8c4,4.8,14.3,9,30.9,12.7L198.7,195.2L198.7,195.2z"/>
	<path fill="#383431" d="M146.7,167.3c-1.9,0.3-6.7,2.2-14.4,5.8c-7.7,3.6-14.8,9-21.3,16.1c-4,4.1-6.9,8.5-8.7,12.9
		c0.7-0.3,1.3-0.4,1.8-0.4c1.7,0,3.8,0.4,6.5,1.3c2.4,0.8,4.1,1.7,5.2,2.5c2.5-4.2,7.3-8.6,14.2-13.3c6.3-4.4,10.4-6.7,12.5-6.7
		c2.7,0,5.8,9.7,9.4,29c3.5,20.4,5.5,31.8,6.1,34c1.7,5.7,8.4,12.3,20.1,19.6c8.7,5.4,15.4,11,19.8,16.7c-0.2-0.4-0.2-0.8-0.2-1.3
		c-1.7-2.1-3.6-4.3-5.8-6.7c-9.7-11-18.5-19-26.3-24v0.4c-1.1-7.8-3.4-18.2-6.9-31.1c-1.9-7.1-5.8-21.6-11.5-43.4
		c-0.7-2.7-1.4-5.4-2.1-8.4C145.4,169.4,146,168.4,146.7,167.3L146.7,167.3z"/>
	<path fill="#4C4846" d="M197.6,284c-0.2,0-0.3-0.1-0.4-0.2c-1.8-2.3-3.8-4.5-5.8-6.7c-9.4-10.6-18-18.5-25.6-23.5
		c-0.1,0.1-0.2,0.1-0.3,0.1c0,0,0,0,0,0c-0.3,0-0.5-0.2-0.5-0.5c-1.1-7.8-3.4-18.2-6.9-31c-1-3.6-4.7-17.2-11.5-43.4
		c0-0.1,0-0.2,0-0.3c0.9-2.4,2.1-6,4-11.5c1-3.5,3.7-6.1,7.8-7.6c0.1,0,0.1,0,0.2,0c0.2,0,0.4,0.1,0.5,0.3c3.2,8.1,6.2,15.7,9,22.8
		c13.6,35.3,20.9,54.6,22.1,58.9c2.4,9.1,4.4,18.3,5.9,27.2c0.8,4.6,1.5,9.5,2.1,14.8c0,0.2-0.1,0.5-0.3,0.5
		C197.8,284,197.7,284,197.6,284L197.6,284z"/>
	<path fill="#4C4846" d="M146.5,402.8c-0.2,0-0.3-0.1-0.4-0.2c-7.3-9.8-15.6-24.3-24.6-43.1c-11-22.8-16.6-39.2-16.6-48.9
		c0-2.6,0.7-12.1,2.1-26.7c1.4-14.7,2.1-24.3,2.1-27.9c0-11.8-0.7-19.8-2.1-24.3c-0.8-2.6-3.2-7.2-7-13.6c0-0.1-0.1-0.2-0.1-0.2
		l-0.4-7.5c0.3-2.8,1.1-5.6,2.4-8.4c0.1-0.1,0.2-0.2,0.3-0.3c0.8-0.3,1.4-0.4,2-0.4c1.7,0,3.9,0.4,6.6,1.3c2.2,0.8,3.8,1.5,4.9,2.3
		c2.6-4.1,7.3-8.4,14.1-13c6.4-4.6,10.6-6.8,12.8-6.8c2.1,0,5.1,3.3,9.9,29.4c3.4,19.8,5.5,31.7,6,34c1.6,5.6,8.3,12.1,19.8,19.3
		c8.7,5.4,15.5,11,19.9,16.8c0.1,0.1,0.1,0.2,0.1,0.3c0,0.6,0.1,1,0.2,1.3c0,0,0,0.1,0,0.1c1.1,11.9,1.7,24.2,1.7,36.6
		c0,5.7-0.1,11.6-0.4,18.2c-0.2,3.9-0.6,8.2-1,13.1c-0.3,2.2-0.6,4.5-0.8,6.7c-0.3,2.2-0.5,4.5-0.8,6.7c-0.8,5-1.5,9.6-2.1,13.8
		c-0.5,3.4-1,6.5-1.4,9.4c0,0.1-0.1,0.3-0.2,0.4c-0.1,0.1-0.2,0.1-0.3,0.1c0,0-0.1,0-0.1,0c-6.6-1.9-12-3.4-16.5-4.8
		c-0.1,0-0.1,0-0.2-0.1c-2.7-2.1-9.8-12.2-21.7-31c-0.1-0.1-0.1-0.3-0.1-0.4c1.1-3,2.4-6.3,4-10.2c5.6-14,8.5-22.9,8.5-26.6
		l-1.2-2.6c-0.9-2.2-1.3-4.1-1.3-5.7c0-0.3,0.2-0.5,0.4-0.5l12.4-2.2c-8.5-1.6-13.1-4.8-14.1-9.7c-0.2-1.2-2.3-6-11.2-21.8
		l-10.9-19.2c-0.1-0.1-0.1-0.2-0.1-0.4c1.4-6.8,1.6-13.9,0.6-21.6c-0.1-0.5-0.2-1.2-0.2-2c-3.1-4.6-8.6-9.7-16.5-15v1.2
		c1.5,4,2.3,10,2.3,17.8c0,4.5-0.8,12.1-2.3,23.1c-1.7,10.7-2.5,17.7-2.5,21l0.8,35.2c0,0.2-0.1,0.4-0.3,0.5c-0.1,0-0.2,0-0.2,0
		c-0.1,0-0.2,0-0.3-0.1c-0.6-0.5-1.6-0.7-3.2-0.7h-1.9c1.5,3.4,13.9,29.2,37.2,77.5c0.1,0.2,0.1,0.5-0.1,0.6c-1.3,1-2.4,2.1-3.5,3.5
		c-1.7,1.9-3.1,3.7-4.1,5.6C146.8,402.7,146.7,402.8,146.5,402.8C146.5,402.8,146.5,402.8,146.5,402.8L146.5,402.8z"/>
	<path fill="#656160" d="M154.1,393.6c-0.2,0-0.3-0.1-0.4-0.3c-24.2-50.3-36.7-76.2-37.4-77.9c0-0.1,0-0.1,0-0.2v-0.4
		c0-0.3,0.2-0.5,0.5-0.5h2.5c1.3,0,2.3,0.1,3,0.4l-0.8-34.3c0-3.4,0.8-10.3,2.5-21.1c1.5-10.9,2.3-18.4,2.3-22.9
		c0-7.7-0.8-13.6-2.3-17.5c0-0.1,0-0.1,0-0.2v-2.3c0-0.2,0.1-0.4,0.3-0.5c0.1,0,0.2-0.1,0.2-0.1c0.1,0,0.2,0,0.3,0.1
		c8.5,5.7,14.4,11,17.6,16c0.1,0.1,0.1,0.2,0.1,0.3c0,0.8,0.1,1.4,0.2,2c1,7.7,0.8,15.1-0.6,22c-0.7,2.9-1.5,5.5-2.4,7.9l-1,17.6
		l-3.5,36.3c-0.2,3.1,0.9,7.5,3.1,13.1c2.5,6.5,5.2,12.7,8.1,18.9c1.7,3.7,3.7,8.2,6,12.7c0.7,1.3,1.4,2.7,2.2,4.2l1.7,3.3
		c3.5,6.8,6.1,11.7,8,15.6c0.1,0.2,0,0.5-0.2,0.7c-3.4,2-6.5,4.3-9.3,6.6l-0.2,0.2c-0.1,0.1-0.2,0.1-0.4,0.1
		C154.2,393.6,154.1,393.6,154.1,393.6z"/>
	<path fill="#383431" d="M109.5,256c0-11.7-0.7-19.9-2.1-24.5c-0.8-2.6-3.2-7.2-7-13.7v2.9L96.8,314c1.7,8.6,4,16.7,7.1,24
		c2.1,5.2,5,11,8.6,17.5c2.8,7.3,6.1,14.8,9.8,22.8c1.9,4.3,3.9,8.4,5.9,12.1c2.9,5.6,5.7,10.6,8.4,15.1c0.4,0.7,0.8,1.4,1.3,2.1
		c1.5,2.3,3,4.6,4.5,6.7c0.2-1.7,0.5-3.3,1-4.8c0-0.3,0.1-0.5,0.2-0.6c0.2-0.8,0.4-1.5,0.6-2.1c0.3-0.6,0.6-1.1,0.8-1.7
		c0.4-1,0.9-1.9,1.5-2.7c-7.4-9.9-15.6-24.2-24.6-43c-11-22.8-16.5-39-16.5-48.6c0-2.5,0.7-11.4,2.1-26.7
		C108.9,268.8,109.5,259.5,109.5,256L109.5,256z"/>
	<path fill="#33302D" d="M179.3,307.1v-0.4c-9.3-1.4-14.5-4.6-15.5-9.6c-0.3-1.8-4-9.1-11.3-21.9c-4.2-7.4-7.8-13.7-10.9-19.2
		c-0.7,2.7-1.5,5.3-2.5,7.9l-1,17.7c3.5,5.3,7.3,11.1,11.4,17.6c1.8,2.9,3.5,5.6,5,7.9c-0.8,10.3-3.8,24.7-8.8,43.2
		c1.8,4,3.8,8.3,6.1,12.7c1.3,2.3,2.6,4.9,4,7.5c3.3,6.4,6,11.6,7.9,15.6l6.9,6.7c5,1.5,8.8,2.9,11.4,4l2.7-0.2
		c2.4,0.3,4.8,0.8,7.1,1.7c0.3-2.4,0.6-5,1-7.7c-6.4-1.8-11.9-3.4-16.5-4.8c-2.7-2-9.8-12.3-21.5-30.9c1.1-3.1,2.4-6.5,4-10.2
		c5.7-14.2,8.6-23.2,8.6-27l-1.3-2.7c-0.8-2.1-1.3-3.9-1.3-5.4L179.3,307.1L179.3,307.1z"/>
	<path fill="#13110C" d="M207.9,344.9c-0.3-1.5-0.6-2.8-0.8-3.8c-0.3,0-0.6,0-0.8,0c-1.1,0-2.1,0-3.1,0l-3.8-0.2
		c-0.3,4.3-0.6,8.7-1,13.1c1.8-0.2,3.8-0.3,6.1-0.4c1.4-0.2,2.9-0.2,4.4-0.2C208.7,350.9,208.4,348.1,207.9,344.9L207.9,344.9z"/>
	<path fill="#1D3A5D" d="M198.9,401.5c-0.1,0-0.2,0-0.2,0c-2.6-1.2-4.8-2.1-6.8-2.7c-0.2-0.1-0.4-0.3-0.4-0.6c0.2-2.1,0.6-4.5,1-7.7
		c0.4-2.9,0.9-6,1.4-9.4c0.6-4.2,1.3-8.8,2.1-13.8c0.3-2.2,0.6-4.4,0.8-6.7c0.3-2.2,0.5-4.5,0.8-6.7c0-0.2,0.2-0.4,0.5-0.4
		c1.2-0.1,2.4-0.2,3.7-0.3c0.7,0,1.5-0.1,2.3-0.2c0,0,0,0,0,0c0.1,0,0.3,0.1,0.4,0.2c0.1,0.1,0.2,0.3,0.2,0.4
		c-1.5,17.6-2.5,28.7-3.4,34.9c-0.6,5.4-1.3,9.5-2.1,12.6c0,0.2-0.1,0.3-0.3,0.3C199,401.5,198.9,401.5,198.9,401.5L198.9,401.5z"/>
	<path fill="#F2C553" d="M192,398.3c-2.4-0.8-4.7-1.4-7.1-1.7l-2.7,0.2c2.5,1.4,5.4,3.1,8.8,5.2c0.2,0,0.3,0.1,0.4,0.2
		c2.7,1.1,4.8,2.1,6.3,2.9c1.5,0.7,2.4,1.1,2.5,1.3c0.3,0.6,0.6,1.4,1,2.5c0.4-0.2,0.9-0.2,1.5-0.2c0.6-0.2,1.1-0.2,1.7-0.2
		c1.4-0.3,2.1-0.9,2.1-1.9c0-1.4-2.3-3.2-7.1-5.4c-0.2-0.1-0.3-0.2-0.4-0.2C196.5,399.9,194.2,399,192,398.3L192,398.3z"/>
	<path fill="#FBE7B9" d="M190.9,402.1c-3.3-2.1-6.3-3.8-8.8-5.2c-2.6-1.1-6.4-2.5-11.4-4c-2.7,1.7-5.9,4.3-9.8,7.9
		c-0.4,0.3-0.8,0.6-1,1c12.5,11.3,20.1,16.9,22.7,16.9c0.8,0,2.8-0.9,5.9-2.7c3.1-1.7,5-2.9,5.8-3.6l5.2-2.3
		c0.7-0.3,1.3-0.5,1.9-0.6c-0.2-0.3-0.2-0.5-0.2-0.6c-0.4-1.1-0.8-1.9-1-2.5c-0.2-0.2-1-0.6-2.5-1.3c-1.5-0.8-3.6-1.8-6.3-2.9
		C191.2,402.1,191.1,402.1,190.9,402.1L190.9,402.1z"/>
	<path fill="#F4CD67" d="M201.4,409.6c-0.6,0.1-1.2,0.4-1.9,0.6l-5.2,2.3c-0.8,0.7-2.8,1.9-5.8,3.6c-3.1,1.8-5,2.7-5.9,2.7
		c-2.6,0-10.2-5.6-22.7-16.9c-1,1-1.9,1.9-2.7,2.7c-2.9,3.2-5,6.2-6.1,9c0.3,0.4,0.5,0.8,0.6,1.2c0,0.2,0.1,0.4,0.4,0.6
		c0.6,0.8,1.5,2.4,2.9,4.6c0.3,0.4,0.6,0.8,1,1c1.4,1.5,3.6,3.2,6.7,5c0.3,0.2,0.6,0.3,0.8,0.4c1.5,1.1,3,2.1,4.4,3.1
		c1.4,0.8,2.7,1.6,4,2.3c0.8,0.4,1.6,0.8,2.3,1.3c1.8,0.8,3.4,1.5,4.8,2.1c1.5,3.5,2.3,6.9,2.3,10.2c0.2,0.6,0.4,1,0.6,1.3
		c1.5,3.1,3.6,4.2,6.3,3.6c0.3-0.4,2.4-1,6.3-1.7c3.8-0.6,6.2-2,7.3-4.4c1-2.4,1.9-5.4,2.9-9c1-3.5,1.8-6.5,2.5-9
		C204,418,202.1,412.5,201.4,409.6L201.4,409.6z"/>
	<path fill="#8B2113" d="M146.5,402.3c-0.6,0.8-1,1.7-1.5,2.7c-0.3,0.6-0.6,1.1-0.8,1.7c3.5,4.4,5.7,7.1,6.7,7.7
		c0-0.3,0-0.6,0.2-0.8c1.1-2.8,3.1-5.8,6.1-9c-1-1.1-2.1-2.5-3.3-4c-1.3-1.5-2.3-2.9-3.1-4C149,398.4,147.6,400.3,146.5,402.3
		L146.5,402.3z"/>
	<path fill="#4C4846" d="M137.8,407.5c-0.4-0.7-0.8-1.4-1.3-2.1c-0.4,2.7-0.9,5.8-1.5,9.6c-0.2,1.1-0.3,2.1-0.4,3.1
		c1.1,1,2.2,1.9,3.3,2.7c2.2,1.8,3.9,3.2,5.2,4.1c1.4,1,2.8,1.8,4.2,2.5c4.2,2.2,8,3.3,11.3,3.3c3.2,0,6.3-0.4,9.4-1.3
		c-1.4-1-2.9-2-4.4-3.1c-0.3-0.2-0.6-0.3-0.8-0.4c-3.1-1.8-5.3-3.5-6.7-5c-0.4-0.3-0.8-0.6-1-1c-1.4-2.2-2.4-3.8-2.9-4.6
		c-0.3-0.3-0.4-0.5-0.4-0.6c-0.2-0.4-0.4-0.8-0.6-1.2c-0.2,0.3-0.2,0.6-0.2,0.8c-1-0.7-3.2-3.3-6.7-7.7c-0.3,0.6-0.5,1.3-0.6,2.1
		c-0.2,0.2-0.2,0.4-0.2,0.6c-0.6,1.5-0.9,3.1-1,4.8C140.8,412.1,139.3,409.8,137.8,407.5L137.8,407.5z"/>
	<path fill="#C92F17" d="M170.7,392.9l-6.9-6.7c-3.5,2.1-6.6,4.3-9.4,6.7c-0.2,0.2-0.2,0.2-0.2,0.2c-1.4,1.1-2.6,2.3-3.6,3.6
		c0.8,1.1,1.9,2.5,3.1,4c1.3,1.5,2.3,2.9,3.3,4c0.8-0.8,1.7-1.7,2.7-2.7c0.3-0.4,0.6-0.8,1-1C164.8,397.2,168.1,394.5,170.7,392.9
		L170.7,392.9z"/>
	<path fill="#1D3A5D" d="M109.5,727.7c-0.9-0.1-1.8-0.3-2.7-0.4c-0.9-0.1-1.8-0.3-2.7-0.4c-2.4-0.4-4.5-0.9-6.5-1.3
		c-6.6-1.3-10.4-4.5-11.5-9.6c0-0.1,0-0.2,0-0.3c0.5-1.2,2.4-5.6,5.6-13.3c3.8-9.2,9.6-23,17.4-41.4c16.4-39.7,32.7-76.1,48.4-108.2
		l-10.6-125.3c0-0.2,0.1-0.4,0.2-0.5c0.1-0.1,0.2-0.1,0.3-0.1c0.1,0,0.2,0,0.3,0.1c4.1,2.2,7.8,3.3,11,3.3c3.1,0,6.2-0.4,9.3-1.2
		c0,0,0.1,0,0.1,0c0.1,0,0.2,0,0.3,0.1l0.5,0.3c1.2,0.7,2.4,1.4,3.5,2c0.9,0.5,1.7,0.9,2.3,1.3c0.2,0.1,0.3,0.4,0.2,0.7
		c-2.8,6.1-4.6,12.1-5.4,17.8c-0.4,2.3-1,12.5-1.9,30.2c-1.7,33.1-2.5,58.2-2.5,74.7c0,4.9,0.3,5.9,0.4,6.1c0.6,1.6,2.3,3.2,5.2,4.8
		c0.2,0.1,0.3,0.3,0.3,0.5v1.7c0,0.2-0.1,0.4-0.4,0.5c-1.6,0.6-4.3,0.8-8.1,0.9c-2.4,8.2-12.8,37.9-30.8,88.5
		c-10.9,30.9-17.9,53.3-21.5,68.4C110,727.6,109.8,727.7,109.5,727.7C109.5,727.7,109.5,727.7,109.5,727.7z"/>
	<path fill="#33302D" d="M133.4,417.3c0.4,0.3,0.8,0.6,1.3,0.8c0.2-1,0.3-2,0.4-3.1c0.6-3.8,1-6.9,1.5-9.6
		c-2.7-4.4-5.4-9.5-8.4-15.1c-0.3,1.5-0.6,3.3-1.1,5.2c-1.7,7.9-2.7,12.4-3.1,13.4c3.5,3.1,6.5,5.8,9.2,8.1
		C133.3,417.1,133.4,417.1,133.4,417.3L133.4,417.3z"/>
	<path fill="#FBE7B9" d="M122.9,728.9c1.5,3.3,3.1,6.4,4.8,9.4c1.9,3.2,3.3,5.2,4,5.8c3.6-2.7,6.1-4.3,7.5-5
		c2.8-1.4,6.5-2.1,11.2-2.1c3.1,0,5.7,0.4,7.9,1.3c-2.8-4.9-5-8.9-6.5-12.3c-2.1,0.6-4.4,1-7.1,1.5c-6.6,1.1-12.1,1.7-16.2,1.7
		C126.9,729.1,125,729,122.9,728.9L122.9,728.9z"/>
	<path fill="#50351B" d="M127.7,738.3c-1.7-2.9-3.3-6.1-4.8-9.4c-3.8-0.3-8.2-0.8-13.4-1.7c-1.8-0.3-3.6-0.6-5.4-0.8
		c-2.4-0.4-4.5-0.8-6.4-1.2c0,0.8,0,1.7,0,2.5l-3.5,24c2.7,4.4,5.8,6.8,9.6,7.1l4-15.5l4,6.7c2.4,10.3,9.8,18.5,22.4,24.6
		c12.4,6.1,22.8,8.2,31.3,6.1c8.5-2.1,13.4-4.4,14.6-7.1c1.1-2.8-1.9-8.5-8.9-17.3c-7.4-9-11.5-15-12.5-18c-2.2-0.8-4.9-1.3-7.9-1.3
		c-4.8,0-8.5,0.7-11.2,2.1c-1.4,0.7-3.9,2.3-7.5,5C131,743.4,129.6,741.4,127.7,738.3L127.7,738.3z"/>
	<path fill="#744A16" d="M216.6,62.5c1,5.6,1.5,9,1.5,10.2c0,15-2.1,28.5-6.5,40.5c-1.7,4.9-3.7,9.1-6.1,12.7
		c0.2,0.1,0.2,0.4,0.2,0.6c0.4,2.7,0.6,4.2,0.6,4.8h0.2c1.5-1.3,3.3-3.7,5.2-7.3c2.5-3.9,4-7.2,4.4-10l0.2,0.2v11l-0.2,1.7
		c2-4.2,3.6-7.8,4.5-10.9c0.8-3.4,1.3-7.7,1.3-12.7l-0.8-17.6c0-3.3,0.2-6,0.6-7.9c0-0.8-0.4-2.7-1.3-5.8
		C218.5,68.1,217.2,64.9,216.6,62.5L216.6,62.5z"/>
	<path fill="#FBE7B9" d="M218.1,72.7c0-1.3-0.5-4.7-1.5-10.2c-0.2-0.4-0.2-0.8-0.2-1c-1.7-7.1-2.9-11.3-3.6-12.7
		c-0.6-1-1-1.8-1.5-2.5c1,3.1,1.5,5.9,1.5,8.4c0,2.8,0,5.1-0.2,6.9c-1-2.7-1.7-4.8-2.3-6.5c-0.2-0.3-0.2-0.6-0.2-0.8
		c-0.3-0.4-0.7-0.9-1.3-1.5c-0.8-0.6-1.5-0.8-2.1-0.8c-1.5,0-2.9,0.8-4,2.5c-0.8,1.5-1.3,3.1-1.3,4.8c-0.4,0-0.6,0.2-0.6,0.4
		c-1.8-1.1-3.1-1.8-3.8-2.1c-1.4-0.7-2.9-1-4.6-1l-4.2,0.4c-0.2,0.2-0.2,0.3-0.2,0.4v0.2c1.9,1.5,2.6,5.5,1.9,11.9
		c0,3.6-1.4,8.7-4.2,15.2c-2.7,5.9-4,8.8-4,9l1.5-9.2c0-0.6-0.1-1.7-0.4-3.3c-2.4,5.4-5.4,9.6-9.1,12.5l4.4-12.5
		c0.7-3.3,1.3-6.4,1.8-9.4c-0.4-0.6-0.8-1.2-1.4-1.9c-1.1-1.1-2.3-1.8-3.5-2.1l-0.8-0.6c0.6,0.4,0.8,1,0.8,1.7l-6.7,23.6
		c0.6,2.4,0.4,6-0.6,10.9c-1,4.8-1.4,9.6-1.3,14.6c0,4.9,2.5,10.9,7.5,18c3.6,1.7,8.6,3,15,4c2.2,0.2,5-1,8.1-3.3
		c3.1-2.4,5.8-5.9,8.4-10.4c2.4-3.6,4.4-7.8,6.1-12.7C216,101.3,218.1,87.7,218.1,72.7L218.1,72.7z"/>
	<path fill="#BD7716" d="M196.6,18.7c-7.3-4.9-12.7-7.5-16.5-7.9c-3.9-0.4-7.8,0-11.9,1.2c-4,1.3-6.3,2.7-6.7,4.2
		c-1.4,0.3-3.1,0.4-5,0.4c-6.4,0-12.2,2.1-17.5,6.5c-5.3,4.2-8.6,12.8-9.8,25.9c-0.4,3.8-0.8,7.1-1,10h3.8v-1.5
		c0.2-0.3,0.8-4.6,1.9-13c1.4-5.7,3-9.6,4.8-11.9l4.5-4.6c0.6,0.2,1.1,0.5,1.5,1c0.7,1.1,1.9,1.9,3.6,2.3c-1.7,2.5-2.8,4.2-3.3,5
		c-1.1,1.5-1.7,3.9-1.7,7.1l0.4,2.3c0.3-1.2,1.5-2.9,3.8-5c1.8-1.5,3.3-2.7,4.6-3.5c0.7,1.8,1.6,4.5,2.7,8.1
		c0.6,1.9,2.1,5.2,4.6,9.6c5.2-8.9,8.6-13.4,10.2-13.4c0.3,0,1,0.4,2.1,1.3c1.3,0.7,2.4,1,3.3,0.8v0.6c-1.8,0.8-4.4,5.2-7.7,13
		c-0.3,0.6-0.5,1.1-0.6,1.7h7.1c2.1-5.6,4.8-8.1,8.1-7.5c-0.6,1.9-0.9,4.4-1,7.5h7.1c0.2-0.6,0.3-1.1,0.4-1.7c0-0.2,0.1-0.3,0.2-0.4
		c1.1-4.3,2.3-6.1,3.5-5.4c1.9,0.8,4,1.6,6.3,2.3c1.1-1.9,2.1-3.2,3.1-3.8c0.7-0.8,1.7-1.5,2.9-1.9v-0.2l0.2,0.2
		c2.5,0,4.4,2,5.6,6.1c0,0.3,0,0.6,0.2,0.8c0.4,1.1,0.9,2.5,1.5,4h1c0-1.3,0-2.7,0-4.4c0-2.5-0.5-5.3-1.5-8.4
		c0.4,0.7,0.9,1.5,1.5,2.5c0.6,1.3,1.5,4.6,2.9,10.2h5c-0.2-1.7-0.1-3.3,0.2-5v-8.6c-0.2-3.2-2.4-7.2-6.8-12.1
		C209.7,28.3,203.8,23.4,196.6,18.7L196.6,18.7z M180.3,23.9c2.1-1,3.3-1.5,3.8-1.5c0.4-0.1,1.4-0.2,2.9-0.2c3.1,0,4.8,0.7,5.2,2.1
		c-0.8,0.2-2.2,1.4-4.2,3.8c-2.1,2.7-3,4.5-2.7,5.6v-0.2c2.5-1.4,4.4-2.1,5.6-2.1c0.3,0,0.9,0.7,1.9,2.1c1.1,1.4,1.7,2.5,1.9,3.1
		c0.3,0,1.4-0.3,3.3-0.8c2.1-0.8,3.6-1.3,4.6-1.3c2.7,0,4.1,0.7,4.4,2.1c-3.8,1.5-6.7,3.7-8.8,6.4c-1.1,2.3-1.8,3.4-2.1,3.4
		l-11.3-11.7c-7.2-6.9-12.5-11.3-16-13c1-0.8,2.2-1.5,3.8-2.1c3.1-1.5,5.1-2.3,6.1-2.3l1.4,0.2c0,1-0.5,2.5-1.4,4.4v1.9H180.3
		L180.3,23.9z"/>
	<path fill="#BD7716" d="M187.8,59h-7.1c0,1.4,0,2.9,0,4.4c0,2.4-0.2,5.2-0.6,8.4c-0.5,2.9-1.1,6.1-1.8,9.4l-4.4,12.5
		c3.8-2.9,6.8-7.1,9.1-12.5c1.4-3.6,2.4-7.9,3.1-12.9C186.7,64.4,187.2,61.3,187.8,59L187.8,59z"/>
	<path fill="#BD7716" d="M212.9,59h-1c0.3,0.8,0.6,1.7,0.8,2.5C212.7,60.8,212.7,59.9,212.9,59L212.9,59z"/>
	<path fill="#BD7716" d="M220.8,59h-5c0.3,0.8,0.5,1.7,0.6,2.5c0,0.3,0,0.6,0.2,1c0.6,2.4,1.9,5.6,3.9,9.6c0.8,3.1,1.3,5,1.3,5.8
		c2.5,6.3,3.7,11.2,3.6,14.8c-0.3,3.6-0.4,6-0.4,7.1c1-0.6,2-2.5,3.1-5.6c1.5-5,2-8.8,1.5-11.5c-0.6-2.8-2.3-6.9-5.2-12.3
		C222.2,66.5,221,62.7,220.8,59L220.8,59z"/>
	<path fill="#BD7716" d="M136.1,57.9c-0.2,0.4-0.3,0.8-0.4,1h12.1l0.4-6.1c0-0.7-0.3-1.2-0.8-1.5l-5.2,6.1c-0.8-0.8-1.5-1.7-2-2.5
		c-0.4-0.3-1-0.4-1.9-0.4C137.5,54.6,136.8,55.7,136.1,57.9L136.1,57.9z"/>
	<path fill="#BD7716" d="M131.9,59h-3.8c-0.7,5.6-1.4,9.9-2.1,13c-0.2,0.4-0.2,0.8-0.2,1c0.2,0.7,0.2,1.5,0.2,2.3
		c-1.3,7.2-1.9,13.2-1.9,17.9c0,2.5,0.3,5.1,0.8,7.7c0.6,2.5,1.2,4.1,1.9,4.8c-0.4-7.5,0.8-14.8,3.8-21.9c1.5-3.6,3.2-6.7,5-9.4
		l0.6-0.4c0.6,1.7,0.8,3.8,0.8,6.4l-0.8,8.2c0,7.1,1,10.7,3.1,10.7c0.2,0,0.6-0.3,1.3-0.8c0.7-0.6,1-0.9,1-1l0.4-0.4l0.6,1.3
		c1.1-5.4,3.6-8.6,7.5-9.6c0-0.3,0.2-0.5,0.4-0.6c0.8-1.1,1.6-1.7,2.3-1.7c0.1,0,0.3,0,0.4,0c1.4,3.8,2.1,7.5,2.1,11.3
		c0,1.9,0.9,2.9,2.7,2.9c1.5,0,2.4-0.2,2.7-0.6c0.1-0.6,0.4-1.8,0.6-3.8c0.4,3.3,0.2,7.1-0.8,11.3c3.9-4.9,6.9-15.6,9.2-32.1
		c1-6.9,2.2-12.4,3.8-16.3h-7.1c-2.9,6.7-4.2,11.8-3.8,15.3c-1.3-0.2-2.7-1.8-4.4-5c-1.7-3.2-3-4.8-4-4.8c-1.1,0-2.1,0.8-3.1,2.5
		c-1.8,2.7-3,4.2-3.6,4.8l-0.4-5.4l0.4-7.3h-12.1c-0.8,1.7-2.1,2.7-3.8,2.9V59L131.9,59z"/>
	<path fill="#744A16" d="M172.6,19.7c-1.5,0.6-2.8,1.3-3.8,2.1c3.5,1.7,8.8,6,16,13l11.3,11.7c0.3,0,1-1.1,2.1-3.4
		c2.1-2.8,5-4.9,8.8-6.4c-0.3-1.4-1.7-2.1-4.4-2.1c-1,0-2.5,0.4-4.6,1.3c-1.9,0.6-3.1,0.8-3.3,0.8c-0.2-0.7-0.8-1.7-1.9-3.1
		c-1-1.4-1.6-2.1-1.9-2.1c-1.3,0-3.1,0.7-5.6,2.1v0.2c-0.3-1.1,0.6-3,2.7-5.6c1.9-2.4,3.3-3.6,4.2-3.8c-0.4-1.4-2.1-2.1-5.2-2.1
		c-1.5,0-2.5,0.1-2.9,0.2c-0.4,0-1.7,0.5-3.8,1.5h-1.6V22c0.9-1.9,1.4-3.4,1.4-4.4l-1.4-0.2C177.7,17.4,175.7,18.2,172.6,19.7
		L172.6,19.7z"/>
	<path fill="#F0DBAD" d="M144.6,29.1c-0.4-0.6-0.9-0.9-1.5-1l-4.5,4.6c-1.8,2.3-3.4,6.2-4.8,11.9c-1.1,8.4-1.7,12.7-1.9,13v4.4
		c1.9-0.3,3.3-1.6,4.2-4c0.7-2.2,1.4-3.3,2.1-3.3c0.8,0,1.5,0.2,1.9,0.4c0.6,0.8,1.3,1.7,2,2.5l5.2-6.1c0.6,0.3,0.8,0.8,0.8,1.5
		l-0.8,13.4l0.4,5.4c0.6-0.6,1.7-2.1,3.6-4.8c1-1.7,2-2.5,3.1-2.5c1,0,2.3,1.6,4,4.8c1.7,3.2,3.1,4.9,4.4,5c-0.4-3.8,1-9.4,4.4-16.9
		c3.3-7.8,5.9-12.1,7.7-13v-0.6c-1,0.2-2.1-0.2-3.3-0.8c-1.1-0.8-1.8-1.3-2.1-1.3c-1.7,0-5.1,4.4-10.2,13.4c-2.5-4.4-4-7.7-4.6-9.6
		c-1.1-3.6-2-6.3-2.7-8.1c-1.3,0.8-2.8,2-4.6,3.5c-2.2,2.1-3.5,3.8-3.8,5l-0.4-2.3c0-3.2,0.6-5.5,1.7-7.1c0.6-0.8,1.7-2.5,3.3-5
		C146.5,31,145.3,30.2,144.6,29.1L144.6,29.1z"/>
	<path fill="#F0C558" d="M204.5,48.1h-0.2c-1.3,0.4-2.2,1-2.9,1.9c-1,0.6-2,1.8-3.1,3.8c-2.2-0.7-4.3-1.5-6.3-2.3
		c-1.3-0.7-2.4,1.1-3.5,5.4l4.2-0.4c1.7,0,3.2,0.4,4.6,1c0.7,0.3,1.9,1,3.8,2.1c0-0.3,0.2-0.4,0.6-0.4c0-1.7,0.4-3.3,1.3-4.8
		c1.1-1.7,2.5-2.5,4-2.5c0.6,0,1.2,0.3,2.1,0.8c0.6,0.6,1,1,1.3,1.5C208.9,50.1,207,48.1,204.5,48.1L204.5,48.1z"/>
	<path fill="#A06419" d="M125.2,74.6c-1.4,4-2,10.6-1.9,19.8c0,9.2,2.7,18.1,8,26.7c4.4,7.5,9.5,12.3,15.2,14.4l-1-6.7
		c0.8,2.9,2.1,5.2,3.8,6.9c1.5,1.5,3,2.8,4.4,3.8c1.1,0.6,1.8,0.8,2.1,0.8c-0.4-1-0.8-2.2-1-3.8c-1.3-4.2-2.5-7.3-3.8-9.4
		c-0.4,0.7-0.9,1-1.5,1c-1.7-2.5-3.3-6.3-5-11.5c-1.5-4.9-2.3-8.7-2.3-11.4c0-2.7,0.2-5,0.6-7.1l-0.6-1.3l-0.4,0.4
		c0,0.2-0.3,0.5-1,1c-0.7,0.6-1.1,0.8-1.3,0.8c-2.1,0-3.1-3.6-3.1-10.7l0.8-8.2c0-2.6-0.3-4.8-0.8-6.4l-0.6,0.4
		c-1.8,2.6-3.5,5.7-5,9.4c-2.9,7.1-4.2,14.4-3.8,21.9c-0.7-0.7-1.3-2.3-1.9-4.8c-0.6-2.7-0.8-5.2-0.8-7.7c0-4.8,0.6-10.7,1.9-17.9
		c0-0.8-0.1-1.6-0.2-2.3C125.6,73.6,125.4,74.2,125.2,74.6L125.2,74.6z"/>
	<path fill="#F0C558" d="M188.2,57.5v-0.2c-0.7,2.7-1.4,6.3-2.1,10.9c-0.7,5-1.7,9.3-3.1,12.9c0.3,1.7,0.4,2.8,0.4,3.3l-1.5,9.2
		c0-0.2,1.3-3.1,4-9c2.8-6.5,4.2-11.6,4.2-15.2C190.8,63,190.1,59,188.2,57.5L188.2,57.5z"/>
	<path fill="#F0C558" d="M175.1,68.8c0-0.7-0.3-1.3-0.8-1.7l0.8,0.6c1.3,0.3,2.5,1,3.5,2.1c0.6,0.7,1,1.3,1.4,1.9
		c0.4-3.2,0.6-6,0.6-8.4c-0.2-5,0.2-9,1-11.9c-5.7-0.8-9.6,7.1-11.9,23.8c-2.2,16.6-5.3,27.3-9.2,32.1c1-4.2,1.3-7.9,0.8-11.3
		c-0.3,1.9-0.5,3.2-0.6,3.8c-0.3,0.4-1.2,0.6-2.7,0.6c-1.8,0-2.7-1-2.7-2.9c0-3.8-0.7-7.5-2.1-11.3c-0.2,0-0.3,0-0.4,0
		c-0.7,0-1.5,0.6-2.3,1.7c-0.3,0.2-0.4,0.4-0.4,0.6c-0.7,1-1.5,2.1-2.3,3.6c-2.4,4.8-2.2,9.4,0.4,14c2.8,4.4,4.4,6.9,4.8,7.5
		c1.3,1.3,2.7,1.4,4.2,0.4c0.7,3.9,1.5,6.8,2.5,8.9c0.3,0.6,0.6,1.1,1,1.7c0,0.2,0.2,0.6,0.6,1.3c0.2-0.2,0.4,0,0.6,0.4
		c2.1,2.5,5,5,8.8,7.5c0.8,0.7,1.9,1.3,3.1,1.9c-5-7.1-7.5-13.1-7.5-18c-0.2-5,0.3-9.8,1.3-14.6c1-4.9,1.2-8.5,0.6-10.9L175.1,68.8
		L175.1,68.8z"/>
	<path fill="#4D3317" d="M150.2,88.6c-3.9,1-6.4,4.2-7.5,9.6c-0.4,2.1-0.6,4.4-0.6,7.1c0,2.8,0.8,6.6,2.3,11.4c1.7,5.2,3.3,9,5,11.5
		c0.6,0,1.1-0.4,1.5-1c1.3,2.1,2.5,5.2,3.8,9.4c0.3,1.5,0.6,2.8,1,3.8c0.1-1,0.1-2.5,0-4.4c0.7,0.7,1.4,1.3,2.1,1.9
		c0.3-3.5,1-8.4,2.1-14.8c-1-2.1-1.8-5.1-2.5-8.9c-1.5,1-2.9,0.8-4.2-0.4c-0.4-0.6-2-3.1-4.8-7.5c-2.7-4.6-2.8-9.3-0.4-14
		C148.8,90.7,149.6,89.6,150.2,88.6L150.2,88.6z"/>
</g>
</svg>
