<?xml version="1.0" encoding="utf-8"?>
<!-- Generator: Adobe Illustrator 18.0.0, SVG Export Plug-In . SVG Version: 6.00 Build 0)  -->
<!DOCTYPE svg PUBLIC "-//W3C//DTD SVG 1.1//EN" "http://www.w3.org/Graphics/SVG/1.1/DTD/svg11.dtd">
<svg version="1.1" id="Calque_1" xmlns="http://www.w3.org/2000/svg" xmlns:xlink="http://www.w3.org/1999/xlink" x="0px" y="0px"
	 viewBox="0 0 425.2 841.9" enable-background="new 0 0 425.2 841.9" xml:space="preserve">
	<g>
<path fill="#523615" d="M201.6,36.8c-4.4-0.7-7-1.1-7.8-1.1c-2.4,0-5.6,0.5-9.6,1.5c-3.9,1-6.4,1.4-7.4,1.4c-5,0-11-1-18-3.1
	c0.1,1.1,0.2,2.3,0.3,3.6c0.5,4.8,1.5,7.9,3.3,9.6c1.7,1.5,3.4,2,5,1.4c0.2-0.1,0.4-0.2,0.7-0.3c2-0.7,3.4-1.1,4.3-1.1
	c3.2,0,5.6,1.3,7.4,3.9c1.7,2.6,3,5.6,3.9,8.8c0.4,2,0.6,4.3,0.5,7c-0.1,2.8-0.2,4.8-0.3,6.1c-0.2,1.3-0.6,2.6-1.4,4.2
	c-0.8,1.5-0.4,7,1.3,16.5c1.6,9.5,3.4,14.2,5.3,14.1c1.9-0.1,3.3-0.2,4.3-0.2v-1.8c-0.1,0-0.1-0.2,0-0.5c0.2-0.4,0-0.6-0.4-0.6
	c-0.4,0-0.6-0.2-0.5-0.5c0.2-0.5,0.2-0.9,0.2-1.3c-0.8-1.5-1.6-3-2.3-4.5c-1.4-2.9-2.1-6.1-2.1-9.5c0-2.5,0.1-4.4,0.4-6
	c-0.2-1.4-0.2-2.1,0.1-2.4c0-0.1,0.1-0.1,0.4-0.3c0.3-0.2,0.8-0.3,1.5-0.4c2.1-0.5,4.2,0.2,6.4,2c1.3,1,2.3,2.4,3.1,4.1
	c0.2-2.3,0.4-5.1,0.7-8.4c0-3.7-0.5-7.3-1.6-10.6c-1.1-2.8-1.7-4.4-1.7-4.9c0-4.7,0.5-7.3,1.6-7.7c2.3,0,4.7-0.7,7.2-2.2
	c2.4-1.4,3.9-3.4,4.7-6.2c0.4-1.2,0.9-2.1,1.6-2.5c-0.4-0.5-0.8-1-1.3-1.5c-1.9-2.2-2.8-3.5-2.8-4.2c0-0.4,0.1-0.7,0.4-0.9
	c0.3-0.3,0.4-0.5,0.4-0.5C208.7,37.8,206.1,37.5,201.6,36.8L201.6,36.8z"/>
<path fill="#754715" d="M193.9,35.8c0.7,0,3.3,0.3,7.8,1.1c4.4,0.7,7,1,7.9,1c0,0.1-0.1,0.2-0.4,0.5c-0.3,0.2-0.4,0.5-0.4,0.9
	c0,0.6,0.9,2,2.8,4.2c0.4,0.5,0.9,1,1.3,1.5c0.5-0.3,1-0.5,1.5-0.5c0.3,0,1.9,0.8,4.8,2.4c2.9,1.5,4.5,2.3,4.9,2.3
	c1.6,0,6-3.2,13.1-9.7c3.3-3.1,5.8-5.5,7.5-7.3c-1.5,0.2-3.5,1.1-6,2.8c-0.1-4.2-0.9-6.3-2.6-6.5c-2.6-0.3-4.3-0.5-5.1-0.5
	c-0.2,0-2.4-0.5-6.8-1.3c-4.8-1-8.2-1.4-10.2-1.4c-0.4,0-1.8,0.1-4.3,0.2c-2.5,0.1-4.5,0-5.9-0.2c0.8,0,2.5-0.5,5-1.4
	c2.4-1,4-1.5,4.7-1.5h-3.9c-3.1,0-7.3,0.4-12.3,1.3c-2.9,0.5-7.5,1.3-13.9,2.4c14.5-7.9,26.5-11.9,36.4-12c0.6-0.1,1.3-0.1,2-0.1
	c2.6,0.3,5.1,0.7,7.6,1.2c2.7,0.5,5.3,1.2,7.9,2c2.8,1,5,2.5,6.5,4.6c0.6,0.8,1.3,1.5,2,2.3c1.4,1,2,1.6,1.7,1.7
	c3.2-0.8,6.1-0.3,8.6,1.6c0.8-0.2,1.7-0.5,2.8-0.6c0.4-0.1,0.9-0.2,1.4-0.3c-2.6-3.5-6.6-6.1-11.9-7.8c-2-2.3-4.1-3.8-6.4-4.6
	c-10.1-3.3-17.7-5-22.9-5c-5.7,0-16.5,2.5-32.4,7.6c-7.5,2.4-16.9,7.1-28.4,13.9c0.2,1.5,0.4,3.2,0.7,5c7,2.1,13.1,3.1,18,3.1
	c1,0,3.5-0.4,7.4-1.4C188.2,36.3,191.4,35.8,193.9,35.8L193.9,35.8z M177.8,32.5c1.3-0.3,2.5-0.5,3.7-0.8c1.2-0.3,2.4-0.6,3.5-0.7
	c0.6-0.1,1.1-0.2,1.6-0.3c1,0,2,0.1,3,0.3c0.4,0.1,0.8,0.2,1.2,0.4c0.5,0.2,0.9,0.5,1.3,0.7c-0.1,0.7-0.7,1.1-1.9,1.3
	c-2,0.2-3.8,0.5-5.7,1c-1.3,0.3-2.6,0.5-3.9,0.7c-2.4,0.3-4.7,0.6-6.9,0.9c-0.6,0.1-1-0.2-1.1-0.7c-0.2-0.4,0-0.8,0.4-1
	C174.6,33.4,176.1,32.8,177.8,32.5L177.8,32.5z"/>
<path fill="#A66219" d="M181.4,31.7c-1.2,0.3-2.4,0.5-3.7,0.8c-1.6,0.3-3.2,0.9-4.6,1.7c-0.4,0.2-0.6,0.6-0.4,1
	c0.1,0.5,0.5,0.8,1.1,0.7c2.2-0.3,4.4-0.6,6.9-0.9c1.3-0.2,2.6-0.5,3.9-0.7c1.9-0.4,3.7-0.8,5.7-1c1.1-0.2,1.7-0.6,1.9-1.3
	c-0.5-0.3-0.9-0.5-1.3-0.7c-0.4-0.2-0.8-0.3-1.2-0.4c-1.1-0.2-2.1-0.3-3-0.3c-0.5,0.1-1,0.2-1.6,0.3
	C183.8,31.1,182.6,31.4,181.4,31.7L181.4,31.7z"/>
<path fill="#A66219" d="M183.3,26.1c6.4-1.1,11-1.9,13.9-2.4c5.1-0.8,9.2-1.3,12.3-1.3h3.9c-0.7,0-2.3,0.5-4.7,1.5
	c-2.5,0.9-4.2,1.4-5,1.4c1.3,0.2,3.3,0.3,5.9,0.2c2.5-0.2,3.9-0.2,4.3-0.2c2.1,0,5.5,0.4,10.2,1.4c4.4,0.8,6.6,1.3,6.8,1.3
	c0.8,0,2.5,0.2,5.1,0.5c1.7,0.2,2.5,2.3,2.6,6.5c2.5-1.7,4.4-2.6,6-2.8c0.7,0,1.3,0.1,1.8,0.4c4.2,2.5,7.7,7.7,10.2,15.4
	c2.6,7.6,3,20.1,1.3,37.5c0.3-0.5,1.1-2.4,2.3-6c1.3-3.7,2.1-5.8,2.5-6.4V81c-1.6,6.9-2.4,13.4-2.4,19.4v0.5
	c2.2-9.7,3.9-15.2,4.8-16.6c1-1.5,1.6-6.5,1.8-15.2c0.1-6.6-0.7-13.9-2.3-21.8c0.3,2.4,0.5,4.8,0.6,7.3c0.1,3-0.3,5.8-1,8.7
	c-0.3,1.3-1,2.3-2.1,2.9c0.1-2.1,0.2-4.3,0.2-6.6c0.1-2.6,0.1-5.1,0.2-7.7c0.1-2.6-0.1-5.1-0.6-7.5c-0.3-1.5-0.4-2.9-0.3-4.3
	c-0.1-0.2-0.1-0.2-0.2-0.3c-0.1-0.2-0.2-0.3-0.3-0.4c-0.1-0.2-0.2-0.3-0.4-0.4c0-0.1,0-0.2,0-0.3c0-0.1,0.1-0.2,0.2-0.4l0.1-0.1
	c1.1,1.4,1.9,2.9,2.5,4.6c-0.3-1.1-0.5-2.1-0.8-3.2c-1.6-6-3.9-10-6.8-12.2c-2.5-1.9-5.3-2.4-8.6-1.6c0.3-0.2-0.3-0.7-1.7-1.7
	c0.3,0.3,0.7,0.7,1.1,1.1v0.2c-0.4,0.1-0.8-0.1-1.2-0.6c-0.2-0.2-0.3-0.4-0.5-0.6c-0.2-0.1-0.3-0.2-0.4-0.3
	c-0.2-0.2-0.4-0.2-0.6-0.3c-0.4-0.3-0.6-0.6-0.8-1.1v-0.1c-0.3-0.3-0.7-0.5-1.1-0.7c-1.5-0.5-3.1-0.9-4.6-1.2
	c-2.9-0.5-5.8-0.8-8.7-1c-4.9-0.2-9.6-1.2-13.9-3.1c-0.2,0-0.3-0.1-0.3-0.2c0.1-0.1,0.2-0.2,0.3-0.3c0.5-0.5,1-0.8,1.6-1
	c0.5-0.1,1.1-0.2,1.7-0.4c0.4-0.1,0.9-0.2,1.4-0.3C209.9,14.2,197.8,18.2,183.3,26.1L183.3,26.1z"/>
<path fill="#E8C260" d="M168.1,49.8c-0.3,0.1-0.5,0.2-0.7,0.3c-1.5,4.8-1.9,11.5-1.2,20c0.3,3.8,0.4,5.9,0.6,6.4l5.3,13.9
	c-0.4,5.6,0.2,10.9,1.6,15.7c1.4,4.8,3.2,8.8,5.4,11.9c2.2,3.1,4.9,7.4,8.2,12.8c3.2,5.3,6.2,9.1,9,11c0.7,0.5,1.5,0.9,2.1,1.2
	c0.7-1.7,1.4-3.8,2.1-6.2c1.1-4.2,1.7-7.9,1.7-10.9c0-1.4-0.3-3.5-0.9-6.5c-0.7-2.9-1-4.8-1-5.9c0.2-0.2,0.6-0.3,1.2-0.3
	c0.8,0,2.5,2.5,5.2,7.5c2.2,4.1,4.6,7.6,7.1,10.5c-2.6,1.9-5,4.2-7.1,6.8l0.4,4.7l0.9,12.3c1.2-0.6,2.4-1.1,3.7-1.6
	c2.5-0.9,5.2-1.5,8.1-1.9c-0.2-1.4-0.4-2.9-0.7-4.7c-1.1-7.4-1.6-12.1-1.6-14.2c-0.2-1.2-0.2-2.3-0.1-3.4V129l-0.1-0.1
	c-2.4-1.7-5.1-4.7-8.2-8.9c-3.5-5.5-6.2-9.6-8-12.2c0.5-1,0.9-2.4,1.2-4.3c0-0.4,0.1-0.8,0.1-1.2c0.2-3.1-0.1-6.6-0.8-10.5
	c-0.3-1.7-0.7-3.2-1.3-4.4c-0.8-1.7-1.8-3.1-3.1-4.1c-2.2-1.7-4.3-2.4-6.4-2c-0.7,0.1-1.2,0.2-1.5,0.4c-0.3,0.2-0.4,0.2-0.4,0.3
	c-0.3,0.3-0.3,1.1-0.1,2.4c-0.3,1.5-0.4,3.5-0.4,6c0,3.4,0.7,6.6,2.1,9.5c0.7,1.5,1.5,3,2.3,4.5c0,0.4-0.1,0.8-0.2,1.3
	c-0.1,0.3,0.1,0.5,0.5,0.5c0.4,0,0.6,0.2,0.4,0.6c-0.1,0.3-0.1,0.5,0,0.5v1.8c-1,0-2.4,0.1-4.3,0.2c-1.9,0.2-3.7-4.6-5.3-14.1
	c-1.7-9.6-2.1-15.1-1.3-16.5c0.8-1.5,1.2-2.9,1.4-4.2c0.1-1.3,0.2-3.3,0.3-6.1c0.1-2.7-0.1-5.1-0.5-7c-0.8-3.2-2.1-6.1-3.9-8.8
	c-1.7-2.6-4.2-3.9-7.4-3.9C171.6,48.7,170.1,49,168.1,49.8L168.1,49.8z"/>
<path fill="#493015" d="M260.2,26.4c-0.5,0.1-1,0.2-1.4,0.3c-1.1,0.2-2,0.4-2.8,0.6c2.9,2.2,5.1,6.2,6.8,12.2
	c0.3,1.1,0.5,2.1,0.8,3.2c0.3,1,0.6,2,0.8,3c0.1,0.5,0.2,1,0.3,1.5c1.6,7.9,2.4,15.1,2.3,21.8c-0.1,3.8-0.2,7-0.5,9.5h2.4
	c0.2-1.6,0.2-3.5,0.2-5.5c0.1-7.3-0.5-15.4-1.8-24.1c-1.2-8.7-3.1-15.5-5.6-20.2C261.2,27.9,260.7,27.2,260.2,26.4L260.2,26.4z"/>
<path fill="#493015" d="M266.4,78.5c-0.3,3-0.8,4.9-1.3,5.7c-1,1.4-2.6,6.9-4.8,16.6v-0.5c0-6,0.8-12.4,2.4-19.4v-2.5h-2.1
	c-0.2,0.3-0.3,0.7-0.4,1c-1.2,3.5-2,5.5-2.3,6c0.3-2.4,0.5-4.7,0.6-6.9c1-13.9,0.3-24.1-1.9-30.6c-2.6-7.7-6-12.8-10.2-15.4
	c-0.5-0.3-1.1-0.4-1.8-0.4c-1.7,1.7-4.3,4.2-7.5,7.3c-7.1,6.5-11.5,9.7-13.1,9.7c-0.4,0-2-0.8-4.9-2.3c-2.9-1.6-4.4-2.4-4.8-2.4
	c-0.5,0-1,0.2-1.5,0.5c-0.7,0.4-1.2,1.3-1.6,2.5c-0.7,2.8-2.3,4.8-4.7,6.2c-2.5,1.5-4.9,2.2-7.2,2.2c-1.1,0.4-1.6,2.9-1.6,7.7
	c0,0.5,0.6,2.1,1.7,4.9c1,3.1,1.5,6.5,1.6,10.1c0,0.1,0,0.3,0,0.5c-0.3,3.3-0.5,6.1-0.7,8.4c0.6,1.2,1,2.7,1.3,4.4
	c0.7,3.9,1,7.4,0.8,10.5c-0.1,0.4-0.1,0.8-0.1,1.2c-0.3,1.9-0.7,3.3-1.2,4.3c1.8,2.6,4.5,6.7,8,12.2c3.1,4.2,5.8,7.1,8.2,8.9
	l0.1,0.1c1.5,1,2.8,1.5,4,1.5c10.6,0,16.6-0.2,18.1-0.5c1.9-0.4,7.3-2.8,16.2-7.1c0.2-0.2,0.3-0.3,0.5-0.3c3.9-1.9,6.2-6.2,6.9-12.9
	l-0.2-0.1c0.1-0.2,0.2-0.3,0.2-0.4c1.5-11.2,2.9-18.2,4-21c0.8-2.1,1.4-5.3,1.7-9.6H266.4z M235.6,41.2c1,0.3,1.5,1,1.6,2
	c0.2,1,0.2,1.9,0.1,2.8c-0.1,1-0.1,1.9-0.3,2.8c-0.1,0.6-0.3,1-0.8,1.4c-0.8-0.3-1.2-1-1.4-1.8c-0.1-0.8-0.1-1.8-0.1-2.8
	c0.1-1,0-1.9-0.2-2.9C234.3,41.9,234.6,41.4,235.6,41.2z M219.4,81c-0.5,1.3-1,2.7-1.4,4.2c-0.4,1.6-0.6,3.3-0.5,4.9
	c0,0.8-0.3,1.5-0.8,2.1c-1.9-0.7-2.6-2.3-2.2-4.8c0.3-1.8,0.6-3.5,1.1-5.2c0.3-1.4,0.8-2.6,1.6-3.8c0.3-0.6,0.7-1.1,1.1-1.6
	c0.3-0.4,0.8-0.7,1.5-0.7c0.2,0.7,0.3,1.5,0.2,2.3C220,79.4,219.7,80.2,219.4,81z M241.2,87.5c-0.5,4.1-1.6,8.2-3.2,12
	c-1.6,3.9-2.3,8-1.9,12.3c0.2,2,0.5,3.8,1.1,5.6c-0.2,0.2-0.3,0.4-0.4,0.7c-0.2,0.2-0.3,0.4-0.6,0.6c-0.2,0.2-0.3,0.3-0.5,0.4
	c-0.2,0.1-0.4,0.1-0.7,0.1c-2.2-1.9-3.6-4.3-4.1-7.3c-0.1,0.2-0.2,0.3-0.3,0.5c-0.2,0.2-0.3,0.4-0.4,0.7c0,0.1-0.1,0.2-0.1,0.3
	c-1.6-2-2.4-4.4-2.3-7.3c0.1-2.6,0.6-5,1.5-7.3c1.1-2.8,2-5.5,2.8-8.2c0.4-1.1,1-1.9,1.7-2.4c0.8,2.3,0.7,4.4-0.3,6.6
	c-0.9,2-1.6,4.1-2.1,6.4c-0.5,2.1-0.7,4.3-0.8,6.6c0,0.5,0.1,0.9,0.1,1.4c0-1.1,0.1-2.2,0.3-3.4c0.9-4.8,2.6-9.1,5.2-12.9
	c2.8-4.2,4.4-8.7,4.9-13.7c0.1-0.3,0.1-0.5,0.1-0.7c0.2-1.2,0.6-2.3,1-3.1c0,1-0.1,2-0.1,3.1C241.9,81.5,241.6,84.5,241.2,87.5z
	 M248.8,93.8c-0.5,1.3-1,2.7-1.3,4.2c-0.4,1.6-0.6,3.3-0.5,4.9c0,0.8-0.3,1.5-0.8,2.1c-1.9-0.6-2.6-2.2-2.2-4.7
	c0.3-1.8,0.6-3.5,1.1-5.2c0.5-2.1,1.4-3.9,2.7-5.4c0.3-0.5,0.8-0.7,1.5-0.7C249.6,90.7,249.5,92.3,248.8,93.8z M253.1,82.1
	c-1.4-0.9-2.4-2.1-3-3.5c-0.6-1.4-0.8-3-0.8-4.9c0.2-3.8,0.6-7.6,1.4-11.3c0.8-4,1-8,0.7-12c-0.3-2.6-0.7-5.1-1.3-7.7
	c-0.3-0.5-0.7-1-1.2-1.5c-0.4-0.3-0.7-0.7-1.1-1.1c-0.6-0.7-1.3-1.2-2-1.6c-1-0.6-1.1-1.1-0.5-1.5c0.1,0,0.1,0,0.2,0
	c4.1,2.4,6.8,6,8,10.6c1.2,4.7,1.5,9.3,0.8,13.9c-0.6,4.7-0.6,9.5,0,14.2c0.2,1,0.2,1.9,0.1,2.7C254.3,79.8,253.8,80.9,253.1,82.1z"
	/>
<path fill="#493015" d="M260.6,78.5h2.1v-5.5C262.3,73.6,261.7,75.4,260.6,78.5L260.6,78.5z"/>
<path fill="#A66219" d="M245.6,37.1c-0.1,0-0.1,0-0.2,0c-0.7,0.4-0.5,0.9,0.5,1.5c0.7,0.4,1.4,1,2,1.6c0.3,0.4,0.7,0.7,1.1,1.1
	c0.5,0.5,0.8,1,1.2,1.5c0.6,2.5,1,5.1,1.3,7.7c0.3,4,0.1,8-0.7,12c-0.8,3.7-1.2,7.4-1.4,11.3c-0.1,3.9,1.1,6.7,3.8,8.4
	c1.2-1.9,1.6-3.9,1.3-6.2c-0.6-4.8-0.6-9.5,0-14.2c0.7-4.6,0.4-9.2-0.8-13.9C252.4,43,249.7,39.5,245.6,37.1L245.6,37.1z"/>
<path fill="#A66219" d="M234.7,45.6c0,1,0.1,1.9,0.1,2.8c0.2,0.8,0.6,1.5,1.4,1.8c0.4-0.4,0.7-0.8,0.8-1.4c0.2-0.9,0.2-1.8,0.3-2.8
	c0.2-1,0.1-1.9-0.1-2.8c-0.2-1-0.7-1.6-1.6-2c-1,0.2-1.4,0.7-1.1,1.5C234.7,43.7,234.8,44.6,234.7,45.6L234.7,45.6z"/>
<path fill="#A66219" d="M218.3,76.9c-1.3,1.5-2.2,3.3-2.7,5.4c-0.4,1.6-0.8,3.4-1.1,5.2c-0.4,2.5,0.3,4.1,2.2,4.8
	c0.5-0.6,0.8-1.3,0.8-2.1c-0.1-1.6,0.1-3.3,0.5-4.9c0.4-1.5,0.8-2.9,1.4-4.2c0.7-1.5,0.8-3.2,0.4-4.8
	C219.2,76.2,218.7,76.4,218.3,76.9L218.3,76.9z"/>
<path fill="#A66219" d="M242.2,75.4c-0.5,1.1-0.9,2.3-1.1,3.8c-0.5,5-2.1,9.6-4.9,13.7c-2.6,3.8-4.3,8.2-5.2,12.9
	c-0.2,1.2-0.3,2.3-0.3,3.4c0.1,0.6,0.2,1.2,0.5,1.8c-0.2,0.2-0.3,0.5-0.3,0.7c0,0.1,0,0.1,0,0.2c0.5,2.9,1.9,5.3,4.1,7.3
	c0.3,0,0.5-0.1,0.7-0.1c0.2-0.1,0.3-0.2,0.5-0.4c0.3-0.2,0.4-0.4,0.6-0.6c0.1-0.3,0.2-0.5,0.4-0.7c-0.6-1.7-1-3.6-1.1-5.6
	c-0.3-4.3,0.3-8.4,1.9-12.3c1.6-3.9,2.6-7.9,3.2-12C241.7,83.5,242,79.5,242.2,75.4L242.2,75.4z"/>
<path fill="#F19300" d="M233.9,88.4c-0.7,0.5-1.3,1.3-1.7,2.4c-0.8,2.7-1.7,5.4-2.8,8.2c-0.8,2.3-1.4,4.7-1.5,7.3
	c-0.2,2.9,0.6,5.3,2.3,7.3c0.1-0.2,0.1-0.3,0.1-0.3c0.1-0.3,0.2-0.5,0.4-0.7c0.1-0.2,0.2-0.3,0.3-0.5c0-0.1,0-0.1,0-0.2
	c0.1-0.3,0.2-0.5,0.3-0.7c-0.3-0.6-0.5-1.2-0.5-1.8c-0.1-0.4-0.1-0.9-0.1-1.4c0.1-2.3,0.3-4.4,0.8-6.6c0.5-2.2,1.2-4.4,2.1-6.4
	C234.5,92.9,234.6,90.7,233.9,88.4L233.9,88.4z"/>
<path fill="#A66219" d="M248.8,93.8c0.7-1.5,0.8-3.2,0.4-4.8c-0.6,0-1.1,0.2-1.5,0.7c-1.3,1.5-2.2,3.3-2.7,5.4
	c-0.5,1.6-0.8,3.4-1.1,5.2c-0.4,2.5,0.3,4.1,2.2,4.7c0.5-0.6,0.8-1.2,0.8-2.1c-0.1-1.6,0.1-3.3,0.5-4.9
	C247.9,96.5,248.3,95.1,248.8,93.8L248.8,93.8z"/>
<path fill="#F19300" d="M244.2,23.6c0.2,0.1,0.4,0.1,0.6,0.3c0.1,0.1,0.2,0.2,0.4,0.3c0.2,0.2,0.3,0.4,0.5,0.6
	c0.3,0.4,0.7,0.6,1.2,0.6v-0.2c-0.4-0.4-0.8-0.8-1.1-1.1c-0.7-0.7-1.4-1.5-2-2.3c-1.6-2.1-3.8-3.6-6.5-4.6c-2.5-0.8-5.2-1.5-7.9-2
	c-2.5-0.4-5.1-0.8-7.6-1.2c-0.7,0-1.3,0.1-2,0.1c-0.5,0.1-1,0.2-1.4,0.3c-0.6,0.2-1.2,0.3-1.7,0.4c-0.6,0.2-1.1,0.5-1.6,1
	c-0.2,0.1-0.3,0.2-0.3,0.3c0.1,0.2,0.2,0.2,0.3,0.2c4.3,1.9,9,3,13.9,3.1c2.9,0.2,5.9,0.5,8.7,1c1.5,0.3,3.1,0.7,4.6,1.2
	c0.3,0.1,0.5,0.2,0.8,0.2c0.1,0.1,0.2,0.3,0.3,0.4v0.1C243.5,22.9,243.8,23.3,244.2,23.6L244.2,23.6z"/>
<path fill="#754715" d="M243.1,21.9c-0.3-0.1-0.5-0.2-0.8-0.2c0.4,0.2,0.7,0.4,1.1,0.7C243.3,22.1,243.1,22,243.1,21.9L243.1,21.9z"
	/>
<path fill="#F19300" d="M264.6,47.3c-0.1-0.5-0.2-1-0.3-1.5c-0.2-1.1-0.5-2.1-0.8-3c-0.6-1.7-1.4-3.2-2.5-4.6l-0.1,0.1
	c-0.2,0.2-0.2,0.3-0.2,0.4c0,0.2,0,0.3,0,0.3c0.2,0.1,0.3,0.2,0.4,0.4c0.2,0.1,0.3,0.2,0.3,0.4c0.1,0.1,0.1,0.1,0.2,0.3
	c-0.1,1.4,0.1,2.8,0.3,4.3c0.5,2.4,0.6,4.9,0.6,7.5c-0.1,2.5-0.1,5.1-0.2,7.7c-0.1,2.3-0.2,4.5-0.2,6.6c1.1-0.6,1.7-1.6,2.1-2.9
	c0.7-2.8,1.1-5.7,1-8.7C265.1,52.1,264.9,49.7,264.6,47.3L264.6,47.3z"/>
<path fill="#E2E0E0" d="M306.3,169.4c1.5,0.8,2.9,1.7,4.3,2.6c-0.7-1.3-1.5-2.5-2.3-3.7c-3.3-4.8-7.5-8.7-12.4-11.5
	c-3.9-2.3-8.3-3.9-13.3-4.8c-0.6-0.1-1.2-0.2-1.7-0.3c-3.7-0.5-8-0.6-13-0.2c0.3,1.3,0.6,2.6,0.8,3.8h-0.1c-0.2,0.3-1.3,1.9-3.5,4.6
	c-1.6,1.9-4.1,3.8-7.5,5.7c2.2-0.7,6.7-1.5,13.5-2.4c7.8-1,13-1.5,15.8-1.5C290.7,161.5,297.1,164.1,306.3,169.4L306.3,169.4z"/>
<path fill="#9B1915" d="M310.6,172c-1.4-0.8-2.8-1.7-4.3-2.6c-9.2-5.2-15.6-7.9-19.3-7.9c-2.8,0-8,0.5-15.8,1.5
	c-6.7,0.8-11.3,1.6-13.5,2.4c-0.4,0.2-0.8,0.4-1.2,0.7c-0.3,0.2-0.5,0.3-0.7,0.4c-0.8,0.4-1.7,0.8-2.6,1.2c-5.8,2.5-14.5,4.6-26.2,6
	c-1.2,0-2.4,0-3.5,0c-8.6,6.3-17,11.8-25.5,16.6c-10.9,6.1-17.9,10.8-21,14.1c-1.4,1.4-3.2,2.6-5.5,3.5c-3.4,7.5-7.4,17.2-12.2,29
	c-5,12.4-13.6,36.5-25.9,72.5c2.1,1.8,4.3,3.4,6.6,4.8c2.6,1.5,5.5,2.8,8.4,3.9c4.8-11.5,8.7-21.4,11.6-29.5
	c3.9-11.3,7.7-21.8,11.2-31.6c3.3-10.1,5.9-17.9,7.8-23.6c3.5-10.3,5.8-15.5,7-15.5c5.1,0,9.8,4.9,14.1,14.7c2.3,4.9,4,10,5.2,15.2
	c0,3-0.8,5.3-2.5,6.9c-0.8,0.8-2.5,2.3-5,4.4c-0.1,0.2-0.2,0.3-0.4,0.4c0,0.2,0.1,0.3,0.1,0.5c3,15.4,7.5,27.1,13.5,35.2
	c-1.7-12.9,4.4-26.5,18.6-40.8c16.7-16.9,26.1-26.6,28.2-29c0.4-0.5,7.9-3,22.6-7.5c14.6-4.5,22.3-6.8,23.2-6.8
	c0.5,0,1.7,0.5,3.6,1.4c1.1,0.5,2,0.8,2.9,1.1c1.8-7.4,3.7-15.8,5.7-25.3C315.1,182.2,313.3,176.8,310.6,172L310.6,172z"/>
<path fill="#C99610" d="M255.8,123.5c-0.1-0.3-0.1-0.5-0.1-0.7c-8.9,4.3-14.3,6.8-16.2,7.1c-1.5,0.3-7.5,0.5-18.1,0.5
	c-1.2,0-2.5-0.5-4-1.5v0.1c-0.1,1.1-0.1,2.2,0.1,3.4c0,2.1,0.5,6.8,1.6,14.2c0.3,1.7,0.5,3.3,0.7,4.7c0.6-0.1,1.1-0.2,1.7-0.2
	c6.2-0.4,12.4-1,18.3-1.6c5.5-0.4,12.2-3.2,20.3-8.3c-0.2-0.5-0.2-0.9-0.3-1.4C257.8,132,256.5,126.5,255.8,123.5L255.8,123.5z"/>
<path fill="#D5A005" d="M213.8,131.2c-2.5-2.9-4.9-6.4-7.1-10.5c-2.6-5-4.3-7.5-5.2-7.5c-0.6,0-1,0.1-1.2,0.3c0,1.1,0.3,3,1,5.9
	c0.6,2.9,0.9,5.1,0.9,6.5c0,3-0.6,6.7-1.7,10.9c-0.7,2.4-1.3,4.5-2.1,6.2c1,0.5,1.9,0.7,2.6,0.5c3.2-0.5,5.2-0.7,6-0.9l-0.4-4.7
	C208.8,135.3,211.2,133.1,213.8,131.2L213.8,131.2z"/>
<path fill="#69180F" d="M219.8,151.4c-2.9,0.3-5.6,1-8.1,1.9c-0.2,2.5-0.5,6-0.9,10.5c-0.4,4-0.7,7.1-0.9,9.3
	c3.3,0.4,7.9,0.6,13.7,0.7c1.1,0,2.3,0,3.5,0c11.6-1.5,20.4-3.5,26.2-6c0.8-0.4,1.7-0.8,2.6-1.2l0.6-0.5c0.3-0.2,0.7-0.5,1.3-0.6
	c3.4-1.9,5.9-3.8,7.5-5.7c2.2-2.7,3.3-4.2,3.5-4.6h0.1c-0.3-1.2-0.6-2.5-0.8-3.8c-0.2-0.7-0.4-1.5-0.5-2.2c-0.4-1.7-0.8-3.5-1.2-5.3
	c-0.4-2-1.8-3.8-4.1-5.5c-0.8,0.5-1.6,1.1-2.4,1.6c0.1,0.5,0.1,0.9,0.3,1.4c-8,5.1-14.8,7.8-20.3,8.3c-6,0.6-12.1,1.1-18.3,1.6
	C220.9,151.2,220.4,151.3,219.8,151.4L219.8,151.4z"/>
<path fill="#9B1915" d="M211.7,153.2c-1.3,0.5-2.5,1-3.7,1.6c-4.3,0.5-7,1.1-8,1.7c-1.8,4.9-4.6,10.1-8.3,15.6
	c-0.6,0.3-1.1,0.6-1.4,0.8c-13.1,6.8-23.7,13.5-32.1,20c-2.8,5-4.4,8.5-4.8,10.5c-0.4,1.9-1.4,5.2-3.1,10
	c-4.8,11.3-12.2,29-22.2,53.3c-1.4,3.5-2.8,6.9-3.9,10c-0.2,0.1-0.2,0.3-0.2,0.5c-0.8,1.9-1.5,3.7-2.2,5.5c-1.6,4-2.6,6.4-3,7
	c0.3,1.7,1.4,3.6,3.3,5.7c6.7-15.4,15.1-35.3,25.3-59.9c10.1-24.5,13.9-36.7,11.5-36.7c12.1-8.5,21.3-14.6,27.4-18.1
	c6.1-3.7,11.7-6.9,16.8-9.6h0.1v0.1c1,0.8,3.2,1.5,6.7,1.9c0.2-2.2,0.5-5.3,0.9-9.3C211.2,159.2,211.5,155.8,211.7,153.2
	L211.7,153.2z"/>
<path fill="#E2E0E0" d="M223.6,173.7c-5.8-0.1-10.4-0.3-13.7-0.7c-3.5-0.4-5.8-1.1-6.7-1.9l-0.1-0.1c-5.1,2.8-10.7,6-16.8,9.6
	c-6.1,3.5-15.3,9.6-27.4,18.1c2.4,0-1.5,12.3-11.5,36.7c-10.2,24.5-18.6,44.5-25.3,59.9c-0.7,0.2-0.7,0.6,0.1,1.1
	c3.4,5.1,7.2,9.4,11.4,12.9c12.3-36,20.9-60.1,25.9-72.5c4.8-11.9,8.8-21.5,12.2-29c2.2-1,4-2.1,5.5-3.5c3.1-3.3,10.1-7.9,21-14.1
	C206.6,185.5,215.1,180,223.6,173.7L223.6,173.7z"/>
<path fill="#69180F" d="M280.7,217.8c-14.7,4.5-22.2,7-22.6,7.5c-2.1,2.4-11.5,12.1-28.2,29c-14.2,14.3-20.4,28-18.6,40.8
	c-6-8-10.5-19.8-13.5-35.2l-6.6,19.8c1.7,6.6,2.6,11.9,2.6,15.9c0,1.5-0.4,10.6-1.2,27.3c-0.8,16.7-1.3,27-1.3,31
	c0,7.1,0.2,11.6,0.7,13.4c1,3.2,3,6.8,6.1,10.7c2,0.1,4.2,0.2,6.6,0.2c2.1-0.1,4.3-0.2,6.6-0.4c7.2-0.6,15.4-2.1,24.4-4.4
	c3.7-1,7.3-2,10.6-3c1.6-0.5,3.3-1,4.8-1.5c1.6-0.6,3.3-1.2,5-1.8c3-1.1,5.7-2.2,8.2-3.4c2.1-1,3.9-2,5.7-3c2.5-1.5,4.7-3,6.5-4.5
	c3.8-3.3,7-6.3,9.4-8.9c1.9-2.1,3.3-3.9,4.3-5.6c0.1-0.3,0.2-0.5,0.4-0.7c6.7-5.6,7.8-13.8,3.3-24.6l1.6-32l0.1-2.2
	c-0.1-16.5,1.8-29,5.7-37.4c2.4-5.4,5.5-15.9,9.2-31.4c-0.8-0.3-1.8-0.6-2.9-1.1c-1.9-1-3.1-1.4-3.6-1.4
	C303.1,211,295.3,213.3,280.7,217.8L280.7,217.8z"/>
<path fill="#4C1C15" d="M316.1,188.2c-2,9.5-3.9,17.9-5.7,25.3c-3.8,15.5-6.9,26-9.2,31.4c-3.9,8.4-5.7,20.9-5.7,37.4l-0.1,2.2
	c2.5,0.3,4.5,0.4,6,0.4c4.6,0,9.3-1.4,14.1-4.1c1.9-1.1,3.8-2.4,5.8-3.9h0.1c0.4-8.9,0.6-14.1,0.6-15.2c0-4.4-0.4-13.9-1.4-28.4
	c-1-14.6-1.9-26.7-2.9-36.2c-0.3-2.3-0.7-4.7-1.3-7.1C316.3,189.3,316.2,188.7,316.1,188.2L316.1,188.2z"/>
<path fill="#184185" d="M87.3,238.4l-17.1,0.8l-2.2,0c0.4-2,0.2-4.3-0.4-6.9c-0.7-2.7-1.4-5.9-2.1-9.5c-0.8-3.9-1.6-5.9-2.3-6
	c-0.7-0.1-1.3,0.2-1.6,0.8c-0.3,0.6-0.5,1.7-0.6,3.1c-0.1,1.5-0.1,2.9-0.1,4.4c0.2,1.4-0.3,1.9-1.5,1.6l-12-34.8l24.3-7.9l3.3-1.1
	l0.9,0.1L87.3,238.4z"/>
<path fill="#E8C260" d="M95.9,230.3c-2-5.8-4-12.5-6.1-20c-2.1-7.6-4-11.1-5.6-10.6c-1.6,0.5-2.8,1.6-3.4,3.1c-0.6,1.5-1,4-1.1,7.4
	c-0.1,3.4-0.2,6.8-0.2,10.2c0.6,3.2-0.6,5.1-3.6,5.6c-2.1,2.3-5.9,1-11.3-4.2l-8.8-19.9c-1.4,2.9-1.7,11.3-1.1,24.9
	c2.6,3.7,6.4,7.9,11.3,12.7c9.2,8.7,17.2,14.3,24.1,17c-0.3,1-1,2.1-2.1,3.4c-1,1.1-1.4,2-1.4,2.9c0,2.5,1.6,7,4.7,13.4
	c4.5,9.2,7.1,14.8,7.9,16.9c1.5,3.9,4.5,11.9,8.9,24c5.1,10.1,11.4,15.1,19,15.1c2.4,0,4.7-1.9,6.9-5.7c1.2-1.9,3.2-6,6.1-12.3
	c-2.3-1.4-4.6-3-6.6-4.8c-4.2-3.5-8-7.8-11.4-12.9c-0.8-0.5-0.8-0.9-0.1-1.1c-1.9-2.1-3-3.9-3.3-5.7c0.4-0.6,1.4-3,3-7
	c0.7-1.7,1.4-3.5,2.2-5.5c0-0.2,0.1-0.4,0.2-0.5c-6.7-8.6-12.8-16.8-18.1-24.8c-0.3-3.8-1.2-6.2-2.7-7.3l-5.2,3.1
	C98.6,241.9,97.8,236.1,95.9,230.3L95.9,230.3z"/>
<path fill="#DBA500" d="M54.7,227c0,0.5,0,1,0,1.5c13.4,17.3,22.2,28.1,26.5,32.6c5.5,17,12.3,35.1,20.5,54.1
	c8.1,19,14,29.3,17.6,31c3.7,1.6,9.1,3,16.5,4c4.9,0.7,10.4-3,16.5-10.9c6-7.9,9.2-11.9,9.6-11.9c1.2-2,2.4-4,3.6-6.1
	c-6.1-0.3-11.8-1.4-17-3.3c-2.9-1.1-5.7-2.4-8.4-3.9c-2.9,6.4-4.9,10.5-6.1,12.3c-2.3,3.8-4.6,5.7-6.9,5.7c-7.6,0-14-5-19-15.1
	c-4.4-12.1-7.4-20.1-8.9-24c-0.8-2.1-3.4-7.7-7.9-16.9c-3.1-6.5-4.7-10.9-4.7-13.4c0-0.8,0.5-1.8,1.4-2.9c1.1-1.3,1.9-2.4,2.1-3.4
	c-6.9-2.6-15-8.3-24.1-17C61.1,234.9,57.4,230.7,54.7,227L54.7,227z"/>
<path fill="#821810" d="M200.3,232.5c-4.3-9.8-9.1-14.7-14.1-14.7c-1.2,0-3.5,5.2-7,15.5c-1.9,5.7-4.4,13.5-7.8,23.6
	c-3.5,9.8-7.3,20.4-11.2,31.6c-2.9,8.2-6.8,18-11.6,29.5c5.2,1.9,10.9,2.9,17,3.3l3.8-1.6l7-2.7l2.5-1.1l12.3-36.2l6.6-19.8
	c-0.1-0.2-0.1-0.3-0.1-0.5c0.2-0.1,0.3-0.2,0.4-0.4c2.5-2.1,4.2-3.5,5-4.4c1.6-1.6,2.5-3.9,2.5-6.9
	C204.3,242.6,202.6,237.4,200.3,232.5L200.3,232.5z"/>
<path fill="#69180F" d="M176.3,317l-7,2.7c-1.3,12-2.4,18.5-3.2,19.5c-5.3,10-6.4,16.7-3.4,20.4c1.4,1.7,2.6,3.3,3.5,4.6
	c1.1,1.5,1.8,2.8,2.3,3.8c1.1,0.8,2.4,1.7,3.9,2.6c1.4,0.7,3,1.5,4.6,2.2c-0.3-0.7-0.6-1.3-0.9-1.8c-0.6-1.3-1.1-2.5-1.4-3.7
	c-0.7-2.2-1.1-4.2-1.1-6.1c0.5-4.2,1.1-8.7,1.7-13.3c1.1-9.2,1.6-16.3,1.6-21.1c0-1-0.1-2.9-0.4-5.8
	C176.4,319.3,176.4,318.1,176.3,317L176.3,317z"/>
<path fill="#13110C" d="M192.5,323c0.8-16.8,1.2-25.9,1.2-27.3c0-4-0.8-9.3-2.6-15.9L178.8,316l-2.5,1.1c0.1,1,0.1,2.3,0.3,3.8
	c0.3,2.9,0.4,4.9,0.4,5.8c0,4.8-0.5,11.9-1.6,21.1c-0.6,4.7-1.2,9.1-1.7,13.3c0,1.9,0.3,3.9,1.1,6.1c0.3,1.2,0.8,2.4,1.4,3.7
	c0.3,0.5,0.6,1.1,0.9,1.8c-1.6-0.7-3.2-1.5-4.6-2.2c-0.7,1.7-1.1,4.1-1.1,6.9c0,1.4,0.2,3.2,0.7,5.5c4.3,2.5,10.4,5,18.3,7.1
	c3.1,0.8,6.6,1.4,10.6,1.6c1.4,0.1,2.8,0.1,4.3,0.1l0.1-2c0-3.4-0.3-7.1-0.8-11c0-0.1,0-0.2,0-0.4c-2.4,0-4.6-0.1-6.6-0.2
	c-3.1-3.9-5.1-7.5-6.1-10.7c-0.4-1.8-0.7-6.3-0.7-13.4C191.2,350,191.7,339.7,192.5,323L192.5,323z"/>
<path fill="#226253" d="M170.4,522.8c0,0-0.1,0-0.1,0c-8.1-1.8-13.6-3-18.2-4.2c-0.3-0.1-0.4-0.3-0.4-0.6
	c0.3-16.5,0.6-36.2,0.7-58.4c0,0,0-0.1,0-0.1l15.7-73.9c-0.6-1.2-1.2-2.6-1.7-4.2c-1.3-3.6-1.9-6.3-1.9-8.2c0-3.7,0.2-6.2,0.8-7.8
	c0.1-0.5,0.3-1,0.6-1.5c0.1-0.1,0.3-0.2,0.5-0.2l0,0c0.2,0,0.4,0.1,0.5,0.2c0.9,1.3,1.7,2.6,2.3,3.7c1.3,1,2.5,1.8,3.8,2.5
	c0.3,0.1,0.4,0.4,0.2,0.7c-0.7,1.6-1,3.8-1,6.7c0,1.3,0.2,3,0.6,5.2c4.4,2.5,10.4,4.9,17.9,7c3.2,0.9,6.7,1.4,10.4,1.6
	c0.2,0,0.3,0.1,0.4,0.2c0.1,0.1,0.1,0.3,0.1,0.5c-2.5,7.7-5,18.9-7.9,34.3c-3.7,20.5-6.4,33.5-8.2,39.7c0,0.1,0,0.1-0.1,0.1
	c-0.4,0.6-0.3,0.9-0.2,1c0.2,0.4,1.5,1.5,7.8,1.5c1,0,2.1,0,3.2-0.1c4.8-2,10.2-3.2,16.2-3.7c0,0,0,0,0.1,0c0.2,0,0.5,0.2,0.5,0.4
	c0.1,0.3,0,0.5-0.3,0.7c-16.6,9.4-25.4,14.6-26.2,15.5c-6.4,17.8-11.5,31.2-15.6,41.2C170.8,522.6,170.6,522.8,170.4,522.8
	L170.4,522.8z"/>
<path fill="#1F5048" d="M296.3,379.5c-0.1-1.3-0.3-2.8-0.6-4.6c-0.7-4.6-2-10.9-3.9-18.9c0-0.2-0.1-0.3-0.1-0.5
	c0-0.2-0.1-0.3-0.1-0.5c0.1,0,0.2,0,0.2,0c0-0.1,0-0.2,0-0.3v-0.1c0-0.1,0-0.2,0-0.3c-0.2-2.9-0.5-6-0.9-9.3
	c-0.3-1.1-0.6-2.2-0.8-3.3c-1,1.6-2.4,3.5-4.3,5.6c0.2,0.5,0.4,1,0.6,1.6c1.3,3.6,2.1,6.9,2.3,10c-0.2,0.3-0.4,0.6-0.7,0.9
	c-2.5,2.9-6,6.2-10.3,10c-1.2,1-2.5,2-4,3c-0.2-3.5-0.7-6.2-1.5-8.1c-0.9-1.3-1.6-2.6-2.3-3.8c-1.7,1-3.6,2-5.7,3
	c0.3,0.9,0.7,2,1.2,3.3c1.5,3.8,2.2,6.9,2.2,9.1c-1.2,0.6-2.5,1.2-3.9,1.8c-1.9,0.8-3.8,1.7-6,2.5c-1.3,0.5-2.6,1-4,1.5
	c0-0.2,0-0.2,0-0.3c0-3.4-0.7-7.1-2.1-11.1c-0.3-0.6-0.5-1.1-0.6-1.6c-1.6,0.5-3.2,1-4.8,1.5c0,0.1,0,0.2,0,0.3
	c0.5,3.7,0.7,6.3,0.7,7.9c0,1.1-0.1,2.7-0.3,4.7c-0.1,0.3-0.1,0.6-0.1,0.9c-3,0.8-6.2,1.7-9.6,2.6c-9.5,2.4-17.9,3.9-25.3,4.6
	c-0.2-5.6-0.3-10.1-0.4-13.5c-2.3,0.2-4.5,0.3-6.6,0.4c0,0.2,0,0.3,0,0.4c0.5,3.9,0.8,7.6,0.8,11l-0.1,2c-1.5,0-2.9-0.1-4.3-0.1
	c-2.5,7.8-5.1,19.2-7.9,34.4c-3.7,20.1-6.4,33.3-8.2,39.6c-1.6,2.5,2.1,3.7,11.4,3.3c4.8-2,10.2-3.2,16.2-3.7
	c-17.4,9.9-26.3,15.1-26.4,15.8c-6.1,17.2-11.3,30.9-15.6,41.2c3,0.7,5.9,1.4,8.8,2.2c2.8,0.7,7,1.9,12.6,3.4c5.5,1.5,8,2.8,7.4,4
	L198,559l-0.2,5c0,6,0.4,16,1.4,30.1c0,1.4,0.2,4.8,0.6,10.2c0.2,3-0.2,5.7-1.1,8.3v0.1c-8,5-13.1,7.3-15.1,6.9
	c-3-1-5.7-1.5-8.1-1.5c-2.4-0.1-3.7-0.2-3.9-0.4c-0.3-0.3-1-0.4-2.3-0.5l-0.1,0.1c-0.8,0.6-1.5,1-2.3,0.9c-1.6-0.3-3.2-0.6-4.6-1.1
	c-2.5-0.8-5-2.1-7.4-3.7l-0.1-1.9c-1.1-1.2-2.5-1.7-4.3-1.4c0.1,3.7,0.2,7.3,0.3,10.7c4.9,4.4,9.8,7.1,14.6,7.9
	c0.2,0.4,0.3,0.7,0.5,1.1c1.5,2.8,3.5,4.8,5.9,6.3c0.2,1.7,0.2,3.9,0.2,6.4c0,0.8-0.3,3.8-0.9,8.8c-0.6,5.1,9.5,0.6,30.2-13.5
	c3.1,0.4-0.4,6.7-10.7,19c-12.7,5.7-18.3,9.8-16.7,12.4c2.6,4.1,4.1,8.6,4.4,13.2c0.2,1.9,0.8,6.2,2,13.2c1.1,6.1,1.6,11.1,1.6,14.9
	c0,0.8,4.8,7.1,14.4,18.9c-11.1-4.2-17.4-3-18.9,3.5c-2.4,10.8-3.8,20.8-4.3,30.1c5.5,3.3,10.5,6,14.9,8.2c5.3,2.5,9.8,4.1,13.3,4.8
	c1.1-4.3-4.7-15.7-17.3-34.1c-2.9-5.2-1.5-8.5,4.2-10c13.4,5.8,20.6,6.1,21.5,0.8c5.2-28.2,7.8-44.3,7.8-48.1c0-1.6-1-5.1-3-10.5
	c-0.7-1.9-1.3-3.5-1.8-4.9c-3.7,5.6-14.4,6-32.3,1.4c15.2-9.1,23-16.7,23.4-22.7c3.6-10.8,6-17.6,7.3-20.6
	c4.7-11.1,7.2-18.3,7.4-21.8c0-0.6,0.4-3.8,1.4-9.3c0.8-5.5,1.3-9.1,1.3-10.8c0-1.1-1-2.6-3.1-4.4c-2.1-1.7-3.2-3.2-3.2-4.5
	c0-0.7,1.8-2.9,5.4-6.5c3.5-3.5,5.3-6.8,5.3-9.6c0-0.3-0.1-0.7-0.1-1.5c-0.1-1.3-0.4-3.1-0.8-5.7c-0.6-4-0.9-6.4-0.9-7.2
	c0-10.4,1.5-22.5,4.5-36.2c3-13.7,3.9-22.2,2.9-25.5c-0.8-2.5-1.9-4.9-3.3-7.1c-1.5-0.3-2.8-0.2-3.7,0.3c-2,0.8-9.2,0.1-21.8-2.2
	c19.9-4.5,32.7-9.1,38.4-13.8c5.7-4.7,9.8-7.9,12.4-9.6c1.7-3.1,3.4-6.6,4.9-10.4c0.1-0.3,0.2-0.5,0.3-0.8
	c2.5-6.4,4.7-13.6,6.7-21.7c0.6-7.5,0.8-14.6,0.7-21.2c-0.1-3.8-0.3-7.3-0.6-10.7c4.4,5.7,6.8,10.8,6.9,15.3
	c0.2,6.6,0,13.7-0.7,21.1c-1.9,8.1-4.1,15.3-6.6,21.7c-0.2,0.3-0.3,0.5-0.3,0.8c-0.6,1.7-1.3,3.4-2.1,5c1.5-1,2.7-1.9,3.7-2.6
	c9.1-6.1,15.3-14.2,18.6-24.1c5.8-17.4,8.8-26.5,9.1-27.3c1.3-4.4,2.3-8.8,3.1-13.2C296.5,382.1,296.4,380.7,296.3,379.5z"/>
<path fill="#DCA600" d="M301.3,284.9c-1.5,0-3.5-0.1-6-0.4l-1.6,32c4.5,10.9,3.4,19.1-3.3,24.6c0.1,1.3,0.3,2.6,0.4,3.9
	c0.3,3.3,0.6,6.4,0.9,9.3c0,0.1,0,0.2,0,0.3v0.1c0,0.1,0,0.2,0,0.3c0,0.4,0,0.7,0,1c1.9,7.9,3.1,14.2,3.9,18.9c0.9-2.4,1.9-5,3-7.9
	c4.3-12.8,9.6-31,15.6-54.6c1.6-15.4,2-25.9,1.2-31.6C310.6,283.5,305.9,284.9,301.3,284.9L301.3,284.9z"/>
<path fill="#13110C" d="M290.5,341.1c-0.2,0.2-0.3,0.4-0.4,0.7c0.3,1.1,0.6,2.1,0.8,3.3C290.8,343.8,290.6,342.4,290.5,341.1
	L290.5,341.1z"/>
<path fill="#13110C" d="M286.4,348.9c-0.2-0.6-0.4-1.1-0.6-1.6c-2.5,2.6-5.6,5.6-9.4,8.9c-1.8,1.5-3.9,3-6.5,4.5
	c0.7,1.2,1.5,2.5,2.3,3.8c0.8,1.9,1.3,4.6,1.5,8.1c1.5-1,2.8-2,4-3c4.3-3.8,7.8-7.1,10.3-10c0.3-0.3,0.6-0.6,0.7-0.9
	C288.5,355.9,287.8,352.5,286.4,348.9L286.4,348.9z"/>
<path fill="#13110C" d="M235.6,373.5c-9.1,2.3-17.2,3.8-24.4,4.4c0.1,3.4,0.2,7.9,0.4,13.5c7.4-0.6,15.9-2.1,25.3-4.6
	c3.4-0.8,6.6-1.7,9.6-2.6c0-0.3,0.1-0.6,0.1-0.9c0.2-2,0.3-3.5,0.3-4.7c0-1.6-0.2-4.3-0.7-7.9c0-0.1,0-0.2,0-0.3
	C242.9,371.5,239.3,372.5,235.6,373.5L235.6,373.5z"/>
<path fill="#13110C" d="M256,367.2c-1.7,0.6-3.4,1.2-5,1.8c0.2,0.5,0.3,1,0.6,1.6c1.4,4,2.1,7.7,2.1,11.1c0,0.1,0,0.1,0,0.3
	c1.4-0.5,2.8-1,4-1.5c2.1-0.8,4.1-1.6,6-2.5c1.4-0.6,2.7-1.2,3.9-1.8c0-2.2-0.7-5.3-2.2-9.1c-0.5-1.3-0.9-2.4-1.2-3.3
	C261.7,365,259,366.1,256,367.2L256,367.2z"/>
<path fill="#1D372F" d="M300.4,732.9c-0.1,0-0.3,0-0.4-0.1c-0.1-0.1-0.2-0.3-0.2-0.5c0.4-2.8,1.1-7.6,1.7-14.2
	c1.2-11.7,1.9-15.5,2.4-16.8c-3.4-2.4-8.5-4.2-15.1-5.3c-0.2,0-0.4-0.2-0.5-0.4c0-0.2,0.1-0.5,0.3-0.6c5.8-3.6,9.9-6.6,12.3-8.9
	c4.5-4.6,6.9-7.8,6.9-9.4c0-1.2-0.6-5-3.3-15.9c-0.1,0-0.2,0-0.3,0c-2.1,0-5.8-1.8-11.5-5.5c-0.1-0.1-0.2-0.2-0.2-0.4
	c-0.2-1.2-0.3-3.4-0.3-6.7c0-0.1,0.1-0.3,0.2-0.4c10.7-11,13-15.4,13-17.1c0-13.5-3.9-24.7-11.5-33.3l-8-8
	c-2.4-2.3-10.5-7.7-24.1-15.9c-0.3-0.2-0.3-0.5-0.2-0.8c12.3-20.5,21.9-35.3,28.5-44.1c0-0.1-0.1-0.1-0.1-0.2c0,0-0.1-0.1-0.1-0.1
	c-4.5-8.1-6.8-16-6.8-23.6l1.8-15.3c0-3.8-0.6-9.6-1.8-17.9c-1-7-1.6-10.9-1.7-12.5c-3,1.1-8.4,3.4-16.4,7.2
	c-6.7,3.2-12.3,5.3-16.6,6c0,0-0.1,0-0.1,0c-0.1,0-0.3-0.1-0.4-0.1c-0.1-0.1-0.2-0.3-0.2-0.4c0.2-3.7,0.3-7.4,0.5-10.9v-1.7
	c0-0.1,0-0.2,0.1-0.3c1.3-1.9,2.5-3.7,3.5-5.4l0.3-0.5c0.2-0.4,0.4-0.7,0.6-1.1c1.7-3,3.3-6.5,4.9-10.3c0-0.2,0.1-0.4,0.2-0.6
	l0.1-0.2c2.4-6.1,4.6-13.1,6.7-21.6c0.6-7.3,0.8-14.4,0.7-21.1c-0.1-3.5-0.3-7-0.6-10.7c0-0.2,0.1-0.5,0.3-0.6c0.1,0,0.1,0,0.2,0
	c0.2,0,0.3,0.1,0.4,0.2c4.5,5.8,6.9,11,7,15.6c0.2,6.6,0,13.8-0.7,21.2c-2,8.3-4.1,15.5-6.7,21.8c-0.2,0.3-0.3,0.5-0.3,0.7
	c-0.4,1.2-0.9,2.3-1.3,3.3c0.8-0.5,1.4-1,2-1.4c9-6,15.2-14.1,18.4-23.9c5.8-17.4,8.8-26.5,9.1-27.3c1.3-4.2,2.3-8.5,3.1-13.1
	c0-0.3,0.3-0.5,0.6-0.5c0,0,0,0,0,0c0.3,0,0.5,0.2,0.5,0.5c0.1,1.4,0.2,2.9,0.3,4.5c0.1,1.4,0.2,2.8,0.3,4.4c0,0.7,0,1.3,0.1,2
	c0,0.4,0,0.8,0,1.1c0,0.8,0.1,1.5,0.1,2.2c0,0.7,0.1,1.4,0.1,2.2c0.4,8.8-0.3,18.7-2.3,29.3c-2,10.2-2.5,18.1-1.3,23.5
	c0.7,6,2.5,17.7,5.2,33.1c2,12,3.4,19.9,3.8,21.9c0,0.1,0,0.2,0,0.2c-0.1,0.5,0.3,6,1.4,19.9c1.1,14.9,2.3,26.4,3.4,34.3
	c1,7,2.5,18.7,5.3,40.2c2.3,19.1,4.1,45.7,5.2,79.2c1.4,13.9,1.3,23.3-0.4,28.8c-1.9,5.6-3.2,8.8-4.2,9.9c0,0-0.1,0.1-0.1,0.1
	c-1.8,1.1-2.1,1.6-2.1,1.6c-1.6,4.5-4.5,7.8-8.4,9.8c-1.1,0.6-2.2,0.9-3.1,1.2C300.5,732.9,300.4,732.9,300.4,732.9L300.4,732.9z"/>
<path fill="#1E3D33" d="M205.9,777.1c-0.6,0-1.3,0-1.9-0.1c-1-0.1-2-0.2-2.9-0.4c-0.1,0-0.3-0.1-0.3-0.2c-0.1-0.1-0.1-0.3-0.1-0.4
	c1-4.1-4.8-15.4-17.2-33.6c-1.6-2.8-2-5.1-1.2-6.9c0.8-1.8,2.7-3.2,5.7-4c0,0,0.1,0,0.1,0c0.1,0,0.2,0,0.2,0c7,3,12.2,4.5,15.7,4.5
	c3,0,4.6-1.1,5-3.3c5.1-28.1,7.8-44.2,7.8-48c0-1.5-1-4.9-2.9-10.3c-0.6-1.4-1-2.7-1.5-3.9c-2.3,2.6-6.4,3.9-12.1,3.9
	c-5.2,0-12-1.1-20.1-3.2c-0.2-0.1-0.4-0.2-0.4-0.5c0-0.2,0.1-0.5,0.3-0.6c15-8.9,22.7-16.4,23.1-22.2c0,0,0-0.1,0-0.1
	c3.6-10.7,6-17.7,7.3-20.6c4.7-11,7.2-18.3,7.3-21.6c0-0.7,0.5-4.3,1.4-9.4c0.9-5.7,1.3-9.1,1.3-10.7c0-0.7-0.5-1.9-2.9-4
	c-2.3-1.9-3.4-3.5-3.4-4.9c0-0.7,0.7-2,5.6-6.9c3.4-3.4,5.2-6.5,5.2-9.2c0-0.8-0.3-3.4-0.9-7.1c-0.6-3.8-0.9-6.3-0.9-7.2
	c0-10.3,1.5-22.6,4.5-36.3c2.9-13.6,3.9-22,2.9-25.2c-0.8-2.5-1.8-4.7-3.1-6.8c-0.4-0.1-0.8-0.1-1.2-0.1c-0.7,0-1.4,0.1-1.9,0.4
	c-0.6,0.3-1.5,0.4-2.9,0.4l0,0c-3.5,0-9.8-0.8-19.3-2.6c-0.3,0-0.5-0.3-0.5-0.5c0-0.3,0.2-0.5,0.4-0.6c19.7-4.5,32.5-9.1,38.1-13.7
	c5.7-4.7,9.9-7.9,12.5-9.6c0.1-0.1,0.2-0.1,0.3-0.1c0.1,0,0.3,0.1,0.4,0.2c0.2,0.2,0.2,0.5,0.1,0.7c-0.2,0.4-0.4,0.7-0.6,1.1
	l-0.3,0.6c-1.1,1.7-2.2,3.5-3.5,5.4v1.5c-0.2,3.6-0.3,7.2-0.5,10.9c0,1.8-0.1,3.7-0.3,5.5l0,0.5c-1,18-2.7,36.8-4.9,55.8
	c-1.2,9.3-2.5,19.2-4.2,30.2l-0.1,5.4l-1.7,7.6c0.2,3.6,0.2,7.5,0.3,12.1c0.2,10.6,0.2,23.2,0,37.4c-0.1,5.8-0.1,11.8-0.3,18.2
	c-0.2,9.8-0.7,29-1.5,54.8c-0.6,25-0.7,44.8-0.3,58.7c-0.1,2.5-1.5,5.2-4.1,7.9c-0.4,0.4-0.9,0.7-1.3,1.1c-1.3,1.3-2.9,2.5-4.6,3.7
	C219.9,774.9,213.2,777.1,205.9,777.1L205.9,777.1z"/>
<path fill="#1F4438" d="M248.1,471.7c-0.1,2-0.2,4-0.3,6.1c-1,18.1-2.6,36.7-4.9,55.8c1.4,7.6,3,14.6,5,21.1
	c3.4,11.4,8.7,25.1,15.9,41.1c-4.2,4-8.8,7.7-13.6,11.1c-2.8,3.2-4.2,10.1-4.2,20.6c0,3.5,3.1,10.5,9.5,21
	c3.9,6.4,12.3,14.4,25.1,24c9.2,7.4,17.3,7.6,24.4,1c-1.1,6.5-9.5,10.5-25.1,12.2c-2.8,2.1-7.7,1.5-14.9-1.6
	c-4.3,12-6.5,18.1-6.5,18.2c3.1,8.2,5.4,14.3,6.9,18.5c2.9,3.2,4.8,5.5,5.8,7c1.8,2.7,8.4,4.5,19.7,5.5c3.5,0.3,6.6,0,9.4-0.7
	c0.5-3.4,1.1-8.2,1.7-14.2c1.2-11.1,2.1-16.8,2.6-17c-3.5-2.6-8.7-4.5-15.7-5.7c5.9-3.7,10-6.7,12.4-9c4.7-4.7,7-8,7-9.8
	c0-1.8-1.1-7.3-3.4-16.5c-1.7,0.6-5.7-1.2-11.9-5.3c-0.2-1.1-0.3-3.3-0.3-6.6c8.8-9,13.2-14.8,13.2-17.5c0-13.7-3.9-24.9-11.6-33.6
	c-3.9-3.9-6.5-6.5-8-8c-2.4-2.4-10.5-7.7-24.2-16c12.7-21.1,22.2-35.8,28.6-44.3c-0.1-0.2-0.2-0.4-0.4-0.6c-4.5-8-6.8-15.9-6.8-23.3
	l1.8-15.2c0-4-0.6-10-1.8-18c-1.2-7.9-1.8-12.4-1.8-13.2c-2.9,1-8.6,3.4-17.1,7.4C257.9,469,252.4,471,248.1,471.7L248.1,471.7z"/>
<path fill="#226253" d="M265.4,721.1c-0.2,0-0.3-0.1-0.4-0.2c-0.7-0.8-1.6-1.7-2.6-2.6c-1.2-1.4-2.5-2.8-4-4.3
	c-0.8-0.8-1.6-1.6-2.3-2.4l-0.8-0.8c-0.7-0.6-1.4-1.3-2-2c-0.3-0.3-0.6-0.7-0.9-1c-5.5-4.6-6-15.1-1.5-31.1
	c-4.8-9.2-8.8-22-11.9-38.1c-0.5-2.4-0.9-4.8-1.4-7c-0.4-1.9-0.7-3.7-1.1-5.4c0,0,0-0.1,0-0.1c0.2-14.2,0.2-26.7,0-37.3
	c-0.1-4.6-0.1-8.5-0.3-12.1c0-0.1,0-0.1,0-0.2l1.7-7.5l0.1-5.3c1.6-11,3-20.9,4.2-30.2c0-0.3,0.3-0.5,0.5-0.5c0,0,0,0,0,0
	c0.3,0,0.5,0.2,0.6,0.5c1.4,7.8,3.1,14.7,4.9,21c3.5,11.5,8.8,25.3,15.9,41.1c0.1,0.2,0,0.5-0.1,0.6c-4.2,3.9-8.7,7.7-13.6,11.1
	c-2.6,3.1-4,9.9-4,20.2c0,3.4,3.2,10.4,9.4,20.7c3.9,6.3,12.3,14.3,24.9,23.8c4.7,3.8,9.1,5.6,13.2,5.6c3.7,0,7.2-1.6,10.4-4.6
	c0.1-0.1,0.2-0.2,0.4-0.2c0.1,0,0.2,0,0.3,0.1c0.2,0.1,0.3,0.4,0.3,0.6c-1.2,6.8-9.5,10.9-25.5,12.6c-1.2,0.8-2.7,1.3-4.5,1.3
	c-2.7,0-6.1-0.9-10.3-2.7c-3.9,10.8-5.9,16.4-6.2,17.4c3.4,8.9,5.5,14.5,6.9,18.3c0.1,0.3,0,0.5-0.2,0.7
	C265.6,721.1,265.5,721.1,265.4,721.1L265.4,721.1z"/>
<path fill="#24614B" d="M179.2,524.4c-2.9-0.8-5.8-1.5-8.8-2.2c-7.4-1.6-13.4-3-18.2-4.2c-0.2,0.4-1.2,2.8-3.2,7
	c-1.9,4.2-3.3,9.3-4.2,15.2c-0.9,5.9-1.5,9-1.7,9.5c-0.1,1.6,0.1,2.5,0.6,2.8c0.5,0.3,1,0.5,1.7,0.8c0.7,0.3,1.6,0.7,2.7,1.2
	c0.5,0.2,1.5,0.6,2.9,1.3c1.1,0.4,2.2,0.9,3.3,1.4c0.5,0.2,1,0.4,1.5,0.6c0.4,0.2,0.8,0.4,1.2,0.5c0.8,0.3,1.6,0.7,2.4,1
	c1.8,0.7,3.3,1.2,4.5,1.5c1,0.3,2.4,0.8,4.2,1.3c0.6,0.2,1.2,0.5,2,0.6c2.6,0.8,5.8,1.5,9.6,2c3.7,0.5,6.9,0.6,9.6,0.3
	c1.1-1.7,2-3.8,2.7-6.3c0.7-2.5,3.1-11.5,7.3-26.8c0.6-1.2-1.9-2.6-7.4-4C186.1,526.3,181.9,525.1,179.2,524.4L179.2,524.4z
	 M179.6,527.6c-3.3-1.2-8-2.6-14.1-4.3c-6.1-1.6-10-2.4-11.6-2.5c-1.5-0.1-2.1-0.2-1.8-0.4c0.3-0.2,0.6-0.2,0.9,0.1l10.7,1.4
	c3.3,0.4,7.7,1.5,13.1,3c1.9,0.5,5.7,1.6,11.7,3.4c5.9,1.7,8.8,2.9,8.8,3.4c-0.2,0.5-1.8,6.4-5,17.7c-0.2,1.3-0.5,2.9-1,4.7
	c0.1-3,0.7-6.2,1.7-9.6c1.1-3.5,1.7-7.4,1.8-11.8c-0.7-0.7-2.3-1.3-4.8-1.9C186.3,529.9,182.9,528.9,179.6,527.6L179.6,527.6z
	 M151.2,541.9c0.6,0,1.1,0.1,1.6,0.3c0.5,0.2,0.9,0.5,1.3,0.9l0.1,0.1c0.1,0.1,0.2,0.1,0.3,0.3c0.9,1,1.4,2,1.4,3.3
	c0,1.3-0.5,2.4-1.4,3.3c-0.8,0.9-1.9,1.4-3.2,1.4c-1.2,0-2.3-0.5-3.3-1.4c-0.8-0.8-1.2-1.9-1.3-3.1c0-0.1,0-0.2,0-0.2
	c0-1.1,0.3-2.1,1-2.9c0.2-0.3,0.3-0.5,0.6-0.8C149.1,542.3,150.1,541.9,151.2,541.9L151.2,541.9z M174.2,552.7
	c0.2-0.7,0.6-1.4,1.1-1.9c0.8-0.8,1.7-1.2,2.9-1.2c1.1,0,2.1,0.4,2.9,1.2c0.4,0.4,0.7,0.8,1,1.5c0.5,0.7,0.8,1.6,0.8,2.6
	c0,1.3-0.5,2.4-1.4,3.3c-0.8,1-1.9,1.4-3.1,1.4c-1.3,0-2.4-0.5-3.3-1.4c-0.8-0.8-1.2-1.9-1.3-3c0,0,0-0.2,0-0.2
	C173.7,554.1,173.9,553.4,174.2,552.7L174.2,552.7z"/>
<path fill="#309E7A" d="M165.4,523.3c6.1,1.6,10.8,3,14.1,4.3c3.3,1.3,6.8,2.4,10.4,3.3c2.5,0.6,4.1,1.2,4.8,1.9
	c-0.1,4.3-0.7,8.2-1.8,11.8c-1.1,3.4-1.6,6.6-1.7,9.6c0.5-1.8,0.8-3.4,1-4.7c3.2-11.3,4.8-17.2,5-17.7c0.1-0.5-2.9-1.6-8.8-3.4
	c-6-1.7-9.8-2.9-11.7-3.4c-5.3-1.6-9.7-2.6-13.1-3l-10.7-1.4c-0.3-0.3-0.6-0.3-0.9-0.1c-0.3,0.2,0.3,0.3,1.8,0.4
	C155.4,520.9,159.3,521.7,165.4,523.3L165.4,523.3z"/>
<path fill="#E2E0E0" d="M152.8,542.2c-0.5-0.2-1-0.3-1.6-0.3c-1.1,0-2.1,0.4-2.9,1.2c-0.3,0.3-0.5,0.5-0.6,0.8
	c-0.4,0.6-0.6,1.3-0.6,2.1c0,0.3,0.1,0.7,0.1,1c0.1,0.3,0.2,0.7,0.4,1c0.8,0.8,1.7,1.2,2.9,1.2c1.1,0,2.1-0.4,2.9-1.2
	c0.8-0.8,1.2-1.8,1.2-2.9c0-0.7-0.1-1.4-0.4-1.9l-0.1-0.1C153.7,542.7,153.3,542.4,152.8,542.2L152.8,542.2z M149.6,544.3
	c0.2-0.1,0.4-0.2,0.6-0.2c0.2,0,0.3,0.1,0.5,0.2c0.2,0.2,0.3,0.4,0.3,0.6c0,0.2-0.1,0.3-0.3,0.5c-0.1,0.2-0.3,0.3-0.5,0.3
	c-0.2,0-0.4-0.1-0.6-0.3c-0.1-0.2-0.2-0.3-0.2-0.5C149.5,544.7,149.5,544.4,149.6,544.3L149.6,544.3z M150.1,546.6
	c0-0.2,0.1-0.4,0.2-0.6c0.2-0.2,0.4-0.2,0.6-0.2c0.2,0,0.3,0.1,0.5,0.2c0.2,0.2,0.3,0.4,0.3,0.6c0,0.2-0.1,0.4-0.3,0.5
	c-0.2,0.2-0.3,0.3-0.5,0.3c-0.2,0-0.4-0.1-0.6-0.3C150.2,547,150.1,546.9,150.1,546.6L150.1,546.6z"/>
<path fill="#204938" d="M150.3,544.1c-0.2,0-0.4,0.1-0.6,0.2c-0.1,0.2-0.2,0.4-0.2,0.6c0,0.2,0.1,0.3,0.2,0.5
	c0.2,0.2,0.4,0.3,0.6,0.3c0.2,0,0.3-0.1,0.5-0.3c0.2-0.2,0.3-0.3,0.3-0.5c0-0.2-0.1-0.5-0.3-0.6
	C150.6,544.2,150.4,544.1,150.3,544.1L150.3,544.1z"/>
<path fill="#204938" d="M150.3,546.1c-0.1,0.2-0.2,0.4-0.2,0.6c0,0.2,0.1,0.4,0.2,0.5c0.2,0.2,0.4,0.3,0.6,0.3
	c0.2,0,0.3-0.1,0.5-0.3c0.2-0.1,0.3-0.3,0.3-0.5c0-0.2-0.1-0.4-0.3-0.6c-0.2-0.2-0.3-0.2-0.5-0.2
	C150.8,545.9,150.5,545.9,150.3,546.1L150.3,546.1z"/>
<path fill="#204938" d="M147.7,543.9c-0.6,0.8-1,1.7-1,2.9c0,0.1,0,0.2,0,0.2c0.1,1.2,0.5,2.3,1.3,3.1c1,0.9,2,1.4,3.3,1.4
	c1.3,0,2.4-0.5,3.2-1.4c0.9-1,1.4-2,1.4-3.3c0-1.2-0.5-2.3-1.4-3.3c-0.2-0.2-0.3-0.2-0.3-0.3c0.7,0.8,1.1,1.7,1.1,2.8
	c0,1.1-0.4,2.1-1.2,2.9c-0.8,0.8-1.8,1.2-2.9,1.2c-1.1,0-2.1-0.4-2.9-1.2c-0.3-0.3-0.5-0.6-0.7-0.9c-0.2-0.3-0.3-0.6-0.4-1
	c-0.1-0.3-0.1-0.7-0.1-1C147.2,545.2,147.3,544.5,147.7,543.9L147.7,543.9z"/>
<path fill="#898584" d="M147.7,547.9c0.2,0.3,0.4,0.6,0.7,0.9c0.8,0.8,1.7,1.2,2.9,1.2c1.1,0,2.1-0.4,2.9-1.2
	c0.8-0.8,1.2-1.7,1.2-2.9c0-1.1-0.4-2-1.1-2.8c0.3,0.5,0.4,1.1,0.4,1.9c0,1.1-0.4,2.1-1.2,2.9c-0.8,0.8-1.7,1.2-2.9,1.2
	C149.4,549.2,148.5,548.8,147.7,547.9L147.7,547.9z"/>
<path fill="#204938" d="M174.1,553.7c0-0.3,0-0.7,0.1-1c-0.3,0.7-0.5,1.4-0.5,2.2c0,0.1,0,0.2,0,0.2c0.1,1.2,0.5,2.2,1.3,3
	c0.9,1,2,1.4,3.3,1.4c1.2,0,2.3-0.5,3.1-1.4c1-0.9,1.4-2,1.4-3.3c0-1-0.3-1.9-0.8-2.6c0.2,0.4,0.2,0.9,0.2,1.4
	c0,1.1-0.4,2.1-1.2,2.9c-0.8,0.8-1.7,1.2-2.9,1.2c-1.1,0-2.1-0.4-2.9-1.2c-0.3-0.3-0.5-0.6-0.7-0.9
	C174.3,555.1,174.1,554.5,174.1,553.7L174.1,553.7z"/>
<path fill="#E2E0E0" d="M174.2,552.7c-0.1,0.3-0.1,0.7-0.1,1c0,0.7,0.2,1.3,0.5,2c0.8,0.8,1.7,1.2,2.9,1.2c1.1,0,2.1-0.4,2.9-1.2
	c0.8-0.8,1.2-1.7,1.2-2.9c0-0.5-0.1-0.9-0.2-1.3c-0.1-0.3-0.2-0.5-0.3-0.7c-0.8-0.8-1.7-1.2-2.9-1.2c-1.1,0-2.1,0.4-2.9,1.2
	C174.8,551.4,174.4,552,174.2,552.7L174.2,552.7z M176.5,551.8c0.2-0.2,0.4-0.2,0.6-0.2c0.2,0,0.3,0.1,0.5,0.2
	c0.2,0.2,0.3,0.4,0.3,0.6c0,0.2-0.1,0.3-0.3,0.5c-0.2,0.2-0.3,0.3-0.5,0.3c-0.2,0-0.5-0.1-0.6-0.3c-0.1-0.2-0.2-0.3-0.2-0.5
	C176.3,552.1,176.4,551.9,176.5,551.8L176.5,551.8z M177.8,553.3c0.2,0,0.3,0.1,0.5,0.2c0.2,0.2,0.3,0.5,0.3,0.6
	c0,0.2-0.1,0.3-0.3,0.5c-0.2,0.2-0.3,0.3-0.5,0.3c-0.2,0-0.4-0.1-0.6-0.3c-0.1-0.2-0.2-0.3-0.2-0.5c0-0.2,0.1-0.4,0.2-0.6
	C177.4,553.4,177.6,553.3,177.8,553.3L177.8,553.3z"/>
<path fill="#204938" d="M177.1,551.5c-0.2,0-0.5,0.1-0.6,0.2c-0.1,0.2-0.2,0.4-0.2,0.6c0,0.2,0.1,0.3,0.2,0.5
	c0.2,0.2,0.4,0.3,0.6,0.3c0.2,0,0.3-0.1,0.5-0.3c0.2-0.2,0.3-0.3,0.3-0.5c0-0.2-0.1-0.4-0.3-0.6
	C177.4,551.6,177.3,551.5,177.1,551.5L177.1,551.5z"/>
<path fill="#204938" d="M178.3,553.5c-0.2-0.1-0.3-0.2-0.5-0.2c-0.2,0-0.4,0.1-0.6,0.2c-0.1,0.2-0.2,0.5-0.2,0.6
	c0,0.2,0.1,0.3,0.2,0.5c0.2,0.2,0.5,0.3,0.6,0.3c0.2,0,0.3-0.1,0.5-0.3c0.2-0.2,0.3-0.3,0.3-0.5C178.6,554,178.4,553.7,178.3,553.5
	L178.3,553.5z"/>
<path fill="#898584" d="M181.4,551.5c0.1,0.4,0.2,0.8,0.2,1.3c0,1.1-0.4,2.1-1.2,2.9c-0.8,0.8-1.7,1.2-2.9,1.2
	c-1.1,0-2.1-0.4-2.9-1.2c0.2,0.3,0.4,0.6,0.7,0.9c0.8,0.8,1.7,1.2,2.9,1.2c1.1,0,2.1-0.4,2.9-1.2c0.8-0.8,1.2-1.7,1.2-2.9
	c0-0.5-0.1-1-0.2-1.4c-0.3-0.6-0.6-1.1-1-1.5C181.2,551,181.3,551.2,181.4,551.5L181.4,551.5z"/>
<path fill="#225C4D" d="M159.4,559.3c-0.8-0.3-1.6-0.7-2.4-1c-0.4-0.1-0.8-0.3-1.2-0.5c-0.6-0.2-1.1-0.4-1.5-0.6
	c-0.2,1-0.3,1.9-0.5,2.8c0.5,0.7,2.3,1.7,5.3,3.2c3,1.5,5.8,2,8.3,1.7c0.3-1.3,0.6-2.3,0.6-2.8c-1.8-0.5-3.2-1-4.2-1.3
	C162.7,560.5,161.2,560,159.4,559.3L159.4,559.3z"/>
<path fill="#225648" d="M153.8,560c0.2-0.9,0.3-1.8,0.5-2.8c-1.1-0.5-2.1-1-3.3-1.4c-1.4-0.7-2.4-1.1-2.9-1.3
	c-0.2,3-0.5,11.8-0.7,26.3c-0.3,14.5,0.1,22.9,1.2,25.4c1,2.5,1.6,3.8,1.8,3.9c1.7-0.3,3.2,0.2,4.3,1.4c-0.8-9.3-1.3-15.6-1.3-18.8
	l0.4-16.6c-0.2-5.3-0.3-9.1-0.3-11.4C153.5,563.1,153.6,561.5,153.8,560L153.8,560z"/>
<path fill="#236857" d="M159.1,563.2c-3-1.5-4.8-2.5-5.3-3.2c-0.2,1.5-0.3,3.2-0.3,4.8c0,2.3,0.1,6.1,0.3,11.4l-0.4,16.6
	c0,3.2,0.5,9.4,1.3,18.8l0.1,1.9c2.4,1.6,4.9,2.8,7.4,3.7c1.5,0.5,3,0.8,4.6,1.1c-0.2-0.6-0.3-1.7-0.6-3.5c-0.3-1.8-0.9-4.3-1.7-7.5
	c-0.8-3.2-0.8-9.7-0.1-19.5c0.7-9.8,1.4-16,2.2-18.5c0.7-2.6,1-4,0.8-4.4C164.9,565.2,162.1,564.6,159.1,563.2L159.1,563.2z"/>
<path fill="#1E3D33" d="M170,562.7c-0.7-0.2-1.4-0.4-2-0.6c0,0.5-0.3,1.5-0.6,2.8c0.2,0.4-0.1,1.9-0.8,4.4
	c-0.8,2.5-1.5,8.7-2.2,18.5c-0.7,9.8-0.7,16.3,0.1,19.5c0.8,3.2,1.4,5.7,1.7,7.5c0.3,1.7,0.4,2.9,0.6,3.5c0.7,0.1,1.5-0.3,2.3-0.9
	c-0.3,0.2-0.6-0.4-1-1.8c-0.4-1.5-0.5-2.8-0.3-3.9c-0.5-12.9-0.2-24.8,0.9-35.6c0.1-3.7,0.2-6.6,0.3-8.8c0.3,0,0.7,0,1.1,0
	c4.4,0.1,7.5,0.3,9.3,0.7c2.9,0.6,4.8,1.8,5.8,3.8c1.2,2.1,1.8,11.1,1.8,27.1c0,1.3-0.8,6.1-2.6,14.3c-0.5,2.3-0.8,4.4-1,6.5
	c2,0.3,7-2,15.1-6.9v-0.1c1-2.5,1.3-5.3,1.1-8.3c-0.4-5.5-0.6-8.8-0.6-10.2c-1-14.1-1.4-24.1-1.4-30.1l1.4-32.1
	c-4.2,15.4-6.6,24.3-7.3,26.8c-0.7,2.5-1.6,4.6-2.7,6.3c-2.8,0.3-6,0.2-9.6-0.3C175.9,564.2,172.7,563.5,170,562.7L170,562.7z"/>
<path fill="#236857" d="M169,567.2c-0.2,2.3-0.3,5.2-0.3,8.8c-1.1,10.9-1.4,22.7-0.9,35.6c-0.2,1.1-0.1,2.4,0.3,3.9
	c0.4,1.4,0.7,2,1,1.8l0.1-0.1c1.3,0.1,2,0.2,2.3,0.5c0.3,0.2,1.6,0.3,3.9,0.4c2.4,0,5.1,0.5,8.1,1.5c0.2-2,0.5-4.2,1-6.5
	c1.7-8.2,2.6-13,2.6-14.3c0-16-0.6-25-1.8-27.1c-1.1-2-3-3.2-5.8-3.8c-1.8-0.4-4.9-0.7-9.3-0.7C169.7,567.2,169.3,567.2,169,567.2
	L169,567.2z"/>
<path fill="#226253" d="M173,763.6c-0.1,0-0.2,0-0.3-0.1c-2.9-1.8-6.1-3.8-9.8-6.2c-0.1-0.1-0.2-0.2-0.2-0.3l-2.9-9.5
	c-0.2-0.9-0.3-1.7-0.4-2.6c-0.2-1-0.3-2-0.3-3.1c-0.2-2.1-0.3-4.5-0.4-7.2v-3c-0.3-2,0.3-6,1.9-12.6c-0.3-8.5-2.5-24.2-6.6-46.8
	c-1.7-9.4-3-26.7-3.8-51.4c0-0.2,0.1-0.4,0.3-0.5c0.1,0,0.2,0,0.2,0c0.1,0,0.3,0,0.4,0.1c4.8,4.3,9.6,7,14.3,7.8
	c0.2,0,0.3,0.2,0.4,0.3c0.2,0.4,0.3,0.7,0.5,1c1.5,2.7,3.4,4.7,5.7,6.1c0.2,0.1,0.2,0.2,0.3,0.4c0.2,1.6,0.2,3.7,0.2,6.5
	c0,1-0.3,4.2-0.9,8.9c-0.1,0.5,0,0.9,0.2,1.1c0.2,0.2,0.5,0.3,1,0.3c3.6,0,13-5.2,28.1-15.4c0.1-0.1,0.2-0.1,0.3-0.1c0,0,0,0,0.1,0
	c0.9,0.1,1.3,0.6,1.4,1c0.5,1.4-0.1,4.9-11.8,18.9c-0.1,0.1-0.1,0.1-0.2,0.1c-12.8,5.7-16,8.9-16.6,10.5c-0.1,0.4-0.1,0.8,0.1,1.1
	c2.6,4.2,4.1,8.7,4.5,13.5c0.2,2.1,0.9,7.1,2,13.2c1.1,6.2,1.6,11.3,1.6,15c0.1,0.4,1.7,3.1,14.3,18.5c0.2,0.2,0.2,0.5,0,0.7
	c-0.1,0.2-0.3,0.2-0.5,0.2c-0.1,0-0.1,0-0.2,0c-4.3-1.6-7.9-2.4-10.7-2.4c-4.2,0-6.7,1.8-7.5,5.5c-2.3,10.6-3.8,20.7-4.3,30
	c0,0.2-0.1,0.4-0.3,0.5C173.2,763.6,173.1,763.6,173,763.6L173,763.6z"/>
<path fill="#6E6A69" d="M159.3,734.7c0-1,0-2,0-3c-3.1,1.3-5.8,2.3-8.1,3c-1,1-1.9,2.2-2.9,3.8c-1.6,2.5-3.1,5.1-4.3,7.8
	c-1.3,1.4-2.2,1.9-3,1.5c-0.8-0.3-1-1.5-0.5-3.4c0.4-2,1.8-4.4,4.3-7.3c0.3-0.3,0.6-0.7,0.9-1c-2,0.3-4.1,0.6-6.5,0.9
	c-4.7,0.5-11.3,1.9-20,4.2c-5,2.1-7.7,4.5-8,7.1c-1.2,6.6,3.4,12.3,13.8,17.1c10.4,4.7,21.4,8.7,33.2,11.9c0.1,0,7.7,2.5,22.9,7.5
	c12.3,4.1,20.3,5.5,24,4.4c3.4,0,7.8-0.7,12.9-2.2c6.4-2,11.1-5,14.4-8.9l-0.2-2.7c-2.5,1.5-5.4,2.9-8.6,4.2
	c-7.1,2.8-14.5,4.2-22.2,4.2c-7.1,0-15.4-3-24.8-9.1c-11.5-7.5-17.2-16.2-17.2-26c0-0.8,0.1-1.9,0.4-3.3c0-0.2,0.1-0.3,0.1-0.4
	c-0.2-1-0.3-2-0.3-3.1c-1.4,0.8-2.9,2.2-4.4,4.2c-2.8,3.4-4.2,5.2-4.4,5.2c-0.3,0-0.5-0.1-0.8-0.4c-0.3-0.3-0.5-0.8-0.5-1.4
	c0-2.3,1.2-5,3.5-8.2C154.8,738.6,156.9,736.4,159.3,734.7L159.3,734.7z"/>
<path fill="#D9D8D9" d="M145.6,736.1c-0.3,0.3-0.6,0.7-0.9,1c-2.5,2.9-3.9,5.3-4.3,7.3c-0.5,1.9-0.3,3,0.5,3.4
	c0.7,0.3,1.7-0.2,3-1.5c1.2-2.6,2.7-5.2,4.3-7.8c1-1.5,2-2.8,2.9-3.8c-0.4,0.2-0.8,0.3-1.1,0.4c-0.8,0.2-1.6,0.4-2.6,0.6
	C146.8,735.9,146.2,736,145.6,736.1L145.6,736.1z"/>
<path fill="#D9D8D9" d="M153,741.2c-2.3,3.2-3.5,5.9-3.5,8.2c0,0.6,0.2,1.1,0.5,1.4c0.3,0.3,0.5,0.4,0.8,0.4c0.2,0,1.6-1.7,4.4-5.2
	c1.6-1.9,3-3.3,4.4-4.2c-0.2-2.1-0.3-4.4-0.4-7.1C156.9,736.4,154.8,738.6,153,741.2L153,741.2z"/>
<path fill="#55514F" d="M160.4,747.4c-0.2-0.8-0.3-1.6-0.4-2.5c-0.1,0.1-0.1,0.2-0.1,0.4c-0.3,1.4-0.4,2.5-0.4,3.3
	c0,9.8,5.7,18.6,17.2,26c9.4,6.1,17.7,9.1,24.8,9.1c7.7,0,15.1-1.4,22.2-4.2c3.2-1.2,6-2.6,8.6-4.2c-0.1-0.3-0.1-0.6-0.1-0.9
	c-0.2-2.2-0.4-5.3-0.8-9.1c-0.4,0.3-0.8,0.7-1.2,1.1c-1.2,1.2-2.8,2.4-4.6,3.7c-6.4,4.5-13.5,6.6-21.4,6.2c-0.8-0.1-1.8-0.2-2.8-0.4
	c-3.5-0.7-8-2.3-13.3-4.8c-4.4-2.1-9.4-4.8-14.9-8.2c-3-1.9-6.3-3.9-9.7-6.2L160.4,747.4L160.4,747.4z"/>
<path fill="#24211E" d="M111.1,748.3c-4.3,4.6-5,9.3-2,14.3c3,4.9,15.8,11.6,38.2,20.1c0.3,0.2,0.6,0.3,0.9,0.5
	c7.4,2.5,13.7,4.4,18.9,5.8c10.7,2.5,22.3,5.3,34.7,8.6c8.3-0.6,14.9-2.2,19.6-4.8c4.7-2.6,8-5,10-7.1c0.3-1.4,0.6-3.9,1-7.7
	c-3.3,4-8,7-14.4,8.9c-5.2,1.5-9.5,2.2-12.9,2.2c-3.7,1.1-11.7-0.4-24-4.4c-15.2-5-22.8-7.5-22.9-7.5c-11.8-3.2-22.8-7.2-33.2-11.9
	C114.5,760.6,109.9,755,111.1,748.3L111.1,748.3z"/>
<path fill="#5C5857" d="M313.7,719.9c-1.4,0.8-2.1,1.5-2.3,1.8c-1.6,4.5-4.3,7.6-8.1,9.5c-1,0.5-2,0.8-3,1.1c-2.8,0.7-5.8,1-9.4,0.7
	c-11.4-1-17.9-2.8-19.7-5.5c-1-1.5-2.9-3.8-5.8-7c-0.8-0.8-1.6-1.7-2.6-2.6c4,7.8,8.4,13.5,13.2,17.1c5.4,3.9,12.3,5.9,20.6,5.9
	c2.9,0,6.8-1.2,11.6-3.7c2.4-1.3,4.7-2.7,6.6-4.2C314.6,729.6,314.2,725.2,313.7,719.9L313.7,719.9z"/>
<path fill="#6E6A69" d="M314.9,733c-2,1.5-4.2,2.9-6.6,4.2c-4.8,2.4-8.7,3.7-11.6,3.7c-8.3,0-15.2-2-20.6-5.9
	c-4.8-3.6-9.2-9.3-13.2-17.1c-1.2-1.4-2.5-2.8-3.9-4.3c-0.8-0.8-1.6-1.6-2.3-2.4c-0.3-0.3-0.5-0.5-0.8-0.8c-0.7-0.6-1.4-1.3-2-2
	c-2,0.6-4.3,1.3-7,2.1c-3.9,1.1-6,3.5-6.4,7.3c0.5,3.8,3.4,7,8.7,9.6c5.2,2.5,9.8,4.6,13.6,6.4c3.9,1.7,8.7,4.3,14.5,8
	c5.8,3.5,11.3,5.6,16.3,6.1c5,0.5,9.5,0.1,13.2-1.2c3.7-1.2,6.6-3,8.7-5.5c-0.1-0.4-0.2-1.4-0.2-2.9
	C315.2,736.9,315.1,735.2,314.9,733L314.9,733z"/>
<path fill="#24211E" d="M315.5,747.4c0.7-2,0.7-4,0-6.2c-2.1,2.4-4.9,4.2-8.7,5.5c-3.8,1.3-8.2,1.7-13.2,1.2
	c-5-0.5-10.5-2.5-16.3-6.1c-5.8-3.7-10.6-6.3-14.5-8c-3.8-1.8-8.4-3.8-13.6-6.4c-5.3-2.6-8.2-5.8-8.7-9.6c-0.4,0.2-0.7,1.4-0.9,3.6
	c-0.2,2.3,1,4.7,3.7,7.5c2.6,2.7,7.2,5,13.7,6.7c6.5,1.7,13.7,6.9,21.8,15.6c7.9,3.4,15.6,4.5,23.1,3.1
	C309.3,752.9,313.9,750.6,315.5,747.4L315.5,747.4z"/>
	</g>
</svg>
