<?xml version="1.0" encoding="utf-8"?>
<!-- Generator: Adobe Illustrator 18.0.0, SVG Export Plug-In . SVG Version: 6.00 Build 0)  -->
<!DOCTYPE svg PUBLIC "-//W3C//DTD SVG 1.1//EN" "http://www.w3.org/Graphics/SVG/1.1/DTD/svg11.dtd">
<svg version="1.1" id="Calque_1" xmlns="http://www.w3.org/2000/svg" xmlns:xlink="http://www.w3.org/1999/xlink" x="0px" y="0px"
	 viewBox="0 0 425.2 841.9" enable-background="new 0 0 425.2 841.9" xml:space="preserve">
<g>
	<path fill="#3F71A8" d="M243,141.2c-10.9,3-18.6,14.7-22.9,35.1c-4.5,20.9-4.3,37.6,0.5,50c5,12.4,8.7,28.5,11.2,48.3
		c0.9,6.8,3.6,14.8,8,24.1c4.4,9.3,6.9,17.8,7.8,25.5c0.8,7.6,3.9,13.8,9.4,18.4c3.5,9.3,5.3,16.1,5.4,20.3c1.8,1.5,3.8,2.7,5.9,3.7
		c2.3,1.1,4.7,1.8,7.1,2.4c2.2,0.4,4.7,0.8,7.5,1c1.1,0.1,2.1,0.1,3.2,0.1l12-0.4c0.9-2.8,1.3-7,1.1-12.6
		c-7.9,0.8-11.6,0.4-11.2-0.9c-2.1-5.9-3.3-12.3-3.7-19.3c0-0.8,0.3-4.8,1-11.8c0.7-7,1.1-10.9,1.1-11.9c0-2.3-1.1-5.6-3.3-9.9
		c-2.3-4.4-1.6-15.3,2-33.1c3.5-17.9-1.3-38.9-14.4-63.3c-13.1-24.4-21-38.6-23.6-42.8c-2.7-4.2-4-10.6-4-19.2
		C243,143.4,243,142.2,243,141.2L243,141.2z"/>
	<path fill="#749ECC" d="M243,144.9c0,8.6,1.3,15,4,19.2c2.6,4.2,10.5,18.4,23.6,42.8c13.1,24.4,17.9,45.4,14.4,63.3
		c-3.6,17.7-4.3,28.7-2,33.1c2.2,4.3,3.3,7.6,3.3,9.9c0,0.9-0.4,4.9-1.1,11.9c-0.7,7-1,11-1,11.8c0.4,7,1.6,13.4,3.7,19.3
		c-0.4,1.3,3.3,1.6,11.2,0.9c0.2,5.6-0.2,9.8-1.1,12.6c0.3-0.1,0.7-0.1,1-0.1c0.4,0,1-0.3,1.5-1c0.4-0.4,0.8-0.9,1.1-1.6
		c1.1-2.7,2.1-6.3,2.9-10.5c8.9-10.9,10.5-27.3,4.7-49.2c0.9-10.4,0.6-22.2-1.1-35.4c-0.3-6-0.9-14.6-1.8-26.1
		c-0.9-11.5-5-24.6-12.3-39.3c0-7.6-2.7-18.4-8-32.1c-5.4-13.8-11.2-23.5-17.5-29.3c-6.4-5.7-12.2-7.8-17.5-6.3
		c-5.3,1.5-8,2.3-8.1,2.5C243,142.2,243,143.4,243,144.9L243,144.9z"/>
	<path fill="#EAC56A" d="M300.6,368.5c-0.6,0.7-1.1,1-1.5,1c-0.3,0-0.7,0.1-1,0.1l-12,0.4c-1.1,0-2.1,0-3.2-0.1
		c0.1,16,0.1,24.4,0.1,25.2c0,4.9,2.1,10.9,6.2,18.1c0.8,1.3,1.5,2.5,2.1,3.5c2.8,4.4,5.4,6.6,8,6.8c2.5,0.2,4.2-2,5.2-6.5
		c0.9-4.5,1.6-7.8,2-10.1c0.3-2.3,0.1-5-0.5-8.3c-0.5-2.5-1.3-5.9-2.2-10.4c1.7,1.1,3.3,2.6,5,4.5c-0.3-1.1-0.7-2.3-1-3.5
		C304.8,379.4,302.5,372.6,300.6,368.5L300.6,368.5z"/>
	<path fill="#CE9B0C" d="M312.2,407.6c0-1.4-1.2-6.4-3.5-14.8c-1.6-2-3.3-3.5-5-4.5c0.9,4.5,1.7,8,2.2,10.4c0.6,3.2,0.8,6,0.5,8.3
		c-0.3,2.3-1,5.6-2,10.1c-0.9,4.5-2.7,6.7-5.2,6.5c-2.5-0.2-5.2-2.5-8-6.8c-0.7-1-1.4-2.1-2.1-3.5c-4.1-7.1-6.2-13.2-6.2-18.1
		c0-0.8-0.1-9.1-0.1-25.2c-2.8-0.2-5.3-0.5-7.5-1c-2.5-0.6-4.9-1.3-7.1-2.4c-1.1,5.5-1.6,11.2-1.6,16.9c0,7.6,1.6,15,4.7,22.2
		c3.1,6.9,6.5,11,10.1,12.2c-0.8,4.5-1.1,8.1-1.1,11c0,5.4,1.9,8.1,5.7,8.1c2.6,0,4.8-1.8,6.5-5.4c0.8,1.1,1.9,1.6,3.4,1.6
		c2.8,0,6.2-2.7,10-8.2C310.1,419.2,312.2,413.3,312.2,407.6L312.2,407.6z"/>
	<path fill="#82A7D1" d="M267.4,154.4c-2.7-6.1-6.5-11.6-11.6-16.5l-31.5-4.5l-5.2-1.8c5.6,7.4,8.6,13.8,8.9,19.2
		c0.6,8.4,0.4,14-0.3,16.9c-0.6,2.8-1.5,5.1-2.9,7.1c-0.3,0.3-0.6,0.7-0.8,1.1c-0.6,0-1.1-0.2-1.6-0.6c0.2,2.8,0.5,5.9,1,9.2
		c0.6,3.2,0,5.4-1.6,6.6c0,0.3,0.1,0.6,0.3,0.8c1.2,3,2.3,5.7,3.1,8.1c1.4-4.4,3.1-8.5,5-12.4c1.7-3.8,2.8-5.8,3.4-5.8
		c0.2,0,0.2-4.4,0-13.1c0.5-8.8,4.5-13.8,12.1-15C252.7,152.6,259.9,152.8,267.4,154.4L267.4,154.4z"/>
	<path fill="#C9D9EC" d="M224.8,174.7c1.4-2,2.3-4.3,2.9-7.1c0.7-2.8,0.8-8.5,0.3-16.9c-0.3-5.4-3.3-11.8-8.9-19.2
		c-1.5,0.2-2.5,0.3-3.2,0.3l-1.6,2.9c2.8,9.7,3.7,15.4,2.8,17.4c-1.2,2.3-2.6,4.5-4.2,6.8c-1.8,2.5-3.5,3.9-5.2,4.2l-2.6-0.8
		l-31-7.3c-2.1-1.2-4-2.3-5.8-3.1c-2.6-1.6-5-3.1-7.4-4.5c-1.6,2.1-2.8,4-3.9,5.8c-2.1,4-3.2,9-3.2,15c0,0.3,0,0.7,0,1.1
		c0.3,0.2,0.7,0.4,1.1,0.8c7,4.2,13.8,7.7,20.5,10.5c6.7,2.8,11.4,4.7,13.9,5.7c2.6,1.2,4.4,1.6,5.2,1.3l1.6-3.2l1.1-2.3
		c0.5-0.9,0.9-1.8,1.3-2.6c1.1-2.3,2.3-4.5,3.9-6.6c0.7-1.1,1.5-2.1,2.4-3.2c0.9-1.4,2-2.7,3.4-4c0.9,0.4,2,0.9,3.2,1.6
		c1.4,0.7,3,1.7,5,2.9c0.3,0.4,0.8,0.8,1.3,1.1c0.3,0.2,0.6,0.4,0.8,0.8c0.2,0,1.1,0.7,2.7,2.2c0.3,0.5,0.8,0.8,1.3,1
		c0.5,0.4,1,0.6,1.6,0.6C224.3,175.4,224.5,175,224.8,174.7L224.8,174.7z"/>
	<path fill="#9C3216" d="M223.5,184.4c-0.5-3.3-0.8-6.4-1-9.2c-0.6-0.2-1-0.5-1.3-1c-1.6-1.5-2.5-2.2-2.7-2.2
		c-0.2-0.3-0.4-0.6-0.8-0.8c-0.6-0.3-1-0.7-1.3-1.1c-2-1.2-3.6-2.2-5-2.9c-1.2-0.7-2.3-1.2-3.2-1.6c-1.4,1.3-2.5,2.6-3.4,4
		c-0.9,1.1-1.7,2.1-2.4,3.2c-1.6,2.1-2.8,4.3-3.9,6.6c-0.4,0.9-0.8,1.8-1.3,2.6l-1.1,2.3c1.5,1.6,2,3.3,1.8,5.2c0,1.8,0.4,3,1.3,3.7
		c0.7,0.8,1.8,1.3,3.2,1.3c0.2,4.6,1.6,13.4,4.2,26.3c2.5,13.4,3.7,20.8,3.9,22c0.2,9.5,0.4,17,0.6,22.7c0.3,10.2,0.5,18.1,0.5,23.9
		c0,21.9-0.4,36.4-1.1,43.4c-0.7,7-1,18.2-1,33.7c0,2.8,1.1,6.3,3.4,10.5c1.1,1.7,2.3,3.7,3.9,6c1.1,1.6,2.3,3.2,3.7,4.7
		c1.9,2.7,3.7,4.9,5.2,6.6c2.5,2.7,4.5,4.7,6.3,6.1c2,1.1,3.5,1.6,4.7,1.6c2.3,0,4.5-1.1,6.8-3.2c3-3.2,6.1-8.3,9.2-15.5
		c4.7-10.5,7.1-17.7,7.1-21.6l-0.3-0.5h0.3l-1.1-5l-1.3,0.2c0.3-0.2,0.7-0.3,1-0.5c0.2-4-1.3-16.2-4.5-36.6
		c-2.5-16.5-5.7-34.3-10-53.6c-0.5-2-1.3-4.9-2.3-9c0-0.3,0-0.6,0-0.8c-5.1-20.9-9.3-36.1-12.6-45.8c-0.9-2.6-2.2-6.1-4-10.5
		c-0.8-2.5-1.9-5.2-3.1-8.1c-0.2-0.2-0.3-0.5-0.3-0.8C223.5,189.8,224.1,187.6,223.5,184.4L223.5,184.4z M224.1,299.2
		c-0.7,7-1.1,12.6-1.1,16.9c0,12.1,0.1,20.1,0.2,23.9c0.2,9.5,0.7,16.5,1.6,21.3c1.1,6.1,2.9,12.2,5.6,18.4
		c3.8,9.7,5.9,14.9,6.3,15.8c-4.6-0.9-8.9-4.7-13.1-11.3c-3.8-6.1-5.7-11.4-5.7-15.8c0-2.8,0.3-8.4,1-16.8
		c0.4-8.6,0.6-16.7,0.6-24.4c0-10.4-0.6-24.2-1.8-41.5c-1.3-17.4-1.9-26.3-1.9-26.8c0-11.2-1.3-24-3.9-38.4
		c-1.4-7.1-2.7-13.8-3.9-19.9v-0.3c3.5,3.7,7.1,14.3,11,31.8c4,18.9,6.1,35.5,6.1,49.9C224.8,286.5,224.6,292.2,224.1,299.2
		L224.1,299.2z"/>
	<path fill="#EC6226" d="M223,316.1c0-4.2,0.4-9.8,1.1-16.9c0.5-7,0.8-12.8,0.8-17.3c0-14.4-2-31.1-6.1-49.9
		c-3.9-17.5-7.5-28.2-11-31.8v0.3c1.2,6.1,2.5,12.8,3.9,19.9c2.6,14.4,3.9,27.2,3.9,38.4c0,0.6,0.6,9.5,1.9,26.8
		c1.2,17.4,1.8,31.2,1.8,41.5c0,7.7-0.2,15.9-0.6,24.4c-0.7,8.4-1,14-1,16.8c0,4.4,1.9,9.7,5.7,15.8c4.2,6.6,8.6,10.4,13.1,11.3
		c-0.3-0.9-2.4-6.1-6.3-15.8c-2.7-6.1-4.5-12.2-5.6-18.4c-0.9-4.7-1.4-11.8-1.6-21.3C223.1,336.1,223,328.1,223,316.1L223,316.1z"/>
	<path fill="#B1C7E3" d="M233.8,168.6c0.2,8.8,0.2,13.1,0,13.1c-0.6,0-1.7,2-3.4,5.8c-2,3.9-3.6,8-5,12.4c1.8,4.4,3.1,7.9,4,10.5
		c3.3,9.7,7.5,24.9,12.6,45.8c3.3-1.5,7.8-2.3,13.4-2.7l15.8-6.8c7.2-3.5,10.3-12.9,9.2-28.2c-1.3-15.4-2.8-26.4-4.5-33.1
		c-1.5-4.9-2.9-10.5-4.5-16.9c-0.2-1.6-0.8-4.3-1.8-8.1c-1.1-3.9-1.8-5.9-2.1-6.1c-7.5-1.6-14.7-1.8-21.6-0.8
		C238.3,154.9,234.3,159.8,233.8,168.6L233.8,168.6z"/>
	<path fill="#82A7D1" d="M271.4,247.2V247l-0.3-0.3l-15.8,6.8c-5.6,0.3-10,1.2-13.4,2.7c0,0.2,0,0.4,0,0.8c1.1,4,1.8,7,2.3,9
		c6.5-2.1,11.9-3.2,16.3-3.4c4.2-0.2,7.6-0.2,10,0c2.3,0.2,3.6,0.6,3.9,1.3c0.5,0.6,1.6,1.9,3.4,4c-0.5-1.4-0.9-2.9-1.3-4.5
		C275.5,257.8,273.8,252.4,271.4,247.2L271.4,247.2z"/>
	<path fill="#B1C7E3" d="M282.4,296.6c-0.9-8.6-1.8-15.7-2.9-21.3c-0.3-2.5-0.9-5-1.6-7.6c-1.8-2.1-2.9-3.4-3.4-4
		c-0.3-0.7-1.6-1.1-3.9-1.3c-2.5-0.2-5.8-0.2-10,0c-4.4,0.2-9.8,1.3-16.3,3.4c4.2,19.3,7.5,37.1,10,53.6c3.2,20.3,4.7,32.5,4.5,36.6
		c8.6-4.2,14.8-9.2,18.7-15c0.3-0.7,0.8-1.3,1.3-1.8c0.2-0.7,0.4-1.3,0.8-1.8c1.8-3.9,2.8-8.1,3.2-12.6
		C283.7,317.9,283.6,308.6,282.4,296.6L282.4,296.6z"/>
	<path fill="#13110C" d="M258.7,356l0.3,0.3l1.1,5c6.3-3.5,12.1-7.3,17.4-11.6c0.3-4.2,0.3-7.1,0-8.7
		C273.6,346.8,267.3,351.8,258.7,356L258.7,356z"/>
	<path fill="#64411D" d="M260.1,361.3v0.5c0,3.9-2.3,11-7.1,21.6c-3.2,7.1-6.3,12.3-9.2,15.5c-2.3,2.1-4.5,3.2-6.8,3.2
		c-1.2,0-2.8-0.5-4.7-1.6c-0.6,0.9-1.3,2-2.4,3.2c-2,2.8-4.2,4.2-6.8,4.2c-2.6,0-5.3-4.2-8.1-12.6c-1.6-4.7-3.3-8.1-5.2-10.2
		c-6.1,1.2-11.7,1.8-16.9,1.8c-7.7,0-14.9-0.7-21.5-2.1c-4.4-0.8-8-1.9-10.8-3.2c-0.9,4.2-1.8,9.5-2.9,15.8c2,5.8,5.1,14.5,9.5,26
		c6.6,17.7,10,29.7,10,35.8v4.2c-0.3,1.1-1.7,1.6-4.2,1.6c-1.4,0-3.4-0.7-6.1-2.1c-2.8-1.2-4.7-1.8-5.5-1.8c-0.7,0-1.5,0.1-2.4,0.3
		c-0.9,0.3-1.4,0.5-1.6,0.5c0.9,4.4,0.9,9.7,0,15.8c-1.4,9.3-5.2,14-11.6,14c-0.3,0-0.9,0-1.6,0c-1.1,7.4-1.6,11.7-1.6,12.9
		c0,0.9,0.4,3.1,1.1,6.6c0.7,3.7,0.1,13.2-1.8,28.7c-2,15.4-3.7,25.8-5.3,31.2c-1.4,5.4,10.8,14.9,36.6,28.4
		c3.8,0.5,6.4,0.8,7.6,0.8c3,0,8.2-1.8,15.8-5.2c5.4-5.6,8.9-10.9,10.5-15.8c0.6-8,1.8-14.1,3.7-18.1c0.9-2.3,1.8-4.7,2.7-7.4
		c2.5-3.9,4.5-15.2,6.3-34.2c1.2-13.8,2.5-30.4,3.9-49.7c-1.2,3.3-14-0.9-38.4-12.9c24.7,3.3,37.4,4,37.9,2.1
		c6.5,4.1,12.2,0.3,17.4-11.3c4.5-4.2,6.8-17.4,6.6-39.6c0.5,1.4,1.6,6.6,3.4,15.5c1.8,9,0.4,17.4-4.2,25.2
		c6.3-5.6,12.9-10.4,19.8-14.2c8.4-4.7,13.9-7.6,16.5-8.6c-1.1,2.3-7.2,8.8-18.4,19.4c-10.3,9.8-17.4,16.1-21.3,18.9
		c-2.8,2.3-4.2,5.6-4.2,10c0.7,5.2,1.1,9.1,1.3,11.6c-0.7,1.4-1.8,6.9-3.4,16.5c-1.6,9.1-2.3,14.6-2.3,16.4c0,0.2,0.4,4.4,1.1,12.6
		c0.7,8.3,1,14.7,1,19.5c0,4.6,1.6,10.3,4.7,17.3l16.3,1.3c-13.4,6.3-20.8,9.7-22,10c-1.5,0.2-2.1,6.5-2.1,18.9
		c0,19.6,0.4,31.5,1.3,35.7c1.8,10.5,3.6,20.7,5.5,30.5c7-0.7,15.3-1.3,25-1.8c9.7-0.7,14.7-2.9,15.2-6.3c0.6-3.7,1.5-3,2.9,2.1
		c1.5,4.7-12.6,10.2-42,16.4v0.3c0,0.7,0.8,3.8,2.4,9.5c0.5,1.9,1,3.5,1.6,4.7c6.1-0.3,12.8-1.2,19.9-2.6l30.2-11.5
		c1.4-1.2,2.1-2.8,2.3-4.7c-5.7-7.9-7.7-15.3-5.7-22.1c1.4-32.1-0.7-63.7-6.3-94.9c2.3-6.6,4.3-19.4,6-38.4
		c2.6-51.5,2.6-84.3,0-98.5c-2.5-14.2-5-26.9-7.6-38.4c-2.5-11.4-4.6-20.7-6.3-28.1C272.2,353.9,266.4,357.8,260.1,361.3
		L260.1,361.3z M168.8,574.4c0.2,0.7,0.3,1.5,0.3,2.4c0,0.2,0,0.3,0,0.5c-0.2-1.2-0.5-2.5-0.8-3.7
		C168.5,573.8,168.7,574.1,168.8,574.4L168.8,574.4z"/>
	<path fill="#422C19" d="M169.2,576.8c0-0.9-0.1-1.7-0.3-2.4c-0.2-0.3-0.3-0.6-0.5-0.8c0.3,1.2,0.6,2.5,0.8,3.7
		C169.2,577.1,169.2,577,169.2,576.8L169.2,576.8z"/>
	<path fill="#422C19" d="M223.5,694.2c-0.3,0-0.6-0.2-0.7-0.4c-8.7-17.4-10.7-28.5-6.1-33.7l-2.9-52.5c-1.6-15.3-1.1-27.8,1.5-37.2
		c-1.2-2.2-2.9-5.1-5.4-9.1c-0.1-0.2-0.2-0.5-0.1-0.7c0.9-2.2,1.7-4.7,2.6-7.4c0-0.1,0-0.1,0.1-0.2c2.4-3.7,4.4-15.1,6.2-33.8
		c1.3-14.4,2.5-30.5,3.8-47.9c-0.4,0.1-0.9,0.2-1.5,0.2c-5.1,0-17-4.6-36.3-14.1c-0.4-0.2-0.5-0.6-0.4-1c0.1-0.3,0.4-0.6,0.8-0.6
		c0,0,0.1,0,0.1,0c15.5,2.1,26.4,3.2,32.3,3.2c4.1,0,4.7-0.5,4.8-0.6c0.1-0.2,0.2-0.4,0.5-0.5c0.1,0,0.1,0,0.2,0
		c0.2,0,0.3,0.1,0.5,0.2c1.5,1,3,1.4,4.5,1.4c4.2,0,8.1-4.2,11.7-12.4c0-0.1,0.1-0.2,0.2-0.3c4.4-4,6.5-17.1,6.3-39
		c0-0.4,0.3-0.7,0.7-0.8c0,0,0.1,0,0.1,0c0.3,0,0.6,0.2,0.7,0.5c0.5,1.4,1.6,6.5,3.4,15.6c1.5,7.7,0.7,15.1-2.4,22.1
		c5.4-4.5,11-8.4,16.8-11.6c8.1-4.5,13.8-7.5,16.6-8.7c0.1,0,0.2-0.1,0.3-0.1c0.2,0,0.4,0.1,0.6,0.3c0.2,0.3,0.3,0.6,0.1,0.9
		c-1.1,2.4-7.4,9-18.6,19.7c-10,9.5-17.3,16-21.3,19c-2.5,2.1-3.8,5.2-3.8,9.3c0.7,5.4,1.1,9.2,1.3,11.5c0,0.1,0,0.3-0.1,0.4
		c-0.5,0.9-1.4,4.5-3.3,16.3c-2,11.7-2.3,15.2-2.3,16.2c0,0.1,0.1,1.2,0.3,3.1c0.2,2.1,0.5,5.2,0.8,9.4c0.7,8,1,14.6,1,19.5
		c0,4.4,1.5,9.8,4.5,16.6l15.8,1.3c0.4,0,0.7,0.3,0.7,0.7c0.1,0.4-0.1,0.7-0.4,0.9c-20.3,9.5-21.7,9.9-22.2,10
		c-0.4,0.3-1.5,2.4-1.5,18.2c0,19.4,0.4,31.4,1.3,35.6c1.7,10.2,3.5,20.2,5.4,29.8c7.3-0.7,15.5-1.3,24.3-1.8c9-0.7,14-2.6,14.5-5.6
		c0.2-1.5,0.6-3,1.7-3c0.9,0,1.6,0.8,2.8,5c0.3,0.9,0.1,1.8-0.4,2.7c-2.7,4.5-16.3,9.2-41.6,14.5c0.3,1.6,1.8,7,2.3,8.9
		c0.6,2.1,1,3.5,1.5,4.5c0.1,0.2,0.1,0.5,0,0.7c-0.1,0.2-0.4,0.4-0.6,0.4c-7.7,0.7-14.8,2.2-21.1,4.4
		C223.7,694.2,223.6,694.2,223.5,694.2L223.5,694.2z"/>
	<path fill="#50351B" d="M232.2,400.4c-1.8-1.4-3.8-3.4-6.3-6.1c-1.6-1.7-3.3-3.9-5.2-6.6c-1.4-1.6-2.6-3.2-3.7-4.7
		c-2.6,0.7-5,1.3-7.3,1.9c1.9,2.1,3.7,5.5,5.2,10.2c2.8,8.4,5.6,12.6,8.1,12.6c2.6,0,4.9-1.4,6.8-4.2
		C230.9,402.4,231.7,401.3,232.2,400.4L232.2,400.4z"/>
	<path fill="#D5A005" d="M152.6,101.1c-0.5,0.9-1.2,1.5-2.1,1.8v36.6c1.6,2,5.1,4.5,10.5,7.9c2.3,1.4,4.8,2.9,7.4,4.5
		c-0.2-4.2-0.5-7-1.1-8.4v-9c7,4,11.2,6.4,12.6,7.1c5.4,2.7,10,4,13.7,4c5.6,0,9.5-0.6,11.6-1.8c1.1-0.7,2.1-3.8,3.2-9.2
		c-3.9-0.3-8.5,0-13.7,1.1c-5.4,0.9-9.8,0.4-13.1-1.6c-3.3-2-5.2-3.1-5.7-3.4c-6.9-4.2-12.2-9.7-16-16.6
		C155.7,106.9,153.3,102.6,152.6,101.1L152.6,101.1z"/>
	<path fill="#82A7D1" d="M91.1,217.2c0.3,13.2,4.2,22.5,11.6,28.2c5.2,4,9.7,8.3,13.4,12.6c-1.5-7.2-3.3-16.7-5.8-28.7
		c-1.4-16.9,11.2-36.4,37.8-58.6c7,6.6,12.1,11,15.3,13.1c3.3,2,8.3,4.5,15,7.9c6.5,3.2,11,4.7,13.4,4.7c2.3-2.5,3.6-4.7,3.9-6.6
		c0.3,2.6,1.6,5.7,3.7,9.2c0.7,5.6,2,14.7,4,27.3c2,12.6,3.2,22.3,3.9,28.9c0.7,6.5,0.4,12-1,16.5c-1.3,4.7-7.6,9.5-19.2,14.2
		c-2.7,1.1-5.1,1.8-7.1,2.4c15.1,0.7,24.2-1.3,27.6-6.1c-0.8,12.8-2,26.6-3.4,41.5c-1.6,14.7-3,23.6-4.5,26.8c-1.6,3-1,8.5,1.6,16.6
		l-1,1c-1.2,0-3.6-1.4-7.1-4.2c-3.5-2.7-6-4-7.6-4c-2.1,0-4,1.3-5.8,4c-2.8,3.9-4.4,5.9-4.7,6.3c-1.6-1.6-3.9-5.2-7.1-10.8
		c-4-7.2-6.1-12.9-6.1-17.1c0-0.8,0.4-2.5,1.1-5c0.7-2.3,1-3.9,1-4.7c0-2.3-2.8-10.9-8.4-25.7c-5.4-14.9-15.2-27.3-29.4-37.1
		c1.1,1.5,1.8,3,2.3,4.7c0.7,3,1.7,9,2.9,18.1c0.6,1.1,1.3,2.2,2.1,3.5c-0.7-0.7-1.4-1.5-2.1-2.1c0.3,3.2,0.7,6.6,1.1,10.3
		c2.1,19.6,2.3,30.5,0.8,32.6c-2.3,9.8-1.6,17,1.8,21.5c3.5,4.4,5.6,6.8,6.1,7.4c3.7,4.4,6.4,7.3,8.4,8.9c1.8,1.6,4.2,3,7.1,4.2
		c1.4,0.3,2.8,0.8,4.2,1.3c5.2,1.4,11.4,2.1,18.4,2.1c7.9,0,16.8-1.2,26.8-3.7c2.3-0.6,4.7-1.1,7.1-1.8c-2.3-4.2-3.4-7.7-3.4-10.5
		c0-15.4,0.3-26.6,1-33.7c0.7-7,1.1-21.5,1.1-43.4c0-5.7-0.2-13.7-0.5-23.9c-0.2-5.6-0.4-13.2-0.6-22.7c-0.2-1.2-1.5-8.6-3.9-22
		c-2.7-12.9-4-21.7-4.2-26.3c-1.4,0-2.5-0.4-3.2-1.3c-0.9-0.7-1.3-2-1.3-3.7c0.2-1.9-0.4-3.7-1.8-5.2l-1.6,3.2
		c-0.8,0.3-2.6-0.1-5.2-1.3c-2.6-1.1-7.3-3-13.9-5.7c-6.6-2.8-13.4-6.3-20.5-10.5c-0.4-0.3-0.8-0.6-1.1-0.8c-6.1-4-9.3-6.7-9.5-7.9
		c-0.5,0-0.6-1.1-0.3-3.4c-4,4.2-7,6.8-9,7.8c-9.1,4.9-18.7,11.4-28.8,19.5C96,193.4,90.9,204.1,91.1,217.2L91.1,217.2z"/>
	<path fill="#E5BC50" d="M208.3,134.5c-1.1,5.4-2.1,8.5-3.2,9.2c-2.1,1.2-5.9,1.8-11.6,1.8c-3.7,0-8.3-1.3-13.7-4
		c-1.4-0.7-5.6-3-12.6-7.1v9c0.6,1.4,0.9,4.2,1.1,8.4c1.8,0.9,3.7,2,5.8,3.1l31,7.3l2.6,0.8c1.7-0.3,3.5-1.8,5.2-4.2
		c1.6-2.3,3-4.5,4.2-6.8c0.9-2-0.1-7.7-2.8-17.4l-6.3-1.6C208.4,134.2,208.5,134.7,208.3,134.5L208.3,134.5z"/>
	<path fill="#B7D1E5" d="M161,147.3c-5.4-3.3-8.9-5.9-10.5-7.9c-1.1,0.2-1.6,0.8-1.8,1.8c-2.1,3.5-3.6,9.1-4.5,16.6
		c-0.3,2.3-0.3,3.4,0.3,3.4c0.2,1.2,3.3,3.9,9.5,7.9c0-0.4,0-0.8,0-1.1c0-6,1.1-11,3.2-15C158.1,151.4,159.4,149.4,161,147.3
		L161,147.3z"/>
	<path fill="#B1C7E3" d="M163.4,183.9c-3.2-2.1-8.3-6.5-15.3-13.1c-26.6,22.2-39.2,41.7-37.8,58.6c2.5,11.9,4.4,21.5,5.8,28.7
		c1.4,1.7,2.7,3.5,3.9,5.2c1.1,1.4,2.8,3.4,5.2,6.1c0.2,0.2,0.4,0.4,0.8,0.8c14.2,9.8,24,22.2,29.4,37.1c5.6,14.9,8.4,23.5,8.4,25.7
		c0,0.9-0.3,2.5-1,4.7c-0.7,2.5-1.1,4.2-1.1,5c0,4.2,2,9.9,6.1,17.1c3.2,5.6,5.5,9.2,7.1,10.8c0.3-0.4,1.9-2.5,4.7-6.3
		c1.8-2.7,3.7-4,5.8-4c1.6,0,4.1,1.3,7.6,4c3.5,2.8,5.9,4.2,7.1,4.2l1-1c-2.6-8.1-3.2-13.6-1.6-16.6c1.5-3.2,2.9-12.1,4.5-26.8
		c1.5-14.9,2.6-28.7,3.4-41.5c-3.3,4.7-12.5,6.8-27.6,6.1c2.1-0.6,4.5-1.3,7.1-2.4c11.5-4.7,17.9-9.5,19.2-14.2
		c1.4-4.5,1.7-10,1-16.5c-0.7-6.6-2-16.3-3.9-28.9c-2-12.6-3.3-21.7-4-27.3c-2.1-3.5-3.3-6.6-3.7-9.2c-0.3,2-1.6,4.2-3.9,6.6
		c-2.5,0-6.9-1.6-13.4-4.7C171.7,188.4,166.7,185.9,163.4,183.9L163.4,183.9z"/>
	<path fill="#B1C7E3" d="M133.4,296.4c-0.8-1.3-1.5-2.4-2.1-3.5c0,0.6,0,1,0,1.3C132,294.9,132.7,295.7,133.4,296.4L133.4,296.4z"/>
	<path fill="#13110C" d="M160.7,380.5c-1.4-0.6-2.8-1-4.2-1.3c1.1,0.7,2.3,1.5,3.9,2.3c2.8,1.3,6.4,2.3,10.8,3.2
		c6.6,1.4,13.8,2.1,21.5,2.1c5.1,0,10.7-0.6,16.9-1.8c2.3-0.6,4.7-1.2,7.3-1.9c-1.6-2.3-2.8-4.3-3.9-6c-2.5,0.7-4.8,1.3-7.1,1.8
		c-10,2.5-18.9,3.7-26.8,3.7C172.1,382.5,165.9,381.9,160.7,380.5L160.7,380.5z"/>
	<path fill="#422C19" d="M117.9,748.1c-0.1,0-0.3,0-0.4-0.1c-4.1-2.5-7.9-6.7-11.1-12.4c-7.1-19.1-9.8-32.1-8.2-39
		c1.4-6.7,4.2-24.7,7.9-51.9c3.9-26.8,6.3-44.3,7.1-49.9c0.7-5.3,1.7-10.8,3.2-16.4c1.4-5.3,1.8-16.3,1.1-33.7
		c-0.6-17.1-0.4-35.5,0.5-55c1.1-20,2.3-35.4,3.7-47.1c1.4-11.9,2.8-21.2,4-27.7c1.1-6.6,2.8-13.6,5-20.5c2-7.3,5.3-16.9,9.7-28.7
		c0.1-0.3,0.3-0.5,0.6-0.5c0,0,0.1,0,0.1,0c0.2,0,0.5,0.1,0.6,0.3c3.7,4.4,6.4,7.3,8.3,8.8c1.8,1.6,4.1,3,6.9,4.1
		c0,0,0.2,0.1,0.2,0.1c1.1,0.7,2.3,1.5,3.8,2.2c0.3,0.2,0.5,0.5,0.4,0.9c-0.8,3.8-1.7,8.6-2.9,15.6c1.9,5.7,5,14.1,9.4,25.8
		c6.7,18.1,10,29.9,10,36.1v4.2c0,0.1,0,0.2,0,0.2c-0.6,2.2-3.9,2.2-4.9,2.2c-1.5,0-3.6-0.7-6.4-2.2c-3.4-1.4-4.7-1.7-5.1-1.7
		c-0.8,0-1.5,0.1-2.2,0.2l-0.2,0.1c-0.2,0.1-0.4,0.2-0.6,0.2c0.8,4.3,0.7,9.4-0.1,15.3c-1.5,9.7-5.6,14.6-12.3,14.6h-0.9
		c-0.9,6.4-1.5,10.9-1.5,12.1c0,1,0.6,4.1,1.1,6.4c0.7,3.7,0.1,13.2-1.8,28.9c-2,15.4-3.7,25.9-5.3,31.4c-0.9,3.4,4.7,11,36.2,27.5
		c0.4,0.2,0.5,0.6,0.4,1c-0.1,0.3-0.4,0.5-0.8,0.5c-0.1,0-0.1,0-0.2,0c-6-1.4-10.4-2.1-13-2.1c-2,0-2.4,0.4-2.5,0.5
		c-8.6,11.2-13.4,21.2-14,29.8c-0.9,11.8-2.3,26.7-4.5,45.7c-0.9,8.8-1.3,17.5-1.3,25.7c0,2.2-1.8,5-5.5,8.4
		c6.4-0.6,11.2-0.9,14.4-1.1c0,0,0,0,0,0c3,0,5.2,0.6,6.7,1.7c0.4,0.2,1.3,1,3.9,3.6c0.1,0.1,0.2,0.4,0.2,0.6v0c0,0,0,0,0,0
		c0.4,0,0.7,0.2,0.7,0.6c0.1,0.3-0.1,0.7-0.4,0.9c-0.4,0.2-0.8,0.3-1.4,0.3c-1.4,0-3.5-0.5-6.5-1.6c-0.8-0.3-1.8-0.4-2.9-0.4
		c-3.8,0-9.2,1.7-16.1,5c7.4,5.7,10.8,9.8,10.8,13c0,0.9,0,2.8-0.3,5.9c-0.4,3.4-1,6.8-1.6,10.1c-0.1,0.4-0.4,0.7-0.8,0.7h-7.6
		C126.8,747.4,122.2,747.8,117.9,748.1C118,748.1,117.9,748.1,117.9,748.1L117.9,748.1z"/>
	<path fill="#50351B" d="M156.8,597.8c-8.8,11.4-13.5,21.5-14.2,30.2c-0.9,12-2.4,27.3-4.5,45.7c-0.9,8.9-1.3,17.5-1.3,25.8
		c0,2.3-2.3,5.4-7.1,9.5c7.7-0.7,13.3-1.1,16.8-1.3c2.8,0,4.9,0.5,6.3,1.6c0.2,0,1.5,1.1,3.7,3.4v0.3c0.2,0.4,0.4,0.6,0.8,0.6
		c-0.9,0.5-3.3,0.1-7.3-1.3c-4.2-1.4-11.1,0.4-20.8,5.2c7.7,5.8,11.6,10.2,11.6,13.1c0,1.2-0.1,3.2-0.2,5.8c-0.4,3-0.9,6.3-1.6,10
		c3.5-0.2,7.6-0.2,12.3,0c9.2,0.3,15.9-2.1,20.3-7.4c0-0.2,0.5-0.9,1.6-2.3c1.6-2.5,2.5-5.3,2.9-8.6l6.3-6.9
		c4-4.5,6.9-13.3,8.6-26.2c1.6-13.1,2.9-23.1,4-29.7c1.1-6.7,1.5-24.2,1.3-52.6l0.3-17.9c-7.6,3.5-12.8,5.2-15.8,5.2
		c-1.2,0-3.8-0.3-7.6-0.8C163.3,596.9,157.9,596.4,156.8,597.8L156.8,597.8z"/>
	<path fill="#13110C" d="M138.9,746.3c-3,0-5.6,0-7.6,0c-4.6,0.3-9,0.7-13.4,1.1c-1.1,5.1-1.6,11.7-1.6,19.9v5v1.3
		c-0.6,4.5-0.8,8.8-0.6,12.6c2,3.2,4.3,5.9,7.1,8.1c2.1,1.6,4.2,2.9,6.3,3.9c3.5,1.6,7.2,2.4,11,2.4c15.6,0,25.6-2.4,30.2-7.1
		c3.7-3.7,6.8-11.8,9.2-24.4c-0.7-3-1.4-6.2-2.1-9.7c-1.8-6.8-3.3-14.5-4.5-22.9c-1.1,1.4-1.6,2.1-1.6,2.3
		c-4.4,5.2-11.1,7.7-20.3,7.4C146.5,746.1,142.4,746.1,138.9,746.3L138.9,746.3z"/>
	<path fill="#251D13" d="M140.2,800.7c-3.8,0-7.6-0.8-11-2.4c-2.1-1.1-4.2-2.3-6.3-3.9c-2.8-2.3-5.2-5-7.1-8.1
		c0,5.2,0.6,9.7,1.9,13.1c1.9,5.6,5.4,8.8,10.5,9.7c10.4,1.6,23.9,1.3,40.5-0.8c7.5-4.6,12-13.3,13.4-26.1
		c-0.6-3.3-1.3-7.7-2.4-13.1c-2.5,12.6-5.5,20.8-9.2,24.4C165.9,798.3,155.8,800.7,140.2,800.7L140.2,800.7z"/>
	<path fill="#13110C" d="M313.7,690.3c-10.3-7.1-16.5-12.3-18.6-15.5l-30.2,11.5c-7.2,1.4-13.8,2.3-19.9,2.6
		c-7.9,0.7-15,2.2-21.3,4.5c-0.2,0.2-0.2,1.1,0,2.9c-0.2,0.3-0.2,0.8,0,1.3c4.4,1.6,9,3.2,14,5c6.8,2.3,11.2,3.4,13.1,3.4
		c1.8,0,3-0.7,3.7-2.1c1.1-1.5,1.8-2.2,2.1-2.2c1.6,0,7.5,2.3,17.9,6.9c12.6,4.4,25.1,6.6,37.6,6.6c6.3,0,12.1-0.9,17.4-2.7
		c3.8-1.2,7-2.9,9.5-5c0.2-0.2,0.3-0.3,0.5-0.5c-0.2-0.2-0.3-0.4-0.5-0.8c-1.6-2.8-4.9-5.8-9.7-9.1L313.7,690.3L313.7,690.3z"/>
	<path fill="#251D13" d="M223.5,697.7c0,1.1,0,2.3,0,3.9c0,5.2,5.6,9.2,16.9,11.6c7.9,1.7,13.2,1.8,16,0.3c1.1-2.3,1.6-4.1,1.6-5.3
		c1.1,0.4,3.2,1.9,6.3,4.5c3.2,2.5,11.6,5,25.2,7.9c13.5,2.8,23.2,3.7,28.9,2.6c5.8-0.9,10.6-2.1,14.5-3.7c3.8-1.6,6.3-3.5,7.1-5.7
		c0.7-2.5,0.4-4.6-0.8-6.6c-0.2,0.2-0.3,0.3-0.5,0.5c-2.5,2.1-5.6,3.8-9.5,5c-5.2,1.8-11,2.7-17.4,2.7c-12.4,0-24.9-2.2-37.6-6.6
		c-10.4-4.6-16.3-6.9-17.9-6.9c-0.4,0-1.1,0.7-2.1,2.2c-0.7,1.4-1.9,2.1-3.7,2.1c-2,0-6.3-1.1-13.1-3.4
		C232.5,700.9,227.9,699.2,223.5,697.7L223.5,697.7z"/>
	<path fill="#89ACD4" d="M115,191.2c-7.9,0-13.8,2.4-17.9,7.1c-5.1,5.9-8.1,14.5-9.2,25.8c-1.1,11.4-1.5,17.4-1.3,18.1
		c0,0.7-0.9,7.3-2.9,19.7c-3,7.7-6.2,21.1-9.7,40.2c-1.6,8.6-2.3,17.4-2.3,26.6l7.4,42.8c4.4,15.5,11.4,27.3,21,35.7
		c1.4,6,2.5,11.1,3.2,15.3h2.3c0.6,0,1.1,0,1.6,0c9.7,0,17.5-0.9,23.7-2.6c-0.7-2.8-2-6.1-3.7-10c-1.1-2.5-1.9-4.4-2.6-5.7
		c-3.7,1.1-11.2,1.6-22.6,1.8c5.2-1.4,9.7-2.6,13.1-3.4c3.3-0.9,5.4-2,6.3-3.2l-2.1-4.2c0-6.8-1.1-12.9-3.5-18.1
		c-1.2-3.2-3.6-7.8-7.1-14c-7.2-13.7-10.8-32.5-10.8-56.5c0-3,0.7-7.4,2.1-13.1c1.2-4.7,2.3-8.2,3.2-10.3c1.1,0.7,2.3,2.2,3.7,4.5
		c1.4,2.3,2.9,3.8,4.5,4.5c0-0.2,0.2-0.4,0.5-0.8c0.2-0.4,0.2-1.1,0.2-2.1c0-0.2-2-4.7-6.1-13.6c-4-10.9-6-21-6-30.5
		c0-4.9-0.1-10.8-0.3-17.6c0.2-4.7,0.8-8.8,1.6-12.1C102.8,210.7,107.3,202.6,115,191.2L115,191.2z"/>
	<path fill="#B1C7E3" d="M99.7,227.5c0.2,6.8,0.3,12.7,0.3,17.6c0,9.5,2,19.6,6,30.5c4,8.9,6.1,13.5,6.1,13.6c0,1.1-0.1,1.8-0.2,2.1
		c-0.3,0.3-0.5,0.6-0.5,0.8c-1.6-0.7-3.1-2.2-4.5-4.5c-1.4-2.3-2.6-3.8-3.7-4.5c-0.9,2.1-2,5.6-3.2,10.3c-1.5,5.7-2.1,10.2-2.1,13.1
		c0,24,3.6,42.8,10.8,56.5c3.5,6.1,5.9,10.8,7.1,14c2.3,5.2,3.5,11.3,3.5,18.1l2.1,4.2c-0.9,1.2-3,2.3-6.3,3.2
		c-3.5,0.8-7.9,2-13.1,3.4c11.4-0.2,18.9-0.8,22.6-1.8c0.7,1.4,1.5,3.3,2.6,5.7c1.8,3.8,3,7.2,3.7,10c1.7-0.5,3.3-1.1,4.7-1.8
		c0.7-0.3,1.4-0.7,2.1-1c1.8-1.1,3.9-2.8,6.3-5.3c1.6-1.6,3.2-3.4,5-5.5c0.9-0.9,1.8-1.8,2.6-2.9c-1.1-2.3-2.7-6.1-5-11.3
		c-4.2,2.5-9.8,5.2-17,8.4c5.2-3.7,8.5-6.3,9.7-7.9c1.2-1.7,2.3-4.4,3.4-8.1v-0.5c-0.7-3.7-1.8-9.3-3.2-17.1
		c-1.4-7.9-2.1-16.1-2.1-24.7c0-1.4,0.3-11.2,0.8-29.4c-4.7,3.8-10,6.4-16,7.6c8.8-10.7,13.4-17.9,14-21.8c0.7-4.4,1.4-7.2,2.1-8.4
		c0.6-1.4,1.3-4.6,2.4-9.5c0.9-5.1,2.1-11,3.7-17.6c1.6-6.8,0.3-20.1-3.7-39.7c-3.3-15.4-6.5-24.7-9.5-28.1
		c-0.9-0.6-1.7-1.1-2.4-1.6c-0.2,0-0.3-0.1-0.5-0.3c-2-0.9-3.9-1.4-5.8-1.6c-2.6-0.6-5-0.8-7.3-0.6c-7.7,11.4-12.3,19.4-13.7,24.2
		C100.5,218.7,99.9,222.8,99.7,227.5L99.7,227.5z"/>
	<path fill="#D9E7F3" d="M131,195.2c3,3.3,6.1,12.7,9.5,28.1c4,19.6,5.2,32.9,3.7,39.7c-1.6,6.6-2.8,12.5-3.7,17.6
		c-1.1,4.9-1.8,8-2.4,9.5c-0.7,1.2-1.4,4-2.1,8.4c-0.6,3.8-5.2,11.1-14,21.8c6-1.2,11.3-3.7,16-7.6c-0.5,18.2-0.8,28-0.8,29.4
		c0,8.6,0.7,16.8,2.1,24.7c1.4,7.8,2.5,13.4,3.2,17.1v0.5c-1.1,3.7-2.2,6.4-3.4,8.1c-1.2,1.6-4.5,4.2-9.7,7.9
		c7.2-3.2,12.9-5.9,17-8.4c5.8-5.1,6.8-12.7,2.9-22.8c-3.7-10.2-5-25.3-3.9-45.2c0.9-20,3.2-36.4,7.1-49.2
		c3.7-12.8,2.5-29.4-3.7-49.9C144.4,210,138.4,200.1,131,195.2L131,195.2z"/>
	<path fill="#D5A005" d="M105.5,422.5c-2.1,22.8-3.2,34.2-3.2,34.4c0,2,0.4,3.8,1.1,5.6c1.7,0.3,3.7,0.7,5.7,1
		c10.2,2.1,15.5,3.2,16,3.2c3.8,0,6.6-0.3,8.1-1c2-0.7,2.9-2.2,2.9-4.5c0-0.7-0.4-2-1.3-3.9c-1.1-2.1-1.6-3.8-1.6-5.3
		c0-2.3,1.3-5.5,4-9.7c2.6-4.2,3.9-6.6,3.9-7.1c0-2.3-0.6-4.7-1.8-7.1c-1.4-2.8-2.7-6.1-3.9-10c-1.5,0.7-3,1.3-4.7,1.8
		c-6.1,1.8-14,2.6-23.7,2.6C106.6,422.5,106.1,422.5,105.5,422.5L105.5,422.5z"/>
	<path fill="#EAC56A" d="M103.4,462.5c1.1,3.5,3.2,6.9,6.3,10.2c4.2,4.5,7.5,6.8,9.7,6.8c1.2,0,3.9,1,7.9,2.9
		c3.9,1.8,6.2,2.7,7.1,2.7c5.2,0,9.1-0.7,11.6-2.1c3.2-2.1,4.7-5.8,4.7-11c0-8.8-0.4-15.2-1.3-19.2v-2.9h2.4c2.5,3,4.2,4.8,5.2,5.5
		c2.1,2,4.3,2.9,6.6,2.9c3.8,0,5.8-3.2,5.8-9.5c0-6.8-2.9-15.4-8.7-25.8c-3.7-6.5-7.6-12.1-11.8-16.8c-1.8,2.1-3.4,3.9-5,5.5
		c-2.5,2.5-4.5,4.2-6.3,5.3c-0.7,0.3-1.4,0.7-2.1,1c1.2,3.8,2.5,7.2,3.9,10c1.2,2.5,1.8,4.9,1.8,7.1c0,0.5-1.3,2.9-3.9,7.1
		c-2.7,4.2-4,7.4-4,9.7c0,1.5,0.5,3.2,1.6,5.3c0.9,1.9,1.3,3.2,1.3,3.9c0,2.3-1,3.8-2.9,4.5c-1.6,0.7-4.3,1-8.1,1
		c-0.5,0-5.9-1.1-16-3.2C107.1,463.2,105.2,462.8,103.4,462.5L103.4,462.5z"/>
	<path fill="#EAC56A" d="M154.1,21.1v0.2c-1.5,4.2-2.2,8.2-2.2,11.8c0,14.1,4.2,26.1,12.8,35.8c4.2,4.4,7.2,7.5,8.8,9.3
		c2.6,3,4,5.5,4,7.9c0,0.9-0.8,5.6-2.5,14c-1.6,8.3-2.5,14.6-2.5,18.7c0,2.1,0.6,5.9,2,11.3l0.9,4.2c5.6,3.3,10.9,5.8,15.8,7.6
		c3.7,1.3,8,1.6,12.8,0.9c2.3-0.3,4.9-0.8,7.6-1.5c0.3-0.2,1.6-0.7,3.7-1.5v0.3c0.2-0.2,0.6-0.4,1.3-0.7c0.4-0.2,2-0.8,4.7-2
		l3.4-2.3c0.2-0.1,0.3-0.3,0.5-0.4c0.6-0.7,1.1-1.2,1.5-1.5c0.3-0.3,0.7-0.6,1-1c2.6-3.3,4.9-7.6,6.9-12.8c3.1-7.9,5-17.7,5.6-29.5
		V79.4c0.8-9.9,1.3-16.6,1.5-20.2c0.2-2.3-0.5-6.1-2-11.6l-3.2-10.3l-3.4-6.4c-7.4-14-23.7-21.3-48.9-22.2
		C171.7,9.5,161.6,13.6,154.1,21.1L154.1,21.1z"/>
	<path fill="#E3B234" d="M154.1,21.3v-0.2c-6.6,6.6-11.2,15.8-13.8,27.8l1.7,3.2c1.1,2,4.7,5.2,10.5,9.8c5.9,4.6,9.3,7.2,10.1,7.9
		c0.9,0.6,0.9,2.2,0,4.7c-0.8,2.5-1,5.2-0.3,8.3c0.5,3.1,0.8,6.8,0.8,11c0.2,4.1,0.3,7,0.4,8.6c0.3,1.6,0.5,2.5,0.5,2.7
		c0.2,0-0.1,0.5-0.9,1.5H157c-0.2-0.2-1.2-2.5-3.2-6.9c-0.2-0.9-0.3-1.9-0.5-2.7c-0.7-6.2-2.2-11-4.7-14.5c-2.3-3.3-4.6-5.2-6.9-5.9
		c-0.2,0-0.6,0-1.5,0c-0.3,0-0.8,0.2-1.5,0.5c-0.8,0.3-1.8,1.1-3,2.5c-0.3,0.3-0.5,0.7-0.7,1.2c-1,1.6-1.5,3.5-1.3,5.4v1.4
		c0.7,3,2.2,6.9,4.7,11.8c3.5,5.9,6.5,8.8,9.1,8.6l2.2-0.4c0.2,0,0.3-0.1,0.3-0.2c0.8-0.3,1.5-0.9,2-1.8c0.7,1.5,2.9,5.5,6.7,12.1
		c3.6,6.4,8.6,11.6,15,15.5c0.5,0.3,1.1,0.8,1.7,1.3l-0.9-4.2c-1.3-5.4-2-9.2-2-11.3c0-4.1,0.8-10.4,2.5-18.7
		c1.6-8.4,2.5-13.1,2.5-14c0-2.3-1.3-4.9-4-7.9c-1.6-1.8-4.6-4.9-8.8-9.3c-8.5-9.8-12.8-21.8-12.8-35.8
		C151.9,29.5,152.7,25.6,154.1,21.3L154.1,21.3z"/>
	<path fill="#726D6C" d="M142.1,52.1l-1.7-3.2c-3.3,0.3-5.7,2.6-7.4,6.9c-1,3-1.5,6.4-1.5,10.5c0,1.8,0.7,4.9,2,9.1
		c0.4,2.1,1,4,1.7,5.4c0.2-0.5,0.4-0.9,0.7-1.2c1.2-1.3,2.1-2.1,3-2.5c0.7-0.3,1.2-0.5,1.5-0.5c0.8,0,1.3,0,1.5,0
		c2.3,0.6,4.5,2.6,6.9,5.9c2.5,3.5,4,8.3,4.7,14.5c0.2,0.8,0.3,1.8,0.5,2.7c2,4.4,3,6.7,3.2,6.9h6.2c0.8-1,1.1-1.5,0.9-1.5
		c0-0.2-0.2-1.1-0.5-2.7c-0.1-1.6-0.2-4.5-0.4-8.6c0-4.2-0.3-8-0.8-11c-0.7-3.1-0.6-5.9,0.3-8.3c0.9-2.5,0.9-4,0-4.7
		c-0.8-0.7-4.2-3.3-10.1-7.9C146.8,57.3,143.2,54,142.1,52.1L142.1,52.1z"/>
</g>
</svg>
