<?xml version="1.0" encoding="utf-8"?>
<!-- Generator: Adobe Illustrator 18.0.0, SVG Export Plug-In . SVG Version: 6.00 Build 0)  -->
<!DOCTYPE svg PUBLIC "-//W3C//DTD SVG 1.1//EN" "http://www.w3.org/Graphics/SVG/1.1/DTD/svg11.dtd">
<svg version="1.1" id="Calque_1" xmlns="http://www.w3.org/2000/svg" xmlns:xlink="http://www.w3.org/1999/xlink" x="0px" y="0px"
	 viewBox="0 0 425.2 841.9" enable-background="new 0 0 425.2 841.9" xml:space="preserve">
<g>
	<defs>
		<path id="SVGID_1_" d="M185.1,321.7c16.1,54.4-25,87.7-69.1,99.9c-6.7,1.8-8.4-26.3-4.8-27.3c17.1-5,32.6-16.1,40.2-30.6
			C169,330.8,164,332.6,185.1,321.7z"/>
		<path id="SVGID_3_" d="M175.8,485.2c-5.7,27.5-4.9,106.6-7,157.9l-3.7,160.7c-0.4,6.8,43,12.2,44.7,5.4c1.6-6.2,2-257.3,2.6-278
			C214.2,471.2,203.2,491.8,175.8,485.2z"/>
		<path id="SVGID_5_" d="M158.3,30c74.9,28.7,99.6,19.3,115.9,44.7c16.9,26.6,19.7,88,9.2,137.9c-6,28.4-18.5,50.2-29.7,67
			c-3.3,12.8-67.5,13.6-100.2-2.8c-22-11-19.9-17.2-31.5-42.8c-16.1-35.6-32-51.9-35.9-104.7c-1-13.7-2.3-39.9,10.6-42.7
			C86.7,38.3,141.6,17.1,158.3,30z"/>
		<path id="SVGID_7_" d="M269.7,354.3l-4.7-28.5c56.2-7.7,83.8,34.5,89.2,80c0.8,6.9-27.2,4.3-27.7,0.7
			C322.5,376.7,300.6,349,269.7,354.3z"/>
	</defs>
	<clipPath id="SVGID_2_">
		<use xlink:href="#SVGID_1_"  overflow="visible"/>
	</clipPath>
	<use xlink:href="#SVGID_5_"  overflow="visible" fill-rule="evenodd" clip-rule="evenodd" fill="#A04C2D"/>
	<clipPath id="SVGID_6_">
		<use xlink:href="#SVGID_5_"  overflow="visible"/>
	</clipPath>
	<use xlink:href="#SVGID_7_"  overflow="visible" fill-rule="evenodd" clip-rule="evenodd" fill="#666265"/>
	<clipPath id="SVGID_8_">
		<use xlink:href="#SVGID_7_"  overflow="visible"/>
	</clipPath>
	<path  clip-path="url(#SVGID_2_)" fill-rule="evenodd" clip-rule="evenodd" fill="#50494E" d="M73.3,228c37.4,6.3,75.7-6.8,81.7,32.8
		c9.1,59.7-50,26.3-102.1,65.8c-23.8,18-15.8,46.5,25.5,13c22-17.8,84.8-25,105.5-1.8c2.5,2.7,7.5,6.1,9.2,9.3l12.2-36.6l-19.3-90
		L73.3,228z"/>
	<use xlink:href="#SVGID_3_"  overflow="visible" fill-rule="evenodd" clip-rule="evenodd" fill="#293151"/>
	<clipPath id="SVGID_4_">
		<use xlink:href="#SVGID_3_"  overflow="visible"/>
	</clipPath>
	<path fill-rule="evenodd" clip-rule="evenodd" fill="#393235" d="M154.7,357.6c5.3,7.3,1.7,25.2-1.1,30.8
		c-15.8,31.1-36.6,20.5-38.2,23c0,0-0.8,5.8-0.3,10.2c0.3,0.1,0.7,0.1,1,0c44.1-12.2,85.1-45.5,69.1-99.9
		C165.4,331.9,168.4,331,154.7,357.6z"/>
	<path fill-rule="evenodd" clip-rule="evenodd" fill="#E62A37" d="M209.5,308.7c24-1.9,97.1-7.7,107.8,7.9
		c5.1,7.5,7.4,26.5,5.2,39.6c-8.4,50.1,16.7,137.3-62.6,126.4c-17.4-2.4-7.7-12.6-8-34.5c-0.6-42.9,8-60.1,10.1-94
		c1.1-18.7-29.3,4.3-32.4-13.9C229.3,338.4,209.3,308.7,209.5,308.7z"/>
	<path fill-rule="evenodd" clip-rule="evenodd" fill="#C02D31" d="M210.9,311.7c22.4-1.8,90.6-7.2,100.6,7.4
		c4.8,6.9,6.9,24.7,4.9,36.9c-5.4,32.4,0.8,92.4-14.8,117.1c-7,11.1-20.9,3.9-43.5,0.8c-16.3-2.2-7.1-11.8-7.4-32.2
		c-0.6-40,7.4-56.1,9.4-87.6c1.1-17.4-27.3,4-30.2-13C229.5,339.5,210.7,311.8,210.9,311.7z"/>
	<path fill-rule="evenodd" clip-rule="evenodd" fill="#E62A37" d="M210.9,313c21.8-1.8,88.2-7.1,98,7.3c4.6,6.9,6.7,24.5,4.7,36.6
		c-5.1,30.9,1,93.6-14.2,117.9c-7.6,12.1-18.7,2.4-42.6-0.9c-15.8-2.2-7-11.7-7.2-32c-0.6-39.7,7.3-55.7,9.1-87
		c1-17.3-26.6,4-29.4-12.9C229,340.5,210.7,313,210.9,313z"/>
	<path fill-rule="evenodd" clip-rule="evenodd" fill="#9B2B2C" d="M240.1,315.2c24-1.9,47.6-6.5,58.3,9.1c5.1,7.5,7.4,26.5,5.2,39.6
		c-8.4,50.1,16.7,137.3-62.6,126.4c-17.4-2.4-7.7-12.6-8-34.5c-0.6-42.9,8-60.1,10.1-94c1.1-18.7,1.8-16.8-1.2-35.1
		C241.6,325,239.9,315.2,240.1,315.2z"/>
	<path fill-rule="evenodd" clip-rule="evenodd" fill="#7A2728" d="M288.6,316.2c-10.9,18-2.9,136.7,8.7,132.3c0.3-0.1,1-0.1,1.9-0.1
		c-1.5,9.2-3.9,17.5-8.1,24.3l-28.3-15l-10-143.7C266.5,312.8,279.2,312.1,288.6,316.2z"/>
	<path fill-rule="evenodd" clip-rule="evenodd" fill="#E6B88E" d="M115.6,400.1l-0.8-2.3c-0.6-0.7-40.1-1.4-48.8-4.6
		c-17-6.3-17.5-17.6-18.7-17c-4.2,2.1-20.5,11-24.9,13.3c6.9,18.5,27.8,27.1,41.7,30.6c12.6,3.2,40.9,1,44.9-1.7
		C114,414.4,116,401.4,115.6,400.1z"/>
	<path fill-rule="evenodd" clip-rule="evenodd" fill="#CDCBCA" d="M102.3,394.4c0,0,12.1-5.4,13.2-3.2c6.5,12.4,6.2,18.7,2.8,33.3
		c-2.4,0.7-21.9,4.9-19.6,2.3C106.3,417.8,102.2,394.5,102.3,394.4z"/>
	<path fill-rule="evenodd" clip-rule="evenodd" fill="#E6B88E" d="M60.6,364.4c-1.4-0.8-0.6-0.5-1.2-1.1c0.1-1.8-2.5-5.5-1.2-12.6
		c0.8-4.3,0.6-9.1-0.2-13.6c0.1-2.3-4.3-6.8-9.8-4c-4.3,2.2-2.4,14.2-3.3,19.2c-0.5-2.4-5.2-30.4-13-22.9
		c-3.6,3.5-4.5,16.6-3.9,21.7c-1.6,0.3-3.6-22.4-10.6-19.3c-6.9,3.1-3.7,25.4-1.8,34c1.8,7.8,4.4,15.8,6.4,22.9
		c2.2,7.8,21.5,2.1,28.6,3.6c3.2-9.6,2.7-10,18.8-18.1c3.2-1.6,9-2,7.6-7.8c-1.3-5.3-11.8-3.1-15.7-2.2L60.6,364.4z"/>
	<path fill-rule="evenodd" clip-rule="evenodd" fill="#A04C2D" d="M248.1,239l35.1-26.9c-4.2,19.2-19.9,67.3-3.4,67.3
		c2.5,0-9.5,8.7-23.3-3.7c-3-2.7-0.9,13,12.3,14.6c6,0.7,2.5,4.2-3.3,4.9c-7.2,0.9-21.7,1.6-25.1-12.7c-0.5-1.9-8.9-28.8-10.6-33.7
		L248.1,239z"/>
	<path fill-rule="evenodd" clip-rule="evenodd" fill="#1D5885" d="M271.1,489.5c4.3,21-3.4,273.5-4.3,319.7c-0.1,6.8-42,8.1-41,0.8
		c1.4-11,2.2-205.2,2.7-269.8c-16.7-3.7-40.7-13.5-52.7-25.4c-8.2-8.1,17-32.2,15-43.3c-1.8-9.8-4.6-24.7-3.5-34.8
		c0.2-1.6,10.5,2.4,12.4,2.9c6.3,1.7,56.2,5.1,57.7,20.5c-1.5,1.9,1,14.7,2.4,29.7C263.3,490.3,267,490.4,271.1,489.5z"/>
	<path fill-rule="evenodd" clip-rule="evenodd" fill="#2A4169" d="M271.4,491.8c3.5,32.7-3.7,272.5-4.6,317.4c0,0.5-0.3,1-0.7,1.5
		c-15.7,2.7-34.1,5.5-27.9-6.5c19.6-38.1,16.6-205.6,15-260.7c-1.1-36.5-21.3-8.2-35.5-39.6L271.4,491.8z"/>
	<path fill-rule="evenodd" clip-rule="evenodd" fill="#C59A70" d="M119.4,197.7c-2.7-7.2-30.2-15.3-21.5,20.5
		c1,4.2,8.7,17.8,21.3,18C132.3,236.4,123.5,210.2,119.4,197.7z"/>
	<path clip-path="url(#SVGID_6_)" fill-rule="evenodd" clip-rule="evenodd" fill="#76321B" d="M109.7,58c-13.3,26,22.5,35.8,41.9,43.3
		c31.4,12.2,81.3-13,96.7,0.1c12.1,10.3-3.9-23.1-31.4-23.1c-21.1,0-80,5.9-91.4-14.4C123.1,59.7,113.7,50.1,109.7,58z"/>
	<path clip-path="url(#SVGID_6_)" fill-rule="evenodd" clip-rule="evenodd" fill="#7B331C" d="M120.1,87.5c-50.8-5.4-8.1,122.7-7.5,116.6
		c4.1-42.1-8.5-51.5,6.9-98.7C121.7,98.4,126.6,88.2,120.1,87.5z"/>
	<path fill-rule="evenodd" clip-rule="evenodd" fill="#666265" d="M252.6,310.7c13.6,15.3,25.4,16.1,25.3,26.3
		c-0.1,41.8-3.2,126.6-8.2,164.5c-2.9,11.1-106.4,17-107.7-3.2c-4.1-20.8-4.2-94.9,7-149.4c2.9-14.4,13.1-22,14.9-30.9
		C185.4,310.2,246.6,310.9,252.6,310.7z"/>
	<path fill-rule="evenodd" clip-rule="evenodd" fill="#50494E" d="M162.4,394.1c5.1-27.3,7.9-51,38.8-51
		c52.6,0,70.2,159.6-32.2,162.8c23.6,10.7,98.2,5.1,100.7-4.3c1.9-14,3.5-34.5,4.7-56.8c-1.9-4.9-4.2-9.6-6.8-14.1
		c-13.2-22.5-12.2-77.9,8.3-99.8c-3.9-5.3-13.1-8.6-23.4-20.2c-6,0.2-68.6,0.4-70.1,8.4c-1.8,8.9-10.6,15.5-13.5,29.9
		C166,363.2,163.9,378.6,162.4,394.1z"/>
	<path fill-rule="evenodd" clip-rule="evenodd" fill="#F3CBA9" d="M251.8,105.2c7.2,19.4,5.8,80,0,129.4
		c-4.2,35.9,2.1,58.1,0.3,74.4c0.3,12.7-45,26.4-61.3,18.8c-31.3-14.5-63.4-36-74.6-70.7c-10.8-17.5-13.9-148.5-0.8-163.8
		c8.2-19.6,36.4,7.6,59,1.6C231.9,81.2,248.5,95.2,251.8,105.2z"/>
	<path fill-rule="evenodd" clip-rule="evenodd" fill="#E6B485" d="M255.7,127.4c-45.6-40.2-105.6-22.6-121.2-12.9
		c-24,14.9-23.4,33.4,5.3,31.3c0.2,0-31.7,4.1-26.9,50.3c5,47.7,21.7,70.6,36.6,87.4c18.6,20.9,88.2,40.3,102.6,9.4
		c0.4,6,0.6,11.3,0.1,16.1c0.3,12.7-45,26.4-61.3,18.8c-31.3-14.5-63.4-36-74.6-70.7c-10.8-17.5-13.9-148.5-0.8-163.8
		c8.2-19.6,36.4,7.6,59,1.6c57.5-13.8,74.1,0.2,77.3,10.2C253.6,110.2,254.9,117.9,255.7,127.4z"/>
	<path fill-rule="evenodd" clip-rule="evenodd" fill="#F3CBA9" d="M253.7,197.2c2.7-7.9,32.4-17.6,24.1,21.7
		c-1,4.6-8.9,19.7-22.7,20.3C240.8,239.7,249.6,210.8,253.7,197.2z"/>
	<path fill-rule="evenodd" clip-rule="evenodd" fill="#FFFFFF" d="M140.1,155c-13.4-1.9-25.6,6.3-27.4,18.4
		c-1.7,12.1,7.7,23.4,21.1,25.3c13.4,1.9,25.6-6.3,27.4-18.4C162.9,168.3,153.5,156.9,140.1,155z"/>
	<ellipse transform="matrix(-0.1709 -0.9853 0.9853 -0.1709 81.8333 422.3359)" fill-rule="evenodd" clip-rule="evenodd" fill="#FFFFFF" cx="218.6" cy="176.7" rx="22.1" ry="24.5"/>
	<circle fill-rule="evenodd" clip-rule="evenodd" fill="#1A1414" cx="214.1" cy="179.3" r="13.6"/>
	<circle fill-rule="evenodd" clip-rule="evenodd" fill="#FFFFFF" cx="210.7" cy="173.3" r="3.1"/>
	<path fill-rule="evenodd" clip-rule="evenodd" fill="#BC8E61" d="M214.7,210.9c0.1-1.2,1.1-2.2,2.3-2.2c1.2,0.1,2.2,1.1,2.2,2.4
		c-0.2,3.9-1,7.6-2.5,11.1c-3.8,9-11.4,16.6-20.6,21.8c-9.2,5.2-20,8-30.3,7.6c-5-0.2-9.9-1.2-14.4-3.1c-1.2-0.5-1.7-1.8-1.2-3
		c0.5-1.2,1.8-1.7,3-1.2c4,1.7,8.4,2.6,12.9,2.8c9.4,0.4,19.4-2.2,27.9-7c8.4-4.7,15.3-11.6,18.6-19.6
		C213.8,217.4,214.5,214.2,214.7,210.9z"/>
	<path fill-rule="evenodd" clip-rule="evenodd" fill="#BC8E61" d="M172.5,256.6c0-0.5,6.9,0.3,12.9-1.3c5.6-1.5,10.4-5.4,10.5-5
		c0,5.5-4.5,9.5-9.2,10.6C178.4,263,173.3,259.2,172.5,256.6z"/>
	<path fill-rule="evenodd" clip-rule="evenodd" fill="#BC8E61" d="M223.2,220.4c-4.5-7.2-9.3-9.3-17.3-8.3
		C212.7,202.8,226.8,209.5,223.2,220.4z"/>
	<circle fill-rule="evenodd" clip-rule="evenodd" fill="#1A1414" cx="136.5" cy="180.1" r="13.6"/>
	<circle fill-rule="evenodd" clip-rule="evenodd" fill="#FFFFFF" cx="133.2" cy="174.1" r="3.1"/>
	<path fill-rule="evenodd" clip-rule="evenodd" fill="#A04C2D" d="M268.2,189.8l-11.1-46.2c-0.3,10.6-9.3,75.5-16.3,81.3
		C255.8,229,258.8,187.9,268.2,189.8z"/>
	<path fill-rule="evenodd" clip-rule="evenodd" fill="#F3CBA9" d="M111.8,189.8c2.7,22.4,51.8,15.8,53.1-9.7
		C158,184.4,128.9,195.4,111.8,189.8z"/>
	<path fill-rule="evenodd" clip-rule="evenodd" fill="#F3CBA9" d="M190.2,180.9c-4.9,22,43.5,32.3,53.3,8.8
		C235.5,191.3,204.4,191.9,190.2,180.9z"/>
	<path fill-rule="evenodd" clip-rule="evenodd" fill="#E6B485" d="M162.3,141.3c-7.2-21.4-53.9-5.1-50.1,20.1
		C118.2,155.9,144.5,139.3,162.3,141.3z"/>
	<path fill-rule="evenodd" clip-rule="evenodd" fill="#F3CBA9" d="M245.9,160.6c5.7-21.8-42.3-33.8-52.9-10.6
		C201,148.6,232.1,149.2,245.9,160.6z"/>
	<path fill-rule="evenodd" clip-rule="evenodd" fill="#1A1414" d="M208.9,801.7c0.4-2.7-19.6-3.7-42.7-2.4
		c-15.7,0.9-56.9,7-48.8,20.9c10.7,5.3,66.8,6.9,90.7,2.7C210.7,821,213.6,802.7,208.9,801.7z"/>
	<path fill-rule="evenodd" clip-rule="evenodd" fill="#1A1414" d="M227.8,801.5c-0.5-2.7,17.4-2.4,38.5-0.5
		c14.3,1.3,52,8.4,45.1,22.5c-9.6,5.2-60.5,5.5-82.4,0.7C226.5,822.2,223.5,802.5,227.8,801.5z"/>
	<path clip-path="url(#SVGID_8_)" fill-rule="evenodd" clip-rule="evenodd" fill="#50494E" d="M156.4,419c11.8-36.1,4.7-75.9,44.7-75.9
		c60.4,0,18.5,53.4,49.7,110.8c14.2,26.3,43.6,22.6,16.7-23.2c-14.3-24.4-12-87.6,14-104.6c3.1-2,7.1-6.5,10.6-7.7l-34.3-17.6
		l-91.8,5.6L156.4,419z"/>
	<path fill-rule="evenodd" clip-rule="evenodd" fill="#F3CBA9" d="M332.9,403l-2.4,0.4c-0.8,0.4-7.4,39.4-11.9,47.6
		c-8.8,15.8-20.1,14.7-19.7,16c1.4,4.5,7.8,22,9.4,26.6c19.3-4,30.9-23.4,36.5-36.6c5.1-12,7.1-40.3,5-44.7
		C346.8,406.8,334.2,402.8,332.9,403z"/>
	<path fill-rule="evenodd" clip-rule="evenodd" fill="#9B2B2C" d="M271.5,325.1c-20.4,9.1-18.9,65.9-17.2,85.1
		c0.9,10.8,9.8,39.9,19.7,43.2c3,8.3,5.5,5.8,1.4,19.6c-0.7,2.2-12.2,1.2-12.9,3c-34.5-11.9-27.6-128.6-9.7-159.2
		C260.2,315.7,268.5,317.9,271.5,325.1z"/>
	<path fill-rule="evenodd" clip-rule="evenodd" fill="#F3CBA9" d="M272.5,466.5c-0.3,1.6-0.3,0.7-0.5,1.5c-1.7,0.5-4.2,4.3-11.2,5.8
		c-4.3,0.9-8.7,2.8-12.6,5.2c-2.2,0.8-4.8,6.5-0.1,10.6c3.6,3.2,14.1-3,19.1-4c-2,1.4-26.3,16.1-16.5,20.5
		c4.6,2.1,17.1-1.9,21.6-4.4c0.9,1.3-19.5,11.6-14,17c5.4,5.2,25-5.9,32.2-10.9c6.6-4.6,13.1-9.9,18.9-14.4c6.4-5-6-20.8-7.2-27.9
		c-10.1,0.5-10.3,1.2-23.8-10.8c-2.7-2.4-5.2-7.6-10.1-4.2c-4.5,3.1,1.5,12.1,3.8,15.4L272.5,466.5z"/>
	<path fill-rule="evenodd" clip-rule="evenodd" fill="#BC8E61" d="M169.2,149.8c1.3-0.8,2.9-0.5,3.7,0.8c0.8,1.3,0.5,2.9-0.8,3.7
		c-0.5,0.3-1.1,0.8-1.6,1.3l-0.1,0.1c-6.2,6.3-9,22.1-9.8,36.8c-0.9,14.6,0,27.8,1.2,30c0.8,0.9,0.9,2.2,0.2,3.2
		c-1,2-1.2,3.5-0.8,4.7c0.3,0.7,0.8,1.3,1.6,1.7l0,0v0c0.9,0.5,2.1,0.9,3.4,1c3.3,0.3,7.3-0.9,10.2-3.6c1.1-1,2.8-1,3.8,0.1
		c1,1.1,1,2.8-0.1,3.8c-4.1,3.8-9.7,5.4-14.4,5.1c-2.1-0.2-4.1-0.7-5.7-1.7l0,0c-1.8-1.1-3.2-2.6-3.9-4.5c-0.8-2.2-0.8-4.9,0.6-8.1
		c-1.4-4.7-2.4-18-1.5-32c0.9-15.8,4.1-32.8,11.3-40.3c0.1-0.1,0.1-0.1,0.2-0.2C167.5,151,168.3,150.4,169.2,149.8z"/>
	<path fill-rule="evenodd" clip-rule="evenodd" fill="#A04C2D" d="M197,61c-23-7-10.7,5-39.5,3.3c-8.1-0.5-21.2-7.5-21.1-7.7
		c3.9-6.4,2.2-2.1-19.2-5.3c-2.8-0.4-7.4,3.2-10.8,2.3c-10.1-2.6-11.4-10.5-7.2-11.2c1.4-0.2,1.9,2.9,7.3,6.5
		c6.3,4.1,8.7,2.2,8.7,0.9c0.1-2.3-6.7-5-11.2-9c-2.8-2.6-6.1-7-5.5-9.7c0.6-2.8,2.7,1.8,6.5,5.4c2.7,2.5,3.6,2.4,3.9,2.1
		c1-1.1,1.9,1.5-1.7-4.6c-6.5-11,5.2-25.9,4.8-21.4c0,0.1,1.5,14.2,6.8,3.4c9.8-20.2,15.2,21.7,16.1,3.3c0.6-13.7,12.1,14.8,17,5.4
		c0.6-1.2,13-6.2,7.6,2.4c-7.8,12.5,11.9-3.1,21.3,3.9c2.2,1.7-11.7,15.7-1.2,11.7c7.6-2.8-15.3,6.7,9.7,18.8
		C193.8,63.8,207.7,55.6,197,61z"/>
	<path fill-rule="evenodd" clip-rule="evenodd" fill="#A04C2D" d="M110.1,142.8c-2.3,1.6-1.9,5,0.4,7c1.4,0.9,13.5-4.7,26.1-7.6
		c9.5-2.2,19.1-4,24.3-3.9c4.7-0.5,0-3.9-2.3-5.2C146.8,126.2,116.1,137.6,110.1,142.8z"/>
	<path fill-rule="evenodd" clip-rule="evenodd" fill="#C59A70" d="M260.6,209.7c1.2-3.3,13.6-6.9,9.7,9.3c-0.5,1.9-3.9,8.1-9.7,8.1
		C254.7,227.2,258.7,215.3,260.6,209.7z"/>
	<path fill-rule="evenodd" clip-rule="evenodd" fill="#A04C2D" d="M171.1,47l24-6.4c-9.4-6.4-29.2-9.9-42.8-16.9
		c-8.7-4.4-16-13.6-12.8-15.3c0-0.4,1.3-5.3-2-4.6C125.8,4.3,125.5,43.9,171.1,47z"/>
	<path fill-rule="evenodd" clip-rule="evenodd" fill="#E6B485" d="M252.1,141.4c2.5,1.8,4.3,5.7-1.9,7.6c-0.8,0.2-10.6-4.4-21.4-7.7
		c-10.6-3.3-22.1-5.3-26.8-5.3c-5.3-0.7-6.7-5-4.1-6.5C211.2,121.9,245.4,135.5,252.1,141.4z"/>
	<path fill-rule="evenodd" clip-rule="evenodd" fill="#A04C2D" d="M251.7,137c2.5,1.9,4.3,5.7-1.9,7.6c-0.8,0.2-10.6-4.4-21.4-7.7
		c-10.6-3.3-22.1-5.3-26.8-5.3c-5.3-0.7-6.7-5-4.1-6.5C210.8,117.6,245,131.1,251.7,137z"/>
	<path fill-rule="evenodd" clip-rule="evenodd" fill="#50494E" d="M208.2,331.4c-1.3-7.7-8.7-11.4-12.8-0.3
		c-1.5,3.9-2.5,9.6-2.7,17.6c-0.7,23.7-4.2,50.3,2.8,76.3c2.3,8.6,4.5,18.9,19.4,12.9c6.2-2.5-5.5-5.8,8.2-13.1
		c8.3-4.4,10.5-21.8-3-29.7c-7.7-4.6-25.5-15.5-3.6-20.5c21.6-4.9,18.9-25.7,2.2-36.5C214.3,335.4,208.8,335.3,208.2,331.4z"/>
	<path fill-rule="evenodd" clip-rule="evenodd" fill="#1A1414" d="M204.6,332.2c-0.2-7.4-6.5-12.2-11.6-2.6
		c-1.8,3.4-3.5,8.5-4.6,15.9c-3.5,21.9-10,46.1-6.9,71.5c1,8.4,1.7,18.4,16,15.5c6-1.2-4.3-6.4,9.1-10.7c8.1-2.6,12.2-18.3,1-28.2
		c-6.4-5.6-21.2-19.1-0.7-19.7c20.2-0.6,20.3-20.5,6.5-33.5C209.7,337,204.7,335.9,204.6,332.2z"/>
	<path fill-rule="evenodd" clip-rule="evenodd" fill="#50494E" d="M267.4,340.5c1.9-1.7,5-3.5,11.4-5.2c35.2-9,58.3,40.3,57.1,51.3
		c-1.2,10.9-5.6,15.7-9.6,18c0.1,0.6,0.2,1.2,0.3,1.8l0,0c5.3,0.7,17,1.3,26.6,1.6c0.8-0.6,1.2-1.4,1.1-2.3
		c-5.4-44.9-32.4-86.7-87.2-80.2c-0.6,1.1-1.1,2.3-1.5,3.6L267.4,340.5z"/>
	<path fill-rule="evenodd" clip-rule="evenodd" fill="#CDCBCA" d="M325.2,415.3c0,0-3.5-12.8-1.2-13.6c13.2-4.5,19.5-3.4,33.3,2.3
		c0.4,2.5,1.6,22.4-0.7,19.8C349,414.8,325.3,415.4,325.2,415.3z"/>
</g>
</svg>
