<?xml version="1.0" encoding="utf-8"?>
<!-- Generator: Adobe Illustrator 18.0.0, SVG Export Plug-In . SVG Version: 6.00 Build 0)  -->
<!DOCTYPE svg PUBLIC "-//W3C//DTD SVG 1.1//EN" "http://www.w3.org/Graphics/SVG/1.1/DTD/svg11.dtd">
<svg version="1.1" id="Calque_1" xmlns="http://www.w3.org/2000/svg" xmlns:xlink="http://www.w3.org/1999/xlink" x="0px" y="0px"
	 viewBox="0 0 496.1 841.9" enable-background="new 0 0 496.1 841.9" xml:space="preserve">
<g>
	<path fill="#546C78" d="M241,517.4c-12.2,88.8-17.7,213.4-19.9,304.7c-0.5,6.6,46.9,3.8,48.9-2.7c1.8-6,4.7-250.6,5.6-270.6
				C278.4,490.5,270.4,524.2,241,517.4z"/>
	<path fill-rule="evenodd" clip-rule="evenodd" fill="#82A1AC" d="M265.5,371.5C256.9,429.7,214.6,484.4,158,491
		c-22.8,2.6-76.2-4.1-58.4-31.9c10.6-16.5,16.7-26.5,33.3-15.3c17.2,11.5,83.5-13.1,95.2-67.8C229.6,348.6,243.3,346.9,265.5,371.5z
		"/>
	<path fill-rule="evenodd" clip-rule="evenodd" fill="#546C78" d="M324.9,505.6c-3.7,4.2-8.1,75.2-36.4,63.6
		c-7-2.9-15.1-0.7-23.1-0.7c-11.2,0-6.4-43.3-8.3-53.4c-1.7-8.9-4.3-22.6-3.1-31.8c0.2-1.5,10.7,2.3,12.6,2.8
		C273,487.7,323.5,491.5,324.9,505.6z"/>
	<path fill-rule="evenodd" clip-rule="evenodd" fill="#546C78" d="M335.8,509.2c9,33.1-1.7,260.6-3.7,312.3
		c-0.3,6.6-42.6,7.7-41.7,0.7c1.6-12.3-2.7-260.7-2.7-280.8C287.7,483,306.2,514.5,335.8,509.2z"/>
	<path fill-rule="evenodd" clip-rule="evenodd" fill="#455C66" d="M289.9,515.9c35.4,38.7,26.7,242.2,19.8,303.6
		c-0.3,2.6-0.3,5.1-0.1,7.4c10.9-0.1,22.4-2,22.5-5.5c1.8-45.4,10.3-226.1,6.2-292c-6.4-6-12.6-11.3-15.9-14
		c-1.9-1.6-22.2-4.7-30.9-3.9C290.9,512.7,290.4,514.2,289.9,515.9z"/>
	<path fill-rule="evenodd" clip-rule="evenodd" fill="#96B8C4" d="M323.6,325.4c10.6,12.3,45.8,35.6,50,45.3
		c11.9,27.6-21.1,85.1-28.3,115c-10.8,45.1-11.6,51.4-63.1,46.5c-23.1-2.2-46.7,8.6-44.4,1.4c1.8-5.8,0.7-31.9-0.2-45
		c-2.6-35.7-10.5-74.9-6.8-108.7c1.7-15.4,17.7-27,26.4-37.4C259.6,339.4,318.9,325.5,323.6,325.4z"/>
	<path fill-rule="evenodd" clip-rule="evenodd" fill="#96B8C4" d="M354,354.2c50,30.8,83.6,91.4,67.2,145.9
		c-6.6,22-33.9,68.4-52.4,41.1c-11-16.3-17.7-25.8-0.9-36.6c17.4-11.2,33.3-76-12.3-108.3C331.2,384,322.6,364.8,354,354.2z"/>
	<path fill-rule="evenodd" clip-rule="evenodd" fill="#82A1AC" d="M342.7,376.4l12.5,19.6l0.5,0.2c3.4,2.4,6.4,5,9.1,7.7
		c-0.1-26.2,49.5,9.6,49.5,90.2c0,28.8-41.1,34.3-55.9,20.9c-0.2,0.5-0.3,1.1-0.4,1.6l8.4,18.9l19.7,13.4
		c15.1-4.8,30.4-33,35.1-48.7c16.2-54-16.5-113.8-65.6-144.9L342.7,376.4z"/>
	<path fill-rule="evenodd" clip-rule="evenodd" fill="#A68F6A" d="M239.9,325.3c5,13.1,19.1,26,34.8,30.4c4.4,1.2,7.6,27.6,12,27.4
		c3.5-0.2,8.2-26.8,11.5-28.1c13.9-5.1,25.9-18,27.2-29.7C325.9,321.8,257.1,331.2,239.9,325.3z"/>
	<path fill-rule="evenodd" clip-rule="evenodd" fill="#483322" d="M358.3,166.3l8.2-41.9c18.6,19.3,19.8,42.2,8.4,66.9
		C375,181.1,366.8,172.3,358.3,166.3z"/>
	<path fill-rule="evenodd" clip-rule="evenodd" fill="#3A2618" stroke="#EAE553" stroke-width="0.216" stroke-miterlimit="22.9256" d="
	M192.6,163l6.8-42.1c-24.1,11.6-31.6,60.3-17.9,92.9c2.2-6,22.3-0.5,24.3-13.2C207.1,192.8,188.8,164,192.6,163z"/>
	<path fill-rule="evenodd" clip-rule="evenodd" fill="#614833" d="M362.8,181.6l-12.9-34.3c15.9,4.8,32.1,25.1,30.5,52.3
		C377.2,189.9,371.6,184.2,362.8,181.6z"/>
	<path fill-rule="evenodd" clip-rule="evenodd" fill="#614833" d="M325.3,157.9l-25.7-57.2c20.2,3.9,30.4,6.6,34.7,7.1
		c56.2,6.2,61.6,141,20.8,164.9L325.3,157.9z"/>
	<path fill-rule="evenodd" clip-rule="evenodd" fill="#E3CEAA" d="M206.7,203.9c-1.5-4.8-17.4-13.8-25.7-4.4
		c-11.2,26.3,18.1,39.2,21,30.7l0.3-0.8c2.6-7.4,4.8-9.1,5.8-17C208.7,207.5,208.2,208.9,206.7,203.9z"/>
	<path fill-rule="evenodd" clip-rule="evenodd" fill="#E3CEAA" d="M377.2,205.8c0,17.5-16.5,24.2-20.7,18.7l-1.9-2.5
		c-1.7-6.9-1.9-8.4-2.2-15.6c-0.5-10.8,10.8-16.9,18.5-14C376.7,194.5,377.2,200.3,377.2,205.8z"/>
	<path fill-rule="evenodd" clip-rule="evenodd" fill="#AE9164" d="M366.5,205.2c3.7,12-6.9,17-9.3,13.8l-0.9-1.2
		c-0.8-3.4-0.9-4.1-1.1-7.6C354.9,203.7,363.4,200.7,366.5,205.2z"/>
	<path fill-rule="evenodd" clip-rule="evenodd" fill="#614833" d="M236.1,134.6l21.1-39.7c-57-11.1-67.7,43.4-69.2,81.8
		c-0.6,14.6,1.5,58.5,11.4,79.6L236.1,134.6z"/>
	<path fill-rule="evenodd" clip-rule="evenodd" fill="#E3CEAA" d="M348.7,321.3c-20.7,8.6-38.7,16.3-65,17
		c-35.8,1-62.8-8.2-77.1-19.7c-15.3-16.1-11.6-45.2-10.1-76.9c2.5-54.4,13.1-115.1,17.6-120.8c10.9-27.2,91.1-23.9,126.7-2.5
		c7.1,4.3,7.6,17.7,9.8,34.1c2.6,19.5,3.1,51.9,7.8,80.8C364.9,272.9,373,308.8,348.7,321.3z"/>
	<path fill-rule="evenodd" clip-rule="evenodd" fill="#C5AB81" d="M254.4,241.7c0.1,0.5,1.8,17.6-5,14.5c-16.4-7.5-32.9,9.6-26,29.6
		c8.2,23.6,64.8,17.6,82,11.4c18.6-6.7,42.8-26.1,23.1-45.7c-1.2-1.2-11-2-19.2-1.8c-2.3,0.1-4.5-12.3-0.8-12.9
		c17.2-2.8,30.4,3.8,37.9,21.9c7.9,19.2,11.8,32.3,2.5,53.4c-8.9,20.2-45.3,26.2-65.5,29.8c-16.9,3-44.5-3.1-58.4-13.4
		c-23.4-17.3-24.1-44.9-12.2-68C224.1,238.8,244.4,239.4,254.4,241.7z"/>
	<path fill-rule="evenodd" clip-rule="evenodd" fill="#C5AB81" d="M264,304.6c3-3.7,7.2-4.4,4-9.9c-2-3.4-1.8-3.8,11.7-2.2
		c4.5,0.5,9-1.9,13.5-1.9c2.2,1-4.3,5.2-1.1,11.1C294.1,305.5,263.6,305,264,304.6z"/>
	<path fill-rule="evenodd" clip-rule="evenodd" fill="#D3B788" d="M199.3,204.4c5.5-27.4,17.2-57.6,40.8-56.8
		c8.1,0.3,52.6,2.6,64.7-2.6c18.3-6.7,25-26.3,45.7,6.4c-0.7-5.6-1.3-10.9-2-15.6l-5.4-15.7c-0.7-0.7-1.4-1.4-2.3-1.9
		c-7.7-4.6-17.4-8.3-28-11.1l-92.7,5.7c-2.8,2.3-4.8,4.9-6,8C210.6,125.3,203.5,162.6,199.3,204.4z"/>
	<path fill-rule="evenodd" clip-rule="evenodd" fill="#FFFFFF" d="M251.1,207.7c0.2,14.2-10.4,19.4-24.7,19.4
		c-14.3,0-22.7-6.9-21.9-19C205,185.9,247.6,181.2,251.1,207.7z"/>
	<path fill-rule="evenodd" clip-rule="evenodd" fill="#614833" d="M206.2,169.9c-1.7,4,0.1,7.9,1.6,9c15.6-10.6,32.8-11.3,40.5-12.9
		c0.8-0.3,1.9-1.2-0.5-3.9C243.2,156.8,212.8,165.5,206.2,169.9z"/>
	<path fill-rule="evenodd" clip-rule="evenodd" fill="#614833" d="M324.2,90.5c-15-21.2-50.3-27.2-83.3-19.9
		c-19.6,4.3-47,48.4-35.8,70.7c20.6-17.5,67.2-1.6,87.7-4.2C305.9,135.4,341.1,114.5,324.2,90.5z"/>
	<path fill-rule="evenodd" clip-rule="evenodd" fill="#614833" d="M201,100.2l35.4,2c-8.4,25.3-42.2,63.9-84,53.8
		c-2.8-3.3,4.5-5.1,8.7-7.7C173.6,140.5,196.9,115.3,201,100.2z"/>
	<path fill-rule="evenodd" clip-rule="evenodd" fill="#3A2618" d="M217.4,122.4c12.4-29.5,53.1-29.4,74.2-7.2
		C294.3,118.3,255,101.3,217.4,122.4z"/>
	<path fill-rule="evenodd" clip-rule="evenodd" fill="#DACB45" d="M284.3,73.1c17.5-0.8,27,19.4,20.9,35.1
		C304.3,110.2,303.5,86.8,284.3,73.1z"/>
	<ellipse transform="matrix(-3.526724e-003 -1 1 -3.526724e-003 19.6001 443.216)" fill-rule="evenodd" clip-rule="evenodd" fill="#010202" stroke="#010202" stroke-width="0.5669" stroke-miterlimit="22.9256" cx="230.6" cy="211.8" rx="11.1" ry="11.7"/>
	<circle fill-rule="evenodd" clip-rule="evenodd" fill="#FFFFFF" cx="235.1" cy="205.7" r="2.5"/>
	<path fill-rule="evenodd" clip-rule="evenodd" fill="#FFFFFF" d="M303.5,202.2c-0.1,14.2,10.6,19.3,24.8,19.3
		c14.3,0,22.6-7,21.8-19.2C349.3,180.1,306.8,175.7,303.5,202.2z"/>
	<path fill-rule="evenodd" clip-rule="evenodd" fill="#614833" d="M343.7,158c2.5,4.4,1,9.2-0.6,10.6c-19.7-10-39.7-8.5-48.9-9.2
		c-0.9-0.2-2.3-1.2,0.1-4.6C298.9,148.1,335.4,153.8,343.7,158z"/>
	<ellipse transform="matrix(-3.541029e-003 -1 1 -3.541029e-003 123.7595 536.7533)" fill-rule="evenodd" clip-rule="evenodd" fill="#010202" stroke="#010202" stroke-width="0.5669" stroke-miterlimit="22.9256" cx="329.3" cy="206.7" rx="11.1" ry="11.6"/>
	<path fill-rule="evenodd" clip-rule="evenodd" fill="#65838D" d="M230.9,375.4l-3.3,2.4c-4.9,20.4-17.4,36.6-32,48.1
		c13,20-12.8,53.3-48.5,46.1c-22.1-4.5-32.6-46.6-48.4-6.6c-1.1,2.9-1.8,5.6-2.1,8.1c5.4,15.8,43.1,19.7,61.3,17.6
		c34.5-4,63.7-25.9,83.1-55.5L230.9,375.4z"/>
	<circle fill-rule="evenodd" clip-rule="evenodd" fill="#FFFFFF" cx="325" cy="200.8" r="2.7"/>
	<path fill-rule="evenodd" clip-rule="evenodd" fill="#614833" d="M321.1,99.6l1.3-0.7c12.4-6.5,35.3-1.9,49.4,9.7
		c6.8,5.6,12.6,23.3,8.6,33.9c-0.9,2.4-26.2,17-28.2,18.5c-6.1-40.9-22.4-51.1-30.2-41.6C318.8,123.2,308.7,106.1,321.1,99.6z"/>
	<path fill-rule="evenodd" clip-rule="evenodd" fill="#614833" d="M356.1,113.5l-23-11.1c13.9-6.2,35.6-8.8,46.9,6.6
		C373.8,105.6,363.8,110.1,356.1,113.5z"/>
	<path fill-rule="evenodd" clip-rule="evenodd" fill="#614833" d="M380.7,141.4l-14.5-16.6c-2,13,2.8,32.2,17.7,36.4
		C379.7,156.8,379.6,148.6,380.7,141.4z"/>
	<path fill-rule="evenodd" clip-rule="evenodd" fill="#614833" d="M374.3,119.4l-4.2-11.4c6.8,2.5,14.7,9.8,12.8,18.1
		C382,123,378,120.8,374.3,119.4z"/>
	<path fill-rule="evenodd" clip-rule="evenodd" fill="#3A2618" d="M370.3,139.1c1.3-17.2-18.2-27.1-33.8-21.6
		C334.5,118.3,357.4,119.8,370.3,139.1z"/>
	<path fill-rule="evenodd" clip-rule="evenodd" fill="#3A2618" d="M350.3,99.2c-8.2-4.7-17.7,2.7-18.6,11.7
		C331.6,112,337.7,101,350.3,99.2z"/>
	<path fill-rule="evenodd" clip-rule="evenodd" fill="#3A2618" d="M368.9,111.9c-4.1-10-17.9-10.1-25.1-2.6
		C342.8,110.3,356.2,104.6,368.9,111.9z"/>
	<path fill-rule="evenodd" clip-rule="evenodd" fill="#A68F6A" d="M256,175.3c0-1.5,1.2-2.6,2.6-2.6c1.5,0,2.6,1.2,2.6,2.6
		c0,7.6,0.1,30.7,1,49.1c0.5,10.5,1.1,19.4,2.1,22.6c1.6,2.9,4.3,4.3,7.3,4.7c4.4,0.5,9.6-0.9,13.9-3c1.3-0.6,2.9-0.1,3.5,1.2
		c0.6,1.3,0.1,2.9-1.2,3.5c-5.2,2.6-11.4,4.2-16.9,3.6c-4.8-0.6-8.9-2.8-11.4-7.6c-0.1-0.2-0.2-0.3-0.2-0.5
		c-1.1-3.5-1.9-13-2.4-24.2C256.1,206.2,256,182.9,256,175.3z"/>
	<path fill-rule="evenodd" clip-rule="evenodd" fill="#A68F6A" d="M268.1,280c0.1-0.4,5.5,1.5,10.6,1.4c4.8-0.1,9.3-2.4,9.4-2.1
		c-1,4.4-5.4,6.8-9.3,6.8C271.7,286.2,268.3,282.2,268.1,280z"/>
	<path fill-rule="evenodd" clip-rule="evenodd" fill="#A68F6A" d="M319.3,259.1c-5.4-4.4-9.7-4.7-15.6-1.8
		C306.4,248.3,319.2,249.7,319.3,259.1z"/>
	<path fill-rule="evenodd" clip-rule="evenodd" fill="#82A1AC" d="M341.4,370l24.9,22.4c0,0.1-5.5,25.6-5.1,35.1
		c1.3,30.4-51.3-16.1-21.7-55.3C340.8,370.5,339.4,371.4,341.4,370z"/>
	<path fill-rule="evenodd" clip-rule="evenodd" fill="#A68F6A" d="M263.9,319c0.2,0.5,9.7-1.7,18.7-1.6c8.5,0.2,16.5,2.8,16.5,2.4
		c-1.8-5.1-9.5-7.9-16.5-8C270.2,311.8,264.2,316.4,263.9,319z"/>
	<path fill-rule="evenodd" clip-rule="evenodd" fill="#A68F6A" d="M280,326.8c1.9,0,3.4-1.3,3.4-3c0-1.6-1.5-3-3.4-3
		c-1.9,0-3.4,1.3-3.4,3C276.5,325.5,278.1,326.8,280,326.8z"/>
	<path fill-rule="evenodd" clip-rule="evenodd" fill="#61818D" d="M255.2,377.3l10.5-16.9c-1.2,18,0.4,24.7,7.4,41.3
		c4,9.4,14,19.5,17.3,6.1c4-16.5,20-20.7,10.8-51.3c-2.4-8,12.5-0.6,16.2,0.3l2.9,26.8l-25.6,63.6l-25.9,5.1L255.2,377.3z"/>
	
		<path fill-rule="evenodd" clip-rule="evenodd" fill="#614833" stroke="#DACB45" stroke-width="0.216" stroke-miterlimit="22.9256" d="
		M232.8,99.3L249,71.2c-15.7,2.8-30.5,14.6-47,33c-2.6,2.9-14.9,11.9-14.9,13c-0.2,5.9,12.6,2,16.6,0.2
		C210.6,114.1,225.6,100.6,232.8,99.3z"/>
	<path fill-rule="evenodd" clip-rule="evenodd" fill="#E3CEAA" d="M201.9,238.1c-3.6-16.8,41.8-27.4,49.9-9.7
		c0.5,7.4-16.4,7.6-28.3,9.9C215.6,239.8,211.5,243.7,201.9,238.1z"/>
	<path fill-rule="evenodd" clip-rule="evenodd" fill="#E3CEAA" d="M301.7,231.4c-3.6-16.8,41.8-27.4,49.9-9.7
		c0.5,7.4-16.4,7.6-28.3,9.9C315.4,233.1,311.3,237,301.7,231.4z"/>
	<path fill-rule="evenodd" clip-rule="evenodd" fill="#614833" d="M364.4,183c0.1,0.3-2.4,6.5-3.7,21.1c-0.1,1.2,1.1,21,0.6,28.1
		c-0.2,2.6-2.2,0.1-2.3,0.1c-2.5,0.9-7.4-50.6-6.9-67.4c0.1-1.9,8.7,16.5,10.8,16.8L364.4,183z"/>
	<path fill-rule="evenodd" clip-rule="evenodd" fill="#393738" d="M221,802c-40.2,1.8-58.8,16.7-52,29.4c9.9,5,76.8,5.4,99.5,0.8
		C280.4,804.5,223.5,801.9,221,802z"/>
	<path fill-rule="evenodd" clip-rule="evenodd" fill="#393738" d="M340.4,801c40.2,1.8,58.8,16.7,52,29.4c-9.9,5-76.8,5.4-99.5,0.8
		C280.9,814.7,337.9,800.9,340.4,801z"/>
	<path fill-rule="evenodd" clip-rule="evenodd" fill="#EAE553" d="M356.7,352.3c-10-6.6-23-21.3-27.4-19.8
		c-2.9,11.6-34,80.9-40.5,104.7c-0.3,1.1-1,2.4-1.1,3.3c-4.3,21.3-3.7,31.1-0.1,53c2,12,4.1,24.7,4.1,36.8c18.8,0,28.2-0.4,46.1-1.6
		c3-0.2,2.5,0.3,6.2-0.5c-7.3-29.3,21.9-93.1,20.5-94.5C332.6,402.7,348.9,361.3,356.7,352.3z"/>
	<path fill-rule="evenodd" clip-rule="evenodd" fill="#EAE553" d="M226.9,369c3.9-14.2,16.9-19.8,21.3-18.3
		c3,12.1,29.2,68.8,33.4,89.3c4.3,21.3,8.7,31.4,9.8,53.5c0.6,12,2.4,26.7,2.4,38.8c-13.6,0-44.6,3.6-57.3,1
		c5.3-25.8-4.9-83.5-5.3-85.3C224.6,418.4,227.1,381.6,226.9,369z"/>
	<path fill-rule="evenodd" clip-rule="evenodd" fill="#D4D03D" d="M292.4,426.2l-0.8,4.5c0-12.8,35.4-55.7,53.6,1.3
		c1.5,4.8,6.5,17.9,9.3,30.7c5.4-16.1,10.6-28.4,10-29c-31.9-31.2-15.7-72.5-7.9-81.5c-10-6.6-23-21.3-27.4-19.8
		C326.7,342.7,302.7,396.7,292.4,426.2L292.4,426.2z M345.9,493.4c-2.8,13-4.2,25.6-1.9,34.9c-3.7,0.8-3.1,0.3-6.2,0.5
		c-17.8,1.2-27.2,1.6-46.1,1.6c0-2.5-0.1-5-0.3-7.5c3-0.3,5-1,5.3-2.5c0.1-0.6-10-50.8-10.3-62.4c-0.1-6.2,0.1-11,0.7-14.7
		c0.2-0.9,0.3-1.7,0.5-2.6c0.2-0.9,0.9-2.2,1.1-3.3l0.1-0.2c9.3-18.2,42.5,55.5,55.3,56.3C344.8,493.4,345.3,493.4,345.9,493.4z"/>
	<path fill-rule="evenodd" clip-rule="evenodd" fill="#D4D03D" d="M226.7,407.1c7.3-18,20.6-25,34.3,12.1c9.3,25-46.5,32.3-5.6,67
		c20.6,17.5,3.4,39.8,4.5,11.6c0.4-9.9-10,2.7-23.1-7.6c1.4,15.7,1.9,32.3-0.3,43.2c12.7,2.6,43.7-1,57.3-1c0-3.3-0.1-6.7-0.4-10.3
		l-9.2-0.6l-0.6-60.1l0.1-11.6c-0.7-3-1.4-6.2-2.1-9.7c-4.2-20.5-30.4-77.1-33.4-89.3c-4.4-1.5-17.4,4.1-21.3,18.3
		C227,376,226.3,390.5,226.7,407.1z"/>
	<path fill-rule="evenodd" clip-rule="evenodd" fill="#B1AEB7" d="M236.7,489c-0.3-3.9-0.7-9.3-1-13.2c15.7,2.6,33-1.5,50.2-4
		c18,2.5,43.4,3.5,65.9-0.6c-1,4.6-3.3,9.9-4.3,14.5c-19.9,1.7-40.7,2.8-61.1-0.4C269.4,488.3,253.6,490.6,236.7,489z"/>
	<path fill-rule="evenodd" clip-rule="evenodd" fill="#B1AEB7" d="M239.2,512.4c-0.3-2.9-0.6-7-0.9-9.9c14.5,1.9,30.4-1.1,46.3-3
		c16.6,1.9,39.9,2.6,60.7-0.4c-0.9,3.4-3,7.4-4,10.8c-18.3,1.3-37.5,2.1-56.3-0.3C269.3,511.9,254.7,513.6,239.2,512.4z"/>
	<path fill-rule="evenodd" clip-rule="evenodd" fill="#7F8080" d="M284.4,452.5c9.6-44,28.1-82.5,45.6-120.7
		c2.1,0.3,2.3,0.3,4.9,2.3c-13,16.1-36.9,86.5-49.4,125c0.7,24.2,2.1,49.9,2.8,74c-1.7,0-3.4,0-5.1,0c-0.5-25-1.8-51.6-2.3-76.6
		c-6.1-44.5-21-77.7-41.6-104.2c1.4-0.7,1.7-2.6,3-3.3C258.5,377.8,275,400.8,284.4,452.5z"/>
	<path fill-rule="evenodd" clip-rule="evenodd" fill="#65838D" d="M298.5,355.6c5.2-6.1,14,14.9,15.8,22.4c0.9,3.6,4.1,8.3,6.1,1.5
		c8.3-28.2,18.2-44.4,16.5-48.6c-4.8-7.4-42.3,14.3-38.9,25.2C298.3,356,298.1,356,298.5,355.6z"/>
	<path fill-rule="evenodd" clip-rule="evenodd" fill="#65838D" d="M274.2,356.6c-6.6-6.3-11,21.9-10.8,31.1
		c0.1,4.4-1.9,10.4-5.6,2.7c-15.3-31.8-25.1-45.3-24.5-50.5c2.8-9.4,42,3.9,41.5,17.2C274.5,357.1,274.7,357.1,274.2,356.6z"/>
	<path fill-rule="evenodd" clip-rule="evenodd" fill="#E3E3E2" d="M286.8,393.4c2.4,0,4.3-1.9,4.3-4.3c0-2.4-1.9-4.3-4.3-4.3
		c-2.4,0-4.3,1.9-4.3,4.3C282.5,391.4,284.4,393.4,286.8,393.4z"/>
	<path fill-rule="evenodd" clip-rule="evenodd" fill="#E3E3E2" d="M286.8,411.9c2.4,0,4.3-1.9,4.3-4.3c0-2.4-1.9-4.3-4.3-4.3
		c-2.4,0-4.3,1.9-4.3,4.3C282.5,409.9,284.4,411.9,286.8,411.9z"/>
	<path fill-rule="evenodd" clip-rule="evenodd" fill="#84602F" d="M342.7,517.2c-26.8,10.8-58.6,12.9-87.2,8.4
		c-7.7-1.2-21.4-5.9-21.9,4.3c-0.5,12.9,6,13.8,18.8,16.3c8.1,1.6,61.7,2.7,66.3,1.1c11.1-3.9,33-4.7,25.9-27.4
		C344.4,519.1,342.7,517.2,342.7,517.2z"/>
	<path fill-rule="evenodd" clip-rule="evenodd" fill="#202020" d="M277.2,525.3c6.3,0,12.6,0.1,18.9,0.1c2.1,0,3.8,1.9,3.8,4.1
		c0,1.8,0,3.1-0.1,4.9c-0.1,7.8-26.9,5.7-26.7,0.8c0.1-1.8,0.1-4.2,0.1-6C273.3,527.1,275.1,525.3,277.2,525.3z"/>
	<path fill-rule="evenodd" clip-rule="evenodd" fill="#202020" d="M257.7,526.5l3.9,0.3c0.7,0.1,1.3,0.7,1.3,1.4l-0.4,5.9
		c-0.1,0.7-0.7,1.3-1.4,1.3l-3.9-0.3c-0.7-0.1-1.3-0.7-1.3-1.4l0.4-5.9C256.4,527,257,526.4,257.7,526.5z"/>
	<path fill-rule="evenodd" clip-rule="evenodd" fill="#202020" d="M242.3,524.6l3.8,0.5c0.7,0.1,1.3,0.8,1.2,1.5l-0.7,5.9
		c-0.1,0.7-0.8,1.3-1.5,1.2l-3.8-0.5c-0.7-0.1-1.3-0.8-1.2-1.5l0.7-5.9C240.9,525,241.6,524.5,242.3,524.6z"/>
	<path fill-rule="evenodd" clip-rule="evenodd" fill="#202020" d="M313.4,525.4l-3.9,0.2c-0.7,0-1.3,0.7-1.3,1.4l0.3,5.9
		c0,0.7,0.7,1.3,1.4,1.3l3.9-0.2c0.7,0,1.3-0.7,1.3-1.4l-0.3-5.9C314.8,525.9,314.2,525.3,313.4,525.4z"/>
	<path fill-rule="evenodd" clip-rule="evenodd" fill="#5E4320" d="M263.7,531.6l-33.6-4.5c-10.4-3-38.7-7.5-38.1,9.9
		c1,31.6-12.5,89.4,33.7,89.4c49.3,0,40.6-40.5,41.4-80.7C267.2,541.5,266.5,531.9,263.7,531.6z"/>
	<path fill-rule="evenodd" clip-rule="evenodd" fill="#202020" d="M259.9,603.2l-65.4-58.7c0-14.1,2-15.4,17.6-15.4
		c5.5,0,49.2,5.6,50.4,9.1C263.9,541.8,265.6,601.8,259.9,603.2z"/>
	<path fill-rule="evenodd" clip-rule="evenodd" fill="#676767" d="M228.7,503.4c-3.7-1.6-7.5-3.2-11.2-4.9
		c-0.1,28.5-0.2,57-0.3,85.5c1.6,1.7,3.2,3.4,4.8,5.2c1.7-0.1,3.4-0.2,5.1-0.3C229.2,558.5,229.4,532,228.7,503.4z"/>
	<path fill-rule="evenodd" clip-rule="evenodd" fill="#676767" d="M223.3,476.8c5.9,0,10.6,6.7,10.6,15c0,8.3-4.8,14.9-10.7,14.9
		c-5.9,0-10.6-6.7-10.6-15C212.7,483.4,217.5,476.7,223.3,476.8L223.3,476.8z M223.3,481.6c-2.1,0-3.9,3.5-3.9,7.9
		c0,4.3,1.7,7.9,3.8,7.9c2.1,0,3.9-3.5,3.9-7.9C227.1,485.1,225.4,481.6,223.3,481.6z"/>
	<path fill-rule="evenodd" clip-rule="evenodd" fill="#676767" d="M229.6,614.3c4.7-0.2,8.7-10.1,6.9-17.1c-2-7.9-10.3-13-15-14.2
		c-21.7,6.6-21.7,32.7-5.1,30.5c1.8-2.6-10-14.3,4.7-13.6C234.5,600.1,222.1,614.5,229.6,614.3z"/>
	<path fill-rule="evenodd" clip-rule="evenodd" fill="#4F4F4F" d="M226,502.3c-5.2,8.4,0.5,28.9-8.7,30.3l0,9.6
		c0.9,0.3,7.4,1.4,11.7,1.6c0.2-13.4,0.1-26.6-0.3-40.3L226,502.3z"/>
	<path fill-rule="evenodd" clip-rule="evenodd" fill="#4F4F4F" d="M223.1,476.8c9.3,5.1,9.9,16.6,3.5,24.7
		c-1.1,1.3-1.7,3.1-2.2,5.1c5.3-0.8,9.5-7.1,9.5-14.8c0-8.3-4.7-15-10.6-15L223.1,476.8z"/>
	<path fill-rule="evenodd" clip-rule="evenodd" fill="#B0AFAF" d="M210.6,586.6c3.1,0.7,6.2,1.3,9.3,2
		c-4.2-21.7-8.4-43.5-12.6-65.2c-1.5-1.1-3-2.1-4.4-3.2c-1.3,0.3-2.6,0.7-3.9,1C201.9,544.7,205.7,565,210.6,586.6z"/>
	<path fill-rule="evenodd" clip-rule="evenodd" fill="#B0AFAF" d="M218.7,606.1c-4.5,0.9-9.1-3.5-10.3-9.8
		c-1.2-6.3,1.4-12.1,5.9-13c4.5-0.9,9.1,3.5,10.3,9.8C225.8,599.5,223.2,605.3,218.7,606.1L218.7,606.1z M218,602.5
		c1.6-0.3,2.4-3.3,1.8-6.6c-0.6-3.3-2.5-5.8-4.1-5.4c-1.6,0.3-2.4,3.3-1.8,6.6C214.5,600.3,216.3,602.8,218,602.5z"/>
	<path fill-rule="evenodd" clip-rule="evenodd" fill="#B0AFAF" d="M193.2,502.2c-3.5,0.9-5.1,9-2.7,14.1c2.7,5.7,9.8,8.4,13.6,8.6
		c15.5-8.3,11.6-28.2-0.7-24c-1,2.2,9.8,9.4-1.5,11.1C191.6,513.9,198.9,501,193.2,502.2z"/>
	<path fill-rule="evenodd" clip-rule="evenodd" fill="#979797" d="M200.4,532.4c3.6,1.5,7.8,1,6.1-4.4c-0.9-3-1.4-4.7-1.4-6.1
		l2.1,1.5l2.9,15c-1.7,0.3-4.3,0.5-8,0.7c-0.2,0-0.4,0.1-0.7,0.1C201.1,537,200.8,534.7,200.4,532.4z"/>
	<path fill-rule="evenodd" clip-rule="evenodd" fill="#979797" d="M205.5,524.1c-0.9-3.8,0-4.5,4.7-9.7c3-3.2,2.2-8.7,0.7-12.4
		l-0.2-0.5C216.2,505.4,216,517.6,205.5,524.1z"/>
	<polygon fill-rule="evenodd" clip-rule="evenodd" fill="#CA363B" points="244,528.9 249.9,497.4 255.4,496.9 250.1,529 254,532.6 
		252.6,548.4 233.9,547.5 236.8,531.9 	"/>
	<path fill-rule="evenodd" clip-rule="evenodd" fill="#9A383B" d="M252.1,497.2c-1,7.4-4.8,26.9-5.1,32.6c-0.4,5.9-6.1,7.5-10.4,3.7
		c-0.1,0-0.1-0.1-0.1-0.1l-1.7,9.5c0.6,0.8,2.7,0.4,7.6,0.9c3.3,0.4,7,0.4,10.6,0.2l1-11.3l-4-3.6l5.3-32.1L252.1,497.2z"/>
	<path fill-rule="evenodd" clip-rule="evenodd" fill="#84602F" d="M259.8,542.2l-32.2-3.6c-9.7-3-36.1-7.5-35.6,9.9
		c0.9,31.6-11.7,77.9,31.5,77.9c26.8,0,35.6-9.8,38.1-26C262.4,594.4,263.7,544.2,259.8,542.2z"/>
	<path fill-rule="evenodd" clip-rule="evenodd" fill="#765527" d="M235.7,539.5c12.9,13,18.5,39.5,16.5,56
		c-1.6,13.3-9.4,18.5-21.9,22.4c-4.8,1.5-12.5,1.8-13.9-3.8c-1.4-5.6,2-10.7-9.3-8c-2.8,0.7-3,10.7-9.6,5.8c-1-0.8-1.9-1.3-2.6-1.5
		c4.2,9.6,12.6,15.9,28.5,15.9c26.8,0,35.6-9.8,38.1-26c0.9-5.9,2.1-56.1-1.7-58.1L235.7,539.5z"/>
	<path fill-rule="evenodd" clip-rule="evenodd" fill="#393738" d="M220,550.9c0.9-0.3,2.2-0.2,3.2,0.4c-0.1,1.5-0.3,3-0.4,4.5
		c-1.1,0.1-1.9,1.2-2,2.5c0,1.2,0.6,2.3,1.5,2.6l-0.5,5.2c-1.7,0.4-3,2.2-3,4.4c-0.1,2.5,1.5,4.6,3.5,4.7c2,0.1,3.7-1.9,3.8-4.4
		c0.1-2.3-1.2-4.3-3-4.6l0.4-5.2c0.8-0.3,1.4-1.3,1.4-2.4c0-1-0.4-1.9-1.1-2.4l0.4-5c1-0.5,2.2,0.1,3.2,0.6
		c2.5,5.9,3.8,12,4.9,17.9c0.5,4.3-0.5,15.4-0.8,23.1c-7.1-1.3-14.2-0.4-21.2-4c1.1-9.9,1.3-22,3.3-29.8
		C215.5,555.5,217.5,552.8,220,550.9z"/>
	<path fill-rule="evenodd" clip-rule="evenodd" fill="#B0AFAF" d="M217.2,548.9c0.9-0.3,2.2-0.2,3.2,0.4c-0.1,1.5-0.3,3-0.4,4.5
		c-1.1,0.1-1.9,1.2-2,2.5c0,1.2,0.6,2.3,1.5,2.6l-0.5,5.2c-1.7,0.4-3,2.2-3,4.4c-0.1,2.5,1.5,4.6,3.5,4.7c2,0.1,3.7-1.9,3.8-4.4
		c0.1-2.3-1.2-4.3-3-4.6l0.4-5.2c0.8-0.3,1.4-1.3,1.4-2.4c0-1-0.4-1.9-1.1-2.4l0.4-5c1-0.5,2.2,0.1,3.2,0.6
		c2.5,5.9,3.8,12,4.9,17.9c0.5,4.3-0.5,15.4-0.8,23.1c-7.1-1.3-14.2-0.4-21.2-4c1.1-9.9,1.3-22,3.3-29.8
		C212.7,553.4,214.8,550.7,217.2,548.9z"/>
	<path fill="#DB843D" d="M217.4,592.5l-9.1-1.2c-1.2,7.1-11.4,10.4-13,28.3c-0.1,1.1-3.9,29.8,5.1,21.1
		c5.5-5.3,3.8-28.6,15.6-33.5c1.6-1.3,2.5-1.6,3.3-2.1c2.4,5.1,6.1,12,7.2,24.5c0.1,0.7-1.3,14.1,1.9,16c0.9,0.5,3.1,0.8,4.3-0.9
		c6.2-8.9,2.6-33.8-1.7-43.2c-0.4-0.9-1-5.1-0.9-6.4c-5.7-3.4-10.9-2-12.6-2.8C217.4,592.4,217.4,592.4,217.4,592.5z"/>
	<g clip-path="url(#SVGID_4_)">
		<path fill-rule="evenodd" clip-rule="evenodd" fill="#814538" d="M205.4,625.9l-0.5,0.1c-1.9,0.3-4.9,0.2-7.3-0.6
			c-1.7-0.6-3.1-1.5-3.5-2.8l-1.1,0.2c0.5,1.7,2.1,2.8,4.2,3.5c2.6,0.8,5.8,1,7.8,0.6l0.5-0.1L205.4,625.9z"/>
		<path fill-rule="evenodd" clip-rule="evenodd" fill="#814538" d="M205,628.2l-0.5,0.1c-1.9,0.3-4.9,0.2-7.3-0.6
			c-1.7-0.6-3.1-1.5-3.5-2.8l-1.1,0.2c0.5,1.7,2.1,2.8,4.2,3.5c2.6,0.8,5.8,1,7.8,0.6l0.5-0.1L205,628.2z"/>
		<path fill-rule="evenodd" clip-rule="evenodd" fill="#814538" d="M205.1,630.9l-0.5,0.1c-2.1,0.4-5.4,0.2-8-0.6l0,0
			c-1.9-0.6-3.4-1.6-3.8-3.1l-1.1,0.2c0.5,1.9,2.3,3.1,4.6,3.8l0,0c2.8,0.9,6.4,1.1,8.6,0.7l0.5-0.1L205.1,630.9z"/>
		<path fill-rule="evenodd" clip-rule="evenodd" fill="#814538" d="M205.4,633.9l-0.5,0.1c-2.1,0.4-5.4,0.2-8-0.6h0
			c-1.9-0.6-3.4-1.6-3.8-3.1l-1.1,0.2c0.5,1.9,2.3,3.1,4.6,3.8l0,0c2.8,0.9,6.4,1.1,8.6,0.7l0.5-0.1L205.4,633.9z"/>
		<path fill-rule="evenodd" clip-rule="evenodd" fill="#814538" d="M205.8,637.5l-0.5,0.1c-2.1,0.4-5.4,0.2-8-0.6l0,0
			c-1.9-0.6-3.4-1.6-3.8-3.1l-1.1,0.2c0.5,1.9,2.3,3.1,4.6,3.8v0c2.8,0.9,6.4,1.1,8.6,0.7l0.5-0.1L205.8,637.5z"/>
		<path fill-rule="evenodd" clip-rule="evenodd" fill="#814538" d="M225.3,628.6l0.5,0.1c1.8,0.5,4.8,0.6,7.3,0
			c1.7-0.4,3.2-1.2,3.6-2.5l1,0.3c-0.6,1.7-2.3,2.6-4.4,3.2c-2.6,0.6-5.8,0.5-7.8,0l-0.5-0.1L225.3,628.6z"/>
		<path fill-rule="evenodd" clip-rule="evenodd" fill="#814538" d="M225.5,630.9l0.5,0.1c1.8,0.5,4.8,0.6,7.3,0
			c1.7-0.4,3.2-1.2,3.6-2.5l1,0.3c-0.6,1.7-2.3,2.6-4.4,3.2c-2.6,0.6-5.8,0.5-7.8,0l-0.5-0.1L225.5,630.9z"/>
		<path fill-rule="evenodd" clip-rule="evenodd" fill="#814538" d="M225.3,633.6l0.5,0.1c2,0.5,5.4,0.6,8.1,0h0
			c1.9-0.5,3.5-1.4,4-2.8l1,0.3c-0.6,1.8-2.5,2.9-4.8,3.4v0c-2.9,0.7-6.4,0.6-8.6,0l-0.5-0.1L225.3,633.6z"/>
		<path fill-rule="evenodd" clip-rule="evenodd" fill="#814538" d="M224.8,636.5l0.5,0.1c2,0.5,5.4,0.6,8.1,0l0,0
			c1.9-0.5,3.5-1.4,4-2.8l1,0.3c-0.6,1.8-2.5,2.9-4.8,3.4l0,0c-2.9,0.7-6.4,0.6-8.6,0l-0.5-0.1L224.8,636.5z"/>
		<path fill-rule="evenodd" clip-rule="evenodd" fill="#814538" d="M224.2,640.1l0.5,0.1c2,0.5,5.4,0.6,8.1,0h0
			c1.9-0.5,3.5-1.4,4-2.8l1,0.3c-0.6,1.8-2.5,2.9-4.8,3.4l0,0c-2.9,0.7-6.4,0.6-8.6,0l-0.5-0.1L224.2,640.1z"/>
	</g>
	<path fill-rule="evenodd" clip-rule="evenodd" fill="#393738" d="M204.5,593.4c-3.2-2.1-2.4-7.1,0.9-7.5
		c9.3-0.5,18.6,2.6,28.6,4.1c2.8,1.5,2.4,6.5,0.1,7.5C228.1,599.2,214.6,594.8,204.5,593.4z"/>
	<path fill-rule="evenodd" clip-rule="evenodd" fill="#202020" d="M339.5,518.9l-3.7,1.3c-0.7,0.2-1.1,1-0.9,1.7l1.9,5.6
		c0.2,0.7,1,1.1,1.7,0.8l3.7-1.3c0.7-0.2,1.1-1,0.9-1.7l-1.9-5.6C341,519.1,340.2,518.7,339.5,518.9z"/>
	<path fill-rule="evenodd" clip-rule="evenodd" fill="#202020" d="M327.8,522.9l-3.8,0.5c-0.7,0.1-1.3,0.8-1.2,1.5l0.7,5.9
		c0.1,0.7,0.8,1.3,1.5,1.2l3.8-0.5c0.7-0.1,1.3-0.8,1.2-1.5l-0.7-5.9C329.2,523.3,328.5,522.8,327.8,522.9z"/>
	<path fill-rule="evenodd" clip-rule="evenodd" fill="#5E4320" d="M253.3,596.5c-17.1,1.8-25.8,3.8-43,0.8c-5.4-0.9-16.1-2.8-19-6.4
		c-8.3,3.4-4.5,11,1.2,13.5c16.5,7.3,59,7.3,59.6-0.4C252.2,602.1,253.3,599.1,253.3,596.5z"/>
	<path fill-rule="evenodd" clip-rule="evenodd" fill="#E3E3E2" d="M286.1,429.4c2.1,0,3.8-1.7,3.8-3.8c0-2.1-1.7-3.8-3.8-3.8
		c-2.1,0-3.8,1.7-3.8,3.8C282.3,427.7,284,429.4,286.1,429.4z"/>
	<path fill-rule="evenodd" clip-rule="evenodd" fill="#6C8FA2" d="M225,761c-11.2,0.3-10.5,5.1-4.7,16.1
		c4.5,8.3-22.5,25.2,22.4,29.5c17,1.6,35.3,30.1,33.1,3c-0.7-9-3.8-13.2,2.6-24.3C284.8,774,244,760.5,225,761z"/>
	<path fill-rule="evenodd" clip-rule="evenodd" fill="#6C8FA2" d="M336.7,762c11.2,0.3,10.5,5.1,4.7,16.1
		c-4.5,8.3,22.5,25.2-22.4,29.5c-17,1.6-35.3,30.1-33.1,3c0.7-9,3.8-13.2-2.6-24.3C276.8,775,317.6,761.5,336.7,762z"/>
	<path fill-rule="evenodd" clip-rule="evenodd" fill="#614833" d="M201.5,95.8l-34.1,43.3c38.1,16.3,117.9,16.6,149.1-42.4
		c-1-6.6-10.5,0-17.9,2.2C276.8,105.3,223.4,106.4,201.5,95.8z"/>
	<path fill-rule="evenodd" clip-rule="evenodd" fill="#A8A53A" d="M366.8,105.8l-177.6,4c-9,3.8-25.5,8.6-31.3,16.4
		c-4,5.4-2.9,12.5,18.1,13.9c34,2.3,105.5,2.3,133.2-5.8c19.1-5.6,45.4-10.8,55.5-26.2C364.9,107.8,366,107.3,366.8,105.8z"/>
	<path fill-rule="evenodd" clip-rule="evenodd" fill="#EAE553" d="M184.7,107.2c-18.8,8.1-58.8,27.2-11.7,30.4
		c34.1,2.3,108.5-4.8,136.3-12.9c16.5-4.8,45.6-4.1,59.7-13.8c1.6-0.7,2.9-1.5,4-2.4c1.6-1.2,9.7-0.5,10.4-8c0-2.2-6.7-6.3-6.8-8.5
		C372.9,41,328.7-0.2,270.4,1.8C184.6,4.7,180.2,51.9,184.7,107.2z"/>
	<path fill-rule="evenodd" clip-rule="evenodd" fill="#DACB45" d="M219.9,21.6c8.5,4.4,8.5,48.7,6.6,61.9
		c-1.9,12.8-23.5,19.8-26.3,11.1c-3-9.4,8.3-38.9,10-45.1C213.4,38.1,217.8,20.6,219.9,21.6z"/>
	<path fill-rule="evenodd" clip-rule="evenodd" fill="#DACB45" d="M249.2,3.6C270,6,292-2.8,317.1,24.8c33.3,36.7,26.3,76-28.4,75.2
		c-10.5-0.2-70.7,8-16.2,5.8c61.5-2.6,82.7,10.1-3.2,20.4c-33.7,4-69.2,4.3-102.1-10.6c-16.4,8.8-28.6,19.7,5.9,22
		c34.1,2.3,108.5-4.8,136.3-12.9c16.5-4.8,45.6-4.1,59.7-13.8c1.6-0.7,2.9-1.5,4-2.4c1.6-1.2,9.7-0.5,10.4-8c0-2.2-6.7-6.3-6.8-8.5
		C372.9,41,328.7-0.2,270.4,1.8C262.7,2.1,255.7,2.7,249.2,3.6z"/>
	<path fill-rule="evenodd" clip-rule="evenodd" fill="#DACB45" d="M255.3,18.6c9.2,4.4,16.9,48.7,17.3,61.9
		c0.3,12.8-20.1,19.8-24.4,11.1c-4.7-9.4,1.6-38.9,2.3-45.1C251.6,35.1,253,17.5,255.3,18.6z"/>
	<path fill-rule="evenodd" clip-rule="evenodd" fill="#DACB45" d="M289,17.5c-6.3,7.2,9.9,48.5,16.5,60.1
		c6.4,11.2,29.1,9.8,28.5,0.7c-0.6-9.9-22-33.2-25.8-38.3C301,30.4,290.5,15.7,289,17.5z"/>
	<path fill-rule="evenodd" clip-rule="evenodd" fill="#DACB45" d="M364.9,92.6c0.1-4-67.6,7.7-119.5,12.4
		c-29.9,2.7-54.2,0.2-58.3-1.5c-5.5,0-8.7,4-4.8,6.8c12.9,3.9,53.2,1.9,65.4,0.5C265.2,108.8,364.3,95.9,364.9,92.6z"/>
	<path fill-rule="evenodd" clip-rule="evenodd" fill="#E3CEAA" d="M347.3,523.5c0,1.6-0.1,0.8-0.3,1.6c-1.9,1-3.8,5.3-11.5,8.7
		c-4.7,2.1,0.1-1-3.8,2.5c-2.3,1.3-3.9,7.6,2.4,10.2c4.8,2,1,2.7,6.4,0.4c-2,1.9-6.3,10.7,0.6,14c5.2,2.4,6.4,2.2,8.9,0.1
		c1.3,1-5.1,7.1,2.4,10.7c7.4,3.5,17.8-6.7,24.9-13.5c4-3.8,7.9-7.8,11.4-11.8c4.6-5.2-1.5-29.8-18.7-29.7c-4.1,0-8.5-1.7-19-6.1
		c-3.6-1.5-7.7-5.8-12.5-1.1c-4.4,4.3,4.6,11.2,7.9,13.7L347.3,523.5z"/>
	<path fill-rule="evenodd" clip-rule="evenodd" fill="#E3CEAA" d="M202.3,203.5c-4.5-19.9,40.7-31.1,49.7-9.8
		C244.5,192.3,215.8,193.3,202.3,203.5z"/>
	<path fill-rule="evenodd" clip-rule="evenodd" fill="#E3CEAA" d="M300.9,195.8c-4.5-19.9,40.7-31.1,49.7-9.8
		C343.1,184.6,314.4,185.6,300.9,195.8z"/>
	<path fill-rule="evenodd" clip-rule="evenodd" fill="#AE9164" d="M207.3,192.1c7.9-4.2,18.7-7.4,31-6.3c-2.5-3.2-9.4-6.2-15.3-5.3
		C211.2,182.6,209,187.7,207.3,192.1z"/>
	<path fill-rule="evenodd" clip-rule="evenodd" fill="#AE9164" d="M337.1,181.1c-8.1-1.6-18.3-1.4-28.9,2.9c1.4-3.6,7.6-7.3,12-7.7
		C331.2,175,334.4,177.7,337.1,181.1z"/>
	
		<path fill-rule="evenodd" clip-rule="evenodd" fill="none" stroke="#A68F6A" stroke-width="1.6801" stroke-linecap="round" stroke-linejoin="round" stroke-miterlimit="22.9256" d="
		M254.3,274.3c12.6,3.5,52.5,0.5,57.4-13.7c0.8-2.2,1.2-3.2,1.2-5.6"/>
	<path fill-rule="evenodd" clip-rule="evenodd" fill="#A68F6A" d="M261.1,269.7c-6.6,2.3-9.1,5.8-9.6,12.5
		C245.1,275.1,253,264.9,261.1,269.7z"/>
	<polygon fill-rule="evenodd" clip-rule="evenodd" fill="#917A50" points="101.3,306 80.6,308.5 88.2,772.6 110,772.6 	"/>
	<polygon fill-rule="evenodd" clip-rule="evenodd" fill="#5A4A30" points="104,306 89.8,308.5 95.1,772.6 110,772.6 	"/>
	<path fill-rule="evenodd" clip-rule="evenodd" fill="#393738" d="M110,751.4c-7.5,0.5-14.9,1.1-22.4,1.6
		c-8.4,14.5-16.7,29.1-25.1,43.6c-2,11.4-1.3,27.3,0.5,39.3c0.4,8,80.9,2.9,84.5-0.5c2.2-12.7,0-33.6-3.3-41.4
		C132.9,779.7,121.4,765.6,110,751.4L110,751.4z M89.1,792.9l29.4-1.7c9.7-0.6,18.1,6.9,18.7,16.7l0,0c0.6,9.7-6.9,18.1-16.7,18.7
		l-29.4,1.7c-9.7,0.6-18.1-6.9-18.7-16.7l0,0C71.9,801.8,79.4,793.4,89.1,792.9z"/>
	<path fill-rule="evenodd" clip-rule="evenodd" fill="#949697" d="M18.4,299.4c8.5,14.9,37.8,16.7,56.7,18.5
		c1.5,18.2-2.5,23.3-1.1,41.4c4.7,7.3,32.9,3.6,37.1-1.1c-1.8-17.8,1.8-25.3,0-43.1c17.8-5.5,43.3-13.1,53.4-26.7
		c-8.4-52-56-141-87.2-138.5C48.9,156.6,7.5,266.7,18.4,299.4z"/>
	<path fill-rule="evenodd" clip-rule="evenodd" fill="#818486" d="M18.4,299.4c8.5,14.9,37.8,16.7,56.7,18.5
		c1.5,18.2-2.5,23.3-1.1,41.4c4.7,7.3,32.9,3.6,37.1-1.1c-1.8-17.8,1.8-25.3,0-43.1c17.8-5.5,43.3-13.1,53.4-26.7
		c-0.9-5.6-2.3-11.6-4-17.9c-35.3,5-46.2,38.8-73.7,30.7c-62.4-18.4-25.5-100-3.1-150.6c-2.2-0.6-4.4-0.9-6.5-0.7
		C48.9,156.6,7.5,266.7,18.4,299.4z"/>
	<path fill-rule="evenodd" clip-rule="evenodd" fill="#E3CEAA" d="M116.3,437.8c-14-3.4-48.7-5.4-49.8,10.9
		c-6.9,4.5,9.5,8.2,2.5,12.5c-4.3,2.6-2.8,8,5.4,9.1c0.7,2.6-16.7,19.6,22.1,17.4c11.3-0.6,33.4-11.4,22-18.1
		c2.5-0.7,16.1-5,2.2-16.4c-4.4-3.6,4.3,7.5,5.6-5C127,441.7,122.8,439.4,116.3,437.8z"/>
</g>
</svg>
