<?xml version="1.0" encoding="utf-8"?>
<!-- Generator: Adobe Illustrator 18.0.0, SVG Export Plug-In . SVG Version: 6.00 Build 0)  -->
<!DOCTYPE svg PUBLIC "-//W3C//DTD SVG 1.1//EN" "http://www.w3.org/Graphics/SVG/1.1/DTD/svg11.dtd">
<svg version="1.1" id="Calque_1" xmlns="http://www.w3.org/2000/svg" xmlns:xlink="http://www.w3.org/1999/xlink" x="0px" y="0px"
	 viewBox="0 0 1417.3 1700.8" enable-background="new 0 0 1417.3 1700.8" xml:space="preserve">
<g>

	
		<linearGradient id="SVGID_3_" gradientUnits="userSpaceOnUse" x1="-27.4493" y1="1015.5242" x2="1438.4685" y2="1015.5242" gradientTransform="matrix(0.9809 9.274610e-002 0 1 12.5426 -100.0367)">
		<stop  offset="0" style="stop-color:#AD7D3B"/>
		<stop  offset="1.000000e-002" style="stop-color:#845515"/>
		<stop  offset="5.000000e-002" style="stop-color:#AD7D3B"/>
		<stop  offset="0.5" style="stop-color:#EDBB74"/>
		<stop  offset="0.95" style="stop-color:#AD7D3B"/>
		<stop  offset="0.99" style="stop-color:#845515"/>
		<stop  offset="1" style="stop-color:#AD7D3B"/>
	</linearGradient>
	<polygon fill-rule="evenodd" clip-rule="evenodd" fill="url(#SVGID_3_)" points="-12.3,1827.7 1425.6,1518.6 1413.8,468.3 
		-1.3,-0.4 	"/>
	<path fill="#E5BB60" d="M220.3,1151.9l7.9-97l153-7l-160.5-3.2L220.3,1151.9z M223.2,446.6l7.8-93.6l151.6,27.3l-159.1-39
		L223.2,446.6z M281.4,470.7l-170.7-35.5l-0.5,109.4l8.5-97.5L281.4,470.7z M280.2,929.7l-171.8-9.9l-0.5,110.7l8.5-99.9
		L280.2,929.7z M106.8,1276.1l8.6-101.1l164.2-13.4l-172.3,3.1L106.8,1276.1z M1307.7,684l66.1,20l3.6,61.1l-0.7-66.7L1307.7,684z
		 M1332.5,681.4l-0.7-68.1l-72.1-17.7l69.1,23.4L1332.5,681.4z M1376.9,999.4l3.6,61.1l-0.7-67.2l-69.1-4L1376.9,999.4z
		 M1337.4,1135.7l-0.7-68.8l-72.4-1.4l69.3,7.9L1337.4,1135.7z M1378.5,1148.3l3.6,61.1l-0.7-67.5l-69.2,1.2L1378.5,1148.3z"/>
	
		<linearGradient id="SVGID_4_" gradientUnits="userSpaceOnUse" x1="-26.3382" y1="1285.8129" x2="1432.8352" y2="1285.8129" gradientTransform="matrix(0.9809 9.274610e-002 0 1 12.5426 -100.0367)">
		<stop  offset="0" style="stop-color:#7B4B12"/>
		<stop  offset="1.000000e-002" style="stop-color:#4F250F"/>
		<stop  offset="5.000000e-002" style="stop-color:#7B4B12"/>
		<stop  offset="0.5" style="stop-color:#BA8740"/>
		<stop  offset="0.95" style="stop-color:#7B4B12"/>
		<stop  offset="0.99" style="stop-color:#4F250F"/>
		<stop  offset="1" style="stop-color:#7B4B12"/>
	</linearGradient>
	<polygon fill-rule="evenodd" clip-rule="evenodd" fill="url(#SVGID_4_)" points="1422.2,1214.1 -9.1,1294.3 -9,1284.5 
		1422.1,1208.5 	"/>
	
		<linearGradient id="SVGID_5_" gradientUnits="userSpaceOnUse" x1="-25.5557" y1="1185.6089" x2="1432.0035" y2="1185.6089" gradientTransform="matrix(0.9809 9.274610e-002 0 1 12.5426 -100.0367)">
		<stop  offset="0" style="stop-color:#7B4B12"/>
		<stop  offset="1.000000e-002" style="stop-color:#4F250F"/>
		<stop  offset="5.000000e-002" style="stop-color:#7B4B12"/>
		<stop  offset="0.5" style="stop-color:#BA8740"/>
		<stop  offset="0.95" style="stop-color:#7B4B12"/>
		<stop  offset="0.99" style="stop-color:#4F250F"/>
		<stop  offset="1" style="stop-color:#7B4B12"/>
	</linearGradient>
	<polygon fill-rule="evenodd" clip-rule="evenodd" fill="url(#SVGID_5_)" points="1421.4,1141.1 -8.3,1166.8 -8.2,1157.1 
		1421.3,1135.6 	"/>
	
		<linearGradient id="SVGID_6_" gradientUnits="userSpaceOnUse" x1="-24.7755" y1="1085.6649" x2="1431.1735" y2="1085.6649" gradientTransform="matrix(0.9809 9.274610e-002 0 1 12.5426 -100.0367)">
		<stop  offset="0" style="stop-color:#7B4B12"/>
		<stop  offset="1.000000e-002" style="stop-color:#4F250F"/>
		<stop  offset="5.000000e-002" style="stop-color:#7B4B12"/>
		<stop  offset="0.5" style="stop-color:#BA8740"/>
		<stop  offset="0.95" style="stop-color:#7B4B12"/>
		<stop  offset="0.99" style="stop-color:#4F250F"/>
		<stop  offset="1" style="stop-color:#7B4B12"/>
	</linearGradient>
	<polygon fill-rule="evenodd" clip-rule="evenodd" fill="url(#SVGID_6_)" points="1420.6,1068.3 -7.5,1039.8 -7.5,1030 
		1420.5,1062.7 	"/>
	
		<linearGradient id="SVGID_7_" gradientUnits="userSpaceOnUse" x1="-23.9978" y1="985.9855" x2="1430.3448" y2="985.9855" gradientTransform="matrix(0.9809 9.274610e-002 0 1 12.5426 -100.0367)">
		<stop  offset="0" style="stop-color:#7B4B12"/>
		<stop  offset="1.000000e-002" style="stop-color:#4F250F"/>
		<stop  offset="5.000000e-002" style="stop-color:#7B4B12"/>
		<stop  offset="0.5" style="stop-color:#BA8740"/>
		<stop  offset="0.95" style="stop-color:#7B4B12"/>
		<stop  offset="0.99" style="stop-color:#4F250F"/>
		<stop  offset="1" style="stop-color:#7B4B12"/>
	</linearGradient>
	<polygon fill-rule="evenodd" clip-rule="evenodd" fill="url(#SVGID_7_)" points="1419.8,995.6 -6.8,913.1 -6.7,903.4 1419.7,990 	
		"/>
	
		<linearGradient id="SVGID_8_" gradientUnits="userSpaceOnUse" x1="-23.2224" y1="884.4957" x2="1429.5176" y2="884.4957" gradientTransform="matrix(0.9809 9.274610e-002 0 1 12.5426 -100.0367)">
		<stop  offset="0" style="stop-color:#7B4B12"/>
		<stop  offset="1.000000e-002" style="stop-color:#4F250F"/>
		<stop  offset="5.000000e-002" style="stop-color:#7B4B12"/>
		<stop  offset="0.5" style="stop-color:#BA8740"/>
		<stop  offset="0.95" style="stop-color:#7B4B12"/>
		<stop  offset="0.99" style="stop-color:#4F250F"/>
		<stop  offset="1" style="stop-color:#7B4B12"/>
	</linearGradient>
	<polygon fill-rule="evenodd" clip-rule="evenodd" fill="url(#SVGID_8_)" points="1418.9,923 -6,786.8 -6,777.2 1418.9,917.4 	"/>
	
		<linearGradient id="SVGID_9_" gradientUnits="userSpaceOnUse" x1="-22.4493" y1="785.3344" x2="1428.6917" y2="785.3344" gradientTransform="matrix(0.9809 9.274610e-002 0 1 12.5426 -100.0367)">
		<stop  offset="0" style="stop-color:#7B4B12"/>
		<stop  offset="1.000000e-002" style="stop-color:#4F250F"/>
		<stop  offset="5.000000e-002" style="stop-color:#7B4B12"/>
		<stop  offset="0.5" style="stop-color:#BA8740"/>
		<stop  offset="0.95" style="stop-color:#7B4B12"/>
		<stop  offset="0.99" style="stop-color:#4F250F"/>
		<stop  offset="1" style="stop-color:#7B4B12"/>
	</linearGradient>
	<polygon fill-rule="evenodd" clip-rule="evenodd" fill="url(#SVGID_9_)" points="1418.1,850.5 -5.3,660.9 -5.2,651.3 1418.1,845 	
		"/>
	
		<linearGradient id="SVGID_10_" gradientUnits="userSpaceOnUse" x1="-21.6786" y1="686.4284" x2="1427.8673" y2="686.4284" gradientTransform="matrix(0.9809 9.274610e-002 0 1 12.5426 -100.0367)">
		<stop  offset="0" style="stop-color:#7B4B12"/>
		<stop  offset="1.000000e-002" style="stop-color:#4F250F"/>
		<stop  offset="5.000000e-002" style="stop-color:#7B4B12"/>
		<stop  offset="0.5" style="stop-color:#BA8740"/>
		<stop  offset="0.95" style="stop-color:#7B4B12"/>
		<stop  offset="0.99" style="stop-color:#4F250F"/>
		<stop  offset="1" style="stop-color:#7B4B12"/>
	</linearGradient>
	<polygon fill-rule="evenodd" clip-rule="evenodd" fill="url(#SVGID_10_)" points="1417.3,778.2 -4.5,535.4 -4.5,525.8 
		1417.2,772.6 	"/>
	
		<linearGradient id="SVGID_11_" gradientUnits="userSpaceOnUse" x1="-20.9103" y1="587.7743" x2="1427.0444" y2="587.7743" gradientTransform="matrix(0.9809 9.274610e-002 0 1 12.5426 -100.0367)">
		<stop  offset="0" style="stop-color:#7B4B12"/>
		<stop  offset="1.000000e-002" style="stop-color:#4F250F"/>
		<stop  offset="5.000000e-002" style="stop-color:#7B4B12"/>
		<stop  offset="0.5" style="stop-color:#BA8740"/>
		<stop  offset="0.95" style="stop-color:#7B4B12"/>
		<stop  offset="0.99" style="stop-color:#4F250F"/>
		<stop  offset="1" style="stop-color:#7B4B12"/>
	</linearGradient>
	<polygon fill-rule="evenodd" clip-rule="evenodd" fill="url(#SVGID_11_)" points="1416.5,706 -3.8,410.3 -3.7,400.7 1416.4,700.4 	
		"/>
	
		<linearGradient id="SVGID_12_" gradientUnits="userSpaceOnUse" x1="-20.1443" y1="489.3747" x2="1426.223" y2="489.3747" gradientTransform="matrix(0.9809 9.274610e-002 0 1 12.5426 -100.0367)">
		<stop  offset="0" style="stop-color:#7B4B12"/>
		<stop  offset="1.000000e-002" style="stop-color:#4F250F"/>
		<stop  offset="5.000000e-002" style="stop-color:#7B4B12"/>
		<stop  offset="0.5" style="stop-color:#BA8740"/>
		<stop  offset="0.95" style="stop-color:#7B4B12"/>
		<stop  offset="0.99" style="stop-color:#4F250F"/>
		<stop  offset="1" style="stop-color:#7B4B12"/>
	</linearGradient>
	<polygon fill-rule="evenodd" clip-rule="evenodd" fill="url(#SVGID_12_)" points="1415.7,633.9 -3,285.6 -3,276 1415.6,628.3 	"/>
	
		<linearGradient id="SVGID_13_" gradientUnits="userSpaceOnUse" x1="-19.3806" y1="391.2263" x2="1425.403" y2="391.2263" gradientTransform="matrix(0.9809 9.274610e-002 0 1 12.5426 -100.0367)">
		<stop  offset="0" style="stop-color:#7B4B12"/>
		<stop  offset="1.000000e-002" style="stop-color:#4F250F"/>
		<stop  offset="5.000000e-002" style="stop-color:#7B4B12"/>
		<stop  offset="0.5" style="stop-color:#BA8740"/>
		<stop  offset="0.95" style="stop-color:#7B4B12"/>
		<stop  offset="0.99" style="stop-color:#4F250F"/>
		<stop  offset="1" style="stop-color:#7B4B12"/>
	</linearGradient>
	<polygon fill-rule="evenodd" clip-rule="evenodd" fill="url(#SVGID_13_)" points="1414.9,561.9 -2.3,161.2 -2.2,151.7 
		1414.8,556.4 	"/>
	
		<linearGradient id="SVGID_14_" gradientUnits="userSpaceOnUse" x1="24.4569" y1="436.263" x2="1451.0188" y2="436.263" gradientTransform="matrix(0.9809 9.274610e-002 0 1 12.5426 -100.0367)">
		<stop  offset="0" style="stop-color:#7B4B12"/>
		<stop  offset="1.000000e-002" style="stop-color:#4F250F"/>
		<stop  offset="5.000000e-002" style="stop-color:#7B4B12"/>
		<stop  offset="0.5" style="stop-color:#BA8740"/>
		<stop  offset="0.95" style="stop-color:#7B4B12"/>
		<stop  offset="0.99" style="stop-color:#4F250F"/>
		<stop  offset="1" style="stop-color:#7B4B12"/>
	</linearGradient>
	<path fill-rule="evenodd" clip-rule="evenodd" fill="url(#SVGID_14_)" d="M102.7,302.3l8.6,2.1l0.5-110.9l-8.6-2.4L102.7,302.3z
		 M320,356.2l7.5,1.9l0.2-103.6l-7.5-2.1L320,356.2z M510.1,403.4l6.6,1.6l0-97.2l-6.6-1.9L510.1,403.4z M677.6,445l5.8,1.5
		l-0.2-91.5l-5.8-1.7L677.6,445z M826.4,482l5.2,1.3l-0.4-86.4l-5.2-1.5L826.4,482z M959.5,515.1l4.7,1.2l-0.5-81.9L959,433
		L959.5,515.1z M1079.2,544.8l4.2,1l-0.6-77.8l-4.2-1.2L1079.2,544.8z M1187.4,571.7l3.8,0.9l-0.6-74.1l-3.8-1.1L1187.4,571.7z
		 M1285.8,596.1l3.5,0.9l-0.7-70.8l-3.5-1L1285.8,596.1z M1374.8,550.6l0.7,67.8l3.2,0.8l-0.7-67.7L1374.8,550.6z"/>
	
		<linearGradient id="SVGID_15_" gradientUnits="userSpaceOnUse" x1="68.4335" y1="539.1597" x2="1477.6056" y2="539.1597" gradientTransform="matrix(0.9809 9.274610e-002 0 1 12.5426 -100.0367)">
		<stop  offset="0" style="stop-color:#7B4B12"/>
		<stop  offset="1.000000e-002" style="stop-color:#4F250F"/>
		<stop  offset="5.000000e-002" style="stop-color:#7B4B12"/>
		<stop  offset="0.5" style="stop-color:#BA8740"/>
		<stop  offset="0.95" style="stop-color:#7B4B12"/>
		<stop  offset="0.99" style="stop-color:#4F250F"/>
		<stop  offset="1" style="stop-color:#7B4B12"/>
	</linearGradient>
	<path fill-rule="evenodd" clip-rule="evenodd" fill="url(#SVGID_15_)" d="M214.7,446.8l8.1,1.7l0.3-107.4l-8.1-2L214.7,446.8z
		 M418,489.7l7,1.5l0.1-100.5l-7-1.7L418,489.7z M596.5,527.4l6.2,1.3l-0.1-94.5l-6.2-1.5L596.5,527.4z M754.5,560.7l5.5,1.2
		l-0.3-89.1l-5.5-1.4L754.5,560.7z M895.2,590.4l4.9,1l-0.4-84.3l-4.9-1.2L895.2,590.4z M1021.5,617.1l4.4,0.9l-0.5-80l-4.4-1.1
		L1021.5,617.1z M1135.3,641.1l4,0.8l-0.6-76.1l-4-1L1135.3,641.1z M1238.5,662.9l3.7,0.8l-0.7-72.5l-3.6-0.9L1238.5,662.9z
		 M1331.8,613.3l0.7,69.4l3.3,0.7l-0.7-69.3L1331.8,613.3z"/>
	
		<linearGradient id="SVGID_16_" gradientUnits="userSpaceOnUse" x1="67.3528" y1="731.2526" x2="1479.4482" y2="731.2526" gradientTransform="matrix(0.9809 9.274610e-002 0 1 12.5426 -100.0367)">
		<stop  offset="0" style="stop-color:#7B4B12"/>
		<stop  offset="1.000000e-002" style="stop-color:#4F250F"/>
		<stop  offset="5.000000e-002" style="stop-color:#7B4B12"/>
		<stop  offset="0.5" style="stop-color:#BA8740"/>
		<stop  offset="0.95" style="stop-color:#7B4B12"/>
		<stop  offset="0.99" style="stop-color:#4F250F"/>
		<stop  offset="1" style="stop-color:#7B4B12"/>
	</linearGradient>
	<path fill-rule="evenodd" clip-rule="evenodd" fill="url(#SVGID_16_)" d="M213.9,681.1l8.1,1.1l0.3-108.1l-8.1-1.4L213.9,681.1z
		 M417.8,708.9l7.1,1l0.1-101.1l-7.1-1.2L417.8,708.9z M596.8,733.2l6.2,0.8l-0.1-94.9l-6.2-1.1L596.8,733.2z M755.1,754.8l5.5,0.8
		l-0.3-89.5l-5.5-0.9L755.1,754.8z M896.1,773.9l4.9,0.7l-0.4-84.7l-4.9-0.8L896.1,773.9z M1022.6,791.2l4.4,0.6l-0.5-80.3l-4.4-0.8
		L1022.6,791.2z M1136.6,806.7l4,0.5l-0.6-76.4l-4-0.7L1136.6,806.7z M1239.9,820.7l3.7,0.5l-0.7-72.8l-3.7-0.6L1239.9,820.7z
		 M1333.3,763.8l0.7,69.7l3.3,0.5l-0.7-69.6L1333.3,763.8z"/>
	
		<linearGradient id="SVGID_17_" gradientUnits="userSpaceOnUse" x1="66.2664" y1="943.3387" x2="1481.2979" y2="943.3387" gradientTransform="matrix(0.9809 9.274610e-002 0 1 12.5426 -100.0367)">
		<stop  offset="0" style="stop-color:#7B4B12"/>
		<stop  offset="1.000000e-002" style="stop-color:#4F250F"/>
		<stop  offset="5.000000e-002" style="stop-color:#7B4B12"/>
		<stop  offset="0.5" style="stop-color:#BA8740"/>
		<stop  offset="0.95" style="stop-color:#7B4B12"/>
		<stop  offset="0.99" style="stop-color:#4F250F"/>
		<stop  offset="1" style="stop-color:#7B4B12"/>
	</linearGradient>
	<path fill-rule="evenodd" clip-rule="evenodd" fill="url(#SVGID_17_)" d="M213.2,916.8l8.1,0.5l0.4-108.7l-8.1-0.8L213.2,916.8z
		 M417.7,929.2l7.1,0.4l0.1-101.6l-7.1-0.7L417.7,929.2z M597.1,940.1l6.2,0.4l-0.1-95.4l-6.2-0.6L597.1,940.1z M755.7,949.7
		l5.5,0.3l-0.3-89.9l-5.5-0.5L755.7,949.7z M897,958.3l5,0.3l-0.4-85l-5-0.5L897,958.3z M1023.7,966l4.5,0.3l-0.5-80.6l-4.5-0.4
		L1023.7,966z M1137.9,972.9l4,0.2l-0.6-76.7l-4-0.4L1137.9,972.9z M1241.4,979.2l3.7,0.2l-0.7-73.1l-3.7-0.3L1241.4,979.2z
		 M1334.8,914.9l0.7,70l3.3,0.2l-0.7-69.8L1334.8,914.9z"/>
	
		<linearGradient id="SVGID_18_" gradientUnits="userSpaceOnUse" x1="65.1741" y1="1138.0601" x2="1483.1544" y2="1138.0601" gradientTransform="matrix(0.9809 9.274610e-002 0 1 12.5426 -100.0367)">
		<stop  offset="0" style="stop-color:#7B4B12"/>
		<stop  offset="1.000000e-002" style="stop-color:#4F250F"/>
		<stop  offset="5.000000e-002" style="stop-color:#7B4B12"/>
		<stop  offset="0.5" style="stop-color:#BA8740"/>
		<stop  offset="0.95" style="stop-color:#7B4B12"/>
		<stop  offset="0.99" style="stop-color:#4F250F"/>
		<stop  offset="1" style="stop-color:#7B4B12"/>
	</linearGradient>
	<path fill-rule="evenodd" clip-rule="evenodd" fill="url(#SVGID_18_)" d="M212.4,1153.8l8.1-0.1l0.4-109.3l-8.1-0.2L212.4,1153.8z
		 M417.5,1150.7l7.1-0.1l0.1-102.2l-7.1-0.1L417.5,1150.7z M597.3,1148l6.3-0.1l-0.1-95.9l-6.3-0.1L597.3,1148z M756.3,1145.6
		l5.6-0.1l-0.3-90.4l-5.6-0.1L756.3,1145.6z M897.9,1143.4l5-0.1l-0.4-85.4l-5-0.1L897.9,1143.4z M1024.8,1141.5l4.5-0.1l-0.5-81
		l-4.5-0.1L1024.8,1141.5z M1139.2,1139.8l4-0.1l-0.6-77l-4-0.1L1139.2,1139.8z M1242.8,1138.2l3.7-0.1l-0.7-73.4l-3.7-0.1
		L1242.8,1138.2z M1336.4,1066.6l0.7,70.2l3.3-0.1l-0.7-70.1L1336.4,1066.6z"/>
	
		<linearGradient id="SVGID_19_" gradientUnits="userSpaceOnUse" x1="64.076" y1="1333.1849" x2="1485.0178" y2="1333.1849" gradientTransform="matrix(0.9809 9.274610e-002 0 1 12.5426 -100.0367)">
		<stop  offset="0" style="stop-color:#7B4B12"/>
		<stop  offset="1.000000e-002" style="stop-color:#4F250F"/>
		<stop  offset="5.000000e-002" style="stop-color:#7B4B12"/>
		<stop  offset="0.5" style="stop-color:#BA8740"/>
		<stop  offset="0.95" style="stop-color:#7B4B12"/>
		<stop  offset="0.99" style="stop-color:#4F250F"/>
		<stop  offset="1" style="stop-color:#7B4B12"/>
	</linearGradient>
	<path fill-rule="evenodd" clip-rule="evenodd" fill="url(#SVGID_19_)" d="M211.6,1392.1l8.2-0.7l0.4-109.9l-8.2,0.5L211.6,1392.1z
		 M417.3,1373.3l7.1-0.6l0.1-102.7l-7.1,0.4L417.3,1373.3z M597.6,1356.9l6.3-0.6l-0.1-96.4l-6.3,0.4L597.6,1356.9z M757,1342.4
		l5.6-0.5l-0.3-90.8l-5.6,0.3L757,1342.4z M898.9,1329.4l5-0.5l-0.4-85.8l-5,0.3L898.9,1329.4z M1026,1317.8l4.5-0.4l-0.5-81.3
		l-4.5,0.3L1026,1317.8z M1140.5,1307.4l4-0.4l-0.6-77.3l-4,0.2L1140.5,1307.4z M1244.3,1297.9l3.7-0.3l-0.7-73.7l-3.7,0.2
		L1244.3,1297.9z M1337.9,1218.8l0.7,70.5l3.3-0.3l-0.7-70.3L1337.9,1218.8z"/>
	
		<linearGradient id="SVGID_20_" gradientUnits="userSpaceOnUse" x1="23.1539" y1="630.4201" x2="1452.7612" y2="630.4201" gradientTransform="matrix(0.9809 9.274610e-002 0 1 12.5426 -100.0367)">
		<stop  offset="0" style="stop-color:#7B4B12"/>
		<stop  offset="1.000000e-002" style="stop-color:#4F250F"/>
		<stop  offset="5.000000e-002" style="stop-color:#7B4B12"/>
		<stop  offset="0.5" style="stop-color:#BA8740"/>
		<stop  offset="0.95" style="stop-color:#7B4B12"/>
		<stop  offset="0.99" style="stop-color:#4F250F"/>
		<stop  offset="1" style="stop-color:#7B4B12"/>
	</linearGradient>
	<path fill-rule="evenodd" clip-rule="evenodd" fill="url(#SVGID_20_)" d="M101.5,544.2l8.7,1.5l0.5-111.6l-8.7-1.8L101.5,544.2z
		 M319.6,582.1l7.5,1.3l0.2-104.2l-7.5-1.6L319.6,582.1z M510.1,615.2l6.6,1.1l0-97.7l-6.6-1.4L510.1,615.2z M678.1,644.3l5.9,1
		l-0.2-91.9l-5.9-1.2L678.1,644.3z M827.2,670.2l5.2,0.9l-0.4-86.8l-5.2-1.1L827.2,670.2z M960.5,693.3l4.7,0.8l-0.5-82.2l-4.7-1
		L960.5,693.3z M1080.4,714.2l4.2,0.7l-0.6-78.1l-4.2-0.9L1080.4,714.2z M1188.8,733l3.8,0.7l-0.6-74.4l-3.8-0.8L1188.8,733z
		 M1287.3,750.1l3.5,0.6l-0.7-71l-3.5-0.7L1287.3,750.1z M1376.4,697.6l0.7,68.1l3.2,0.6l-0.7-67.9L1376.4,697.6z"/>
	
		<linearGradient id="SVGID_21_" gradientUnits="userSpaceOnUse" x1="21.8434" y1="825.5496" x2="1454.51" y2="825.5496" gradientTransform="matrix(0.9809 9.274610e-002 0 1 12.5426 -100.0367)">
		<stop  offset="0" style="stop-color:#7B4B12"/>
		<stop  offset="1.000000e-002" style="stop-color:#4F250F"/>
		<stop  offset="5.000000e-002" style="stop-color:#7B4B12"/>
		<stop  offset="0.5" style="stop-color:#BA8740"/>
		<stop  offset="0.95" style="stop-color:#7B4B12"/>
		<stop  offset="0.99" style="stop-color:#4F250F"/>
		<stop  offset="1" style="stop-color:#7B4B12"/>
	</linearGradient>
	<path fill-rule="evenodd" clip-rule="evenodd" fill="url(#SVGID_21_)" d="M100.4,787.6l8.7,0.9l0.5-112.3l-8.7-1.2L100.4,787.6z
		 M319.1,809.2l7.6,0.7l0.2-104.7l-7.6-1L319.1,809.2z M510.2,828l6.6,0.7l0-98.2l-6.6-0.9L510.2,828z M678.5,844.5l5.9,0.6
		l-0.2-92.4l-5.9-0.8L678.5,844.5z M828,859.3l5.2,0.5l-0.4-87.2l-5.2-0.7L828,859.3z M961.5,872.4l4.7,0.5l-0.5-82.6l-4.7-0.6
		L961.5,872.4z M1081.6,884.2l4.2,0.4l-0.6-78.5l-4.2-0.6L1081.6,884.2z M1190.2,894.9l3.8,0.4l-0.6-74.7l-3.8-0.5L1190.2,894.9z
		 M1288.8,904.6l3.5,0.3l-0.7-71.3l-3.5-0.5L1288.8,904.6z M1378,845.2l0.7,68.3l3.2,0.3l-0.7-68.2L1378,845.2z"/>
	
		<linearGradient id="SVGID_22_" gradientUnits="userSpaceOnUse" x1="20.5253" y1="1044.1237" x2="1456.2651" y2="1044.1237" gradientTransform="matrix(0.9809 9.274610e-002 0 1 12.5426 -100.0367)">
		<stop  offset="0" style="stop-color:#7B4B12"/>
		<stop  offset="1.000000e-002" style="stop-color:#4F250F"/>
		<stop  offset="5.000000e-002" style="stop-color:#7B4B12"/>
		<stop  offset="0.5" style="stop-color:#BA8740"/>
		<stop  offset="0.95" style="stop-color:#7B4B12"/>
		<stop  offset="0.99" style="stop-color:#4F250F"/>
		<stop  offset="1" style="stop-color:#7B4B12"/>
	</linearGradient>
	<path fill-rule="evenodd" clip-rule="evenodd" fill="url(#SVGID_22_)" d="M99.2,1032.5l8.7,0.2l0.5-112.9l-8.7-0.5L99.2,1032.5z
		 M318.6,1037.5l7.6,0.2l0.2-105.3l-7.6-0.4L318.6,1037.5z M510.2,1041.9l6.7,0.2l0-98.7l-6.6-0.4L510.2,1041.9z M679,1045.8
		l5.9,0.1l-0.2-92.8l-5.9-0.3L679,1045.8z M828.8,1049.2l5.2,0.1l-0.4-87.6l-5.2-0.3L828.8,1049.2z M962.6,1052.2l4.7,0.1l-0.5-83
		l-4.7-0.3L962.6,1052.2z M1082.9,1055l4.2,0.1l-0.6-78.8l-4.2-0.2L1082.9,1055z M1191.6,1057.5l3.8,0.1l-0.6-75l-3.8-0.2
		L1191.6,1057.5z M1290.3,1059.7l3.5,0.1l-0.7-71.6l-3.5-0.2L1290.3,1059.7z M1379.6,993.3l0.7,68.5l3.2,0.1l-0.7-68.4L1379.6,993.3
		z"/>
	
		<linearGradient id="SVGID_23_" gradientUnits="userSpaceOnUse" x1="19.1996" y1="1241.4386" x2="1458.0267" y2="1241.4386" gradientTransform="matrix(0.9809 9.274610e-002 0 1 12.5426 -100.0367)">
		<stop  offset="0" style="stop-color:#7B4B12"/>
		<stop  offset="1.000000e-002" style="stop-color:#4F250F"/>
		<stop  offset="5.000000e-002" style="stop-color:#7B4B12"/>
		<stop  offset="0.5" style="stop-color:#BA8740"/>
		<stop  offset="0.95" style="stop-color:#7B4B12"/>
		<stop  offset="0.99" style="stop-color:#4F250F"/>
		<stop  offset="1" style="stop-color:#7B4B12"/>
	</linearGradient>
	<path fill-rule="evenodd" clip-rule="evenodd" fill="url(#SVGID_23_)" d="M98.1,1278.8l8.8-0.5l0.5-113.6l-8.7,0.2L98.1,1278.8z
		 M318.2,1267.1l7.6-0.4l0.2-105.9l-7.6,0.1L318.2,1267.1z M510.3,1256.9l6.7-0.4l0-99.2l-6.7,0.1L510.3,1256.9z M679.4,1247.9
		l5.9-0.3l-0.2-93.3l-5.9,0.1L679.4,1247.9z M829.5,1240l5.3-0.3l-0.4-88l-5.2,0.1L829.5,1240z M963.6,1232.9l4.7-0.2l-0.5-83.3
		l-4.7,0.1L963.6,1232.9z M1084.1,1226.5l4.2-0.2l-0.6-79.1l-4.2,0.1L1084.1,1226.5z M1193,1220.7l3.8-0.2l-0.6-75.3l-3.8,0.1
		L1193,1220.7z M1291.8,1215.4l3.5-0.2l-0.7-71.8l-3.5,0.1L1291.8,1215.4z M1381.2,1141.9l0.7,68.8l3.2-0.2l-0.7-68.7L1381.2,1141.9
		z"/>
	<path fill-rule="evenodd" clip-rule="evenodd" fill="#683A0E" d="M1415.5,618.5l-1.7-150.2L1132.1,375
		c-19.8-26.4-45.3-36.6-67.4-28.1c-12.1-17.3-27.7-26.4-46-20.9c-2.3-1.5-4.6-2.7-7-3.5l-25.1-8.5c-8.6-2.9-16.7-0.8-23,5.1
		l-13.1-4.3c-23.6-28.5-53.9-41.4-80.5-34.8l0.6-5.5c3.1-26.6-6.6-57-24.5-74.1c-26.9-25.7-48.6-0.3-69.8,14.7
		c-28.3-62.8-82-101-129.8-94.3c-32.3,4.5-54.9,32.8-65,71.8L-1.3-0.4L-2.9,259c202.7,41.6,387.7,82.3,556,121.8
		c1.6,21.8,5,90.3,54.6,141l24.5,20.2c39.8,26.2,85.1,26.5,115.8-1.4c8.1,14.5,18.6,26.4,31.1,34.6c22.3,14.6,54.2,19.8,71,1.7
		c29,31.3,64.6,37.5,92.3,19c6.4,10,14.8,17,24.2,19l27.5,5.7c17.8,3.7,31.8-12.6,34.7-40.2c13.1,31.7,32.5,54.4,54,62.3
		c36.8,13.5,80.8-31.4,78.9-92.2c0.9-3.3,1.6-6.9,2.1-10.7C1257.1,567,1340.7,593.3,1415.5,618.5z"/>
	<polygon fill-rule="evenodd" clip-rule="evenodd" fill="#683A0E" points="-3.9,435.4 17.4,463.9 24.4,619.4 40.7,664.6 10.8,816.5 
		4.6,940.7 -7.3,992.5 	"/>
	<polygon fill-rule="evenodd" clip-rule="evenodd" fill="#683A0E" points="1420.4,1057.3 1416.1,1082.8 1414.7,1159 1409.8,1182.4 
		1422.2,1210.1 	"/>
	
		<linearGradient id="SVGID_24_" gradientUnits="userSpaceOnUse" x1="-65.0679" y1="1606.7157" x2="1448.1287" y2="1606.7157" gradientTransform="matrix(0.9809 9.274610e-002 0 1 12.5426 -100.0367)">
		<stop  offset="0" style="stop-color:#523A15"/>
		<stop  offset="3.000000e-002" style="stop-color:#36231A"/>
		<stop  offset="0.1" style="stop-color:#382915"/>
		<stop  offset="0.5" style="stop-color:#50381B"/>
		<stop  offset="0.9" style="stop-color:#382915"/>
		<stop  offset="0.9674" style="stop-color:#36231A"/>
		<stop  offset="1" style="stop-color:#523A15"/>
	</linearGradient>
	<polygon fill-rule="evenodd" clip-rule="evenodd" fill="url(#SVGID_24_)" points="-51.3,1836.1 1438.1,1515.9 1435.7,1305.8 
		-48.9,1460.9 	"/>
	
		<linearGradient id="SVGID_25_" gradientUnits="userSpaceOnUse" x1="-62.6003" y1="1395.7817" x2="1450.9413" y2="1395.7817" gradientTransform="matrix(0.9809 9.274610e-002 0 1 12.5426 -100.0367)">
		<stop  offset="0" style="stop-color:#6F5F37"/>
		<stop  offset="0.5" style="stop-color:#88744D"/>
		<stop  offset="1" style="stop-color:#6F5F37"/>
	</linearGradient>
	<polygon fill-rule="evenodd" clip-rule="evenodd" fill="url(#SVGID_25_)" points="1422.7,1258.1 1435.7,1305.8 -48.9,1460.9 
		-9.5,1371.1 -9.8,1412.3 1423,1281.6 	"/>
	<polygon fill-rule="evenodd" clip-rule="evenodd" fill="#878C75" points="751.7,1628.7 1037.1,1571.2 1047.6,1599.8 738.6,1666.3 	
		"/>
	<path fill-rule="evenodd" clip-rule="evenodd" fill="#26150C" d="M738.6,1666.3l13.1-37.5l-0.9-285.8l-13,35.8L738.6,1666.3z
		 M1035.4,1317l1.7,254.2l10.5,28.6l-1.7-253.3L1035.4,1317z"/>
	
		<linearGradient id="SVGID_26_" gradientUnits="userSpaceOnUse" x1="-65.0681" y1="1606.7374" x2="1444.1389" y2="1606.7374" gradientTransform="matrix(0.9809 9.274610e-002 0 1 12.5426 -100.0367)">
		<stop  offset="0" style="stop-color:#60461D"/>
		<stop  offset="3.000000e-002" style="stop-color:#433027"/>
		<stop  offset="0.1" style="stop-color:#463415"/>
		<stop  offset="0.5" style="stop-color:#5D4628"/>
		<stop  offset="0.9" style="stop-color:#463415"/>
		<stop  offset="0.9674" style="stop-color:#433027"/>
		<stop  offset="1" style="stop-color:#60461D"/>
	</linearGradient>
	<path fill-rule="evenodd" clip-rule="evenodd" fill="url(#SVGID_26_)" d="M730.9,1667.9l7.7-1.7l-0.9-287.5l-7.7,0.8L730.9,1667.9z
		 M549.4,1707l8.8-1.9l-0.3-307.5l-8.8,0.9L549.4,1707z M531.6,1710.8l8.9-1.9l-0.2-309.5l-8.9,0.9L531.6,1710.8z M513.6,1714.7
		l9-1.9l-0.1-311.5l-9,0.9L513.6,1714.7z M476.9,1722.6l9.3-2l0-315.5l-9.2,1L476.9,1722.6z M420.1,1734.8l9.6-2.1l0.2-321.8l-9.6,1
		L420.1,1734.8z M400.6,1739l9.8-2.1l0.3-323.9l-9.7,1L400.6,1739z M458.2,1726.6l9.4-2l0.1-317.6l-9.3,1L458.2,1726.6z
		 M439.3,1730.7l9.5-2l0.2-319.7l-9.5,1L439.3,1730.7z M495.4,1718.6l9.1-2l-0.1-313.5l-9.1,1L495.4,1718.6z M667.7,1681.5l8.1-1.7
		l-0.7-294.5l-8,0.8L667.7,1681.5z M566.9,1703.2l8.7-1.9l-0.3-305.6l-8.7,0.9L566.9,1703.2z M683.8,1678.1l8-1.7l-0.7-292.7
		l-7.9,0.8L683.8,1678.1z M715.4,1671.3l7.8-1.7l-0.8-289.3l-7.8,0.8L715.4,1671.3z M699.7,1674.7l7.9-1.7l-0.8-291l-7.9,0.8
		L699.7,1674.7z M651.4,1685l8.2-1.8L659,1387l-8.1,0.9L651.4,1685z M601.3,1695.8l8.5-1.8l-0.4-301.8l-8.4,0.9L601.3,1695.8z
		 M584.2,1699.5l8.6-1.8l-0.4-303.7l-8.6,0.9L584.2,1699.5z M618.2,1692.2l8.4-1.8l-0.5-300l-8.3,0.9L618.2,1692.2z M380.9,1743.2
		l9.9-2.1l0.4-326.1l-9.9,1L380.9,1743.2z M74.2,1809.1l12-2.6l1.7-359.9l-12,1.3L74.2,1809.1z M49.9,1814.4l12.2-2.6l1.8-362.6
		l-12.2,1.3L49.9,1814.4z M145.2,1793.9l11.5-2.5l1.4-352.1l-11.5,1.2L145.2,1793.9z M121.9,1798.9l11.7-2.5l1.5-354.7l-11.6,1.2
		L121.9,1798.9z M360.9,1747.5l10-2.2l0.5-328.3l-10,1L360.9,1747.5z M25.2,1819.7l12.4-2.7l2-365.3l-12.3,1.3L25.2,1819.7z
		 M-25.4,1830.6l12.8-2.7l2.2-370.9l-12.7,1.3L-25.4,1830.6z M-51.3,1836.1l13-2.8l2.4-373.7l-12.9,1.3L-51.3,1836.1z M0.1,1825.1
		l12.6-2.7l2.1-368.1l-12.5,1.3L0.1,1825.1z M98.2,1804l11.9-2.6l1.6-357.3l-11.8,1.2L98.2,1804z M299.3,1760.7l10.4-2.2l0.7-335.1
		l-10.4,1.1L299.3,1760.7z M320.1,1756.3l10.3-2.2l0.6-332.8l-10.3,1.1L320.1,1756.3z M340.7,1751.9l10.2-2.2l0.5-330.5l-10.1,1.1
		L340.7,1751.9z M168.1,1788.9l11.4-2.4l1.3-349.6l-11.3,1.2L168.1,1788.9z M278.2,1765.3l10.6-2.3l0.8-337.4l-10.5,1.1
		L278.2,1765.3z M190.8,1784.1l11.2-2.4l1.2-347.1l-11.2,1.2L190.8,1784.1z M213.1,1779.3l11-2.4l1.1-344.6l-11,1.1L213.1,1779.3z
		 M235.1,1774.5l10.9-2.3l1-342.2l-10.8,1.1L235.1,1774.5z M256.8,1769.9l10.7-2.3l0.9-339.8l-10.7,1.1L256.8,1769.9z M634.9,1688.6
		l8.3-1.8l-0.6-298.1l-8.2,0.9L634.9,1688.6z M1320.5,1541.2l4.6-1l-2.2-222.6l-4.6,0.5L1320.5,1541.2z M1329.7,1539.2l4.6-1
		l-2.2-221.6l-4.6,0.5L1329.7,1539.2z M1347.9,1535.3l4.5-1l-2.3-219.6l-4.5,0.5L1347.9,1535.3z M1356.9,1533.4l4.4-1l-2.3-218.6
		l-4.4,0.5L1356.9,1533.4z M1263.5,1553.5l4.9-1l-2.1-228.9l-4.9,0.5L1263.5,1553.5z M1338.9,1537.2l4.5-1l-2.3-220.6l-4.5,0.5
		L1338.9,1537.2z M1282.9,1549.3l4.8-1l-2.2-226.7l-4.8,0.5L1282.9,1549.3z M1273.2,1551.4l4.8-1l-2.2-227.8l-4.8,0.5L1273.2,1551.4
		z M1301.9,1545.2l4.7-1l-2.2-224.6l-4.7,0.5L1301.9,1545.2z M1292.4,1547.2l4.7-1l-2.2-225.7l-4.7,0.5L1292.4,1547.2z
		 M1311.2,1543.2l4.7-1l-2.2-223.6l-4.6,0.5L1311.2,1543.2z M1425.8,1518.6l4.1-0.9l-2.4-211l-4.1,0.4L1425.8,1518.6z
		 M1417.4,1520.4l4.2-0.9l-2.4-211.9l-4.2,0.4L1417.4,1520.4z M1431.6,1306.2l2.4,210.5l4.1-0.9l-2.4-210.1L1431.6,1306.2z
		 M1409,1522.2l4.2-0.9l-2.4-212.8l-4.2,0.4L1409,1522.2z M1374.6,1529.6l4.4-0.9l-2.3-216.6l-4.4,0.5L1374.6,1529.6z
		 M1365.8,1531.5l4.4-0.9l-2.3-217.6l-4.4,0.5L1365.8,1531.5z M1383.3,1527.7l4.3-0.9l-2.3-215.7l-4.3,0.5L1383.3,1527.7z
		 M1047.6,1599.9l5.9-1.3l-1.7-252.7l-5.9,0.6L1047.6,1599.9z M1391.9,1525.8l4.3-0.9l-2.3-214.7l-4.3,0.4L1391.9,1525.8z
		 M1400.5,1524l4.3-0.9l-2.3-213.8l-4.3,0.4L1400.5,1524z M1128.1,1582.6l5.5-1.2l-1.9-243.8l-5.5,0.6L1128.1,1582.6z M1116.9,1585
		l5.6-1.2l-1.9-245l-5.6,0.6L1116.9,1585z M1105.7,1587.4l5.6-1.2l-1.8-246.3l-5.6,0.6L1105.7,1587.4z M1150,1577.8l5.4-1.2
		l-1.9-241.4l-5.4,0.6L1150,1577.8z M1139.1,1580.2l5.5-1.2l-1.9-242.6l-5.5,0.6L1139.1,1580.2z M1094.3,1589.8l5.7-1.2l-1.8-247.5
		l-5.7,0.6L1094.3,1589.8z M1071.2,1594.8l5.8-1.3l-1.8-250.1l-5.8,0.6L1071.2,1594.8z M1059.4,1597.3l5.9-1.3l-1.7-251.4l-5.9,0.6
		L1059.4,1597.3z M1082.8,1592.3l5.8-1.2l-1.8-248.8l-5.7,0.6L1082.8,1592.3z M1160.9,1575.5l5.4-1.2l-2-240.2l-5.4,0.6
		L1160.9,1575.5z M1233.7,1559.9l5-1.1l-2.1-232.2l-5,0.5L1233.7,1559.9z M1253.7,1555.6l4.9-1.1l-2.1-230l-4.9,0.5L1253.7,1555.6z
		 M1243.7,1557.7l5-1.1l-2.1-231l-5,0.5L1243.7,1557.7z M1213.4,1564.2l5.1-1.1l-2.1-234.4l-5.1,0.5L1213.4,1564.2z M1223.6,1562
		l5.1-1.1l-2.1-233.3l-5.1,0.5L1223.6,1562z M1203.1,1566.4l5.2-1.1l-2-235.5l-5.2,0.5L1203.1,1566.4z M1182.2,1570.9l5.3-1.1
		l-2-237.8l-5.3,0.5L1182.2,1570.9z M1171.6,1573.2l5.3-1.1l-2-239l-5.3,0.6L1171.6,1573.2z M1192.7,1568.7l5.2-1.1l-2-236.7
		l-5.2,0.5L1192.7,1568.7z"/>
	
		<linearGradient id="SVGID_27_" gradientUnits="userSpaceOnUse" x1="467.4759" y1="1431.8724" x2="467.4759" y2="959.8393" gradientTransform="matrix(0.9809 9.274610e-002 0 1 12.5426 -100.0367)">
		<stop  offset="0" style="stop-color:#644826"/>
		<stop  offset="1" style="stop-color:#1F150D"/>
	</linearGradient>
	<polygon fill-rule="evenodd" clip-rule="evenodd" fill="url(#SVGID_27_)" points="208.1,1363.7 210.8,558 732.1,649.4 
		734.1,1320.6 	"/>
	
		<linearGradient id="SVGID_28_" gradientUnits="userSpaceOnUse" x1="471.1342" y1="900.4876" x2="471.1342" y2="1389.9532" gradientTransform="matrix(0.9809 9.274610e-002 0 1 12.5426 -100.0367)">
		<stop  offset="0" style="stop-color:#1D2119"/>
		<stop  offset="1" style="stop-color:#435B6A"/>
	</linearGradient>
	<polygon fill-rule="evenodd" clip-rule="evenodd" fill="url(#SVGID_28_)" points="232.2,1333.2 717.1,1297.9 715.4,670.1 
		234.5,590.2 	"/>
	
		<linearGradient id="SVGID_29_" gradientUnits="userSpaceOnUse" x1="471.1327" y1="1398.0446" x2="471.1327" y2="1243.0968" gradientTransform="matrix(0.9809 9.274610e-002 0 1 12.5426 -100.0367)">
		<stop  offset="0" style="stop-color:#909FA8"/>
		<stop  offset="1" style="stop-color:#5D676B"/>
	</linearGradient>
	<polygon fill-rule="evenodd" clip-rule="evenodd" fill="url(#SVGID_29_)" points="232.2,1333.2 717.1,1297.9 716.9,1208 
		283.7,1224.8 	"/>
	
		<linearGradient id="SVGID_30_" gradientUnits="userSpaceOnUse" x1="1204.2759" y1="1287.0917" x2="1204.2759" y2="941.3434" gradientTransform="matrix(0.9809 9.274610e-002 0 1 12.5426 -100.0367)">
		<stop  offset="0" style="stop-color:#644826"/>
		<stop  offset="1" style="stop-color:#1F150D"/>
	</linearGradient>
	<polygon fill-rule="evenodd" clip-rule="evenodd" fill="url(#SVGID_30_)" points="1048.3,1294.8 1044.3,704.1 1338,755.6 
		1343.3,1270.6 	"/>
	
		<linearGradient id="SVGID_31_" gradientUnits="userSpaceOnUse" x1="1205.7478" y1="897.9405" x2="1205.7478" y2="1257.1931" gradientTransform="matrix(0.9809 9.274610e-002 0 1 12.5426 -100.0367)">
		<stop  offset="0" style="stop-color:#1D2119"/>
		<stop  offset="1" style="stop-color:#435B6A"/>
	</linearGradient>
	<polygon fill-rule="evenodd" clip-rule="evenodd" fill="url(#SVGID_31_)" points="1061,1272.8 1333.2,1253 1328.3,772 
		1057.3,726.9 	"/>
	
		<linearGradient id="SVGID_32_" gradientUnits="userSpaceOnUse" x1="895.0621" y1="1344.7527" x2="895.0621" y2="952.3975" gradientTransform="matrix(0.9809 9.274610e-002 0 1 12.5426 -100.0367)">
		<stop  offset="0" style="stop-color:#D8A661"/>
		<stop  offset="1" style="stop-color:#683A0E"/>
	</linearGradient>
	<polygon fill-rule="evenodd" clip-rule="evenodd" fill="url(#SVGID_32_)" points="1048.3,1294.8 734.1,1320.6 732.7,861.5 
		1045.6,890.9 	"/>
	
		<linearGradient id="SVGID_33_" gradientUnits="userSpaceOnUse" x1="1207.3904" y1="1264.3318" x2="1207.3904" y2="1163.4702" gradientTransform="matrix(0.9809 9.274610e-002 0 1 12.5426 -100.0367)">
		<stop  offset="0" style="stop-color:#909FA8"/>
		<stop  offset="1" style="stop-color:#5D676B"/>
	</linearGradient>
	<polygon fill-rule="evenodd" clip-rule="evenodd" fill="url(#SVGID_33_)" points="1333.2,1253 1061,1272.8 1060.5,1194.8 
		1310.5,1185.1 	"/>
	
		<linearGradient id="SVGID_34_" gradientUnits="userSpaceOnUse" x1="897.5599" y1="1657.8763" x2="897.5599" y2="953.9495" gradientTransform="matrix(0.9809 9.274610e-002 0 1 12.5426 -100.0367)">
		<stop  offset="0" style="stop-color:#4A2E13"/>
		<stop  offset="0.3381" style="stop-color:#644826"/>
		<stop  offset="0.8629" style="stop-color:#4A2E13"/>
		<stop  offset="1" style="stop-color:#1A110A"/>
	</linearGradient>
	<polygon fill-rule="evenodd" clip-rule="evenodd" fill="url(#SVGID_34_)" points="751.7,1628.7 1037,1571.2 1031.7,764.3 
		748.8,722.4 	"/>
	<polygon fill-rule="evenodd" clip-rule="evenodd" fill="#23170E" points="779.4,770.2 1007.3,800.1 1009.7,1188 780.9,1196 	"/>
	
		<linearGradient id="SVGID_35_" gradientUnits="userSpaceOnUse" x1="900.0289" y1="1187.653" x2="900.0289" y2="948.2208" gradientTransform="matrix(0.9809 9.274610e-002 0 1 12.5426 -100.0367)">
		<stop  offset="1.182030e-002" style="stop-color:#4A2E13"/>
		<stop  offset="1" style="stop-color:#1A110A"/>
	</linearGradient>
	<polygon fill-rule="evenodd" clip-rule="evenodd" fill="url(#SVGID_35_)" points="789.5,785.9 790.9,1181.1 1001.2,1175 999,812.3 
			"/>
	
		<linearGradient id="SVGID_36_" gradientUnits="userSpaceOnUse" x1="901.1429" y1="1172.6415" x2="901.1429" y2="951.1536" gradientTransform="matrix(0.9809 9.274610e-002 0 1 12.5426 -100.0367)">
		<stop  offset="0" style="stop-color:#015596"/>
		<stop  offset="1" style="stop-color:#0E1C2C"/>
	</linearGradient>
	<polygon fill-rule="evenodd" clip-rule="evenodd" fill="url(#SVGID_36_)" points="805.4,804.6 806.7,1151.4 987.6,1148.2 
		985.6,826 	"/>
	<polygon fill-rule="evenodd" clip-rule="evenodd" fill="#23170E" points="892.3,1234 893.8,1557.8 782.3,1578.3 781.1,1239.8 	"/>
	
		<linearGradient id="SVGID_37_" gradientUnits="userSpaceOnUse" x1="1016.2768" y1="1111.5717" x2="788.3842" y2="959.9675" gradientTransform="matrix(0.9809 9.274610e-002 0 1 12.5426 -100.0367)">
		<stop  offset="0" style="stop-color:#227EC2"/>
		<stop  offset="1" style="stop-color:#0E1C2C"/>
	</linearGradient>
	<path fill-rule="evenodd" clip-rule="evenodd" fill="url(#SVGID_37_)" d="M805.9,959.2l181.6,189l-0.4-64.3L805.7,890.2
		L805.9,959.2z M805.5,851l0.1,18.1l181.5,195l-0.1-16.9L805.5,851z M806.2,1013l133.3,136l37.2-0.7L806,971.6L806.2,1013z"/>
	
		<linearGradient id="SVGID_38_" gradientUnits="userSpaceOnUse" x1="841.3714" y1="1588.1086" x2="841.3714" y2="1266.2667" gradientTransform="matrix(0.9809 9.274610e-002 0 1 12.5426 -100.0367)">
		<stop  offset="0" style="stop-color:#4A2E13"/>
		<stop  offset="1" style="stop-color:#644826"/>
	</linearGradient>
	<polygon fill-rule="evenodd" clip-rule="evenodd" fill="url(#SVGID_38_)" points="883.1,1248.5 791.2,1253.8 792.3,1561.8 
		884.5,1545.3 	"/>
	<polygon fill-rule="evenodd" clip-rule="evenodd" fill="#23170E" points="1010,1227.9 1011.9,1536 911.1,1554.6 909.4,1233.1 	"/>
	
		<linearGradient id="SVGID_39_" gradientUnits="userSpaceOnUse" x1="966.9322" y1="1553.2126" x2="966.9322" y2="1248.2098" gradientTransform="matrix(0.9809 9.274610e-002 0 1 12.5426 -100.0367)">
		<stop  offset="0" style="stop-color:#4A2E13"/>
		<stop  offset="1" style="stop-color:#644826"/>
	</linearGradient>
	<polygon fill-rule="evenodd" clip-rule="evenodd" fill="url(#SVGID_39_)" points="1001.7,1241.7 918.6,1246.5 920.1,1539 
		1003.4,1524.1 	"/>
	
		<linearGradient id="SVGID_40_" gradientUnits="userSpaceOnUse" x1="966.9322" y1="1553.2126" x2="966.9322" y2="1248.2098" gradientTransform="matrix(0.9809 9.274610e-002 0 1 12.5426 -100.0367)">
		<stop  offset="0" style="stop-color:#4A2E13"/>
		<stop  offset="1" style="stop-color:#725A3B"/>
	</linearGradient>
	<path fill-rule="evenodd" clip-rule="evenodd" fill="url(#SVGID_40_)" d="M918.6,1246.5l1.5,292.5l83.3-14.9l-1.7-282.4
		L918.6,1246.5z M997.9,1516.4l-72.1,12.6l-1.4-274l71.9-4.4L997.9,1516.4z"/>
	
		<linearGradient id="SVGID_41_" gradientUnits="userSpaceOnUse" x1="841.3729" y1="1588.1086" x2="841.3729" y2="1266.2662" gradientTransform="matrix(0.9809 9.274610e-002 0 1 12.5426 -100.0367)">
		<stop  offset="0" style="stop-color:#4A2E13"/>
		<stop  offset="1" style="stop-color:#725A3B"/>
	</linearGradient>
	<path fill-rule="evenodd" clip-rule="evenodd" fill="url(#SVGID_41_)" d="M791.2,1253.8l1.1,308l92.2-16.5l-1.4-296.8L791.2,1253.8
		z M878.4,1537.3l-79.8,13.9l-1.1-288.5l79.5-4.9L878.4,1537.3z"/>
	
		<linearGradient id="SVGID_42_" gradientUnits="userSpaceOnUse" x1="844.4139" y1="1021.0214" x2="962.5734" y2="1021.0214" gradientTransform="matrix(0.9809 9.274610e-002 0 1 12.5426 -100.0367)">
		<stop  offset="0" style="stop-color:#DF9F47"/>
		<stop  offset="0.1346" style="stop-color:#A46415"/>
		<stop  offset="0.1358" style="stop-color:#915214"/>
		<stop  offset="0.6068" style="stop-color:#FBD675"/>
		<stop  offset="0.703" style="stop-color:#FAF2A0"/>
		<stop  offset="0.8034" style="stop-color:#FAF2A0"/>
		<stop  offset="0.8868" style="stop-color:#E1C665"/>
		<stop  offset="1" style="stop-color:#BF8724"/>
	</linearGradient>
	<path fill="url(#SVGID_42_)" d="M841.2,983.6l3.4-0.5c0.2,2.5,0.8,3.7,2,3.8c0.8,0,1.4-0.5,1.9-1.7c0.5-1.2,0.8-3.7,0.9-7.4
		c-0.4,0.9-0.9,1.6-1.5,2c-0.5,0.4-1.2,0.6-1.8,0.6c-1.4-0.1-2.6-1.1-3.7-3.2c-1.1-2-1.6-4.7-1.7-8c0-3.5,0.5-6.2,1.7-8.2
		c1.1-1.9,2.5-2.9,4.2-2.8c1.9,0.1,3.4,1.5,4.6,4.1c1.2,2.7,1.8,7,1.9,12.9c0,6.1-0.6,10.4-1.8,13c-1.2,2.6-2.8,3.9-4.8,3.8
		c-1.4-0.1-2.5-0.8-3.4-2.2C842.1,988.5,841.5,986.4,841.2,983.6L841.2,983.6z M849.2,970.1c0-2.1-0.3-3.7-0.8-4.8
		c-0.5-1.1-1.1-1.7-1.8-1.8c-0.7,0-1.2,0.4-1.6,1.3c-0.4,0.9-0.6,2.4-0.6,4.6c0,2.1,0.3,3.7,0.7,4.7c0.5,1,1.1,1.5,1.8,1.6
		c0.7,0,1.2-0.4,1.7-1.3C848.9,973.4,849.2,972,849.2,970.1L849.2,970.1z M856.2,992l0-6.3l3.5,0.2l0,6.3L856.2,992L856.2,992z
		 M868.2,959.5c1.7,0.1,3.2,1.4,4.3,4c1.1,2.5,1.6,6.9,1.7,13.1c0,6.2-0.5,10.5-1.6,12.9c-1.1,2.4-2.5,3.6-4.2,3.5
		c-1.8-0.1-3.2-1.4-4.3-3.9c-1.1-2.5-1.7-6.9-1.7-13.3c0-6.2,0.5-10.5,1.6-12.9C865.1,960.5,866.5,959.4,868.2,959.5L868.2,959.5z
		 M868.2,964.7c-0.7,0-1.2,0.6-1.6,1.9c-0.4,1.3-0.6,4.5-0.6,9.5c0,5,0.2,8.2,0.7,9.6c0.4,1.4,1,2.1,1.6,2.1c0.7,0,1.2-0.6,1.6-1.9
		c0.4-1.3,0.6-4.5,0.6-9.5c0-5-0.2-8.2-0.6-9.6C869.5,965.4,868.9,964.7,868.2,964.7L868.2,964.7z M882.2,960.3
		c1.7,0.1,3.1,1.4,4.2,4c1.1,2.5,1.6,6.9,1.7,13.1c0,6.2-0.5,10.4-1.5,12.9c-1.1,2.4-2.4,3.6-4.2,3.5c-1.7-0.1-3.1-1.4-4.2-3.9
		c-1.1-2.5-1.6-6.9-1.7-13.2c0-6.2,0.5-10.5,1.5-12.9C879,961.4,880.4,960.2,882.2,960.3L882.2,960.3z M882.2,965.5
		c-0.7,0-1.2,0.6-1.6,1.9c-0.4,1.3-0.6,4.5-0.6,9.5c0,5,0.2,8.2,0.6,9.5c0.4,1.3,1,2,1.6,2.1c0.7,0,1.2-0.6,1.6-1.9
		c0.4-1.3,0.6-4.5,0.5-9.4c0-5-0.2-8.2-0.6-9.5C883.4,966.2,882.9,965.5,882.2,965.5L882.2,965.5z M890.1,984.8l0-6.3l6.7,0.3l0,6.2
		L890.1,984.8L890.1,984.8z M909.9,988.7l0,5.8l-11.8-0.5c0.1-2.2,0.5-4.2,1.1-6.2c0.6-1.9,1.9-4.5,3.7-7.6c1.5-2.5,2.4-4.1,2.7-5
		c0.5-1.3,0.7-2.6,0.7-3.9c0-1.4-0.2-2.5-0.6-3.2c-0.4-0.7-1-1.1-1.7-1.2c-1.5-0.1-2.3,1.6-2.4,4.9l-3.4-0.8
		c0.2-3.3,0.8-5.7,1.8-7.2c1-1.5,2.3-2.2,4-2.1c1.8,0.1,3.2,1.1,4.2,3c0.9,1.9,1.4,4,1.4,6.3c0,1.3-0.1,2.6-0.3,3.8
		c-0.2,1.2-0.6,2.5-1.1,3.7c-0.5,1.2-1.3,2.8-2.4,4.7c-1.1,1.8-1.7,3-2,3.5c-0.3,0.6-0.5,1.1-0.7,1.7L909.9,988.7L909.9,988.7z
		 M920.7,994.9l-3.3-0.2l-0.1-23.3c-1.2,2.1-2.7,3.5-4.3,4.5l0-5.6c0.9-0.5,1.9-1.5,2.9-2.9c1-1.4,1.7-3.1,2-5l2.7,0.2L920.7,994.9
		L920.7,994.9z M926.4,995.2l0-6.2l3.3,0.2l0,6.2L926.4,995.2L926.4,995.2z M937.7,963.6c1.7,0.1,3,1.4,4,3.9
		c1,2.5,1.6,6.7,1.6,12.8c0,6-0.5,10.2-1.5,12.6c-1,2.4-2.3,3.5-4,3.4c-1.7-0.1-3-1.3-4-3.8c-1-2.4-1.6-6.7-1.6-12.9
		c0-6,0.5-10.2,1.5-12.6C934.7,964.6,936,963.5,937.7,963.6L937.7,963.6z M937.7,968.7c-0.6,0-1.2,0.6-1.5,1.9
		c-0.4,1.3-0.6,4.4-0.5,9.3c0,4.9,0.2,8,0.6,9.3c0.4,1.3,0.9,2,1.6,2c0.6,0,1.2-0.6,1.5-1.9c0.4-1.3,0.5-4.4,0.5-9.2
		c0-4.9-0.2-8-0.6-9.3C938.9,969.4,938.4,968.7,937.7,968.7L937.7,968.7z M950.9,964.4c1.6,0.1,3,1.4,4,3.8c1,2.5,1.5,6.7,1.6,12.7
		c0,6-0.4,10.2-1.4,12.5c-1,2.4-2.3,3.5-3.9,3.4c-1.6-0.1-3-1.3-4-3.8c-1-2.4-1.6-6.7-1.6-12.8c0-6,0.5-10.2,1.4-12.5
		C947.9,965.4,949.2,964.3,950.9,964.4L950.9,964.4z M950.9,969.4c-0.6,0-1.1,0.6-1.5,1.9c-0.4,1.3-0.5,4.4-0.5,9.2
		c0,4.9,0.2,8,0.6,9.3c0.4,1.3,0.9,2,1.5,2c0.6,0,1.1-0.6,1.5-1.9c0.4-1.3,0.5-4.3,0.5-9.2c0-4.9-0.2-7.9-0.6-9.3
		C952,970.2,951.5,969.5,950.9,969.4L950.9,969.4z M841.5,1036.7l3.4-0.6c0.2,2.5,0.8,3.7,2,3.7c0.8,0,1.4-0.6,1.9-1.8
		c0.5-1.2,0.8-3.7,0.9-7.5c-0.4,0.9-0.9,1.6-1.5,2c-0.5,0.5-1.2,0.7-1.8,0.6c-1.4,0-2.6-1.1-3.7-3.1c-1.1-2-1.6-4.7-1.7-8
		c0-3.5,0.5-6.3,1.7-8.2c1.1-2,2.5-2.9,4.2-2.9c1.9,0.1,3.4,1.4,4.6,4.1c1.2,2.6,1.8,6.9,1.9,12.9c0,6.1-0.6,10.5-1.8,13.1
		c-1.2,2.6-2.8,3.9-4.8,3.9c-1.4,0-2.5-0.7-3.5-2.1C842.3,1041.7,841.7,1039.6,841.5,1036.7L841.5,1036.7z M849.4,1023.1
		c0-2.1-0.3-3.7-0.8-4.8c-0.5-1.1-1.1-1.7-1.8-1.7c-0.7,0-1.2,0.4-1.6,1.3c-0.4,0.9-0.6,2.4-0.6,4.6c0,2.1,0.3,3.7,0.7,4.7
		c0.5,1,1.1,1.5,1.8,1.6c0.7,0,1.2-0.4,1.7-1.4C849.2,1026.4,849.4,1025,849.4,1023.1L849.4,1023.1z M856.4,1044.8l0-6.3l3.5,0.1
		l0,6.3L856.4,1044.8L856.4,1044.8z M868.5,1012c1.7,0.1,3.2,1.4,4.3,3.9c1.1,2.5,1.6,6.9,1.7,13.1c0,6.2-0.5,10.5-1.6,13
		c-1.1,2.5-2.5,3.7-4.2,3.6c-1.8,0-3.2-1.3-4.3-3.8c-1.1-2.5-1.7-6.9-1.7-13.2c0-6.2,0.5-10.5,1.6-13
		C865.3,1013.2,866.7,1012,868.5,1012L868.5,1012z M868.5,1017.3c-0.7,0-1.2,0.6-1.6,2c-0.4,1.3-0.6,4.5-0.6,9.6
		c0,5,0.2,8.2,0.7,9.6c0.4,1.4,1,2,1.6,2.1c0.7,0,1.2-0.6,1.6-2c0.4-1.3,0.6-4.5,0.6-9.5c0-5-0.2-8.2-0.6-9.6
		C869.7,1018,869.2,1017.3,868.5,1017.3L868.5,1017.3z M882.4,1012.6c1.7,0.1,3.1,1.4,4.2,3.9c1.1,2.5,1.6,6.9,1.7,13
		c0,6.2-0.5,10.5-1.5,12.9c-1.1,2.5-2.4,3.7-4.2,3.6c-1.7,0-3.1-1.3-4.2-3.8c-1.1-2.5-1.6-6.9-1.7-13.2c0-6.2,0.5-10.5,1.5-12.9
		C879.3,1013.7,880.7,1012.5,882.4,1012.6L882.4,1012.6z M882.4,1017.8c-0.7,0-1.2,0.6-1.6,2c-0.4,1.3-0.6,4.5-0.6,9.5
		c0,5,0.2,8.2,0.6,9.5c0.4,1.3,1,2,1.6,2.1c0.7,0,1.2-0.6,1.6-2c0.4-1.3,0.6-4.5,0.5-9.5c0-5-0.2-8.2-0.6-9.5
		C883.7,1018.5,883.1,1017.8,882.4,1017.8L882.4,1017.8z M890.3,1036.9l0-6.3l6.7,0.2l0,6.2L890.3,1036.9L890.3,1036.9z
		 M907.5,1046.1l-3.4-0.1l-0.1-23.5c-1.2,2.1-2.7,3.6-4.3,4.6l0-5.7c0.9-0.5,1.9-1.5,2.9-3c1-1.5,1.7-3.1,2.1-5.1l2.7,0.1
		L907.5,1046.1L907.5,1046.1z M912.3,1020l0-5.8l11.4,0.4l0,4.5c-0.9,1.7-1.9,4.1-2.8,7.2c-0.9,3.1-1.7,6.5-2.2,10.1
		c-0.5,3.6-0.8,6.9-0.7,9.8l-3.2-0.1c0.1-4.6,0.5-9.2,1.4-13.7c0.9-4.5,2.1-8.6,3.7-12.3L912.3,1020L912.3,1020z M926.6,1046.6
		l0-6.2l3.3,0.1l0,6.2L926.6,1046.6L926.6,1046.6z M938,1014.7c1.7,0.1,3,1.3,4,3.8c1,2.5,1.6,6.7,1.6,12.7c0,6-0.5,10.2-1.5,12.6
		c-1,2.4-2.3,3.6-4,3.5c-1.7,0-3-1.3-4-3.7c-1-2.4-1.6-6.7-1.6-12.9c0-6,0.5-10.2,1.5-12.6C935,1015.8,936.3,1014.6,938,1014.7
		L938,1014.7z M938,1019.8c-0.6,0-1.2,0.6-1.5,1.9c-0.4,1.3-0.6,4.4-0.5,9.3c0,4.9,0.2,8,0.6,9.3c0.4,1.3,0.9,2,1.6,2
		c0.6,0,1.2-0.6,1.5-1.9c0.4-1.3,0.5-4.4,0.5-9.3c0-4.9-0.2-8-0.6-9.3C939.2,1020.5,938.6,1019.8,938,1019.8L938,1019.8z
		 M951.1,1015.2c1.6,0.1,3,1.3,4,3.8c1,2.4,1.5,6.7,1.6,12.7c0,6-0.4,10.2-1.4,12.6c-1,2.4-2.3,3.6-3.9,3.5c-1.6,0-3-1.3-4-3.7
		c-1-2.4-1.6-6.7-1.6-12.8c0-6,0.5-10.2,1.5-12.6C948.2,1016.3,949.5,1015.1,951.1,1015.2L951.1,1015.2z M951.2,1020.3
		c-0.6,0-1.1,0.6-1.5,1.9c-0.4,1.3-0.5,4.4-0.5,9.2c0,4.9,0.2,8,0.6,9.3c0.4,1.3,0.9,2,1.5,2c0.6,0,1.1-0.6,1.5-1.9
		c0.4-1.3,0.5-4.4,0.5-9.2c0-4.9-0.2-7.9-0.6-9.3C952.3,1021,951.8,1020.3,951.2,1020.3z"/>
	<polygon fill-rule="evenodd" clip-rule="evenodd" fill="#583A14" points="790.9,1181.1 806.7,1151.4 987.6,1148.2 1001.2,1175 	"/>

		<linearGradient id="SVGID_47_" gradientUnits="userSpaceOnUse" x1="895.0297" y1="1229.5674" x2="895.0297" y2="1300.0544" gradientTransform="matrix(0.9809 9.274610e-002 0 1 12.5426 -100.0367)">
		<stop  offset="0" style="stop-color:#E9E5E0"/>
		<stop  offset="1" style="stop-color:#909DAD"/>
	</linearGradient>
	<path fill="url(#SVGID_47_)" d="M835.5,1320.2c-0.2,0-0.4-0.1-0.6-0.3c-0.4-0.5-0.4-1.3,0-1.8l65.3-108.6c0.3-0.5,0.8-0.6,1.1-0.1
		l44.8,55.5c0.3,0.4,0.4,1.2,0.1,1.7c-0.3,0.5-0.8,0.6-1.1,0.2l-44.2-54.8l-64.7,107.7C835.9,1320,835.7,1320.2,835.5,1320.2z"/>
	<path fill-rule="evenodd" clip-rule="evenodd" fill="#412913" d="M948.7,1266l-6.3,3l-41.1-50.8c-0.3-0.4-0.8-0.4-1.1,0.1l-60,100
		l-10.6,5.1l22.7,120.7l117.2-62.9L948.7,1266z M843.4,1316.9l57.5-95.9l39.6,49L843.4,1316.9z"/>
	
		<linearGradient id="SVGID_48_" gradientUnits="userSpaceOnUse" x1="904.2045" y1="1286.5765" x2="904.2045" y2="1453.3646" gradientTransform="matrix(0.9809 9.274610e-002 0 1 12.5426 -100.0367)">
		<stop  offset="0" style="stop-color:#E7EAEC"/>
		<stop  offset="1" style="stop-color:#9CA3B4"/>
	</linearGradient>
	<polygon fill-rule="evenodd" clip-rule="evenodd" fill="url(#SVGID_48_)" points="829.5,1314.3 948.6,1257.2 969.4,1372.6 
		852.2,1435.1 	"/>
	
		<linearGradient id="SVGID_49_" gradientUnits="userSpaceOnUse" x1="904.5165" y1="1432.3468" x2="904.5165" y2="1304.6315" gradientTransform="matrix(0.9809 9.274610e-002 0 1 12.5426 -100.0367)">
		<stop  offset="0" style="stop-color:#01425B"/>
		<stop  offset="1" style="stop-color:#3976AC"/>
	</linearGradient>
	<path fill="url(#SVGID_49_)" d="M963.5,1365.4l-17.5-96.7l-0.5-3l-1.9,0.9l-106,51.2l-2.1,1l0.6,3.1l19,100.8l0.6,3.1l2.1-1.1
		l104.5-55.4l1.9-1L963.5,1365.4z M858.6,1417.6l-17.7-94.5l101.9-49.4l16.4,90.9L858.6,1417.6z M873.6,1344.9
		c-2.5-1.9-5.6-1.9-9.2-0.1c-3.6,1.8-6.1,4.6-7.5,8.6c-1.4,3.9-1.7,8.6-0.7,13.9c0.7,3.8,1.8,6.7,3.3,8.7c1.5,2,3.1,3.2,5,3.5
		c1.8,0.3,4-0.1,6.4-1.4c2.4-1.2,4.3-2.9,5.7-5.1c1.4-2.2,2.2-4.7,2.7-7.5c0.4-2.8,0.3-6.1-0.4-9.9
		C877.9,1350.3,876.1,1346.8,873.6,1344.9z M872.3,1366.8c-0.5,1.8-1.5,3.1-3,3.8c-1.4,0.7-2.7,0.6-3.7-0.4c-1.1-1-1.9-3.1-2.5-6.4
		c-0.6-3.3-0.6-5.9-0.1-7.7c0.6-1.8,1.5-3.1,2.9-3.8c1.4-0.7,2.7-0.6,3.8,0.4c1.1,1,1.9,3,2.5,6
		C872.8,1362.3,872.8,1365,872.3,1366.8z M936.2,1309.6l3.2,17.4l-10.9-13.5l-6,3l5.8,31.5l6-3.1l-3.1-17.3l10.9,13.3l6-3.1
		l-5.7-31.3L936.2,1309.6z M912.1,1348.3l-1.1-6.2l10.1-5.1l-1.2-6.4l-10.1,5.1l-0.9-5.1l10.9-5.5l-1.2-6.8l-17.5,8.7l5.9,31.8
		l17.7-9.1l-1.3-7.1L912.1,1348.3z M896.3,1332.2c-1.5-1.1-3.4-1.1-5.8,0.1l-11.1,5.5l5.9,32.1l6.7-3.4l-2.2-11.9l3.6-1.8
		c2.7-1.4,4.5-3.3,5.4-5.7c1-2.5,1.1-5.3,0.5-8.5C898.9,1335.4,897.8,1333.3,896.3,1332.2z M892.8,1345c-0.4,0.9-1.2,1.7-2.5,2.3
		l-1.6,0.8l-1.3-7.1l1.9-0.9c1.2-0.6,2.1-0.7,2.7-0.2c0.6,0.5,1,1.2,1.1,2.2C893.3,1343.1,893.2,1344.1,892.8,1345z"/>
	<path fill-rule="evenodd" clip-rule="evenodd" fill="#4F3213" d="M900.8,1225.9c4.8-0.2,8.7-6.4,8.7-13.7c0-7.3-4-13.2-8.8-13
		c-4.9,0.2-8.8,6.4-8.8,13.7C892,1220.3,896,1226.2,900.8,1225.9z"/>
	
		<linearGradient id="SVGID_50_" gradientUnits="userSpaceOnUse" x1="905.5099" y1="1237.9348" x2="905.5099" y2="1215.7813" gradientTransform="matrix(0.9809 9.274610e-002 0 1 12.5426 -100.0367)">
		<stop  offset="0" style="stop-color:#313831"/>
		<stop  offset="0.7449" style="stop-color:#C5CDCA"/>
		<stop  offset="1" style="stop-color:#FFFFFF"/>
	</linearGradient>
	<path fill-rule="evenodd" clip-rule="evenodd" fill="url(#SVGID_50_)" d="M900.8,1221.3c4-0.2,7.2-5.3,7.2-11.4
		c0-6.1-3.3-10.9-7.3-10.7c-4,0.2-7.3,5.3-7.3,11.4C893.5,1216.7,896.8,1221.5,900.8,1221.3z"/>
	
		<radialGradient id="SVGID_51_" cx="275.4335" cy="435.6401" r="3.3747" gradientTransform="matrix(1.9293 0.2332 0 3.8468 370.6139 -533.0373)" gradientUnits="userSpaceOnUse">
		<stop  offset="0" style="stop-color:#F8F9F9"/>
		<stop  offset="0.6951" style="stop-color:#8C908D"/>
		<stop  offset="1" style="stop-color:#B9C2BD"/>
	</radialGradient>
	<path fill-rule="evenodd" clip-rule="evenodd" fill="url(#SVGID_51_)" d="M900.8,1218.1c2.9-0.1,5.2-3.8,5.1-8.1
		c0-4.3-2.4-7.8-5.2-7.6c-2.9,0.1-5.2,3.7-5.2,8.1C895.6,1214.8,897.9,1218.3,900.8,1218.1z"/>
	
		<linearGradient id="SVGID_52_" gradientUnits="userSpaceOnUse" x1="497.2477" y1="1195.8385" x2="497.2477" y2="894.876" gradientTransform="matrix(0.9809 9.274610e-002 0 1 12.5426 -100.0367)">
		<stop  offset="0" style="stop-color:#1D3C6F"/>
		<stop  offset="1" style="stop-color:#13212B"/>
	</linearGradient>
	<polygon fill-rule="evenodd" clip-rule="evenodd" fill="url(#SVGID_52_)" points="285.3,598.6 715.4,670.1 716.9,1208 
		283.7,1224.8 	"/>
	<polygon fill-rule="evenodd" clip-rule="evenodd" fill="#162842" points="311.3,1117 283.9,1164.7 285.3,598.6 312.4,603.1 	"/>
	<polygon fill-rule="evenodd" clip-rule="evenodd" fill="#162842" points="716.6,1115.6 716.9,1208 283.7,1224.8 283.9,1164.7 
		311.3,1117 	"/>
	<polygon fill-rule="evenodd" clip-rule="evenodd" fill="#162842" points="237,1060.1 716.5,1067.3 716.3,1009.3 270.4,992.8 	"/>
	<polygon fill-rule="evenodd" clip-rule="evenodd" fill="#113657" points="237,1060.1 716.5,1067.3 716.5,1079.3 237,1074.2 	"/>
	
		<linearGradient id="SVGID_53_" gradientUnits="userSpaceOnUse" x1="1194.1993" y1="1110.8685" x2="1194.1993" y2="949.0579" gradientTransform="matrix(0.9809 9.274610e-002 0 1 12.5426 -100.0367)">
		<stop  offset="0" style="stop-color:#1D3C6F"/>
		<stop  offset="1" style="stop-color:#13212B"/>
	</linearGradient>
	<polygon fill-rule="evenodd" clip-rule="evenodd" fill="url(#SVGID_53_)" points="1306.4,768.4 1057.3,726.9 1060.5,1194.8 
		1310.5,1185.1 	"/>
	<polygon fill-rule="evenodd" clip-rule="evenodd" fill="#162842" points="1297.6,1113.6 1310.1,1145.2 1306.4,768.4 1294.2,766.3 	
		"/>
	<polygon fill-rule="evenodd" clip-rule="evenodd" fill="#162842" points="1060,1114.4 1060.5,1194.8 1310.5,1185.1 1310.1,1145.2 
		1297.6,1113.6 	"/>
	<polygon fill-rule="evenodd" clip-rule="evenodd" fill="#162842" points="1329.7,1076.5 1059.7,1072.5 1059.3,1022 1315.1,1031.5 	
		"/>
	<polygon fill-rule="evenodd" clip-rule="evenodd" fill="#113657" points="1329.7,1076.5 1059.7,1072.5 1059.7,1082.8 
		1329.8,1085.7 	"/>
	<path fill-rule="evenodd" clip-rule="evenodd" fill="#60457B" d="M554.6,1147.3c-0.8-0.9-1.8-1.7-2.7-2.5c0.6-1.9,1-3.6,1.1-5
		c1.8-11.3,0.3-25.9-6.8-29c-7.7-3.4-17.1-0.9-25.1,5.3c-0.4-1.2-0.9-2.2-1.4-3.1c-1.1-5.1-2.9-9.6-6.1-13.1
		c-12.3-13.3-31.6,2.4-32,23.6c-0.2,9.2,3.3,17.4,8.3,24.7l-1.2,0c-6.4-4.1-13-6.9-17.3-7.3c-1.7,1.5-3.1,4.3-4.1,7.7l-11.6,0.2
		l-18,44.4l-0.1,108l127.2-8.5l16.4-43.1l-0.1-102.6L554.6,1147.3z"/>
	<polygon fill-rule="evenodd" clip-rule="evenodd" fill="#2F769C" points="621.2,1108.2 612.9,1122.6 612.9,1108.2 597.5,1108.2 
		589.1,1122.8 589.1,1108.2 573.5,1108.2 560.6,1130.3 560.7,1292.8 576.5,1291.8 585,1276.6 585,1291.2 600.6,1290.2 608.9,1275.1 
		609,1289.6 624.2,1288.6 636.6,1266.2 636.3,1108.2 	"/>
	<path fill-rule="evenodd" clip-rule="evenodd" fill="#2C418E" d="M353.9,1194.8c3.9-3.4,7.1-7.5,9.2-12.7c1.3-3.3,2-6,2.3-8.3
		c2.3-13.2,0.4-30.2-8.4-33.8c-9.6-3.8-21.4-0.9-31.4,6.5c-0.5-1.4-1.1-2.6-1.8-3.6c-1.3-6-3.6-11.2-7.6-15.2
		c-15.4-15.4-39.6,3.2-40.1,28c-0.3,11.5,4.8,21.6,11.7,30.5c-8.9-5.6-18.4-9.5-24.5-10c-6.9,5.6-9.3,25.3-9.2,38.7
		c1.5-1.2,3.1-2.2,4.7-3.2l-0.2,78.5c0,12.5,24.1,21.1,53.5,19.1c28.8-1.9,51.7-13.3,51.8-25.4l0.1-76.6
		C363.8,1202.6,360.1,1198.3,353.9,1194.8z"/>
	<path fill-rule="evenodd" clip-rule="evenodd" fill="#346C71" d="M429.5,1126.6c0.1-6.4-1-15.6-4.1-18.2c-2.6,0.3-6.7,2.2-10.7,4.8
		c3.2-4.3,5.4-9.1,4.9-14.4c-0.9-8.9-12.9-18.8-18.6-13.4c-2.1,2-3.3,4.8-3.9,8.1c-0.2,0.4-0.4,0.7-0.6,1.1
		c-4.8-3.6-10.5-5-15.3-3.1c-4.4,1.8-5.3,10.4-4.2,17c0.1,0.4,0.1,0.8,0.2,1.3c0.2,1,0.5,1.9,0.8,2.7c1.2,3.1,3.3,5.3,5.7,7.1
		c-2.2,1.6-3.5,3.5-3.5,5.5l0,0l0,0l-0.2,146c0,5.9,11.1,10.1,24.6,9.3c13.4-0.8,24.2-6.2,24.2-12l0.1-142
		C429.2,1126.4,429.4,1126.4,429.5,1126.6z"/>
	<path fill-rule="evenodd" clip-rule="evenodd" fill="#2F769C" d="M401.7,1264.8c0.3-0.8,0.6-1.8,0.8-2.7c0.1-0.5,0.2-0.9,0.2-1.3
		c1.2-6.6,0.3-15.1-4.1-16.7c-4.7-1.7-10.4,0-15.3,3.8c-0.1-0.4-0.4-0.7-0.6-1.1c-0.6-3.3-1.8-6.1-4-8c-5.8-5.2-18.3,5.3-19.2,14.4
		c-0.5,5.5,1.8,10.3,5,14.5c-4.1-2.4-8.4-4.1-11.1-4.3c-3.2,2.8-4.4,12.5-4.3,19c0.2-0.1,0.3-0.2,0.5-0.3l0,14.8
		c0,6,11.3,10.1,25.1,9.2c1.5-0.1,3-0.3,4.5-0.5c0,0.1-0.1,0.2-0.1,0.3c6.2,1.1,13.5-0.2,16.3-6c2.6-1.9,4.1-4,4.1-6.2l0-16.2l0,0
		c0-2-1.3-3.8-3.5-5.3C398.4,1270.2,400.5,1267.9,401.7,1264.8z"/>
	<path fill-rule="evenodd" clip-rule="evenodd" fill="#173961" d="M711.4,1193c0.8-2.4,1.3-4.4,1.4-6.1c1.4-9.5,0.2-21.8-5.5-24.3
		c-6.1-2.7-13.6-0.5-19.9,4.9c-0.2-0.8-0.5-1.5-0.9-2.2c-0.8-4.6-2.4-8.5-5.1-11.3c-7.7-7.9-24,7-25.2,20.4
		c-0.7,8,2.4,15.1,6.7,21.3c-5.4-3.7-11-6.3-14.7-6.6c-4.3,4-5.7,18.1-5.6,27.7c0.2-0.2,0.4-0.3,0.6-0.5l0,21.8
		c0,8.8,15,15.2,33.2,14.2c2-0.1,4-0.3,5.9-0.6c-0.1,0.2-0.1,0.3-0.1,0.5c8.2,1.9,17.9,0.1,21.5-8.5c3.2-2.6,5.1-5.6,5.1-8.7
		l-0.1-23.5l0,0c0-2.9-1.7-5.6-4.6-7.8C707.2,1200.8,709.8,1197.5,711.4,1193z"/>
	<path fill-rule="evenodd" clip-rule="evenodd" fill="#41738E" d="M416.3,919.4c-2.1-6.1-5.3-11.2-9.6-15.2c0.5-1.5,0.8-2.9,0.9-4
		c1.1-7.4,0-16.8-4.9-19.2c-5.5-2.7-12.1-1.6-17.8,2.2c-0.3-0.8-0.6-1.5-1-2.2c-0.7-3.5-2-6.6-4.3-9.1c-8.6-9.6-22.1-0.1-22.4,14
		c-0.1,6.6,2.7,12.6,6.6,18c-4.9-3.7-10.3-6.4-13.7-7c-3.8,2.8-5.1,13.9-5.1,21.5c3.1-2.3,6.9-3.6,10.9-4.2l-3.4,7.8l-0.2,101.7
		l44.5,1.2l6-14.1l0.1-94.4C407.4,916.6,411.9,917.4,416.3,919.4z"/>
	<path fill-rule="evenodd" clip-rule="evenodd" fill="#715788" d="M701.4,934.1c-4.7,0.3-12.1,3.5-19.1,8.3
		c5.4-7.8,9.4-16.8,9.2-27.1c-0.4-22.4-19.6-40.7-32.1-27.6c-3.3,3.4-5.2,8.2-6.3,13.6c-0.6,0.9-1.1,2-1.5,3.2
		c-8.4-7.4-18.3-10.8-26.6-7.7c-7.7,2.9-9.4,19-7.3,31.6c0.2,1.6,0.6,3.4,1.2,5.5c-6.6,5.8-11.5,13.6-14.7,23.4
		c5.5-2,11-2.8,16.5-2.6l-4.9,12.4l0.1,79.6l76.4,1.7l10-26.6l-0.1-57.7c2.2,1.3,4.3,2.8,6.2,4.6
		C708.5,956.8,706.6,939.2,701.4,934.1z"/>
	<path fill-rule="evenodd" clip-rule="evenodd" fill="#9A6192" d="M336.7,984.7c6.5,0.1,12.9,1.2,19.3,3.9
		c-3.2-9.2-8.1-16.6-14.7-22.5c0.6-1.9,1-3.5,1.2-5c2-11.3,0.4-26.3-7.4-29.9c-8.4-3.9-18.8-2.1-27.5,3.7c-0.4-1.2-0.9-2.3-1.6-3.2
		c-1.1-5.3-3.2-10-6.6-13.7c-13.5-14.3-34.6,0.4-35.1,21.9c-0.2,9.9,4.2,19.1,10.2,27.2c-7.7-5.4-16.1-9.4-21.4-10.2
		c-6,4.4-8.1,21.3-8,33c2.2-1.7,4.8-2.9,7.4-4c-0.2,0.7-0.3,1.4-0.3,2.1c0,0,0,0,0,0l-0.1,36.5c0,10.3,19.9,19,44.2,19.5
		c23.9,0.5,43.1-7.2,43.1-17.2l0.1-35.5c0,0,0,0,0,0C339.5,988.9,338.5,986.7,336.7,984.7z"/>
	<path fill-rule="evenodd" clip-rule="evenodd" fill="#2F769C" d="M459,970.7c-3.3-12.4-2.7-22.8-0.4-33.4c0.7-0.5,1.2-1.1,1.2-1.7
		l0-13.8c0-2.1-4.3-4-9.5-4.4c-5.3-0.3-9.6,1.1-9.6,3.1l0,0l0,13.9c0,0.6,0.4,1.2,1,1.7c2.4,10.9,2.9,21.5-0.4,33.7
		c-22.4,15.4-22.3,32-9.3,48.9c0,0,0,0,0,0.1c0,3.9,8.2,7.4,18.2,7.6c9.9,0.3,18-2.7,18-6.6c0,0,0-0.1,0-0.1
		C480.6,1004.1,480.7,987.9,459,970.7z"/>
	<path fill-rule="evenodd" clip-rule="evenodd" fill="#5E83C2" d="M433.9,1001.6c-0.5-0.6-1.1-1-1.7-1.6c0.2-0.5,0.3-0.9,0.4-1.5
		c0.1-0.5,0.2-0.9,0.2-1.3c1.2-6.5,0.3-15.2-4.1-17.2c-4.7-2.2-10.4-1-15.3,2.4c-0.2-0.6-0.5-1.1-0.9-1.6c-0.6-3.1-1.7-5.8-3.7-8
		c-7.4-8-18.9,0.6-19.2,12.8c-0.1,5.3,2,10.1,5,14.5l-0.8,0c-3.8-2.5-7.7-4.3-10.3-4.8c-1,0.8-1.8,2.4-2.5,4.3l-6.9-0.2l-10.6,24.9
		l0,22.2l76.3,1.5l10.1-24.4l0-21.6L433.9,1001.6z"/>
	<path fill-rule="evenodd" clip-rule="evenodd" fill="#346C71" d="M1280,973.5c0-5.3-0.7-13-2.5-15.2c-1.6,0.2-4.2,1.6-6.5,3.8
		c1.8-3.5,3.2-7.4,3.1-12c-0.2-9.8-6.8-17.7-11-11.8c-1.1,1.5-1.7,3.6-2.1,6c-0.2,0.4-0.4,0.9-0.5,1.4c-2.8-3.2-6.2-4.6-8.9-3.2
		c-2.5,1.3-3,7.8-2.4,13.2c0,0.8,0.2,1.8,0.5,3c-2.2,2.5-3.8,5.8-4.8,10.1c2.3-1.1,4.6-1.3,6.8-1l0.6,67.1l3.1,10.2l21.8,0.6
		l-0.7-70.3l-1.7-5.6C1276.8,970.5,1278.6,971.7,1280,973.5z"/>
	<path fill-rule="evenodd" clip-rule="evenodd" fill="#2F769C" d="M1138.6,986.5c-2.1-8.2-5.4-14.9-9.8-20.2
		c0.4-1.6,0.6-3.1,0.7-4.4c1.2-10.1,0-23.3-5.1-26.5c-5.6-3.5-12.3-1.8-18,3.3c-0.3-1.1-0.6-2-1.1-2.9c-0.8-4.7-2.2-8.8-4.5-12.1
		c-8.9-12.7-22.5,0.4-22.7,19.5c-0.1,8.8,2.9,16.9,6.9,24.1c-5.1-4.8-10.5-8.3-14-9.1c-3.9,3.9-5.1,18.9-4.9,29.2
		c1.4-1.4,2.9-2.5,4.6-3.4l0.3,49.6l7.5,23.3l52.9,1.2l-0.5-64.6l-3.3-10.5C1131.4,983.3,1135,984.4,1138.6,986.5z"/>
	<path fill-rule="evenodd" clip-rule="evenodd" fill="#455476" d="M1314.9,1027.3c1.1,0.8,2.2,1.8,3.2,2.9c0-7.6-1-18.8-3.6-22
		c-2.3,0.3-5.9,2.5-9.3,5.7c2.6-5.1,4.5-10.9,4.3-17.4c-0.3-14.3-9.7-25.5-15.7-16.9c-1.6,2.2-2.5,5.3-2.9,8.8
		c-0.3,0.6-0.5,1.3-0.7,2.1c-4.1-4.5-8.9-6.5-12.8-4.4c-3.7,2-4.4,12.1-3.3,20.1c0.1,1,0.3,2.2,0.6,3.6c-3.1,3.7-5.4,8.7-6.9,14.9
		c3.1-1.6,6.1-2.1,9.2-1.8c-0.8,1.3-1.3,2.8-1.3,4.4c0,0,0,0,0,0.1l0.2,24.4c0.1,6.9,9.1,12.6,20,12.9c10.8,0.2,19.5-5.1,19.4-11.8
		l-0.2-24l0,0c0,0,0,0,0,0C1315,1028.3,1315,1027.8,1314.9,1027.3z"/>
	<path fill-rule="evenodd" clip-rule="evenodd" fill="#5E83C2" d="M1241.6,982.8c-2.6-12.9-2.3-23.8-0.6-34.7c0.5-0.5,0.8-1,0.8-1.7
		l-0.1-14.3l0,0c0-2.1-3.3-4.2-7.2-4.5c-4-0.3-7.2,1.1-7.2,3.3l0.1,14.4c0,0.7,0.4,1.3,0.9,1.9c1.9,11.3,2.4,22.2,0,34.8
		c-16.7,16.1-16.5,33.3-6.6,50.7c0,0,0,0.1,0,0.1c0,4.1,6.3,7.6,13.8,7.8c7.5,0.2,13.5-2.9,13.5-6.9c0,0,0-0.1,0-0.1
		C1258.2,1017.2,1258.2,1000.4,1241.6,982.8z"/>
	<path fill-rule="evenodd" clip-rule="evenodd" fill="#2F769C" d="M1219.7,1006.6c-1.9-9.1-1.6-16.9-0.4-24.7
		c0.3-0.3,0.5-0.7,0.5-1.2l-0.1-10.2l0,0c0-1.5-2.3-2.9-5.2-3.1c-2.9-0.2-5.2,0.9-5.2,2.4l0.1,10.2c0,0.5,0.3,0.9,0.7,1.4
		c1.3,8,1.7,15.7,0,24.7c-11.9,11.5-11.8,23.7-4.7,36c0,0,0,0,0,0.1c0,2.9,4.5,5.4,9.9,5.5c5.4,0.1,9.7-2.1,9.7-4.9c0,0,0,0,0-0.1
		C1231.7,1031,1231.7,1019.1,1219.7,1006.6z"/>
	<path fill-rule="evenodd" clip-rule="evenodd" fill="#9280A4" d="M1271.9,1044.9c0-6.1-0.8-15-2.9-17.6c-1.8,0.2-4.6,1.9-7.2,4.3
		c2.1-4,3.6-8.5,3.2-13.7c-0.7-8.6-9-18.3-12.8-13.3c-1.4,1.8-2.2,4.3-2.5,7.3c-0.2,0.4-0.3,0.9-0.4,1.4c-3.3-3.6-7.2-5.1-10.4-3.4
		c-3,1.6-3.6,9.8-2.7,16.1c0.1,1.1,0.4,2.4,0.8,4c0.8,3,2.3,5.1,3.9,6.9c-1.5,1.5-2.4,3.3-2.4,5.2c0,0,0,0,0,0l0.1,15.5
		c0,2.1,1.1,4.1,2.8,5.7c1.9,5.5,6.9,6.4,11.1,4.9c0-0.1,0-0.2-0.1-0.3c1,0.1,2,0.2,3,0.2c9.1,0.2,16.4-4.2,16.4-9.8l-0.1-13.8
		C1271.7,1044.7,1271.8,1044.8,1271.9,1044.9z"/>
	<path fill-rule="evenodd" clip-rule="evenodd" fill="#442462" d="M1235.3,1144.7c-2.8-13.9-2.5-25.8-0.6-38
		c0.5-0.6,0.8-1.2,0.8-1.9l-0.1-15.7h0c0-2.3-3.6-4.3-8-4.3c-4.4,0-8,1.8-7.9,4.2l0.1,15.8c0,0.7,0.4,1.4,1,2
		c2.1,12.2,2.6,24.1,0,38.1c-18.4,19-18.1,37.9-7.2,56.2c0,0,0,0.1,0,0.1c0,4.5,6.9,7.8,15.2,7.4c8.2-0.4,14.8-4.3,14.8-8.7
		c0,0,0-0.1,0-0.1C1253.5,1181,1253.4,1162.6,1235.3,1144.7z"/>
	<polygon fill-rule="evenodd" clip-rule="evenodd" fill="#455476" points="1209.3,1107.9 1199.9,1107.9 1200,1119.2 1194.8,1107.9 
		1185.3,1107.9 1185.4,1119.3 1180.1,1107.9 1170.4,1107.9 1171.5,1234.7 1179.5,1251.4 1189.1,1250.8 1189,1239.4 1194.3,1250.4 
		1203.7,1249.8 1203.6,1238.5 1208.8,1249.4 1218.1,1248.8 1217,1124.7 	"/>
	<path fill-rule="evenodd" clip-rule="evenodd" fill="#35446A" d="M1156.2,1136.4l-6.4,0.1c-0.6-2.4-1.4-4.4-2.3-5.5
		c-2.4,0.4-6.1,2.5-9.6,5.6l-0.7,0c2.8-5.4,4.7-11.4,4.5-18.1c-0.3-15.5-11.4-27.1-18.4-17.3c-1.8,2.5-2.9,5.9-3.5,9.7
		c-0.3,0.7-0.6,1.4-0.8,2.3c-4.8-4.6-10.4-6.5-15.1-3.9c-4.3,2.4-5.2,13.5-4,22.1c0.1,1.1,0.3,2.4,0.7,3.8c-0.5,0.6-1.1,1.2-1.6,1.9
		l-16.5,0.2l0.6,79.5l10.6,31.9l73.1-4.6l-0.6-76.6L1156.2,1136.4z"/>
	<path fill-rule="evenodd" clip-rule="evenodd" fill="#0D4E5F" d="M1317.7,1155.5c-2.6,0.5-6.8,3.3-10.7,7.3c3-6.1,5.2-12.9,5-20.5
		c-0.4-16.5-11.2-28.7-18.1-18.2c-1.8,2.7-2.8,6.3-3.4,10.4c-0.3,0.7-0.6,1.5-0.8,2.5c-4.7-4.9-10.3-6.8-14.8-4
		c-4.2,2.6-5.1,14.4-3.9,23.6c0.1,1.6,0.5,3.5,1.1,5.8c1,3.5,2.6,6.3,4.5,8.5c-2.9,2.6-4.7,5.8-4.7,9.1l0.5,53.2
		c0.1,8.4,11.1,14.5,24.4,13.6c13.2-0.9,23.6-8.3,23.5-16.5l-0.5-51.4c0.7,0.6,1.4,1.2,2,1.9
		C1321.8,1171.8,1320.7,1159,1317.7,1155.5z"/>
	<path fill-rule="evenodd" clip-rule="evenodd" fill="#2C418E" d="M1269.3,1125.3c0.2-0.6,0.3-1.2,0.4-1.9c0.1-0.3,0.1-0.6,0.1-0.9
		c0.5-4.6,0-10.6-2.1-11.9c-2.3-1.4-5.2-0.4-7.5,2.2c-0.1-0.3-0.2-0.5-0.3-0.8c-0.3-2.3-0.9-4.3-2-5.8c-2.9-3.8-9,3.1-9.4,9.5
		c-0.2,3.8,0.9,7.3,2.6,10.3c-2-1.8-4.1-3.1-5.5-3.4c-1.6,1.9-2.1,8.6-2,13.1c0.1-0.1,0.2-0.1,0.2-0.2l0.9,102.3
		c0,4.2,5.6,7.3,12.4,6.8c6.8-0.4,12.2-4.2,12.2-8.3l-1-102.2l0,0v0c0-1.4-0.7-2.7-1.8-3.8C1267.7,1129,1268.7,1127.4,1269.3,1125.3
		z"/>
	<path fill-rule="evenodd" clip-rule="evenodd" fill="#5D4178" d="M1124.6,1223.2c0-9.3-1.3-22.9-4.8-26.6
		c-2.9,0.6-7.5,3.4-11.9,7.5c3.5-6.4,5.9-13.6,5.3-21.4c-1.1-13.1-14.7-27.1-21.1-19c-2.3,2.9-3.6,7-4.2,11.6
		c-0.3,0.6-0.5,1.4-0.7,2.2c-5.5-5.1-12-7-17.3-3.9c-5,2.8-6,15.5-4.6,25.2c0.2,1.7,0.6,3.7,1.3,6.1c1.4,4.5,3.8,7.7,6.5,10.2
		c-2.5,2.5-4,5.4-4,8.3v0l0.2,24c0,3.2,1.7,6,4.6,8.3c3.2,8.3,11.6,9,18.5,6.2c0-0.1-0.1-0.3-0.1-0.4c1.6,0.1,3.3,0,5-0.1
		c15.1-1,27.1-8.8,27-17.4l-0.2-21.1C1124.3,1222.9,1124.5,1223,1124.6,1223.2z"/>
	<path fill-rule="evenodd" clip-rule="evenodd" fill="#2F769C" d="M1260,1224.8l-3.2,0.2c-0.3-1.3-0.7-2.3-1.2-2.9
		c-1.2,0.3-3,1.5-4.8,3.2l-0.4,0c1.4-2.9,2.3-6.2,2.3-9.7c-0.2-8.2-5.7-14.1-9.2-8.7c-0.9,1.4-1.4,3.3-1.7,5.4
		c-0.2,0.3-0.3,0.7-0.4,1.1c-2.4-2.3-5.2-3.2-7.5-1.7c-2.2,1.4-2.5,7.3-1.9,11.8c0,0.3,0.1,0.5,0.1,0.9c0.1,0.4,0.1,0.7,0.2,1
		c-0.3,0.4-0.6,0.7-0.8,1.1l-8.1,0.5l0.1,14.9l5.2,16.6l36.5-2.6l-0.1-14.6L1260,1224.8z"/>
	<polygon fill-rule="evenodd" clip-rule="evenodd" fill="#8A1812" points="94.6,868 1384.4,962.8 1384,922.7 94.9,801.5 	"/>
	
		<linearGradient id="SVGID_58_" gradientUnits="userSpaceOnUse" x1="741.0733" y1="462.3266" x2="741.0733" y2="887.504" gradientTransform="matrix(0.9809 9.274610e-002 0 1 12.5426 -100.0367)">
		<stop  offset="0" style="stop-color:#A31916"/>
		<stop  offset="1" style="stop-color:#E14342"/>
	</linearGradient>
	<polygon fill-rule="evenodd" clip-rule="evenodd" fill="url(#SVGID_58_)" points="94.9,801.5 1384,922.7 1321.4,635.1 248.2,384.6 
			"/>
	<path fill-rule="evenodd" clip-rule="evenodd" fill="#8A1812" d="M749.1,530.4c8,13.7,18.4,25.1,30.8,33
		c22.1,14.1,53.8,19.4,70.5,2.7c28.7,29.9,64.1,36.3,91.7,19.3c6.4,9.5,14.7,16.2,24,18.2l27.3,5.8c17.7,3.7,31.6-11.4,34.5-37.3
		c13,30.1,32.3,51.7,53.7,59.4c24.8,9,53.1-7.4,67.9-36.5l-574-134c7.8,16.9,18.9,34.1,34.5,49.5l24.3,19.4
		C673.7,555.1,718.7,556.1,749.1,530.4z"/>
	
		<linearGradient id="SVGID_59_" gradientUnits="userSpaceOnUse" x1="783.323" y1="894.4147" x2="783.323" y2="489.1678" gradientTransform="matrix(0.9809 9.274610e-002 0 1 12.5426 -100.0367)">
		<stop  offset="0" style="stop-color:#F4981A"/>
		<stop  offset="1" style="stop-color:#AD2F17"/>
	</linearGradient>
	<path fill-rule="evenodd" clip-rule="evenodd" fill="url(#SVGID_59_)" d="M298.8,591c-20.9,69.2-43.5,143.5-67.6,223.3
		c43,4,84.8,8,125.6,11.8c18.8-77.1,36.4-149.1,52.7-216.4c15.3-62.9,29.6-122,43.1-177.5c-32.3-7.5-65.2-15.2-98.9-23.1
		C336.5,465.9,318.2,526.4,298.8,591z M512.3,627.2C500,692.5,486.7,762.4,472.6,837c36.6,3.4,72.3,6.8,107,10.1
		c10.1-72.3,19.6-140.1,28.5-203.7c8.4-59.8,16.3-116.1,23.7-169.3c-28.3-6.6-57.2-13.3-86.7-20.2
		C534.9,508.2,524,565.9,512.3,627.2z M697.8,658.6c-5.8,61.9-12.1,127.7-18.7,197.8c31.5,3,62.3,5.9,92.6,8.7
		c3.6-68,7-132,10.1-192.3c2.9-56.9,5.7-110.8,8.4-161.8c-25.2-5.9-50.7-11.8-76.8-17.9C708.4,545.2,703.2,600.3,697.8,658.6z
		 M931,544c-22.5-5.2-45.2-10.6-68.4-16c-0.7,50-1.4,102.7-2.1,158.2c-0.8,58.8-1.6,121.1-2.5,187.1c27.5,2.6,54.3,5.1,80.7,7.6
		c-1.5-64.1-2.8-124.8-4.1-182.1C933.3,644.5,932.1,592.9,931,544z M1057,573.4c-20.1-4.7-40.5-9.5-61.3-14.3
		c2.7,48,5.6,98.5,8.6,151.5c3.2,55.9,6.5,115,10,177.4c24.1,2.3,47.8,4.5,70.9,6.7c-5.3-60.7-10.3-118.3-15.2-172.9
		C1065.5,669.8,1061.1,620.4,1057,573.4z M1170.7,599.9c-18.2-4.2-36.6-8.5-55.4-12.9c5.4,46.2,11.1,94.6,17,145.3
		c6.2,53.3,12.8,109.5,19.7,168.6c21.4,2,42.3,4,63,5.9c-8.3-57.6-16.3-112.4-23.8-164.6C1184.1,692.6,1177.2,645.2,1170.7,599.9z
		 M1300.1,760.7c-9.3-47.6-18.2-93.2-26.7-136.8c-16.5-3.9-33.2-7.8-50.2-11.7c7.6,44.5,15.5,90.9,23.9,139.5
		c8.7,51,17.8,104.5,27.4,160.7c19.1,1.8,37.8,3.6,56.2,5.3C1320,862.8,1309.8,810.6,1300.1,760.7z"/>

	<polygon fill-rule="evenodd" clip-rule="evenodd" fill="#952F14" points="356.6,887.3 230.9,878.1 231.1,814.3 356.7,826.1 	"/>
	<polygon fill-rule="evenodd" clip-rule="evenodd" fill="#952F14" points="579.8,903.7 472.6,895.8 472.6,837 579.8,847.1 	"/>
	<polygon fill-rule="evenodd" clip-rule="evenodd" fill="#952F14" points="772,917.8 679.4,911 679.2,856.5 771.8,865.2 	"/>
	<polygon fill-rule="evenodd" clip-rule="evenodd" fill="#952F14" points="939.1,930.1 858.4,924.2 858.1,873.3 938.9,880.9 	"/>
	<polygon fill-rule="evenodd" clip-rule="evenodd" fill="#952F14" points="1085.9,940.9 1014.8,935.7 1014.5,888 1085.5,894.6 	"/>
	<polygon fill-rule="evenodd" clip-rule="evenodd" fill="#952F14" points="1215.7,950.4 1152.7,945.8 1152.4,900.9 1215.3,906.8 	
		"/>
	<polygon fill-rule="evenodd" clip-rule="evenodd" fill="#952F14" points="1331.4,958.9 1275.2,954.8 1274.8,912.4 1331,917.7 	"/>
	<polygon fill-rule="evenodd" clip-rule="evenodd" fill="#F7A846" points="1321.4,635.1 1377.2,915.5 113.3,792.5 248.2,384.6 
		94.9,801.5 1384,922.7 	"/>
	
		<linearGradient id="SVGID_60_" gradientUnits="userSpaceOnUse" x1="691.2826" y1="406.2008" x2="691.2826" y2="136.5254" gradientTransform="matrix(0.9913 0.1392 -4.409175e-002 0.9948 37.5183 -127.4338)">
		<stop  offset="0" style="stop-color:#C2BCB2"/>
		<stop  offset="1" style="stop-color:#958C7A"/>
	</linearGradient>
	<path fill-rule="evenodd" clip-rule="evenodd" fill="url(#SVGID_60_)" d="M4.7,5.3c-0.4,12.4,4.5,26.4,14.6,39
		c10.1,12.5,23.5,21.3,36.9,25.3l1344.2,400.9c4.4,1.3,8.8-0.1,12.2-4.4c3.4-4.3,5.2-10.8,5.3-17.8l0-0.4L4.7,4.6L4.7,5.3z"/>
	
		<linearGradient id="SVGID_61_" gradientUnits="userSpaceOnUse" x1="573.9002" y1="286.5288" x2="1160.0859" y2="286.5288" gradientTransform="matrix(0.9809 9.274610e-002 0 1 12.5426 -100.0367)">
		<stop  offset="0" style="stop-color:#DF9F47"/>
		<stop  offset="0.1346" style="stop-color:#A46415"/>
		<stop  offset="0.1358" style="stop-color:#915214"/>
		<stop  offset="0.3" style="stop-color:#A46415"/>
		<stop  offset="0.3209" style="stop-color:#DF9F47"/>
		<stop  offset="0.3976" style="stop-color:#A46415"/>
		<stop  offset="0.4728" style="stop-color:#915214"/>
		<stop  offset="0.5532" style="stop-color:#FBD675"/>
		<stop  offset="0.6336" style="stop-color:#915214"/>
		<stop  offset="0.6575" style="stop-color:#E1C665"/>
		<stop  offset="0.7872" style="stop-color:#915214"/>
		<stop  offset="0.8487" style="stop-color:#DF9F47"/>
		<stop  offset="0.948" style="stop-color:#915214"/>
		<stop  offset="1" style="stop-color:#BF8724"/>
	</linearGradient>
	<path fill-rule="evenodd" clip-rule="evenodd" fill="url(#SVGID_61_)" d="M1146.5,438.1c1.9,57.5-40,97.6-74.9,82.9
		c-20.4-8.5-38.8-30.8-51.1-61.3c-2.8,25.7-15.9,40.4-32.7,36l-25.9-6.7c-8.8-2.3-16.7-9.3-22.8-19c-26.1,16-59.5,8.4-86.7-22.3
		c-15.7,16.1-45.5,9.7-66.4-5.1c-11.6-8.2-21.4-19.9-29-33.8c-28.6,24.6-70.7,22-107.6-4.2l-22.7-20
		c-53.9-58.3-48.8-135.8-51.3-139.9l0.2-14.3c0.4-26.1,13.2-43.3,30.6-45.8l-0.6-2c-23.1-81.6,1.1-164,56.8-169.6
		c44.4-4.4,94.3,33.3,120.7,93c19.8-13.1,40.1-36,65.3-11c16.8,16.8,25.9,45.6,23,70.4l-0.6,5.2c26.5-5.5,57,10,79.7,41.3l4.5,3.3
		c6.3-8.5,15.5-11.6,25.5-7.8l23.7,9c2.2,0.8,4.4,2,6.6,3.6c17.4-4.4,32.1,4.9,43.5,21.7c27.2-9.2,60,11.7,79.2,56.8
		c16.5,38.8,19.3,89.4,14.9,129C1148.2,431.4,1147.5,434.9,1146.5,438.1z"/>
	
		<linearGradient id="SVGID_62_" gradientUnits="userSpaceOnUse" x1="867.1158" y1="533.5701" x2="867.1158" y2="90.9124" gradientTransform="matrix(0.9809 9.274610e-002 0 1 12.5426 -100.0367)">
		<stop  offset="0" style="stop-color:#DF9F47"/>
		<stop  offset="0.1346" style="stop-color:#A46415"/>
		<stop  offset="0.1358" style="stop-color:#915214"/>
		<stop  offset="0.6068" style="stop-color:#FBD675"/>
		<stop  offset="0.703" style="stop-color:#FAF2A0"/>
		<stop  offset="0.8034" style="stop-color:#FAF2A0"/>
		<stop  offset="0.8868" style="stop-color:#E1C665"/>
		<stop  offset="1" style="stop-color:#BF8724"/>
	</linearGradient>
	<path fill-rule="evenodd" clip-rule="evenodd" fill="url(#SVGID_62_)" d="M1146.7,463.9c1.9,57.5-40,98.1-74.9,83.9
		c-20.4-8.3-38.8-30.3-51.1-60.7c-2.8,25.8-15.9,40.6-32.7,36.4L962,517c-8.8-2.2-16.7-9.1-22.8-18.7c-26.1,16.3-59.5,9.1-86.7-21.3
		c-15.8,16.3-45.6,10.2-66.4-4.3c-11.6-8.1-21.4-19.6-29-33.4c-28.6,24.9-70.7,22.9-107.6-3l-22.7-19.7
		c-53.9-57.7-48.9-135.3-51.3-139.5l0.2-14.3c0.4-26.2,13.2-43.4,30.6-46.2l-0.6-2c-23.2-81.4,1.1-164.1,56.9-170.4
		c44.4-5,94.3,32.2,120.8,91.7c19.8-13.4,40.1-36.5,65.3-11.7c16.8,16.6,25.9,45.4,23,70.2l-0.6,5.2c26.5-5.8,57,9.3,79.7,40.4
		l4.5,3.3c6.3-8.5,15.5-11.8,25.5-8.1l23.7,8.8c2.2,0.8,4.4,2,6.6,3.5c17.4-4.6,32.1,4.5,43.6,21.2c27.2-9.5,60,11,79.3,55.9
		c16.5,38.6,19.3,89.2,14.9,128.9C1148.4,457.1,1147.7,460.6,1146.7,463.9z"/>
		<linearGradient id="SVGID_63_" gradientUnits="userSpaceOnUse" x1="871.9813" y1="504.647" x2="871.9813" y2="229.0815" gradientTransform="matrix(0.9809 9.274610e-002 0 1 12.5426 -100.0367)">
		<stop  offset="0" style="stop-color:#4E1011"/>
		<stop  offset="1" style="stop-color:#A21916"/>
	</linearGradient>
	<path fill="url(#SVGID_63_)" d="M621.3,251.6l32.7,7.5l0-0.1l0.1,0c-11.6-14.8-19.5-30.3-25.1-49.9l0,0
		c-16.1-57-2.5-125,42.1-130.6c38.4-4.8,86.8,31.7,103.5,95.7c1.6,6,2.9,12.2,3.9,18.7c1.4,0,2.9,0.3,4.4,0.8l1.2-10.2l0-0.1
		c0.8-6.9,3.7-11.8,7.7-14l33.1-22.8l0-0.1c11.9-8.2,29.2,12.9,26.2,34.8l-4.1,35.3c6.9,3.6,12.5,13,14.2,23.2c3.4-3,7-5.3,10.8-7
		l0,0c25-10.9,59.6,5.5,79.3,46.3l0,0c4.7,9.8,8.5,20.9,11.2,32.6l3.7-33.5l0,0c1.2-11,7.6-16.7,14.8-13.9l23.7,8.5
		c2.8,1,5.3,3.1,7.5,6c11.6-6.4,23.4-0.8,34.9,12.5l0,0c2.5,2.9,4.5,6.7,5.8,10.7c20.3-15.7,50.9-5,68.2,35.3
		c13.3,30.9,14.9,73.9,11.4,105.8l0,0.1c-0.5,4.4-1.8,7.9-3.7,10.3c2,6.9,1.9,13.4,0.2,19.4c-5,17.2-9.8,29.9-19.7,39.6l0,0.1
		c-32,31.5-86.2-12.8-86.8-111.1c-0.1-13.6,0.8-26.4,2.7-38.2l-2.8,0.6l0,0c-3.4,3-5.7,7.7-7.4,13.6l0,0.1
		c-3.2,11.2-5.4,30.3-7,46.1l0,0.1l-5.9,54.9l0,0.1c-1.2,10.9-7.4,17.1-14.5,15.2l-25.9-6.8c-9.4-2.5-16.9-17.4-14.9-32.5l0.4-3.5
		c-26.2,41.6-76.6,29.8-102.6-27.4l-1.6,14l0,0.1c-2.4,20.6-19.9,17.6-31.9,14.5c-6.7-1.7-12.9-4.6-18.5-8.5l-0.1,0
		c-17.6-12.5-28.2-36-29.8-63.3c-22.5,58.1-83.9,52.7-123.1,10.4l0,0c-29.1-31.5-38.8-75.4-38.1-119.3l-0.1-0.1
		C601.8,257.1,610.6,248.3,621.3,251.6z"/>
	<path fill="#676767" d="M621.4,278.2l33.9,7.4c0.5,15.5,1.8,26.5,3.9,33.1c2.1,6.6,5.6,12.3,10.4,17.1c4.8,4.8,11.3,8.4,19.5,10.7
		c10.6,3,18.4,2.1,23.7-2.8c5.2-4.8,7.8-12.3,7.8-22.6c0-7.3-1.5-13.9-4.6-20c-3-6.1-10.8-15.6-23.6-28.9
		c-16.3-17.1-27.2-30-32.7-38.4c-5.5-8.4-9.7-18.1-12.7-28.8c-3.1-10.8-4.6-22.5-4.6-34.9c0-25.5,5.4-43.9,16.3-55
		c10.8-11.1,25.5-13,43.8-6.1c18.3,6.9,32.8,19.6,43.5,38.2c10.7,18.3,16.6,40.8,17.7,67.4l-31.5-8.4c-1.7-27.9-11.6-45.1-29.8-51.7
		c-9.1-3.3-15.8-3-20.1,0.7c-4.3,3.8-6.5,10.2-6.5,19.5c0,8.5,2.1,16.1,6.2,22.8c4,6.7,12.1,16.6,24.1,29.6
		c15.8,16.7,26.2,29.1,31.3,37.1c5.1,8,9,17,11.8,27.1c2.7,10,4.1,20.9,4.1,32.5c0.1,26.1-5.7,45.7-17.3,59
		c-11.8,13.4-27.5,17.5-47.3,12.2c-15.1-4.1-28.2-12-39.1-24c-11-12-18.6-26.2-22.6-42.5C623,312.3,621.2,295.5,621.4,278.2
		L621.4,278.2z M778.4,256.6l4.5-37.9l14.8,5.1l3.5-30l33.7-23.7l-7.6,64l17.9,6.2l-4.3,37l-17.9-5.9l-9.4,78.3
		c-1.6,14.2-2.5,22.5-2.4,24.8c0,4.3,0.8,7.7,2.3,10.2c1.5,2.5,4.2,4.3,7.8,5.4c1.2,0.3,4.4,0.8,9.6,1.4l-4.4,37.6
		c-5.1,0.4-10.3-0.2-15.5-1.6c-10.2-2.7-17.9-8.2-23-16.6c-5.2-8.3-7.8-19.2-7.8-32.6c0-6.2,1.3-19.9,3.7-40.9l9.1-76.1L778.4,256.6
		L778.4,256.6z M846.4,352.9c-0.1-31.5,4.6-56.7,14.1-75.5c10.4-20.4,25.6-27.2,45.1-20.3c14.4,5,25.9,16.3,34.4,33.9
		c8.4,17.5,12.7,39.1,12.8,65.1c0.2,30.5-4.9,54.9-15.2,73.4c-10.4,18.6-24.3,25.7-41.7,21c-14.4-3.9-26.2-14.5-35.4-32
		C851.2,400.7,846.5,378.9,846.4,352.9L846.4,352.9z M926.2,341.1c-0.1-12.3-2-22.5-5.9-30.8c-3.9-8.3-8.8-13.5-14.7-15.4
		c-5-1.7-9.7-0.6-14.1,3.1c-4.4,3.8-8.3,11.5-11.5,23.4c-3.3,11.9-4.9,24.9-4.9,38.8c0.1,14.2,2.2,25.9,6.3,34.9
		c4.2,9.1,9.2,14.4,15.3,16.2c7.5,2.1,13.9-2.1,19-12.6C922.9,384.5,926.3,365.3,926.2,341.1L926.2,341.1z M980.9,287.4l24,8.3
		l-3.6,33.6c8.6-23,18-32.7,28.2-29.1c3.5,1.2,7.3,4.3,11.5,9l-9.2,36.1c-2.2-2.3-4.6-3.9-7.1-4.7c-3.9-1.3-7.5-0.4-11,2.6
		c-5.2,4.7-9.2,11.8-11.9,21.4c-2.7,9.5-5.4,26.6-8,51.2l-6,55.2l-26.1-7L980.9,287.4L980.9,287.4z M1119.8,435.3
		c1-8.5,1.4-18.4,1.3-29.7c-0.2-23.8-3.5-43.1-9.9-57.9c-6.5-14.9-14.8-24.2-25.1-27.8c-15.5-5.4-27.7,0.6-36.4,18.3
		c-8.8,17.7-13.1,40.3-12.9,67.7c0.2,25.3,4.2,46.5,12.2,63.5c7.9,16.9,17.6,26.8,29.2,29.9c8.6,2.3,16.3,0.2,23.1-6.3
		c6.7-6.5,12.1-17.5,16-33.1l-20.9-13.1c-4.3,14.8-10.4,21.2-18.2,19c-4.7-1.3-8.9-6.1-12.3-14.1c-3.5-8.1-5.3-18-5.4-29.8l0-4.5
		L1119.8,435.3L1119.8,435.3z M1099.9,400.9l-37.2-11.7c1.3-14,3.8-24,7.8-30.1c3.9-6,8.3-8.2,13.1-6.6c4.8,1.6,8.6,6,11.6,13.3
		c3,7.3,4.6,17.5,4.7,30.6L1099.9,400.9z"/>
	
		<linearGradient id="SVGID_64_" gradientUnits="userSpaceOnUse" x1="875.4733" y1="494.5712" x2="875.4733" y2="291.6499" gradientTransform="matrix(0.9809 9.274610e-002 0 1 12.5426 -100.0367)">
		<stop  offset="0" style="stop-color:#CFCFC9"/>
		<stop  offset="0.6194" style="stop-color:#B3B4AA"/>
		<stop  offset="0.6288" style="stop-color:#F5F6F4"/>
		<stop  offset="1" style="stop-color:#FFFFFF"/>
	</linearGradient>
	<path fill="url(#SVGID_64_)" d="M621.4,283.2l33.9,7.4c0.5,15.5,1.8,26.5,3.9,33.1c2.1,6.6,5.6,12.3,10.4,17.1
		c4.8,4.8,11.3,8.4,19.5,10.7c10.6,3,18.4,2,23.7-2.8c5.2-4.8,7.8-12.4,7.8-22.6c0-7.3-1.5-13.9-4.6-20c-3-6.1-10.8-15.6-23.6-28.9
		c-16.3-17.1-27.2-29.9-32.7-38.4c-5.5-8.4-9.7-18-12.7-28.7c-3.1-10.8-4.6-22.5-4.6-34.9c0-25.5,5.4-43.9,16.3-55
		c10.8-11.1,25.5-13.1,43.8-6.2c18.3,6.9,32.8,19.6,43.5,38.1c10.7,18.3,16.6,40.8,17.7,67.4l-31.5-8.4
		c-1.7-27.9-11.6-45.1-29.8-51.6c-9.1-3.3-15.8-3-20.1,0.8c-4.3,3.8-6.5,10.3-6.5,19.5c0,8.5,2.1,16.1,6.2,22.8
		c4,6.7,12.1,16.6,24.1,29.5c15.8,16.7,26.2,29.1,31.3,37c5.1,8,9,17,11.8,27.1c2.7,10,4.1,20.9,4.1,32.5c0.1,26.1-5.7,45.7-17.3,59
		c-11.8,13.4-27.5,17.6-47.3,12.3c-15.1-4-28.2-12-39.1-23.9c-11-12-18.6-26.1-22.6-42.4C623,317.3,621.2,300.5,621.4,283.2
		L621.4,283.2z M778.4,261.4l4.6-37.9l14.8,5.1l3.5-30l33.7-23.8l-7.6,64l17.9,6.2l-4.3,37l-17.9-5.9l-9.4,78.4
		c-1.6,14.2-2.5,22.5-2.4,24.8c0,4.3,0.8,7.7,2.3,10.2c1.5,2.5,4.2,4.3,7.8,5.3c1.2,0.3,4.4,0.8,9.6,1.4l-4.4,37.7
		c-5.1,0.4-10.3-0.2-15.5-1.6c-10.2-2.7-17.9-8.2-23-16.5c-5.2-8.3-7.8-19.2-7.8-32.6c0-6.2,1.3-19.9,3.7-40.9l9.1-76.1L778.4,261.4
		L778.4,261.4z M846.4,357.5c-0.1-31.5,4.6-56.7,14.1-75.6c10.4-20.4,25.6-27.2,45.1-20.4c14.4,5,25.9,16.3,34.4,33.8
		c8.4,17.4,12.7,39,12.8,65.1c0.2,30.5-4.9,55-15.2,73.5c-10.4,18.6-24.3,25.7-41.7,21.1c-14.4-3.8-26.2-14.5-35.4-32
		C851.2,405.3,846.5,383.5,846.4,357.5L846.4,357.5z M926.2,345.6c-0.1-12.3-2-22.5-5.9-30.8c-3.9-8.3-8.8-13.4-14.7-15.4
		c-5-1.7-9.7-0.6-14.1,3.1c-4.4,3.8-8.3,11.6-11.5,23.5c-3.3,11.9-4.9,24.9-4.9,38.9c0.1,14.2,2.2,25.9,6.3,34.9
		c4.2,9,9.2,14.4,15.3,16.1c7.5,2.1,13.9-2.1,19-12.6C922.9,389,926.4,369.8,926.2,345.6L926.2,345.6z M980.9,291.8l24,8.3
		l-3.6,33.6c8.6-23,18-32.7,28.2-29.1c3.5,1.2,7.3,4.2,11.5,9l-9.2,36.1c-2.2-2.3-4.6-3.9-7.1-4.7c-3.9-1.3-7.5-0.4-11,2.6
		c-5.2,4.7-9.2,11.9-11.9,21.4c-2.7,9.5-5.4,26.6-8,51.2l-6,55.2l-26.1-7L980.9,291.8L980.9,291.8z M1119.8,439.4
		c1-8.5,1.4-18.4,1.3-29.7c-0.2-23.8-3.5-43.1-9.9-57.9c-6.5-14.9-14.8-24.1-25.1-27.7c-15.5-5.4-27.7,0.7-36.4,18.3
		c-8.8,17.8-13.1,40.4-12.9,67.7c0.2,25.3,4.2,46.5,12.2,63.5c7.9,16.8,17.6,26.8,29.2,29.8c8.6,2.3,16.3,0.2,23.1-6.3
		c6.7-6.5,12.1-17.5,16-33.1l-20.9-13.1c-4.3,14.8-10.4,21.2-18.2,19c-4.7-1.3-8.9-6-12.3-14.1c-3.5-8.1-5.3-18-5.4-29.8l0-4.5
		L1119.8,439.4L1119.8,439.4z M1100,405l-37.2-11.6c1.3-14,3.8-24.1,7.8-30.1c3.9-6.1,8.3-8.2,13.1-6.6c4.8,1.6,8.6,6,11.6,13.3
		c3,7.2,4.6,17.5,4.7,30.6L1100,405z"/>

	<polygon fill-rule="evenodd" clip-rule="evenodd" fill="#1C140C" points="1384.6,973 94.5,884.8 94.6,868 1384.4,962.8 	"/>
	
	
</g>
</svg>
