<?xml version="1.0" encoding="utf-8"?>
<!-- Generator: Adobe Illustrator 18.0.0, SVG Export Plug-In . SVG Version: 6.00 Build 0)  -->
<!DOCTYPE svg PUBLIC "-//W3C//DTD SVG 1.1//EN" "http://www.w3.org/Graphics/SVG/1.1/DTD/svg11.dtd">
<svg version="1.1" id="Calque_1" xmlns="http://www.w3.org/2000/svg" xmlns:xlink="http://www.w3.org/1999/xlink" x="0px" y="0px"
	 viewBox="0 0 708.7 850.4" enable-background="new 0 0 708.7 850.4" xml:space="preserve">

<g>	
		<polygon fill="#CFC8CC" points="83.4,315.8 643.9,161.5 643.1,880.2 79.7,689.6 		"/>
		<polygon fill="#CFC8CC" points="87.9,319.1 627.5,174.4 626.6,866 84.3,686.6 		"/>
		<polygon fill="#CFC8CC" points="84.9,318.3 638.3,168.5 637.5,872.7 81.2,687.2 		"/>
		<polygon fill="#CFC8CC" points="86.1,318 634,169.6 633.2,871.2 82.4,687.6 		"/>
		<polygon fill="#CFC8CC" points="87.1,322.2 630.5,179 629.7,861.4 83.4,683.4 		"/>
	
	
		
			<polygon fill="#E4F3FD" points="344.5,348.2 362,345.4 359.7,748.9 342.2,743.7 			"/>
			<polygon fill="#E4F3FD" points="88.3,670.9 91.2,384.8 102.5,398.9 99.7,660.2 			"/>
			<polygon fill="#E4F3FD" points="88.3,670.9 100.3,653 335.7,716.3 362.7,754.1 			"/>
			<polygon fill="#E4F3FD" points="90.1,653.2 358.8,726.7 358.6,748.6 89.9,668.4 			"/>
			<polygon fill="#E4F3FD" points="92.7,389.5 101,388.2 98.2,670.9 89.9,668.4 			"/>
			<polygon fill="#E4F3FD" points="340,722.6 342.2,344.4 365.1,340.8 362.8,754 			"/>
			<polygon fill="#E4F3FD" points="106.4,403.7 91.1,384.8 365.1,340.8 325.5,375.9 			"/>
			<polygon fill="#E4F3FD" points="93.1,386.8 360.8,344.8 360.7,365.4 93,401.1 			"/>
			<polygon fill="#E4F3FD" points="358.8,748.6 89.9,668.4 97.7,655.3 345.2,723 			"/>
			<polygon fill="#E4F3FD" points="89.9,668.4 92.7,386.7 100.9,396.7 98.4,653.6 			"/>
			<polygon fill="#E4F3FD" points="341.9,721 344.4,373.1 361,344.5 358.7,748.6 			"/>
			<polygon fill="#E4F3FD" points="345.8,368.2 103.9,400.3 92.7,386.7 360.9,344.6 			"/>
		
		
			<polygon fill="#E4F3FD" points="96.8,394.8 352.5,358.2 350.3,735.5 94.2,662.2 			"/>
			<polygon fill="#E4F3FD" points="97.6,396.2 350.9,360.5 348.8,732.9 95,660.9 			"/>
		
	
	<polygon fill="#1D1A19" points="380.8,338.2 613.7,300.8 612.9,850.4 378.5,775.1 	"/>
	<polygon fill="#1D1A19" points="385.1,343.3 606.9,309.1 606,840.8 382.9,770.6 	"/>
	
		<linearGradient id="SVGID_1_" gradientUnits="userSpaceOnUse" x1="453.8941" y1="77.2516" x2="682.0728" y2="77.2516" gradientTransform="matrix(1 0 0 -1 -72.6602 655.04)">
		<stop  offset="0" style="stop-color:#1D1A19"/>
		<stop  offset="2.420000e-002" style="stop-color:#1D1A19"/>
		<stop  offset="0.1333" style="stop-color:#1D1A19"/>
		<stop  offset="0.6848" style="stop-color:#1D1A19"/>
		<stop  offset="0.8909" style="stop-color:#1D1A19"/>
		<stop  offset="0.9697" style="stop-color:#1D1A19"/>
		<stop  offset="1" style="stop-color:#1D1A19"/>
	</linearGradient>
	<polygon fill="url(#SVGID_1_)" points="383.5,341.9 609.4,306.6 608.6,849 381.2,776 	"/>
	
		<linearGradient id="SVGID_2_" gradientUnits="userSpaceOnUse" x1="458.3077" y1="77.8767" x2="675.3387" y2="77.8767" gradientTransform="matrix(1 0 0 -1 -72.6602 655.04)">
		<stop  offset="0" style="stop-color:#1D1A19"/>
		<stop  offset="2.420000e-002" style="stop-color:#1D1A19"/>
		<stop  offset="0.1333" style="stop-color:#1D1A19"/>
		<stop  offset="0.6848" style="stop-color:#1D1A19"/>
		<stop  offset="0.8909" style="stop-color:#1D1A19"/>
		<stop  offset="0.9697" style="stop-color:#1D1A19"/>
		<stop  offset="1" style="stop-color:#1D1A19"/>
	</linearGradient>
	<polygon fill="url(#SVGID_2_)" points="387.8,347 602.7,314.8 601.8,839.5 385.6,771.5 	"/>
	<polygon fill="#1D1A19" points="385.1,343.3 606.9,309.1 606,846.5 382.9,775.2 	"/>
	
		<linearGradient id="SVGID_3_" gradientUnits="userSpaceOnUse" x1="458.2841" y1="75.0608" x2="675.3387" y2="75.0608" gradientTransform="matrix(1 0 0 -1 -72.6602 655.04)">
		<stop  offset="0" style="stop-color:#1D1A19"/>
		<stop  offset="2.420000e-002" style="stop-color:#1D1A19"/>
		<stop  offset="0.1333" style="stop-color:#1D1A19"/>
		<stop  offset="0.6606" style="stop-color:#1D1A19"/>
		<stop  offset="0.8909" style="stop-color:#1D1A19"/>
		<stop  offset="0.9697" style="stop-color:#1D1A19"/>
		<stop  offset="1" style="stop-color:#1D1A19"/>
	</linearGradient>
	<polygon fill="url(#SVGID_3_)" points="387.8,347 602.7,314.8 601.8,845.1 385.6,776.1 	"/>
	<polygon fill="#1D1A19" points="397,568 414.4,569.6 414.1,633.6 396.7,630.8 	"/>
	<polygon fill="#6A6262" points="395.1,565.3 412.4,566.9 412.1,630.7 394.8,628 	"/>
	
		
			<linearGradient id="SVGID_4_" gradientUnits="userSpaceOnUse" x1="382.0474" y1="390.2747" x2="554.1991" y2="218.123" gradientTransform="matrix(1 0 0 -1 -72.6602 655.04)">
			<stop  offset="0.5576" style="stop-color:#FFFFFF"/>
			<stop  offset="0.8667" style="stop-color:#C4E6FA"/>
			<stop  offset="1" style="stop-color:#80CEF4"/>
		</linearGradient>
		<polygon fill="url(#SVGID_4_)" points="400.3,356.3 478.6,345.5 478.2,440.3 399.8,443.7 		"/>
		
			<linearGradient id="SVGID_5_" gradientUnits="userSpaceOnUse" x1="460.0927" y1="418.8884" x2="658.116" y2="220.8651" gradientTransform="matrix(1 0 0 -1 -72.6602 655.04)">
			<stop  offset="0.5576" style="stop-color:#FFFFFF"/>
			<stop  offset="0.8667" style="stop-color:#C4E6FA"/>
			<stop  offset="1" style="stop-color:#80CEF4"/>
		</linearGradient>
		<polygon fill="url(#SVGID_5_)" points="489.4,344 584.2,330.9 584,435.6 489,439.8 		"/>
		
			<linearGradient id="SVGID_6_" gradientUnits="userSpaceOnUse" x1="374.4552" y1="293.6899" x2="555.9636" y2="112.1815" gradientTransform="matrix(1 0 0 -1 -72.6602 655.04)">
			<stop  offset="0.5576" style="stop-color:#FFFFFF"/>
			<stop  offset="0.8667" style="stop-color:#C4E6FA"/>
			<stop  offset="1" style="stop-color:#80CEF4"/>
		</linearGradient>
		<polygon fill="url(#SVGID_6_)" points="399.8,455.7 478.2,453.2 477.8,548.4 399.3,543.3 		"/>
		
			<linearGradient id="SVGID_7_" gradientUnits="userSpaceOnUse" x1="451.1003" y1="313.3865" x2="660.4938" y2="103.993" gradientTransform="matrix(1 0 0 -1 -72.6602 655.04)">
			<stop  offset="0.5576" style="stop-color:#FFFFFF"/>
			<stop  offset="0.8667" style="stop-color:#C4E6FA"/>
			<stop  offset="1" style="stop-color:#80CEF4"/>
		</linearGradient>
		<polygon fill="url(#SVGID_7_)" points="489,452.9 584,450 583.8,555.1 488.7,549.1 		"/>
	
	<polygon fill="#C2E6F8" points="404.1,360.7 474.1,351.5 473.8,435 403.7,438.5 	"/>
	<polygon fill="#C3E6F6" points="494,348.8 578.7,337.6 578.6,429.9 493.7,434.1 	"/>
	<polygon fill="#C2E6F8" points="403.6,460.6 473.7,458.8 473.4,542.6 403.2,538.5 	"/>
	<polygon fill="#C2E6F8" points="493.6,458.3 578.5,456.1 578.3,548.8 493.3,543.8 	"/>
	
		<polygon fill="#CFC6C0" points="73.8,676.5 668.3,866.6 668.3,915.8 73.6,701.2 		"/>
		<polygon fill="#CFC6C0" points="75.3,679.9 662.4,870.4 662.4,908 75.1,698.9 		"/>
	
	<polygon fill="#1D1719" points="707.6,156 67.4,326.1 100.8,201.7 555.8,-2.8 	"/>
	
		
			<linearGradient id="SVGID_8_" gradientUnits="userSpaceOnUse" x1="190.793" y1="335.5126" x2="190.793" y2="472.8386" gradientTransform="matrix(1 0 0 -1 -72.6602 655.04)">
			<stop  offset="0" style="stop-color:#433F43"/>
			<stop  offset="1" style="stop-color:#1D1719"/>
		</linearGradient>
		<polygon fill="url(#SVGID_8_)" points="121.8,192.3 144.2,182.2 118.9,312.4 92.1,319.5 		"/>
		
			<linearGradient id="SVGID_9_" gradientUnits="userSpaceOnUse" x1="243.7873" y1="350.4215" x2="243.7873" y2="495.2407" gradientTransform="matrix(1 0 0 -1 -72.6602 655.04)">
			<stop  offset="0" style="stop-color:#433F43"/>
			<stop  offset="1" style="stop-color:#1D1719"/>
		</linearGradient>
		<polygon fill="url(#SVGID_9_)" points="168.2,171.4 194,159.8 180.3,296.1 148.2,304.6 		"/>
		
			<linearGradient id="SVGID_10_" gradientUnits="userSpaceOnUse" x1="307.6571" y1="368.3005" x2="307.6571" y2="521.232" gradientTransform="matrix(1 0 0 -1 -72.6602 655.04)">
			<stop  offset="0" style="stop-color:#433F43"/>
			<stop  offset="1" style="stop-color:#1D1719"/>
		</linearGradient>
		<polygon fill="url(#SVGID_10_)" points="221.9,147.3 251.9,133.8 254.5,276.4 215.5,286.7 		"/>
		
			<linearGradient id="SVGID_11_" gradientUnits="userSpaceOnUse" x1="387.9021" y1="390.1341" x2="387.9021" y2="551.7541" gradientTransform="matrix(1 0 0 -1 -72.6602 655.04)">
			<stop  offset="0" style="stop-color:#433F43"/>
			<stop  offset="1" style="stop-color:#1D1719"/>
		</linearGradient>
		<polygon fill="url(#SVGID_11_)" points="284.4,119.2 319.8,103.3 346.1,252.1 297.7,264.9 		"/>
		
			<linearGradient id="SVGID_12_" gradientUnits="userSpaceOnUse" x1="482.8236" y1="417.3973" x2="482.8236" y2="588.0988" gradientTransform="matrix(1 0 0 -1 -72.6602 655.04)">
			<stop  offset="0" style="stop-color:#433F43"/>
			<stop  offset="1" style="stop-color:#1D1719"/>
		</linearGradient>
		<polygon fill="url(#SVGID_12_)" points="358.4,85.9 400.7,66.9 461.9,221.3 400.4,237.6 		"/>
		
			<linearGradient id="SVGID_13_" gradientUnits="userSpaceOnUse" x1="602.8682" y1="452.4054" x2="602.8682" y2="632.1127" gradientTransform="matrix(1 0 0 -1 -72.6602 655.04)">
			<stop  offset="0" style="stop-color:#433F43"/>
			<stop  offset="1" style="stop-color:#1D1719"/>
		</linearGradient>
		<polygon fill="url(#SVGID_13_)" points="447.2,46 498.6,22.9 613.2,181.1 532.2,202.6 		"/>
	
	<polygon fill="#EB5B92" points="100.8,201.7 121.8,192.3 92.1,319.5 67.4,326.1 	"/>
	<polygon fill="#EB5B92" points="144.2,182.2 168.2,171.4 148.2,304.6 118.9,312.4 	"/>
	<polygon fill="#EB5B92" points="194,159.8 221.9,147.3 215.5,286.7 180.3,296.1 	"/>
	<polygon fill="#EB5B92" points="251.9,133.8 284.4,119.2 297.7,264.9 254.5,276.4 	"/>
	<polygon fill="#EB5B92" points="319.8,103.3 358.4,85.9 400.4,237.6 346.1,252.1 	"/>
	<polygon fill="#EB5B92" points="400.7,66.9 447.2,46 532.2,202.6 461.9,221.3 	"/>
	<polygon fill="#EB5B92" points="498.6,22.9 555.8,-2.8 707.6,156 613.2,181.1 	"/>
	
		
			<path fill="#1D1719" d="M147.9,335.3L147.9,335.3c0.4,13.5,7,23,15.4,21.5c8.6-1.6,15.9-14.2,16.6-28.5l0.1,0l0.2-28.8l-32.1,8.4
				L147.9,335.3z"/>
			<path fill="#1D1719" d="M297.5,300.4C297.5,300.4,297.5,300.4,297.5,300.4C297.5,300.4,297.5,300.4,297.5,300.4l0,2l0.1,0
				c0.6,16.5,10.6,27.8,23.2,25.5c13-2.4,24.1-18.3,25-36.1l0.1,0l0.2-35.5l-48.3,12.6L297.5,300.4L297.5,300.4z"/>
			<path fill="#1D1719" d="M400.2,277.5C400.2,277.5,400.2,277.6,400.2,277.5C400.2,277.6,400.2,277.6,400.2,277.5l0,2.2l0.1,0
				c0.8,18.5,13.5,30.9,29.6,28c16.6-3.1,30.7-21.4,31.8-41.5l0.1,0l0.2-40.2L400.4,242L400.2,277.5L400.2,277.5z"/>
			<path fill="#1D1719" d="M532.2,207.6l-0.1,40.6c0,0,0,0,0,0c0,0,0,0,0,0l0,2.4l0.1,0c1.1,21.1,17.7,34.9,38.8,31
				c22-4,40.6-25.6,42-48.8l0.1,0l0.1-46.3L532.2,207.6L532.2,207.6z"/>
			<path fill="#1D1719" d="M118.7,340.2l0.2-24.8l-26.9,7l-0.3,25.2l0,0c0.3,12.4,5.8,21.2,12.9,19.9c7.2-1.3,13.3-12.7,13.9-25.8
				l0,0L118.7,340.2C118.7,340.2,118.7,340.2,118.7,340.2C118.7,340.2,118.7,340.2,118.7,340.2z"/>
			<path fill="#1D1719" d="M254.2,310l0.2-30l-39,10.2l-0.2,28.5c0,0,0,0,0,0c0,0,0,0,0,0l0,1.7l0.1,0c0.5,14.8,8.5,25.2,18.7,23.3
				c10.5-1.9,19.4-16,20.1-31.9l0.1,0L254.2,310C254.2,310.1,254.2,310.1,254.2,310C254.2,310.1,254.2,310,254.2,310z"/>
		
		
			<path fill="#7F1847" d="M91.8,346.2l0.2-23.8l-24.7,6.4l-0.3,24.2l0,0c0.2,11.9,5.3,20.4,11.8,19.2c6.6-1.2,12.3-12.1,12.8-24.7
				l0,0L91.8,346.2C91.8,346.2,91.8,346.2,91.8,346.2C91.8,346.2,91.8,346.2,91.8,346.2z"/>
			<path fill="#7F1847" d="M147.9,333.7l0.2-25.9l-29.3,7.6l-0.3,26.3l0,0c0.3,12.9,6.4,22.1,14.1,20.7c7.9-1.5,14.5-13.4,15.1-27.1
				l0,0L147.9,333.7C147.9,333.7,147.9,333.7,147.9,333.7C147.9,333.7,147.9,333.7,147.9,333.7z"/>
			<path fill="#7F1847" d="M180,326.6C180,326.6,180,326.6,180,326.6C180,326.6,180,326.6,180,326.6l0,1.7l0.1,0
				c0.4,14.1,7.7,24.1,16.9,22.4c9.5-1.7,17.5-15.1,18.2-30.1l0.1,0l0.2-30.2l-35.3,9.2L180,326.6L180,326.6z"/>
			<path fill="#7F1847" d="M254.2,310C254.2,310,254.2,310.1,254.2,310C254.2,310.1,254.2,310.1,254.2,310l0,1.8l0.1,0
				c0.5,15.6,9.4,26.4,20.8,24.3c11.7-2.2,21.5-17.1,22.4-33.8l0.1,0l0.2-33.6l-43.3,11.3L254.2,310z"/>
			<path fill="#7F1847" d="M345.8,289.6C345.8,289.6,345.8,289.7,345.8,289.6C345.8,289.7,345.8,289.7,345.8,289.6l0,2.1l0.1,0
				c0.7,17.4,11.9,29.3,26.1,26.7c14.7-2.7,27.1-19.8,28.1-38.6l0.1,0l0.2-37.7L346,256.2L345.8,289.6L345.8,289.6z"/>
			<path fill="#7F1847" d="M461.7,263.8C461.7,263.8,461.7,263.8,461.7,263.8c0,0.1,0,0.1,0,0.2l0,2.2l0.1,0
				c1,19.7,15.4,32.8,33.7,29.4c19-3.5,35.1-23.3,36.4-44.9l0.1,0l0.1-43.1l-70.3,18.3L461.7,263.8L461.7,263.8z"/>
			<path fill="#7F1847" d="M613.2,186.5l-0.1,43.7c0,0,0,0,0,0.1c0,0,0,0,0,0l0,2.6l0.1,0c1.3,22.6,20.6,37.3,45.2,32.8
				c25.6-4.7,47.4-28.4,49-53.5l0.2,0v-50.2L613.2,186.5L613.2,186.5z"/>
		
	
	
		
			<path fill="#1D1719" d="M148,332.1L148,332.1c0.4,13.5,7,23,15.4,21.4c8.6-1.6,15.9-14.3,16.6-28.6l0.1,0l0.2-28.8l-32.1,8.5
				L148,332.1z"/>
			<path fill="#1D1719" d="M297.5,296.5C297.5,296.5,297.5,296.5,297.5,296.5C297.5,296.6,297.5,296.6,297.5,296.5l0,2l0.1,0
				c0.6,16.4,10.6,27.7,23.2,25.3c13-2.5,24.1-18.5,25-36.2l0.1,0l0.2-35.5l-48.3,12.8L297.5,296.5L297.5,296.5z"/>
			<path fill="#1D1719" d="M400.2,273.2C400.2,273.2,400.2,273.2,400.2,273.2C400.2,273.2,400.2,273.2,400.2,273.2l0,2.2l0.1,0
				c0.8,18.5,13.5,30.9,29.5,27.8c16.6-3.1,30.7-21.6,31.8-41.6l0.1,0l0.2-40.2l-61.5,16.3L400.2,273.2L400.2,273.2z"/>
			<path fill="#1D1719" d="M532.2,202.6l-0.1,40.6c0,0,0,0,0,0c0,0,0,0,0,0l0,2.4l0.1,0c1.1,21.1,17.7,34.8,38.8,30.8
				c22-4.2,40.6-25.8,42-49l0.1,0l0.1-46.3L532.2,202.6z"/>
			<path fill="#1D1719" d="M118.7,337.2l0.2-24.8l-26.9,7.1l-0.3,25.2l0,0c0.3,12.4,5.8,21.2,12.9,19.9c7.2-1.4,13.3-12.8,13.9-25.9
				l0,0L118.7,337.2C118.7,337.2,118.7,337.2,118.7,337.2C118.7,337.2,118.7,337.2,118.7,337.2z"/>
			<path fill="#1D1719" d="M254.3,306.4l0.2-30l-39,10.3l-0.2,28.5c0,0,0,0,0,0c0,0,0,0,0,0l0,1.7l0.1,0
				c0.5,14.8,8.5,25.2,18.7,23.2c10.5-2,19.4-16.1,20.1-32l0.1,0L254.3,306.4C254.3,306.4,254.3,306.4,254.3,306.4
				C254.3,306.4,254.3,306.4,254.3,306.4z"/>
		
		
			<path fill="#C3176C" d="M91.8,343.3l0.2-23.8l-24.7,6.6l-0.3,24.2l0,0c0.2,11.9,5.3,20.4,11.8,19.2c6.6-1.3,12.3-12.2,12.8-24.7
				l0,0L91.8,343.3C91.8,343.3,91.8,343.3,91.8,343.3C91.8,343.3,91.8,343.3,91.8,343.3z"/>
			<path fill="#C3176C" d="M148,330.5l0.2-25.9l-29.3,7.8l-0.3,26.3l0,0c0.3,12.9,6.4,22.1,14.1,20.6c7.9-1.5,14.5-13.5,15.1-27.2
				l0,0L148,330.5C148,330.6,148,330.6,148,330.5C148,330.5,148,330.5,148,330.5z"/>
			<path fill="#C3176C" d="M180,323.2C180,323.2,180,323.3,180,323.2C180,323.3,180,323.3,180,323.2l0,1.7l0.1,0
				c0.4,14.1,7.7,24,16.9,22.3c9.5-1.8,17.5-15.1,18.2-30.2l0.1,0l0.2-30.2l-35.3,9.4L180,323.2L180,323.2z"/>
			<path fill="#C3176C" d="M254.3,306.4C254.3,306.4,254.3,306.4,254.3,306.4C254.3,306.4,254.3,306.4,254.3,306.4l0,1.8l0.1,0
				c0.5,15.6,9.4,26.4,20.8,24.2c11.7-2.2,21.5-17.2,22.4-33.9l0.1,0l0.2-33.6l-43.3,11.5L254.3,306.4z"/>
			<path fill="#C3176C" d="M345.9,285.5C345.9,285.5,345.9,285.6,345.9,285.5C345.9,285.6,345.9,285.6,345.9,285.5l0,2.1l0.1,0
				c0.7,17.4,11.9,29.2,26.1,26.5c14.7-2.8,27.1-19.9,28.1-38.7l0.1,0l0.2-37.7l-54.3,14.4L345.9,285.5L345.9,285.5z"/>
			<path fill="#C3176C" d="M461.8,259.1C461.8,259.2,461.8,259.2,461.8,259.1c0,0.1,0,0.1,0,0.2l0,2.2l0.1,0
				c1,19.7,15.4,32.7,33.7,29.3c19-3.6,35.1-23.5,36.4-45l0.1,0l0.1-43.1l-70.3,18.7L461.8,259.1L461.8,259.1z"/>
			<path fill="#C3176C" d="M613.2,181.1l-0.1,43.6c0,0,0,0,0,0.1c0,0,0,0,0,0l0,2.6l0.1,0c1.3,22.6,20.6,37.2,45.2,32.6
				c25.6-4.8,47.4-28.6,49-53.7l0.2,0V156L613.2,181.1z"/>
		
	
	
		<polygon fill="#C2E6F8" points="258.4,455.8 258.5,437.9 349.6,432.5 349.7,420.3 258.6,426.9 258.6,426.9 251.2,427.4 
			251.2,427.5 251.2,427.5 251.1,438.3 251.1,438.3 251,456 96.7,461.6 96.6,470.3 350.3,464.7 350.4,452.5 		"/>
		<polygon fill="#C2E6F8" points="96,530.6 349.8,549.5 349.9,537.2 96.1,521.9 		"/>
		<path fill="#C2E6F8" d="M264.7,630.4l-7.6-1.4l0,0.5l-73.9-13.7l0-0.4l-6.1-1.1l0,0.4l-0.1,0l-0.1,9.9l0.1,0l-0.3,32.5L95,637
			l-0.1,8.7l254,65.9l0.1-12.3l-84.6-20.8L264.7,630.4z M256.8,676.7l-74-18.2l0.3-32.8l73.9,14.7L256.8,676.7z"/>
	
	
		<path fill="#C3176C" d="M104,568.8c0,0-0.2,8.4,0.2,13.6c0.4,4.3,2.8,14.8,3.1,17.1c0.8,5.5-2,12.6-2,12.6
			c-1,4.6-2.1,10.9-1.5,13.6c1.9,8.5,1.9,10.6,1.7,17.2l3.1,0.8c0.2-1.9,0.1-12.7,0.1-12.7s4.2,3.8,4.6,5c0.3,1.1,6.3,10.4,7.6,10.5
			c1.3,0.1,8.6,1.9,9.2,1.9c1.8,0.1,3.1-4.8,3.3-5.1c0.1-0.1-1.4-1.4-5.1-5.1c-2-2-7.8-7-9.7-9.9c-2.3-3.5-3.6-5.5-4.3-12.8
			c-0.1-1.2-1-8.4-0.4-11.7c3.1-18,4.3-32.6,4.2-33.5c-0.1-0.9-1.7-1.9-2.5-2.2c-0.9-0.4-6.9-2.2-8.4-2.1
			C105.8,566.1,104.2,567.4,104,568.8z"/>
		<path fill="#7F1847" d="M223,513.3c0,0,2-8.1,4-11.5c2-3.4,3.7-6,4.3-6.7c0.6-0.7,0.9-1.9,1.7-0.1c0.8,1.7,3.1,8.6,5.1,10.3
			c2,1.8,3.5,3.6,6.6,3.9c3.1,0.3,3.7,0.1,4.9,0.2c1.2,0.1,2.1,1.8,2.4,2.8c0.4,1,0.1,3.3,0.1,3.3s0.2,0.1,0.3,0.7
			c0.1,0.5-0.6,15.2-0.6,15.2s-1.4,2.1-6.6,2.6c-5.2,0.5-15-0.2-16.2-3.4c-2.8-11.3-13.1-18.3-13.1-18.3s-1.9,1.5-2.1,7
			c-0.2,4.9,2,12.3,2,12.3l-9.7-0.6c0,0,6.4-8,0.2-24.4c-0.2-0.5-0.4-1.3-1.1-1.9c-0.5-0.4-0.5-1.9-0.3-2.6c0.1-0.7,1-1,2.3-0.8
			c1.4,0.3,6.1,2.7,9.5,5.1C220.1,508.7,221.4,512.7,223,513.3z"/>
		<path fill="#7F1847" d="M143.9,568.5c0,0-0.7,14.6,1.9,26.6c2.6,12.2,4.3,25.8,2.3,27.8c-2,2.1-5.1,10.9-1.8,15.4
			c3.4,4.5,1.2,12.3,1.2,12.3l1.8,0.8c0,0-0.6-10.1,0.5-11c1.1-1,5.1,2.7,6.2,6.7c1.1,4,3.5,9,7.8,10.1c4.4,1.1,7.1,2.7,7.3,1.2
			c0.2-1.5-2.7-5.1-5.9-9.4c-3.2-4.2-11.9-15-10.9-24.7c1-9.8-0.1-15.3,3.7-32.7c1.9-9,0.7-20.8,0.7-20.8"/>
		<path fill="#C3176C" d="M200,414.9c0,0-3.8,4-4,8.6c-0.2,4.6,4.5,13.8,4.6,20.7c0.2,6.9-0.1,15.2-0.1,15.2l1.9-0.1l0.2-25.4
			c0,0,6.5,8.9,7.5,14.5c1,5.6,8.2,10.4,15.5,10.2c7.5-0.3,7.5-0.3,7.5-0.3c0.9-1.8-0.9-7.4-3.1-8.5c-2-0.9-4.3-2.2-4.3-2.2
			s-7.8,1.7-12-8.8C209.4,428.3,209.1,414.7,200,414.9z"/>
		<path fill="#C3176C" d="M225,584.9c5.3-1.6,9.4,0.3,14.6-6c0,0,3.7,3.6,3.7,10.3c0,6.7-1.7,9.8-3.3,12.4
			c-1.7,2.5-1.3,14.2-1.3,14.2l-0.2,12.6l-3-0.7c0,0,2.3-20.5-0.3-24c-2.5-3.5-15.1-1.3-16.7,11.7c-1.6,13-13.5,6.7-13.5,6.7
			s-10.1-3.9-8.4-7.2c1.7-3.3,12.1-1.5,13.6-3.3c1.5-1.8,2.5-9.7,8.9-19.9C220.1,590.1,221.7,585.9,225,584.9z"/>
		<path fill="#5C0F31" d="M119.7,402.2c1.5-6.9-15.5-5.1-15.6,0.6c0,0,3.7,9.4,4,17.9c0.2,4.8-2.9,7.2-3,11.4c0,5.4,1,8.1,2.1,10.4
			c1.1,2.2,0.7,11.8,0.7,11.8l0,10.4l2-0.2c0,0-1.3-17.2,0.5-19.9c1.8-2.7,6.6,1.3,7.6,12.6c1,11.4,10.3,7.6,10.3,7.6s8.3-2,6.9-5.3
			c-1.4-3.2-7.8-2-10-8.3c-0.8-2.3-3.5-17.5-8.2-26.8C116.4,422.9,118.4,408.5,119.7,402.2z"/>
		<path fill="#C3176C" d="M171.4,514.4c-0.7-1.9-2.6-11.5-5.7-20.6c-5.7-0.5-10.6-5.8-13.3-13.5c-0.3-0.3-0.5-0.5-0.8-0.8
			c0,0.1,0,0.3,0,0.4c0.2,5.2-3.3,7.4-3.4,11.9c0,5.8,1.1,8.8,2.4,11.3c1.3,2.5,0.8,12.8,0.8,12.8l0,11.1l2.3,0
			c0,0-1.5-18.6,0.5-21.3c2.1-2.7,7.6,2.1,8.8,14.3c1.2,12.3,11.8,9.2,11.8,9.2s9.5-1.3,7.9-5C181.4,520.7,173.9,521.4,171.4,514.4z
			"/>
		<path fill="#7F1847" d="M332.1,570c0,0-1.4,20.5-4.4,23l-2.6-0.3c0,0,1.6-0.9,1.2,11c-0.4,11.8-3.4,19.3-5.7,28.6
			c-2.3,9.3-3.9,12.9,0.2,23.7c4.2,11,8.7,11.9,4.4,20.1c0,0-3.9,6.7-4,12.1c0,5.4-0.1,8.6-0.1,8.6l-2.6-0.6l0.1-12.9
			c0,0-5.7-3.8-8.3,0.5c-2.5,4.4-6.3,8.4-10.9,7.6c-4.6-0.8-13.3-3.3-13.3-3.3s1-2.4,4.5-4.8c15.4-10,20.4-32.9,19.3-39.3
			c-5.1-29.9-3.7-54.3-3.7-54.3s-1.9,0.5-2.8-0.7c-0.9-1.2-2.6-20.6-2.6-20.6S312.5,563.1,332.1,570z"/>
		<path fill="#7F1847" d="M340.8,366.3c-6.5,6.4-18.4,6.7-18.4,6.7s-4.7,5.9-8.4,11.5c-6.4,9.8-5.3,14.7-9.8,19.1
			c-7.2,6.9-13.6,6.6-16.7,5.9c1.6-4.6,2.5-12.8-3.2-6.4c-5.9-0.4-3.4,5.3-1,8.1l-6.1,6.2c-5.2,8,1.2,8.9,1.2,8.9s0,0,15.1-1.1
			c15.7-1.1,18.7-7.4,21.6-20c2.9-12.7,12.6-19.2,17.2-15.7c1.7,1.3,2.1,6.3,1.9,12c0.7,10.9-2.4,20.9-2.4,20.9l7.7-0.6
			c0,0-3.8-9.4-2.3-19.7c1.3-8.5,3.1-17.4,5.7-21.8C348.5,370.7,340.8,366.3,340.8,366.3z"/>
		<path fill="#5C0F31" d="M136.9,516c-0.3-0.5-0.7-1.1-0.7-1.1s-0.6,0-1,0.5c-0.4,0.6-1.9,2.3-1.9,2.3s0.2-2.7,0.1-4.8
			c-0.1-0.8-0.2-1.5-0.3-2.1c0-0.1,0.1-0.2,0.1-0.3c0-0.2-0.1-0.5-0.3-0.9c-0.1-0.3-0.2-0.5-0.2-0.5c-0.1-0.1-0.1-0.1-0.2-0.2
			c-1-1.5-2.9-3.5-4.2-4.7c-0.4-0.5-0.8-0.9-1.3-1c-0.8-0.1-2.4,3.1-3.1,5c-0.7,1.9-1.6,5.3-2.2,7.7c-1-1.5-3.3-8.9-4.7-12.1
			c-1.4-3.2-4-7.7-6.1-8.6c-2.7-1.2-4.2,1.1-4.3,1.6c-0.1,0.5,0.3,1.7,0.7,2.4c0.3,0.7,1.4,2.7,1.8,3.8c0.4,1.1,0.5,3.9,0.5,5.5
			c0.1,2.1-0.3,16.9-0.3,16.9l1.7,0.1c0,0,0-9.8,0-11.6c0-1.8,0.3-6.9,0.8-9.6c0.5-2.6,1.8-1.7,2.6-0.8c0.8,0.8,2.5,3.9,3.3,5.8
			c0.8,1.9,2.8,7,3.9,9.3c1.1,2.3,2.8,7.2,5.9,7.9c3.2,0.8,7.4-7.1,8-7.8c0.6-0.8,1.4-2,1.4-2S137.1,516.6,136.9,516z M132.6,518.5
			c0,0-1.6,1.4-2.6,1.5c-0.2-0.5,0-2.8,0.2-4.1c0.2-1.3,0.6-2.3,1.1-3.1c0.5-0.8,0.7-0.6,0.9,0.1
			C132.5,513.6,132.9,515.3,132.6,518.5z"/>
		<path fill="#C3176C" d="M291.6,518.6c-7.6,4-11.5,16.4-11,16.9c0.9,1,11.3,2.5,16.3,2.1c5.1-0.4,7.9-6.3,9.8-9
			c1.9-2.8,5.3-9.2,6.7-11.6c1.4-2.3,4.4-6.2,5.8-7.2c1.3-1,3.7-2.2,4.5,1.3c0.8,3.6,1.2,10.5,1.2,12.9c0,2.3-0.3,15.4-0.3,15.4
			l3,0.2c0,0-0.4-19.8-0.2-22.7c0.2-2.2,0.3-5.9,1.1-7.3c0.8-1.4,2.8-4,3.5-5c0.6-1,1.5-2.6,1.3-3.3c-0.2-0.7-2.9-3.9-7.7-2.4
			c-3.7,1.1-8.4,6.8-10.8,10.9c-2.4,4.1-3,5.1-4.7,6.8c-0.9-3.2-1.3-3.6-2.3-6.1c-1.1-2.4-3.6-6.7-4.9-6.6
			C302.4,503.9,298.9,514.7,291.6,518.6z"/>
	
</g>
</svg>
